<svg width="75" height="65" viewBox="0 0 75 65" fill="none" xmlns="http://www.w3.org/2000/svg">
<path d="M0.467673 44.5293C0.467673 44.5293 26.3081 44.5419 44.2287 22.9479C44.2287 22.9479 48.2917 28.0746 52.9302 28.9016C52.9302 28.9016 41.9188 52.015 25.3845 55.0974C8.85019 58.1799 3.84099 50.3003 0.467673 44.5293Z" fill="#EAEAEA"/>
<path d="M0.492188 44.541C0.492188 44.541 13.0737 53.9632 26.2494 47.6978C39.425 41.4323 48.6617 28.819 49.355 26.5496C49.355 26.5496 46.1908 25.5068 44.3617 22.884C44.3617 22.884 29.5389 40.5319 0.492188 44.541Z" fill="#D1D1D1"/>
<path d="M54.1623 3.82821C51.3211 5.80955 50.38 9.49673 51.7527 12.5418L46.7788 20.3946L54.0038 25.8614L59.4433 16.6171C60.4286 16.4454 61.393 16.0613 62.2678 15.4513C65.4772 13.2132 66.2645 8.7976 64.0264 5.58823C61.7883 2.37886 57.3717 1.59012 54.1623 3.82821ZM58.9941 11.5325C58.008 12.2201 56.6516 11.9783 55.964 10.9922C55.2763 10.0061 55.5182 8.64969 56.5042 7.96205C57.4903 7.2744 58.8467 7.51625 59.5344 8.50232C60.222 9.48839 59.9802 10.8448 58.9941 11.5325Z" fill="#CC876A"/>
<path d="M40.0948 19.2792C40.0948 19.2792 40.4382 22.7218 43.6316 25.2055C46.7505 27.631 51.3836 31.6348 57.1192 30.6956C57.593 30.6176 58.0256 30.3499 58.2615 29.9308C58.5663 29.3916 58.6262 28.5164 57.5008 27.2311C55.823 25.911 43.0571 17.1582 41.6336 17.4467C40.2102 17.7352 40.0274 18.8723 40.0938 19.2777L40.0948 19.2792Z" fill="#FFC800"/>
<mask id="mask0_989_9693" style="mask-type:luminance" maskUnits="userSpaceOnUse" x="40" y="17" width="19" height="14">
<path d="M40.1026 19.2792C40.1026 19.2792 40.446 22.7218 43.6394 25.2055C46.7583 27.631 51.3914 31.6348 57.127 30.6956C57.6008 30.6176 58.0334 30.3499 58.2693 29.9308C58.5741 29.3916 58.634 28.5164 57.5086 27.2311C55.8308 25.911 43.0649 17.1582 41.6415 17.4467C40.218 17.7352 40.0352 18.8723 40.1016 19.2777L40.1026 19.2792Z" fill="white"/>
</mask>
<g mask="url(#mask0_989_9693)">
<path d="M55.6415 33.621C56.6891 32.403 54.1931 28.5383 50.0664 24.9888C45.9398 21.4394 41.7452 19.5494 40.6976 20.7673C39.65 21.9853 42.1461 25.85 46.2727 29.3995C50.3994 32.9489 54.5939 34.8389 55.6415 33.621Z" fill="#DAAD3C"/>
</g>
<path d="M54.6108 24.7942L48.0237 18.4052L49.315 16.3912L55.495 18.9726L50.6802 14.2429L51.7536 12.5399L59.8898 16.5547L59.4442 16.6152L58.9012 17.5368L52.4651 13.9251L57.7922 19.4259L56.9505 20.8528L49.7907 18.0404L55.3745 23.5595L54.6108 24.7942Z" fill="#825440"/>
</svg>
