<svg width="58" height="56" viewBox="0 0 58 56" fill="none" xmlns="http://www.w3.org/2000/svg">
<g clip-path="url(#clip0_1032_7365)">
<path d="M-0.221183 1.81445L17.0198 12.3518C17.0198 12.3518 18.9088 51.3413 17.7286 55.7897C17.7286 55.7897 4.50275 46.0719 3.55678 44.4328C3.55678 44.4328 5.68299 19.7278 -0.222656 1.81445H-0.221183Z" fill="#A39D3F"/>
<path d="M17.2422 12.4117C17.2422 12.4117 24.5653 1.52224 29.052 0C29.052 0 29.6429 35.3592 29.525 36.414C29.4071 37.4687 18.0703 56.9043 17.9524 55.9679C17.8345 55.0314 17.2437 12.4117 17.2437 12.4117H17.2422Z" fill="#4F6153"/>
<path d="M58.0018 1.87305L40.7608 12.4104C40.7608 12.4104 38.8718 51.3999 40.052 55.8483C40.052 55.8483 53.2779 46.1305 54.2238 44.4914C54.2238 44.4914 52.0976 19.7864 58.0033 1.87305H58.0018Z" fill="#4F6153"/>
<path d="M40.5352 12.3531C40.5352 12.3531 33.2135 1.46365 28.7268 -0.0585938C28.7268 -0.0585938 28.136 35.3006 28.2538 36.3554C28.3717 37.4101 39.7085 56.8457 39.8264 55.9093C39.9443 54.9728 40.5352 12.3531 40.5352 12.3531Z" fill="#A39D3F"/>
<path d="M7.3421 15.1074C7.02825 15.6187 6.53464 16.0452 6.00567 16.2994C5.06707 16.7494 4.73701 17.8728 5.94673 18.3038C6.7704 18.5959 7.30674 18.1182 7.91823 17.6478C9.13973 16.7085 10.6338 17.4185 12.0145 17.3133C12.5154 17.2753 13.2212 16.8663 13.1255 16.2834C13.068 15.9357 12.7217 15.7078 12.3814 15.6099C12.0513 15.5149 11.5061 15.5485 11.2424 15.2754C10.9654 14.989 10.9639 14.3506 10.8092 13.9708C10.4231 13.0241 9.63776 12.1125 8.53413 12.6823C8.21439 12.8518 8.02432 13.1907 7.90938 13.5296C7.72962 14.0614 7.63974 14.6194 7.3421 15.1044V15.1074Z" fill="#B3D6E9"/>
<path d="M36.4329 15.6054C35.8774 14.7259 35.5356 13.4623 35.4516 12.1679C35.3043 9.87286 33.9015 8.76843 32.6771 11.4156C31.8446 13.2168 32.2365 14.5988 32.5798 16.1459C33.2665 19.243 31.5027 22.4554 30.9399 25.6562C30.7351 26.8191 30.9443 28.5678 31.8092 28.5269C32.3249 28.5035 32.823 27.7774 33.1353 27.0236C33.4389 26.2946 33.6702 25.0324 34.1889 24.5109C34.7326 23.9645 35.627 24.1574 36.237 23.9178C37.7605 23.3217 39.4418 21.7995 39.2104 19.0896C39.1382 18.3051 38.7625 17.7616 38.3455 17.3935C37.6942 16.8164 36.959 16.4395 36.4329 15.6039V15.6054Z" fill="#B3D6E9"/>
<path d="M9.36176 40.5678L9.1481 40.3662L7.77631 41.7848L7.15156 40.0156L6.87308 40.112L7.54792 42.0214L6.11719 43.5028L6.32937 43.7044L7.65696 42.3311L8.32296 44.2113L8.60145 44.1149L7.88682 42.0945L9.36176 40.5678Z" fill="black"/>
</g>
<defs>
<clipPath id="clip0_1032_7365">
<rect width="58" height="56" fill="white"/>
</clipPath>
</defs>
</svg>
