<svg width="48" height="60" viewBox="0 0 48 60" fill="none" xmlns="http://www.w3.org/2000/svg">
<path d="M24.6248 54.3257C34.8851 54.3257 43.2027 46.0081 43.2027 35.7478C43.2027 25.4875 34.8851 17.1699 24.6248 17.1699C14.3645 17.1699 6.04688 25.4875 6.04688 35.7478C6.04688 46.0081 14.3645 54.3257 24.6248 54.3257Z" fill="#FEE0C8"/>
<path d="M38.6578 34.7618L25.1328 30.0859V39.4377L38.6578 34.7618Z" fill="#C1BAB0"/>
<path d="M10.5312 34.7618L24.0563 30.0859V39.4377L10.5312 34.7618Z" fill="#C1BAB0"/>
<path d="M24.6251 21.6055L29.301 35.1305H19.9492L24.6251 21.6055Z" fill="#BA1418"/>
<path d="M24.6251 49.8785L29.301 36.3535H19.9492L24.6251 49.8785Z" fill="#89A5BB"/>
<path d="M28.6638 12.2287C29.1598 11.6203 29.4508 10.9126 29.4508 10.152C29.4508 9.49066 29.2326 8.86236 28.849 8.31343C31.0712 7.51317 32.4865 6.15074 32.4865 4.537C32.4865 1.95104 28.8622 0 24.054 0C19.2459 0 15.6216 1.95104 15.6216 4.537C15.6216 6.15074 17.0303 7.51317 19.2591 8.31343C18.8755 8.86236 18.6573 9.49066 18.6573 10.152C18.6573 10.906 18.9416 11.607 19.4311 12.2089C8.35972 14.3319 0 24.0607 0 35.7471C0 48.9877 10.734 59.7284 23.9813 59.7284C37.2285 59.7284 47.9626 48.9943 47.9626 35.7471C47.9626 24.107 39.669 14.4113 28.6704 12.2287H28.6638ZM17.6057 4.53039C17.6057 3.48542 20.1189 1.9775 24.054 1.9775C27.9892 1.9775 30.5024 3.49204 30.5024 4.53039C30.5024 5.28435 29.1863 6.2764 26.9707 6.77243C26.1307 6.369 25.1255 6.1309 24.054 6.1309C22.9826 6.1309 21.9773 6.369 21.1374 6.77243C18.9218 6.2764 17.6057 5.27774 17.6057 4.53039ZM23.9813 53.0816C14.4046 53.0816 6.64677 45.3171 6.64677 35.7471C6.64677 26.177 14.4113 18.4126 23.9813 18.4126C33.5513 18.4126 41.3158 26.177 41.3158 35.7471C41.3158 45.3171 33.5513 53.0816 23.9813 53.0816Z" fill="#D38C00"/>
</svg>
