<svg width="67" height="43" viewBox="0 0 67 43" fill="none" xmlns="http://www.w3.org/2000/svg">
<g clip-path="url(#clip0_1030_7330)">
<path d="M21.5922 2.05916C25.3379 1.93568 28.1914 4.38704 29.2238 7.81317C29.6889 9.35808 28.9775 11.0501 29.3443 12.5556H37.6167C37.9508 11.0015 37.2996 9.28451 37.7346 7.82236C38.7683 4.33843 41.6978 1.92648 45.3662 2.05785C47.5358 2.13536 49.3281 3.31243 50.7274 4.84815L61.5912 16.77C61.2453 16.8567 61.1064 16.569 60.7867 16.3443C57.0148 13.6972 52.3389 12.8341 47.6276 14.3961C43.9028 15.631 40.4794 18.5894 38.7631 22.7145C38.5914 19.7429 39.8099 16.9828 41.9493 14.6956L24.9986 14.672C27.0817 16.946 28.3578 19.6154 28.2006 22.7407C26.5367 18.6919 23.1499 15.6888 19.4212 14.4276C14.6654 12.8184 9.90035 13.6775 6.1009 16.3969C5.80742 16.6071 5.68165 16.8751 5.36328 16.77L16.8114 4.26486C18.0181 2.94722 19.8444 2.11697 21.5909 2.05916H21.5922Z" fill="#FFE166"/>
<path d="M29.2215 7.81432C28.1891 4.3882 25.3356 1.93683 21.5898 2.06032C22.334 0.485196 24.2259 -0.26624 25.9605 0.0884591C27.5969 0.422139 29.0132 1.80021 29.2163 3.60392C29.3774 5.02665 29.3106 6.44413 29.2202 7.81432H29.2215Z" fill="#D38C00"/>
<path d="M45.3625 2.05797C41.694 1.9266 38.7659 4.33855 37.7308 7.82248C37.6378 6.45098 37.5749 5.02824 37.7348 3.60288C37.9378 1.79654 39.3541 0.425042 40.9905 0.0874212C42.7238 -0.269905 44.6144 0.484158 45.3625 2.05666V2.05797Z" fill="#D38C00"/>
<path d="M61.5877 16.7695L63.3381 18.6651C68.0101 23.7242 68.1595 31.4277 64.0849 36.9847C60.1335 42.3761 52.9604 44.4793 46.6546 41.827C40.6397 39.2968 36.8887 33.0042 37.8071 26.2242L29.3199 26.2215C29.2047 26.2215 29.1706 26.5342 29.2112 26.9178C30.0497 34.6936 24.1239 42.3012 16.0874 42.9489C7.96443 43.6031 1.15425 37.9844 0 29.8723V26.726C0 23.0792 3.12865 19.2103 5.36115 16.7708C5.68083 16.8759 5.80529 16.6079 6.09877 16.3977C9.89822 13.6783 14.6632 12.8192 19.4191 14.4285C23.1478 15.6909 26.5346 18.6927 28.1985 22.7415C28.3557 19.6163 27.0783 16.9468 24.9964 14.6728L41.9472 14.6965C39.8077 16.9836 38.5906 19.7437 38.7609 22.7153C40.4759 18.5903 43.9007 15.6318 47.6254 14.3969C52.3367 12.8349 57.0127 13.698 60.7846 16.3451C61.1043 16.5698 61.2432 16.8575 61.5891 16.7708L61.5877 16.7695ZM25.0986 28.2959C25.0986 22.5064 20.4188 17.8139 14.6449 17.8139C8.87106 17.8139 4.19118 22.5064 4.19118 28.2959C4.19118 34.0853 8.87106 38.7779 14.6449 38.7779C20.4188 38.7779 25.0986 34.0853 25.0986 28.2959ZM62.7577 28.2959C62.7577 22.5064 58.0778 17.8139 52.304 17.8139C46.5301 17.8139 41.8503 22.5064 41.8503 28.2959C41.8503 34.0853 46.5301 38.7779 52.304 38.7779C58.0778 38.7779 62.7577 34.0853 62.7577 28.2959Z" fill="#D38C00"/>
<path d="M59.6952 35.7068C63.7777 31.6133 63.7777 24.9765 59.6952 20.883C55.6128 16.7895 48.9939 16.7895 44.9114 20.883C40.829 24.9765 40.829 31.6133 44.9114 35.7068C48.9939 39.8003 55.6128 39.8003 59.6952 35.7068Z" fill="#B3D6E9"/>
<path d="M22.039 35.7068C26.1214 31.6133 26.1214 24.9765 22.039 20.883C17.9565 16.7895 11.3376 16.7895 7.25518 20.883C3.17275 24.9765 3.17275 31.6133 7.25518 35.7068C11.3376 39.8003 17.9565 39.8003 22.039 35.7068Z" fill="#B3D6E9"/>
</g>
<defs>
<clipPath id="clip0_1030_7330">
<rect width="67" height="43" fill="white"/>
</clipPath>
</defs>
</svg>
