<svg width="55" height="54" viewBox="0 0 55 54" fill="none" xmlns="http://www.w3.org/2000/svg">
<g clip-path="url(#clip0_1031_7348)">
<path d="M39.3773 33.4116C39.2653 33.6903 39.0787 34.0318 38.7911 34.3084L34.8152 38.1487C34.5298 38.4254 34.2685 38.6739 33.9326 38.7301C33.4299 37.9931 32.7164 37.3815 31.9106 36.731C27.399 39.655 22.1497 40.768 16.8214 39.8517C8.26142 38.38 1.71683 31.8166 0.287602 23.4012C0.239302 23.1138 0.180026 22.9171 0 22.8199V17.6526C1.58071 8.32307 8.50291 1.15678 18.3121 0.112956C26.1235 -0.716916 33.7943 3.08666 37.79 9.52249C42.0162 16.3279 41.8515 24.7735 37.3553 31.3866C38.06 32.1819 38.6945 32.8108 39.3751 33.4116H39.3773ZM36.2203 20.1487C36.2203 11.5864 29.1685 4.64267 20.468 4.64267C11.7675 4.64267 4.71579 11.5864 4.71579 20.1487C4.71579 28.7111 11.7675 35.6548 20.468 35.6548C29.1685 35.6548 36.2203 28.7133 36.2203 20.1487Z" fill="#FFE166"/>
<path d="M31.6069 31.1129C37.7586 25.0574 37.7586 15.2395 31.6069 9.184C25.4553 3.1285 15.4815 3.1285 9.32992 9.184C3.17829 15.2395 3.17829 25.0574 9.32992 31.1129C15.4815 37.1684 25.4553 37.1684 31.6069 31.1129Z" fill="#B3D6E9"/>
<path d="M46.2856 53.8775C45.8355 53.7932 45.3986 53.6613 44.9837 53.4776C42.8431 52.5267 41.2866 50.6876 39.9386 48.855C39.2733 47.9517 38.663 47.0051 37.9605 46.1298C37.7695 45.8899 35.5982 42.9486 35.7848 42.8773C36.1427 42.7412 36.4039 42.5402 36.6871 42.2614L42.9309 36.1044C43.28 35.7586 43.6752 35.536 43.6269 35.0605C46.3909 36.85 49.0672 38.7734 51.6973 40.8869C53.3241 42.1966 54.5689 43.8023 54.9114 45.8662C55.7106 50.6639 51.0584 54.7635 46.2878 53.8775H46.2856Z" fill="#FFB801"/>
<path d="M40.307 31.7769L32.5543 39.4084C31.5254 40.4212 31.5254 42.0632 32.5543 43.076L32.9315 43.4473C33.9604 44.4601 35.6285 44.4601 36.6573 43.4473L44.41 35.8157C45.4389 34.803 45.4389 33.161 44.41 32.1482L44.0328 31.7769C43.0039 30.7641 41.3359 30.7641 40.307 31.7769Z" fill="#D38C00"/>
</g>
<defs>
<clipPath id="clip0_1031_7348">
<rect width="55" height="54" fill="white"/>
</clipPath>
</defs>
</svg>
