<svg width="126" height="180" viewBox="0 0 126 180" fill="none" xmlns="http://www.w3.org/2000/svg">
<g clip-path="url(#clip0_853_3072)">
<path d="M0.869809 98.6284C2.96426 92.5838 7.12695 87.5107 12.2438 83.7558C14.7052 81.9492 17.4131 80.3501 20.231 79.1658C22.412 78.2494 26.7398 76.7396 28.7635 78.7667C30.5408 80.547 33.0022 89.5877 34.0953 90.4096C35.1884 91.2315 39.566 96.1628 42.3001 95.8897C45.0342 95.6166 47.3593 94.6582 47.3593 94.6582L40.3865 104.521C40.3865 104.521 35.1019 104.673 32.5933 107.259C32.6614 107.168 29.4188 105.043 29.0754 104.862C27.3165 103.93 25.1723 103.736 23.2928 104.424C21.8432 104.954 20.5377 106.346 18.9833 106.637C17.3895 106.936 17.1483 105.075 17.0199 103.925C16.8312 102.207 16.8679 100.852 16.0054 99.2717C14.3854 96.3045 10.4141 95.824 7.3786 96.3334C5.91851 96.5776 1.43864 96.9794 0.867188 98.6337L0.869809 98.6284Z" fill="#7C7825"/>
<path d="M33.2478 107.898L31.848 106.716C31.5361 107.144 31.6907 107.664 31.9214 107.874C31.6068 107.59 28.9986 105.868 28.6395 105.671C27.0824 104.846 25.2003 104.699 23.6039 105.282C23.077 105.474 22.5344 105.826 21.9629 106.199C21.1031 106.758 20.2119 107.336 19.1502 107.535C18.3035 107.693 17.7216 107.425 17.3808 107.173C16.3716 106.422 16.2038 104.92 16.1042 104.022C16.0702 103.704 16.0413 103.4 16.0151 103.103C15.9024 101.835 15.8106 100.834 15.1973 99.7077C13.8106 97.1633 10.1984 96.7852 7.52721 97.2342C7.32798 97.2683 7.07634 97.3024 6.78537 97.3445C3.63976 97.7935 1.93851 98.3265 1.7288 98.9278L-0.00390625 98.3265C2.04074 92.4263 6.08547 87.13 11.6951 83.0127C14.361 81.0565 17.1108 79.4784 19.8711 78.3178C24.3588 76.4324 27.6565 76.3615 29.4075 78.1182C30.4325 79.1449 31.4574 81.7392 32.7891 85.2893C33.4234 86.9777 34.2885 89.2858 34.6633 89.6928C34.9386 89.9029 35.316 90.26 35.8325 90.751C37.3397 92.1795 40.4775 95.1466 42.2049 94.976C44.7634 94.7186 46.9836 93.8154 47.0072 93.8075L49.93 92.6075L40.868 105.424L40.4093 105.437C40.3621 105.437 35.4628 105.613 33.2478 107.898ZM25.6459 103.095C26.9723 103.095 28.3144 103.418 29.5019 104.048C29.7562 104.185 30.7969 104.862 31.4548 105.301C31.9293 105.616 32.2858 105.86 32.5584 106.052C34.9386 104.156 38.5953 103.723 39.8903 103.625L45.0412 96.3414C44.2574 96.5331 43.3478 96.7064 42.3884 96.8035C39.8221 97.0582 36.5376 93.9466 34.5742 92.0849C34.126 91.6596 33.7354 91.2919 33.544 91.1449C32.8913 90.6539 32.3487 89.3278 31.0747 85.9353C30.173 83.5326 28.9383 80.2451 28.1126 79.418C26.9461 78.2521 24.2723 78.4622 20.5841 80.014C17.9575 81.1195 15.3336 82.6267 12.783 84.4963C8.34244 87.755 4.94256 91.783 2.82452 96.2626C3.92548 95.9265 5.22567 95.7112 6.5311 95.5248C6.80372 95.4854 7.04226 95.4512 7.22837 95.4197C12.4448 94.5453 15.6009 96.604 16.812 98.8254C17.6089 100.288 17.7242 101.575 17.8474 102.937C17.8736 103.221 17.8999 103.515 17.9339 103.82C17.9811 104.258 18.1122 105.424 18.4792 105.697C18.508 105.718 18.5814 105.773 18.8173 105.729C19.5225 105.597 20.225 105.141 20.9694 104.657C21.6038 104.245 22.2591 103.82 22.98 103.557C23.8267 103.247 24.7337 103.095 25.6485 103.095H25.6459ZM34.645 89.6744C34.645 89.6744 34.6476 89.6744 34.6502 89.6771C34.6502 89.6771 34.6476 89.6771 34.645 89.6744Z" fill="#515C04"/>
<path d="M45.2164 82.427C45.2164 82.427 41.3263 88.8734 42.9725 89.4721C44.6187 90.0708 52.2521 89.7714 52.5509 91.8721L54.7948 85.4257L45.2164 82.427Z" fill="#7C7825"/>
<path d="M52.1734 95.74L51.6412 92.0008C51.6412 92.0008 51.4473 91.6227 49.8142 91.284C48.6293 91.0371 47.1587 90.9085 45.8612 90.7955C44.4273 90.6695 43.2949 90.5697 42.6553 90.336C42.2332 90.1811 41.9134 89.8555 41.7588 89.4144C41.148 87.6813 43.4233 83.6192 44.4299 81.9518L44.8022 81.3347L55.9717 84.8323L52.1734 95.74ZM43.4731 88.6634C43.9922 88.7842 45.0224 88.8761 46.0211 88.9627C48.3619 89.1675 50.7552 89.3802 52.1786 90.1365L53.6125 86.0166L45.6331 83.5194C44.388 85.6936 43.4548 87.9045 43.4705 88.6608L43.4731 88.6634Z" fill="#515C04"/>
<path d="M36.5626 72.8086C36.5626 72.8086 31.7734 76.7053 31.7734 78.6563C31.7734 80.6073 38.2088 81.5053 41.3518 81.206C44.4948 80.9066 36.5626 72.8112 36.5626 72.8112V72.8086Z" fill="#7C7825"/>
<path d="M40.0878 82.175C37.3564 82.175 33.178 81.6183 31.5894 80.1715C30.9813 79.6174 30.8555 79.0424 30.8555 78.6537C30.8555 76.4402 34.7796 73.0739 35.9828 72.0944L36.6303 71.5667L37.2148 72.1627C37.2778 72.2284 38.7876 73.7723 40.2477 75.5579C43.0919 79.0424 43.1863 80.308 42.9032 81.0852C42.7773 81.4292 42.4208 82.0227 41.4378 82.1172C41.0551 82.154 40.5964 82.1723 40.0878 82.1723V82.175ZM36.4966 74.0638C34.5568 75.7496 32.6904 77.8424 32.6904 78.6537C32.7297 78.7903 33.3824 79.4336 35.8177 79.922C37.5609 80.2712 39.6841 80.4209 41.1521 80.2975C40.9319 79.3181 38.9266 76.6319 36.4966 74.0638Z" fill="#515C04"/>
<path d="M14.5736 135.799C14.5736 135.799 11.5958 131.01 16.558 128.389C16.558 128.389 19.8976 130.377 20.2567 131.191C20.6158 132.005 15.9262 135.981 14.571 135.799H14.5736Z" fill="#7C7825"/>
<path d="M14.6413 136.724C14.5758 136.724 14.5129 136.721 14.4552 136.713L14.0253 136.655L13.7973 136.288C13.7343 136.188 12.2664 133.783 12.9584 131.228C13.37 129.7 14.4395 128.473 16.1329 127.578L16.589 127.336L17.032 127.599C18.3715 128.397 20.6835 129.878 21.1003 130.818C21.4227 131.548 20.8723 132.286 20.6652 132.564C19.7241 133.822 16.4029 136.724 14.6439 136.724H14.6413ZM16.547 129.455C15.5798 130.065 14.9664 130.818 14.7278 131.706C14.408 132.887 14.7934 134.098 15.0843 134.773C16.2587 134.274 18.6546 132.278 19.2575 131.388C18.7961 130.942 17.648 130.138 16.547 129.455Z" fill="#515C04"/>
<path d="M15.1133 139.778C15.1133 139.778 17.8211 138.15 19.1737 138.15C20.5264 138.15 19.5355 144.386 19.1737 144.93C18.812 145.473 15.5642 141.676 15.1133 139.778Z" fill="#7C7825"/>
<path d="M19.0679 145.901C19.0024 145.901 18.9342 145.896 18.8635 145.883C17.5344 145.644 14.6431 141.766 14.2211 139.991L14.0664 139.337L14.6431 138.99C15.1307 138.696 17.6445 137.233 19.1754 137.233C19.6892 137.233 20.1401 137.522 20.4101 138.026C21.262 139.62 20.452 144.672 19.9408 145.442C19.7442 145.736 19.4218 145.904 19.0705 145.904L19.0679 145.901ZM16.2395 140.195C16.7428 141.275 17.8411 142.713 18.6144 143.52C18.8608 142.167 19.0705 139.927 18.8687 139.103C18.1898 139.234 17.1124 139.725 16.2395 140.195Z" fill="#515C04"/>
<path d="M21.1602 144.93C21.1602 144.93 22.7854 140.773 23.2363 140.5C23.6871 140.227 27.2967 141.495 27.3858 143.12C27.475 144.746 22.4236 145.019 21.1602 144.927V144.93Z" fill="#7C7825"/>
<path d="M21.6458 145.859C21.3968 145.859 21.2081 145.854 21.098 145.846L19.8555 145.757L20.309 144.593C22.0469 140.143 22.5161 139.862 22.7678 139.712C23.6774 139.166 25.6513 140.164 26.0392 140.368C27.4678 141.127 28.2516 142.062 28.3067 143.07C28.325 143.42 28.2464 143.94 27.7536 144.423C26.5058 145.654 23.0902 145.859 21.6485 145.859H21.6458ZM23.6984 141.414C23.4284 141.899 22.9696 142.926 22.5188 144.01C24.1597 143.921 26.1021 143.546 26.4612 143.118C26.3328 142.477 24.5529 141.589 23.6957 141.414H23.6984Z" fill="#515C04"/>
<path d="M50.3924 22.7974C50.3924 22.7974 49.7213 15.2613 51.4671 14.723C53.213 14.1847 58.8567 16.6083 60.8725 19.5676C60.8725 19.5676 51.8708 23.0679 50.3924 22.7974Z" fill="#7C7825"/>
<path d="M50.5218 23.7244C50.4091 23.7244 50.3121 23.7165 50.2282 23.7008L49.5414 23.5747L49.4785 22.8763C49.4706 22.7975 49.3055 20.9174 49.3579 18.9349C49.4392 15.7787 50.008 14.2084 51.1981 13.8408C53.4472 13.1476 59.4344 15.8207 61.631 19.0478L62.2811 20.0036L61.2038 20.4211C58.5746 21.4426 52.493 23.7218 50.5218 23.7218V23.7244ZM51.7748 15.5896C51.2898 16.0596 51.0618 18.8745 51.2374 21.8128C52.763 21.5056 56.1629 20.366 59.3452 19.166C57.1249 16.9235 52.957 15.2876 51.7748 15.5896Z" fill="#515C04"/>
<path d="M31.6556 43.3733C31.6556 43.3733 23.2253 36.365 23.3092 33.6604C23.3931 30.9558 34.3529 33.0696 35.619 34.0831C36.8851 35.0967 31.6556 43.3733 31.6556 43.3733Z" fill="#7C7825"/>
<path d="M31.8703 44.7465L31.0682 44.0795C29.0104 42.3675 22.2998 36.5566 22.3916 33.6314C22.4047 33.1981 22.5882 32.3946 23.6603 31.8984C26.4075 30.6275 34.8167 32.2634 36.1903 33.3636C37.1838 34.1592 36.8299 35.8896 34.9242 39.5316C33.7708 41.7347 32.4863 43.775 32.4313 43.8616L31.8729 44.7465H31.8703ZM26.6827 33.2533C26.1112 33.2533 25.5817 33.2874 25.1256 33.3688C24.3707 33.5027 24.2186 33.7023 24.2186 33.7049C24.1846 34.9837 27.7994 38.8463 31.4352 41.9815C33.5532 38.5023 34.8691 35.585 34.9006 34.7159C33.9281 34.238 29.7025 33.2507 26.6827 33.2507V33.2533Z" fill="#515C04"/>
<path d="M80.8104 66.491C80.6322 66.6407 80.7108 66.814 80.7973 67.0083C81.589 68.6153 85.1907 75.2875 92.284 77.2044C94.5096 77.7689 97.089 78.1654 99.2201 77.4538C100.701 76.9654 102.57 75.6919 100.29 74.7991C99.0864 74.3133 97.7155 73.9615 96.6145 73.2236C93.1255 70.8866 89.0545 65.5562 93.9774 62.4026C94.0508 62.3449 94.1531 62.3002 94.0665 62.3028C93.1936 62.5129 90.9131 63.2586 89.4477 63.6998C87.5289 64.2932 85.8198 64.8315 83.8905 65.4328C82.5274 65.9028 81.7148 66.0158 80.8262 66.4858L80.8157 66.4937L80.8104 66.491Z" fill="#E1822C"/>
<mask id="mask0_853_3072" style="mask-type:luminance" maskUnits="userSpaceOnUse" x="80" y="62" width="22" height="16">
<path d="M80.8104 66.491C80.6322 66.6407 80.7108 66.814 80.7973 67.0083C81.589 68.6153 85.1907 75.2875 92.284 77.2044C94.5096 77.7689 97.089 78.1654 99.2201 77.4538C100.701 76.9654 102.57 75.6919 100.29 74.7991C99.0864 74.3133 97.7155 73.9615 96.6145 73.2236C93.1255 70.8866 89.0545 65.5562 93.9774 62.4026C94.0508 62.3449 94.1531 62.3002 94.0665 62.3028C93.1936 62.5129 90.9131 63.2586 89.4477 63.6998C87.5289 64.2932 85.8198 64.8315 83.8905 65.4328C82.5274 65.9028 81.7148 66.0158 80.8262 66.4858L80.8157 66.4937L80.8104 66.491Z" fill="white"/>
</mask>
<g mask="url(#mask0_853_3072)">
<path d="M93.9741 62.4001C93.9741 62.4001 88.755 67.8618 90.223 74.731C91.6909 81.6001 81.895 73.2579 81.895 73.2579L76.2617 66.8798L94.0475 61.896L94.0606 62.3003L124.025 60.9927" fill="#E1822C"/>
</g>
<path d="M56.0222 0.979415C56.6487 0.72471 57.4534 0.771975 58.135 0.83762C60.5361 1.06607 62.9163 2.22668 65.0527 3.27176C70.416 5.8897 75.7897 9.22974 78.6601 14.4709C79.9209 16.7764 80.6339 19.3392 81.2316 21.8967C81.672 23.7768 82.039 25.8302 81.2054 27.5711C80.7467 28.5295 79.9602 29.2936 79.1293 29.958C77.5329 31.2341 75.7058 32.2267 73.766 32.8674C71.4435 33.6367 68.6754 33.8284 66.7435 32.3212C65.3751 31.2551 64.6831 29.5116 64.4576 27.7917C64.2322 26.0718 64.4131 24.3256 64.4629 22.5925C64.5048 21.2166 64.4629 19.8381 64.3449 18.4674C63.839 12.7116 60.2976 8.41836 56.1061 4.72646C55.4245 4.12515 54.7823 2.95403 55.0916 1.97985C55.2594 1.45469 55.5975 1.15009 56.0169 0.979415H56.0222Z" fill="#7B5A16"/>
<path d="M70.3836 34.246C68.9969 34.246 67.5237 33.9256 66.2654 32.9436C64.8866 31.867 63.9691 30.0736 63.6834 27.8941C63.5025 26.5156 63.5681 25.137 63.631 23.8031C63.652 23.3908 63.6703 22.9786 63.6834 22.569C63.7227 21.2272 63.6834 19.8722 63.5681 18.5357C63.0464 12.583 59.0331 8.34489 55.5939 5.31732C54.6686 4.50331 53.9451 3.01185 54.3488 1.73832C54.5716 1.03723 55.0487 0.522567 55.7276 0.246856C56.4878 -0.060365 57.3712 -0.0288552 58.21 0.0499194C60.7554 0.294121 63.222 1.49675 65.3978 2.5602C70.2525 4.93132 76.2265 8.38165 79.3512 14.0902C80.6776 16.5112 81.4063 19.1869 81.9987 21.7156C82.4575 23.6718 82.8664 25.9274 81.9175 27.9099C81.3486 29.0994 80.3918 29.958 79.6238 30.5725C77.9435 31.9169 76.0561 32.9383 74.0167 33.6132C73.1071 33.9151 71.7912 34.2434 70.3836 34.2434V34.246ZM57.2428 1.57552C56.9151 1.57552 56.5743 1.60703 56.3148 1.71206C56.0658 1.81185 55.9269 1.96414 55.8456 2.22147C55.6569 2.81228 56.1077 3.67618 56.6294 4.13832C60.2888 7.3602 64.5589 11.8924 65.133 18.4018C65.2562 19.7987 65.2955 21.2167 65.2536 22.6188C65.2405 23.039 65.2221 23.4591 65.2012 23.8819C65.1383 25.2053 65.078 26.4552 65.2405 27.6919C65.3742 28.716 65.8119 30.5961 67.2275 31.7016C69.259 33.2849 72.305 32.5208 73.5187 32.1191C75.3825 31.502 77.1047 30.5698 78.6382 29.3436C79.5845 28.5847 80.1585 27.9335 80.4941 27.2324C81.2228 25.7121 80.8584 23.7742 80.4626 22.0806C79.8964 19.6595 79.2017 17.1073 77.9671 14.8517C75.0548 9.53438 69.3507 6.24948 64.7057 3.98077C62.6506 2.97771 60.3202 1.8381 58.058 1.62279C57.8614 1.60441 57.56 1.57552 57.2428 1.57552Z" fill="#4F3200"/>
<path d="M88.2652 49.2185C88.2652 49.2185 96.1397 41.3305 106.329 43.187C116.518 45.0434 115.823 58.4981 112.35 62.6732C109.765 65.7795 104.641 65.8846 101.07 64.8316C99.1307 64.2592 97.2957 62.9883 95.196 62.8045C92.8499 62.6023 90.3518 63.2535 88.2652 64.2986C85.0226 65.9213 82.244 67.0819 80.16 66.155C80.16 66.155 89.4239 81.6973 100.538 77.7533C100.538 77.7533 101.346 77.5117 102.064 76.9603C102.672 76.4929 103.569 76.9471 103.54 77.7165C103.44 80.2609 100.622 84.5909 83.9846 86.8386C83.9846 86.8386 83.5756 97.0163 92.4987 104.762C97.1699 108.604 109.178 116.124 118.686 118.128C121.855 119.296 129.36 125.48 121.855 130.658C121.855 130.658 120.689 136.506 113.682 134.001C113.682 134.001 112.347 130.994 112.515 130.325L106.009 130.994L106.253 133.468C106.253 133.468 115.325 140.032 114.219 148.157C113.113 156.281 110.9 159.051 108.688 160.343C112.374 160.527 119.766 162.615 119.868 167.79C119.564 172.963 104.072 173.37 88.9835 169.82C88.9835 169.82 78.4509 172.661 77.135 172.456C77.4391 173.37 78.4509 178.341 72.781 177.529C72.781 177.529 71.465 179.354 66.0965 179.05C60.728 178.745 41.6919 176.311 40.0719 172.863C35.9197 173.065 26.6585 174.084 20.3175 170.3C13.9764 166.517 2.91175 159.487 3.31543 148.133C3.71912 136.779 5.74542 123.939 17.7538 120.155C19.1038 120.155 20.4774 120.449 19.9872 122.416C19.497 124.383 12.0393 136.475 16.16 142.469C18.417 145.712 24.6007 146.403 26.2679 144.73C26.2679 144.73 37.4348 104.802 45.9882 94.7817C48.4077 90.5804 49.8416 86.5209 48.9477 85.0846C47.4693 82.7134 42.6854 81.0776 40.4729 79.4154C27.998 70.0465 27.9665 45.3244 36.478 33.1537C46.0328 19.4863 65.7898 16.8657 80.9491 20.5366C87.0751 22.7134 98.2027 28.5375 99.3011 41.8583" fill="#B0AD34"/>
<path d="M67.2564 180C66.8763 180 66.4726 179.99 66.048 179.966C63.5996 179.827 57.4893 179.181 51.51 178.036C43.1191 176.432 40.5213 174.927 39.5986 173.806C39.3365 173.821 39.056 173.837 38.765 173.856C36.4347 173.997 33.2419 174.192 29.8682 173.919C25.8182 173.59 22.4498 172.637 19.8521 171.088C14.4993 167.892 1.96404 160.414 2.4018 148.099C2.80549 136.766 4.88421 123.246 17.4824 119.275L17.6161 119.233H17.7576C18.6227 119.233 19.8521 119.336 20.5467 120.226C21.0159 120.83 21.1287 121.639 20.8796 122.636C20.7591 123.119 20.3894 123.899 19.8311 125.081C17.9123 129.14 13.9226 137.588 16.9162 141.947C18.1272 143.688 20.6647 144.494 22.4655 144.654C23.923 144.783 24.9715 144.536 25.4617 144.205C25.9388 142.519 28.5811 133.316 32.0518 123.211C37.187 108.268 41.6223 98.526 45.2319 94.246C48.1442 89.1702 48.5793 86.2293 48.1652 85.5676C47.3473 84.2547 45.1087 83.0757 43.1348 82.0333C41.9185 81.3899 40.7678 80.7834 39.9158 80.1453C33.9811 75.6893 30.2509 67.3917 29.6821 57.3821C29.1526 48.0394 31.4096 38.7834 35.719 32.6206C40.2566 26.1322 47.405 21.5764 56.3936 19.4442C64.1999 17.593 72.9945 17.6613 81.1547 19.6385L81.2465 19.6648C84.3161 20.7571 88.7802 22.8 92.6205 26.337C97.1528 30.5094 99.7034 35.7059 100.204 41.7768L98.3743 41.9291C97.9235 36.4621 95.0243 26.5313 80.675 21.4136C72.8005 19.5151 64.3284 19.4495 56.813 21.2324C48.2674 23.2595 41.4939 27.5632 37.2185 33.6762C33.1999 39.4241 31.0111 48.47 31.5118 57.277C32.0492 66.7431 35.512 74.5418 41.0142 78.6748C41.7481 79.2263 42.836 79.8013 43.9868 80.4079C46.2726 81.6131 48.637 82.8604 49.717 84.5934C51.2138 86.9934 48.1573 92.8359 46.7759 95.2385L46.7339 95.312L46.6789 95.3777C38.3561 105.133 27.2574 144.58 27.1446 144.977L27.0791 145.208L26.9087 145.379C26.0253 146.263 24.3451 146.668 22.2952 146.484C19.9936 146.279 16.9738 145.255 15.3984 142.992C11.8019 137.758 16.0983 128.665 18.1613 124.293C18.5991 123.369 19.0106 122.495 19.0866 122.187C19.1862 121.791 19.1862 121.481 19.0866 121.355C19.0237 121.274 18.7799 121.087 17.8808 121.071C6.56973 124.729 4.6247 136.813 4.22101 148.162C4.05325 152.836 5.97731 157.295 9.93554 161.414C13.1545 164.762 17.0472 167.283 20.7748 169.507C26.2481 172.774 34.0047 172.304 38.6366 172.02C39.1399 171.989 39.6039 171.962 40.0154 171.941L40.6288 171.912L40.891 172.469C41.0351 172.774 42.2383 174.394 51.8403 176.232C57.7331 177.358 63.7359 177.997 66.1371 178.133C70.5462 178.383 71.8962 177.117 72.0325 176.978L72.3392 176.479L72.8975 176.621C74.4074 176.836 75.4402 176.621 75.975 175.983C76.7771 175.019 76.397 173.186 76.2528 172.75L75.7784 171.322L77.2647 171.55C78.0904 171.616 83.7473 170.279 88.733 168.935L88.9559 168.874L89.1813 168.927C101.638 171.857 114.299 171.986 118.003 169.218C118.59 168.78 118.894 168.307 118.939 167.772C118.81 163.284 111.814 161.425 108.632 161.265L105.549 161.11L108.215 159.553C109.853 158.594 112.165 156.357 113.298 148.036C113.822 144.176 111.767 140.655 109.95 138.378C107.921 135.839 105.725 134.232 105.701 134.216L105.368 133.975L104.991 130.178L113.707 129.282L113.402 130.498C113.421 130.858 113.838 132.074 114.346 133.266C116.241 133.877 117.791 133.859 118.954 133.208C120.535 132.323 120.936 130.498 120.941 130.48L121.017 130.12L121.319 129.907C123.39 128.479 124.333 126.901 124.121 125.218C123.767 122.389 120.302 119.745 118.412 119.018C109.151 117.041 97.1266 109.778 91.8996 105.477C82.7275 97.5151 83.0316 87.2376 83.05 86.8044L83.0814 86.0324L83.8442 85.93C100.576 83.6718 102.54 79.4101 102.605 77.6849C101.824 78.2941 100.985 78.5751 100.807 78.6302C95.9286 80.3527 90.6492 78.7904 85.5429 74.1138C81.7812 70.6687 79.4509 66.7904 79.3539 66.6276L77.8702 64.1409L80.5125 65.3173C82.2977 66.1129 85.1077 64.8446 87.8339 63.4792C90.2823 62.253 92.9167 61.691 95.2523 61.8932C96.7045 62.0193 97.9838 62.5864 99.2236 63.1326C99.9445 63.4503 100.623 63.7523 101.308 63.9545C104.697 64.9549 109.371 64.7974 111.623 62.0902C113.513 59.8188 114.519 54.2547 112.944 49.9037C112.136 47.6718 110.299 44.8516 106.141 44.0954C96.5394 42.3466 88.9663 49.7961 88.8903 49.8722L87.5928 48.5724C87.9283 48.2363 95.926 40.3667 106.469 42.2862C111.484 43.2 113.696 46.5926 114.669 49.2762C115.505 51.5869 115.764 54.3545 115.397 57.0696C115.054 59.6114 114.192 61.8696 113.033 63.2639C111.017 65.6875 106.451 67.3864 100.789 65.7138C99.9917 65.4775 99.2237 65.1387 98.4818 64.8105C97.3284 64.3011 96.2406 63.8206 95.0924 63.7208C93.0871 63.5449 90.8013 64.0438 88.6518 65.1204C86.3398 66.2783 84.0906 67.305 82.0775 67.3969C84.8168 71.1965 92.091 79.7672 100.209 76.8867L100.254 76.8709C100.254 76.8709 100.917 76.6635 101.483 76.2302C102.052 75.7917 102.804 75.7287 103.447 76.0622C104.084 76.393 104.461 77.0389 104.435 77.7532C104.306 81.0223 100.789 85.3654 84.8954 87.6368C85.0212 90.0788 85.9911 97.9168 93.0766 104.069C98.1568 108.249 109.882 115.339 118.852 117.23L118.981 117.267C121.17 118.075 125.455 121.166 125.935 124.984C126.137 126.599 125.718 128.972 122.632 131.22C122.394 131.997 121.675 133.77 119.869 134.796C118.144 135.776 115.95 135.8 113.35 134.87L112.98 134.739L112.821 134.379C112.257 133.108 111.882 132.092 111.699 131.336L106.991 131.819L107.106 132.979C108.813 134.311 116.163 140.534 115.109 148.283C114.351 153.847 113.041 157.489 110.954 159.689C115.368 160.477 120.671 162.982 120.766 167.774V167.811V167.848C120.7 168.956 120.139 169.914 119.093 170.694C116.396 172.708 111.001 173.102 106.954 173.06C101.523 173.018 95.1475 172.204 88.9795 170.77C86.7146 171.379 80.9529 172.892 78.2346 173.288C78.3919 174.467 78.3106 176.043 77.3774 177.161C76.4783 178.241 75.0365 178.687 73.0836 178.495C72.3811 179.073 70.7087 180.005 67.2354 180.005L67.2564 180Z" fill="#515C04"/>
<path d="M28.8164 135.419C28.8164 135.419 24.5436 130.283 25.3982 127.287C26.2527 124.291 31.6658 124.291 31.6658 124.291L28.8164 135.419Z" fill="#7C7825"/>
<path d="M29.2611 137.386L28.1129 136.004C27.6437 135.44 23.557 130.398 24.5164 127.032C25.5493 123.411 31.4158 123.369 31.6648 123.369H32.8471L29.2584 137.386H29.2611ZM30.4616 125.291C28.8784 125.488 26.6974 126.076 26.2806 127.539C25.8769 128.957 27.1142 131.43 28.4039 133.334L30.4616 125.294V125.291Z" fill="#515C04"/>
<path d="M32.2329 120.722C32.2329 120.722 28.1017 112.876 28.9562 110.592C30.0965 109.877 36.933 108.88 37.646 108.88L32.2329 120.722Z" fill="#7C7825"/>
<path d="M32.2923 122.804L31.4221 121.153C30.7012 119.782 27.1467 112.813 28.0982 110.271L28.2083 109.98L28.4731 109.814C29.8833 108.932 36.9662 107.963 37.6477 107.963H39.0764L32.2923 122.804ZM29.7549 111.232C29.6631 112.516 30.7982 115.654 32.198 118.595L36.1405 109.967C34.1509 110.25 30.8899 110.825 29.7549 111.23V111.232Z" fill="#515C04"/>
<path d="M38.2137 42.0263C33.5137 41.8687 28.908 42.6775 24.276 43.3549C21.8618 43.7094 16.585 44.1794 16.2914 47.4538C16.0424 50.2136 17.956 51.4713 19.998 52.821C22.3022 54.3466 24.0139 55.4022 24.7269 58.1672C25.0703 59.4985 25.4085 62.933 27.3456 62.933C28.9499 62.933 37.1023 60.2101 38.8324 58.8499" fill="#B0AD34"/>
<path d="M27.3475 63.8521C24.9726 63.8521 24.3644 60.8954 24.0027 59.1283C23.9424 58.8368 23.8926 58.5873 23.8428 58.3957C23.2398 56.0639 21.8427 55.137 19.722 53.7374L19.4704 53.572C17.4152 52.2092 15.0849 50.6652 15.3811 47.3698C15.7192 43.6097 20.8308 42.9033 23.578 42.5252C23.7798 42.4963 23.9712 42.4701 24.1468 42.4464C24.713 42.3624 25.2793 42.2784 25.8428 42.1943C29.8718 41.5904 34.0372 40.9655 38.247 41.1073L38.1841 42.9453C34.1472 42.8088 30.0606 43.4206 26.1155 44.0114C25.5466 44.0954 24.9804 44.1821 24.4116 44.2635C24.2307 44.2897 24.0367 44.316 23.827 44.3449C21.5858 44.6547 17.4152 45.2298 17.2081 47.5353C17.0194 49.6307 18.3301 50.6127 20.4822 52.0385L20.7312 52.204C22.9358 53.6613 24.8389 54.9217 25.6174 57.9361C25.6777 58.1725 25.7327 58.4429 25.7983 58.758C26.0159 59.8136 26.4667 62.014 27.3475 62.014C28.7211 62.014 36.6506 59.3987 38.268 58.1278L39.4004 59.572C37.5864 60.9978 29.2165 63.8521 27.3475 63.8521Z" fill="#515C04"/>
<path d="M69.6653 84.7246C69.6653 84.7246 66.2942 104.563 67.9798 108.995C69.6653 113.427 67.7701 138.331 67.7701 138.331C67.7701 138.331 80.6225 151.838 69.0335 165.135C69.0335 165.135 75.2147 168.22 75.8464 171.387C75.8464 171.387 99.3546 170.985 104.201 154.524C109.048 138.063 101.061 122.715 98.7412 119.971C96.4213 117.227 82.9398 95.2778 82.9398 85.9929L69.6653 84.7272V84.7246Z" fill="#FEDC65"/>
<path d="M49.8359 119.598C49.8359 119.598 56.987 134.775 73.331 133.242C73.331 133.242 74.0676 137.32 76.8803 137.139C79.693 136.957 79.2395 133.321 78.4217 131.141C78.4217 131.141 79.4204 137.32 81.6879 136.595C83.9553 135.87 82.9592 128.87 82.9592 128.87C82.9592 128.87 84.1388 133.231 84.7732 132.596C85.4075 131.961 88.8546 128.959 84.954 124.143C81.0535 119.328 72.9798 113.785 71.8893 112.965C70.7988 112.146 65.2678 107.422 65.0843 105.151" fill="#B0AD34"/>
<path d="M76.7049 138.063C75.292 138.063 74.0705 137.231 73.2447 135.695C72.9616 135.167 72.765 134.636 72.6366 134.219C64.2693 134.749 58.3529 130.981 54.8272 127.667C50.9135 123.989 49.0838 120.155 49.0078 119.992L50.6671 119.207C50.6855 119.244 52.4549 122.93 56.13 126.373C61.0031 130.934 66.7622 132.937 73.2447 132.328L74.0836 132.249L74.233 133.079C74.2382 133.111 74.8542 136.359 76.8202 136.222C77.4415 136.183 77.6827 135.915 77.8111 135.718C78.1047 135.264 78.1728 134.55 78.1047 133.775C77.7561 132.664 77.5752 131.648 77.5175 131.291L79.2817 130.821C79.5674 131.585 79.8007 132.467 79.9029 133.347C80.2516 134.424 80.7051 135.398 81.1769 135.687C81.2765 135.75 81.3316 135.747 81.4102 135.723C82.1311 135.492 82.5584 132.57 82.0524 129.004L83.8454 128.634C84.1154 129.634 84.4693 130.666 84.7498 131.304C85.6987 130.201 86.9019 128.009 84.2439 124.726C80.8755 120.567 74.1989 115.765 72.0048 114.186C71.6981 113.966 71.4727 113.803 71.3416 113.706C71.2735 113.653 64.4161 108.273 64.1723 105.227L66.002 105.08C66.0229 105.343 66.2877 106.403 68.8016 108.961C70.3193 110.505 71.9367 111.855 72.44 112.233C72.5632 112.325 72.7808 112.482 73.0717 112.692C75.3156 114.307 82.1416 119.217 85.6646 123.568C87.2584 125.538 89.3581 129.4 85.5021 133.166L85.4182 133.247C85.1325 133.533 84.7314 133.646 84.3487 133.541C84.2701 133.52 84.1731 133.494 84.0604 133.428C83.9057 135.28 83.3657 137.021 81.9659 137.47C81.3656 137.661 80.7601 137.585 80.2149 137.249C79.9344 137.076 79.6801 136.837 79.4494 136.551C79.418 136.606 79.3865 136.661 79.3498 136.713C78.9855 137.278 78.2725 137.968 76.9356 138.055C76.8569 138.06 76.7783 138.063 76.6997 138.063H76.7049ZM84.1338 131.937C84.1338 131.937 84.1285 131.942 84.1259 131.945L84.1338 131.937Z" fill="#515C04"/>
<path d="M73.6669 50.4751C74.9788 50.1127 75.4768 47.7653 74.7793 45.2321C74.0818 42.699 72.4529 40.9392 71.141 41.3017C69.8291 41.6642 69.3311 44.0115 70.0286 46.5447C70.7261 49.0779 72.355 50.8376 73.6669 50.4751Z" fill="#303002"/>
<path d="M31.8431 56.9724L30.0763 56.4761C30.3148 55.6201 31.1851 54.2048 35.9402 51.81C36.724 51.4162 37.4921 51.0538 38.1841 50.744C35.9428 50.2424 33.1642 49.5833 32.425 49.2472C31.2349 48.7037 29.8692 48.4306 28.7709 48.5068C27.6804 48.5855 24.6291 49.4678 23.5439 49.8039L23.0039 48.0472C23.4233 47.9186 27.143 46.7816 28.6398 46.6739C30.6373 46.5321 32.4827 47.2569 33.1826 47.5746C33.9375 47.9186 38.6192 48.9768 41.3952 49.565L44.415 50.2057L41.5368 51.3216C37.1591 53.0205 32.2074 55.6647 31.8404 56.975L31.8431 56.9724Z" fill="#454800"/>
<path d="M64.1059 41.3592C64.0142 41.3592 63.9198 41.3461 63.8254 41.3146C63.3431 41.1596 63.0784 40.645 63.2304 40.1618C63.2907 39.9702 64.777 35.4432 69.0838 35.01C69.5871 34.9627 70.038 35.3277 70.0878 35.8319C70.1376 36.336 69.7706 36.7877 69.2673 36.8375C66.1715 37.1474 64.9893 40.6844 64.9788 40.7211C64.853 41.1098 64.4913 41.3566 64.1059 41.3566V41.3592Z" fill="#454800"/>
<path d="M100.775 54.6662C101.123 54.3558 100.854 53.4841 100.175 52.7192C99.4956 51.9543 98.6625 51.5858 98.3142 51.8962C97.9659 52.2066 98.2344 53.0783 98.9137 53.8433C99.5931 54.6082 100.426 54.9766 100.775 54.6662Z" fill="#303002"/>
<path d="M106.441 51.415C106.74 50.436 106.621 49.5315 106.176 49.3948C105.73 49.2582 105.126 49.941 104.827 50.92C104.528 51.899 104.647 52.8034 105.092 52.9401C105.538 53.0768 106.142 52.394 106.441 51.415Z" fill="#565408"/>
<path d="M62.4395 68.6887C67.4414 68.6887 71.4963 64.9021 71.4963 60.231C71.4963 55.5599 67.4414 51.7732 62.4395 51.7732C57.4377 51.7732 53.3828 55.5599 53.3828 60.231C53.3828 64.9021 57.4377 68.6887 62.4395 68.6887Z" fill="#E89B34"/>
<path d="M74.9165 178.136C74.5311 178.136 74.0881 178.067 73.5848 177.894L73.168 177.752L73.0186 177.337C72.088 174.751 70.6043 172.248 69.9647 172.188L70.1377 170.358C71.2571 170.466 72.3161 171.558 73.4669 173.795C73.9702 174.772 74.3634 175.728 74.5731 176.269C74.9243 176.337 75.1996 176.308 75.3962 176.179C75.7946 175.919 75.9388 175.237 75.9571 175.019L75.965 174.95C76.8143 169.415 68.0616 166.424 67.9725 166.396L65.6186 165.61L67.9148 164.673C70.6384 163.562 72.0094 159.314 71.9884 152.051C71.9779 148.099 71.1339 142.687 67.1914 139.344C63.6027 136.301 58.0717 134.886 50.766 135.133L50.7031 133.294C58.4833 133.034 64.4285 134.597 68.3762 137.942C72.8561 141.739 73.8102 147.708 73.8234 152.048C73.8443 158.844 72.6752 163.224 70.2662 165.348C73.1549 166.671 78.5732 169.896 77.7816 175.2C77.7527 175.507 77.5588 176.951 76.408 177.71C76.0725 177.931 75.5797 178.141 74.9086 178.141L74.9165 178.136Z" fill="#515C04"/>
<path d="M88.1399 27.8987C88.5461 26.9434 87.8658 25.7383 86.6204 25.2069C85.375 24.6756 84.0362 25.0193 83.63 25.9746C83.2238 26.9299 83.9041 28.1351 85.1495 28.6664C86.3948 29.1977 87.7337 28.854 88.1399 27.8987Z" fill="#81891A"/>
<path d="M80.3663 23.6952C80.7481 22.7973 80.1388 21.6773 79.0053 21.1937C77.8718 20.7102 76.6434 21.046 76.2616 21.944C75.8798 22.8419 76.4892 23.9619 77.6227 24.4455C78.7562 24.9291 79.9845 24.5932 80.3663 23.6952Z" fill="#81891A"/>
<path d="M94.5563 33.113C94.9983 32.0736 93.942 30.6276 92.1972 29.8831C90.4523 29.1387 88.6796 29.3778 88.2377 30.4171C87.7958 31.4565 88.852 32.9026 90.5968 33.647C92.3417 34.3914 94.1144 34.1523 94.5563 33.113Z" fill="#81891A"/>
<path d="M87.5164 34.1683C88.1403 33.4358 87.797 32.1163 86.7496 31.2212C85.7023 30.326 84.3474 30.1942 83.7235 30.9268C83.0995 31.6593 83.4428 32.9788 84.4902 33.874C85.5376 34.7691 86.8925 34.9009 87.5164 34.1683Z" fill="#81891A"/>
<path d="M38.8672 73.9455C40.2289 73.6742 40.9543 71.5483 40.4874 69.1971C40.0205 66.846 38.5382 65.16 37.1765 65.4313C35.8148 65.7027 35.0894 67.8286 35.5563 70.1797C36.0231 72.5308 37.5055 74.2168 38.8672 73.9455Z" fill="#81891A"/>
<path d="M46.3776 76.6312C47.143 76.2817 47.2397 74.8474 46.5938 73.4275C45.9478 72.0076 44.8036 71.1398 44.0382 71.4892C43.2728 71.8386 43.176 73.2729 43.822 74.6928C44.468 76.1127 45.6122 76.9806 46.3776 76.6312Z" fill="#81891A"/>
<path d="M43.256 68.5797C44.281 68.1119 44.4626 66.3055 43.6617 64.5451C42.8608 62.7847 41.3807 61.7369 40.3558 62.2048C39.3309 62.6727 39.1492 64.4791 39.9501 66.2395C40.751 67.9998 42.2311 69.0476 43.256 68.5797Z" fill="#81891A"/>
<path d="M45.7726 107.208C46.9475 107.166 47.8358 105.331 47.7568 103.11C47.6778 100.888 46.6614 99.1207 45.4866 99.1626C44.3117 99.2045 43.4234 101.04 43.5024 103.261C43.5814 105.483 44.5978 107.25 45.7726 107.208Z" fill="#81891A"/>
<path d="M41.2997 115.407C42.0367 113.654 41.8759 111.913 40.9405 111.518C40.0052 111.124 38.6495 112.225 37.9125 113.979C37.1756 115.733 37.3364 117.474 38.2717 117.868C39.2071 118.263 40.5628 117.161 41.2997 115.407Z" fill="#81891A"/>
<path d="M52.4585 101.011C53.087 99.5153 52.8708 97.9968 51.9755 97.6192C51.0801 97.2417 49.8448 98.1481 49.2162 99.6437C48.5877 101.139 48.8039 102.658 49.6992 103.035C50.5946 103.413 51.8299 102.507 52.4585 101.011Z" fill="#81891A"/>
<path d="M48.4176 111.731C49.2147 109.834 48.9825 107.926 47.899 107.469C46.8156 107.013 45.2911 108.18 44.494 110.076C43.6969 111.973 43.9291 113.881 45.0126 114.338C46.096 114.795 47.6205 113.628 48.4176 111.731Z" fill="#81891A"/>
<path d="M36.8407 126.832C37.9171 126.793 38.7387 125.369 38.6758 123.651C38.613 121.934 37.6894 120.574 36.613 120.613C35.5366 120.653 34.715 122.077 34.7779 123.795C34.8408 125.512 35.7643 126.872 36.8407 126.832Z" fill="#81891A"/>
<path d="M65.157 147.131C66.1726 147.095 66.9406 145.506 66.8722 143.583C66.8038 141.66 65.925 140.13 64.9093 140.166C63.8937 140.203 63.1258 141.791 63.1941 143.714C63.2625 145.637 64.1413 147.167 65.157 147.131Z" fill="#81891A"/>
<path d="M57.4833 147.636C58.2203 145.883 58.0595 144.142 57.1241 143.747C56.1888 143.353 54.8331 144.454 54.0961 146.208C53.3592 147.962 53.52 149.703 54.4553 150.097C55.3907 150.492 56.7464 149.39 57.4833 147.636Z" fill="#81891A"/>
<path d="M70.2027 154.293C70.9998 152.397 70.7676 150.489 69.6842 150.032C68.6007 149.575 67.0762 150.742 66.2792 152.639C65.4821 154.535 65.7143 156.443 66.7977 156.9C67.8812 157.357 69.4057 156.19 70.2027 154.293Z" fill="#81891A"/>
<path d="M60.204 142.992C61.2803 142.953 62.102 141.529 62.0391 139.811C61.9762 138.094 61.0527 136.734 59.9763 136.773C58.8999 136.813 58.0783 138.237 58.1412 139.954C58.204 141.672 59.1276 143.032 60.204 142.992Z" fill="#81891A"/>
<path d="M111.09 148.173C111.936 148.142 112.577 146.821 112.52 145.221C112.463 143.621 111.73 142.348 110.884 142.378C110.038 142.409 109.398 143.73 109.455 145.33C109.511 146.93 110.244 148.203 111.09 148.173Z" fill="#81891A"/>
<path d="M108.105 148.89C108.507 147.933 108.42 146.983 107.911 146.768C107.401 146.553 106.662 147.154 106.259 148.111C105.857 149.068 105.944 150.018 106.454 150.233C106.964 150.448 107.703 149.847 108.105 148.89Z" fill="#81891A"/>
<path d="M109.414 140.339C109.746 139.549 109.649 138.755 109.198 138.565C108.747 138.374 108.113 138.861 107.781 139.651C107.449 140.44 107.545 141.235 107.996 141.425C108.447 141.615 109.082 141.129 109.414 140.339Z" fill="#81891A"/>
<path d="M109.591 156.327C110.667 156.287 111.489 154.863 111.426 153.146C111.363 151.428 110.439 150.068 109.363 150.108C108.287 150.147 107.465 151.572 107.528 153.289C107.591 155.006 108.514 156.366 109.591 156.327Z" fill="#81891A"/>
<path d="M63.9405 123.377C64.599 122.601 63.9467 120.962 62.4835 119.715C61.0202 118.468 59.3002 118.086 58.6416 118.861C57.9831 119.636 58.6354 121.276 60.0986 122.523C61.5619 123.77 63.2819 124.152 63.9405 123.377Z" fill="#81891A"/>
<path d="M63.5956 129.47C64.2149 129.184 64.2837 128.011 63.7493 126.849C63.2149 125.688 62.2797 124.978 61.6604 125.263C61.0411 125.549 60.9723 126.723 61.5066 127.884C62.041 129.046 62.9763 129.756 63.5956 129.47Z" fill="#81891A"/>
<path d="M56.9451 121.436C57.3896 121.231 57.4596 120.434 57.1015 119.655C56.7434 118.877 56.0929 118.412 55.6484 118.617C55.204 118.822 55.134 119.62 55.4921 120.398C55.8502 121.177 56.5007 121.641 56.9451 121.436Z" fill="#81891A"/>
<path d="M70.8928 130.077C71.5899 129.254 71.0948 127.686 69.7869 126.574C68.4791 125.462 66.8538 125.227 66.1567 126.049C65.4596 126.872 65.9547 128.44 67.2625 129.552C68.5704 130.665 70.1957 130.899 70.8928 130.077Z" fill="#81891A"/>
<path d="M109.357 120.588C109.977 120.302 110.045 119.128 109.511 117.967C108.977 116.805 108.041 116.095 107.422 116.381C106.803 116.667 106.734 117.84 107.268 119.002C107.803 120.164 108.738 120.874 109.357 120.588Z" fill="#81891A"/>
<path d="M113.312 120.831C113.757 120.626 113.827 119.829 113.469 119.05C113.111 118.272 112.46 117.807 112.016 118.012C111.571 118.217 111.501 119.015 111.859 119.793C112.217 120.572 112.868 121.036 113.312 120.831Z" fill="#81891A"/>
<path d="M120.951 123.867C121.648 123.044 121.153 121.476 119.846 120.364C118.538 119.251 116.912 119.017 116.215 119.839C115.518 120.662 116.013 122.23 117.321 123.342C118.629 124.454 120.254 124.689 120.951 123.867Z" fill="#81891A"/>
<path d="M24.5275 151.092C26.3261 150.542 27.5425 149.303 27.2445 148.325C26.9464 147.347 25.2467 147.001 23.4481 147.551C21.6495 148.101 20.433 149.34 20.7311 150.317C21.0292 151.295 22.7289 151.642 24.5275 151.092Z" fill="#81891A"/>
<path d="M17.7373 149.747C18.4593 149.274 18.4411 147.967 17.6968 146.827C16.9524 145.688 15.7637 145.148 15.0417 145.621C14.3197 146.094 14.3378 147.402 15.0822 148.541C15.8265 149.681 17.0153 150.221 17.7373 149.747Z" fill="#81891A"/>
<path d="M13.6181 144.629C14.2618 144.603 14.7488 143.71 14.7058 142.633C14.6628 141.556 14.1062 140.704 13.4624 140.73C12.8187 140.756 12.3317 141.65 12.3747 142.726C12.4177 143.803 12.9744 144.655 13.6181 144.629Z" fill="#81891A"/>
<path d="M37.3673 100.968C32.1849 99.9728 29.8598 93.6709 27.9934 88.6057C27.4167 87.0407 26.8715 85.5597 26.3367 84.5566C25.7154 83.3882 25.3799 83.375 25.3668 83.375C23.1282 83.4879 15.8592 88.2617 11.804 91.2472L10.7188 89.7663C11.8381 88.9418 21.7546 81.7155 25.2777 81.5396C27.3145 81.4293 28.3184 84.1785 29.7182 87.9676C31.4247 92.5969 33.5506 98.3606 37.7159 99.1588L37.3699 100.965L37.3673 100.968Z" fill="#515C04"/>
<path d="M20.7737 10.0804C21.3294 9.69436 22.1237 9.56307 22.8053 9.47642C25.1985 9.17182 27.7727 9.78101 30.0873 10.3298C35.8936 11.7057 41.8703 13.7801 45.818 18.2624C47.5533 20.2344 48.8116 22.5766 49.9571 24.9425C50.7986 26.6782 51.6086 28.6029 51.176 30.483C50.9375 31.5202 50.3398 32.4366 49.674 33.269C48.3948 34.8655 46.8325 36.2335 45.0788 37.2865C42.9817 38.5469 40.3211 39.3451 38.1086 38.3C36.5411 37.5596 35.4847 36.013 34.887 34.3849C34.2894 32.7569 34.0823 31.0134 33.752 29.3119C33.4898 27.9596 33.1491 26.6257 32.7323 25.3127C30.9786 19.809 26.58 16.3981 21.6833 13.7197C20.8864 13.2839 20.003 12.2808 20.0922 11.262C20.1394 10.7132 20.4041 10.3403 20.7763 10.083L20.7737 10.0804Z" fill="#7B5A16"/>
<path d="M40.3616 39.5736C39.507 39.5736 38.6289 39.4135 37.7743 39.0117C36.1937 38.266 34.9066 36.7194 34.149 34.6555C33.6693 33.3504 33.4334 31.9903 33.2027 30.6747C33.1319 30.2677 33.0611 29.8634 32.9825 29.459C32.7282 28.1434 32.3927 26.8279 31.9864 25.5518C30.1724 19.859 25.3256 16.6082 21.3097 14.4104C20.2297 13.8196 19.1943 12.5251 19.3096 11.1938C19.3725 10.4612 19.7264 9.8546 20.3267 9.4371C21.0004 8.9697 21.868 8.8069 22.7069 8.69924C25.2469 8.37889 27.9155 9.00909 30.2694 9.56576C35.5252 10.8104 42.11 12.8638 46.409 17.7426C48.2335 19.8143 49.5337 22.2616 50.6661 24.6012C51.5416 26.4104 52.4355 28.5189 51.9453 30.6616C51.6517 31.9456 50.9072 32.9933 50.2912 33.7627C48.9465 35.4432 47.3317 36.8559 45.4889 37.964C44.3355 38.6572 42.4167 39.5763 40.3668 39.5763L40.3616 39.5736ZM21.2232 10.729C21.003 10.8813 20.8981 11.0625 20.8745 11.3277C20.8195 11.9474 21.4486 12.6905 22.0594 13.024C26.3348 15.3609 31.4962 18.8428 33.4806 25.0686C33.9078 26.4051 34.2565 27.7811 34.5239 29.157C34.6025 29.5693 34.6759 29.9841 34.7493 30.4016C34.9773 31.7067 35.1949 32.9382 35.6248 34.1093C35.9787 35.0782 36.8175 36.8165 38.4428 37.5859C40.7705 38.6835 43.5753 37.2682 44.6737 36.6091C46.3566 35.5981 47.8324 34.3089 49.0592 32.7754C49.8168 31.8275 50.2335 31.066 50.4066 30.3071C50.784 28.6634 50.0055 26.8542 49.2453 25.2866C48.1627 23.0494 46.9254 20.7124 45.2268 18.785C41.2214 14.2371 34.9328 12.2887 29.9051 11.0966C27.6795 10.5688 25.1578 9.97277 22.9008 10.259C22.5024 10.3089 21.6688 10.4165 21.2206 10.729H21.2232Z" fill="#4F3200"/>
</g>
<defs>
<clipPath id="clip0_853_3072">
<rect width="126" height="180" fill="white"/>
</clipPath>
</defs>
</svg>
