<svg width="288" height="168" viewBox="0 0 288 168" fill="none" xmlns="http://www.w3.org/2000/svg">
<g clip-path="url(#clip0_853_3164)">
<path d="M-16.7742 110.314C-1.72387 111.565 9.30817 122.067 18.4031 133.159C25.1701 141.409 32.7525 151.268 43.1835 155.366C52.9928 159.219 69.8157 157.336 73.8985 146.144C73.8985 146.144 68.2781 152.521 62.6113 152.217C58.0908 152.26 51.5729 152.283 50.9367 145.338C50.8936 139.742 52.3253 137.509 58.1643 135.616C68.0517 132.408 77.5437 140.355 86.3237 143.421C105.828 150.234 144.316 139.38 151.712 117.931C151.712 117.931 142.857 122.326 139.805 122.483C136.753 122.64 125.442 120.038 128.439 109.948C131.435 99.8582 145.856 101.569 154.939 105.992C167.193 113.376 180.539 120.781 195.183 121.406C211.106 122.087 225.112 113.769 236.26 103.055C242.628 96.936 253.907 82.9604 263.345 82.0669C269.049 80.854 279.095 78.8664 280.838 79.9816C280.838 79.9816 266.784 71.3553 256.808 70.0833C246.833 68.8113 231.77 69.2509 227.321 78.0522C227.321 78.0522 231.537 68.7248 241.096 67.5254C241.096 67.5254 223.667 68.7785 217.079 75.2232C209.656 80.2986 203.222 87.412 194.683 90.6975C189.552 92.6725 181.065 92.8605 177.753 87.5762C169.37 74.1931 194.063 62.7318 204.258 67.726C204.258 67.726 188.072 38.7636 135.612 57.8507C135.612 57.8507 145.331 44.891 154.862 46.4029C141.565 44.2914 128.818 46.6593 117.292 53.6295C110.888 57.5035 71.695 93.6151 70.1027 67.9337C70.1733 62.1965 75.0223 58.5084 78.3191 57.9489C81.616 57.3894 126.064 50.3663 128.318 23.6954C128.318 23.6954 121.841 36.2476 112.548 38.3445C90.8323 43.2468 68.2946 36.5771 47.1092 44.3948C38.303 47.6451 29.7898 52.9083 22.0889 58.2196C4.03459 70.6709 -12.4894 88.1327 -16.7826 110.313" fill="#FF9310"/>
<path d="M-11.2926 107.246C-11.0451 106.541 -7.87891 105.705 -7.28209 105.485C-3.45527 104.074 0.578961 103.201 4.63185 102.771C12.5999 101.928 20.7488 102.818 28.3764 105.232C36.166 107.693 41.7206 112.059 48.3909 116.479C68.9596 130.118 98.2556 145.718 122.187 130.737C121.167 131.376 116.119 128.261 115.295 127.762C111.657 125.563 108.595 122.388 108.449 117.921C108.236 111.34 111.241 103.622 116.854 99.9195C125.913 93.9416 138.152 93.5126 147.714 98.4526C158.501 104.025 168.748 110.68 180.932 112.819C190.619 114.519 198.782 108.817 206.549 103.796C211.618 100.518 216.108 96.0155 221.833 93.8483C224.112 92.9848 232.556 90.033 234.594 91.9116C225.432 83.4622 212.183 89.8361 202.82 94.4789C193.456 99.1216 180.059 105.195 170.854 97.7652C167.284 94.8838 163.784 88.934 163.414 84.3245C162.588 74.0162 173.043 64.8687 179.18 64.7482C178.053 64.7698 175.818 63.1429 174.762 62.7216C170.85 61.1665 166.756 60.049 162.604 59.3559C150.61 57.3519 138.074 59.2961 127.3 64.9566C115.968 70.9109 105.176 77.533 93.2849 82.4163C85.9038 85.4462 78.3711 88.2352 70.3808 85.9423C62.5494 83.6951 56.5196 78.3738 56.6309 69.8238C56.7085 63.8889 59.1467 53.7537 65.0192 50.627C65.0192 50.627 5.48232 59.2548 -11.2961 107.241L-11.2926 107.246Z" fill="#FEDC65"/>
</g>
<defs>
<clipPath id="clip0_853_3164">
<rect width="119.566" height="299.181" fill="white" transform="matrix(-0.16731 -0.985904 -0.985904 0.16731 287.969 117.881)"/>
</clipPath>
</defs>
</svg>
