<svg width="72" height="116" viewBox="0 0 72 116" fill="none" xmlns="http://www.w3.org/2000/svg">
<g clip-path="url(#clip0_853_3167)">
<path d="M13.4857 52.7492C7.89747 73.338 18.3093 94.0833 36.7399 99.0858C55.1706 104.088 74.6433 91.4543 80.2316 70.8654C85.8198 50.2766 78.0164 14.0796 59.5848 9.07683C41.1531 4.07408 19.074 32.1603 13.4857 52.7492Z" fill="#B0AD34"/>
<mask id="mask0_853_3167" style="mask-type:luminance" maskUnits="userSpaceOnUse" x="11" y="8" width="72" height="93">
<path d="M13.4857 52.7492C7.89747 73.338 18.3093 94.0833 36.7399 99.0858C55.1706 104.088 74.6433 91.4543 80.2316 70.8654C85.8198 50.2766 78.0164 14.0796 59.5848 9.07683C41.1531 4.07408 19.074 32.1603 13.4857 52.7492Z" fill="white"/>
</mask>
<g mask="url(#mask0_853_3167)">
<path d="M82.5914 57.0725C82.5914 57.0725 71.205 85.773 47.74 86.5916C23.7343 85.3285 11.8837 52.5327 12.5824 49.9582C12.5824 49.9582 0.754687 97.6131 30.4125 104.557C60.0704 111.501 93.0964 82.5922 82.5914 57.0725Z" fill="#8F8D29"/>
</g>
<path d="M30.3657 22.7441C30.3657 22.7441 44.8254 31.6446 40.2067 43.2436C35.5879 54.8425 16.492 49.1718 14.92 48.1938C14.92 48.1938 21.9162 29.7341 30.3657 22.7441Z" fill="#FFE63D"/>
<path d="M56.8611 30.0699C58.3598 29.9545 59.6859 28.9966 60.9005 27.9604C63.9768 25.3985 65.2387 21.0189 62.8253 17.5882C61.3004 15.443 58.8067 14.2952 56.3272 13.8728C54.4065 13.5405 52.7888 13.8397 51.3069 15.0289C50.1825 15.9215 49.2652 17.1063 48.692 18.4325C47.7353 20.5443 48.0901 22.9567 49.0713 24.9909C50.6379 28.4184 53.0007 30.3337 56.8449 30.0717L56.8611 30.0699Z" fill="#FFE63D"/>
<path d="M56.2134 93.1431C56.7084 92.8942 57.1984 92.6022 57.6813 92.2634C62.0097 89.2278 66.5276 84.435 66.6605 78.8509C66.7449 75.313 64.8995 72.1618 62.4926 69.6926C58.1154 65.2026 52.0375 62.5964 46.0224 65.3997C42.1683 67.1961 38.3212 70.8228 37.6229 75.1862C37.1274 78.2826 37.9706 81.8645 39.0355 84.761C41.5753 91.6731 49.3677 96.5846 56.2146 93.1424L56.2134 93.1431Z" fill="#FFE63D"/>
<path d="M82.0481 55.8492C82.0481 55.8492 78.8831 60.2166 73.1244 57.7357C67.3657 55.2548 65.7875 48.0461 67.6342 42.544C69.4809 37.0418 75.5569 35.2304 79.9103 37.6828C79.9103 37.6828 82.5619 50.8332 82.0481 55.8492Z" fill="#FFE63D"/>
<path d="M23.3409 91.3371C23.3409 91.3371 29.3975 87.9415 28.5666 83.0356C27.7356 78.1298 23.6164 76.382 21.5349 76.0875C19.4534 75.793 15.9169 76.5426 14.7756 78.7526C14.7756 78.7526 17.5397 87.1529 23.3409 91.3371Z" fill="#FFE63D"/>
</g>
<defs>
<clipPath id="clip0_853_3167">
<rect width="74.9355" height="99.8049" fill="white" transform="matrix(-0.965083 -0.261944 -0.261944 0.965083 98.4623 19.6289)"/>
</clipPath>
</defs>
</svg>
