<svg width="68" height="39" viewBox="0 0 68 39" fill="none" xmlns="http://www.w3.org/2000/svg">
<path d="M3.04391 38.9179C3.04391 38.9179 31.7913 27.8374 64.0202 38.9179L67.5785 26.0609C67.5785 26.0609 57.4286 26.9067 56.7524 21.4102C56.0763 15.9136 54.9335 3.9024 37.8076 0.603946C20.6789 -2.69716 13.3211 8.21371 11.6718 16.8417C10.0226 25.4696 9.89535 24.8332 0 26.2306" fill="#5B28DB"/>
<path d="M33.6406 10.0273C31.8916 16.3602 30.4742 17.7783 24.1406 19.5273C30.4735 21.2764 31.8916 22.6938 33.6406 29.0273C35.3896 22.6945 36.8071 21.2764 43.1406 19.5273C36.8077 17.7783 35.3896 16.3609 33.6406 10.0273Z" fill="#FFF17D"/>
</svg>
