<svg width="68" height="39" viewBox="0 0 68 39" fill="none" xmlns="http://www.w3.org/2000/svg">
<path d="M3.04391 38.9179C3.04391 38.9179 31.7913 27.8374 64.0202 38.9179L67.5785 26.0609C67.5785 26.0609 57.4286 26.9067 56.7524 21.4102C56.0763 15.9136 54.9335 3.9024 37.8076 0.603946C20.6789 -2.69716 13.3211 8.21371 11.6718 16.8417C10.0226 25.4696 9.89535 24.8332 0 26.2306" fill="#74B5FF"/>
<path d="M34.1243 13.3517L32.2415 16.1779C32.0681 16.4405 31.7375 16.5659 31.4271 16.4836L28.0808 15.6173C27.3834 15.437 26.8552 16.2288 27.3108 16.7737L29.4959 19.3882C29.6975 19.6313 29.7177 19.9762 29.5443 20.2388L27.6615 23.0651C27.2705 23.653 27.8793 24.3861 28.5525 24.1352L31.7859 22.9239C32.0883 22.8103 32.4269 22.9004 32.6326 23.1435L34.8177 25.758C35.2733 26.3029 36.1764 25.9618 36.1401 25.2641L35.9546 21.9009C35.9385 21.5873 36.128 21.3011 36.4304 21.1875L39.6638 19.9762C40.337 19.7253 40.2846 18.7846 39.5872 18.6003L36.2409 17.7341C35.9304 17.6517 35.7087 17.3852 35.6886 17.0755L35.5031 13.7123C35.4628 13.0106 34.5274 12.7715 34.1364 13.3595L34.1243 13.3517Z" fill="#FFF17D"/>
</svg>
