<svg width="65" height="28" viewBox="0 0 65 28" fill="none" xmlns="http://www.w3.org/2000/svg">
<g clip-path="url(#clip0_1056_7553)">
<path d="M0.202656 27.9998C0.202656 27.9998 -3.18437 2.68031 17.7351 0.421242C38.6545 -1.83783 47.8389 5.05682 48.8086 18.4869C48.8086 18.4869 15.3178 16.7045 0.209683 27.9929L0.202656 27.9998Z" fill="#C0BCB3"/>
<path d="M17.668 3.52734C17.2077 5.19389 16.8347 5.56708 15.168 6.02734C16.8345 6.48761 17.2077 6.86062 17.668 8.52734C18.1282 6.8608 18.5012 6.48761 20.168 6.02734C18.5014 5.56708 18.1282 5.19407 17.668 3.52734Z" fill="#FFF17D"/>
<path d="M41.168 11.5273C40.7998 12.8606 40.5013 13.1591 39.168 13.5273C40.5012 13.8956 40.7998 14.194 41.168 15.5273C41.5362 14.1941 41.8346 13.8956 43.168 13.5273C41.8347 13.1591 41.5362 12.8607 41.168 11.5273Z" fill="#FFF17D"/>
<path d="M32.6428 11.8292C30.3382 12.2283 28.1494 10.6851 27.749 8.38606C27.3585 6.11149 28.8607 3.95421 31.1167 3.51536C30.383 3.3439 29.6081 3.31705 28.8211 3.45319C25.6587 4.00007 23.5455 7.00397 24.0939 10.1602C24.6423 13.3165 27.6475 15.4337 30.8053 14.8861C33.4207 14.4356 35.3144 12.2947 35.5799 9.78527C34.9741 10.8297 33.9293 11.6075 32.6428 11.8292Z" fill="#FFF17D"/>
<path d="M13.457 21.1199C13.457 21.1199 46.0976 16.961 64.7192 21.1199C65.0143 21.1821 65.0143 22.5085 65.0003 22.695C64.8808 24.1665 63.7354 25.2028 62.5057 25.8936C59.6246 27.5033 55.8862 27.7796 52.6538 27.8902C44.2916 28.1734 35.8241 26.4463 27.6095 25.0853C24.4965 24.5741 21.3695 24.0353 18.3268 23.2062C16.7316 22.7779 14.6797 22.315 13.4641 21.1199H13.457Z" fill="#C0BCB3"/>
<path d="M20.1055 21.3604C19.7612 21.3604 19.459 21.1117 19.4098 20.7663C19.3536 20.3863 19.6206 20.0409 20.0071 19.9856C20.9839 19.8475 43.9341 16.6627 51.1298 18.7007C51.5023 18.8043 51.7201 19.1912 51.6077 19.5573C51.5023 19.9235 51.1158 20.1376 50.7363 20.0271C43.8287 18.072 20.4358 21.319 20.1968 21.3535C20.1617 21.3535 20.1266 21.3535 20.0985 21.3535L20.1055 21.3604Z" fill="#9E9074"/>
</g>
<defs>
<clipPath id="clip0_1056_7553">
<rect width="65" height="28" fill="white"/>
</clipPath>
</defs>
</svg>
