<svg width="59" height="49" viewBox="0 0 59 49" fill="none" xmlns="http://www.w3.org/2000/svg">
<g clip-path="url(#clip0_1051_7539)">
<path d="M46.6846 16.1367C47.5005 16.6426 47.5329 16.6623 47.5342 16.6631L47.5332 16.665C47.5326 16.666 47.5314 16.6672 47.5303 16.6689C47.5278 16.673 47.5245 16.6794 47.5195 16.6875C47.5094 16.7039 47.4944 16.7286 47.4746 16.7607C47.435 16.825 47.376 16.9195 47.3018 17.041C47.1531 17.2841 46.9408 17.6342 46.6855 18.0596C46.1747 18.9109 45.4945 20.0623 44.8154 21.2666C44.1347 22.4739 43.4622 23.7206 42.9629 24.7666C42.7128 25.2906 42.5144 25.7489 42.3799 26.1172C42.3127 26.3012 42.2652 26.4511 42.2363 26.5674C42.2084 26.6799 42.2055 26.7307 42.2051 26.7354H40.2051C40.2051 26.3236 40.349 25.8478 40.501 25.4316C40.6661 24.9796 40.8947 24.4574 41.1582 23.9053C41.6863 22.7989 42.3841 21.5064 43.0732 20.2842C43.7641 19.059 44.4541 17.8911 44.9707 17.0303C45.2291 16.5996 45.4447 16.2451 45.5957 15.998C45.6712 15.8746 45.7308 15.778 45.7715 15.7119C45.7918 15.6789 45.8068 15.6529 45.8174 15.6357C45.8227 15.6271 45.8273 15.6207 45.8301 15.6162C45.8314 15.6141 45.8323 15.6125 45.833 15.6113L45.834 15.6104C45.8367 15.6119 45.8833 15.6399 46.6846 16.1367ZM13.3965 15.4814C13.3972 15.4826 13.398 15.4851 13.3994 15.4873C13.4022 15.4918 13.406 15.4985 13.4111 15.5068C13.4218 15.524 13.4377 15.5491 13.458 15.582C13.4987 15.6481 13.5583 15.7447 13.6338 15.8682C13.7848 16.1152 14.0004 16.4698 14.2588 16.9004C14.7753 17.7612 15.4655 18.9291 16.1562 20.1543C16.8454 21.3765 17.5422 22.67 18.0703 23.7764C18.3338 24.3284 18.5634 24.8497 18.7285 25.3018C18.8805 25.7178 19.0243 26.1937 19.0244 26.6055H17.0244C17.0239 26.599 17.0196 26.5477 16.9922 26.4375C16.9633 26.3213 16.9167 26.1719 16.8496 25.9883C16.7151 25.62 16.5158 25.1618 16.2656 24.6377C15.7663 23.5916 15.0948 22.3441 14.4141 21.1367C13.735 19.9324 13.0548 18.781 12.5439 17.9297C12.2887 17.5043 12.0754 17.1542 11.9268 16.9111C11.8526 16.7898 11.7944 16.695 11.7549 16.6309C11.7351 16.5988 11.7201 16.574 11.71 16.5576C11.7051 16.5497 11.7007 16.544 11.6982 16.54C11.6971 16.5382 11.6969 16.5361 11.6963 16.5352L11.6953 16.5342C11.6953 16.5341 11.695 16.5338 12.5449 16.0068C13.3253 15.523 13.3892 15.4836 13.3945 15.4805L13.3965 15.4814Z" fill="#F97600"/>
<path d="M5.49323 49.0005C4.31623 34.8988 16.4327 22.7977 30.5762 22.9013C40.9272 22.8106 50.9186 29.5637 54.3253 39.2627C55.4565 42.4029 55.9339 45.7503 55.6592 49.007H55.0054C53.4491 28.599 29.2358 18.5698 14.0068 32.6003C9.52115 36.7699 6.67022 42.6683 6.14711 49.007H5.49323V49.0005Z" fill="#5B28DB"/>
<path d="M9.73827 0.725152L12.7919 5.39336C13.0731 5.82716 13.6093 6.03435 14.1128 5.89838L19.54 4.46749C20.6712 4.16966 21.5278 5.47753 20.7889 6.3775L17.2449 10.6961C16.9179 11.0975 16.8852 11.6673 17.1664 12.1011L20.22 16.7693C20.8543 17.7405 19.8669 18.9512 18.775 18.5369L13.5308 16.5362C13.0404 16.3484 12.4911 16.4974 12.1576 16.8988L8.61359 21.2174C7.8747 22.1173 6.41 21.554 6.46885 20.4016L6.76963 14.8463C6.79579 14.3283 6.48846 13.8557 5.99805 13.6679L0.753897 11.6673C-0.33809 11.2529 -0.253085 9.69899 0.878135 9.39468L6.30538 7.96379C6.80887 7.82782 7.1685 7.38755 7.2012 6.87605L7.50199 1.32082C7.56737 0.161859 9.08439 -0.233093 9.71865 0.738101L9.73827 0.725152Z" fill="#FF9925"/>
<path d="M49.2641 0.543512L46.2105 5.21172C45.9293 5.64552 45.3931 5.85271 44.8897 5.71674L39.4624 4.28585C38.3312 3.98801 37.4746 5.29589 38.2135 6.19586L41.7575 10.5144C42.0845 10.9159 42.1172 11.4856 41.836 11.9194L38.7824 16.5876C38.1481 17.5588 39.1355 18.7696 40.2275 18.3552L45.4716 16.3546C45.962 16.1668 46.5113 16.3157 46.8448 16.7171L50.3888 21.0357C51.1277 21.9357 52.5924 21.3724 52.5336 20.2199L52.2328 14.6647C52.2066 14.1467 52.5139 13.6741 53.0044 13.4863L58.2485 11.4856C59.3405 11.0713 59.2555 9.51735 58.1243 9.21304L52.697 7.78215C52.1935 7.64618 51.8339 7.20591 51.8012 6.69441L51.5004 1.13918C51.435 -0.0197812 49.918 -0.414734 49.2838 0.556461L49.2641 0.543512Z" fill="#FF9925"/>
</g>
<defs>
<clipPath id="clip0_1051_7539">
<rect width="59" height="49" fill="white"/>
</clipPath>
</defs>
</svg>
