<svg width="58" height="37" viewBox="0 0 58 37" fill="none" xmlns="http://www.w3.org/2000/svg">
<g clip-path="url(#clip0_1051_7552)">
<path d="M0.130303 36.5839C-1.22625 20.1421 12.7387 6.02644 29.0399 6.13972C40.97 6.03399 52.4856 13.9113 56.412 25.2249C57.7158 28.8879 58.266 32.7925 57.9494 36.5915H57.1958C55.4021 12.7784 27.4949 1.07954 9.94267 17.4458C4.76518 22.3097 1.48685 29.19 0.883941 36.5839H0.130303Z" fill="#5B28DB"/>
<path d="M20.3703 19.9517C15.4062 20.8112 10.6917 17.4874 9.82929 12.5354C8.98816 7.63606 12.2237 2.98941 17.083 2.04415C15.5028 1.67484 13.8337 1.617 12.1384 1.91023C5.32693 3.08819 0.775071 9.55842 1.95636 16.3569C3.13765 23.1553 9.61057 27.7155 16.4124 26.536C22.0457 25.5656 26.1247 20.9542 26.6967 15.5492C25.3917 17.7988 23.1413 19.4741 20.3703 19.9517Z" fill="#FF9925"/>
</g>
<defs>
<clipPath id="clip0_1051_7552">
<rect width="58" height="37" fill="white"/>
</clipPath>
</defs>
</svg>
