<svg width="263" height="116" viewBox="0 0 263 116" fill="none" xmlns="http://www.w3.org/2000/svg">
<path d="M13.8799 43.1564L2.54142 43.9982L13.2468 45.8593L5.50388 51.5029L15.9138 50.6989L14.4086 59.2224L19.8932 52.0696L24.3897 56.0029L22.2087 50.7241L29.2061 53.4317L23.7946 46.5421L30.1415 42.8857L21.0576 43.3688L23.7312 36.4173L18.327 40.7897L16.4566 31.2719L16.6529 41.7535L9.04647 37.5395L13.8799 43.1564Z" fill="#FFC800"/>
<path d="M154.471 6.84888L149.105 7.24725L154.171 8.12802L150.507 10.7989L155.433 10.4184L154.721 14.4522L157.317 11.0671L159.445 12.9285L158.412 10.4303L161.724 11.7117L159.163 8.45118L162.167 6.72074L157.868 6.94938L159.133 3.65955L156.575 5.7288L155.69 1.22446L155.783 6.18495L152.183 4.19066L154.471 6.84888Z" fill="#FFC800"/>
<path d="M250.157 103.688L242.767 104.253L249.739 105.434L244.681 109.092L251.467 108.553L250.468 114.058L254.057 109.43L256.979 111.961L255.568 108.558L260.122 110.292L256.611 105.855L260.754 103.483L254.834 103.812L256.591 99.3195L253.06 102.152L251.861 96.0117L251.967 102.777L247.019 100.072L250.157 103.688Z" fill="#FFC800"/>
</svg>
