<svg width="265" height="265" viewBox="0 0 265 265" fill="none" xmlns="http://www.w3.org/2000/svg">
<g clip-path="url(#clip0_522_2427)">
<path d="M22.849 111.703L133.348 127.385C139.507 128.47 138.659 137.299 132.369 137.168L20.9538 130.631C15.7058 130.324 11.6999 125.819 12.0069 120.571C12.3052 115.047 17.3751 110.9 22.849 111.703Z" fill="#A2664C"/>
<path d="M241.584 152.727L131.085 137.045C124.926 135.96 125.774 127.131 132.064 127.262L243.479 133.799C248.727 134.106 252.733 138.611 252.426 143.859C252.128 149.383 247.058 153.53 241.584 152.727Z" fill="#A2664C"/>
<path d="M111.7 241.584L127.382 131.084C128.467 124.926 137.296 125.774 137.165 132.064L130.628 243.479C130.321 248.727 125.817 252.733 120.563 252.425C115.039 252.127 110.892 247.057 111.695 241.583L111.7 241.584Z" fill="#A2664C"/>
<path d="M152.73 22.8472L137.048 133.347C135.963 139.505 127.134 138.657 127.265 132.367L133.802 20.952C134.109 15.704 138.614 11.698 143.862 12.0051C149.386 12.3034 153.533 17.3732 152.73 22.8472Z" fill="#A2664C"/>
<path d="M43.5056 199.328L130.017 128.815C134.993 125.028 140.905 131.642 136.535 136.171L56.1217 213.567C52.3346 217.213 46.3081 217.098 42.6568 213.311C38.8001 209.341 39.1994 202.808 43.5004 199.327L43.5056 199.328Z" fill="#A2664C"/>
<path d="M222.084 66.5128L135.573 137.026C130.597 140.813 124.685 134.199 129.055 129.67L209.468 52.2739C213.255 48.6278 219.282 48.7423 222.933 52.53C226.79 56.4994 226.39 63.0331 222.089 66.5133L222.084 66.5128Z" fill="#A2664C"/>
<path d="M73.6337 38.674L137.106 130.476C140.49 135.735 133.431 141.108 129.258 136.394L58.4449 50.1289C55.1073 46.0658 55.6976 40.0661 59.7658 36.729C64.0251 33.1977 70.5124 34.1125 73.6389 38.6745L73.6337 38.674Z" fill="#A2664C"/>
<path d="M191.955 227.168L128.483 135.365C125.099 130.106 132.158 124.734 136.33 129.447L207.144 215.713C210.481 219.776 209.891 225.775 205.823 229.113C201.564 232.644 195.076 231.729 191.95 227.167L191.955 227.168Z" fill="#A2664C"/>
<path d="M120.749 246.764C123.086 246.998 125.171 245.293 125.405 242.955C125.639 240.618 123.934 238.533 121.596 238.299C119.259 238.065 117.174 239.77 116.94 242.108C116.706 244.445 118.411 246.53 120.749 246.764Z" fill="#571F10"/>
<path d="M49.3502 211.048C51.6878 211.282 53.7725 209.577 54.0065 207.239C54.2406 204.902 52.5353 202.817 50.1978 202.583C47.8602 202.349 45.7755 204.054 45.5415 206.392C45.3074 208.729 47.0126 210.814 49.3502 211.048Z" fill="#571F10"/>
<path d="M199.124 225.669C201.461 225.903 203.546 224.198 203.78 221.86C204.014 219.523 202.309 217.438 199.971 217.204C197.634 216.97 195.549 218.675 195.315 221.013C195.081 223.35 196.786 225.435 199.124 225.669Z" fill="#571F10"/>
<path d="M242.088 147.666C244.426 147.9 246.511 146.195 246.745 143.857C246.979 141.52 245.274 139.435 242.936 139.201C240.598 138.967 238.514 140.672 238.28 143.01C238.046 145.347 239.751 147.432 242.088 147.666Z" fill="#571F10"/>
<path d="M215.346 63.6291C217.684 63.8631 219.769 62.1579 220.003 59.8203C220.237 57.4828 218.531 55.3981 216.194 55.164C213.856 54.93 211.772 56.6352 211.538 58.9728C211.303 61.3103 213.009 63.395 215.346 63.6291Z" fill="#571F10"/>
<path d="M143.046 26.1525C145.383 26.3866 147.468 24.6813 147.702 22.3438C147.936 20.0062 146.231 17.9215 143.893 17.6875C141.556 17.4534 139.471 19.1586 139.237 21.4962C139.003 23.8338 140.708 25.9185 143.046 26.1525Z" fill="#571F10"/>
<path d="M65.6119 48.6359C67.9495 48.87 70.0342 47.1647 70.2682 44.8272C70.5023 42.4896 68.7971 40.4049 66.4595 40.1709C64.1219 39.9368 62.0372 41.642 61.8032 43.9796C61.5691 46.3172 63.2744 48.4019 65.6119 48.6359Z" fill="#571F10"/>
<path d="M21.5377 124.761C23.8753 124.995 25.96 123.29 26.194 120.952C26.4281 118.615 24.7228 116.53 22.3853 116.296C20.0477 116.062 17.963 117.767 17.729 120.105C17.4949 122.442 19.2001 124.527 21.5377 124.761Z" fill="#571F10"/>
<path d="M141.07 50.2471C95.7638 45.7107 55.3581 78.7615 50.8217 124.068C46.2853 169.375 79.3361 209.78 124.643 214.317C169.949 218.853 210.355 185.802 214.891 140.496C219.428 95.1893 186.377 54.7835 141.07 50.2471ZM126.789 192.876C93.3206 189.525 68.9066 159.678 72.2577 126.209C75.6089 92.7403 105.456 68.3264 138.925 71.6775C172.394 75.0286 196.808 104.876 193.456 138.344C190.105 171.813 160.258 196.227 126.789 192.876Z" fill="#CC876A"/>
<path d="M125.732 208.731C83.6023 204.512 52.7617 166.809 56.98 124.679C61.1983 82.5493 98.9066 51.7143 141.031 55.9321C183.156 60.1499 214.001 97.8541 209.783 139.984C205.565 182.113 167.861 212.954 125.731 208.736L125.732 208.731ZM140.619 60.0513C100.765 56.0609 65.0896 85.2376 61.0987 125.097C57.1078 164.955 86.2849 200.626 126.144 204.616C166.003 208.607 201.673 179.43 205.664 139.571C209.655 99.7124 180.478 64.0423 140.619 60.0513Z" fill="#FFC800"/>
<path d="M129.703 157.313C143.919 158.737 156.597 148.367 158.021 134.151C159.444 119.935 149.074 107.257 134.858 105.833C120.642 104.41 107.964 114.78 106.54 128.996C105.117 143.212 115.487 155.89 129.703 157.313Z" fill="#571F10"/>
<path d="M135.591 98.4751C117.312 96.6449 101.009 109.98 99.1786 128.259C97.3483 146.538 110.684 162.841 128.963 164.672C147.242 166.502 163.545 153.167 165.375 134.887C167.205 116.608 153.87 100.305 135.591 98.4751ZM129.939 154.976C117.015 153.682 107.585 142.155 108.879 129.231C110.173 116.306 121.701 106.877 134.625 108.171C147.549 109.465 156.978 120.993 155.684 133.917C154.39 146.841 142.863 156.27 129.939 154.976Z" fill="#CC876A"/>
<path d="M145.046 125.8C145.695 125.662 149.265 124.808 149.402 124.629C149.809 124.098 148.725 122.195 150.274 120.28C151.818 118.365 154.447 118.139 156.652 118.964C160.382 120.356 157.875 124.1 158.046 124.366C158.122 124.488 159.978 125.064 160.635 125.619C164.801 129.151 158.207 133.354 153.442 130.089C152.814 129.662 152.447 128.549 151.674 128.482C151.319 128.446 145.289 130.23 144.816 130.494C143.45 131.252 141.906 136.34 139.625 137.141C142.011 138.04 146.608 142.359 148.689 142.864C149.877 143.155 149.704 142.233 150.558 141.809C156.136 139.023 161.975 146.311 156.211 148.766C155.565 149.04 154.507 148.913 154.433 148.968C153.936 149.36 155.078 152.766 152.517 153.769C148.636 155.289 143.966 150.203 146.851 146.633C145.219 146.407 138.044 140.363 137.285 140.989C137.141 143.877 134.449 145.365 132.078 143.339C131.67 142.991 131.289 141.965 131.146 141.945C130.853 141.905 129.937 143.946 127.221 143.019C125.843 142.548 125.971 141.375 125.392 140.974C125.237 140.865 124.417 143.18 122.214 142.543C119.484 141.755 120.528 138.708 120.38 138.522C120.025 138.07 112.833 140.143 112.573 140.455C112.07 141.06 112.324 142.676 111.979 143.63C110.978 146.411 106.081 146.285 105.916 143.096C105.874 142.322 106.331 140.672 106.122 140.266C105.991 140.014 104.202 139.856 104.097 137.843C103.991 135.788 104.951 134.298 107.081 134.163C110.431 133.953 110.77 136.795 111.026 136.836C111.415 136.901 118.392 134.635 118.457 134.247C116.805 132.781 116.39 127.31 115.515 126.385C115.285 126.138 112.478 124.469 112.22 124.448C111.378 124.39 111.39 125.254 110.886 125.511C108.117 126.934 104.034 125.017 105.384 121.715C105.894 120.465 107.999 120.276 108.142 120.092C108.561 119.536 108.134 116.997 109.67 115.996C113.214 113.683 116.841 118.025 114.693 121.56C117.22 123.18 117.22 120.325 118.414 118.573C126.193 107.161 144.464 111.773 145.047 125.79L145.046 125.8ZM133.574 128.807C136.601 132.49 141.668 128.588 139.162 124.056C136.446 119.135 129.958 124.409 133.574 128.807ZM123.56 121.407C119.955 121.988 119.219 128.717 123.04 129.047C127.675 129.449 129.206 120.496 123.56 121.407ZM127.32 131.8C128.105 132.316 129.082 131.389 129.492 131.404C130.015 131.425 131.012 132.841 131.788 131.899C133.071 126.401 126.686 126.807 127.319 131.805L127.32 131.8Z" fill="#FEFEFE"/>
</g>
<defs>
<clipPath id="clip0_522_2427">
<rect width="241.565" height="241.565" fill="white" transform="translate(24.0668) rotate(5.71778)"/>
</clipPath>
</defs>
</svg>
