<svg width="157" height="162" viewBox="0 0 157 162" fill="none" xmlns="http://www.w3.org/2000/svg">
<path d="M103.809 127.749C125.822 127.749 143.668 109.777 143.668 87.6081C143.668 65.4387 125.822 47.4668 103.809 47.4668C81.7948 47.4668 63.9492 65.4387 63.9492 87.6081C63.9492 109.777 81.7948 127.749 103.809 127.749Z" fill="#FFC800"/>
<path d="M122.256 95.9164C117.457 95.9164 112.751 88.7794 112.563 88.4584C112.413 88.2318 112.488 87.9486 112.695 87.7975C112.919 87.6465 113.201 87.722 113.351 87.9297C113.407 88.0052 118.15 95.2745 122.612 94.9535C122.894 94.9535 127.656 95.2933 130.337 88.0241C130.431 87.7787 130.693 87.6654 130.937 87.7409C131.181 87.8353 131.312 88.0996 131.218 88.3451C128.293 96.3129 122.856 95.8975 122.612 95.8787C122.5 95.8787 122.387 95.8787 122.294 95.8787L122.256 95.9164Z" fill="#260E09"/>
<path d="M126.269 86.7017L117.457 86.7017L121.863 74.8633L126.269 86.7017ZM118.807 85.7577L124.919 85.7577L121.863 77.5444L118.807 85.7577Z" fill="#260E09"/>
<path d="M111.55 80.49C113.673 80.49 115.394 78.5711 115.394 76.204C115.394 73.8369 113.673 71.918 111.55 71.918C109.428 71.918 107.707 73.8369 107.707 76.204C107.707 78.5711 109.428 80.49 111.55 80.49Z" fill="#260E09"/>
<path d="M95.2415 93.8577C100.263 93.8577 104.334 89.7578 104.334 84.7003C104.334 79.6429 100.263 75.543 95.2415 75.543C90.2195 75.543 86.1484 79.6429 86.1484 84.7003C86.1484 89.7578 90.2195 93.8577 95.2415 93.8577Z" fill="#F3695B"/>
<path d="M79.3999 134.981L79.4561 134.981C79.4561 134.981 79.5499 134.906 79.6061 134.887C80.2998 136.322 81.9872 138.078 83.2808 138.247C83.9933 138.342 84.537 137.964 84.762 137.209C84.9119 136.68 84.8369 136.152 84.5557 135.68C84.0308 134.811 82.8309 134.226 81.7622 133.848L92.7863 130.261L92.5051 129.354L81.8372 132.81C82.4934 131.922 82.9996 130.959 82.8871 130.242C82.8309 129.864 82.5871 129.241 81.5185 129.166C80.881 129.128 80.3186 129.336 79.8873 129.77C79.5124 130.147 79.2686 130.657 79.1187 131.224C78.9312 131.885 78.8562 132.583 78.8374 133.187L72.9129 126.277L89.3553 117.138L88.9054 116.308L68.0195 127.92L73.9628 144.592L79.4374 134.943L79.3999 134.981ZM83.7495 136.171C83.8995 136.416 83.937 136.661 83.862 136.945C83.7495 137.322 83.5995 137.322 83.4121 137.303C82.4934 137.171 80.956 135.547 80.4123 134.433C81.5372 134.736 83.2246 135.321 83.7495 136.189L83.7495 136.171ZM80.5435 130.468C80.7873 130.223 81.0685 130.11 81.4435 130.147C81.9122 130.185 81.9497 130.355 81.9497 130.412C81.9497 130.525 81.9497 130.676 81.9122 130.827C81.6872 131.582 80.8435 132.659 80.0936 133.376C79.9998 133.357 79.9061 133.338 79.8686 133.338L79.7748 133.338C79.8123 132.319 79.9811 131.073 80.5623 130.468L80.5435 130.468ZM72.0317 126.768L78.6124 134.452L74.1128 142.364L69.1257 128.373L72.0317 126.768Z" fill="#1E0720"/>
<path d="M61.5875 115.722L61.6437 115.722C61.6437 115.722 61.7562 115.76 61.8124 115.779C61.4375 117.327 61.6062 119.763 62.5061 120.726C62.9936 121.254 63.6498 121.311 64.306 120.877C64.756 120.575 65.0372 120.122 65.1122 119.574C65.2622 118.554 64.6997 117.346 64.1185 116.364L74.8614 120.726L75.2176 119.838L64.8122 115.628C65.8809 115.382 66.8745 114.948 67.2495 114.344C67.437 114.023 67.6432 113.381 66.8745 112.626C66.4058 112.173 65.8434 111.984 65.2247 112.04C64.6997 112.097 64.1935 112.343 63.706 112.664C63.1436 113.041 62.6374 113.551 62.2437 113.985L62.0749 104.866L80.5235 108.434L80.6922 107.509L57.2566 102.978L51.2383 119.631L61.5687 115.76L61.5875 115.722ZM64.1748 119.442C64.1373 119.725 64.006 119.933 63.7623 120.103C63.4436 120.329 63.3123 120.235 63.1811 120.103C62.5436 119.404 62.4124 117.176 62.7124 115.968C63.3873 116.931 64.306 118.46 64.156 119.461L64.1748 119.442ZM65.3372 112.966C65.6746 112.928 65.9559 113.041 66.2371 113.287C66.5746 113.626 66.4996 113.759 66.4621 113.815C66.4058 113.91 66.2933 114.023 66.1621 114.117C65.5246 114.552 64.1935 114.835 63.1436 114.892C63.0873 114.816 63.0311 114.74 62.9936 114.703L62.9374 114.627C63.6123 113.872 64.531 113.022 65.3559 112.947L65.3372 112.966ZM61.1375 104.658L61.325 114.816L52.8319 118.007L57.894 104.054L61.1375 104.677L61.1375 104.658Z" fill="#1E0720"/>
<path d="M102.214 55.888C102.214 55.888 104.745 61.8733 106.432 62.1187C108.12 62.3642 109.657 55.6047 109.901 55.0383C110.144 54.4719 121.75 53.981 121.918 53.0936C122.087 52.2061 114.981 47.8068 114.1 47.6936C113.219 47.5803 115.956 41.9537 115.6 40.6131C115.244 39.2726 105.795 44.0306 105.157 44.5215C104.52 45.0124 96.8329 43.8985 95.6143 44.8425C94.3956 45.7866 98.2578 49.5439 99.1765 49.5817C100.095 49.6194 92.7645 55.1894 93.5332 55.8502C94.3019 56.511 99.214 57.5873 102.214 55.8691L102.214 55.888Z" fill="#20D39C"/>
<path d="M131.555 79.5271C133.202 79.5271 134.536 77.6082 134.536 75.2411C134.536 72.874 133.202 70.9551 131.555 70.9551C129.909 70.9551 128.574 72.874 128.574 75.2411C128.574 77.6082 129.909 79.5271 131.555 79.5271Z" fill="#260E09"/>
<path d="M29.264 44.8805C29.3952 44.6351 29.6577 44.5407 29.9014 44.6162C29.9577 44.6162 30.0327 44.654 30.1076 44.6917L28.0078 47.6372C28.5515 46.3533 28.9827 45.3903 29.2452 44.8805L29.264 44.8805Z" fill="#CB55E6"/>
<path d="M46.3059 44.1061C55.8864 47.3348 74.3724 54.0376 75.891 56.1711L76.116 56.511L76.341 56.1711C76.4535 56.0012 76.7722 55.5481 76.9034 55.3781C77.0159 55.2523 76.7097 54.6229 75.9848 53.49C74.1849 50.6956 69.9665 44.1628 66.798 37.29C63.2733 29.6432 62.0171 23.8278 63.0858 19.976C63.3108 19.1453 63.7795 18.4278 64.4169 17.8614C64.6607 17.6537 64.9419 17.4271 65.2231 17.2383C68.1666 25.6026 78.5908 52.8103 79.097 54.0942C79.697 55.6047 78.3658 56.5865 76.8285 58.3236C75.5161 59.8341 41.1313 48.3921 31.832 45.2579C32.5257 44.8236 33.6881 44.2005 35.263 43.7285C37.6816 42.9921 41.5625 42.4446 46.3059 44.1061Z" fill="white"/>
<path d="M65.693 15.0859C65.4118 14.6139 64.7744 14.5006 64.4744 14.8216C64.4369 14.8594 64.6431 15.5391 65.0368 16.6908C65.0556 16.6908 65.0743 16.6531 65.1118 16.6342L65.4118 17.1062C65.4118 17.1062 65.2993 17.2006 65.2431 17.2384C68.1866 25.6027 78.6108 52.8104 79.117 54.0943C79.7169 55.6048 78.3858 56.5866 76.8484 58.3237C75.536 59.8342 41.1512 48.3922 31.852 45.258C31.3833 45.5412 31.1208 45.7489 31.1208 45.7489L30.7646 45.3146C30.7646 45.3146 30.9145 45.1824 31.1583 45.0314C30.7083 44.8803 30.3708 44.767 30.1084 44.6726L28.0085 47.6181C27.5961 48.6188 27.1086 49.7894 26.5649 51.1111C22.7964 60.4195 16.7782 76.2985 16.7969 76.8083C16.7969 77.5258 17.6781 77.9034 18.0718 77.7335C18.4655 77.5635 58.5124 87.9482 62.0371 87.8538C65.5618 87.7593 67.9616 82.737 68.3366 82.2083C68.5053 81.9817 70.3427 77.8845 72.555 72.9943C75.461 66.5936 78.9857 58.8335 80.2044 56.7377C82.3417 53.037 65.993 15.5391 65.7118 15.067L65.693 15.0859Z" fill="#CB55E6"/>
<path d="M64.4192 17.8617C63.7818 18.4281 63.3131 19.1456 63.0881 19.9764C62.0194 23.8281 63.2756 29.6435 66.8003 37.2904C69.9875 44.182 74.1872 50.7149 75.9871 53.4904C76.712 54.6107 77.0182 55.24 76.9057 55.3785C76.7557 55.5484 76.437 56.0016 76.3433 56.1715L76.1183 56.5114L75.8933 56.1715C74.3747 54.0191 55.8699 47.3351 46.3082 44.1065C41.5648 42.4638 37.6839 42.9925 35.2653 43.7288C33.6904 44.2009 32.528 44.8239 31.8343 45.2582C31.5906 45.1827 31.3469 45.0883 31.1406 45.0316C31.7593 44.6163 33.0905 43.8044 35.0591 43.2002C37.5526 42.426 41.5648 41.8596 46.4582 43.5589C47.5643 43.9365 72.6686 52.4519 76.0621 55.5484C76.1558 55.4163 76.2683 55.2652 76.362 55.133C76.2308 54.9065 75.8933 54.3778 75.4996 53.7925C73.6997 50.9981 69.4626 44.4275 66.2566 37.517C62.2444 28.8505 61.157 22.4498 62.9943 18.4848L62.9943 18.447C62.9943 18.447 63.913 17.3708 65.0004 16.6533C65.0567 16.8233 65.1317 17.0121 65.1879 17.2198C64.9067 17.4086 64.6255 17.6163 64.3817 17.8428L64.4192 17.8617Z" fill="#CB55E6"/>
<path d="M65.3914 17.1073C65.3914 17.1073 65.2789 17.2019 65.2226 17.2397C65.1477 17.0505 65.0914 16.8612 65.0352 16.672C65.0539 16.672 65.0727 16.6342 65.1102 16.6152L65.4101 17.0883L65.3914 17.1073Z" fill="#28AF6C"/>
<path d="M31.1023 45.7673L30.7461 45.333C30.7461 45.333 30.8961 45.2009 31.1398 45.0498C31.346 45.1253 31.5898 45.2009 31.8335 45.2764C31.3648 45.5596 31.1023 45.7673 31.1023 45.7673Z" fill="#CB55E6"/>
<path d="M77.6546 59.041C77.6546 59.041 107.483 79.3193 99.1029 94.3487C94.8657 101.958 85.2477 102.411 76.5672 98.5403C67.8866 94.6697 60.5747 86.7774 56.8438 84.7949L66.1055 85.2291C66.1055 85.2291 72.0675 96.69 85.3227 97.1997C98.4654 97.6907 94.1345 72.6165 75.4798 61.5333L77.6358 59.041L77.6546 59.041Z" fill="#CB55E6"/>
<path d="M66.1231 84.8703C66.1231 84.8703 66.3294 84.8137 66.4231 84.8326L83.4843 88.0612C83.7467 84.606 84.2905 82.9067 85.3404 82.2458C85.9403 81.8493 86.709 81.8305 87.5902 82.1892C88.1901 82.4158 88.6214 82.85 88.8651 83.4542C89.3526 84.6437 88.9963 86.3053 88.6776 87.3437C93.1772 86.0409 93.8709 86.4752 94.5459 88.3822C94.6584 88.7221 94.6209 89.0808 94.4521 89.4207C93.9459 90.3647 92.1648 91.0822 90.9087 91.4787C93.7397 92.9326 95.1271 94.1598 95.2396 95.2927C95.3333 96.2556 94.5646 96.8598 94.0959 97.2186C93.1585 97.9549 90.2525 96.7277 88.2276 95.7458C89.5025 98.4647 90.1775 99.9752 88.1714 101.467C87.8152 101.731 87.4027 101.807 86.9715 101.656C85.2466 101.089 83.6905 96.7843 83.1468 95.1794L67.6043 98.6913C67.3418 98.7479 67.0793 98.578 67.0231 98.3137C66.9668 98.0493 67.1356 97.785 67.398 97.7284L83.3718 94.1221C83.6155 94.0654 83.8592 94.2165 83.9342 94.4619C84.6842 96.8598 86.2215 100.391 87.2715 100.73C87.384 100.768 87.4777 100.749 87.5902 100.674C88.9213 99.692 88.6776 99.0312 87.3277 96.1046C87.159 95.727 86.9527 95.3116 86.7465 94.8584C86.6528 94.6696 86.709 94.443 86.859 94.292C87.009 94.1409 87.234 94.1221 87.4215 94.2165C90.1775 95.6892 93.0085 96.7277 93.4585 96.4444C93.9459 96.0668 94.3022 95.7647 94.2647 95.3871C94.2084 94.8962 93.496 93.7633 89.3338 91.7997C89.1463 91.7053 89.0338 91.5165 89.0526 91.3088C89.0713 91.1011 89.2213 90.9312 89.4275 90.8745C90.8149 90.5347 93.1585 89.7228 93.5897 88.9298C93.646 88.8165 93.646 88.7409 93.6272 88.6843C93.196 87.4382 93.046 87.0039 88.0402 88.5333C87.8527 88.5899 87.6652 88.5333 87.5339 88.3822C87.4027 88.25 87.384 88.0423 87.459 87.8535C87.7589 87.136 88.4714 84.9836 87.9652 83.7941C87.8152 83.4354 87.5902 83.2088 87.234 83.0766C86.6528 82.85 86.2028 82.85 85.8653 83.0577C84.8529 83.6997 84.5717 86.3997 84.4217 88.6654C84.4217 88.7976 84.3467 88.9298 84.2342 89.0242C84.1217 89.1186 83.9905 89.1375 83.8405 89.1186L66.2544 85.7766C65.9919 85.72 65.8232 85.4745 65.8607 85.2102C65.8982 85.0591 65.9919 84.927 66.1231 84.8514L66.1231 84.8703Z" fill="#1E0720"/>
<path d="M138.063 94.5188C141.159 94.5188 143.669 90.4189 143.669 85.3614C143.669 80.304 141.159 76.2041 138.063 76.2041C134.967 76.2041 132.457 80.304 132.457 85.3614C132.457 90.4189 134.967 94.5188 138.063 94.5188Z" fill="#F3695B"/>
</svg>
