<svg width="122" height="149" viewBox="0 0 122 149" fill="none" xmlns="http://www.w3.org/2000/svg">
<g clip-path="url(#clip0_853_3394)">
<path d="M117.804 100.774C117.804 100.774 123.102 120.186 104.409 128.752C85.7157 137.318 84.9889 137.135 73.6375 127.629C62.2861 118.123 52.4576 112.396 65.3272 91.3923C65.3272 91.3923 44.6627 103.481 39.7571 104.559C34.8516 105.638 25.107 108.124 18.6585 100.623C12.21 93.1228 9.87641 80.9479 17.203 69.0517C24.5296 57.1556 47.3512 54.878 50.2584 55.6118C50.2584 55.6118 36.4291 50.4205 34.0479 42.7123C31.6667 35.0041 35.3579 25.2801 51.6451 21.356C67.9323 17.4318 84.8537 19.5406 88.8091 37.5313C88.8091 37.5313 101.388 18.3021 117.871 21.5371C134.353 24.772 155.739 47.1621 125.703 60.2817C125.703 60.2817 148.661 61.7495 151.739 81.9926C154.817 102.236 129.884 107.374 117.803 100.769L117.804 100.774Z" fill="#E92439"/>
<path d="M106.685 67.6625C106.982 67.2947 107.434 67.1545 107.936 66.9745C109.937 66.4706 122.62 61.6866 125.212 64.3745C126.247 65.9619 122.094 68.5273 124.391 70.2735C124.911 70.6771 125.679 70.8397 126.37 70.9904C130.462 71.8476 139.371 73.897 140.218 78.807C140.471 80.1942 140.192 81.7854 139.295 82.8668C137.729 84.6308 135.861 83.5462 133.384 82.3864C131.282 81.3709 129.256 80.1991 127.202 79.6966C125.203 79.2286 122.133 79.2636 121.559 81.6818C121.121 84.3204 122.61 88.4725 118.928 89.3985C113.834 91.0769 107.718 84.4282 106.715 79.6283C106.173 77.3215 106.134 74.8169 106.175 72.4634C106.257 70.9562 106.158 68.6511 106.658 67.6976L106.679 67.6637L106.685 67.6625Z" fill="#FF6183"/>
<path d="M84.1129 58.64C84.6551 57.8517 84.9537 56.9077 85.2861 55.9852C86.072 53.7123 87.3686 49.9251 87.9761 47.2376C88.6343 44.5158 88.2328 42.4516 86.7373 40.4127C85.8311 39.175 84.6006 37.997 83.0804 37.6447C80.1171 36.9466 80.6358 41.1317 78.8345 42.1734C76.4277 43.1331 73.444 41.3108 71.561 39.8109C69.819 38.3439 68.4968 36.2727 66.5571 35.3088C64.766 34.3064 61.8148 34.7749 61.5273 37.1186C61.2677 38.822 62.5531 41.07 63.1267 43.3349C64.2362 47.3494 63.096 49.2813 59.6157 51.2856C57.578 52.4957 57.2157 53.8378 58.8275 55.665C61.9392 58.8902 66.9208 62.9201 71.7092 64.0606C74.4222 64.5461 77.1322 63.3511 79.5066 62.0321C81.1412 61.0793 83.156 59.8975 84.0869 58.6806L84.1228 58.632L84.1129 58.64Z" fill="#FF6285"/>
<path d="M68.9025 66.9237C68.3892 66.3617 67.6859 66.1266 66.9599 65.8673C64.4634 65.0433 58.9812 63.2875 54.5617 62.0253C51.5362 61.2826 47.2713 59.4803 44.7755 61.8615C42.6069 64.5664 46.9877 67.1868 43.744 69.7383C40.726 72.787 34.3501 76.8358 32.6448 81.5157C31.9574 83.8134 32.1254 86.9587 34.089 88.534C35.4807 89.5719 37.778 89.1191 40.2926 88.1998C42.3224 87.4568 44.5519 86.4838 46.5793 85.7297C48.4029 85.1601 50.8976 83.7797 52.3385 85.4117C53.3162 86.657 53.3407 88.647 54.3109 89.9113C55.5483 91.623 57.7317 91.1023 59.3005 89.8498C60.8963 88.6147 62.1556 86.8543 63.8387 85.7513C66.2778 83.9061 75.9676 82.5203 77.9927 81.4119C79.1504 80.6978 78.7941 79.3683 78.4893 78.1671C77.662 75.2773 71.542 72.9753 70.5018 70.2022C69.8701 68.5726 69.4706 67.5492 68.9468 66.9663L68.9081 66.9225L68.9025 66.9237Z" fill="#FF6285"/>
<path d="M104.465 66.2714C104.465 66.2714 122.201 55.1523 121.857 53.5875C121.513 52.0226 120.696 52.0392 119.88 52.0559C119.063 52.0725 114.351 53.7659 113.114 53.3804C111.878 52.9949 112.023 50.6651 112.828 49.8306C113.634 48.9962 117.607 43.201 115.526 41.1977C113.445 39.1944 107.051 45.1962 104.755 45.2064C102.459 45.2166 104.995 38.0969 104.444 37.072C103.893 36.0472 102.012 36.4608 101.055 37.3226C100.099 38.1845 88.8936 49.1882 88.8065 57.7358C88.7195 66.2834 104.465 66.2714 104.465 66.2714Z" fill="#FF6285"/>
<path d="M62.431 76.6537C64.2713 81.002 70.9488 80.389 74.7535 81.3152C74.9438 81.3606 75.123 81.4085 75.2979 81.4631C78.3508 82.3568 79.5592 85.4187 81.5481 87.7971C82.3433 88.8207 83.2607 89.7651 84.2528 90.3614C86.5098 91.6046 89.078 91.5635 91.0879 90.3595C92.9854 88.9883 94.6988 85.9064 96.5715 83.8134C98.1422 81.9613 100.454 81.0982 102.857 80.5465C104.549 80.1454 106.289 79.9084 107.835 79.5858L107.919 79.5675C116.687 77.9073 116.832 71.5285 108.828 68.3552C106.878 67.2945 104.32 65.1287 103.139 63.7825C102.869 63.4522 102.633 63.1201 102.513 62.7334C102.196 61.6339 102.713 60.572 102.855 59.418C103.4 56.4999 102.01 54.7577 98.9575 55.1612C96.7711 55.3511 94.4253 56.0064 92.2972 56.6198C90.2084 57.2535 88.6543 57.7523 86.6199 57.2048C84.3034 56.6437 81.9889 55.7214 79.7394 54.9362C77.5521 54.143 75.1168 53.2532 73.0381 54.5945C70.3472 56.3263 71.4703 59.2383 71.2996 61.981C71.2691 63.7736 71.4627 65.6334 70.0264 66.88C68.6183 68.2018 65.5422 69.9544 63.8747 70.9958C61.7024 72.0435 61.4885 74.563 62.431 76.6537Z" fill="#C81D33"/>
<path d="M98.6966 81.9385C99.7254 82.4104 100.655 83.2531 101.546 84.052C104.242 86.496 109.011 91.2768 110.566 95.8099C112.223 100.385 109.135 102.745 105.623 98.8629C104.076 97.2485 102.001 94.7725 99.7007 95.8193C95.565 98.2295 98.5138 107.593 93.5833 111.283C89.8027 114.145 85.5618 112.081 84.7535 107.611C84.2357 105.468 84.357 103.056 83.9217 100.97C83.4356 98.1505 81.1633 95.9915 78.515 97.9699C77.1478 98.9221 75.8282 100.62 74.4413 101.588C71.8539 103.606 68.848 101.841 68.6614 98.7692C68.4646 93.4022 73.5441 85.6535 78.133 82.8702C82.7157 80.1116 88.9929 80.4826 94.0077 80.9856C95.7377 81.1812 97.748 81.4606 98.6505 81.9137L98.7022 81.9373L98.6966 81.9385Z" fill="#FE6486"/>
<path d="M74.7529 81.315C74.9432 81.3605 75.1224 81.4083 75.2973 81.4629C78.3502 82.3566 79.5586 85.4186 81.5475 87.7969C82.3427 88.8205 83.26 89.7649 84.2521 90.3612C86.5092 91.6044 89.0774 91.5633 91.0873 90.3593C92.9848 88.9881 94.6982 85.9062 96.5709 83.8132C98.1416 81.9612 100.453 81.098 102.857 80.5463C103.717 78.6643 105.495 74.0499 103.512 71.8854C100.986 69.1249 98.3516 73.0201 96.5404 72.7202C94.7237 72.4215 92.2206 67.387 90.9088 66.9773C89.5971 66.5676 84.5827 68.3682 84.5225 70.4757C84.4623 72.5833 83.0245 76.3899 80.6407 75.8668C78.2569 75.3438 73.1032 73.3355 73.226 76.2754C73.265 77.2732 73.9158 79.2012 74.7529 81.315Z" fill="#AA1732"/>
<path d="M89.0909 9.82517C90.3934 20.9353 96.0447 69.3684 88.5198 75.7583L89.7233 77.6869C95.8492 73.5593 93.6738 50.7792 93.2863 43.5925C92.8554 37.9279 92.2721 32.2852 91.5977 26.6509C90.9177 21.0178 90.1599 15.4018 89.2888 9.79912L89.0909 9.82517Z" fill="#AA1732"/>
<path d="M89.1292 44.3024C88.1669 44.5139 87.2152 43.9053 87.0036 42.943C86.7921 41.9807 87.4007 41.029 88.363 40.8174C89.3253 40.6058 90.277 41.2145 90.4886 42.1768C90.7002 43.1391 90.0915 44.0908 89.1292 44.3024Z" fill="#FFDB63"/>
<path d="M95.2972 52.4813C94.3348 52.6929 93.3832 52.0843 93.1716 51.1219C92.96 50.1596 93.5686 49.208 94.531 48.9964C95.4933 48.7848 96.445 49.3934 96.6565 50.3557C96.8681 51.3181 96.2595 52.2697 95.2972 52.4813Z" fill="#FFDB63"/>
<path d="M90.7737 49.7411C89.8114 49.9527 88.8598 49.3441 88.6482 48.3817C88.4366 47.4194 89.0452 46.4677 90.0075 46.2561C90.9699 46.0446 91.9215 46.6532 92.1331 47.6155C92.3447 48.5778 91.7361 49.5295 90.7737 49.7411Z" fill="#FFDB63"/>
<path d="M92.7347 57.2801C91.7723 57.4917 90.8207 56.8831 90.6091 55.9208C90.3975 54.9584 91.0061 54.0068 91.9685 53.7952C92.9308 53.5836 93.8825 54.1922 94.094 55.1546C94.3056 56.1169 93.697 57.0686 92.7347 57.2801Z" fill="#FFDB63"/>
<path d="M96.4925 46.8895C95.5301 47.1011 94.5785 46.4925 94.3669 45.5302C94.1553 44.5678 94.7639 43.6162 95.7263 43.4046C96.6886 43.193 97.6403 43.8016 97.8519 44.7639C98.0634 45.7263 97.4548 46.6779 96.4925 46.8895Z" fill="#FFDB63"/>
<path d="M90.7966 52.4699C90.2419 52.5919 89.6933 52.241 89.5714 51.6863C89.4494 51.1316 89.8002 50.583 90.355 50.4611C90.9097 50.3391 91.4582 50.6899 91.5802 51.2446C91.7022 51.7994 91.3513 52.3479 90.7966 52.4699Z" fill="#FFDB63"/>
<path d="M96.031 42.174C95.4763 42.296 94.9277 41.9451 94.8058 41.3904C94.6838 40.8357 95.0346 40.2871 95.5893 40.1652C96.1441 40.0432 96.6926 40.394 96.8146 40.9487C96.9365 41.5035 96.5857 42.052 96.031 42.174Z" fill="#FFDB63"/>
<path d="M93.6287 39.3107C93.0739 39.4327 92.5254 39.0819 92.4034 38.5271C92.2814 37.9724 92.6323 37.4238 93.187 37.3019C93.7417 37.1799 94.2903 37.5307 94.4122 38.0855C94.5342 38.6402 94.1834 39.1888 93.6287 39.3107Z" fill="#FFDB63"/>
<path d="M96.5193 56.7734C95.9646 56.8953 95.416 56.5445 95.294 55.9898C95.1721 55.4351 95.5229 54.8865 96.0776 54.7645C96.6323 54.6426 97.1809 54.9934 97.3029 55.5481C97.4248 56.1028 97.074 56.6514 96.5193 56.7734Z" fill="#FFDB63"/>
<path d="M97.8201 54.2009C97.2653 54.3228 96.7168 53.972 96.5948 53.4173C96.4729 52.8625 96.8237 52.314 97.3784 52.192C97.9331 52.0701 98.4817 52.4209 98.6036 52.9756C98.7256 53.5303 98.3748 54.0789 97.8201 54.2009Z" fill="#FFDB63"/>
<path d="M95.4841 59.4733C94.9294 59.5953 94.3808 59.2445 94.2589 58.6897C94.1369 58.135 94.4877 57.5864 95.0425 57.4645C95.5972 57.3425 96.1457 57.6933 96.2677 58.2481C96.3897 58.8028 96.0388 59.3514 95.4841 59.4733Z" fill="#FFDB63"/>
<path d="M91.8357 60.4155C91.281 60.5374 90.7324 60.1866 90.6104 59.6319C90.4885 59.0771 90.8393 58.5286 91.394 58.4066C91.9487 58.2847 92.4973 58.6355 92.6193 59.1902C92.7412 59.7449 92.3904 60.2935 91.8357 60.4155Z" fill="#FFDB63"/>
<path d="M97.7107 49.5131C97.156 49.6351 96.6074 49.2842 96.4854 48.7295C96.3635 48.1748 96.7143 47.6262 97.269 47.5043C97.8237 47.3823 98.3723 47.7331 98.4943 48.2879C98.6162 48.8426 98.2654 49.3911 97.7107 49.5131Z" fill="#FFDB63"/>
<path d="M94.8122 35.7231C94.2575 35.845 93.709 35.4942 93.587 34.9395C93.465 34.3848 93.8159 33.8362 94.3706 33.7142C94.9253 33.5923 95.4739 33.9431 95.5958 34.4978C95.7178 35.0525 95.367 35.6011 94.8122 35.7231Z" fill="#FFDB63"/>
<path d="M89.9998 38.9106C89.445 39.0325 88.8965 38.6817 88.7745 38.127C88.6525 37.5723 89.0034 37.0237 89.5581 36.9017C90.1128 36.7798 90.6614 37.1306 90.7833 37.6853C90.9053 38.24 90.5545 38.7886 89.9998 38.9106Z" fill="#FFDB63"/>
<path d="M92.6287 45.2199C92.0739 45.3419 91.5254 44.991 91.4034 44.4363C91.2814 43.8816 91.6323 43.333 92.187 43.2111C92.7417 43.0891 93.2903 43.4399 93.4122 43.9946C93.5342 44.5494 93.1834 45.0979 92.6287 45.2199Z" fill="#FFDB63"/>
<path d="M89.5076 35.4875C88.9528 35.6094 88.4043 35.2586 88.2823 34.7039C88.1604 34.1492 88.5112 33.6006 89.0659 33.4786C89.6206 33.3567 90.1692 33.7075 90.2911 34.2622C90.4131 34.8169 90.0623 35.3655 89.5076 35.4875Z" fill="#FFDB63"/>
</g>
<defs>
<clipPath id="clip0_853_3394">
<rect width="136.971" height="122.011" fill="white" transform="matrix(-0.976673 0.214733 0.214733 0.976673 133.777 0)"/>
</clipPath>
</defs>
</svg>
