<svg width="400" height="169" viewBox="0 0 400 169" fill="none" xmlns="http://www.w3.org/2000/svg">
<path opacity="0.5" d="M403.739 1.49918L398.35 -1.00549C393.138 10.2074 370.316 43.9792 333.052 76.7528C329.293 80.0615 325.487 83.2668 321.635 86.3758C320.331 84.0865 316.873 79.294 310.753 79.3775L302.718 79.4877C302.718 79.4877 304.284 92.4008 318.709 88.7124C301.416 102.381 283.277 114.058 264.587 123.53C263.488 124.083 262.385 124.622 261.283 125.161C260.541 122.993 257.917 116.999 251.415 116.096L243.46 114.983C243.46 114.983 243.022 128.454 258.682 126.438C238.119 136.285 216.898 143.471 195.321 147.918C194.762 145.127 193.017 140.058 187.639 138.153L180.061 135.48C180.061 135.48 177.482 146.346 188.89 149.157C184.104 150.02 179.305 150.765 174.493 151.359C157.072 153.511 140.047 153.664 123.565 151.86C123.873 148.928 123.633 144.034 119.484 140.692L113.223 135.653C113.223 135.653 107.542 144.496 116.173 150.905C106.467 149.475 96.9552 147.374 87.6802 144.555C81.2453 142.599 74.9132 140.299 68.7051 137.68C69.8196 134.934 70.8794 130.317 67.9594 126.033L63.4376 119.391C63.4376 119.391 55.6321 126.021 61.5834 134.512C49.3807 128.782 37.6813 121.776 26.6074 113.526C21.8912 110.01 17.5289 106.443 13.5048 102.919C15.0977 100.557 17.4649 95.7577 15.0435 90.6018L11.6184 83.3307C11.6184 83.3307 3.53037 88.2579 6.94394 96.9198C-11.938 78.8885 -21.3647 63.3374 -21.4876 63.1372L-26.5888 66.1865C-25.9273 67.2908 -10.0301 93.5601 22.8612 118.136C23.6926 118.758 24.5351 119.362 25.3703 119.969C18.4751 119.409 14.0289 125.761 14.0289 125.761C24.6801 132.851 30.4075 128.725 33.027 125.27C49.5285 136.161 67.229 144.537 85.8002 150.202C87.2453 150.643 88.6998 151.059 90.1598 151.466C89.2122 151.687 88.0547 151.957 86.6351 152.28C78.8028 154.082 77.4273 162.974 77.4273 162.974C91.7621 164.859 94.1463 156.662 94.4708 152.62C114.09 157.644 134.634 159.73 155.84 158.862C150.234 161.739 149.155 168.634 149.155 168.634C163.583 170.527 165.903 162.215 166.203 158.202C169.202 157.946 172.207 157.65 175.223 157.275C184.616 156.117 193.96 154.451 203.234 152.29C208.197 151.134 213.14 149.83 218.059 148.387C211.69 153.135 213.881 161.753 213.881 161.753C227.229 158.026 226.842 150.078 225.651 146.046C239.762 141.47 253.672 135.736 267.274 128.845C275.365 124.748 283.343 120.235 291.204 115.346C290.784 116.031 290.31 116.813 289.758 117.719C285.576 124.581 290.966 131.776 290.966 131.776C302.105 123.019 298.302 115.698 295.636 112.536C309.899 103.341 323.73 92.8814 336.984 81.2214C339.528 78.9813 342.002 76.7347 344.416 74.4944C344.207 75.1685 343.97 75.9178 343.704 76.7729C341.312 84.4458 348.285 90.1201 348.285 90.1201C356.649 79.3398 351.889 73.2112 348.529 70.6076C379.695 40.734 398.931 11.8628 403.748 1.50473L403.739 1.49918Z" fill="#34632F"/>
</svg>
