<svg width="400" height="151" viewBox="0 0 400 151" fill="none" xmlns="http://www.w3.org/2000/svg">
<path d="M-32.9522 -19.9443L-27.4795 -22.4882C-22.185 -11.0995 0.994914 23.2018 38.8422 56.4891C42.6606 59.8497 46.5267 63.1052 50.4387 66.263C51.7628 63.9377 55.2749 59.0702 61.4908 59.1549L69.6525 59.2669C69.6525 59.2669 68.0611 72.3824 53.4104 68.6362C70.9748 82.5193 89.3978 94.3792 108.381 103.999C109.498 104.562 110.617 105.109 111.737 105.656C112.49 103.454 115.155 97.3665 121.759 96.4495L129.839 95.3184C129.839 95.3184 130.284 109.001 114.378 106.953C135.264 116.955 156.817 124.253 178.733 128.77C179.3 125.936 181.073 120.787 186.535 118.852L194.232 116.137C194.232 116.137 196.851 127.174 185.264 130.028C190.126 130.905 195 131.661 199.887 132.265C217.581 134.451 234.873 134.606 251.614 132.774C251.301 129.796 251.544 124.826 255.759 121.431L262.118 116.312C262.118 116.312 267.888 125.294 259.121 131.804C268.98 130.351 278.641 128.218 288.061 125.354C294.597 123.367 301.028 121.031 307.334 118.372C306.202 115.583 305.125 110.893 308.091 106.541L312.684 99.7953C312.684 99.7953 320.612 106.53 314.567 115.153C326.961 109.334 338.844 102.218 350.091 93.8386C354.881 90.268 359.312 86.6447 363.399 83.0653C361.781 80.6667 359.377 75.7919 361.836 70.5552L365.315 63.1701C365.315 63.1701 373.53 68.1746 370.063 76.9722C389.241 58.6583 398.815 42.8634 398.94 42.66L404.121 45.7571C403.45 46.8787 387.303 73.5599 353.896 98.5206C353.052 99.1527 352.196 99.7668 351.348 100.382C358.351 99.8141 362.867 106.265 362.867 106.265C352.049 113.466 346.232 109.276 343.571 105.767C326.811 116.828 308.833 125.336 289.971 131.089C288.503 131.538 287.026 131.96 285.543 132.374C286.505 132.598 287.681 132.872 289.122 133.2C297.078 135.03 298.475 144.062 298.475 144.062C283.915 145.977 281.494 137.651 281.164 133.546C261.237 138.649 240.371 140.767 218.833 139.886C224.527 142.808 225.623 149.81 225.623 149.81C210.968 151.733 208.612 143.291 208.307 139.215C205.261 138.955 202.21 138.655 199.145 138.274C189.605 137.097 180.115 135.405 170.696 133.211C165.655 132.037 160.634 130.712 155.639 129.246C162.107 134.068 159.882 142.822 159.882 142.822C146.324 139.037 146.718 130.964 147.927 126.869C133.595 122.221 119.467 116.397 105.652 109.398C97.4342 105.237 89.3304 100.653 81.3468 95.6874C81.7734 96.3832 82.2547 97.177 82.8148 98.0976C87.0628 105.067 81.588 112.375 81.588 112.375C70.2747 103.48 74.137 96.045 76.8449 92.8337C62.3585 83.4943 48.3107 72.8705 34.8491 61.0277C32.2651 58.7526 29.7524 56.4708 27.3002 54.1953C27.5125 54.88 27.7535 55.641 28.0237 56.5096C30.4531 64.3028 23.3706 70.0659 23.3706 70.0659C14.8752 59.1167 19.7104 52.892 23.1229 50.2476C-8.53196 19.9056 -28.0688 -9.41816 -32.9613 -19.9386L-32.9522 -19.9443Z" fill="#34632F"/>
</svg>
