<svg width="81" height="128" viewBox="0 0 81 128" fill="none" xmlns="http://www.w3.org/2000/svg">
<path d="M53.4258 70.6315C53.4258 70.6315 53.5004 77.6814 58.4944 79.2692C58.4944 79.2692 57.4902 74.3498 58.1891 72.8435C58.1891 72.8435 63.8141 74.913 65.9922 77.5729C65.9922 77.5729 67.2814 75.0623 63.0745 70.6044C63.0745 70.6044 66.5282 70.2583 67.8242 72.45C67.8242 72.45 68.3535 66.7503 63.8616 65.3865L57.0695 65.1218L53.4258 70.6247V70.6315Z" fill="#30191D"/>
<path d="M4.54465 101.335C4.54465 101.335 -1.29071 110.936 0.263129 112.49C1.81696 114.044 7.26556 107.951 7.53019 106.784C7.53019 106.784 1.04344 119.499 1.95267 123.13C2.8619 126.76 11.1603 119.757 13.6302 108.989C13.6302 108.989 11.5539 125.206 14.0169 127.153C16.48 129.101 27.2483 99.001 28.0286 90.0511C28.8089 81.1013 21.0262 84.3447 21.0262 84.3447L4.55144 101.342L4.54465 101.335Z" fill="#5489C0"/>
<path d="M10.3688 89.0465C10.3688 89.0465 4.83874 96.1575 5.75476 98.9259C6.67078 101.694 8.12283 102.088 12.0787 99.0548C12.0787 99.0548 7.07111 106.831 7.20681 109.199C7.34252 111.567 10.7623 111.438 15.8988 104.327C15.8988 104.327 12.7368 112.625 14.7114 113.419C16.6859 114.213 21.5645 106.566 22.6162 103.146C22.6162 103.146 22.087 108.419 23.539 108.547C24.9911 108.676 30.9147 103.933 33.1538 88.1237C33.1538 88.1237 36.1868 79.9542 37.8967 77.8507L42.7686 69.0231L33.2827 61.5117L10.362 89.0465H10.3688Z" fill="#81B4E2"/>
<path d="M10.5768 71.5885C10.5768 71.5885 4.95853 85.383 10.0679 88.45C10.0679 88.45 14.4376 89.746 15.9168 82.8114C15.9168 82.8114 15.3265 88.2736 17.2467 88.4161C19.167 88.5585 30.2338 75.1372 32.4458 69.0847C32.4458 69.0847 31.1159 74.8387 31.5637 75.87C32.0115 76.9014 35.696 75.2797 35.696 75.2797L32.3033 82.2143C35.1938 82.3636 38.1658 82.2618 41.0292 81.8343C50.7593 80.389 59.4242 72.3349 62.9661 63.3647C64.5335 59.3953 65.5445 55.1002 66.1756 50.8865C66.9762 45.5533 66.162 40.254 66.6777 34.9886C67.2001 29.6553 72.1398 12.7599 73.178 12.1017C74.3451 11.3621 72.2009 5.07215 71.6581 4.10185C70.1789 1.47594 67.7701 0.641345 64.9338 0.2003C57.9789 -0.878564 51.8789 2.50052 47.6924 7.93555C44.7001 10.4054 40.3507 12.916 37.1752 9.59795C34.2982 7.16202 30.5324 1.03489 29.501 1.03489C28.4696 1.03489 27.4315 1.55057 28.0964 3.39618C28.7614 5.24178 35.4788 11.5114 36.3609 11.9592C36.3609 11.9592 30.4577 7.3113 28.836 7.01275C27.2143 6.71419 31.1227 12.4003 35.3296 13.8727C35.3296 13.8727 30.0167 12.6174 29.7927 13.1331C29.5688 13.6488 32.0048 18.5206 45.1411 16.7497C45.2836 16.7293 42.3252 23.7724 41.7349 24.546C37.0123 30.7206 30.6206 35.4975 25.4976 41.36C19.4587 48.2674 10.6718 57.7397 10 67.4291C9.90502 68.8404 10.0136 70.2722 10.5903 71.5817L10.5768 71.5885Z" fill="#00ADDC"/>
<mask id="mask0_853_3423" style="mask-type:luminance" maskUnits="userSpaceOnUse" x="7" y="0" width="67" height="89">
<path d="M10.5768 71.5885C10.5768 71.5885 4.95853 85.383 10.0679 88.45C10.0679 88.45 14.4376 89.746 15.9168 82.8114C15.9168 82.8114 15.3265 88.2736 17.2467 88.4161C19.167 88.5585 30.2338 75.1372 32.4458 69.0847C32.4458 69.0847 31.1159 74.8387 31.5637 75.87C32.0115 76.9014 35.696 75.2797 35.696 75.2797L32.3033 82.2143C35.1938 82.3636 38.1658 82.2618 41.0292 81.8343C50.7593 80.389 59.4242 72.3349 62.9661 63.3647C64.5335 59.3953 65.5445 55.1002 66.1756 50.8865C66.9762 45.5533 66.162 40.254 66.6777 34.9886C67.2001 29.6553 72.1398 12.7599 73.178 12.1017C74.3451 11.3621 72.2009 5.07215 71.6581 4.10185C70.1789 1.47594 67.7701 0.641345 64.9338 0.2003C57.9789 -0.878564 51.8789 2.50052 47.6924 7.93555C44.7001 10.4054 40.3507 12.916 37.1752 9.59795C34.2982 7.16202 30.5324 1.03489 29.501 1.03489C28.4696 1.03489 27.4315 1.55057 28.0964 3.39618C28.7614 5.24178 35.4788 11.5114 36.3609 11.9592C36.3609 11.9592 30.4577 7.3113 28.836 7.01275C27.2143 6.71419 31.1227 12.4003 35.3296 13.8727C35.3296 13.8727 30.0167 12.6174 29.7927 13.1331C29.5688 13.6488 32.0048 18.5206 45.1411 16.7497C45.2836 16.7293 42.3252 23.7724 41.7349 24.546C37.0123 30.7206 30.6206 35.4975 25.4976 41.36C19.4587 48.2674 10.6718 57.7397 10 67.4291C9.90502 68.8404 10.0136 70.2722 10.5903 71.5817L10.5768 71.5885Z" fill="white"/>
</mask>
<g mask="url(#mask0_853_3423)">
<path d="M40.0779 72.9386C53.9116 56.4815 59.7239 38.5995 53.0602 32.9981C46.3965 27.3966 29.7801 36.1969 15.9464 52.654C2.11281 69.111 -3.69954 86.993 2.96419 92.5945C9.62792 98.1959 26.2443 89.3957 40.0779 72.9386Z" fill="#29D7FF"/>
</g>
<path d="M69.2616 19.0359C69.2616 19.0359 68.332 11.9995 72.9867 9.51611C72.9867 9.51611 80.5388 10.3439 80.6406 16.3421C80.7424 22.3403 79.711 23.996 78.7814 24.5184C78.7814 24.5184 77.024 18.9341 71.8468 19.5516C71.8468 19.5516 71.1208 22.1368 75.7755 22.8628C75.7755 22.8628 75.6737 26.2758 72.5661 27.0018C72.5661 27.0018 67.0835 27.8297 67.3957 20.7933L67.4974 19.348L69.2548 19.0359H69.2616Z" fill="#30191D"/>
<path d="M59.4244 13.6622C61.5529 13.6622 63.2784 11.9367 63.2784 9.80816C63.2784 7.67962 61.5529 5.9541 59.4244 5.9541C57.2958 5.9541 55.5703 7.67962 55.5703 9.80816C55.5703 11.9367 57.2958 13.6622 59.4244 13.6622Z" fill="#F4FFFB"/>
<path d="M62.5958 12.3998C62.1615 9.83498 61.3473 8.34222 60.2549 8.0708C58.3685 7.6094 55.9733 10.7035 55.953 10.7374L55.4102 10.3303C55.5187 10.1878 58.0836 6.84945 60.4177 7.41941C61.8155 7.75868 62.7722 9.40072 63.2675 12.2913L62.5958 12.4066V12.3998Z" fill="black"/>
<path d="M54.7665 24.6338C57.9555 24.6338 60.5408 22.2156 60.5408 19.2326C60.5408 16.2497 57.9555 13.8315 54.7665 13.8315C51.5774 13.8315 48.9922 16.2497 48.9922 19.2326C48.9922 22.2156 51.5774 24.6338 54.7665 24.6338Z" fill="#E880AE"/>
</svg>
