<svg width="68" height="43" viewBox="0 0 68 43" fill="none" xmlns="http://www.w3.org/2000/svg">
<g clip-path="url(#clip0_1006_12548)">
<path d="M26.4244 19.115C25.6407 23.2244 24.7936 29.0723 25.5043 32.3947C25.5043 32.3947 20.3804 33.9416 19.7078 34.6713C19.7078 34.6713 16.6684 25.9314 10.507 27.4009C6.76963 28.6956 4.50751 34.3855 4.0094 35.7541C3.94277 35.9424 3.90787 36.05 3.90787 36.05L2.4421 36.1576C2.4421 36.1576 -2.83407 23.0461 2.75619 16.2768C8.34328 9.50418 15.7959 8.09517 27.4206 14.4878C27.4206 14.4878 26.9383 16.4282 26.4244 19.115Z" fill="#4780BD"/>
<path d="M25.504 32.3987C25.504 32.3987 20.3802 33.9455 19.7076 34.6753C19.7076 34.6753 16.6681 25.9354 10.5068 27.4049C6.76938 28.6996 4.50726 34.3894 4.00915 35.7581C3.35875 31.595 3.39047 26.5138 6.23319 23.0703C11.0715 17.2123 17.3027 15.3661 26.4241 19.119C25.6405 23.2283 24.7934 29.0762 25.504 32.3987Z" fill="#1153A2"/>
<path d="M64.4701 36.3009L63.4802 36.2605L62.9218 36.237C62.9218 36.237 60.9294 28.701 56.6748 27.8536C54.3492 27.5005 49.6759 27.7863 47.1187 34.7103C47.1187 34.7103 44.0761 33.3753 43.5463 33.3753C43.5463 33.3753 42.1661 23.4248 41.6744 17.3112C41.5443 15.6702 41.4745 14.3082 41.5157 13.4844C41.5157 13.4844 53.3276 6.46958 61.9541 14.4596C67.4841 21.2961 67.9029 26.1789 64.4701 36.3009Z" fill="#DB282D"/>
<path d="M63.4816 36.2605L62.9232 36.237C62.9232 36.237 60.9308 28.701 56.6762 27.8536C54.3506 27.5005 49.6773 27.7863 47.1201 34.7103C47.1201 34.7103 44.0775 33.3753 43.5477 33.3753C43.5477 33.3753 42.1675 23.4248 41.6758 17.3112C45.6543 15.7408 53.3576 13.8778 59.4682 19.534C63.9734 25.1095 65.0838 29.3836 63.4816 36.2605Z" fill="#A61E22"/>
<path d="M51.9344 20.5939L50.5258 20.6376C50.5258 20.6376 48.4508 10.8283 43.2191 9.31844C43.2191 9.31844 43.2191 9.40588 43.2191 9.57065C43.2635 11.9414 43.6442 30.3157 45.275 34.2434C45.0465 34.1493 35.2937 30.0332 24.7541 32.8042C24.7541 32.8042 24.0974 22.4266 26.4959 13.4681C27.7618 8.74004 29.878 4.40877 33.3901 2.20614C43.5617 -4.16971 54.8818 3.67232 51.9281 20.5939H51.9344Z" fill="#B0AD34"/>
<path d="M45.2789 34.2433C45.0505 34.1491 35.2976 30.0331 24.758 32.804C24.758 32.804 24.1013 22.4264 26.4998 13.468C28.1274 12.106 29.9929 10.5323 30.5481 10.0211C31.5888 9.05599 36.0147 5.60576 41.6144 8.22874C42.2204 8.51121 42.7534 8.97192 43.2198 9.57049C43.2642 11.9413 43.645 30.3155 45.2757 34.2433H45.2789Z" fill="#4F6153"/>
<path d="M18.6211 32.1724L18.6909 42.4087C18.6909 42.7887 18.9225 43.0678 19.1668 42.9905C21.4289 42.254 23.7577 41.8236 26.0642 41.5747C30.3156 41.1208 34.5575 42.2406 38.8025 42.5903C40.7283 42.7483 42.6605 42.8156 44.5863 42.7114C45.6301 42.6542 47.1244 42.7921 48.127 42.0623C48.2539 41.9682 48.33 41.763 48.3269 41.5478C48.3205 39.9034 48.2761 32.9862 47.9937 32.058C47.9144 31.7991 44.1294 32.2194 43.663 32.2127C42.0735 32.1925 40.484 32.0883 38.8945 31.9101C36.0264 31.5906 33.152 30.6625 30.287 30.6759C26.5084 30.6927 22.7297 31.0828 18.9701 31.5906C18.7702 31.6175 18.6211 31.8731 18.6211 32.1791V32.1724Z" fill="#FFB801"/>
<path d="M3.73424 40.875C5.79661 40.875 7.46848 39.1029 7.46848 36.917C7.46848 34.731 5.79661 32.959 3.73424 32.959C1.67188 32.959 0 34.731 0 36.917C0 39.1029 1.67188 40.875 3.73424 40.875Z" fill="#FFB801"/>
<path d="M51.8163 25.3516C53.8786 25.3516 55.5505 23.5795 55.5505 21.3936C55.5505 19.2076 53.8786 17.4355 51.8163 17.4355C49.7539 17.4355 48.082 19.2076 48.082 21.3936C48.082 23.5795 49.7539 25.3516 51.8163 25.3516Z" fill="#FFB801"/>
<path d="M64.2694 41.2617C66.3318 41.2617 68.0036 39.4897 68.0036 37.3037C68.0036 35.1178 66.3318 33.3457 64.2694 33.3457C62.207 33.3457 60.5352 35.1178 60.5352 37.3037C60.5352 39.4897 62.207 41.2617 64.2694 41.2617Z" fill="#FFB801"/>
</g>
<defs>
<clipPath id="clip0_1006_12548">
<rect width="68" height="43" fill="white"/>
</clipPath>
</defs>
</svg>
