<svg width="60" height="54" viewBox="0 0 60 54" fill="none" xmlns="http://www.w3.org/2000/svg">
<g clip-path="url(#clip0_1005_12516)">
<path d="M16.6624 40.0149C16.6624 40.0149 1.74262 44.9529 0 48.1612C0 48.1612 14.1772 58.9 48.6245 51.248C48.6245 51.248 47.8608 48.2533 45.8903 47.3696C45.8903 47.3696 51.2278 48.0648 52.5612 49.8909C52.5612 49.8909 59.4895 47.8722 59.9958 46.7371C59.9958 46.7371 54.0211 39.4201 40.9325 37.5898L16.6624 40.0149Z" fill="#B0AD34"/>
<path d="M18.4414 37.8247C18.4414 37.8247 18.7283 17.1009 22.5722 13.1513L21.6777 0C21.6777 0 39.6819 18.6213 39.5933 35.2992C39.5933 35.2992 33.741 42.1596 18.4414 37.8247Z" fill="#B0AD34"/>
<path d="M18.1298 36.1336C17.7796 37.1597 17.7585 38.4246 17.6952 39.5052C17.6825 39.7146 17.6741 39.9366 17.7669 40.1292C17.9315 40.4643 18.3407 40.5858 18.7036 40.6737C22.5306 41.5742 26.4715 42.1689 30.3914 41.8632C34.3112 41.5574 38.231 40.2968 41.2648 37.8131C41.5433 37.5827 41.8344 37.3147 41.8893 36.9587C41.9315 36.6906 41.8302 36.4226 41.7078 36.1796C41.3112 35.3964 40.6614 34.7347 39.8808 34.3242C38.4673 35.7776 36.5686 36.6948 34.5939 37.1848C32.6234 37.6749 30.5686 37.7586 28.5391 37.7293C25.6319 37.6874 22.7332 37.4194 19.8682 36.9252C19.2184 36.8121 18.5813 36.6445 18.1298 36.1378V36.1336Z" fill="#515C04"/>
</g>
<defs>
<clipPath id="clip0_1005_12516">
<rect width="60" height="54" fill="white"/>
</clipPath>
</defs>
</svg>
