<svg width="63" height="47" viewBox="0 0 63 47" fill="none" xmlns="http://www.w3.org/2000/svg">
<g clip-path="url(#clip0_996_12422)">
<path d="M0.460938 28.3482C0.460938 28.3482 11.2149 4.45468 34.2443 0C34.2443 0 53.7132 4.44253 62.0121 33.6165L0.460938 28.3482Z" fill="#7E97A8"/>
<path d="M0.411048 46.5488C0.411048 46.5488 -0.546796 29.1625 0.461843 28.3512C4.33676 25.2397 9.15016 22.8691 13.5403 20.5689C18.1408 18.1569 22.7269 15.4195 27.8257 14.2026C32.3416 13.1266 36.8381 14.618 41.0227 16.2502C44.9 17.761 48.8813 19.1455 52.4466 21.3389C61.0914 26.6558 64.4947 36.0218 62.4024 45.7351C61.984 47.6807 49.1232 36.8598 31.0185 37.2217C17.4079 37.4937 0.737586 49.4514 0.411048 46.5513V46.5488Z" fill="#A0B2BC"/>
<path d="M31.0925 19.4145C32.3068 23.0045 32.2608 26.7718 31.869 30.4832C31.6996 31.7123 31.4989 32.9437 31.0925 34.1728H30.3669C29.9605 32.9437 29.7598 31.7123 29.5905 30.4832C29.1986 26.7718 29.1527 23.0045 30.3669 19.4121H31.0925V19.4145Z" fill="#7E97A8"/>
<path d="M19.3347 24.7969C20.8223 28.331 20.6433 32.3509 19.3347 35.9093H18.6091C17.2981 32.3509 17.1215 28.331 18.6091 24.7969H19.3347Z" fill="#7E97A8"/>
<path d="M10.1727 28.793C11.6554 31.9044 11.4837 35.5503 10.1727 38.6909H9.44707C8.13608 35.5527 7.96434 31.9044 9.44707 28.793H10.1727Z" fill="#7E97A8"/>
<path d="M41.4675 24.4492C42.9551 27.9833 42.7761 32.0032 41.4675 35.5616H40.7419C39.4309 32.0032 39.2543 27.9809 40.7419 24.4492H41.4675Z" fill="#7E97A8"/>
<path d="M50.6336 28.4453C52.1164 31.5568 51.9446 35.2051 50.6336 38.3432H49.908C48.597 35.2051 48.4253 31.5568 49.908 28.4453H50.6336Z" fill="#7E97A8"/>
</g>
<defs>
<clipPath id="clip0_996_12422">
<rect width="63" height="47" fill="white"/>
</clipPath>
</defs>
</svg>
