<svg width="51" height="38" viewBox="0 0 51 38" fill="none" xmlns="http://www.w3.org/2000/svg">
<g clip-path="url(#clip0_1003_12502)">
<path d="M41.9096 14.0621C41.7444 14.2753 41.7444 15.4763 41.6866 15.7831C41.4585 17.019 41.0976 18.2396 40.5358 19.2926C39.0292 22.119 35.9838 22.7151 33.5801 21.6817C32.5774 21.2508 31.7212 20.424 31.1287 19.2992C30.7934 18.666 30.5465 17.9632 30.3508 17.2431C30.2435 16.8471 29.6069 14.7083 29.8162 14.4102L32.0889 11.1552L25.5502 0.165359V0L25.5008 0.0826797L25.4515 0V0.165359L18.9128 11.1574L21.1855 14.4124C21.4323 14.7648 20.6901 17.1995 20.5454 17.6608C20.3173 18.3919 20.0126 19.0794 19.5751 19.6408C18.5094 21.0072 16.8156 21.7883 15.3397 21.81C12.9479 21.847 10.837 21.0507 9.79178 18.1264C9.47855 17.2496 9.28449 16.3031 9.17724 15.3523C9.15511 15.1543 9.19767 14.2013 9.09213 14.0664L0 2.33026L3.81832 31.3813V37.7737C3.81832 37.7737 25.4498 38.0044 25.4498 38.0065H25.4991H25.5485L47.18 37.7759V31.3835L50.9983 2.33244C50.9983 2.33244 41.913 14.0621 41.9062 14.0686L41.9096 14.0621Z" fill="#FFB801"/>
</g>
<defs>
<clipPath id="clip0_1003_12502">
<rect width="51" height="38" fill="white"/>
</clipPath>
</defs>
</svg>
