<svg width="58" height="35" viewBox="0 0 58 35" fill="none" xmlns="http://www.w3.org/2000/svg">
<g clip-path="url(#clip0_1004_12508)">
<path d="M56.2401 12.2762C54.696 11.5728 52.8434 12.3929 52.1009 14.1081C51.6394 15.1761 51.717 16.3383 52.2135 17.2336C50.3325 18.4216 48.4515 19.6085 46.5705 20.7965C45.501 18.0873 44.4315 15.3792 43.363 12.67C44.484 12.3087 45.3862 11.2609 45.5951 9.90689C45.8816 8.05362 44.7606 6.33274 43.0929 6.06125C41.4241 5.78977 39.8405 7.07202 39.554 8.92529C39.3955 9.95288 39.6699 10.9401 40.2299 11.6626C38.5249 13.8546 36.82 16.0467 35.1151 18.2376C35.2256 18.0873 34.4808 16.5526 34.3944 16.3226C34.1221 15.5991 33.8498 14.8755 33.5775 14.1519C33.0329 12.7047 32.4894 11.2576 31.9448 9.81153C31.4625 8.52928 30.9802 7.24815 30.4979 5.9659C31.1465 5.34328 31.5565 4.42338 31.5565 3.3969C31.5565 1.5212 30.1874 0 28.4978 0C26.8081 0 25.439 1.5212 25.439 3.3969C25.439 4.54005 25.9475 5.5497 26.7272 6.16558C26.3018 7.30424 25.8764 8.44402 25.4499 9.58156C24.3541 12.5039 23.254 15.4252 22.1483 18.3442C20.6075 16.3619 19.0666 14.3807 17.5246 12.3985C17.9555 11.7097 18.1512 10.8369 18.0113 9.93269C17.7247 8.07943 16.1401 6.7983 14.4724 7.06866C12.8035 7.34014 11.6837 9.06215 11.9702 10.9143C12.143 12.0339 12.7904 12.9448 13.6434 13.4306C12.6603 15.921 11.6771 18.4115 10.694 20.902C9.09188 19.8901 7.48867 18.8793 5.88655 17.8674C6.28571 17.0047 6.32071 15.9379 5.8942 14.9518C5.15274 13.2376 3.2991 12.4175 1.75494 13.1198C0.210781 13.8232 -0.438816 15.783 0.302643 17.4972C0.780545 18.6011 1.71885 19.3336 2.73808 19.5277C4.76014 24.5053 6.27478 29.6994 7.24917 34.9978C21.2691 31.7916 35.9681 31.7478 50.0066 34.8699C51.0455 29.3807 52.6302 24.0004 54.7266 18.8389C54.7408 18.8041 54.755 18.7682 54.7692 18.7323C55.9678 18.7065 57.1358 17.9269 57.688 16.6502C58.4295 14.9361 57.7799 12.9762 56.2357 12.2728L56.2401 12.2762Z" fill="#FFB801"/>
</g>
<defs>
<clipPath id="clip0_1004_12508">
<rect width="58" height="35" fill="white"/>
</clipPath>
</defs>
</svg>
