<svg width="49" height="47" viewBox="0 0 49 47" fill="none" xmlns="http://www.w3.org/2000/svg">
<g clip-path="url(#clip0_999_12496)">
<path d="M45.9015 9.29444C43.8179 8.89094 41.8024 10.2285 41.3933 12.2833C41.2417 13.0529 41.3326 13.8151 41.6206 14.4876C38.8095 16.251 32.801 20.555 30.5279 26.4057C30.5279 26.4057 27.5654 12.0367 25.959 7.22464C27.0425 6.73148 27.8836 5.7601 28.126 4.51972C28.5352 2.46487 27.1789 0.477267 25.0953 0.0737694C23.0116 -0.329728 20.9962 1.00779 20.587 3.06264C20.2536 4.73641 21.1022 6.3504 22.5494 7.11256C21.6932 11.7453 19.4126 24.0894 19.0868 26.6374C19.0868 26.6374 13.1692 19.0008 7.66076 17.3196C7.70623 15.5038 6.4333 13.8674 4.56938 13.5087C2.48572 13.1052 0.470258 14.4428 0.0611043 16.4976C-0.34805 18.5525 1.00822 20.5401 3.09188 20.9436C3.72076 21.0631 4.33449 21.0108 4.91034 20.8464C7.05461 23.9025 12.1236 32.5479 11.4492 45.3103C11.4492 45.3103 27.1411 40.5879 38.2564 47.0065C38.2564 47.0065 37.0517 25.27 43.5754 16.4603C43.8406 16.5798 44.1209 16.6769 44.4164 16.7367C46.5001 17.1402 48.5156 15.8027 48.9247 13.7479C49.3339 11.693 47.9776 9.70541 45.8939 9.30191L45.9015 9.29444Z" fill="#FFB801"/>
</g>
<defs>
<clipPath id="clip0_999_12496">
<rect width="49" height="47" fill="white"/>
</clipPath>
</defs>
</svg>
