<svg width="90" height="51" viewBox="0 0 90 51" fill="none" xmlns="http://www.w3.org/2000/svg">
<g clip-path="url(#clip0_776_1233)">
<path d="M87.8711 37.1599C86.4456 35.8826 84.6243 35.3238 83.0603 35.1941C82.6445 35.1741 82.2584 35.1642 81.8922 35.1941C81.7239 35.2141 81.5556 35.0943 81.516 34.9247C81.4665 34.6253 81.3972 34.296 81.3181 33.9967C81.2092 33.4977 81.1102 33.0787 81.0805 32.9689C80.5361 30.9832 79.467 29.4365 77.9129 28.3888C75.3194 12.3134 61.4511 0 44.7914 0C28.1317 0 13.6498 12.8523 11.5017 29.4365C10.2743 30.4543 9.40319 31.8513 8.92805 33.5676C8.88845 33.7472 8.65088 34.7151 8.4925 35.5234C8.4727 35.6331 8.38361 35.7229 8.27472 35.7629C8.21533 35.7828 8.14604 35.7928 8.07675 35.7828C7.6214 35.7629 7.13636 35.7728 6.62162 35.8227C5.1368 36.0023 3.4639 36.5711 2.13746 37.7586C0.820919 38.966 0.0983054 40.5924 -0.000682709 42.5782C-0.0501768 43.8355 0.157698 45.0528 0.632841 46.1804C1.90979 49.2139 4.75075 50.7406 9.324 50.8304L11.7393 50.8803C14.8376 50.9401 17.9954 51 21.1729 51C22.6973 51 24.2316 50.99 25.756 50.9501C27.617 50.9002 30.2501 50.561 31.6359 48.1362C32.8238 46.0207 32.9525 43.7257 31.9923 41.8497C31.0717 40.0436 29.2602 38.8762 27.0429 38.6367C27.0924 37.0301 26.9637 35.5733 26.6766 34.2861C26.4588 33.2782 26.1223 32.3702 25.6867 31.5719C25.2611 30.7936 24.7463 30.115 24.1128 29.5463C24.0633 29.4964 24.0237 29.4565 23.9742 29.4166C23.6476 29.1272 23.2813 28.8578 22.8953 28.6183C22.7864 28.5484 22.6775 28.4886 22.5686 28.4387C22.5092 28.3987 22.4498 28.3788 22.3904 28.3489C24.8354 18.1808 33.9423 10.6071 44.7815 10.6071C55.6207 10.6071 64.1733 17.7318 66.9252 27.4408C66.9846 27.6304 67.0341 27.83 67.0836 28.0295C66.8658 28.1593 66.6678 28.299 66.4698 28.4586C66.1135 28.7181 65.7769 29.0174 65.48 29.3467C65.2523 29.5862 65.0444 29.8356 64.8563 30.1051C64.6287 30.4144 64.4307 30.7437 64.2525 31.0929C64.1634 31.2326 64.0941 31.3823 64.0248 31.532C63.5794 32.5099 63.2626 33.6175 63.1042 34.8648C62.9558 35.8527 62.9162 36.9104 62.9558 38.0479C60.7285 38.2774 58.9269 39.4449 58.0064 41.2411C57.0363 43.137 57.1749 45.422 58.3726 47.5275C59.7387 49.9622 62.3816 50.3115 64.2426 50.3514C65.7571 50.3913 67.2914 50.4113 68.8258 50.4113C71.9934 50.4113 75.161 50.3414 78.2593 50.2816L80.6647 50.2217C85.2479 50.1419 88.0888 48.6151 89.3658 45.5817C89.831 44.4441 90.0389 43.2367 89.9894 41.9795C89.9003 39.9838 89.1777 38.3672 87.8612 37.1599H87.8711ZM23.509 31.3025C23.608 31.4222 23.707 31.5519 23.806 31.6817C24.3405 32.4201 24.7364 33.3181 24.9938 34.3659C25.2017 35.1242 25.3205 35.9624 25.37 36.8805C25.4096 37.4592 25.4195 38.0878 25.3898 38.7365C25.3898 39.8041 26.3302 40.2731 26.8845 40.2931C28.5475 40.4727 29.864 41.3109 30.5273 42.6081C31.2301 43.9752 31.1113 45.6915 30.2105 47.308C29.4582 48.6151 28.0723 49.2338 25.7263 49.2937C21.0838 49.4034 16.3522 49.3037 11.7789 49.2139L9.37349 49.164C5.51296 49.0941 3.15704 47.8967 2.16716 45.5218C1.791 44.6238 1.62272 43.6658 1.66232 42.658C1.73161 41.1213 2.26615 39.894 3.24613 38.9959C4.53297 37.8384 6.33456 37.4293 7.59171 37.4293C7.70059 37.4293 7.81938 37.4393 7.91837 37.4393C8.93795 37.5789 9.91793 36.8805 10.1159 35.8527C10.2644 35.0943 10.4921 34.1464 10.5218 34.0166C10.6999 33.368 10.9474 32.7793 11.2543 32.2504C11.7591 31.3923 12.4322 30.7138 13.2835 30.2049C13.333 30.1649 13.3726 30.145 13.4221 30.115C13.9863 29.7858 14.6397 29.5363 15.3623 29.3567C15.3722 29.3567 15.3821 29.3567 15.392 29.3467C15.7186 29.2769 16.0354 29.217 16.3522 29.1671C16.956 29.0673 17.5499 29.0274 18.1438 29.0374C18.8566 29.0374 19.5396 29.1272 20.1731 29.2868L22.0044 30.0252L22.0539 30.0452C22.0539 30.0452 22.0737 30.0552 22.0737 30.0652C22.6181 30.3944 23.0932 30.8036 23.4991 31.3025H23.509ZM44.7914 8.61143C33.1009 8.61143 23.2615 16.7239 20.5295 27.6703C19.9652 27.5306 19.3713 27.4408 18.7576 27.4009C18.1735 27.361 17.5697 27.371 16.956 27.4308C16.5402 27.4608 16.1344 27.5107 15.7186 27.5905C15.4712 27.6304 15.2336 27.6803 14.9861 27.7402C14.5407 27.8499 14.115 27.9797 13.7092 28.1393C16.372 13.2913 29.2998 1.9957 44.7914 1.9957C60.2831 1.9957 72.7259 12.8822 75.7054 27.3311C75.4976 27.2612 75.2798 27.2013 75.062 27.1514C75.062 27.1415 75.0422 27.1415 75.0323 27.1415C74.9828 27.1315 74.9333 27.1115 74.8838 27.1015C74.28 26.9618 73.6564 26.872 73.0526 26.8221H72.9338C72.8051 26.8122 72.6665 26.8022 72.5378 26.8022C71.934 26.7623 71.3401 26.7822 70.756 26.8521C70.1126 26.9219 69.4989 27.0517 68.9148 27.2313C66.0442 16.5144 56.3137 8.61143 44.7914 8.61143ZM87.8513 44.9331C86.8515 47.308 84.5055 48.4854 80.6449 48.5653L78.2296 48.6151C73.6564 48.7149 68.9247 48.8147 64.2921 48.685C61.9362 48.6251 60.5504 48.0164 59.8079 46.7093C58.8972 45.1027 58.7785 43.3864 59.4813 42.0094C60.1445 40.7122 61.4808 39.874 63.1537 39.7044H63.1735C63.8665 39.6146 64.6188 39.0857 64.6188 38.1178C64.6089 37.6288 64.6089 37.1599 64.6188 36.7208C64.6386 36.0822 64.6881 35.4635 64.7771 34.8947C64.8068 34.7051 64.8464 34.5156 64.8761 34.3359C64.9652 33.9069 65.0741 33.5177 65.2028 33.1385C65.4107 32.4899 65.6779 31.9112 66.0046 31.3923C66.262 30.9632 66.5688 30.584 66.9153 30.2647C67.0836 30.0951 67.2716 29.9354 67.4696 29.7858C67.628 29.666 67.7963 29.5463 67.9646 29.4465C68.3704 29.197 68.8258 28.9975 69.3108 28.8378C69.9542 28.6283 70.6669 28.5085 71.4093 28.4586C71.6073 28.4486 71.8053 28.4387 72.0132 28.4387C72.3992 28.4387 72.7853 28.4586 73.1911 28.5085C73.2505 28.5085 73.3 28.5185 73.3594 28.5185C73.4188 28.5185 73.4782 28.5384 73.5376 28.5584C73.9038 28.6083 74.28 28.6682 74.6463 28.768C74.8838 28.8178 75.1115 28.8877 75.3293 28.9675C75.3689 28.9775 75.4085 28.9975 75.4481 29.0174C75.6559 29.0873 75.8539 29.1671 76.042 29.2569C76.923 29.6461 77.6555 30.1949 78.2197 30.9033C78.8038 31.5919 79.2195 32.4301 79.4868 33.4079C79.5165 33.5476 79.7541 34.4956 79.9025 35.244C80.1104 36.2718 81.0607 36.9802 82.0506 36.8605C83.3572 36.7807 85.3667 37.1299 86.7624 38.3972C87.7424 39.2952 88.2868 40.5226 88.3462 42.0493C88.3957 43.0571 88.2274 44.035 87.8513 44.9331Z" fill="black"/>
<path d="M59.2063 33.7473C59.4142 33.1086 59.6815 32.5299 60.0081 32.011C60.2655 31.5819 60.5724 31.2028 60.9188 30.8834C60.8099 30.2648 60.6714 29.6661 60.4833 29.0773C58.4639 22.272 52.1881 17.3027 44.7937 17.3027C37.3993 17.3027 30.9254 22.4217 28.9952 29.3867C28.8368 29.9355 28.718 30.5043 28.6289 31.073C28.6388 31.073 28.6586 31.083 28.6685 31.093C28.6784 31.093 28.6982 31.103 28.6982 31.1129C29.2426 31.4422 29.7178 31.8514 30.1236 32.3503C30.2226 32.47 30.3216 32.5997 30.4206 32.7295C30.4701 32.001 30.579 31.2826 30.7374 30.5941C32.1925 24.128 37.9437 19.2984 44.7937 19.2984C51.6436 19.2984 57.4641 24.1979 58.8698 30.7238C59.0876 31.6917 59.1964 32.7095 59.2063 33.7473Z" fill="black"/>
</g>
<defs>
<clipPath id="clip0_776_1233">
<rect width="90" height="51" fill="white"/>
</clipPath>
</defs>
</svg>
