<svg width="146" height="58" viewBox="0 0 146 58" fill="none" xmlns="http://www.w3.org/2000/svg">
<rect y="19" width="146" height="39" rx="16" fill="white"/>
<path d="M20.8896 41.9609C20.8896 42.0475 20.8532 42.1204 20.7803 42.1797C20.5524 42.362 20.2471 42.5238 19.8643 42.665C19.486 42.8018 19.0964 42.9089 18.6953 42.9863C18.2943 43.0638 17.9479 43.1025 17.6562 43.1025C16.7129 43.1025 15.8607 42.9225 15.0996 42.5625C14.3385 42.1979 13.7347 41.6693 13.2881 40.9766C12.8415 40.2839 12.6182 39.443 12.6182 38.4541C12.6182 37.4287 12.8164 36.5309 13.2129 35.7607C13.6139 34.9906 14.1882 34.3913 14.9355 33.9629C15.6829 33.5345 16.5762 33.3203 17.6152 33.3203C18.0299 33.3203 18.488 33.3636 18.9893 33.4502C19.4951 33.5368 19.9326 33.6758 20.3018 33.8672C20.4111 33.9219 20.4658 33.9948 20.4658 34.0859C20.4658 34.1133 20.4408 34.2135 20.3906 34.3867C20.3405 34.5599 20.2881 34.7354 20.2334 34.9131C20.1787 35.0863 20.1423 35.1956 20.124 35.2412C20.1058 35.3005 20.0807 35.3529 20.0488 35.3984C20.0169 35.444 19.9645 35.4668 19.8916 35.4668C19.8597 35.4668 19.8301 35.4622 19.8027 35.4531C19.7754 35.444 19.748 35.4349 19.7207 35.4258C19.3971 35.2936 19.0713 35.1956 18.7432 35.1318C18.415 35.0635 18.0755 35.0293 17.7246 35.0293C16.7129 35.0293 15.904 35.321 15.2979 35.9043C14.6963 36.4831 14.3955 37.2829 14.3955 38.3037C14.3955 39.2607 14.6781 40.015 15.2432 40.5664C15.8128 41.1178 16.5716 41.3936 17.5195 41.3936C17.8158 41.3936 18.1257 41.3639 18.4492 41.3047C18.7728 41.2454 19.069 41.152 19.3379 41.0244C19.3698 41.0107 19.3857 40.9857 19.3857 40.9492C19.3857 40.694 19.3835 40.4365 19.3789 40.1768C19.3743 39.917 19.3721 39.6595 19.3721 39.4043C19.3721 39.3496 19.3424 39.3223 19.2832 39.3223H17.6836C17.4967 39.3223 17.4033 39.2288 17.4033 39.042V38.3721C17.4033 38.1852 17.4967 38.0918 17.6836 38.0918H20.5615C20.7484 38.0918 20.8418 38.1852 20.8418 38.3721C20.8418 38.9691 20.8486 39.5684 20.8623 40.1699C20.8805 40.7669 20.8896 41.3639 20.8896 41.9609ZM24.6357 43.1299C24.0433 43.1299 23.5465 42.9886 23.1455 42.7061C22.7445 42.4235 22.4414 42.0498 22.2363 41.585C22.0358 41.1156 21.9355 40.6074 21.9355 40.0605V39.9512C21.9447 39.377 22.0632 38.8369 22.291 38.3311C22.5234 37.8252 22.8584 37.4173 23.2959 37.1074C23.7334 36.793 24.262 36.6357 24.8818 36.6357C25.2646 36.6357 25.6201 36.7087 25.9482 36.8545C26.2809 36.9958 26.5908 37.1895 26.8779 37.4355C26.9098 37.4674 26.9372 37.4834 26.96 37.4834C27.0146 37.4834 27.0397 37.4264 27.0352 37.3125C27.0352 37.1986 27.0511 37.0846 27.083 36.9707C27.1195 36.8568 27.2106 36.7998 27.3564 36.7998H28.3203C28.5072 36.7998 28.6006 36.8932 28.6006 37.0801C28.6006 37.276 28.5983 37.472 28.5938 37.668C28.5938 37.8639 28.5938 38.0599 28.5938 38.2559C28.5938 38.7572 28.596 39.2607 28.6006 39.7666C28.6097 40.2725 28.6165 40.776 28.6211 41.2773C28.6257 41.5143 28.6302 41.7536 28.6348 41.9951C28.6439 42.2321 28.6484 42.4714 28.6484 42.7129C28.6484 42.9043 28.555 43 28.3682 43H27.2949C27.1719 43 27.0921 42.9613 27.0557 42.8838C27.0192 42.8018 27.0033 42.7061 27.0078 42.5967C27.0124 42.4873 27.0124 42.3893 27.0078 42.3027C27.0078 42.2891 27.0055 42.2663 27.001 42.2344C26.9964 42.2025 26.9827 42.1865 26.96 42.1865C26.9417 42.1865 26.9235 42.1934 26.9053 42.207C26.8916 42.2207 26.8779 42.2321 26.8643 42.2412C26.5452 42.5101 26.2012 42.7266 25.832 42.8906C25.4629 43.0501 25.0641 43.1299 24.6357 43.1299ZM25.333 41.6738C25.6566 41.6738 25.9551 41.6077 26.2285 41.4756C26.5065 41.3389 26.723 41.1247 26.8779 40.833C26.887 40.8148 26.9076 40.7692 26.9395 40.6963C26.9759 40.6188 26.9941 40.571 26.9941 40.5527C26.9941 40.3932 26.9919 40.2337 26.9873 40.0742C26.9873 39.9147 26.9873 39.7575 26.9873 39.6025C26.9873 39.5296 26.9896 39.4499 26.9941 39.3633C26.9987 39.2721 26.9964 39.1924 26.9873 39.124C26.9827 39.0921 26.9645 39.0443 26.9326 38.9805C26.9053 38.9167 26.8848 38.8711 26.8711 38.8438C26.7116 38.5566 26.486 38.3424 26.1943 38.2012C25.9027 38.0599 25.5973 37.9893 25.2783 37.9893C24.9411 37.9893 24.6449 38.0736 24.3896 38.2422C24.1344 38.4108 23.9339 38.6341 23.7881 38.9121C23.6468 39.1855 23.5762 39.4863 23.5762 39.8145C23.5762 40.1426 23.6514 40.4479 23.8018 40.7305C23.9521 41.013 24.1595 41.2409 24.4238 41.4141C24.6927 41.5872 24.9958 41.6738 25.333 41.6738ZM31.2529 43.1777C30.9932 43.1777 30.722 43.1299 30.4395 43.0342C30.1569 42.9385 29.9222 42.7949 29.7354 42.6035C29.6807 42.5488 29.6533 42.4896 29.6533 42.4258C29.6533 42.3984 29.667 42.3301 29.6943 42.2207C29.7262 42.1068 29.7604 41.9906 29.7969 41.8721C29.8333 41.7536 29.8561 41.6761 29.8652 41.6396C29.8835 41.585 29.9085 41.5326 29.9404 41.4824C29.9723 41.4277 30.0225 41.4004 30.0908 41.4004C30.1774 41.4004 30.3118 41.4574 30.4941 41.5713C30.6764 41.6852 30.8861 41.7422 31.123 41.7422C31.5378 41.7422 31.7451 41.5417 31.7451 41.1406C31.7451 40.8809 31.6608 40.7008 31.4922 40.6006C31.3281 40.5003 31.1504 40.4001 30.959 40.2998C30.5762 40.0947 30.2845 39.8441 30.084 39.5479C29.8835 39.2516 29.7832 38.8825 29.7832 38.4404C29.7832 37.8799 29.9473 37.4424 30.2754 37.1279C30.6081 36.8135 31.0501 36.6562 31.6016 36.6562C31.6699 36.6562 31.7747 36.6654 31.916 36.6836C32.0618 36.7018 32.2122 36.7314 32.3672 36.7725C32.5221 36.8089 32.6543 36.8613 32.7637 36.9297C32.873 36.9935 32.9277 37.071 32.9277 37.1621C32.9277 37.2487 32.9095 37.3444 32.873 37.4492C32.8366 37.5495 32.807 37.6429 32.7842 37.7295C32.766 37.7887 32.7409 37.8457 32.709 37.9004C32.6771 37.9551 32.6224 37.9824 32.5449 37.9824C32.4492 37.9824 32.3467 37.9574 32.2373 37.9072C32.1279 37.8571 32.0094 37.832 31.8818 37.832C31.7087 37.832 31.556 37.8844 31.4238 37.9893C31.2917 38.0895 31.2256 38.2331 31.2256 38.4199C31.2256 38.6341 31.2894 38.8005 31.417 38.9189C31.5492 39.0374 31.7109 39.1423 31.9023 39.2334C32.0938 39.3245 32.2852 39.4362 32.4766 39.5684C32.668 39.7005 32.8275 39.8851 32.9551 40.1221C33.0872 40.3545 33.1533 40.6758 33.1533 41.0859C33.1533 41.6693 32.9893 42.1637 32.6611 42.5693C32.3376 42.9749 31.8682 43.1777 31.2529 43.1777ZM37.7881 43.1299C37.4417 43.1299 37.109 43.0752 36.79 42.9658C36.4756 42.8564 36.1839 42.6878 35.915 42.46C35.9014 42.4508 35.8854 42.4395 35.8672 42.4258C35.8535 42.4076 35.8353 42.3984 35.8125 42.3984C35.7897 42.3984 35.776 42.4167 35.7715 42.4531C35.7669 42.485 35.7646 42.5078 35.7646 42.5215C35.7555 42.8177 35.751 43.1162 35.751 43.417C35.751 43.7223 35.7464 44.0231 35.7373 44.3193C35.7373 44.4287 35.7373 44.5404 35.7373 44.6543C35.7419 44.7728 35.7396 44.8867 35.7305 44.9961C35.7214 45.0872 35.6963 45.1556 35.6553 45.2012C35.6188 45.2467 35.5505 45.2695 35.4502 45.2695H34.3496C34.1673 45.2695 34.0762 45.1738 34.0762 44.9824C34.0762 44.6315 34.083 44.2783 34.0967 43.9229C34.1149 43.5674 34.1286 43.2165 34.1377 42.8701C34.1559 42.1273 34.1696 41.3867 34.1787 40.6484C34.1878 39.9056 34.1924 39.1628 34.1924 38.4199C34.1924 38.1966 34.1901 37.9733 34.1855 37.75C34.1855 37.5267 34.1855 37.3034 34.1855 37.0801C34.1855 36.8932 34.279 36.7998 34.4658 36.7998H35.3477C35.4889 36.7998 35.5755 36.8568 35.6074 36.9707C35.6439 37.0846 35.6644 37.1986 35.6689 37.3125C35.6735 37.4219 35.7008 37.4766 35.751 37.4766C35.7692 37.4766 35.7943 37.4652 35.8262 37.4424C36.1589 37.1872 36.5052 36.9889 36.8652 36.8477C37.2253 36.7064 37.6172 36.6357 38.041 36.6357C38.6836 36.6357 39.2236 36.7861 39.6611 37.0869C40.0986 37.3877 40.429 37.7887 40.6523 38.29C40.8757 38.7913 40.9873 39.3405 40.9873 39.9375C40.9873 40.5892 40.8551 41.1543 40.5908 41.6328C40.3311 42.1113 39.9619 42.4805 39.4834 42.7402C39.0049 43 38.4398 43.1299 37.7881 43.1299ZM37.4668 41.7285C37.8132 41.7285 38.1276 41.6488 38.4102 41.4893C38.6973 41.3298 38.9251 41.1133 39.0938 40.8398C39.2669 40.5618 39.3535 40.2497 39.3535 39.9033C39.3535 39.361 39.1781 38.9167 38.8271 38.5703C38.4762 38.2194 38.0296 38.0439 37.4873 38.0439C37.0999 38.0439 36.7559 38.1419 36.4551 38.3379C36.1543 38.5339 35.9355 38.8141 35.7988 39.1787C35.7988 39.4066 35.7965 39.6344 35.792 39.8623C35.792 40.0902 35.792 40.318 35.792 40.5459C35.792 40.5687 35.8057 40.6165 35.833 40.6895C35.8649 40.7624 35.8854 40.8102 35.8945 40.833C36.0404 41.1292 36.2591 41.3525 36.5508 41.5029C36.8424 41.6533 37.1478 41.7285 37.4668 41.7285ZM44.4873 43.1299C43.8949 43.1299 43.3981 42.9886 42.9971 42.7061C42.596 42.4235 42.293 42.0498 42.0879 41.585C41.8874 41.1156 41.7871 40.6074 41.7871 40.0605V39.9512C41.7962 39.377 41.9147 38.8369 42.1426 38.3311C42.375 37.8252 42.71 37.4173 43.1475 37.1074C43.585 36.793 44.1136 36.6357 44.7334 36.6357C45.1162 36.6357 45.4717 36.7087 45.7998 36.8545C46.1325 36.9958 46.4424 37.1895 46.7295 37.4355C46.7614 37.4674 46.7887 37.4834 46.8115 37.4834C46.8662 37.4834 46.8913 37.4264 46.8867 37.3125C46.8867 37.1986 46.9027 37.0846 46.9346 36.9707C46.971 36.8568 47.0622 36.7998 47.208 36.7998H48.1719C48.3587 36.7998 48.4521 36.8932 48.4521 37.0801C48.4521 37.276 48.4499 37.472 48.4453 37.668C48.4453 37.8639 48.4453 38.0599 48.4453 38.2559C48.4453 38.7572 48.4476 39.2607 48.4521 39.7666C48.4613 40.2725 48.4681 40.776 48.4727 41.2773C48.4772 41.5143 48.4818 41.7536 48.4863 41.9951C48.4954 42.2321 48.5 42.4714 48.5 42.7129C48.5 42.9043 48.4066 43 48.2197 43H47.1465C47.0234 43 46.9437 42.9613 46.9072 42.8838C46.8708 42.8018 46.8548 42.7061 46.8594 42.5967C46.8639 42.4873 46.8639 42.3893 46.8594 42.3027C46.8594 42.2891 46.8571 42.2663 46.8525 42.2344C46.848 42.2025 46.8343 42.1865 46.8115 42.1865C46.7933 42.1865 46.7751 42.1934 46.7568 42.207C46.7432 42.2207 46.7295 42.2321 46.7158 42.2412C46.3968 42.5101 46.0527 42.7266 45.6836 42.8906C45.3145 43.0501 44.9157 43.1299 44.4873 43.1299ZM45.1846 41.6738C45.5081 41.6738 45.8066 41.6077 46.0801 41.4756C46.3581 41.3389 46.5745 41.1247 46.7295 40.833C46.7386 40.8148 46.7591 40.7692 46.791 40.6963C46.8275 40.6188 46.8457 40.571 46.8457 40.5527C46.8457 40.3932 46.8434 40.2337 46.8389 40.0742C46.8389 39.9147 46.8389 39.7575 46.8389 39.6025C46.8389 39.5296 46.8411 39.4499 46.8457 39.3633C46.8503 39.2721 46.848 39.1924 46.8389 39.124C46.8343 39.0921 46.8161 39.0443 46.7842 38.9805C46.7568 38.9167 46.7363 38.8711 46.7227 38.8438C46.5632 38.5566 46.3376 38.3424 46.0459 38.2012C45.7542 38.0599 45.4489 37.9893 45.1299 37.9893C44.7926 37.9893 44.4964 38.0736 44.2412 38.2422C43.986 38.4108 43.7855 38.6341 43.6396 38.9121C43.4984 39.1855 43.4277 39.4863 43.4277 39.8145C43.4277 40.1426 43.5029 40.4479 43.6533 40.7305C43.8037 41.013 44.0111 41.2409 44.2754 41.4141C44.5443 41.5872 44.8473 41.6738 45.1846 41.6738ZM51.0225 36.7998C51.1956 36.7998 51.2891 36.8841 51.3027 37.0527L51.3711 37.832C51.3711 37.8366 51.3757 37.8708 51.3848 37.9346C51.3939 37.9938 51.4098 38.0234 51.4326 38.0234C51.4554 38.0234 51.4782 37.9984 51.501 37.9482C51.5283 37.8981 51.5443 37.8685 51.5488 37.8594C51.7357 37.5085 51.9635 37.2327 52.2324 37.0322C52.5013 36.8317 52.8408 36.7314 53.251 36.7314C53.3467 36.7314 53.4674 36.7406 53.6133 36.7588C53.7637 36.7725 53.8389 36.8477 53.8389 36.9844C53.8389 37.0527 53.8252 37.1598 53.7979 37.3057C53.7705 37.4515 53.7386 37.5996 53.7021 37.75C53.6702 37.8958 53.6452 38.0075 53.627 38.085C53.6087 38.1624 53.5791 38.224 53.5381 38.2695C53.5016 38.3105 53.4378 38.3311 53.3467 38.3311C53.3011 38.3311 53.2555 38.3288 53.21 38.3242C53.1689 38.3151 53.1234 38.3105 53.0732 38.3105C52.7132 38.3105 52.4102 38.4245 52.1641 38.6523C51.918 38.8757 51.7334 39.1514 51.6104 39.4795C51.4873 39.8076 51.4258 40.1312 51.4258 40.4502V42.7197C51.4258 42.9066 51.3324 43 51.1455 43H50.0859C49.8991 43 49.8057 42.9043 49.8057 42.7129C49.8057 42.0065 49.8079 41.3024 49.8125 40.6006C49.8216 39.8942 49.8262 39.1901 49.8262 38.4883V37.0801C49.8262 36.8932 49.9196 36.7998 50.1064 36.7998H51.0225ZM56.2041 41.7285C56.2679 41.7285 56.3363 41.7399 56.4092 41.7627C56.4821 41.7809 56.5186 41.8333 56.5186 41.9199C56.5186 41.9564 56.5117 41.9928 56.498 42.0293C56.4844 42.0658 56.4684 42.1022 56.4502 42.1387C56.3317 42.3802 56.2087 42.6217 56.0811 42.8633C55.9535 43.1003 55.8258 43.3395 55.6982 43.5811C55.6071 43.7542 55.516 43.9274 55.4248 44.1006C55.3382 44.2783 55.2425 44.4515 55.1377 44.6201C55.083 44.7158 55.001 44.7637 54.8916 44.7637H54.1396C54.0758 44.7637 54.0075 44.7523 53.9346 44.7295C53.8617 44.7113 53.8252 44.6589 53.8252 44.5723C53.8252 44.5358 53.832 44.4971 53.8457 44.4561C53.8594 44.4196 53.8753 44.3854 53.8936 44.3535C54.012 44.0983 54.1328 43.8454 54.2559 43.5947C54.3835 43.3441 54.5088 43.0934 54.6318 42.8428C54.7093 42.6833 54.7822 42.5238 54.8506 42.3643C54.9235 42.2002 55.001 42.0407 55.083 41.8857C55.1377 41.7809 55.222 41.7285 55.3359 41.7285H56.2041ZM63.5801 43.1299C62.9603 43.1299 62.4385 42.984 62.0146 42.6924C61.5908 42.4007 61.2695 42.0111 61.0508 41.5234C60.832 41.0358 60.7227 40.5026 60.7227 39.9238C60.7227 39.2949 60.8389 38.7344 61.0713 38.2422C61.3083 37.7454 61.6523 37.3535 62.1035 37.0664C62.5547 36.7793 63.1084 36.6357 63.7646 36.6357C64.4893 36.6357 65.1204 36.8454 65.6582 37.2646C65.6992 37.2965 65.7311 37.3125 65.7539 37.3125C65.7812 37.3125 65.7972 37.2965 65.8018 37.2646C65.8063 37.2327 65.8086 37.21 65.8086 37.1963C65.8086 36.7679 65.8086 36.3418 65.8086 35.918C65.8132 35.4941 65.8177 35.068 65.8223 34.6396C65.8268 34.4391 65.8268 34.2363 65.8223 34.0312C65.8177 33.8216 65.8223 33.6188 65.8359 33.4229C65.8496 33.236 65.943 33.1426 66.1162 33.1426H67.1826C67.3695 33.1426 67.4629 33.2383 67.4629 33.4297C67.4629 33.6803 67.4583 33.931 67.4492 34.1816C67.4447 34.4277 67.4401 34.6761 67.4355 34.9268C67.4219 35.9704 67.415 37.0186 67.415 38.0713C67.415 39.1195 67.4219 40.1676 67.4355 41.2158C67.4401 41.4665 67.4447 41.7171 67.4492 41.9678C67.4583 42.2139 67.4629 42.4622 67.4629 42.7129C67.4629 42.9043 67.3695 43 67.1826 43H66.1025C65.9339 43 65.8451 42.9362 65.8359 42.8086C65.8314 42.681 65.8268 42.5579 65.8223 42.4395C65.8223 42.4258 65.82 42.4053 65.8154 42.3779C65.8109 42.346 65.7972 42.3301 65.7744 42.3301C65.7516 42.3301 65.7197 42.346 65.6787 42.3779C65.3734 42.6195 65.0452 42.8063 64.6943 42.9385C64.3434 43.0661 63.972 43.1299 63.5801 43.1299ZM64.0791 41.6191C64.4801 41.6191 64.8333 41.528 65.1387 41.3457C65.444 41.1634 65.6673 40.8786 65.8086 40.4912C65.804 40.3317 65.8018 40.1745 65.8018 40.0195C65.8018 39.8646 65.8018 39.7096 65.8018 39.5547C65.8018 39.4818 65.804 39.402 65.8086 39.3154C65.8132 39.2288 65.8109 39.1514 65.8018 39.083C65.7972 39.0329 65.7721 38.9668 65.7266 38.8848C65.681 38.8027 65.6468 38.7412 65.624 38.7002C65.4554 38.445 65.2298 38.2559 64.9473 38.1328C64.6693 38.0052 64.3799 37.9414 64.0791 37.9414C63.7327 37.9414 63.4297 38.028 63.1699 38.2012C62.9147 38.3743 62.7165 38.6022 62.5752 38.8848C62.4385 39.1673 62.3701 39.4749 62.3701 39.8076C62.3701 40.1221 62.443 40.4183 62.5889 40.6963C62.7393 40.9697 62.9443 41.193 63.2041 41.3662C63.4639 41.5348 63.7555 41.6191 64.0791 41.6191ZM71.8174 43.1641C71.152 43.1641 70.571 43.0319 70.0742 42.7676C69.582 42.5033 69.1992 42.1273 68.9258 41.6396C68.6523 41.152 68.5156 40.5732 68.5156 39.9033C68.5156 39.279 68.6455 38.7184 68.9053 38.2217C69.165 37.7249 69.5319 37.333 70.0059 37.0459C70.4798 36.7542 71.0358 36.6084 71.6738 36.6084C72.4622 36.6084 73.0798 36.8294 73.5264 37.2715C73.9775 37.7135 74.2829 38.3014 74.4424 39.0352C74.4469 39.0488 74.4492 39.0716 74.4492 39.1035C74.4492 39.1719 74.431 39.2243 74.3945 39.2607C74.3626 39.2926 74.3193 39.32 74.2646 39.3428C74.1097 39.4157 73.9456 39.4795 73.7725 39.5342C73.5993 39.5889 73.4307 39.6481 73.2666 39.7119C72.7881 39.8896 72.3073 40.0651 71.8242 40.2383C71.3411 40.4069 70.8626 40.5869 70.3887 40.7783C70.3522 40.7965 70.334 40.8193 70.334 40.8467C70.334 40.8604 70.3385 40.8763 70.3477 40.8945C70.5299 41.2227 70.7806 41.4665 71.0996 41.626C71.4186 41.7855 71.7604 41.8652 72.125 41.8652C72.4121 41.8652 72.6787 41.8197 72.9248 41.7285C73.1755 41.6374 73.4215 41.5234 73.6631 41.3867C73.695 41.3685 73.7269 41.3525 73.7588 41.3389C73.7907 41.3252 73.8226 41.3184 73.8545 41.3184C73.9183 41.3184 73.9661 41.3389 73.998 41.3799C74.0345 41.4163 74.0641 41.4596 74.0869 41.5098C74.1051 41.5417 74.1393 41.6146 74.1895 41.7285C74.2441 41.8379 74.2943 41.9495 74.3398 42.0635C74.39 42.1729 74.415 42.2435 74.415 42.2754C74.415 42.3255 74.4014 42.3665 74.374 42.3984C74.3467 42.4303 74.3148 42.46 74.2783 42.4873C73.9548 42.7106 73.5605 42.8792 73.0957 42.9932C72.6354 43.1071 72.2093 43.1641 71.8174 43.1641ZM70.1016 39.835C70.5618 39.6755 71.0221 39.516 71.4824 39.3564C71.9427 39.1969 72.4007 39.0374 72.8564 38.8779C72.7425 38.6273 72.583 38.4085 72.3779 38.2217C72.1774 38.0348 71.929 37.9414 71.6328 37.9414C71.2865 37.9414 70.9993 38.0348 70.7715 38.2217C70.5436 38.4085 70.375 38.6478 70.2656 38.9395C70.1562 39.2266 70.1016 39.5251 70.1016 39.835ZM73.7246 33.71C73.7747 33.71 73.8568 33.7168 73.9707 33.7305C74.0892 33.7441 74.1484 33.792 74.1484 33.874C74.1484 33.9333 74.1165 33.9948 74.0527 34.0586C73.9935 34.1178 73.9456 34.1657 73.9092 34.2021C73.6585 34.43 73.4079 34.6624 73.1572 34.8994C72.9111 35.1318 72.6605 35.3597 72.4053 35.583C72.346 35.6331 72.2822 35.6582 72.2139 35.6582H71.8105C71.7513 35.6582 71.6807 35.6491 71.5986 35.6309C71.5212 35.6126 71.4824 35.5648 71.4824 35.4873C71.4824 35.4417 71.4938 35.3962 71.5166 35.3506C71.5394 35.305 71.5622 35.2663 71.585 35.2344L72.5488 33.833C72.6035 33.751 72.681 33.71 72.7812 33.71H73.7246ZM78.4961 43.1436C78.4779 43.1436 78.4619 43.1344 78.4482 43.1162C78.1156 42.5192 77.7852 41.9176 77.457 41.3115C77.1335 40.7054 76.8099 40.1016 76.4863 39.5C76.2812 39.1217 76.0739 38.7435 75.8643 38.3652C75.6546 37.9824 75.4495 37.5996 75.249 37.2168C75.2308 37.1803 75.2126 37.1439 75.1943 37.1074C75.1807 37.0664 75.1738 37.0277 75.1738 36.9912C75.1738 36.9046 75.2126 36.8522 75.29 36.834C75.3675 36.8112 75.4359 36.7998 75.4951 36.7998H76.7529C76.8623 36.7998 76.9466 36.8522 77.0059 36.957C77.0833 37.0938 77.1562 37.2396 77.2246 37.3945C77.293 37.5449 77.3613 37.693 77.4297 37.8389C77.6029 38.1989 77.7738 38.5589 77.9424 38.9189C78.1156 39.279 78.2933 39.6367 78.4756 39.9922C78.4847 40.0059 78.4938 40.0241 78.5029 40.0469C78.5166 40.0651 78.5326 40.0742 78.5508 40.0742C78.5736 40.0742 78.5895 40.0651 78.5986 40.0469C78.6123 40.0241 78.6214 40.0059 78.626 39.9922C78.79 39.6413 78.9473 39.2858 79.0977 38.9258C79.248 38.5612 79.4007 38.2012 79.5557 37.8457C79.6195 37.6999 79.681 37.5518 79.7402 37.4014C79.7995 37.251 79.8656 37.1074 79.9385 36.9707C79.9977 36.8568 80.0843 36.7998 80.1982 36.7998H81.3398C81.4036 36.7998 81.472 36.8112 81.5449 36.834C81.6224 36.8522 81.6611 36.9046 81.6611 36.9912C81.6611 37.0277 81.6543 37.0641 81.6406 37.1006C81.627 37.137 81.611 37.1735 81.5928 37.21C81.3695 37.6566 81.1393 38.1032 80.9023 38.5498C80.6699 38.9919 80.4398 39.4362 80.2119 39.8828C79.9339 40.4206 79.6582 40.9606 79.3848 41.5029C79.1113 42.0407 78.8311 42.5785 78.5439 43.1162C78.5303 43.1344 78.5143 43.1436 78.4961 43.1436ZM85.6533 43.1641C84.988 43.1641 84.4069 43.0319 83.9102 42.7676C83.418 42.5033 83.0352 42.1273 82.7617 41.6396C82.4883 41.152 82.3516 40.5732 82.3516 39.9033C82.3516 39.279 82.4814 38.7184 82.7412 38.2217C83.001 37.7249 83.3678 37.333 83.8418 37.0459C84.3158 36.7542 84.8717 36.6084 85.5098 36.6084C86.2982 36.6084 86.9157 36.8294 87.3623 37.2715C87.8135 37.7135 88.1188 38.3014 88.2783 39.0352C88.2829 39.0488 88.2852 39.0716 88.2852 39.1035C88.2852 39.1719 88.2669 39.2243 88.2305 39.2607C88.1986 39.2926 88.1553 39.32 88.1006 39.3428C87.9456 39.4157 87.7816 39.4795 87.6084 39.5342C87.4352 39.5889 87.2666 39.6481 87.1025 39.7119C86.624 39.8896 86.1432 40.0651 85.6602 40.2383C85.1771 40.4069 84.6986 40.5869 84.2246 40.7783C84.1882 40.7965 84.1699 40.8193 84.1699 40.8467C84.1699 40.8604 84.1745 40.8763 84.1836 40.8945C84.3659 41.2227 84.6165 41.4665 84.9355 41.626C85.2546 41.7855 85.5964 41.8652 85.9609 41.8652C86.248 41.8652 86.5146 41.8197 86.7607 41.7285C87.0114 41.6374 87.2575 41.5234 87.499 41.3867C87.5309 41.3685 87.5628 41.3525 87.5947 41.3389C87.6266 41.3252 87.6585 41.3184 87.6904 41.3184C87.7542 41.3184 87.8021 41.3389 87.834 41.3799C87.8704 41.4163 87.9001 41.4596 87.9229 41.5098C87.9411 41.5417 87.9753 41.6146 88.0254 41.7285C88.0801 41.8379 88.1302 41.9495 88.1758 42.0635C88.2259 42.1729 88.251 42.2435 88.251 42.2754C88.251 42.3255 88.2373 42.3665 88.21 42.3984C88.1826 42.4303 88.1507 42.46 88.1143 42.4873C87.7907 42.7106 87.3965 42.8792 86.9316 42.9932C86.4714 43.1071 86.0452 43.1641 85.6533 43.1641ZM83.9375 39.835C84.3978 39.6755 84.8581 39.516 85.3184 39.3564C85.7786 39.1969 86.2367 39.0374 86.6924 38.8779C86.5785 38.6273 86.4189 38.4085 86.2139 38.2217C86.0133 38.0348 85.765 37.9414 85.4688 37.9414C85.1224 37.9414 84.8353 38.0348 84.6074 38.2217C84.3796 38.4085 84.2109 38.6478 84.1016 38.9395C83.9922 39.2266 83.9375 39.5251 83.9375 39.835ZM89.4336 33.4229C89.4336 33.236 89.527 33.1426 89.7139 33.1426H90.7939C90.9808 33.1426 91.0742 33.236 91.0742 33.4229C91.0742 34.1976 91.0719 34.9723 91.0674 35.7471C91.0628 36.5218 91.0605 37.2965 91.0605 38.0713C91.0605 38.846 91.0628 39.6208 91.0674 40.3955C91.0719 41.1702 91.0742 41.945 91.0742 42.7197C91.0742 42.9066 90.9808 43 90.7939 43H89.7139C89.527 43 89.4336 42.9066 89.4336 42.7197C89.4336 41.945 89.4359 41.1702 89.4404 40.3955C89.445 39.6208 89.4473 38.846 89.4473 38.0713C89.4473 37.2965 89.445 36.5218 89.4404 35.7471C89.4359 34.9723 89.4336 34.1976 89.4336 33.4229ZM92.1953 39.9307C92.1953 39.2972 92.3298 38.7321 92.5986 38.2354C92.8721 37.7386 93.2526 37.3467 93.7402 37.0596C94.2279 36.7679 94.7907 36.6221 95.4287 36.6221C96.0576 36.6221 96.6068 36.7656 97.0762 37.0527C97.5456 37.3353 97.9102 37.7227 98.1699 38.2148C98.4342 38.707 98.5664 39.2607 98.5664 39.876C98.5664 40.5094 98.4365 41.0723 98.1768 41.5645C97.917 42.0521 97.5501 42.4349 97.0762 42.7129C96.6068 42.9909 96.0485 43.1299 95.4014 43.1299C94.7588 43.1299 94.196 42.9977 93.7129 42.7334C93.2344 42.4645 92.8607 42.0908 92.5918 41.6123C92.3275 41.1338 92.1953 40.5732 92.1953 39.9307ZM95.3945 38.0029C95.0482 38.0029 94.7588 38.0964 94.5264 38.2832C94.2939 38.4655 94.1185 38.7002 94 38.9873C93.8815 39.2744 93.8223 39.5752 93.8223 39.8896C93.8223 40.1859 93.8838 40.4707 94.0068 40.7441C94.1344 41.0176 94.3145 41.2409 94.5469 41.4141C94.7793 41.5872 95.055 41.6738 95.374 41.6738C95.7204 41.6738 96.0075 41.5872 96.2354 41.4141C96.4678 41.2363 96.641 41.0085 96.7549 40.7305C96.8734 40.4525 96.9326 40.1562 96.9326 39.8418C96.9326 39.5365 96.8734 39.2448 96.7549 38.9668C96.641 38.6842 96.4701 38.4541 96.2422 38.2764C96.0143 38.0941 95.7318 38.0029 95.3945 38.0029ZM103.263 43.1299C102.916 43.1299 102.584 43.0752 102.265 42.9658C101.95 42.8564 101.659 42.6878 101.39 42.46C101.376 42.4508 101.36 42.4395 101.342 42.4258C101.328 42.4076 101.31 42.3984 101.287 42.3984C101.264 42.3984 101.251 42.4167 101.246 42.4531C101.242 42.485 101.239 42.5078 101.239 42.5215C101.23 42.8177 101.226 43.1162 101.226 43.417C101.226 43.7223 101.221 44.0231 101.212 44.3193C101.212 44.4287 101.212 44.5404 101.212 44.6543C101.216 44.7728 101.214 44.8867 101.205 44.9961C101.196 45.0872 101.171 45.1556 101.13 45.2012C101.093 45.2467 101.025 45.2695 100.925 45.2695H99.8242C99.6419 45.2695 99.5508 45.1738 99.5508 44.9824C99.5508 44.6315 99.5576 44.2783 99.5713 43.9229C99.5895 43.5674 99.6032 43.2165 99.6123 42.8701C99.6305 42.1273 99.6442 41.3867 99.6533 40.6484C99.6624 39.9056 99.667 39.1628 99.667 38.4199C99.667 38.1966 99.6647 37.9733 99.6602 37.75C99.6602 37.5267 99.6602 37.3034 99.6602 37.0801C99.6602 36.8932 99.7536 36.7998 99.9404 36.7998H100.822C100.964 36.7998 101.05 36.8568 101.082 36.9707C101.118 37.0846 101.139 37.1986 101.144 37.3125C101.148 37.4219 101.175 37.4766 101.226 37.4766C101.244 37.4766 101.269 37.4652 101.301 37.4424C101.633 37.1872 101.98 36.9889 102.34 36.8477C102.7 36.7064 103.092 36.6357 103.516 36.6357C104.158 36.6357 104.698 36.7861 105.136 37.0869C105.573 37.3877 105.904 37.7887 106.127 38.29C106.35 38.7913 106.462 39.3405 106.462 39.9375C106.462 40.5892 106.33 41.1543 106.065 41.6328C105.806 42.1113 105.437 42.4805 104.958 42.7402C104.479 43 103.914 43.1299 103.263 43.1299ZM102.941 41.7285C103.288 41.7285 103.602 41.6488 103.885 41.4893C104.172 41.3298 104.4 41.1133 104.568 40.8398C104.742 40.5618 104.828 40.2497 104.828 39.9033C104.828 39.361 104.653 38.9167 104.302 38.5703C103.951 38.2194 103.504 38.0439 102.962 38.0439C102.575 38.0439 102.23 38.1419 101.93 38.3379C101.629 38.5339 101.41 38.8141 101.273 39.1787C101.273 39.4066 101.271 39.6344 101.267 39.8623C101.267 40.0902 101.267 40.318 101.267 40.5459C101.267 40.5687 101.28 40.6165 101.308 40.6895C101.34 40.7624 101.36 40.8102 101.369 40.833C101.515 41.1292 101.734 41.3525 102.025 41.5029C102.317 41.6533 102.622 41.7285 102.941 41.7285ZM111.165 43.1299C110.819 43.1299 110.486 43.0752 110.167 42.9658C109.853 42.8564 109.561 42.6878 109.292 42.46C109.278 42.4508 109.262 42.4395 109.244 42.4258C109.23 42.4076 109.212 42.3984 109.189 42.3984C109.167 42.3984 109.153 42.4167 109.148 42.4531C109.144 42.485 109.142 42.5078 109.142 42.5215C109.132 42.8177 109.128 43.1162 109.128 43.417C109.128 43.7223 109.123 44.0231 109.114 44.3193C109.114 44.4287 109.114 44.5404 109.114 44.6543C109.119 44.7728 109.117 44.8867 109.107 44.9961C109.098 45.0872 109.073 45.1556 109.032 45.2012C108.996 45.2467 108.927 45.2695 108.827 45.2695H107.727C107.544 45.2695 107.453 45.1738 107.453 44.9824C107.453 44.6315 107.46 44.2783 107.474 43.9229C107.492 43.5674 107.506 43.2165 107.515 42.8701C107.533 42.1273 107.547 41.3867 107.556 40.6484C107.565 39.9056 107.569 39.1628 107.569 38.4199C107.569 38.1966 107.567 37.9733 107.562 37.75C107.562 37.5267 107.562 37.3034 107.562 37.0801C107.562 36.8932 107.656 36.7998 107.843 36.7998H108.725C108.866 36.7998 108.952 36.8568 108.984 36.9707C109.021 37.0846 109.041 37.1986 109.046 37.3125C109.05 37.4219 109.078 37.4766 109.128 37.4766C109.146 37.4766 109.171 37.4652 109.203 37.4424C109.536 37.1872 109.882 36.9889 110.242 36.8477C110.602 36.7064 110.994 36.6357 111.418 36.6357C112.061 36.6357 112.601 36.7861 113.038 37.0869C113.476 37.3877 113.806 37.7887 114.029 38.29C114.253 38.7913 114.364 39.3405 114.364 39.9375C114.364 40.5892 114.232 41.1543 113.968 41.6328C113.708 42.1113 113.339 42.4805 112.86 42.7402C112.382 43 111.817 43.1299 111.165 43.1299ZM110.844 41.7285C111.19 41.7285 111.505 41.6488 111.787 41.4893C112.074 41.3298 112.302 41.1133 112.471 40.8398C112.644 40.5618 112.73 40.2497 112.73 39.9033C112.73 39.361 112.555 38.9167 112.204 38.5703C111.853 38.2194 111.407 38.0439 110.864 38.0439C110.477 38.0439 110.133 38.1419 109.832 38.3379C109.531 38.5339 109.312 38.8141 109.176 39.1787C109.176 39.4066 109.174 39.6344 109.169 39.8623C109.169 40.0902 109.169 40.318 109.169 40.5459C109.169 40.5687 109.183 40.6165 109.21 40.6895C109.242 40.7624 109.262 40.8102 109.271 40.833C109.417 41.1292 109.636 41.3525 109.928 41.5029C110.219 41.6533 110.525 41.7285 110.844 41.7285ZM118.466 43.1641C117.8 43.1641 117.219 43.0319 116.723 42.7676C116.23 42.5033 115.848 42.1273 115.574 41.6396C115.301 41.152 115.164 40.5732 115.164 39.9033C115.164 39.279 115.294 38.7184 115.554 38.2217C115.813 37.7249 116.18 37.333 116.654 37.0459C117.128 36.7542 117.684 36.6084 118.322 36.6084C119.111 36.6084 119.728 36.8294 120.175 37.2715C120.626 37.7135 120.931 38.3014 121.091 39.0352C121.095 39.0488 121.098 39.0716 121.098 39.1035C121.098 39.1719 121.079 39.2243 121.043 39.2607C121.011 39.2926 120.968 39.32 120.913 39.3428C120.758 39.4157 120.594 39.4795 120.421 39.5342C120.248 39.5889 120.079 39.6481 119.915 39.7119C119.437 39.8896 118.956 40.0651 118.473 40.2383C117.99 40.4069 117.511 40.5869 117.037 40.7783C117.001 40.7965 116.982 40.8193 116.982 40.8467C116.982 40.8604 116.987 40.8763 116.996 40.8945C117.178 41.2227 117.429 41.4665 117.748 41.626C118.067 41.7855 118.409 41.8652 118.773 41.8652C119.061 41.8652 119.327 41.8197 119.573 41.7285C119.824 41.6374 120.07 41.5234 120.312 41.3867C120.343 41.3685 120.375 41.3525 120.407 41.3389C120.439 41.3252 120.471 41.3184 120.503 41.3184C120.567 41.3184 120.615 41.3389 120.646 41.3799C120.683 41.4163 120.713 41.4596 120.735 41.5098C120.754 41.5417 120.788 41.6146 120.838 41.7285C120.893 41.8379 120.943 41.9495 120.988 42.0635C121.038 42.1729 121.063 42.2435 121.063 42.2754C121.063 42.3255 121.05 42.3665 121.022 42.3984C120.995 42.4303 120.963 42.46 120.927 42.4873C120.603 42.7106 120.209 42.8792 119.744 42.9932C119.284 43.1071 118.858 43.1641 118.466 43.1641ZM116.75 39.835C117.21 39.6755 117.671 39.516 118.131 39.3564C118.591 39.1969 119.049 39.0374 119.505 38.8779C119.391 38.6273 119.231 38.4085 119.026 38.2217C118.826 38.0348 118.577 37.9414 118.281 37.9414C117.935 37.9414 117.648 38.0348 117.42 38.2217C117.192 38.4085 117.023 38.6478 116.914 38.9395C116.805 39.2266 116.75 39.5251 116.75 39.835ZM127.38 43C127.22 43 127.127 42.918 127.1 42.7539C127.086 42.6628 127.072 42.5716 127.059 42.4805C127.049 42.3848 127.04 42.2913 127.031 42.2002C127.031 42.1865 127.027 42.1637 127.018 42.1318C127.008 42.0954 126.993 42.0771 126.97 42.0771C126.951 42.0771 126.931 42.0885 126.908 42.1113C126.89 42.1296 126.876 42.1455 126.867 42.1592C126.566 42.5055 126.2 42.7539 125.767 42.9043C125.338 43.0547 124.898 43.1299 124.447 43.1299C124.078 43.1299 123.72 43.0661 123.374 42.9385C123.032 42.8063 122.75 42.6058 122.526 42.3369C122.308 42.068 122.198 41.7262 122.198 41.3115C122.198 40.7829 122.201 40.2542 122.205 39.7256C122.214 39.1924 122.219 38.6637 122.219 38.1396V37.0801C122.219 36.8932 122.312 36.7998 122.499 36.7998H123.552C123.739 36.7998 123.832 36.8932 123.832 37.0801V38.1533C123.832 38.5817 123.83 39.0124 123.825 39.4453C123.821 39.8783 123.821 40.3112 123.825 40.7441C123.834 41.1042 123.951 41.3594 124.174 41.5098C124.402 41.6556 124.68 41.7285 125.008 41.7285C125.418 41.7285 125.767 41.6191 126.054 41.4004C126.341 41.1816 126.56 40.9014 126.71 40.5596C126.865 40.2132 126.942 39.8532 126.942 39.4795V37.0801C126.942 36.8932 127.036 36.7998 127.223 36.7998H128.269C128.455 36.7998 128.549 36.8932 128.549 37.0801C128.549 37.276 128.547 37.472 128.542 37.668C128.542 37.8639 128.542 38.0599 128.542 38.2559C128.542 38.7572 128.544 39.2607 128.549 39.7666C128.558 40.2725 128.565 40.776 128.569 41.2773C128.574 41.5143 128.578 41.7536 128.583 41.9951C128.592 42.2321 128.597 42.4714 128.597 42.7129C128.597 42.9043 128.503 43 128.316 43H127.38ZM131.112 36.7998C131.285 36.7998 131.379 36.8841 131.393 37.0527L131.461 37.832C131.461 37.8366 131.465 37.8708 131.475 37.9346C131.484 37.9938 131.5 38.0234 131.522 38.0234C131.545 38.0234 131.568 37.9984 131.591 37.9482C131.618 37.8981 131.634 37.8685 131.639 37.8594C131.826 37.5085 132.053 37.2327 132.322 37.0322C132.591 36.8317 132.931 36.7314 133.341 36.7314C133.437 36.7314 133.557 36.7406 133.703 36.7588C133.854 36.7725 133.929 36.8477 133.929 36.9844C133.929 37.0527 133.915 37.1598 133.888 37.3057C133.86 37.4515 133.828 37.5996 133.792 37.75C133.76 37.8958 133.735 38.0075 133.717 38.085C133.699 38.1624 133.669 38.224 133.628 38.2695C133.591 38.3105 133.528 38.3311 133.437 38.3311C133.391 38.3311 133.345 38.3288 133.3 38.3242C133.259 38.3151 133.213 38.3105 133.163 38.3105C132.803 38.3105 132.5 38.4245 132.254 38.6523C132.008 38.8757 131.823 39.1514 131.7 39.4795C131.577 39.8076 131.516 40.1312 131.516 40.4502V42.7197C131.516 42.9066 131.422 43 131.235 43H130.176C129.989 43 129.896 42.9043 129.896 42.7129C129.896 42.0065 129.898 41.3024 129.902 40.6006C129.911 39.8942 129.916 39.1901 129.916 38.4883V37.0801C129.916 36.8932 130.009 36.7998 130.196 36.7998H131.112Z" fill="black"/>
<path d="M73.0003 0L83.9951 23.25H62.0056L73.0003 0Z" fill="white"/>
</svg>
