<svg width="138" height="58" viewBox="0 0 138 58" fill="none" xmlns="http://www.w3.org/2000/svg">
<rect y="19" width="138" height="39" rx="16" fill="white"/>
<path d="M17.0332 33.7031C17.0332 33.5117 17.1266 33.416 17.3135 33.416H23.1104C23.2972 33.416 23.3906 33.5117 23.3906 33.7031C23.3906 33.8809 23.3906 34.0632 23.3906 34.25C23.3952 34.4323 23.3906 34.6123 23.377 34.79C23.3633 34.9723 23.2699 35.0635 23.0967 35.0635H21.1143C21.0596 35.0635 21.0322 35.0908 21.0322 35.1455C21.0322 35.6286 21.0299 36.1117 21.0254 36.5947C21.0254 37.0732 21.0254 37.554 21.0254 38.0371C21.0254 38.8164 21.0277 39.598 21.0322 40.3818C21.0368 41.1611 21.0391 41.9404 21.0391 42.7197C21.0391 42.9066 20.9456 43 20.7588 43H19.5762C19.3893 43 19.2959 42.9066 19.2959 42.7197C19.2959 41.9176 19.2982 41.1156 19.3027 40.3135C19.3118 39.5114 19.3164 38.7116 19.3164 37.9141L19.3096 35.1455C19.3096 35.0908 19.2799 35.0635 19.2207 35.0635H17.3271C17.154 35.0635 17.0605 34.9723 17.0469 34.79C17.0332 34.6123 17.0264 34.4323 17.0264 34.25C17.0309 34.0632 17.0332 33.8809 17.0332 33.7031ZM24.4365 34.4688C24.4365 34.2181 24.5299 34.0039 24.7168 33.8262C24.9036 33.6439 25.1224 33.5527 25.373 33.5527C25.6283 33.5527 25.8516 33.6462 26.043 33.833C26.2389 34.0153 26.3369 34.2363 26.3369 34.4961C26.3369 34.7467 26.2435 34.9655 26.0566 35.1523C25.8743 35.3346 25.6556 35.4258 25.4004 35.4258C25.1406 35.4258 24.915 35.3324 24.7236 35.1455C24.5322 34.9541 24.4365 34.7285 24.4365 34.4688ZM24.5391 38.5908V37.0801C24.5391 36.8932 24.6325 36.7998 24.8193 36.7998H25.8721C26.0589 36.7998 26.1523 36.8932 26.1523 37.0801C26.1523 38.0189 26.1546 38.96 26.1592 39.9033C26.1637 40.8421 26.166 41.7809 26.166 42.7197C26.166 42.9066 26.0726 43 25.8857 43H24.8057C24.6188 43 24.5254 42.9066 24.5254 42.7197C24.5254 42.0316 24.5277 41.3434 24.5322 40.6553C24.5368 39.9671 24.5391 39.279 24.5391 38.5908ZM31.1973 43.1299C30.8509 43.1299 30.5182 43.0752 30.1992 42.9658C29.8848 42.8564 29.5931 42.6878 29.3242 42.46C29.3105 42.4508 29.2946 42.4395 29.2764 42.4258C29.2627 42.4076 29.2445 42.3984 29.2217 42.3984C29.1989 42.3984 29.1852 42.4167 29.1807 42.4531C29.1761 42.485 29.1738 42.5078 29.1738 42.5215C29.1647 42.8177 29.1602 43.1162 29.1602 43.417C29.1602 43.7223 29.1556 44.0231 29.1465 44.3193C29.1465 44.4287 29.1465 44.5404 29.1465 44.6543C29.151 44.7728 29.1488 44.8867 29.1396 44.9961C29.1305 45.0872 29.1055 45.1556 29.0645 45.2012C29.028 45.2467 28.9596 45.2695 28.8594 45.2695H27.7588C27.5765 45.2695 27.4854 45.1738 27.4854 44.9824C27.4854 44.6315 27.4922 44.2783 27.5059 43.9229C27.5241 43.5674 27.5378 43.2165 27.5469 42.8701C27.5651 42.1273 27.5788 41.3867 27.5879 40.6484C27.597 39.9056 27.6016 39.1628 27.6016 38.4199C27.6016 38.1966 27.5993 37.9733 27.5947 37.75C27.5947 37.5267 27.5947 37.3034 27.5947 37.0801C27.5947 36.8932 27.6882 36.7998 27.875 36.7998H28.7568C28.8981 36.7998 28.9847 36.8568 29.0166 36.9707C29.0531 37.0846 29.0736 37.1986 29.0781 37.3125C29.0827 37.4219 29.11 37.4766 29.1602 37.4766C29.1784 37.4766 29.2035 37.4652 29.2354 37.4424C29.568 37.1872 29.9144 36.9889 30.2744 36.8477C30.6344 36.7064 31.0264 36.6357 31.4502 36.6357C32.0928 36.6357 32.6328 36.7861 33.0703 37.0869C33.5078 37.3877 33.8382 37.7887 34.0615 38.29C34.2848 38.7913 34.3965 39.3405 34.3965 39.9375C34.3965 40.5892 34.2643 41.1543 34 41.6328C33.7402 42.1113 33.3711 42.4805 32.8926 42.7402C32.4141 43 31.849 43.1299 31.1973 43.1299ZM30.876 41.7285C31.2223 41.7285 31.5368 41.6488 31.8193 41.4893C32.1064 41.3298 32.3343 41.1133 32.5029 40.8398C32.6761 40.5618 32.7627 40.2497 32.7627 39.9033C32.7627 39.361 32.5872 38.9167 32.2363 38.5703C31.8854 38.2194 31.4388 38.0439 30.8965 38.0439C30.5091 38.0439 30.165 38.1419 29.8643 38.3379C29.5635 38.5339 29.3447 38.8141 29.208 39.1787C29.208 39.4066 29.2057 39.6344 29.2012 39.8623C29.2012 40.0902 29.2012 40.318 29.2012 40.5459C29.2012 40.5687 29.2148 40.6165 29.2422 40.6895C29.2741 40.7624 29.2946 40.8102 29.3037 40.833C29.4495 41.1292 29.6683 41.3525 29.96 41.5029C30.2516 41.6533 30.557 41.7285 30.876 41.7285ZM35.7295 43C35.5426 43 35.4492 42.9043 35.4492 42.7129C35.4492 42.4622 35.4515 42.2139 35.4561 41.9678C35.4652 41.7171 35.472 41.4665 35.4766 41.2158C35.4857 40.6917 35.4925 40.1676 35.4971 39.6436C35.5016 39.1195 35.5039 38.5954 35.5039 38.0713C35.5039 37.5472 35.5016 37.0231 35.4971 36.499C35.4925 35.9749 35.4857 35.4508 35.4766 34.9268C35.472 34.6761 35.4652 34.4277 35.4561 34.1816C35.4515 33.931 35.4492 33.6803 35.4492 33.4297C35.4492 33.2383 35.5426 33.1426 35.7295 33.1426H36.7686C36.8779 33.1426 36.9486 33.1654 36.9805 33.2109C37.0169 33.2565 37.0397 33.3271 37.0488 33.4229C37.0579 33.4821 37.0602 33.5459 37.0557 33.6143C37.0511 33.6826 37.0511 33.7487 37.0557 33.8125L37.0625 34.7285C37.0671 35.1842 37.0693 35.6423 37.0693 36.1025C37.0739 36.5583 37.0762 37.0163 37.0762 37.4766C37.0762 37.4857 37.0762 37.513 37.0762 37.5586C37.0807 37.5996 37.0967 37.6201 37.124 37.6201C37.1468 37.6201 37.1696 37.6087 37.1924 37.5859C37.2152 37.5632 37.2311 37.5449 37.2402 37.5312C37.7917 36.9342 38.4889 36.6357 39.332 36.6357C39.6921 36.6357 40.027 36.7087 40.3369 36.8545C40.6468 36.9958 40.8975 37.2031 41.0889 37.4766C41.2848 37.75 41.3828 38.0781 41.3828 38.4609C41.3828 39.1673 41.3896 39.876 41.4033 40.5869C41.4215 41.2979 41.4307 42.0065 41.4307 42.7129C41.4307 42.9043 41.3372 43 41.1504 43H40.0771C39.9678 43 39.8949 42.9772 39.8584 42.9316C39.8265 42.8861 39.806 42.8154 39.7969 42.7197C39.7786 42.5648 39.7718 42.3779 39.7764 42.1592C39.7855 41.9359 39.7878 41.7422 39.7832 41.5781C39.7786 41.1543 39.7764 40.7327 39.7764 40.3135C39.7764 39.8896 39.7764 39.4658 39.7764 39.042C39.7764 38.7184 39.6852 38.4769 39.5029 38.3174C39.3206 38.1533 39.0745 38.0713 38.7646 38.0713C38.3818 38.0713 38.0674 38.1921 37.8213 38.4336C37.5798 38.6706 37.3997 38.9622 37.2812 39.3086C37.1628 39.6549 37.1035 39.9922 37.1035 40.3203C37.1035 40.7214 37.1012 41.1224 37.0967 41.5234C37.0921 41.9199 37.0876 42.3187 37.083 42.7197C37.083 42.9066 36.9896 43 36.8027 43H35.7295ZM45.1836 43.1299C44.5911 43.1299 44.0944 42.9886 43.6934 42.7061C43.2923 42.4235 42.9893 42.0498 42.7842 41.585C42.5837 41.1156 42.4834 40.6074 42.4834 40.0605V39.9512C42.4925 39.377 42.611 38.8369 42.8389 38.3311C43.0713 37.8252 43.4062 37.4173 43.8438 37.1074C44.2812 36.793 44.8099 36.6357 45.4297 36.6357C45.8125 36.6357 46.168 36.7087 46.4961 36.8545C46.8288 36.9958 47.1387 37.1895 47.4258 37.4355C47.4577 37.4674 47.485 37.4834 47.5078 37.4834C47.5625 37.4834 47.5876 37.4264 47.583 37.3125C47.583 37.1986 47.599 37.0846 47.6309 36.9707C47.6673 36.8568 47.7585 36.7998 47.9043 36.7998H48.8682C49.055 36.7998 49.1484 36.8932 49.1484 37.0801C49.1484 37.276 49.1462 37.472 49.1416 37.668C49.1416 37.8639 49.1416 38.0599 49.1416 38.2559C49.1416 38.7572 49.1439 39.2607 49.1484 39.7666C49.1576 40.2725 49.1644 40.776 49.1689 41.2773C49.1735 41.5143 49.1781 41.7536 49.1826 41.9951C49.1917 42.2321 49.1963 42.4714 49.1963 42.7129C49.1963 42.9043 49.1029 43 48.916 43H47.8428C47.7197 43 47.64 42.9613 47.6035 42.8838C47.5671 42.8018 47.5511 42.7061 47.5557 42.5967C47.5602 42.4873 47.5602 42.3893 47.5557 42.3027C47.5557 42.2891 47.5534 42.2663 47.5488 42.2344C47.5443 42.2025 47.5306 42.1865 47.5078 42.1865C47.4896 42.1865 47.4714 42.1934 47.4531 42.207C47.4395 42.2207 47.4258 42.2321 47.4121 42.2412C47.0931 42.5101 46.749 42.7266 46.3799 42.8906C46.0107 43.0501 45.612 43.1299 45.1836 43.1299ZM45.8809 41.6738C46.2044 41.6738 46.5029 41.6077 46.7764 41.4756C47.0544 41.3389 47.2708 41.1247 47.4258 40.833C47.4349 40.8148 47.4554 40.7692 47.4873 40.6963C47.5238 40.6188 47.542 40.571 47.542 40.5527C47.542 40.3932 47.5397 40.2337 47.5352 40.0742C47.5352 39.9147 47.5352 39.7575 47.5352 39.6025C47.5352 39.5296 47.5374 39.4499 47.542 39.3633C47.5465 39.2721 47.5443 39.1924 47.5352 39.124C47.5306 39.0921 47.5124 39.0443 47.4805 38.9805C47.4531 38.9167 47.4326 38.8711 47.4189 38.8438C47.2594 38.5566 47.0339 38.3424 46.7422 38.2012C46.4505 38.0599 46.1452 37.9893 45.8262 37.9893C45.4889 37.9893 45.1927 38.0736 44.9375 38.2422C44.6823 38.4108 44.4818 38.6341 44.3359 38.9121C44.1947 39.1855 44.124 39.4863 44.124 39.8145C44.124 40.1426 44.1992 40.4479 44.3496 40.7305C44.5 41.013 44.7074 41.2409 44.9717 41.4141C45.2406 41.5872 45.5436 41.6738 45.8809 41.6738ZM50.4814 34.4688C50.4814 34.2181 50.5749 34.0039 50.7617 33.8262C50.9486 33.6439 51.1673 33.5527 51.418 33.5527C51.6732 33.5527 51.8965 33.6462 52.0879 33.833C52.2839 34.0153 52.3818 34.2363 52.3818 34.4961C52.3818 34.7467 52.2884 34.9655 52.1016 35.1523C51.9193 35.3346 51.7005 35.4258 51.4453 35.4258C51.1855 35.4258 50.96 35.3324 50.7686 35.1455C50.5771 34.9541 50.4814 34.7285 50.4814 34.4688ZM50.584 38.5908V37.0801C50.584 36.8932 50.6774 36.7998 50.8643 36.7998H51.917C52.1038 36.7998 52.1973 36.8932 52.1973 37.0801C52.1973 38.0189 52.1995 38.96 52.2041 39.9033C52.2087 40.8421 52.2109 41.7809 52.2109 42.7197C52.2109 42.9066 52.1175 43 51.9307 43H50.8506C50.6637 43 50.5703 42.9066 50.5703 42.7197C50.5703 42.0316 50.5726 41.3434 50.5771 40.6553C50.5817 39.9671 50.584 39.279 50.584 38.5908ZM54.8428 36.7998C55.0114 36.7998 55.1048 36.8818 55.123 37.0459C55.1367 37.137 55.1481 37.2282 55.1572 37.3193C55.1663 37.4105 55.1755 37.5016 55.1846 37.5928C55.1846 37.6019 55.1891 37.6292 55.1982 37.6748C55.2074 37.7158 55.2233 37.7363 55.2461 37.7363C55.2689 37.7363 55.2894 37.7227 55.3076 37.6953C55.3304 37.668 55.3464 37.6475 55.3555 37.6338C55.6289 37.2829 55.9616 37.0299 56.3535 36.875C56.7454 36.7201 57.1579 36.6426 57.5908 36.6426C57.9463 36.6426 58.2721 36.7178 58.5684 36.8682C58.8691 37.014 59.1107 37.2236 59.293 37.4971C59.4753 37.766 59.5664 38.0872 59.5664 38.4609C59.5664 39.1673 59.5732 39.876 59.5869 40.5869C59.6051 41.2979 59.6143 42.0065 59.6143 42.7129C59.6143 42.9043 59.5208 43 59.334 43H58.2607C58.0876 43 57.9941 42.9066 57.9805 42.7197C57.9668 42.5238 57.9622 42.3278 57.9668 42.1318C57.9714 41.9313 57.9714 41.7331 57.9668 41.5371C57.9622 41.1178 57.96 40.7008 57.96 40.2861C57.96 39.8714 57.96 39.4567 57.96 39.042C57.96 38.7184 57.8665 38.4769 57.6797 38.3174C57.4928 38.1533 57.2445 38.0713 56.9346 38.0713C56.5472 38.0713 56.2282 38.1898 55.9775 38.4268C55.7314 38.6637 55.5469 38.9554 55.4238 39.3018C55.3053 39.6481 55.2461 39.9876 55.2461 40.3203C55.2461 40.7214 55.2438 41.1224 55.2393 41.5234C55.2347 41.9199 55.2301 42.3187 55.2256 42.7197C55.2256 42.9066 55.1322 43 54.9453 43H53.8721C53.6852 43 53.5918 42.9043 53.5918 42.7129C53.5918 42.4577 53.5941 42.2048 53.5986 41.9541C53.6077 41.6989 53.6146 41.446 53.6191 41.1953C53.6328 40.1289 53.6396 39.0625 53.6396 37.9961V37.0801C53.6396 36.8932 53.7331 36.7998 53.9199 36.7998H54.8428ZM63.9688 43.1641C63.3034 43.1641 62.7223 43.0319 62.2256 42.7676C61.7334 42.5033 61.3506 42.1273 61.0771 41.6396C60.8037 41.152 60.667 40.5732 60.667 39.9033C60.667 39.279 60.7969 38.7184 61.0566 38.2217C61.3164 37.7249 61.6833 37.333 62.1572 37.0459C62.6312 36.7542 63.1872 36.6084 63.8252 36.6084C64.6136 36.6084 65.2311 36.8294 65.6777 37.2715C66.1289 37.7135 66.4342 38.3014 66.5938 39.0352C66.5983 39.0488 66.6006 39.0716 66.6006 39.1035C66.6006 39.1719 66.5824 39.2243 66.5459 39.2607C66.514 39.2926 66.4707 39.32 66.416 39.3428C66.2611 39.4157 66.097 39.4795 65.9238 39.5342C65.7507 39.5889 65.582 39.6481 65.418 39.7119C64.9395 39.8896 64.4587 40.0651 63.9756 40.2383C63.4925 40.4069 63.014 40.5869 62.54 40.7783C62.5036 40.7965 62.4854 40.8193 62.4854 40.8467C62.4854 40.8604 62.4899 40.8763 62.499 40.8945C62.6813 41.2227 62.932 41.4665 63.251 41.626C63.57 41.7855 63.9118 41.8652 64.2764 41.8652C64.5635 41.8652 64.8301 41.8197 65.0762 41.7285C65.3268 41.6374 65.5729 41.5234 65.8145 41.3867C65.8464 41.3685 65.8783 41.3525 65.9102 41.3389C65.9421 41.3252 65.974 41.3184 66.0059 41.3184C66.0697 41.3184 66.1175 41.3389 66.1494 41.3799C66.1859 41.4163 66.2155 41.4596 66.2383 41.5098C66.2565 41.5417 66.2907 41.6146 66.3408 41.7285C66.3955 41.8379 66.4456 41.9495 66.4912 42.0635C66.5413 42.1729 66.5664 42.2435 66.5664 42.2754C66.5664 42.3255 66.5527 42.3665 66.5254 42.3984C66.498 42.4303 66.4661 42.46 66.4297 42.4873C66.1061 42.7106 65.7119 42.8792 65.2471 42.9932C64.7868 43.1071 64.3607 43.1641 63.9688 43.1641ZM62.2529 39.835C62.7132 39.6755 63.1735 39.516 63.6338 39.3564C64.0941 39.1969 64.5521 39.0374 65.0078 38.8779C64.8939 38.6273 64.7344 38.4085 64.5293 38.2217C64.3288 38.0348 64.0804 37.9414 63.7842 37.9414C63.4378 37.9414 63.1507 38.0348 62.9229 38.2217C62.695 38.4085 62.5264 38.6478 62.417 38.9395C62.3076 39.2266 62.2529 39.5251 62.2529 39.835ZM69.4102 41.7285C69.474 41.7285 69.5423 41.7399 69.6152 41.7627C69.6882 41.7809 69.7246 41.8333 69.7246 41.9199C69.7246 41.9564 69.7178 41.9928 69.7041 42.0293C69.6904 42.0658 69.6745 42.1022 69.6562 42.1387C69.5378 42.3802 69.4147 42.6217 69.2871 42.8633C69.1595 43.1003 69.0319 43.3395 68.9043 43.5811C68.8132 43.7542 68.722 43.9274 68.6309 44.1006C68.5443 44.2783 68.4486 44.4515 68.3438 44.6201C68.2891 44.7158 68.207 44.7637 68.0977 44.7637H67.3457C67.2819 44.7637 67.2135 44.7523 67.1406 44.7295C67.0677 44.7113 67.0312 44.6589 67.0312 44.5723C67.0312 44.5358 67.0381 44.4971 67.0518 44.4561C67.0654 44.4196 67.0814 44.3854 67.0996 44.3535C67.2181 44.0983 67.3389 43.8454 67.4619 43.5947C67.5895 43.3441 67.7148 43.0934 67.8379 42.8428C67.9154 42.6833 67.9883 42.5238 68.0566 42.3643C68.1296 42.2002 68.207 42.0407 68.2891 41.8857C68.3438 41.7809 68.4281 41.7285 68.542 41.7285H69.4102ZM76.7861 43.1299C76.1663 43.1299 75.6445 42.984 75.2207 42.6924C74.7969 42.4007 74.4756 42.0111 74.2568 41.5234C74.0381 41.0358 73.9287 40.5026 73.9287 39.9238C73.9287 39.2949 74.0449 38.7344 74.2773 38.2422C74.5143 37.7454 74.8584 37.3535 75.3096 37.0664C75.7607 36.7793 76.3145 36.6357 76.9707 36.6357C77.6953 36.6357 78.3265 36.8454 78.8643 37.2646C78.9053 37.2965 78.9372 37.3125 78.96 37.3125C78.9873 37.3125 79.0033 37.2965 79.0078 37.2646C79.0124 37.2327 79.0146 37.21 79.0146 37.1963C79.0146 36.7679 79.0146 36.3418 79.0146 35.918C79.0192 35.4941 79.0238 35.068 79.0283 34.6396C79.0329 34.4391 79.0329 34.2363 79.0283 34.0312C79.0238 33.8216 79.0283 33.6188 79.042 33.4229C79.0557 33.236 79.1491 33.1426 79.3223 33.1426H80.3887C80.5755 33.1426 80.6689 33.2383 80.6689 33.4297C80.6689 33.6803 80.6644 33.931 80.6553 34.1816C80.6507 34.4277 80.6462 34.6761 80.6416 34.9268C80.6279 35.9704 80.6211 37.0186 80.6211 38.0713C80.6211 39.1195 80.6279 40.1676 80.6416 41.2158C80.6462 41.4665 80.6507 41.7171 80.6553 41.9678C80.6644 42.2139 80.6689 42.4622 80.6689 42.7129C80.6689 42.9043 80.5755 43 80.3887 43H79.3086C79.14 43 79.0511 42.9362 79.042 42.8086C79.0374 42.681 79.0329 42.5579 79.0283 42.4395C79.0283 42.4258 79.026 42.4053 79.0215 42.3779C79.0169 42.346 79.0033 42.3301 78.9805 42.3301C78.9577 42.3301 78.9258 42.346 78.8848 42.3779C78.5794 42.6195 78.2513 42.8063 77.9004 42.9385C77.5495 43.0661 77.1781 43.1299 76.7861 43.1299ZM77.2852 41.6191C77.6862 41.6191 78.0394 41.528 78.3447 41.3457C78.6501 41.1634 78.8734 40.8786 79.0146 40.4912C79.0101 40.3317 79.0078 40.1745 79.0078 40.0195C79.0078 39.8646 79.0078 39.7096 79.0078 39.5547C79.0078 39.4818 79.0101 39.402 79.0146 39.3154C79.0192 39.2288 79.0169 39.1514 79.0078 39.083C79.0033 39.0329 78.9782 38.9668 78.9326 38.8848C78.887 38.8027 78.8529 38.7412 78.8301 38.7002C78.6615 38.445 78.4359 38.2559 78.1533 38.1328C77.8753 38.0052 77.5859 37.9414 77.2852 37.9414C76.9388 37.9414 76.6357 38.028 76.376 38.2012C76.1208 38.3743 75.9225 38.6022 75.7812 38.8848C75.6445 39.1673 75.5762 39.4749 75.5762 39.8076C75.5762 40.1221 75.6491 40.4183 75.7949 40.6963C75.9453 40.9697 76.1504 41.193 76.4102 41.3662C76.6699 41.5348 76.9616 41.6191 77.2852 41.6191ZM85.0234 43.1641C84.3581 43.1641 83.777 43.0319 83.2803 42.7676C82.7881 42.5033 82.4053 42.1273 82.1318 41.6396C81.8584 41.152 81.7217 40.5732 81.7217 39.9033C81.7217 39.279 81.8516 38.7184 82.1113 38.2217C82.3711 37.7249 82.738 37.333 83.2119 37.0459C83.6859 36.7542 84.2419 36.6084 84.8799 36.6084C85.6683 36.6084 86.2858 36.8294 86.7324 37.2715C87.1836 37.7135 87.4889 38.3014 87.6484 39.0352C87.653 39.0488 87.6553 39.0716 87.6553 39.1035C87.6553 39.1719 87.637 39.2243 87.6006 39.2607C87.5687 39.2926 87.5254 39.32 87.4707 39.3428C87.3158 39.4157 87.1517 39.4795 86.9785 39.5342C86.8053 39.5889 86.6367 39.6481 86.4727 39.7119C85.9941 39.8896 85.5133 40.0651 85.0303 40.2383C84.5472 40.4069 84.0687 40.5869 83.5947 40.7783C83.5583 40.7965 83.54 40.8193 83.54 40.8467C83.54 40.8604 83.5446 40.8763 83.5537 40.8945C83.736 41.2227 83.9867 41.4665 84.3057 41.626C84.6247 41.7855 84.9665 41.8652 85.3311 41.8652C85.6182 41.8652 85.8848 41.8197 86.1309 41.7285C86.3815 41.6374 86.6276 41.5234 86.8691 41.3867C86.901 41.3685 86.9329 41.3525 86.9648 41.3389C86.9967 41.3252 87.0286 41.3184 87.0605 41.3184C87.1243 41.3184 87.1722 41.3389 87.2041 41.3799C87.2406 41.4163 87.2702 41.4596 87.293 41.5098C87.3112 41.5417 87.3454 41.6146 87.3955 41.7285C87.4502 41.8379 87.5003 41.9495 87.5459 42.0635C87.596 42.1729 87.6211 42.2435 87.6211 42.2754C87.6211 42.3255 87.6074 42.3665 87.5801 42.3984C87.5527 42.4303 87.5208 42.46 87.4844 42.4873C87.1608 42.7106 86.7666 42.8792 86.3018 42.9932C85.8415 43.1071 85.4154 43.1641 85.0234 43.1641ZM83.3076 39.835C83.7679 39.6755 84.2282 39.516 84.6885 39.3564C85.1488 39.1969 85.6068 39.0374 86.0625 38.8779C85.9486 38.6273 85.7891 38.4085 85.584 38.2217C85.3835 38.0348 85.1351 37.9414 84.8389 37.9414C84.4925 37.9414 84.2054 38.0348 83.9775 38.2217C83.7497 38.4085 83.5811 38.6478 83.4717 38.9395C83.3623 39.2266 83.3076 39.5251 83.3076 39.835ZM90.0273 43.1777C89.7676 43.1777 89.4964 43.1299 89.2139 43.0342C88.9313 42.9385 88.6966 42.7949 88.5098 42.6035C88.4551 42.5488 88.4277 42.4896 88.4277 42.4258C88.4277 42.3984 88.4414 42.3301 88.4688 42.2207C88.5007 42.1068 88.5348 41.9906 88.5713 41.8721C88.6077 41.7536 88.6305 41.6761 88.6396 41.6396C88.6579 41.585 88.6829 41.5326 88.7148 41.4824C88.7467 41.4277 88.7969 41.4004 88.8652 41.4004C88.9518 41.4004 89.0863 41.4574 89.2686 41.5713C89.4508 41.6852 89.6605 41.7422 89.8975 41.7422C90.3122 41.7422 90.5195 41.5417 90.5195 41.1406C90.5195 40.8809 90.4352 40.7008 90.2666 40.6006C90.1025 40.5003 89.9248 40.4001 89.7334 40.2998C89.3506 40.0947 89.0589 39.8441 88.8584 39.5479C88.6579 39.2516 88.5576 38.8825 88.5576 38.4404C88.5576 37.8799 88.7217 37.4424 89.0498 37.1279C89.3825 36.8135 89.8245 36.6562 90.376 36.6562C90.4443 36.6562 90.5492 36.6654 90.6904 36.6836C90.8363 36.7018 90.9867 36.7314 91.1416 36.7725C91.2965 36.8089 91.4287 36.8613 91.5381 36.9297C91.6475 36.9935 91.7021 37.071 91.7021 37.1621C91.7021 37.2487 91.6839 37.3444 91.6475 37.4492C91.611 37.5495 91.5814 37.6429 91.5586 37.7295C91.5404 37.7887 91.5153 37.8457 91.4834 37.9004C91.4515 37.9551 91.3968 37.9824 91.3193 37.9824C91.2236 37.9824 91.1211 37.9574 91.0117 37.9072C90.9023 37.8571 90.7839 37.832 90.6562 37.832C90.4831 37.832 90.3304 37.8844 90.1982 37.9893C90.0661 38.0895 90 38.2331 90 38.4199C90 38.6341 90.0638 38.8005 90.1914 38.9189C90.3236 39.0374 90.4854 39.1423 90.6768 39.2334C90.8682 39.3245 91.0596 39.4362 91.251 39.5684C91.4424 39.7005 91.6019 39.8851 91.7295 40.1221C91.8617 40.3545 91.9277 40.6758 91.9277 41.0859C91.9277 41.6693 91.7637 42.1637 91.4355 42.5693C91.112 42.9749 90.6426 43.1777 90.0273 43.1777ZM92.8916 34.4688C92.8916 34.2181 92.985 34.0039 93.1719 33.8262C93.3587 33.6439 93.5775 33.5527 93.8281 33.5527C94.0833 33.5527 94.3066 33.6462 94.498 33.833C94.694 34.0153 94.792 34.2363 94.792 34.4961C94.792 34.7467 94.6986 34.9655 94.5117 35.1523C94.3294 35.3346 94.1107 35.4258 93.8555 35.4258C93.5957 35.4258 93.3701 35.3324 93.1787 35.1455C92.9873 34.9541 92.8916 34.7285 92.8916 34.4688ZM92.9941 38.5908V37.0801C92.9941 36.8932 93.0876 36.7998 93.2744 36.7998H94.3271C94.514 36.7998 94.6074 36.8932 94.6074 37.0801C94.6074 38.0189 94.6097 38.96 94.6143 39.9033C94.6188 40.8421 94.6211 41.7809 94.6211 42.7197C94.6211 42.9066 94.5277 43 94.3408 43H93.2607C93.0739 43 92.9805 42.9066 92.9805 42.7197C92.9805 42.0316 92.9827 41.3434 92.9873 40.6553C92.9919 39.9671 92.9941 39.279 92.9941 38.5908ZM98.832 45.3994C97.834 45.3994 97.0023 45.0439 96.3369 44.333C96.3141 44.3057 96.2936 44.2783 96.2754 44.251C96.2572 44.2236 96.248 44.1917 96.248 44.1553C96.248 44.1097 96.2822 44.0368 96.3506 43.9365C96.4235 43.8363 96.501 43.7337 96.583 43.6289C96.6696 43.5286 96.7288 43.4603 96.7607 43.4238C96.7926 43.3919 96.8245 43.3623 96.8564 43.335C96.8883 43.3122 96.9271 43.3008 96.9727 43.3008C97.0091 43.3008 97.041 43.3076 97.0684 43.3213C97.1003 43.335 97.1299 43.3509 97.1572 43.3691C97.3988 43.5104 97.6403 43.6175 97.8818 43.6904C98.1279 43.7679 98.3923 43.8066 98.6748 43.8066C98.93 43.8066 99.1852 43.7725 99.4404 43.7041C99.6956 43.6357 99.9098 43.515 100.083 43.3418C100.256 43.1732 100.343 42.9362 100.343 42.6309C100.343 42.6081 100.343 42.5511 100.343 42.46C100.347 42.3688 100.336 42.3232 100.309 42.3232C100.29 42.3232 100.272 42.3324 100.254 42.3506C100.24 42.3688 100.229 42.3825 100.22 42.3916C99.7503 42.8792 99.1738 43.123 98.4902 43.123C97.9251 43.123 97.4375 42.9727 97.0273 42.6719C96.6172 42.3711 96.3005 41.9837 96.0771 41.5098C95.8584 41.0312 95.749 40.5299 95.749 40.0059V39.8691C95.749 39.4909 95.8128 39.1126 95.9404 38.7344C96.068 38.3561 96.2503 38.0075 96.4873 37.6885C96.7288 37.3695 97.016 37.1143 97.3486 36.9229C97.6859 36.7314 98.0596 36.6357 98.4697 36.6357C98.7933 36.6357 99.1055 36.679 99.4062 36.7656C99.707 36.8522 99.9827 37.0003 100.233 37.21C100.261 37.2373 100.29 37.251 100.322 37.251C100.368 37.251 100.393 37.2145 100.397 37.1416C100.402 37.0641 100.418 36.9889 100.445 36.916C100.473 36.8385 100.539 36.7998 100.644 36.7998H101.662C101.849 36.7998 101.942 36.8932 101.942 37.0801C101.942 37.3034 101.94 37.529 101.936 37.7568C101.936 37.9847 101.936 38.2126 101.936 38.4404C101.936 39.1286 101.942 39.8167 101.956 40.5049C101.974 41.193 101.983 41.8835 101.983 42.5762C101.983 43.1504 101.833 43.6494 101.532 44.0732C101.236 44.4971 100.849 44.8229 100.37 45.0508C99.8916 45.2832 99.3789 45.3994 98.832 45.3994ZM98.9414 41.6738C99.2878 41.6738 99.5771 41.5645 99.8096 41.3457C100.042 41.127 100.215 40.8649 100.329 40.5596V39.1309C100.329 39.1126 100.313 39.0671 100.281 38.9941C100.249 38.9167 100.229 38.8711 100.22 38.8574C100.083 38.5885 99.8962 38.3766 99.6592 38.2217C99.4222 38.0667 99.1533 37.9893 98.8525 37.9893C98.5199 37.9893 98.2441 38.0758 98.0254 38.249C97.8066 38.4176 97.6426 38.6364 97.5332 38.9053C97.4284 39.1742 97.376 39.459 97.376 39.7598C97.376 40.056 97.4375 40.3522 97.5605 40.6484C97.6836 40.9447 97.8613 41.1908 98.0938 41.3867C98.3262 41.5781 98.6087 41.6738 98.9414 41.6738ZM104.54 36.7998C104.709 36.7998 104.802 36.8818 104.82 37.0459C104.834 37.137 104.845 37.2282 104.854 37.3193C104.864 37.4105 104.873 37.5016 104.882 37.5928C104.882 37.6019 104.886 37.6292 104.896 37.6748C104.905 37.7158 104.921 37.7363 104.943 37.7363C104.966 37.7363 104.987 37.7227 105.005 37.6953C105.028 37.668 105.044 37.6475 105.053 37.6338C105.326 37.2829 105.659 37.0299 106.051 36.875C106.443 36.7201 106.855 36.6426 107.288 36.6426C107.644 36.6426 107.969 36.7178 108.266 36.8682C108.566 37.014 108.808 37.2236 108.99 37.4971C109.173 37.766 109.264 38.0872 109.264 38.4609C109.264 39.1673 109.271 39.876 109.284 40.5869C109.302 41.2979 109.312 42.0065 109.312 42.7129C109.312 42.9043 109.218 43 109.031 43H107.958C107.785 43 107.691 42.9066 107.678 42.7197C107.664 42.5238 107.66 42.3278 107.664 42.1318C107.669 41.9313 107.669 41.7331 107.664 41.5371C107.66 41.1178 107.657 40.7008 107.657 40.2861C107.657 39.8714 107.657 39.4567 107.657 39.042C107.657 38.7184 107.564 38.4769 107.377 38.3174C107.19 38.1533 106.942 38.0713 106.632 38.0713C106.244 38.0713 105.925 38.1898 105.675 38.4268C105.429 38.6637 105.244 38.9554 105.121 39.3018C105.003 39.6481 104.943 39.9876 104.943 40.3203C104.943 40.7214 104.941 41.1224 104.937 41.5234C104.932 41.9199 104.927 42.3187 104.923 42.7197C104.923 42.9066 104.829 43 104.643 43H103.569C103.382 43 103.289 42.9043 103.289 42.7129C103.289 42.4577 103.291 42.2048 103.296 41.9541C103.305 41.6989 103.312 41.446 103.316 41.1953C103.33 40.1289 103.337 39.0625 103.337 37.9961V37.0801C103.337 36.8932 103.43 36.7998 103.617 36.7998H104.54ZM113.666 43.1641C113.001 43.1641 112.42 43.0319 111.923 42.7676C111.431 42.5033 111.048 42.1273 110.774 41.6396C110.501 41.152 110.364 40.5732 110.364 39.9033C110.364 39.279 110.494 38.7184 110.754 38.2217C111.014 37.7249 111.381 37.333 111.854 37.0459C112.328 36.7542 112.884 36.6084 113.522 36.6084C114.311 36.6084 114.928 36.8294 115.375 37.2715C115.826 37.7135 116.132 38.3014 116.291 39.0352C116.296 39.0488 116.298 39.0716 116.298 39.1035C116.298 39.1719 116.28 39.2243 116.243 39.2607C116.211 39.2926 116.168 39.32 116.113 39.3428C115.958 39.4157 115.794 39.4795 115.621 39.5342C115.448 39.5889 115.279 39.6481 115.115 39.7119C114.637 39.8896 114.156 40.0651 113.673 40.2383C113.19 40.4069 112.711 40.5869 112.237 40.7783C112.201 40.7965 112.183 40.8193 112.183 40.8467C112.183 40.8604 112.187 40.8763 112.196 40.8945C112.379 41.2227 112.629 41.4665 112.948 41.626C113.267 41.7855 113.609 41.8652 113.974 41.8652C114.261 41.8652 114.527 41.8197 114.773 41.7285C115.024 41.6374 115.27 41.5234 115.512 41.3867C115.544 41.3685 115.576 41.3525 115.607 41.3389C115.639 41.3252 115.671 41.3184 115.703 41.3184C115.767 41.3184 115.815 41.3389 115.847 41.3799C115.883 41.4163 115.913 41.4596 115.936 41.5098C115.954 41.5417 115.988 41.6146 116.038 41.7285C116.093 41.8379 116.143 41.9495 116.188 42.0635C116.239 42.1729 116.264 42.2435 116.264 42.2754C116.264 42.3255 116.25 42.3665 116.223 42.3984C116.195 42.4303 116.163 42.46 116.127 42.4873C115.803 42.7106 115.409 42.8792 114.944 42.9932C114.484 43.1071 114.058 43.1641 113.666 43.1641ZM111.95 39.835C112.41 39.6755 112.871 39.516 113.331 39.3564C113.791 39.1969 114.249 39.0374 114.705 38.8779C114.591 38.6273 114.432 38.4085 114.227 38.2217C114.026 38.0348 113.778 37.9414 113.481 37.9414C113.135 37.9414 112.848 38.0348 112.62 38.2217C112.392 38.4085 112.224 38.6478 112.114 38.9395C112.005 39.2266 111.95 39.5251 111.95 39.835ZM118.588 36.7998C118.761 36.7998 118.854 36.8841 118.868 37.0527L118.937 37.832C118.937 37.8366 118.941 37.8708 118.95 37.9346C118.959 37.9938 118.975 38.0234 118.998 38.0234C119.021 38.0234 119.044 37.9984 119.066 37.9482C119.094 37.8981 119.11 37.8685 119.114 37.8594C119.301 37.5085 119.529 37.2327 119.798 37.0322C120.067 36.8317 120.406 36.7314 120.816 36.7314C120.912 36.7314 121.033 36.7406 121.179 36.7588C121.329 36.7725 121.404 36.8477 121.404 36.9844C121.404 37.0527 121.391 37.1598 121.363 37.3057C121.336 37.4515 121.304 37.5996 121.268 37.75C121.236 37.8958 121.211 38.0075 121.192 38.085C121.174 38.1624 121.145 38.224 121.104 38.2695C121.067 38.3105 121.003 38.3311 120.912 38.3311C120.867 38.3311 120.821 38.3288 120.775 38.3242C120.734 38.3151 120.689 38.3105 120.639 38.3105C120.279 38.3105 119.976 38.4245 119.729 38.6523C119.483 38.8757 119.299 39.1514 119.176 39.4795C119.053 39.8076 118.991 40.1312 118.991 40.4502V42.7197C118.991 42.9066 118.898 43 118.711 43H117.651C117.465 43 117.371 42.9043 117.371 42.7129C117.371 42.0065 117.373 41.3024 117.378 40.6006C117.387 39.8942 117.392 39.1901 117.392 38.4883V37.0801C117.392 36.8932 117.485 36.7998 117.672 36.7998H118.588Z" fill="black"/>
<path d="M69 0L79.3923 23.25H58.6077L69 0Z" fill="white"/>
</svg>
