<svg width="184" height="58" viewBox="0 0 184 58" fill="none" xmlns="http://www.w3.org/2000/svg">
<rect y="19" width="184" height="39" rx="16" fill="white"/>
<path d="M16.7158 43C16.529 43 16.4355 42.9043 16.4355 42.7129C16.4355 42.4622 16.4401 42.2116 16.4492 41.9609C16.4629 41.7103 16.472 41.4596 16.4766 41.209C16.4902 40.6803 16.4993 40.154 16.5039 39.6299C16.5085 39.1012 16.5107 38.5749 16.5107 38.0508C16.5107 37.3854 16.5062 36.7201 16.4971 36.0547C16.488 35.3893 16.4743 34.7262 16.4561 34.0654V33.9971C16.4561 33.9606 16.4606 33.8786 16.4697 33.751C16.4834 33.6234 16.5267 33.5596 16.5996 33.5596C16.6634 33.5596 16.7318 33.6051 16.8047 33.6963C16.8776 33.7874 16.93 33.8535 16.9619 33.8945C17.6637 34.847 18.3405 35.8223 18.9922 36.8203C19.6439 37.8138 20.3115 38.7936 20.9951 39.7598C21.0179 39.7917 21.0407 39.8076 21.0635 39.8076C21.0863 39.8076 21.109 39.7917 21.1318 39.7598C21.8337 38.7891 22.5173 37.8047 23.1826 36.8066C23.8525 35.8086 24.5452 34.8311 25.2607 33.874C25.2926 33.833 25.3451 33.7692 25.418 33.6826C25.4954 33.5915 25.5638 33.5459 25.623 33.5459C25.7005 33.5459 25.7438 33.6097 25.7529 33.7373C25.762 33.8649 25.7666 33.9469 25.7666 33.9834V34.0518C25.7484 34.7171 25.7347 35.3848 25.7256 36.0547C25.7165 36.7201 25.7119 37.3854 25.7119 38.0508C25.7119 38.5749 25.7142 39.1012 25.7188 39.6299C25.7233 40.154 25.7324 40.6803 25.7461 41.209C25.7552 41.4596 25.7643 41.7103 25.7734 41.9609C25.7826 42.2116 25.7871 42.4622 25.7871 42.7129C25.7871 42.9043 25.6937 43 25.5068 43H24.3311C24.2308 43 24.1602 42.9772 24.1191 42.9316C24.0827 42.8861 24.0599 42.8177 24.0508 42.7266C24.0462 42.6628 24.0439 42.5944 24.0439 42.5215C24.0439 42.444 24.0439 42.3711 24.0439 42.3027L24.0303 41.3115C24.0212 40.8148 24.0143 40.318 24.0098 39.8213C24.0052 39.3245 24.0029 38.8278 24.0029 38.3311C24.0029 38.3219 24.0007 38.2946 23.9961 38.249C23.9961 38.1989 23.9847 38.1738 23.9619 38.1738C23.9437 38.1738 23.9232 38.1921 23.9004 38.2285C23.8776 38.2604 23.8617 38.2809 23.8525 38.29C23.5563 38.7458 23.2624 39.2061 22.9707 39.6709C22.6836 40.1312 22.3919 40.5915 22.0957 41.0518C21.9772 41.2386 21.8587 41.4277 21.7402 41.6191C21.6217 41.8105 21.4987 41.9974 21.3711 42.1797C21.3438 42.2161 21.3118 42.2572 21.2754 42.3027C21.2389 42.3438 21.1934 42.3643 21.1387 42.3643C21.0885 42.3643 21.043 42.346 21.002 42.3096C20.9655 42.2686 20.9336 42.2298 20.9062 42.1934C20.7923 42.0339 20.6784 41.8721 20.5645 41.708C20.4551 41.5439 20.3457 41.3799 20.2363 41.2158C19.9173 40.751 19.5983 40.2839 19.2793 39.8145C18.9648 39.3405 18.6436 38.8734 18.3154 38.4131C18.3109 38.404 18.2972 38.3857 18.2744 38.3584C18.2516 38.3265 18.2311 38.3105 18.2129 38.3105C18.1901 38.3105 18.1764 38.3333 18.1719 38.3789C18.1673 38.4245 18.165 38.4518 18.165 38.4609C18.165 38.944 18.1628 39.4271 18.1582 39.9102C18.1536 40.3887 18.1468 40.8695 18.1377 41.3525L18.124 42.3164C18.124 42.3802 18.124 42.4486 18.124 42.5215C18.1286 42.5944 18.1263 42.6628 18.1172 42.7266C18.1081 42.8177 18.0853 42.8861 18.0488 42.9316C18.0124 42.9772 17.9417 43 17.8369 43H16.7158ZM29.7383 43.1299C29.1458 43.1299 28.6491 42.9886 28.248 42.7061C27.847 42.4235 27.5439 42.0498 27.3389 41.585C27.1383 41.1156 27.0381 40.6074 27.0381 40.0605V39.9512C27.0472 39.377 27.1657 38.8369 27.3936 38.3311C27.626 37.8252 27.9609 37.4173 28.3984 37.1074C28.8359 36.793 29.3646 36.6357 29.9844 36.6357C30.3672 36.6357 30.7227 36.7087 31.0508 36.8545C31.3835 36.9958 31.6934 37.1895 31.9805 37.4355C32.0124 37.4674 32.0397 37.4834 32.0625 37.4834C32.1172 37.4834 32.1423 37.4264 32.1377 37.3125C32.1377 37.1986 32.1536 37.0846 32.1855 36.9707C32.222 36.8568 32.3132 36.7998 32.459 36.7998H33.4229C33.6097 36.7998 33.7031 36.8932 33.7031 37.0801C33.7031 37.276 33.7008 37.472 33.6963 37.668C33.6963 37.8639 33.6963 38.0599 33.6963 38.2559C33.6963 38.7572 33.6986 39.2607 33.7031 39.7666C33.7122 40.2725 33.7191 40.776 33.7236 41.2773C33.7282 41.5143 33.7327 41.7536 33.7373 41.9951C33.7464 42.2321 33.751 42.4714 33.751 42.7129C33.751 42.9043 33.6576 43 33.4707 43H32.3975C32.2744 43 32.1947 42.9613 32.1582 42.8838C32.1217 42.8018 32.1058 42.7061 32.1104 42.5967C32.1149 42.4873 32.1149 42.3893 32.1104 42.3027C32.1104 42.2891 32.1081 42.2663 32.1035 42.2344C32.099 42.2025 32.0853 42.1865 32.0625 42.1865C32.0443 42.1865 32.026 42.1934 32.0078 42.207C31.9941 42.2207 31.9805 42.2321 31.9668 42.2412C31.6478 42.5101 31.3037 42.7266 30.9346 42.8906C30.5654 43.0501 30.1667 43.1299 29.7383 43.1299ZM30.4355 41.6738C30.7591 41.6738 31.0576 41.6077 31.3311 41.4756C31.609 41.3389 31.8255 41.1247 31.9805 40.833C31.9896 40.8148 32.0101 40.7692 32.042 40.6963C32.0785 40.6188 32.0967 40.571 32.0967 40.5527C32.0967 40.3932 32.0944 40.2337 32.0898 40.0742C32.0898 39.9147 32.0898 39.7575 32.0898 39.6025C32.0898 39.5296 32.0921 39.4499 32.0967 39.3633C32.1012 39.2721 32.099 39.1924 32.0898 39.124C32.0853 39.0921 32.0671 39.0443 32.0352 38.9805C32.0078 38.9167 31.9873 38.8711 31.9736 38.8438C31.8141 38.5566 31.5885 38.3424 31.2969 38.2012C31.0052 38.0599 30.6999 37.9893 30.3809 37.9893C30.0436 37.9893 29.7474 38.0736 29.4922 38.2422C29.237 38.4108 29.0365 38.6341 28.8906 38.9121C28.7493 39.1855 28.6787 39.4863 28.6787 39.8145C28.6787 40.1426 28.7539 40.4479 28.9043 40.7305C29.0547 41.013 29.262 41.2409 29.5264 41.4141C29.7952 41.5872 30.0983 41.6738 30.4355 41.6738ZM36.2734 36.7998C36.4466 36.7998 36.54 36.8841 36.5537 37.0527L36.6221 37.832C36.6221 37.8366 36.6266 37.8708 36.6357 37.9346C36.6449 37.9938 36.6608 38.0234 36.6836 38.0234C36.7064 38.0234 36.7292 37.9984 36.752 37.9482C36.7793 37.8981 36.7952 37.8685 36.7998 37.8594C36.9867 37.5085 37.2145 37.2327 37.4834 37.0322C37.7523 36.8317 38.0918 36.7314 38.502 36.7314C38.5977 36.7314 38.7184 36.7406 38.8643 36.7588C39.0146 36.7725 39.0898 36.8477 39.0898 36.9844C39.0898 37.0527 39.0762 37.1598 39.0488 37.3057C39.0215 37.4515 38.9896 37.5996 38.9531 37.75C38.9212 37.8958 38.8962 38.0075 38.8779 38.085C38.8597 38.1624 38.8301 38.224 38.7891 38.2695C38.7526 38.3105 38.6888 38.3311 38.5977 38.3311C38.5521 38.3311 38.5065 38.3288 38.4609 38.3242C38.4199 38.3151 38.3743 38.3105 38.3242 38.3105C37.9642 38.3105 37.6611 38.4245 37.415 38.6523C37.1689 38.8757 36.9844 39.1514 36.8613 39.4795C36.7383 39.8076 36.6768 40.1312 36.6768 40.4502V42.7197C36.6768 42.9066 36.5833 43 36.3965 43H35.3369C35.1501 43 35.0566 42.9043 35.0566 42.7129C35.0566 42.0065 35.0589 41.3024 35.0635 40.6006C35.0726 39.8942 35.0771 39.1901 35.0771 38.4883V37.0801C35.0771 36.8932 35.1706 36.7998 35.3574 36.7998H36.2734ZM43.7656 41.4277C43.8294 41.4277 43.8773 41.4482 43.9092 41.4893C43.9456 41.5303 43.9753 41.5758 43.998 41.626C44.0163 41.6624 44.0527 41.7513 44.1074 41.8926C44.1621 42.0339 44.2122 42.1729 44.2578 42.3096C44.3079 42.4463 44.333 42.5283 44.333 42.5557C44.333 42.6559 44.2533 42.7425 44.0938 42.8154C43.9388 42.8883 43.752 42.9476 43.5332 42.9932C43.3145 43.0387 43.1071 43.0706 42.9111 43.0889C42.7152 43.1117 42.5762 43.123 42.4941 43.123C41.5326 43.123 40.7829 42.8382 40.2451 42.2686C39.7074 41.6989 39.4385 40.9401 39.4385 39.9922C39.4385 39.3587 39.5615 38.7891 39.8076 38.2832C40.0583 37.7773 40.4183 37.3763 40.8877 37.0801C41.3571 36.7839 41.9199 36.6357 42.5762 36.6357C42.8314 36.6357 43.1071 36.6654 43.4033 36.7246C43.6995 36.7793 43.9593 36.8682 44.1826 36.9912C44.2282 37.014 44.2646 37.0413 44.292 37.0732C44.3239 37.1006 44.3398 37.1416 44.3398 37.1963C44.3398 37.2419 44.3285 37.2874 44.3057 37.333L43.9912 38.126C43.9411 38.2536 43.8613 38.3174 43.752 38.3174C43.7064 38.3174 43.6562 38.306 43.6016 38.2832C43.4512 38.2331 43.3008 38.1921 43.1504 38.1602C43 38.1237 42.8451 38.1055 42.6855 38.1055C42.1341 38.1055 41.724 38.2786 41.4551 38.625C41.1908 38.9714 41.0586 39.402 41.0586 39.917C41.0586 40.4137 41.1839 40.833 41.4346 41.1748C41.6898 41.512 42.084 41.6807 42.6172 41.6807C42.7904 41.6807 42.9567 41.6602 43.1162 41.6191C43.2757 41.5781 43.4352 41.528 43.5947 41.4688C43.6221 41.4596 43.6494 41.4505 43.6768 41.4414C43.7041 41.4323 43.7337 41.4277 43.7656 41.4277ZM45.4062 40.2383C45.4062 40.0924 45.4062 39.9443 45.4062 39.7939C45.4108 39.6436 45.4131 39.4954 45.4131 39.3496C45.4131 39.1628 45.5065 39.0693 45.6934 39.0693H49.0293C49.2161 39.0693 49.3096 39.1628 49.3096 39.3496C49.3096 39.5 49.3096 39.6504 49.3096 39.8008C49.3141 39.9466 49.3164 40.0947 49.3164 40.2451C49.3164 40.432 49.223 40.5254 49.0361 40.5254H45.6934C45.502 40.5254 45.4062 40.4297 45.4062 40.2383ZM50.6631 43C50.5993 43 50.5309 42.9909 50.458 42.9727C50.3851 42.9499 50.3486 42.8952 50.3486 42.8086C50.3486 42.7721 50.3555 42.7357 50.3691 42.6992C50.3828 42.6628 50.3965 42.6286 50.4102 42.5967C50.8112 41.7308 51.2077 40.8649 51.5996 39.999C51.9961 39.1331 52.3857 38.2627 52.7686 37.3877C53.083 36.6676 53.3952 35.9476 53.7051 35.2275C54.015 34.5029 54.334 33.7852 54.6621 33.0742C54.6758 33.0469 54.6986 33.0332 54.7305 33.0332C54.7624 33.0332 54.7852 33.0469 54.7988 33.0742C55.127 33.7852 55.446 34.5029 55.7559 35.2275C56.0658 35.9476 56.3779 36.6676 56.6924 37.3877C57.0752 38.2627 57.4626 39.1331 57.8545 39.999C58.251 40.8649 58.6497 41.7308 59.0508 42.5967C59.0645 42.6286 59.0781 42.6628 59.0918 42.6992C59.1055 42.7357 59.1123 42.7721 59.1123 42.8086C59.1123 42.8952 59.0758 42.9499 59.0029 42.9727C58.93 42.9909 58.8617 43 58.7979 43H57.417C57.3031 43 57.2165 42.943 57.1572 42.8291C57.1208 42.7562 57.0866 42.6787 57.0547 42.5967C57.0228 42.5146 56.9909 42.4372 56.959 42.3643C56.8587 42.1364 56.7607 41.904 56.665 41.667C56.5739 41.43 56.4759 41.1976 56.3711 40.9697C56.3574 40.9333 56.3324 40.915 56.2959 40.915H52.9121C52.8757 40.915 52.8506 40.9333 52.8369 40.9697C52.7275 41.1976 52.6227 41.43 52.5225 41.667C52.4268 41.904 52.3265 42.1387 52.2217 42.3711C52.1898 42.444 52.1556 42.5215 52.1191 42.6035C52.0872 42.6855 52.0508 42.763 52.0098 42.8359C51.9505 42.9453 51.8662 43 51.7568 43H50.6631ZM53.4795 39.4863H55.7559C55.5736 39.0306 55.389 38.5771 55.2021 38.126C55.0153 37.6702 54.8285 37.2145 54.6416 36.7588C54.4502 37.2145 54.2565 37.6702 54.0605 38.126C53.8691 38.5771 53.6755 39.0306 53.4795 39.4863ZM65.2031 43C65.0436 43 64.9502 42.918 64.9229 42.7539C64.9092 42.6628 64.8955 42.5716 64.8818 42.4805C64.8727 42.3848 64.8636 42.2913 64.8545 42.2002C64.8545 42.1865 64.8499 42.1637 64.8408 42.1318C64.8317 42.0954 64.8158 42.0771 64.793 42.0771C64.7747 42.0771 64.7542 42.0885 64.7314 42.1113C64.7132 42.1296 64.6995 42.1455 64.6904 42.1592C64.3896 42.5055 64.0228 42.7539 63.5898 42.9043C63.1615 43.0547 62.7217 43.1299 62.2705 43.1299C61.9014 43.1299 61.5436 43.0661 61.1973 42.9385C60.8555 42.8063 60.5729 42.6058 60.3496 42.3369C60.1309 42.068 60.0215 41.7262 60.0215 41.3115C60.0215 40.7829 60.0238 40.2542 60.0283 39.7256C60.0374 39.1924 60.042 38.6637 60.042 38.1396V37.0801C60.042 36.8932 60.1354 36.7998 60.3223 36.7998H61.375C61.5618 36.7998 61.6553 36.8932 61.6553 37.0801V38.1533C61.6553 38.5817 61.653 39.0124 61.6484 39.4453C61.6439 39.8783 61.6439 40.3112 61.6484 40.7441C61.6576 41.1042 61.7738 41.3594 61.9971 41.5098C62.2249 41.6556 62.5029 41.7285 62.8311 41.7285C63.2412 41.7285 63.5898 41.6191 63.877 41.4004C64.1641 41.1816 64.3828 40.9014 64.5332 40.5596C64.6882 40.2132 64.7656 39.8532 64.7656 39.4795V37.0801C64.7656 36.8932 64.859 36.7998 65.0459 36.7998H66.0918C66.2786 36.7998 66.3721 36.8932 66.3721 37.0801C66.3721 37.276 66.3698 37.472 66.3652 37.668C66.3652 37.8639 66.3652 38.0599 66.3652 38.2559C66.3652 38.7572 66.3675 39.2607 66.3721 39.7666C66.3812 40.2725 66.388 40.776 66.3926 41.2773C66.3971 41.5143 66.4017 41.7536 66.4062 41.9951C66.4154 42.2321 66.4199 42.4714 66.4199 42.7129C66.4199 42.9043 66.3265 43 66.1396 43H65.2031ZM68.9355 36.7998C69.1087 36.7998 69.2021 36.8841 69.2158 37.0527L69.2842 37.832C69.2842 37.8366 69.2887 37.8708 69.2979 37.9346C69.307 37.9938 69.3229 38.0234 69.3457 38.0234C69.3685 38.0234 69.3913 37.9984 69.4141 37.9482C69.4414 37.8981 69.4574 37.8685 69.4619 37.8594C69.6488 37.5085 69.8766 37.2327 70.1455 37.0322C70.4144 36.8317 70.7539 36.7314 71.1641 36.7314C71.2598 36.7314 71.3805 36.7406 71.5264 36.7588C71.6768 36.7725 71.752 36.8477 71.752 36.9844C71.752 37.0527 71.7383 37.1598 71.7109 37.3057C71.6836 37.4515 71.6517 37.5996 71.6152 37.75C71.5833 37.8958 71.5583 38.0075 71.54 38.085C71.5218 38.1624 71.4922 38.224 71.4512 38.2695C71.4147 38.3105 71.3509 38.3311 71.2598 38.3311C71.2142 38.3311 71.1686 38.3288 71.123 38.3242C71.082 38.3151 71.0365 38.3105 70.9863 38.3105C70.6263 38.3105 70.3232 38.4245 70.0771 38.6523C69.8311 38.8757 69.6465 39.1514 69.5234 39.4795C69.4004 39.8076 69.3389 40.1312 69.3389 40.4502V42.7197C69.3389 42.9066 69.2454 43 69.0586 43H67.999C67.8122 43 67.7188 42.9043 67.7188 42.7129C67.7188 42.0065 67.721 41.3024 67.7256 40.6006C67.7347 39.8942 67.7393 39.1901 67.7393 38.4883V37.0801C67.7393 36.8932 67.8327 36.7998 68.0195 36.7998H68.9355ZM75.4297 43.1641C74.7643 43.1641 74.1833 43.0319 73.6865 42.7676C73.1943 42.5033 72.8115 42.1273 72.5381 41.6396C72.2646 41.152 72.1279 40.5732 72.1279 39.9033C72.1279 39.279 72.2578 38.7184 72.5176 38.2217C72.7773 37.7249 73.1442 37.333 73.6182 37.0459C74.0921 36.7542 74.6481 36.6084 75.2861 36.6084C76.0745 36.6084 76.6921 36.8294 77.1387 37.2715C77.5898 37.7135 77.8952 38.3014 78.0547 39.0352C78.0592 39.0488 78.0615 39.0716 78.0615 39.1035C78.0615 39.1719 78.0433 39.2243 78.0068 39.2607C77.9749 39.2926 77.9316 39.32 77.877 39.3428C77.722 39.4157 77.5579 39.4795 77.3848 39.5342C77.2116 39.5889 77.043 39.6481 76.8789 39.7119C76.4004 39.8896 75.9196 40.0651 75.4365 40.2383C74.9535 40.4069 74.4749 40.5869 74.001 40.7783C73.9645 40.7965 73.9463 40.8193 73.9463 40.8467C73.9463 40.8604 73.9508 40.8763 73.96 40.8945C74.1423 41.2227 74.3929 41.4665 74.7119 41.626C75.0309 41.7855 75.3727 41.8652 75.7373 41.8652C76.0244 41.8652 76.291 41.8197 76.5371 41.7285C76.7878 41.6374 77.0339 41.5234 77.2754 41.3867C77.3073 41.3685 77.3392 41.3525 77.3711 41.3389C77.403 41.3252 77.4349 41.3184 77.4668 41.3184C77.5306 41.3184 77.5785 41.3389 77.6104 41.3799C77.6468 41.4163 77.6764 41.4596 77.6992 41.5098C77.7174 41.5417 77.7516 41.6146 77.8018 41.7285C77.8564 41.8379 77.9066 41.9495 77.9521 42.0635C78.0023 42.1729 78.0273 42.2435 78.0273 42.2754C78.0273 42.3255 78.0137 42.3665 77.9863 42.3984C77.959 42.4303 77.9271 42.46 77.8906 42.4873C77.5671 42.7106 77.1729 42.8792 76.708 42.9932C76.2477 43.1071 75.8216 43.1641 75.4297 43.1641ZM73.7139 39.835C74.1742 39.6755 74.6344 39.516 75.0947 39.3564C75.555 39.1969 76.013 39.0374 76.4688 38.8779C76.3548 38.6273 76.1953 38.4085 75.9902 38.2217C75.7897 38.0348 75.5413 37.9414 75.2451 37.9414C74.8988 37.9414 74.6117 38.0348 74.3838 38.2217C74.1559 38.4085 73.9873 38.6478 73.8779 38.9395C73.7686 39.2266 73.7139 39.5251 73.7139 39.835ZM75.0742 35.6582C74.9967 35.6582 74.9307 35.6309 74.876 35.5762C74.6436 35.3529 74.4134 35.125 74.1855 34.8926C73.9622 34.6556 73.7367 34.4209 73.5088 34.1885C73.4769 34.152 73.4359 34.1042 73.3857 34.0449C73.3356 33.9857 73.3105 33.9287 73.3105 33.874C73.3105 33.792 73.363 33.7441 73.4678 33.7305C73.5771 33.7168 73.6569 33.71 73.707 33.71H74.6914C74.8008 33.71 74.8828 33.7555 74.9375 33.8467C75.0788 34.0609 75.2155 34.2887 75.3477 34.5303C75.4798 34.7718 75.6074 35.0065 75.7305 35.2344C75.7533 35.2708 75.7715 35.3096 75.7852 35.3506C75.8034 35.3916 75.8125 35.4326 75.8125 35.4736C75.8125 35.5602 75.7738 35.6126 75.6963 35.6309C75.6234 35.6491 75.555 35.6582 75.4912 35.6582H75.0742ZM79.21 33.4229C79.21 33.236 79.3034 33.1426 79.4902 33.1426H80.5703C80.7572 33.1426 80.8506 33.236 80.8506 33.4229C80.8506 34.1976 80.8483 34.9723 80.8438 35.7471C80.8392 36.5218 80.8369 37.2965 80.8369 38.0713C80.8369 38.846 80.8392 39.6208 80.8438 40.3955C80.8483 41.1702 80.8506 41.945 80.8506 42.7197C80.8506 42.9066 80.7572 43 80.5703 43H79.4902C79.3034 43 79.21 42.9066 79.21 42.7197C79.21 41.945 79.2122 41.1702 79.2168 40.3955C79.2214 39.6208 79.2236 38.846 79.2236 38.0713C79.2236 37.2965 79.2214 36.5218 79.2168 35.7471C79.2122 34.9723 79.21 34.1976 79.21 33.4229ZM85.2734 43.1641C84.6081 43.1641 84.027 43.0319 83.5303 42.7676C83.0381 42.5033 82.6553 42.1273 82.3818 41.6396C82.1084 41.152 81.9717 40.5732 81.9717 39.9033C81.9717 39.279 82.1016 38.7184 82.3613 38.2217C82.6211 37.7249 82.988 37.333 83.4619 37.0459C83.9359 36.7542 84.4919 36.6084 85.1299 36.6084C85.9183 36.6084 86.5358 36.8294 86.9824 37.2715C87.4336 37.7135 87.7389 38.3014 87.8984 39.0352C87.903 39.0488 87.9053 39.0716 87.9053 39.1035C87.9053 39.1719 87.887 39.2243 87.8506 39.2607C87.8187 39.2926 87.7754 39.32 87.7207 39.3428C87.5658 39.4157 87.4017 39.4795 87.2285 39.5342C87.0553 39.5889 86.8867 39.6481 86.7227 39.7119C86.2441 39.8896 85.7633 40.0651 85.2803 40.2383C84.7972 40.4069 84.3187 40.5869 83.8447 40.7783C83.8083 40.7965 83.79 40.8193 83.79 40.8467C83.79 40.8604 83.7946 40.8763 83.8037 40.8945C83.986 41.2227 84.2367 41.4665 84.5557 41.626C84.8747 41.7855 85.2165 41.8652 85.5811 41.8652C85.8682 41.8652 86.1348 41.8197 86.3809 41.7285C86.6315 41.6374 86.8776 41.5234 87.1191 41.3867C87.151 41.3685 87.1829 41.3525 87.2148 41.3389C87.2467 41.3252 87.2786 41.3184 87.3105 41.3184C87.3743 41.3184 87.4222 41.3389 87.4541 41.3799C87.4906 41.4163 87.5202 41.4596 87.543 41.5098C87.5612 41.5417 87.5954 41.6146 87.6455 41.7285C87.7002 41.8379 87.7503 41.9495 87.7959 42.0635C87.846 42.1729 87.8711 42.2435 87.8711 42.2754C87.8711 42.3255 87.8574 42.3665 87.8301 42.3984C87.8027 42.4303 87.7708 42.46 87.7344 42.4873C87.4108 42.7106 87.0166 42.8792 86.5518 42.9932C86.0915 43.1071 85.6654 43.1641 85.2734 43.1641ZM83.5576 39.835C84.0179 39.6755 84.4782 39.516 84.9385 39.3564C85.3988 39.1969 85.8568 39.0374 86.3125 38.8779C86.1986 38.6273 86.0391 38.4085 85.834 38.2217C85.6335 38.0348 85.3851 37.9414 85.0889 37.9414C84.7425 37.9414 84.4554 38.0348 84.2275 38.2217C83.9997 38.4085 83.8311 38.6478 83.7217 38.9395C83.6123 39.2266 83.5576 39.5251 83.5576 39.835ZM90.7148 41.7285C90.7786 41.7285 90.847 41.7399 90.9199 41.7627C90.9928 41.7809 91.0293 41.8333 91.0293 41.9199C91.0293 41.9564 91.0225 41.9928 91.0088 42.0293C90.9951 42.0658 90.9792 42.1022 90.9609 42.1387C90.8424 42.3802 90.7194 42.6217 90.5918 42.8633C90.4642 43.1003 90.3366 43.3395 90.209 43.5811C90.1178 43.7542 90.0267 43.9274 89.9355 44.1006C89.849 44.2783 89.7533 44.4515 89.6484 44.6201C89.5938 44.7158 89.5117 44.7637 89.4023 44.7637H88.6504C88.5866 44.7637 88.5182 44.7523 88.4453 44.7295C88.3724 44.7113 88.3359 44.6589 88.3359 44.5723C88.3359 44.5358 88.3428 44.4971 88.3564 44.4561C88.3701 44.4196 88.3861 44.3854 88.4043 44.3535C88.5228 44.0983 88.6436 43.8454 88.7666 43.5947C88.8942 43.3441 89.0195 43.0934 89.1426 42.8428C89.2201 42.6833 89.293 42.5238 89.3613 42.3643C89.4342 42.2002 89.5117 42.0407 89.5938 41.8857C89.6484 41.7809 89.7327 41.7285 89.8467 41.7285H90.7148ZM98.0908 43.1299C97.471 43.1299 96.9492 42.984 96.5254 42.6924C96.1016 42.4007 95.7803 42.0111 95.5615 41.5234C95.3428 41.0358 95.2334 40.5026 95.2334 39.9238C95.2334 39.2949 95.3496 38.7344 95.582 38.2422C95.819 37.7454 96.1631 37.3535 96.6143 37.0664C97.0654 36.7793 97.6191 36.6357 98.2754 36.6357C99 36.6357 99.6312 36.8454 100.169 37.2646C100.21 37.2965 100.242 37.3125 100.265 37.3125C100.292 37.3125 100.308 37.2965 100.312 37.2646C100.317 37.2327 100.319 37.21 100.319 37.1963C100.319 36.7679 100.319 36.3418 100.319 35.918C100.324 35.4941 100.328 35.068 100.333 34.6396C100.338 34.4391 100.338 34.2363 100.333 34.0312C100.328 33.8216 100.333 33.6188 100.347 33.4229C100.36 33.236 100.454 33.1426 100.627 33.1426H101.693C101.88 33.1426 101.974 33.2383 101.974 33.4297C101.974 33.6803 101.969 33.931 101.96 34.1816C101.955 34.4277 101.951 34.6761 101.946 34.9268C101.933 35.9704 101.926 37.0186 101.926 38.0713C101.926 39.1195 101.933 40.1676 101.946 41.2158C101.951 41.4665 101.955 41.7171 101.96 41.9678C101.969 42.2139 101.974 42.4622 101.974 42.7129C101.974 42.9043 101.88 43 101.693 43H100.613C100.445 43 100.356 42.9362 100.347 42.8086C100.342 42.681 100.338 42.5579 100.333 42.4395C100.333 42.4258 100.331 42.4053 100.326 42.3779C100.322 42.346 100.308 42.3301 100.285 42.3301C100.262 42.3301 100.23 42.346 100.189 42.3779C99.8841 42.6195 99.556 42.8063 99.2051 42.9385C98.8542 43.0661 98.4827 43.1299 98.0908 43.1299ZM98.5898 41.6191C98.9909 41.6191 99.3441 41.528 99.6494 41.3457C99.9548 41.1634 100.178 40.8786 100.319 40.4912C100.315 40.3317 100.312 40.1745 100.312 40.0195C100.312 39.8646 100.312 39.7096 100.312 39.5547C100.312 39.4818 100.315 39.402 100.319 39.3154C100.324 39.2288 100.322 39.1514 100.312 39.083C100.308 39.0329 100.283 38.9668 100.237 38.8848C100.192 38.8027 100.158 38.7412 100.135 38.7002C99.9661 38.445 99.7406 38.2559 99.458 38.1328C99.18 38.0052 98.8906 37.9414 98.5898 37.9414C98.2435 37.9414 97.9404 38.028 97.6807 38.2012C97.4255 38.3743 97.2272 38.6022 97.0859 38.8848C96.9492 39.1673 96.8809 39.4749 96.8809 39.8076C96.8809 40.1221 96.9538 40.4183 97.0996 40.6963C97.25 40.9697 97.4551 41.193 97.7148 41.3662C97.9746 41.5348 98.2663 41.6191 98.5898 41.6191ZM106.328 43.1641C105.663 43.1641 105.082 43.0319 104.585 42.7676C104.093 42.5033 103.71 42.1273 103.437 41.6396C103.163 41.152 103.026 40.5732 103.026 39.9033C103.026 39.279 103.156 38.7184 103.416 38.2217C103.676 37.7249 104.043 37.333 104.517 37.0459C104.991 36.7542 105.547 36.6084 106.185 36.6084C106.973 36.6084 107.59 36.8294 108.037 37.2715C108.488 37.7135 108.794 38.3014 108.953 39.0352C108.958 39.0488 108.96 39.0716 108.96 39.1035C108.96 39.1719 108.942 39.2243 108.905 39.2607C108.873 39.2926 108.83 39.32 108.775 39.3428C108.62 39.4157 108.456 39.4795 108.283 39.5342C108.11 39.5889 107.941 39.6481 107.777 39.7119C107.299 39.8896 106.818 40.0651 106.335 40.2383C105.852 40.4069 105.373 40.5869 104.899 40.7783C104.863 40.7965 104.845 40.8193 104.845 40.8467C104.845 40.8604 104.849 40.8763 104.858 40.8945C105.041 41.2227 105.291 41.4665 105.61 41.626C105.929 41.7855 106.271 41.8652 106.636 41.8652C106.923 41.8652 107.189 41.8197 107.436 41.7285C107.686 41.6374 107.932 41.5234 108.174 41.3867C108.206 41.3685 108.238 41.3525 108.27 41.3389C108.301 41.3252 108.333 41.3184 108.365 41.3184C108.429 41.3184 108.477 41.3389 108.509 41.3799C108.545 41.4163 108.575 41.4596 108.598 41.5098C108.616 41.5417 108.65 41.6146 108.7 41.7285C108.755 41.8379 108.805 41.9495 108.851 42.0635C108.901 42.1729 108.926 42.2435 108.926 42.2754C108.926 42.3255 108.912 42.3665 108.885 42.3984C108.857 42.4303 108.826 42.46 108.789 42.4873C108.465 42.7106 108.071 42.8792 107.606 42.9932C107.146 43.1071 106.72 43.1641 106.328 43.1641ZM104.612 39.835C105.073 39.6755 105.533 39.516 105.993 39.3564C106.453 39.1969 106.911 39.0374 107.367 38.8779C107.253 38.6273 107.094 38.4085 106.889 38.2217C106.688 38.0348 106.44 37.9414 106.144 37.9414C105.797 37.9414 105.51 38.0348 105.282 38.2217C105.054 38.4085 104.886 38.6478 104.776 38.9395C104.667 39.2266 104.612 39.5251 104.612 39.835ZM108.235 33.71C108.285 33.71 108.368 33.7168 108.481 33.7305C108.6 33.7441 108.659 33.792 108.659 33.874C108.659 33.9333 108.627 33.9948 108.563 34.0586C108.504 34.1178 108.456 34.1657 108.42 34.2021C108.169 34.43 107.919 34.6624 107.668 34.8994C107.422 35.1318 107.171 35.3597 106.916 35.583C106.857 35.6331 106.793 35.6582 106.725 35.6582H106.321C106.262 35.6582 106.191 35.6491 106.109 35.6309C106.032 35.6126 105.993 35.5648 105.993 35.4873C105.993 35.4417 106.005 35.3962 106.027 35.3506C106.05 35.305 106.073 35.2663 106.096 35.2344L107.06 33.833C107.114 33.751 107.192 33.71 107.292 33.71H108.235ZM113.007 43.1436C112.989 43.1436 112.973 43.1344 112.959 43.1162C112.626 42.5192 112.296 41.9176 111.968 41.3115C111.644 40.7054 111.321 40.1016 110.997 39.5C110.792 39.1217 110.585 38.7435 110.375 38.3652C110.165 37.9824 109.96 37.5996 109.76 37.2168C109.742 37.1803 109.723 37.1439 109.705 37.1074C109.691 37.0664 109.685 37.0277 109.685 36.9912C109.685 36.9046 109.723 36.8522 109.801 36.834C109.878 36.8112 109.947 36.7998 110.006 36.7998H111.264C111.373 36.7998 111.457 36.8522 111.517 36.957C111.594 37.0938 111.667 37.2396 111.735 37.3945C111.804 37.5449 111.872 37.693 111.94 37.8389C112.114 38.1989 112.285 38.5589 112.453 38.9189C112.626 39.279 112.804 39.6367 112.986 39.9922C112.995 40.0059 113.005 40.0241 113.014 40.0469C113.027 40.0651 113.043 40.0742 113.062 40.0742C113.084 40.0742 113.1 40.0651 113.109 40.0469C113.123 40.0241 113.132 40.0059 113.137 39.9922C113.301 39.6413 113.458 39.2858 113.608 38.9258C113.759 38.5612 113.911 38.2012 114.066 37.8457C114.13 37.6999 114.192 37.5518 114.251 37.4014C114.31 37.251 114.376 37.1074 114.449 36.9707C114.508 36.8568 114.595 36.7998 114.709 36.7998H115.851C115.914 36.7998 115.983 36.8112 116.056 36.834C116.133 36.8522 116.172 36.9046 116.172 36.9912C116.172 37.0277 116.165 37.0641 116.151 37.1006C116.138 37.137 116.122 37.1735 116.104 37.21C115.88 37.6566 115.65 38.1032 115.413 38.5498C115.181 38.9919 114.951 39.4362 114.723 39.8828C114.445 40.4206 114.169 40.9606 113.896 41.5029C113.622 42.0407 113.342 42.5785 113.055 43.1162C113.041 43.1344 113.025 43.1436 113.007 43.1436ZM120.164 43.1641C119.499 43.1641 118.918 43.0319 118.421 42.7676C117.929 42.5033 117.546 42.1273 117.272 41.6396C116.999 41.152 116.862 40.5732 116.862 39.9033C116.862 39.279 116.992 38.7184 117.252 38.2217C117.512 37.7249 117.879 37.333 118.353 37.0459C118.826 36.7542 119.382 36.6084 120.021 36.6084C120.809 36.6084 121.426 36.8294 121.873 37.2715C122.324 37.7135 122.63 38.3014 122.789 39.0352C122.794 39.0488 122.796 39.0716 122.796 39.1035C122.796 39.1719 122.778 39.2243 122.741 39.2607C122.709 39.2926 122.666 39.32 122.611 39.3428C122.456 39.4157 122.292 39.4795 122.119 39.5342C121.946 39.5889 121.777 39.6481 121.613 39.7119C121.135 39.8896 120.654 40.0651 120.171 40.2383C119.688 40.4069 119.209 40.5869 118.735 40.7783C118.699 40.7965 118.681 40.8193 118.681 40.8467C118.681 40.8604 118.685 40.8763 118.694 40.8945C118.877 41.2227 119.127 41.4665 119.446 41.626C119.765 41.7855 120.107 41.8652 120.472 41.8652C120.759 41.8652 121.025 41.8197 121.271 41.7285C121.522 41.6374 121.768 41.5234 122.01 41.3867C122.042 41.3685 122.074 41.3525 122.105 41.3389C122.137 41.3252 122.169 41.3184 122.201 41.3184C122.265 41.3184 122.313 41.3389 122.345 41.3799C122.381 41.4163 122.411 41.4596 122.434 41.5098C122.452 41.5417 122.486 41.6146 122.536 41.7285C122.591 41.8379 122.641 41.9495 122.687 42.0635C122.737 42.1729 122.762 42.2435 122.762 42.2754C122.762 42.3255 122.748 42.3665 122.721 42.3984C122.693 42.4303 122.661 42.46 122.625 42.4873C122.301 42.7106 121.907 42.8792 121.442 42.9932C120.982 43.1071 120.556 43.1641 120.164 43.1641ZM118.448 39.835C118.909 39.6755 119.369 39.516 119.829 39.3564C120.289 39.1969 120.747 39.0374 121.203 38.8779C121.089 38.6273 120.93 38.4085 120.725 38.2217C120.524 38.0348 120.276 37.9414 119.979 37.9414C119.633 37.9414 119.346 38.0348 119.118 38.2217C118.89 38.4085 118.722 38.6478 118.612 38.9395C118.503 39.2266 118.448 39.5251 118.448 39.835ZM123.944 33.4229C123.944 33.236 124.038 33.1426 124.225 33.1426H125.305C125.492 33.1426 125.585 33.236 125.585 33.4229C125.585 34.1976 125.583 34.9723 125.578 35.7471C125.574 36.5218 125.571 37.2965 125.571 38.0713C125.571 38.846 125.574 39.6208 125.578 40.3955C125.583 41.1702 125.585 41.945 125.585 42.7197C125.585 42.9066 125.492 43 125.305 43H124.225C124.038 43 123.944 42.9066 123.944 42.7197C123.944 41.945 123.947 41.1702 123.951 40.3955C123.956 39.6208 123.958 38.846 123.958 38.0713C123.958 37.2965 123.956 36.5218 123.951 35.7471C123.947 34.9723 123.944 34.1976 123.944 33.4229ZM126.706 39.9307C126.706 39.2972 126.84 38.7321 127.109 38.2354C127.383 37.7386 127.763 37.3467 128.251 37.0596C128.739 36.7679 129.301 36.6221 129.939 36.6221C130.568 36.6221 131.118 36.7656 131.587 37.0527C132.056 37.3353 132.421 37.7227 132.681 38.2148C132.945 38.707 133.077 39.2607 133.077 39.876C133.077 40.5094 132.947 41.0723 132.688 41.5645C132.428 42.0521 132.061 42.4349 131.587 42.7129C131.118 42.9909 130.559 43.1299 129.912 43.1299C129.27 43.1299 128.707 42.9977 128.224 42.7334C127.745 42.4645 127.371 42.0908 127.103 41.6123C126.838 41.1338 126.706 40.5732 126.706 39.9307ZM129.905 38.0029C129.559 38.0029 129.27 38.0964 129.037 38.2832C128.805 38.4655 128.629 38.7002 128.511 38.9873C128.392 39.2744 128.333 39.5752 128.333 39.8896C128.333 40.1859 128.395 40.4707 128.518 40.7441C128.645 41.0176 128.825 41.2409 129.058 41.4141C129.29 41.5872 129.566 41.6738 129.885 41.6738C130.231 41.6738 130.518 41.5872 130.746 41.4141C130.979 41.2363 131.152 41.0085 131.266 40.7305C131.384 40.4525 131.443 40.1562 131.443 39.8418C131.443 39.5365 131.384 39.2448 131.266 38.9668C131.152 38.6842 130.981 38.4541 130.753 38.2764C130.525 38.0941 130.243 38.0029 129.905 38.0029ZM137.773 43.1299C137.427 43.1299 137.094 43.0752 136.775 42.9658C136.461 42.8564 136.169 42.6878 135.9 42.46C135.887 42.4508 135.871 42.4395 135.853 42.4258C135.839 42.4076 135.821 42.3984 135.798 42.3984C135.775 42.3984 135.761 42.4167 135.757 42.4531C135.752 42.485 135.75 42.5078 135.75 42.5215C135.741 42.8177 135.736 43.1162 135.736 43.417C135.736 43.7223 135.732 44.0231 135.723 44.3193C135.723 44.4287 135.723 44.5404 135.723 44.6543C135.727 44.7728 135.725 44.8867 135.716 44.9961C135.707 45.0872 135.682 45.1556 135.641 45.2012C135.604 45.2467 135.536 45.2695 135.436 45.2695H134.335C134.153 45.2695 134.062 45.1738 134.062 44.9824C134.062 44.6315 134.068 44.2783 134.082 43.9229C134.1 43.5674 134.114 43.2165 134.123 42.8701C134.141 42.1273 134.155 41.3867 134.164 40.6484C134.173 39.9056 134.178 39.1628 134.178 38.4199C134.178 38.1966 134.175 37.9733 134.171 37.75C134.171 37.5267 134.171 37.3034 134.171 37.0801C134.171 36.8932 134.264 36.7998 134.451 36.7998H135.333C135.474 36.7998 135.561 36.8568 135.593 36.9707C135.629 37.0846 135.65 37.1986 135.654 37.3125C135.659 37.4219 135.686 37.4766 135.736 37.4766C135.755 37.4766 135.78 37.4652 135.812 37.4424C136.144 37.1872 136.491 36.9889 136.851 36.8477C137.211 36.7064 137.603 36.6357 138.026 36.6357C138.669 36.6357 139.209 36.7861 139.646 37.0869C140.084 37.3877 140.414 37.7887 140.638 38.29C140.861 38.7913 140.973 39.3405 140.973 39.9375C140.973 40.5892 140.84 41.1543 140.576 41.6328C140.316 42.1113 139.947 42.4805 139.469 42.7402C138.99 43 138.425 43.1299 137.773 43.1299ZM137.452 41.7285C137.799 41.7285 138.113 41.6488 138.396 41.4893C138.683 41.3298 138.91 41.1133 139.079 40.8398C139.252 40.5618 139.339 40.2497 139.339 39.9033C139.339 39.361 139.163 38.9167 138.812 38.5703C138.462 38.2194 138.015 38.0439 137.473 38.0439C137.085 38.0439 136.741 38.1419 136.44 38.3379C136.14 38.5339 135.921 38.8141 135.784 39.1787C135.784 39.4066 135.782 39.6344 135.777 39.8623C135.777 40.0902 135.777 40.318 135.777 40.5459C135.777 40.5687 135.791 40.6165 135.818 40.6895C135.85 40.7624 135.871 40.8102 135.88 40.833C136.026 41.1292 136.244 41.3525 136.536 41.5029C136.828 41.6533 137.133 41.7285 137.452 41.7285ZM145.676 43.1299C145.329 43.1299 144.997 43.0752 144.678 42.9658C144.363 42.8564 144.072 42.6878 143.803 42.46C143.789 42.4508 143.773 42.4395 143.755 42.4258C143.741 42.4076 143.723 42.3984 143.7 42.3984C143.677 42.3984 143.664 42.4167 143.659 42.4531C143.655 42.485 143.652 42.5078 143.652 42.5215C143.643 42.8177 143.639 43.1162 143.639 43.417C143.639 43.7223 143.634 44.0231 143.625 44.3193C143.625 44.4287 143.625 44.5404 143.625 44.6543C143.63 44.7728 143.627 44.8867 143.618 44.9961C143.609 45.0872 143.584 45.1556 143.543 45.2012C143.507 45.2467 143.438 45.2695 143.338 45.2695H142.237C142.055 45.2695 141.964 45.1738 141.964 44.9824C141.964 44.6315 141.971 44.2783 141.984 43.9229C142.003 43.5674 142.016 43.2165 142.025 42.8701C142.044 42.1273 142.057 41.3867 142.066 40.6484C142.076 39.9056 142.08 39.1628 142.08 38.4199C142.08 38.1966 142.078 37.9733 142.073 37.75C142.073 37.5267 142.073 37.3034 142.073 37.0801C142.073 36.8932 142.167 36.7998 142.354 36.7998H143.235C143.377 36.7998 143.463 36.8568 143.495 36.9707C143.532 37.0846 143.552 37.1986 143.557 37.3125C143.561 37.4219 143.589 37.4766 143.639 37.4766C143.657 37.4766 143.682 37.4652 143.714 37.4424C144.047 37.1872 144.393 36.9889 144.753 36.8477C145.113 36.7064 145.505 36.6357 145.929 36.6357C146.571 36.6357 147.111 36.7861 147.549 37.0869C147.986 37.3877 148.317 37.7887 148.54 38.29C148.763 38.7913 148.875 39.3405 148.875 39.9375C148.875 40.5892 148.743 41.1543 148.479 41.6328C148.219 42.1113 147.85 42.4805 147.371 42.7402C146.893 43 146.327 43.1299 145.676 43.1299ZM145.354 41.7285C145.701 41.7285 146.015 41.6488 146.298 41.4893C146.585 41.3298 146.813 41.1133 146.981 40.8398C147.155 40.5618 147.241 40.2497 147.241 39.9033C147.241 39.361 147.066 38.9167 146.715 38.5703C146.364 38.2194 145.917 38.0439 145.375 38.0439C144.988 38.0439 144.644 38.1419 144.343 38.3379C144.042 38.5339 143.823 38.8141 143.687 39.1787C143.687 39.4066 143.684 39.6344 143.68 39.8623C143.68 40.0902 143.68 40.318 143.68 40.5459C143.68 40.5687 143.693 40.6165 143.721 40.6895C143.753 40.7624 143.773 40.8102 143.782 40.833C143.928 41.1292 144.147 41.3525 144.438 41.5029C144.73 41.6533 145.035 41.7285 145.354 41.7285ZM152.977 43.1641C152.311 43.1641 151.73 43.0319 151.233 42.7676C150.741 42.5033 150.358 42.1273 150.085 41.6396C149.812 41.152 149.675 40.5732 149.675 39.9033C149.675 39.279 149.805 38.7184 150.064 38.2217C150.324 37.7249 150.691 37.333 151.165 37.0459C151.639 36.7542 152.195 36.6084 152.833 36.6084C153.621 36.6084 154.239 36.8294 154.686 37.2715C155.137 37.7135 155.442 38.3014 155.602 39.0352C155.606 39.0488 155.608 39.0716 155.608 39.1035C155.608 39.1719 155.59 39.2243 155.554 39.2607C155.522 39.2926 155.479 39.32 155.424 39.3428C155.269 39.4157 155.105 39.4795 154.932 39.5342C154.758 39.5889 154.59 39.6481 154.426 39.7119C153.947 39.8896 153.466 40.0651 152.983 40.2383C152.5 40.4069 152.022 40.5869 151.548 40.7783C151.511 40.7965 151.493 40.8193 151.493 40.8467C151.493 40.8604 151.498 40.8763 151.507 40.8945C151.689 41.2227 151.94 41.4665 152.259 41.626C152.578 41.7855 152.92 41.8652 153.284 41.8652C153.571 41.8652 153.838 41.8197 154.084 41.7285C154.335 41.6374 154.581 41.5234 154.822 41.3867C154.854 41.3685 154.886 41.3525 154.918 41.3389C154.95 41.3252 154.982 41.3184 155.014 41.3184C155.077 41.3184 155.125 41.3389 155.157 41.3799C155.194 41.4163 155.223 41.4596 155.246 41.5098C155.264 41.5417 155.299 41.6146 155.349 41.7285C155.403 41.8379 155.453 41.9495 155.499 42.0635C155.549 42.1729 155.574 42.2435 155.574 42.2754C155.574 42.3255 155.561 42.3665 155.533 42.3984C155.506 42.4303 155.474 42.46 155.438 42.4873C155.114 42.7106 154.72 42.8792 154.255 42.9932C153.795 43.1071 153.368 43.1641 152.977 43.1641ZM151.261 39.835C151.721 39.6755 152.181 39.516 152.642 39.3564C153.102 39.1969 153.56 39.0374 154.016 38.8779C153.902 38.6273 153.742 38.4085 153.537 38.2217C153.337 38.0348 153.088 37.9414 152.792 37.9414C152.446 37.9414 152.159 38.0348 151.931 38.2217C151.703 38.4085 151.534 38.6478 151.425 38.9395C151.315 39.2266 151.261 39.5251 151.261 39.835ZM161.891 43C161.731 43 161.638 42.918 161.61 42.7539C161.597 42.6628 161.583 42.5716 161.569 42.4805C161.56 42.3848 161.551 42.2913 161.542 42.2002C161.542 42.1865 161.537 42.1637 161.528 42.1318C161.519 42.0954 161.503 42.0771 161.48 42.0771C161.462 42.0771 161.442 42.0885 161.419 42.1113C161.401 42.1296 161.387 42.1455 161.378 42.1592C161.077 42.5055 160.71 42.7539 160.277 42.9043C159.849 43.0547 159.409 43.1299 158.958 43.1299C158.589 43.1299 158.231 43.0661 157.885 42.9385C157.543 42.8063 157.26 42.6058 157.037 42.3369C156.818 42.068 156.709 41.7262 156.709 41.3115C156.709 40.7829 156.711 40.2542 156.716 39.7256C156.725 39.1924 156.729 38.6637 156.729 38.1396V37.0801C156.729 36.8932 156.823 36.7998 157.01 36.7998H158.062C158.249 36.7998 158.343 36.8932 158.343 37.0801V38.1533C158.343 38.5817 158.34 39.0124 158.336 39.4453C158.331 39.8783 158.331 40.3112 158.336 40.7441C158.345 41.1042 158.461 41.3594 158.685 41.5098C158.912 41.6556 159.19 41.7285 159.519 41.7285C159.929 41.7285 160.277 41.6191 160.564 41.4004C160.852 41.1816 161.07 40.9014 161.221 40.5596C161.376 40.2132 161.453 39.8532 161.453 39.4795V37.0801C161.453 36.8932 161.547 36.7998 161.733 36.7998H162.779C162.966 36.7998 163.06 36.8932 163.06 37.0801C163.06 37.276 163.057 37.472 163.053 37.668C163.053 37.8639 163.053 38.0599 163.053 38.2559C163.053 38.7572 163.055 39.2607 163.06 39.7666C163.069 40.2725 163.076 40.776 163.08 41.2773C163.085 41.5143 163.089 41.7536 163.094 41.9951C163.103 42.2321 163.107 42.4714 163.107 42.7129C163.107 42.9043 163.014 43 162.827 43H161.891ZM165.623 36.7998C165.796 36.7998 165.89 36.8841 165.903 37.0527L165.972 37.832C165.972 37.8366 165.976 37.8708 165.985 37.9346C165.994 37.9938 166.01 38.0234 166.033 38.0234C166.056 38.0234 166.079 37.9984 166.102 37.9482C166.129 37.8981 166.145 37.8685 166.149 37.8594C166.336 37.5085 166.564 37.2327 166.833 37.0322C167.102 36.8317 167.441 36.7314 167.852 36.7314C167.947 36.7314 168.068 36.7406 168.214 36.7588C168.364 36.7725 168.439 36.8477 168.439 36.9844C168.439 37.0527 168.426 37.1598 168.398 37.3057C168.371 37.4515 168.339 37.5996 168.303 37.75C168.271 37.8958 168.246 38.0075 168.228 38.085C168.209 38.1624 168.18 38.224 168.139 38.2695C168.102 38.3105 168.038 38.3311 167.947 38.3311C167.902 38.3311 167.856 38.3288 167.811 38.3242C167.77 38.3151 167.724 38.3105 167.674 38.3105C167.314 38.3105 167.011 38.4245 166.765 38.6523C166.519 38.8757 166.334 39.1514 166.211 39.4795C166.088 39.8076 166.026 40.1312 166.026 40.4502V42.7197C166.026 42.9066 165.933 43 165.746 43H164.687C164.5 43 164.406 42.9043 164.406 42.7129C164.406 42.0065 164.409 41.3024 164.413 40.6006C164.422 39.8942 164.427 39.1901 164.427 38.4883V37.0801C164.427 36.8932 164.52 36.7998 164.707 36.7998H165.623Z" fill="black"/>
<path d="M92 0L105.856 23.25H78.1436L92 0Z" fill="white"/>
</svg>
