<svg width="1199" height="85" viewBox="0 0 1199 85" fill="none" xmlns="http://www.w3.org/2000/svg">
<path d="M211.456 24.4907L199.825 13.2607L175.031 13.0819L174.697 0L171.812 0.00576929L171.575 13.0559L137.447 12.8107L145.077 25.8234L137 37.9418H171.122L170.393 78.0758L176.687 78.0643L175.663 37.9446H199.375L211.407 27.1157C212.18 26.4205 212.2 25.2147 211.453 24.4935L211.456 24.4907Z" fill="#FF9925"/>
<g clip-path="url(#clip0_780_1382)">
<path d="M441.429 64.5307C446.717 58.1839 453.83 56.5339 459.901 62.9568C461.715 64.7588 458.147 67.4243 456.572 68.0189C452.21 69.8178 447.472 68.5258 443.462 66.5655L442.287 65.9947L441.683 65.7037C441.262 65.5026 441.116 64.898 441.429 64.5307ZM442.062 65.0625C442.082 65.0232 442.068 64.9973 442.053 64.9795L442.64 65.1704C445.381 66.1078 448.36 66.6876 451.205 66.9106C454.029 67.181 457.166 66.3277 458.635 64.0962C458.631 64.1451 458.645 64.171 458.668 64.1976L457.854 63.3705C452.798 58.0226 446.484 60.0955 442.062 65.0625Z" fill="#FF9925"/>
<path d="M449.016 64.0074C449.016 64.0074 451.121 62.3656 452.041 63.1115L449.016 64.0074Z" fill="#FF9925"/>
<path d="M449.101 63.7758C449.101 63.7758 451.744 64.2196 452.195 63.1325L449.101 63.7758Z" fill="#FF9925"/>
</g>
<g clip-path="url(#clip1_780_1382)">
<path d="M804.429 65.5307C809.717 59.1839 816.83 57.5339 822.901 63.9568C824.715 65.7588 821.147 68.4243 819.572 69.0189C815.21 70.8178 810.472 69.5258 806.462 67.5655L805.287 66.9947L804.683 66.7037C804.262 66.5026 804.116 65.898 804.429 65.5307ZM805.062 66.0625C805.082 66.0232 805.068 65.9973 805.053 65.9795L805.64 66.1704C808.381 67.1078 811.36 67.6876 814.205 67.9106C817.029 68.181 820.166 67.3277 821.635 65.0962C821.631 65.1451 821.645 65.171 821.668 65.1976L820.854 64.3705C815.798 59.0226 809.484 61.0955 805.062 66.0625Z" fill="#FF9925"/>
<path d="M812.016 65.0074C812.016 65.0074 814.121 63.3656 815.041 64.1115L812.016 65.0074Z" fill="#FF9925"/>
<path d="M812.101 64.7758C812.101 64.7758 814.744 65.2196 815.195 64.1325L812.101 64.7758Z" fill="#FF9925"/>
</g>
<path d="M581.33 47.505C573.465 49.0452 571.394 56.7504 571.161 57.751C571.396 58.916 571.62 60.1206 571.828 61.3844L571.134 57.8498L571.161 57.751C570.57 54.8909 569.931 52.4449 569.545 51.0194C573.435 48.35 575.099 43.4785 575.288 40.7067C575.426 38.8412 574.052 37.1136 572.114 36.6927C568.84 36.0137 565.733 36.586 563.027 38.2883C560.316 40.0104 557.996 42.8167 556.344 46.5987C555.925 47.5426 555.934 48.6384 556.338 49.5978C556.747 50.5374 557.486 51.2562 558.405 51.6444C558.945 51.8736 559.475 52.057 559.989 52.2143C562.748 53.0575 565.33 53.0105 567.625 52.0617C568.88 56.7965 571.819 69.1413 569.804 75.2774L571.82 75.9794C573.047 72.2818 572.664 66.7415 571.88 61.679L572.528 64.8992C588.907 58.6734 581.33 47.505 581.33 47.505ZM567.704 49.6851C565.282 51.0884 562.417 51.1128 559.175 49.7575C558.774 49.5921 558.479 49.2875 558.304 48.8698C558.115 48.4261 558.117 47.9338 558.305 47.4983C559.4 45.0033 563.595 37.0472 571.745 38.745C572.678 38.9231 573.23 39.6706 573.166 40.4655C573.004 42.9023 571.379 47.5501 567.704 49.6851Z" fill="#FF9925"/>
<path d="M571.672 61.3585L570.972 57.8073L571 57.708C571.237 58.8785 571.463 60.0887 571.672 61.3585Z" fill="#FF9925"/>
<path d="M922.506 49.505C930.371 51.0452 932.442 58.7504 932.675 59.751C932.44 60.916 932.216 62.1206 932.008 63.3844L932.702 59.8498L932.675 59.751C933.266 56.8909 933.905 54.4449 934.291 53.0194C930.401 50.35 928.736 45.4785 928.548 42.7067C928.41 40.8412 929.784 39.1136 931.722 38.6927C934.996 38.0137 938.103 38.586 940.808 40.2883C943.52 42.0104 945.84 44.8167 947.492 48.5987C947.91 49.5426 947.902 50.6384 947.498 51.5978C947.089 52.5374 946.35 53.2562 945.431 53.6444C944.891 53.8736 944.361 54.057 943.847 54.2143C941.088 55.0575 938.506 55.0105 936.211 54.0617C934.956 58.7965 932.017 71.1413 934.032 77.2774L932.016 77.9794C930.789 74.2818 931.172 68.7415 931.956 63.679L931.308 66.8992C914.929 60.6734 922.506 49.505 922.506 49.505ZM936.132 51.6851C938.554 53.0884 941.419 53.1128 944.661 51.7575C945.062 51.5921 945.357 51.2875 945.532 50.8698C945.721 50.4261 945.719 49.9338 945.531 49.4983C944.436 47.0033 940.241 39.0472 932.091 40.745C931.157 40.9231 930.606 41.6706 930.67 42.4655C930.832 44.9023 932.457 49.5501 936.132 51.6851Z" fill="#FF9925"/>
<path d="M932.164 63.3585L932.864 59.8073L932.836 59.708C932.599 60.8785 932.373 62.0887 932.164 63.3585Z" fill="#FF9925"/>
<path d="M290.209 41.1418C288.174 39.7268 284.775 40.8518 280.111 44.5564C278.8 45.5968 277.662 46.8894 276.646 48.3513C275.827 45.608 273.523 42.7103 271.168 41.935C269.438 41.3705 267.811 42.0026 266.746 43.8446C265.608 46.5596 265.557 49.0019 266.587 51.1168C268.07 54.1329 271.353 55.5781 272.814 56.0824C271.527 59.7062 270.692 63.52 270.139 66.8635C269.371 71.5636 269.236 75.0181 269.222 75.1573L270.94 75.2213C270.94 75.2213 271.087 71.716 271.829 67.1345C273.005 59.8944 275.584 50.3363 281.169 45.913C286.602 41.6158 288.591 42.1314 289.2 42.5698C290.086 43.1945 290.257 45.1175 289.589 47.1552C287.5 53.4977 283.334 56.7094 277.225 56.6771L277.207 58.4157C285.859 58.4649 289.606 52.6173 291.232 47.7178C291.95 45.5315 292.113 42.5097 290.201 41.1757L290.209 41.1418ZM268.143 50.3266C267.329 48.6689 267.396 46.7102 268.292 44.5992C268.895 43.5606 269.633 43.2633 270.629 43.5569C272.95 44.3247 275.491 48.2177 275.242 50.5978C274.564 51.8151 273.975 53.1058 273.449 54.4285C272.25 54.0183 269.361 52.7858 268.147 50.3096L268.143 50.3266Z" fill="#FF9925"/>
<path d="M658.475 40.1418C660.51 38.7268 663.908 39.8518 668.573 43.5564C669.884 44.5968 671.021 45.8894 672.037 47.3513C672.856 44.608 675.161 41.7103 677.516 40.935C679.246 40.3705 680.872 41.0026 681.938 42.8446C683.075 45.5596 683.126 48.0019 682.096 50.1168C680.614 53.1329 677.33 54.5781 675.869 55.0824C677.157 58.7062 677.992 62.52 678.545 65.8635C679.312 70.5636 679.448 74.0181 679.461 74.1573L677.743 74.2213C677.743 74.2213 677.596 70.716 676.855 66.1345C675.678 58.8944 673.1 49.3363 667.515 44.913C662.081 40.6158 660.093 41.1314 659.484 41.5698C658.598 42.1945 658.427 44.1175 659.094 46.1552C661.184 52.4977 665.349 55.7094 671.459 55.6771L671.476 57.4157C662.824 57.4649 659.078 51.6173 657.452 46.7178C656.734 44.5315 656.571 41.5097 658.482 40.1757L658.475 40.1418ZM680.541 49.3266C681.355 47.6689 681.288 45.7102 680.392 43.5992C679.788 42.5606 679.05 42.2633 678.055 42.5569C675.734 43.3247 673.192 47.2177 673.441 49.5978C674.12 50.8151 674.709 52.1058 675.235 53.4285C676.433 53.0183 679.322 51.7858 680.537 49.3096L680.541 49.3266Z" fill="#FF9925"/>
<g clip-path="url(#clip2_780_1382)">
<path d="M310.697 65.3626L313.054 75.0311L312.083 75.236L310.413 65.4222L310.697 65.3626Z" fill="#FF9925"/>
<path d="M324.616 57.1495C325.04 62.623 325.595 68.3206 325.681 73.8309L323.823 73.7546C323.902 72.4312 323.902 71.0382 323.904 69.665C323.851 65.6342 323.754 61.2058 323.615 57.2072L324.616 57.1495Z" fill="#FF9925"/>
<path d="M330.03 74.1182C331.15 71.7021 332.486 69.246 332.949 66.6077L333.234 66.6189C332.999 69.377 331.87 71.9458 330.945 74.5268L330.03 74.1182Z" fill="#FF9925"/>
<path d="M304.284 70.3587C304.508 70.3277 304.665 70.1207 304.634 69.8964C304.603 69.6721 304.396 69.5154 304.172 69.5464C303.947 69.5774 303.791 69.7844 303.822 70.0087C303.853 70.233 304.06 70.3897 304.284 70.3587Z" fill="#FF9925"/>
<path d="M305.522 71.0149C305.747 70.9839 305.903 70.7769 305.872 70.5526C305.841 70.3283 305.634 70.1716 305.41 70.2026C305.186 70.2337 305.029 70.4406 305.06 70.6649C305.091 70.8892 305.298 71.0459 305.522 71.0149Z" fill="#FF9925"/>
<path d="M304.015 71.7688C304.239 71.7378 304.396 71.5308 304.365 71.3065C304.334 71.0822 304.127 70.9255 303.902 70.9565C303.678 70.9876 303.521 71.1945 303.552 71.4188C303.583 71.6431 303.79 71.7998 304.015 71.7688Z" fill="#FF9925"/>
<path d="M318.659 68.2396C318.976 68.1957 319.198 67.9029 319.154 67.5856C319.11 67.2683 318.818 67.0466 318.5 67.0905C318.183 67.1344 317.961 67.4272 318.005 67.7445C318.049 68.0618 318.342 68.2834 318.659 68.2396Z" fill="#FF9925"/>
<path d="M342.058 76.0589C342.375 76.015 342.597 75.7222 342.553 75.4049C342.509 75.0876 342.216 74.866 341.899 74.9098C341.581 74.9537 341.36 75.2465 341.404 75.5638C341.448 75.8811 341.74 76.1028 342.058 76.0589Z" fill="#FF9925"/>
<path d="M343.909 72.4407C344.226 72.3969 344.448 72.1041 344.404 71.7868C344.36 71.4695 344.068 71.2478 343.75 71.2917C343.433 71.3355 343.211 71.6283 343.255 71.9456C343.299 72.2629 343.592 72.4846 343.909 72.4407Z" fill="#FF9925"/>
<path d="M348.945 74.9661C349.361 74.9086 349.652 74.5249 349.594 74.1091C349.537 73.6934 349.153 73.4029 348.737 73.4604C348.321 73.5179 348.031 73.9015 348.088 74.3173C348.146 74.7331 348.53 75.0235 348.945 74.9661Z" fill="#FF9925"/>
<path d="M341.507 74.4895C341.731 74.4585 341.888 74.2515 341.857 74.0272C341.826 73.8029 341.619 73.6462 341.394 73.6773C341.17 73.7083 341.013 73.9152 341.044 74.1395C341.075 74.3638 341.282 74.5205 341.507 74.4895Z" fill="#FF9925"/>
</g>
<g clip-path="url(#clip3_780_1382)">
<path d="M510.697 65.3626L513.054 75.0311L512.083 75.236L510.413 65.4222L510.697 65.3626Z" fill="#FF9925"/>
<path d="M524.612 57.1495C525.036 62.623 525.591 68.3206 525.677 73.8309L523.819 73.7546C523.898 72.4312 523.898 71.0382 523.9 69.665C523.847 65.6342 523.75 61.2058 523.611 57.2072L524.612 57.1495Z" fill="#FF9925"/>
<path d="M530.03 74.1182C531.15 71.7021 532.486 69.246 532.949 66.6077L533.234 66.6189C532.999 69.377 531.87 71.9458 530.945 74.5268L530.03 74.1182Z" fill="#FF9925"/>
<path d="M504.28 70.3587C504.504 70.3277 504.661 70.1207 504.63 69.8964C504.599 69.6721 504.392 69.5154 504.168 69.5464C503.944 69.5774 503.787 69.7844 503.818 70.0087C503.849 70.233 504.056 70.3897 504.28 70.3587Z" fill="#FF9925"/>
<path d="M505.522 71.0149C505.747 70.9839 505.903 70.7769 505.872 70.5526C505.841 70.3283 505.634 70.1716 505.41 70.2026C505.186 70.2337 505.029 70.4406 505.06 70.6649C505.091 70.8892 505.298 71.0459 505.522 71.0149Z" fill="#FF9925"/>
<path d="M504.011 71.7688C504.235 71.7378 504.392 71.5308 504.361 71.3065C504.33 71.0822 504.123 70.9255 503.898 70.9565C503.674 70.9876 503.517 71.1945 503.548 71.4188C503.579 71.6431 503.786 71.7998 504.011 71.7688Z" fill="#FF9925"/>
<path d="M518.655 68.2396C518.973 68.1957 519.194 67.9029 519.15 67.5856C519.107 67.2683 518.814 67.0466 518.496 67.0905C518.179 67.1344 517.957 67.4272 518.001 67.7445C518.045 68.0618 518.338 68.2834 518.655 68.2396Z" fill="#FF9925"/>
<path d="M542.058 76.0589C542.375 76.015 542.597 75.7222 542.553 75.4049C542.509 75.0876 542.216 74.866 541.899 74.9098C541.581 74.9537 541.36 75.2465 541.404 75.5638C541.448 75.8811 541.74 76.1028 542.058 76.0589Z" fill="#FF9925"/>
<path d="M543.909 72.4417C544.226 72.3979 544.448 72.1051 544.404 71.7878C544.36 71.4704 544.068 71.2488 543.75 71.2926C543.433 71.3365 543.211 71.6293 543.255 71.9466C543.299 72.2639 543.592 72.4856 543.909 72.4417Z" fill="#FF9925"/>
<path d="M548.941 74.9661C549.357 74.9086 549.648 74.5249 549.59 74.1091C549.533 73.6934 549.149 73.4029 548.733 73.4604C548.318 73.5179 548.027 73.9015 548.085 74.3173C548.142 74.7331 548.526 75.0235 548.941 74.9661Z" fill="#FF9925"/>
<path d="M541.507 74.4895C541.731 74.4585 541.888 74.2515 541.857 74.0272C541.826 73.8029 541.619 73.6462 541.394 73.6773C541.17 73.7083 541.013 73.9152 541.044 74.1395C541.075 74.3638 541.282 74.5205 541.507 74.4895Z" fill="#FF9925"/>
</g>
<g clip-path="url(#clip4_780_1382)">
<path d="M710.701 68.3626L713.058 78.0311L712.086 78.236L710.417 68.4222L710.701 68.3626Z" fill="#FF9925"/>
<path d="M724.616 60.1495C725.04 65.623 725.595 71.3206 725.681 76.8309L723.823 76.7546C723.902 75.4312 723.902 74.0382 723.904 72.665C723.851 68.6342 723.754 64.2058 723.615 60.2072L724.616 60.1495Z" fill="#FF9925"/>
<path d="M730.03 77.1182C731.15 74.7021 732.486 72.246 732.949 69.6077L733.234 69.6189C732.999 72.377 731.87 74.9458 730.945 77.5268L730.03 77.1182Z" fill="#FF9925"/>
<path d="M704.284 73.3587C704.508 73.3277 704.665 73.1207 704.634 72.8964C704.603 72.6721 704.396 72.5154 704.172 72.5464C703.947 72.5774 703.791 72.7844 703.822 73.0087C703.853 73.233 704.06 73.3897 704.284 73.3587Z" fill="#FF9925"/>
<path d="M705.526 74.0149C705.751 73.9839 705.907 73.7769 705.876 73.5526C705.845 73.3283 705.638 73.1716 705.414 73.2026C705.19 73.2337 705.033 73.4406 705.064 73.6649C705.095 73.8892 705.302 74.0459 705.526 74.0149Z" fill="#FF9925"/>
<path d="M704.015 74.7688C704.239 74.7378 704.396 74.5308 704.365 74.3065C704.334 74.0822 704.127 73.9255 703.902 73.9565C703.678 73.9876 703.521 74.1945 703.552 74.4188C703.583 74.6431 703.79 74.7998 704.015 74.7688Z" fill="#FF9925"/>
<path d="M718.659 71.2396C718.976 71.1957 719.198 70.9029 719.154 70.5856C719.11 70.2683 718.818 70.0466 718.5 70.0905C718.183 70.1344 717.961 70.4272 718.005 70.7445C718.049 71.0618 718.342 71.2834 718.659 71.2396Z" fill="#FF9925"/>
<path d="M742.062 79.0589C742.379 79.015 742.6 78.7222 742.557 78.4049C742.513 78.0876 742.22 77.866 741.903 77.9098C741.585 77.9537 741.364 78.2465 741.408 78.5638C741.451 78.8811 741.744 79.1028 742.062 79.0589Z" fill="#FF9925"/>
<path d="M743.913 75.4417C744.23 75.3979 744.452 75.1051 744.408 74.7878C744.364 74.4704 744.072 74.2488 743.754 74.2926C743.437 74.3365 743.215 74.6293 743.259 74.9466C743.303 75.2639 743.596 75.4856 743.913 75.4417Z" fill="#FF9925"/>
<path d="M748.945 77.9661C749.361 77.9086 749.652 77.5249 749.594 77.1091C749.537 76.6934 749.153 76.4029 748.737 76.4604C748.321 76.5179 748.031 76.9015 748.088 77.3173C748.146 77.7331 748.53 78.0235 748.945 77.9661Z" fill="#FF9925"/>
<path d="M741.511 77.4895C741.735 77.4585 741.892 77.2515 741.861 77.0272C741.83 76.8029 741.623 76.6462 741.398 76.6773C741.174 76.7083 741.017 76.9152 741.048 77.1395C741.079 77.3638 741.286 77.5205 741.511 77.4895Z" fill="#FF9925"/>
</g>
<g clip-path="url(#clip5_780_1382)">
<path d="M856.701 66.3626L859.058 76.0311L858.086 76.236L856.417 66.4222L856.701 66.3626Z" fill="#FF9925"/>
<path d="M870.616 58.1495C871.04 63.623 871.595 69.3206 871.681 74.8309L869.823 74.7546C869.902 73.4312 869.902 72.0382 869.904 70.665C869.851 66.6342 869.754 62.2058 869.615 58.2072L870.616 58.1495Z" fill="#FF9925"/>
<path d="M876.03 75.1182C877.15 72.7021 878.486 70.246 878.949 67.6077L879.234 67.6189C878.999 70.377 877.87 72.9458 876.945 75.5268L876.03 75.1182Z" fill="#FF9925"/>
<path d="M850.284 71.3587C850.508 71.3277 850.665 71.1207 850.634 70.8964C850.603 70.6721 850.396 70.5154 850.172 70.5464C849.947 70.5774 849.791 70.7844 849.822 71.0087C849.853 71.233 850.06 71.3897 850.284 71.3587Z" fill="#FF9925"/>
<path d="M851.526 72.0149C851.751 71.9839 851.907 71.7769 851.876 71.5526C851.845 71.3283 851.638 71.1716 851.414 71.2026C851.19 71.2337 851.033 71.4406 851.064 71.6649C851.095 71.8892 851.302 72.0459 851.526 72.0149Z" fill="#FF9925"/>
<path d="M850.015 72.7688C850.239 72.7378 850.396 72.5308 850.365 72.3065C850.334 72.0822 850.127 71.9255 849.902 71.9565C849.678 71.9876 849.521 72.1945 849.552 72.4188C849.583 72.6431 849.79 72.7998 850.015 72.7688Z" fill="#FF9925"/>
<path d="M864.659 69.2405C864.976 69.1967 865.198 68.9039 865.154 68.5866C865.11 68.2693 864.818 68.0476 864.5 68.0915C864.183 68.1353 863.961 68.4281 864.005 68.7454C864.049 69.0627 864.342 69.2844 864.659 69.2405Z" fill="#FF9925"/>
<path d="M888.062 77.0589C888.379 77.015 888.6 76.7222 888.557 76.4049C888.513 76.0876 888.22 75.866 887.903 75.9098C887.585 75.9537 887.364 76.2465 887.408 76.5638C887.451 76.8811 887.744 77.1028 888.062 77.0589Z" fill="#FF9925"/>
<path d="M889.913 73.4417C890.23 73.3979 890.452 73.1051 890.408 72.7878C890.364 72.4704 890.072 72.2488 889.754 72.2926C889.437 72.3365 889.215 72.6293 889.259 72.9466C889.303 73.2639 889.596 73.4856 889.913 73.4417Z" fill="#FF9925"/>
<path d="M894.945 75.9661C895.361 75.9086 895.652 75.5249 895.594 75.1091C895.537 74.6934 895.153 74.4029 894.737 74.4604C894.321 74.5179 894.031 74.9015 894.088 75.3173C894.146 75.7331 894.53 76.0235 894.945 75.9661Z" fill="#FF9925"/>
<path d="M887.511 75.4895C887.735 75.4585 887.892 75.2515 887.861 75.0272C887.83 74.8029 887.623 74.6462 887.398 74.6773C887.174 74.7083 887.017 74.9152 887.048 75.1395C887.079 75.3638 887.286 75.5205 887.511 75.4895Z" fill="#FF9925"/>
</g>
<g clip-path="url(#clip6_780_1382)">
<path d="M994.697 67.3626L997.054 77.0311L996.083 77.236L994.413 67.4222L994.697 67.3626Z" fill="#FF9925"/>
<path d="M1008.62 59.1495C1009.04 64.623 1009.6 70.3206 1009.68 75.8309L1007.82 75.7546C1007.9 74.4312 1007.9 73.0382 1007.9 71.665C1007.85 67.6342 1007.75 63.2058 1007.61 59.2072L1008.62 59.1495Z" fill="#FF9925"/>
<path d="M1014.03 76.1172C1015.15 73.7011 1016.49 71.245 1016.95 68.6067L1017.23 68.6179C1017 71.376 1015.87 73.9448 1014.95 76.5258L1014.03 76.1172Z" fill="#FF9925"/>
<path d="M988.284 72.3577C988.508 72.3267 988.665 72.1197 988.634 71.8954C988.603 71.6711 988.396 71.5144 988.172 71.5454C987.947 71.5764 987.791 71.7834 987.822 72.0077C987.853 72.232 988.06 72.3887 988.284 72.3577Z" fill="#FF9925"/>
<path d="M989.526 73.0139C989.751 72.9829 989.907 72.776 989.876 72.5517C989.845 72.3274 989.638 72.1707 989.414 72.2017C989.19 72.2327 989.033 72.4396 989.064 72.6639C989.095 72.8883 989.302 73.0449 989.526 73.0139Z" fill="#FF9925"/>
<path d="M988.015 73.7678C988.239 73.7368 988.396 73.5299 988.365 73.3056C988.334 73.0813 988.127 72.9246 987.902 72.9556C987.678 72.9866 987.521 73.1936 987.552 73.4179C987.583 73.6422 987.79 73.7989 988.015 73.7678Z" fill="#FF9925"/>
<path d="M1002.66 70.2396C1002.98 70.1957 1003.2 69.9029 1003.15 69.5856C1003.11 69.2683 1002.82 69.0466 1002.5 69.0905C1002.18 69.1344 1001.96 69.4272 1002.01 69.7445C1002.05 70.0618 1002.34 70.2834 1002.66 70.2396Z" fill="#FF9925"/>
<path d="M1026.06 78.0579C1026.37 78.0141 1026.6 77.7213 1026.55 77.404C1026.51 77.0867 1026.22 76.865 1025.9 76.9089C1025.58 76.9527 1025.36 77.2455 1025.4 77.5628C1025.45 77.8801 1025.74 78.1018 1026.06 78.0579Z" fill="#FF9925"/>
<path d="M1027.91 74.4407C1028.23 74.3969 1028.45 74.1041 1028.41 73.7868C1028.36 73.4695 1028.07 73.2478 1027.75 73.2917C1027.44 73.3355 1027.22 73.6283 1027.26 73.9456C1027.3 74.2629 1027.6 74.4846 1027.91 74.4407Z" fill="#FF9925"/>
<path d="M1032.95 76.9651C1033.36 76.9076 1033.65 76.5239 1033.59 76.1082C1033.54 75.6924 1033.15 75.4019 1032.74 75.4594C1032.32 75.5169 1032.03 75.9005 1032.09 76.3163C1032.15 76.7321 1032.53 77.0226 1032.95 76.9651Z" fill="#FF9925"/>
<path d="M1025.51 76.4885C1025.73 76.4575 1025.89 76.2506 1025.86 76.0263C1025.83 75.802 1025.62 75.6453 1025.4 75.6763C1025.17 75.7073 1025.02 75.9143 1025.05 76.1386C1025.08 76.3629 1025.29 76.5196 1025.51 76.4885Z" fill="#FF9925"/>
</g>
<g clip-path="url(#clip7_780_1382)">
<path d="M106.697 68.3626L109.054 78.0311L108.083 78.236L106.413 68.4222L106.697 68.3626Z" fill="#FF9925"/>
<path d="M120.616 60.1495C121.04 65.623 121.595 71.3206 121.681 76.8309L119.823 76.7546C119.902 75.4312 119.902 74.0382 119.904 72.665C119.851 68.6342 119.754 64.2058 119.615 60.2072L120.616 60.1495Z" fill="#FF9925"/>
<path d="M126.03 77.1172C127.15 74.7011 128.486 72.245 128.949 69.6067L129.234 69.6179C128.999 72.376 127.87 74.9448 126.945 77.5258L126.03 77.1172Z" fill="#FF9925"/>
<path d="M100.284 73.3577C100.508 73.3267 100.665 73.1197 100.634 72.8954C100.603 72.6711 100.396 72.5144 100.172 72.5454C99.9475 72.5764 99.7908 72.7834 99.8218 73.0077C99.8528 73.232 100.06 73.3887 100.284 73.3577Z" fill="#FF9925"/>
<path d="M101.526 74.0139C101.751 73.9829 101.907 73.776 101.876 73.5517C101.845 73.3274 101.638 73.1707 101.414 73.2017C101.19 73.2327 101.033 73.4396 101.064 73.6639C101.095 73.8883 101.302 74.0449 101.526 74.0139Z" fill="#FF9925"/>
<path d="M100.015 74.7678C100.239 74.7368 100.396 74.5299 100.365 74.3056C100.334 74.0813 100.127 73.9246 99.9022 73.9556C99.6779 73.9866 99.5212 74.1936 99.5522 74.4179C99.5832 74.6422 99.7902 74.7989 100.015 74.7678Z" fill="#FF9925"/>
<path d="M114.659 71.2396C114.976 71.1957 115.198 70.9029 115.154 70.5856C115.11 70.2683 114.818 70.0466 114.5 70.0905C114.183 70.1344 113.961 70.4272 114.005 70.7445C114.049 71.0618 114.342 71.2834 114.659 71.2396Z" fill="#FF9925"/>
<path d="M138.058 79.0579C138.375 79.0141 138.597 78.7213 138.553 78.404C138.509 78.0867 138.216 77.865 137.899 77.9089C137.581 77.9527 137.36 78.2455 137.404 78.5628C137.448 78.8801 137.74 79.1018 138.058 79.0579Z" fill="#FF9925"/>
<path d="M139.913 75.4407C140.23 75.3969 140.452 75.1041 140.408 74.7868C140.364 74.4695 140.072 74.2478 139.754 74.2917C139.437 74.3355 139.215 74.6283 139.259 74.9456C139.303 75.2629 139.596 75.4846 139.913 75.4407Z" fill="#FF9925"/>
<path d="M144.945 77.9651C145.361 77.9076 145.652 77.5239 145.594 77.1082C145.537 76.6924 145.153 76.4019 144.737 76.4594C144.321 76.5169 144.031 76.9005 144.088 77.3163C144.146 77.7321 144.53 78.0226 144.945 77.9651Z" fill="#FF9925"/>
<path d="M137.511 77.4885C137.735 77.4575 137.892 77.2506 137.861 77.0263C137.83 76.802 137.623 76.6453 137.398 76.6763C137.174 76.7073 137.017 76.9143 137.048 77.1386C137.079 77.3629 137.286 77.5196 137.511 77.4885Z" fill="#FF9925"/>
</g>
<path d="M-3.49691e-07 78C19.9833 78.2667 39.9667 78.52 59.95 78.76C239.8 80.92 419.65 82 599.5 81.9999C779.35 81.9999 959.2 80.9199 1139.05 78.7599C1159.03 78.5199 1179.02 78.2666 1199 77.9999C1179.02 77.7332 1159.03 77.4799 1139.05 77.2399C959.2 75.0799 779.35 73.9999 599.5 73.9999C419.65 74 239.8 75.08 59.95 77.24C39.9667 77.48 19.9833 77.7333 -3.49691e-07 78Z" fill="#FF9925"/>
<defs>
<clipPath id="clip0_780_1382">
<rect width="19" height="10" fill="white" transform="translate(441.867 58) rotate(4.97388)"/>
</clipPath>
<clipPath id="clip1_780_1382">
<rect width="19" height="10" fill="white" transform="translate(804.867 59) rotate(4.97388)"/>
</clipPath>
<clipPath id="clip2_780_1382">
<rect width="45.24" height="21.2" fill="white" transform="translate(302 60.1953) rotate(-7.87097)"/>
</clipPath>
<clipPath id="clip3_780_1382">
<rect width="45.24" height="21.2" fill="white" transform="translate(502 60.1953) rotate(-7.87097)"/>
</clipPath>
<clipPath id="clip4_780_1382">
<rect width="45.24" height="21.2" fill="white" transform="translate(702 63.1953) rotate(-7.87097)"/>
</clipPath>
<clipPath id="clip5_780_1382">
<rect width="45.24" height="21.2" fill="white" transform="translate(848 61.1953) rotate(-7.87097)"/>
</clipPath>
<clipPath id="clip6_780_1382">
<rect width="45.24" height="21.2" fill="white" transform="translate(986 62.1953) rotate(-7.87097)"/>
</clipPath>
<clipPath id="clip7_780_1382">
<rect width="45.24" height="21.2" fill="white" transform="translate(98 63.1953) rotate(-7.87097)"/>
</clipPath>
</defs>
</svg>
