<svg width="91" height="66" viewBox="0 0 91 66" fill="none" xmlns="http://www.w3.org/2000/svg">
<g clip-path="url(#clip0_773_1204)">
<path d="M90.7089 16.3302V15.6302C90.6489 12.4502 90.5689 6.53023 87.0589 6.15023C84.2589 6.47023 82.9489 12.8302 82.2389 16.2502C82.2389 16.2802 82.2289 16.3002 82.2189 16.3302C81.4389 12.7402 80.4289 8.95023 78.6589 5.27023C78.1489 4.21023 77.1689 2.89023 75.9589 2.34023C75.7089 2.23023 75.4589 2.17023 75.1989 2.17023C74.0989 2.17023 73.2289 3.22023 72.8789 4.20023C72.0589 6.52023 72.1389 8.81023 72.3589 11.1902C70.2789 6.68023 68.2189 3.41023 64.6089 0.550234C64.1689 0.200234 63.5589 0.000234375 62.9389 0.000234375C62.4789 0.000234375 62.0689 0.110234 61.7789 0.310234C60.7489 1.01023 60.2989 1.98023 60.5389 2.97023C61.1089 5.28023 61.7489 7.74023 62.7089 10.1902L67.3589 22.0102C64.9989 20.2202 62.3689 19.2902 59.7089 19.2902C55.6889 19.2902 51.8489 21.3502 48.8989 25.0802C46.9789 27.3502 45.8989 29.7302 45.5989 32.3502C45.4789 33.4302 45.7889 34.5302 46.4389 35.2902C46.9889 35.9402 47.7389 36.3102 48.6789 36.3502C49.3689 36.3502 50.0089 35.8502 50.6489 35.3002L53.4389 32.9002C54.7089 31.8002 56.0189 30.9302 57.4589 30.2402C58.1989 29.8802 59.0289 29.6902 59.8589 29.6902C61.4189 29.6902 62.7789 30.3402 63.5689 31.4802C64.5089 32.8202 64.7189 34.9802 64.0789 36.7402C63.4689 38.4102 62.3889 39.9502 60.7689 41.4802C59.5289 42.6402 57.9789 43.4802 56.4789 44.2902L48.5789 48.5602C47.0389 49.3902 45.9489 50.6602 45.3389 52.3202C44.6889 50.6002 43.5789 49.3402 41.9789 48.4602L32.1189 43.0802C30.3389 42.1102 29.1489 40.8202 27.9089 39.1702C26.4589 37.2502 25.3889 34.0902 27.1589 31.4802C27.9289 30.3402 29.2689 29.6902 30.8289 29.6902C31.7189 29.6902 32.5989 29.9002 33.3789 30.2902C34.8989 31.0602 36.0389 31.8102 37.0689 32.7102L40.1489 35.4002C40.8589 36.0202 41.5589 36.3302 42.2389 36.3302C42.8589 36.3302 43.4489 36.0702 43.9989 35.5602C46.6289 33.1202 44.0189 27.5102 41.8289 25.0702C38.8589 21.3302 35.0089 19.2802 30.9989 19.2802C28.3389 19.2802 25.7289 20.2202 23.3789 22.0002L28.0189 10.1702C28.9089 7.91023 29.5089 5.66023 30.1489 3.16023C30.4289 2.07023 30.0389 1.03023 29.1089 0.380234C28.7589 0.130234 28.2589 -0.00976562 27.7489 -0.00976562C27.1889 -0.00976562 26.6589 0.160234 26.2489 0.460234C22.4889 3.23023 20.1989 7.18023 18.3689 11.1802C18.5989 8.72023 18.7089 6.38023 17.7789 4.02023C17.4189 3.12023 16.5689 2.16023 15.5189 2.16023C15.2689 2.16023 15.0189 2.22023 14.7789 2.33023C13.5389 2.91023 12.5689 4.23024 12.0689 5.26023C10.3089 8.91023 9.29894 12.7102 8.50894 16.3202C8.48894 16.2402 8.47894 16.1602 8.45894 16.0802C7.75894 12.7302 6.46894 6.50023 3.61894 6.12023C0.158942 6.57023 0.0789416 12.4702 0.0289416 15.6402V16.3302C-0.0910584 21.3102 0.218942 26.4502 0.988942 32.5102L2.57894 45.0102C3.39894 51.4302 5.41894 59.5402 7.47894 64.7302C7.59894 65.0302 8.07894 65.1502 8.35894 65.1502C8.57894 65.1502 8.72894 65.0902 8.81894 64.9802C9.00894 64.7402 9.04894 64.2802 8.91894 63.8902C6.60894 56.8802 5.08894 50.3802 4.28894 44.0302L2.48894 29.7302C1.97894 25.6902 1.77894 21.5602 1.83894 16.3402V16.1002C1.88894 11.0902 2.45894 8.37024 3.53894 8.02024C4.29894 8.64023 4.86894 9.64023 5.24894 10.9902C6.83894 16.6702 6.85894 16.9602 7.21894 21.7602L7.36894 23.6702C7.39894 24.0302 7.86894 24.6202 8.29894 24.6702C8.66894 24.6702 9.23894 24.1302 9.25894 23.7602C9.53894 18.4802 11.1989 11.6602 13.4989 6.37023C13.8489 5.57023 14.8589 4.03023 15.5689 4.03023C16.2389 4.23023 16.7289 7.35023 16.6789 8.14023L16.1989 14.8502C16.0489 17.0302 15.7289 18.8902 15.1689 20.8902C15.0789 21.2102 15.2189 21.6002 15.3689 21.8202C15.5089 22.0402 15.6889 22.1702 15.9389 22.2102C16.2989 22.2102 16.8989 21.8102 16.9889 21.4402L17.8289 17.8602C18.5889 14.6202 20.0189 11.7102 21.4389 9.04023C23.1289 5.87023 24.9589 3.62023 27.1889 1.98023C27.2989 1.90023 27.5989 1.83023 27.8689 1.83023C27.9589 1.83023 28.0489 1.83023 28.0989 1.85023C28.2189 1.91023 28.4189 2.41023 28.3689 2.61023C27.7289 5.19023 26.9589 7.98023 25.7189 10.9102C23.6989 15.6702 22.0689 19.9002 20.5889 24.2102C20.4389 24.6502 20.6889 25.2902 21.1089 25.5202C21.1889 25.5602 21.2689 25.5802 21.3589 25.5802C21.8189 25.5802 22.4389 25.0502 23.3089 24.3302C23.9489 23.7902 24.6789 23.1702 25.4189 22.7302C27.2289 21.6502 29.0989 21.1102 30.9789 21.1102C34.0389 21.1102 36.9889 22.5302 39.5089 25.2002C41.5089 27.3302 42.6689 29.3902 43.1489 31.6802C43.3589 32.7102 43.2289 33.6402 42.7689 34.2402C42.6289 34.4202 42.4189 34.4502 42.2589 34.4502C41.9889 34.4502 41.6789 34.3402 41.4889 34.1802L37.9289 31.1002C36.7589 30.0902 35.4589 29.2502 33.9489 28.5302C32.9989 28.0702 31.9289 27.8302 30.8489 27.8302C28.3989 27.8302 26.2989 29.0202 25.2489 31.0202C24.2489 32.9202 24.1089 35.3602 24.8989 37.3802C26.9689 42.6902 31.7989 45.1602 36.4689 47.5502C38.2689 48.4702 40.1289 49.4202 41.7789 50.5102C43.0489 51.3502 43.7589 52.5702 43.7189 53.8702C43.7189 54.0702 43.6989 54.6702 42.4289 54.6702C41.4189 54.6702 40.1889 54.3002 39.6989 54.1402C34.3189 52.3802 30.0789 51.4502 25.9589 51.1202C25.8489 51.1202 25.7489 51.1102 25.6389 51.1102C24.1489 51.1102 22.5489 51.9102 22.3789 53.4502C22.0689 56.1802 22.3489 58.7602 22.6389 61.4902C22.6889 62.0002 22.8089 63.1702 22.8089 63.1702C22.8589 63.7102 22.9389 64.6202 23.8589 64.6202C24.0489 64.6102 24.2189 64.5202 24.3489 64.3602C24.6389 64.0102 24.7089 63.3502 24.6489 62.9002C24.2889 60.1202 23.9689 57.1102 24.0989 53.9202C24.0989 53.6802 24.1389 52.9602 25.9489 52.9602C26.8189 52.9602 27.7789 53.1302 28.4089 53.2402L28.6389 53.2802C32.2689 53.8902 35.6089 54.7202 38.8489 55.8102C39.9889 56.1902 41.2089 56.5502 42.2989 56.5502C43.6789 56.5502 44.6589 56.0002 45.2989 54.8702C45.9389 56.0102 46.9289 56.5602 48.2989 56.5602C49.1089 56.5602 50.0289 56.3702 51.2789 55.9602C54.5989 54.8502 57.9289 54.0002 61.4489 53.3602L61.6489 53.3202C62.3589 53.1902 63.5389 52.9702 64.5889 52.9702C65.8589 52.9702 66.5089 53.2902 66.5289 53.9302C66.6389 56.7402 66.4489 59.5402 65.9389 63.0202C65.8789 63.4002 66.0089 64.0302 66.2989 64.3802C66.4789 64.5902 66.6689 64.6402 66.8289 64.6402C67.6889 64.6402 67.7689 63.7302 67.8189 63.1902L67.9389 62.0402C68.2589 59.1302 68.5689 56.3902 68.2589 53.4902C68.0989 51.9502 66.4589 51.1102 65.0089 51.1102C64.8989 51.1102 64.7789 51.1102 64.6689 51.1202C60.5589 51.4702 56.3689 52.3602 51.8689 53.8402L51.5789 53.9402C50.6889 54.2402 49.3389 54.6902 48.2889 54.6902C47.6689 54.6902 47.2389 54.5302 47.0289 54.2002C46.8489 53.9202 46.8089 53.5602 46.9289 53.1002C47.1989 52.0402 48.2489 50.7502 49.3289 50.1702L58.2289 45.3502C61.8989 43.3702 64.4189 40.6802 65.7389 37.3802C66.5689 35.3002 66.3689 32.6402 65.2389 30.7502C64.1389 28.9202 62.1089 27.8302 59.8089 27.8302C58.7289 27.8302 57.6489 28.0702 56.6889 28.5302C55.1089 29.2802 53.8089 30.1302 52.5889 31.1902L49.0589 34.2702C48.8489 34.4502 48.6389 34.5502 48.4389 34.5502C48.1289 34.5502 47.8389 34.3002 47.6589 33.8702C47.1489 32.6902 47.2189 29.3702 51.1289 25.1902C53.5889 22.5602 56.6189 21.1102 59.6589 21.1102C61.5989 21.1102 63.5189 21.6802 65.3589 22.8002C66.1489 23.2802 66.8089 23.8602 67.5189 24.4602C67.9389 24.8302 68.3689 25.2002 68.8289 25.5502C68.9089 25.6102 69.0089 25.6502 69.1189 25.6502C69.4189 25.6502 69.7089 25.4002 69.8789 25.1602C70.0889 24.8702 70.1689 24.5702 70.0889 24.3402C68.4089 19.2902 66.4289 14.4602 64.6989 10.3302C63.5889 7.67023 61.8889 2.28023 62.4889 1.90023C62.5789 1.84023 62.6789 1.82023 62.7989 1.82023C63.1889 1.82023 63.9289 2.12023 65.2789 3.54023C66.9489 5.30023 68.2389 7.13023 69.3589 9.30023C70.6989 11.9102 72.0789 14.7102 72.7789 17.6902L73.6589 21.4402C73.7489 21.8102 74.3589 22.2202 74.7689 22.2202C74.9889 22.1902 75.1589 22.1002 75.2789 21.9302C75.6189 21.4502 75.3989 20.5102 75.0989 19.2202C74.8989 18.3802 74.6789 17.4202 74.5989 16.4902L74.0789 10.3002C73.9289 8.44024 73.8889 6.44023 74.6989 4.42023C74.7489 4.30023 74.9989 4.05023 75.1589 4.01023C75.7089 4.01023 76.6789 5.37023 76.9589 5.97023C79.2789 10.9402 81.1789 18.5902 81.3889 23.7602C81.4089 24.1502 81.9289 24.6602 82.3989 24.6602C82.7589 24.6002 83.2589 24.0402 83.2889 23.6602L83.4189 22.0602C83.8189 17.0302 83.9389 15.5102 85.7889 9.92023C86.0289 9.19024 86.5789 8.41024 87.1189 8.02024C88.1989 8.31024 88.7789 11.0002 88.8189 16.0402V16.3202C88.8889 21.5402 88.6889 25.6702 88.1789 29.7102L86.3789 44.0102C85.5789 50.3502 84.0589 56.8502 81.7489 63.8602C81.6289 64.2302 81.6689 64.7002 81.8489 64.9402C81.9389 65.0602 82.0989 65.1202 82.3289 65.1202C82.6089 65.1202 83.0789 65.0102 83.1889 64.7202C84.1489 62.2602 84.8489 60.1902 85.3289 58.3802C86.4089 54.2602 87.4989 49.7602 88.1289 44.8202L89.6789 32.6802C90.4789 26.3802 90.7889 21.3402 90.6689 16.3202L90.7089 16.3302Z" fill="black"/>
</g>
<defs>
<clipPath id="clip0_773_1204">
<rect width="90.73" height="65.14" fill="white"/>
</clipPath>
</defs>
</svg>
