<svg width="92" height="106" viewBox="0 0 92 106" fill="none" xmlns="http://www.w3.org/2000/svg">
<path d="M54.2266 79.1714L48.7341 85.0171L46.5821 87.3128L31.6022 103.272C29.8562 105.138 27.1217 105.596 25.4927 104.315L25.2841 104.152C23.6643 102.867 23.7076 100.27 25.3898 98.3546L36.7519 85.4114C38.4341 83.496 38.3289 80.7768 36.5174 79.3438C34.706 77.9109 31.9285 78.3438 30.3102 80.3084L19.3859 93.5999C17.7676 95.5645 15.1387 96.1196 13.5188 94.8343L13.3103 94.672C11.6904 93.3867 11.623 90.706 13.1735 88.6829L23.643 75.0285C25.1936 73.0055 24.9815 70.2117 23.17 68.7788C21.3585 67.3458 18.6918 67.8625 17.2052 69.9348L7.16966 83.9281C5.68298 86.0004 3.16097 86.63 1.54111 85.3447L1.33259 85.1825C-0.287268 83.8971 -0.456311 81.1287 0.957277 79.0111L13.1146 60.806L14.8625 58.1913L19.3177 51.5214C24.0128 44.4914 33.1675 43.0339 39.7708 48.2645L41.1482 49.3585C42.3336 42.9802 46.0972 34.6268 51.8732 26.474C61.8733 12.3438 82.7768 -4.16871 89.2485 0.954298C95.7202 6.0773 84.4943 30.2543 72.9891 43.1922C66.345 50.667 59.0562 56.2328 53.109 58.8334C59.3639 64.1119 59.8906 73.1132 54.2227 79.1621L54.2266 79.1714Z" fill="#FFB801"/>
</svg>
