<svg width="69" height="62" viewBox="0 0 69 62" fill="none" xmlns="http://www.w3.org/2000/svg">
<path d="M45.736 16.9722L32.3412 17.9956L44.978 20.1367L35.8115 26.766L48.1095 25.7899L46.2993 35.7674L52.8044 27.38L58.1001 31.9666L55.5442 25.7979L63.7984 28.9419L57.4332 20.8997L64.9433 16.6L54.2127 17.1962L57.3969 9.0539L50.9975 14.1879L48.8246 3.0586L49.0165 15.3214L40.0487 10.4169L45.736 16.9722Z" fill="#FFB801"/>
<path d="M9.21497 49.1037L1.67094 49.6801L8.78804 50.8859L3.62545 54.6196L10.5517 54.0699L9.5322 59.6892L13.1959 54.9654L16.1785 57.5486L14.739 54.0744L19.3878 55.8451L15.8029 51.3157L20.0326 48.8941L13.989 49.2299L15.7824 44.6441L12.1782 47.5356L10.9545 41.2675L11.0625 48.1739L6.01187 45.4118L9.21497 49.1037Z" fill="#FFB801"/>
<path d="M42.2344 54.8519L38.1786 55.1618L42.0049 55.8101L39.2294 57.8174L42.9531 57.5219L42.405 60.543L44.3747 58.0033L45.9782 59.3921L45.2043 57.5243L47.7036 58.4763L45.7762 56.0411L48.0502 54.7392L44.8011 54.9198L45.7652 52.4543L43.8275 54.0089L43.1696 50.639L43.2277 54.3521L40.5124 52.867L42.2344 54.8519Z" fill="#FFB801"/>
</svg>
