<svg width="63" height="64" viewBox="0 0 63 64" fill="none" xmlns="http://www.w3.org/2000/svg">
<g clip-path="url(#clip0_776_1246)">
<path d="M49.7617 63.1301H36.5717V62.1401C36.5317 58.2401 34.3317 54.4301 30.9717 52.4501C27.6017 50.4701 23.2117 50.3901 19.7817 52.2501C16.3517 54.1101 14.0217 57.8301 13.8417 61.7401L13.8017 62.7001H12.8017C11.0017 62.7001 8.95172 62.7001 6.90172 62.6901C4.86172 62.6901 2.81172 62.6801 1.01172 62.6801H0.0117188V61.6801C0.0117188 57.1501 0.0917187 52.6801 0.161719 48.3501C0.231719 44.0301 0.311719 39.5701 0.311719 35.0601C0.311719 31.4501 0.581719 17.7501 0.661719 15.5101L0.701719 14.5801L1.63172 14.5501C1.89172 14.5501 8.09172 14.3501 9.26172 14.3501H16.3517C15.6317 11.2701 15.2317 8.2901 16.4417 5.51011C18.1717 1.52011 23.0917 -0.749895 27.8817 0.230105C30.9417 0.850105 33.4217 2.6501 34.5317 5.03011C35.8717 7.93011 35.1517 11.0601 34.0517 14.1001L49.3517 14.1301L49.2417 28.3001C52.9817 27.0501 57.4817 28.1601 60.0917 31.1601C63.0517 34.5801 63.2317 40.0801 60.5217 43.6901C58.1017 46.9001 53.6317 48.3101 49.7817 47.2501V63.1301H49.7617ZM38.5117 61.1301H47.7617L47.7717 44.2601L49.1917 44.9201C52.4717 46.4401 56.7417 45.3701 58.9117 42.4901C61.0817 39.6001 60.9317 35.2001 58.5717 32.4701C56.2017 29.7401 51.8717 28.9701 48.7117 30.7001L47.2217 31.5201L47.3417 16.1201L31.1517 16.0901L31.6817 14.7301C32.8717 11.6801 33.9317 8.4801 32.7217 5.86011C31.8817 4.05011 29.9317 2.6701 27.4917 2.1801C24.1417 1.5001 19.7817 2.85011 18.2817 6.30011C17.1617 8.8701 17.8017 11.9201 18.6017 15.1001L18.9217 16.3501H9.27172C8.40172 16.3501 4.47172 16.4601 2.64172 16.5201C2.54172 20.3301 2.32172 31.8101 2.32172 35.0601C2.32172 39.5901 2.24172 44.0601 2.17172 48.3901C2.10172 52.3901 2.03172 56.5101 2.02172 60.6801C3.56172 60.6801 5.24172 60.6801 6.92172 60.6901C8.64172 60.6901 10.3617 60.6901 11.9317 60.7001C12.4417 56.4701 15.0817 52.5401 18.8317 50.5001C22.8717 48.3101 28.0317 48.4001 31.9917 50.7301C35.6617 52.8901 38.1517 56.9001 38.5317 61.1301H38.5117Z" fill="black"/>
</g>
<defs>
<clipPath id="clip0_776_1246">
<rect width="62.43" height="63.13" fill="white"/>
</clipPath>
</defs>
</svg>
