<svg width="167" height="123" viewBox="0 0 167 123" fill="none" xmlns="http://www.w3.org/2000/svg">
<path d="M109.779 82.9553C109.361 83.1011 108.841 83.3459 108.9 83.5305L109.182 84.4106L109.508 85.4313C109.593 85.6925 109.084 86.0661 108.878 86.357L108.419 87.0017C108.295 87.1762 108.795 87.7785 108.977 87.6756C109.559 87.3438 110.523 86.3855 111.021 85.7484L109.775 82.9575L109.779 82.9553Z" fill="black"/>
<path d="M56.6679 38.0522C57.015 37.1714 57.0279 35.7695 55.8134 35.9584L55.3691 38.6103C55.3402 38.7755 56.1379 39.1568 56.223 39.0133C56.3369 38.8204 56.4656 38.5641 56.6679 38.0522Z" fill="black"/>
<path d="M136.288 84.7527C136.115 84.6837 135.554 85.2317 135.64 85.3694C135.726 85.5071 135.97 85.8841 136.12 85.9459L137.969 86.6908C138.114 86.7489 138.493 86.5377 138.593 86.4164C138.728 86.255 138.488 85.6308 138.294 85.5524L136.286 84.7496L136.288 84.7527Z" fill="black"/>
<path d="M47.4645 77.4888C46.9677 77.0276 45.4539 76.6855 44.7742 76.7206C44.541 76.7338 44.5142 77.6484 44.7354 77.7127L46.5943 78.2613C46.7528 78.3081 47.038 78.3682 47.1403 78.3933C47.2977 78.4317 47.5881 77.6034 47.4645 77.4888Z" fill="black"/>
<path d="M54.8153 31.7193C54.6873 31.5268 53.8718 31.4396 53.7745 31.6467C53.6772 31.8539 53.7012 32.288 53.8403 32.4799L54.8896 33.9143C54.9918 34.055 55.4896 34.1806 55.6643 34.1864C55.8961 34.195 55.9921 33.4782 55.8662 33.2889L54.8158 31.7166L54.8153 31.7193Z" fill="black"/>
<path d="M145.165 89.8194C145.032 89.6976 144.368 89.7469 144.296 89.8817C144.199 90.0586 144.252 90.5397 144.413 90.6889L145.827 92.0114C145.99 92.1638 146.516 92.1295 146.698 92.0404C146.88 91.9513 146.825 91.3323 146.68 91.1999L145.163 89.8136L145.165 89.8194Z" fill="black"/>
<path d="M111.741 88.3232C111.683 88.111 111.212 87.641 111.028 87.6829C110.799 87.7353 110.531 88.2431 110.591 88.4748L111.059 90.3376C111.107 90.5313 111.562 90.8524 111.762 90.8411C112.011 90.8283 112.28 90.2574 112.213 90.0161L111.741 88.3205L111.741 88.3232Z" fill="black"/>
<path d="M35.79 40.7882C34.9364 39.953 34.4057 40.9033 33.9881 41.4347L33.3951 42.194C33.2348 42.4002 33.5307 43.0929 33.8618 43.214C34.5711 42.7082 35.4349 41.5959 35.79 40.7882Z" fill="black"/>
<path d="M107.286 79.0363C107.17 78.893 106.421 78.9505 106.343 79.1257C106.246 79.3467 106.331 79.732 106.533 79.9689L107.804 81.465C107.907 81.5866 108.374 81.5576 108.477 81.4395C108.579 81.3214 108.705 80.7783 108.608 80.655L107.289 79.0368L107.286 79.0363Z" fill="black"/>
<path d="M25.3123 33.8909C25.2309 33.699 24.7232 33.3954 24.5661 33.4699C24.409 33.5445 24.1279 34.0662 24.1964 34.2252L25.0537 36.2039C25.1242 36.3661 25.693 36.4942 25.8695 36.4619C26.0459 36.4296 26.1863 35.9113 26.1136 35.7459L25.3097 33.8903L25.3123 33.8909Z" fill="black"/>
<path d="M34.9242 44.2764C34.7208 44.1907 34.2174 44.2953 34.0732 44.4605C33.4344 45.1863 36.3025 46.5751 36.9334 45.7899C37.0702 45.6206 36.7552 45.0564 36.5545 44.9712L34.9242 44.2764Z" fill="black"/>
<path d="M32.7612 44.857C32.0265 43.7444 31.3862 44.9518 31.0221 45.5485C30.6579 46.1452 30.1994 47.0487 31.1525 47.2779C31.6633 46.891 32.4729 45.6169 32.7607 44.8597L32.7612 44.857Z" fill="black"/>
<path d="M151.719 97.5967C151.625 97.4411 151.065 97.2402 150.889 97.2397C149.971 97.2265 151.765 100.557 152.448 100.102C152.602 99.9989 152.828 99.4501 152.732 99.2913L151.719 97.5967Z" fill="black"/>
<path d="M21.0383 5.96826C20.6679 5.01899 20.5891 4.08148 19.64 4.233C19.4171 5.09626 19.6092 6.66125 20.4324 7.25386C20.8257 7.53839 21.1895 6.35515 21.0383 5.96826Z" fill="black"/>
<path d="M23.8728 29.2199C23.8455 29.1183 23.6198 28.8768 23.5525 28.7978C23.4521 28.6767 22.7817 28.9505 22.7983 29.1078C22.8916 29.9407 22.9635 31.5598 23.7859 31.9127C23.9786 31.9964 24.4557 31.369 24.4023 31.1743L23.8728 29.2199Z" fill="black"/>
<path d="M85.3563 72.4403L83.5454 72.6885C83.3477 72.7167 82.8985 73.1264 82.9181 73.3256C83.0047 74.1931 86.2478 73.8528 86.1004 72.8718C86.0686 72.6648 85.6216 72.403 85.3536 72.4398L85.3563 72.4403Z" fill="black"/>
<path d="M22.3161 15.5756C22.3292 14.9476 22.0581 14.0393 21.5923 13.818C20.6824 14.6544 21.004 16.2745 21.5291 17.1046C21.7037 17.1105 22.2874 16.9744 22.2923 16.7909L22.3166 15.573L22.3161 15.5756Z" fill="black"/>
<path d="M40.9768 74.8215C40.7441 74.6889 40.0373 74.7794 39.9968 75.0057C39.9562 75.232 40.1574 75.7881 40.363 75.8908L41.947 76.6841C42.1048 76.7639 42.5922 76.714 42.7531 76.6484C42.9678 76.5601 42.7886 75.8456 42.583 75.7292L40.9763 74.8242L40.9768 74.8215Z" fill="black"/>
<path d="M61.844 78.8476L59.6787 78.8958C59.4967 78.8995 59.1118 79.3462 59.0942 79.5246C59.0701 79.7651 59.6128 80.0727 59.854 80.061L61.6846 79.9818C61.8423 79.9762 62.1877 79.6926 62.2868 79.5767C62.4205 79.4233 62.0403 78.8411 61.844 78.8476Z" fill="black"/>
<path d="M129.521 82.7305C129.249 81.4834 125.297 81.0381 126.3 82.1112C126.936 82.7919 128.779 83.5384 129.521 82.7305Z" fill="black"/>
<path d="M149.951 95.7786C150.342 94.8237 148.275 92.5942 147.93 93.2358C147.31 94.3921 149.678 96.445 149.951 95.7786Z" fill="black"/>
<path d="M37.0882 71.9594C36.9459 71.8276 36.4388 71.736 36.2804 71.7745C36.122 71.813 35.8633 72.3611 35.9821 72.4719L37.6441 74.0346C37.7886 74.1696 38.3266 74.157 38.4909 74.059C38.6553 73.961 38.6051 73.3622 38.4654 73.2308L37.0887 71.9568L37.0882 71.9594Z" fill="black"/>
<path d="M124.553 80.8233L122.089 80.5362C121.933 80.5174 121.53 80.8726 121.442 81.0044C120.798 81.9302 123.589 81.7376 124.268 81.9226L124.555 80.8238L124.553 80.8233Z" fill="black"/>
<path d="M71.9294 77.1428C71.3308 76.3674 68.4146 77.6404 68.9142 78.2592C69.0408 78.4156 69.5517 78.6455 69.7326 78.5755L71.5776 77.8905C71.7549 77.8253 72.0433 77.294 71.9268 77.1423L71.9294 77.1428Z" fill="black"/>
<path d="M99.0517 102.831C99.297 102.195 99.4346 101.046 98.7971 101.133C97.895 101.47 97.364 103.125 97.6967 103.998C98.2639 104.393 98.7623 103.582 99.0517 102.831Z" fill="black"/>
<path d="M33.9786 68.2828C33.8385 68.0963 33.3729 67.8888 33.1751 67.9032C32.9773 67.9177 32.7756 68.584 32.8938 68.7415L34.2528 70.5959C34.3442 70.7208 35.0716 70.5654 35.1117 70.4134C35.1668 70.2119 35.1239 69.8044 34.9993 69.6374L33.9791 68.2801L33.9786 68.2828Z" fill="black"/>
<path d="M119.006 80.6489L117.012 81.0329C116.827 81.069 116.435 81.5089 116.465 81.6964C116.495 81.8839 116.96 82.2537 117.146 82.2123L119.314 81.735C119.432 81.708 119.623 81.2985 119.686 81.1977C119.784 81.0457 119.203 80.6095 119.003 80.6484L119.006 80.6489Z" fill="black"/>
<path d="M27.5892 38.1947C27.4684 38.0367 27.1153 37.8865 26.9267 37.8531C26.7381 37.8198 26.3959 38.5886 26.5182 38.7387L27.958 40.5012C28.0339 40.5928 28.5436 40.5554 28.6604 40.5337C28.8374 40.4987 28.9411 39.9569 28.8289 39.8115L27.5887 38.1974L27.5892 38.1947Z" fill="black"/>
<path d="M99.0302 110.526C98.9413 110.46 98.5006 110.596 98.4792 110.707C98.2335 112.034 100.571 113.225 100.887 112.779C101.022 112.59 100.962 111.959 100.769 111.817L99.0302 110.526Z" fill="black"/>
<path d="M21.6038 9.4914C21.5797 9.31607 21.1381 9.06909 20.9753 9.02968C20.1675 8.84478 20.4703 11.984 21.235 12.1936C21.4386 12.2491 21.9003 11.6739 21.8711 11.4673L21.6038 9.4914Z" fill="black"/>
<path d="M31.7403 63.8926C31.6627 63.7098 31.0198 63.3665 30.9055 63.5043C30.7913 63.6421 30.5745 64.0715 30.6414 64.2385L31.3825 66.0352C31.444 66.1874 31.8268 66.4259 31.9707 66.492C32.1598 66.5805 32.6132 65.9624 32.5296 65.7674L31.7409 63.8899L31.7403 63.8926Z" fill="black"/>
<path d="M22.5182 22.0075C23.0222 21.4982 22.7148 18.2397 21.633 18.8257C21.528 19.6041 21.5114 20.997 21.6113 21.666C21.6436 21.8704 22.3723 22.153 22.5156 22.007L22.5182 22.0075Z" fill="black"/>
<path d="M80.9643 73.3738C80.0189 73.4627 77.4986 74.1314 78.2603 74.8444C78.4186 74.9931 78.8885 75.1353 79.1001 75.0629L81.0015 74.4135C81.2131 74.3411 81.1821 73.3549 80.9643 73.3738Z" fill="black"/>
<path d="M76.1586 74.9848L73.9036 75.7455C73.7126 75.8108 73.4575 76.4834 73.5824 76.6202C73.7073 76.757 74.1143 76.912 74.2832 76.848L76.1201 76.1477C76.2325 76.1059 76.4821 75.8205 76.5666 75.7375C76.6948 75.6133 76.3286 74.9292 76.1581 74.9875L76.1586 74.9848Z" fill="black"/>
<path d="M23.2765 26.0246C23.3701 25.2055 23.1559 23.9419 22.3594 23.8418C21.6217 24.4385 22.0961 26.1787 22.4242 26.8611C22.4931 27.0036 23.162 27.0243 23.1809 26.8682L23.2759 26.0273L23.2765 26.0246Z" fill="black"/>
<path d="M102.896 76.1452C102.704 76.0588 102.066 76.6224 102.166 76.7599C102.266 76.8975 102.51 77.2114 102.656 77.2971L104.274 78.2704C104.466 78.387 105.063 77.8981 105.129 77.6382C104.697 77.1646 103.577 76.4489 102.896 76.1452Z" fill="black"/>
<path d="M110.374 112.048C110.5 110.659 106.648 113.375 107.588 113.629C108.665 113.948 109.943 113.265 110.374 112.048Z" fill="black"/>
<path d="M67.2859 79.2148C67.1288 78.6863 66.858 78.2214 66.6424 78.2573L64.5356 78.6168C64.3966 78.6398 64.111 78.9981 64.0139 79.1035C63.8828 79.2436 64.5426 79.7856 64.7428 79.7441L67.2864 79.2121L67.2859 79.2148Z" fill="black"/>
<path d="M113.304 105.358C113.371 105.024 114 102.366 113.12 102.473C112.903 102.501 112.435 102.808 112.419 103.019L112.283 104.893C112.27 105.064 112.449 105.451 112.536 105.597C112.623 105.743 113.269 105.525 113.304 105.358Z" fill="black"/>
<path d="M97.988 106.169C97.9488 105.958 97.0915 105.874 97.0566 106.085C97.0141 106.335 96.4496 109.256 97.9753 109.077C98.1722 108.55 98.1203 106.855 97.988 106.169Z" fill="black"/>
<path d="M52.5023 78.7809C51.7442 77.9777 49.833 77.5733 49.1861 78.2838C49.311 79.5111 53.2077 79.5299 52.5023 78.7809Z" fill="black"/>
<path d="M43.3081 34.3549C42.7629 33.9312 42.2966 33.7125 42.0694 33.8811L40.5421 35.0013C40.4142 35.0952 40.1471 35.6444 40.2958 35.7141L41.12 36.1004L43.3112 34.3528L43.3081 34.3549Z" fill="black"/>
<path d="M30.4331 59.2255C30.3898 59.0355 30.052 58.6762 29.8962 58.6436C29.6874 58.6009 29.2606 59.1663 29.3025 59.3781L29.6659 61.1961C29.7061 61.4021 30.1526 61.7959 30.3601 61.8026C30.6194 61.8109 30.9011 61.2288 30.8409 60.9694L30.4326 59.2282L30.4331 59.2255Z" fill="black"/>
<path d="M30.0163 54.1588C30.0092 53.8656 28.9245 53.7929 28.9175 54.0587C28.9116 54.377 28.6844 57.6735 29.6593 56.9569C29.7903 56.8609 30.0706 56.5731 30.0656 56.4124L30.0131 54.161L30.0163 54.1588Z" fill="black"/>
<path d="M29.7533 51.9191C30.3145 51.4125 30.9234 48.6185 29.9377 48.8319C29.4161 48.8449 29.0541 50.191 29.0587 50.7839L29.0668 51.617C29.0696 51.8323 29.5968 52.0626 29.756 51.9196L29.7533 51.9191Z" fill="black"/>
<path d="M106.194 91.1574C106.046 91.3411 108.677 88.3257 107.248 88.7186C107.08 88.7635 106.602 88.8786 106.49 89.0058L105.344 90.3009C105.201 90.4607 105.174 90.9871 105.256 91.19C105.338 91.3929 106.056 91.3293 106.196 91.1579L106.194 91.1574Z" fill="black"/>
<path d="M112.853 93.1376C112.823 92.9639 112.453 92.5737 112.295 92.5517C111.142 92.3916 112.023 96.4453 112.785 95.7073C112.916 95.581 113.185 95.1368 113.154 94.9546L112.85 93.1398L112.853 93.1376Z" fill="black"/>
<path d="M104.56 93.2378L104.063 92.6058C103.964 92.4767 103.463 92.7691 103.367 92.8993L102.305 94.3316C102.22 94.4448 102.172 94.9119 102.171 95.0604C102.173 95.2619 102.861 95.4293 102.989 95.2638L104.56 93.2378Z" fill="black"/>
<path d="M46.478 45.3538L44.139 45.7212C43.9773 45.7481 43.5552 46.1739 43.6256 46.3086C44.1988 47.4178 46.9686 46.45 46.7936 46.0585L46.478 45.3538Z" fill="black"/>
<path d="M36.6048 39.0998C36.612 40.4973 40.2276 37.1195 38.96 36.9402C38.7889 36.9157 38.2842 36.9265 38.1629 37.0437L36.763 38.4169C36.658 38.5207 36.6058 38.9513 36.6048 39.0998Z" fill="black"/>
<path d="M114.865 83.0729L114.797 82.3358C114.785 82.2123 114.206 82.1124 114.1 82.1775L112.343 83.2648C112.202 83.3535 112.154 83.906 112.172 84.0719C112.189 84.2377 112.728 84.3958 112.868 84.3071L114.865 83.0729Z" fill="black"/>
<path d="M112.225 109.774L112.845 107.809C112.875 107.71 112.558 107.415 112.454 107.401C112.298 107.379 111.792 107.541 111.736 107.69L110.931 109.888C110.874 110.042 111.474 110.465 111.609 110.378C111.744 110.291 112.162 109.958 112.219 109.773L112.225 109.774Z" fill="black"/>
<path d="M51.4774 44.5918L51.2705 43.85C51.2248 43.6871 50.6512 43.6847 50.502 43.7608L48.8478 44.6117C48.668 44.7039 48.5009 45.118 48.4733 45.3055C48.4456 45.4929 49.1306 45.7314 49.2972 45.6504L51.4747 44.5913L51.4774 44.5918Z" fill="black"/>
<path d="M55.2855 40.8848C54.1546 40.0626 53.8886 41.2233 53.3174 41.739L52.6906 42.3019C52.5545 42.4246 52.9413 43.1016 53.1406 43.0792C53.9109 43.0008 54.9802 41.7764 55.2855 40.8848Z" fill="black"/>
<path d="M32.6263 43.2204C32.363 42.9745 30.3389 40.9212 29.9367 41.7309C29.8513 41.9045 29.8738 42.4182 30.024 42.5379L31.4418 43.6545C31.5515 43.7416 31.9174 43.853 32.0537 43.8873C32.235 43.9303 32.7633 43.3512 32.6258 43.223L32.6263 43.2204Z" fill="black"/>
<path d="M41.3619 45.8228L39.4022 45.6432C39.2429 45.6292 38.8525 45.8464 38.7316 45.9471C38.1343 46.4414 40.6217 47.581 41.8976 46.5256C42.0348 46.4114 41.5457 45.8387 41.3619 45.8228Z" fill="black"/>
<path d="M96.0774 73.458L93.2423 72.9154C93.1072 72.8896 92.7549 73.3811 92.8325 73.4924C92.9101 73.6036 93.1602 73.9901 93.2917 74.0208L95.3472 74.4748C95.574 74.5237 95.8391 74.1146 96.0747 73.4575L96.0774 73.458Z" fill="black"/>
<path d="M90.7022 72.4674C89.7466 72.3368 88.3758 72.3526 87.9037 72.6808C88.0451 73.779 89.2627 73.6458 90.0462 73.5699L90.88 73.49C91.118 73.4667 90.9723 72.5053 90.7022 72.4674Z" fill="black"/>
<path d="M47.5331 32.0438C46.7509 30.5338 45.9037 31.6163 45.1756 32.0194L44.408 32.4425C44.2452 32.5325 44.4914 32.9541 44.7383 33.4722L47.5357 32.0443L47.5331 32.0438Z" fill="black"/>
<path d="M51.8358 30.3396C51.226 30.2394 49.846 30.303 49.2493 30.4642C49.1073 30.5031 48.9296 31.1877 49.0514 31.2689C49.689 31.6828 51.5571 31.451 52.0867 31.1669C52.2368 31.0855 52.0037 30.3663 51.8358 30.3396Z" fill="black"/>
<path d="M56.9723 78.8294L54.8564 78.6337C54.7214 78.6217 54.3365 78.8674 54.2228 78.9448C54.1091 79.0222 54.2425 79.5736 54.3787 79.5942L56.7642 79.9599C56.9242 79.985 57.3229 79.6097 57.3772 79.4549C57.4316 79.3001 57.137 78.8444 56.975 78.8299L56.9723 78.8294Z" fill="black"/>
<path d="M99.7041 99.5119C100.19 100.302 102.429 96.8999 101.274 96.8055C100.147 96.9836 99.444 98.5315 99.7041 99.5119Z" fill="black"/>
<path d="M105.494 113.284L103.375 112.864C103.216 112.834 102.807 113.075 102.68 113.177C102.159 113.592 104.167 114.808 105.779 113.922C105.892 113.861 105.624 113.311 105.494 113.284Z" fill="black"/>
<path d="M100.771 75.7769C100.207 74.3886 98.7886 74.1061 97.5337 74.3341C97.9605 75.5915 99.4928 76.1243 100.771 75.7769Z" fill="black"/>
<path d="M113.479 97.9602C113.474 97.816 113.09 97.5224 112.971 97.4418C112.813 97.3344 112.331 97.9305 112.348 98.1266L112.554 100.498C112.572 100.705 113.556 100.486 113.551 100.254L113.482 97.9607L113.479 97.9602Z" fill="black"/>
<path d="M134.063 84.318C133.459 83.3543 132.101 82.9292 131.069 83.1997C130.218 83.8988 134.128 85.5282 134.063 84.318Z" fill="black"/>
<path d="M141.07 87.0137C140.936 86.9247 140.254 87.0394 140.165 87.149C140.046 87.2943 140.227 87.7832 140.386 87.8879L141.956 88.9099C142.064 88.9801 142.466 89.0624 142.597 89.0905C142.793 89.1333 143.069 88.3327 142.899 88.2202L141.066 87.0159L141.07 87.0137Z" fill="black"/>
<path d="M19.4846 1.41449C19.2893 0.669457 18.648 -0.284863 18.0683 0.218229C17.6894 0.547724 18.2287 2.39394 19.3071 2.47092C19.5512 2.48734 19.5665 1.73304 19.4819 1.41398L19.4846 1.41449Z" fill="black"/>
</svg>
