<svg width="282" height="262" viewBox="0 0 282 262" fill="none" xmlns="http://www.w3.org/2000/svg">
<g clip-path="url(#clip0_928_5821)">
<path d="M207.338 177.364C207.338 177.364 216.662 211.529 183.762 226.605C150.862 241.681 149.582 241.359 129.604 224.628C109.625 207.898 92.3271 197.817 114.978 160.851C114.978 160.851 78.6079 182.127 69.9741 184.026C61.3404 185.924 44.1897 190.299 32.8403 177.098C21.4909 163.897 17.3838 142.469 30.2787 121.532C43.1736 100.594 83.3398 96.5859 88.4564 97.8773C88.4564 97.8773 64.1167 88.7407 59.9258 75.1741C55.7349 61.6076 62.2314 44.4933 90.897 37.5868C119.563 30.6802 149.344 34.3917 156.306 66.0555C156.306 66.0555 178.445 32.212 207.454 37.9056C236.464 43.5991 274.104 83.0059 221.239 106.096C221.239 106.096 261.646 108.68 267.063 144.308C272.48 179.936 228.598 188.979 207.336 177.354L207.338 177.364Z" fill="#E92439"/>
<path d="M187.766 119.086C188.289 118.439 189.084 118.192 189.967 117.875C193.489 116.988 215.811 108.569 220.374 113.299C222.196 116.093 214.885 120.608 218.929 123.682C219.843 124.392 221.196 124.678 222.411 124.943C229.613 126.452 245.294 130.059 246.784 138.701C247.229 141.142 246.739 143.943 245.161 145.846C242.403 148.95 239.116 147.042 234.756 145C231.056 143.213 227.49 141.151 223.876 140.266C220.357 139.443 214.954 139.504 213.945 143.76C213.174 148.404 215.794 155.712 209.313 157.342C200.348 160.296 189.584 148.594 187.819 140.146C186.865 136.086 186.797 131.678 186.869 127.536C187.013 124.883 186.837 120.826 187.718 119.148L187.756 119.088L187.766 119.086Z" fill="#FF6183"/>
<path d="M148.04 103.207C148.995 101.82 149.52 100.158 150.105 98.5345C151.488 94.5342 153.77 87.8687 154.84 83.1387C155.998 78.3483 155.291 74.7152 152.659 71.1267C151.064 68.9484 148.899 66.8751 146.223 66.2551C141.008 65.0264 141.921 72.3922 138.75 74.2257C134.514 75.9147 129.263 72.7075 125.949 70.0676C122.883 67.4857 120.556 63.8404 117.142 62.1439C113.989 60.3797 108.795 61.2042 108.289 65.3291C107.832 68.3272 110.095 72.2837 111.104 76.2699C113.057 83.3354 111.05 86.7356 104.925 90.2632C101.339 92.393 100.701 94.755 103.538 97.9709C109.014 103.647 117.782 110.74 126.21 112.747C130.984 113.602 135.754 111.499 139.933 109.177C142.81 107.5 146.356 105.42 147.994 103.278L148.058 103.193L148.04 103.207Z" fill="#FF6285"/>
<path d="M121.265 117.786C120.362 116.797 119.124 116.383 117.846 115.927C113.452 114.476 103.804 111.386 96.0251 109.165C90.7002 107.858 83.1939 104.685 78.8014 108.876C74.9846 113.637 82.6948 118.249 76.986 122.74C71.6742 128.105 60.4526 135.231 57.4513 143.468C56.2415 147.512 56.537 153.048 59.993 155.82C62.4424 157.647 66.4856 156.85 70.9114 155.232C74.484 153.924 78.4078 152.212 81.976 150.885C85.1856 149.882 89.5763 147.453 92.1123 150.325C93.833 152.517 93.8761 156.019 95.5838 158.244C97.7615 161.257 101.604 160.34 104.365 158.136C107.174 155.962 109.391 152.864 112.353 150.923C116.646 147.675 133.7 145.236 137.264 143.285C139.302 142.028 138.674 139.688 138.138 137.574C136.682 132.488 125.911 128.437 124.08 123.556C122.968 120.688 122.265 118.887 121.343 117.861L121.275 117.784L121.265 117.786Z" fill="#FF6285"/>
<path d="M183.858 116.638C183.858 116.638 215.074 97.0688 214.469 94.3145C213.863 91.5603 212.426 91.5896 210.989 91.6189C209.551 91.6482 201.258 94.6286 199.081 93.9502C196.905 93.2717 197.16 89.1712 198.578 87.7025C199.996 86.2338 206.989 76.0343 203.326 72.5085C199.664 68.9827 188.409 79.5458 184.369 79.5638C180.329 79.5818 184.792 67.0511 183.822 65.2473C182.852 63.4435 179.541 64.1715 177.858 65.6884C176.174 67.2052 156.453 86.5718 156.299 101.616C156.146 116.659 183.858 116.638 183.858 116.638Z" fill="#FF6285"/>
<path d="M109.878 134.911C113.117 142.564 124.869 141.485 131.566 143.115C131.901 143.195 132.216 143.279 132.524 143.376C137.897 144.948 140.024 150.337 143.524 154.523C144.924 156.325 146.538 157.987 148.284 159.037C152.257 161.225 156.777 161.152 160.314 159.033C163.654 156.62 166.67 151.196 169.966 147.512C172.73 144.252 176.799 142.733 181.029 141.762C184.007 141.056 187.069 140.639 189.79 140.072L189.937 140.039C205.369 137.117 205.625 125.891 191.537 120.305C188.106 118.439 183.602 114.627 181.525 112.258C181.049 111.676 180.634 111.092 180.423 110.411C179.864 108.476 180.774 106.607 181.024 104.576C181.983 99.4401 179.538 96.3737 174.165 97.084C170.317 97.4181 166.188 98.5715 162.443 99.651C158.767 100.766 156.031 101.644 152.451 100.681C148.374 99.6931 144.3 98.07 140.341 96.6879C136.491 95.2919 132.205 93.7258 128.547 96.0865C123.811 99.1345 125.787 104.26 125.487 109.087C125.433 112.242 125.774 115.515 123.246 117.709C120.768 120.035 115.354 123.12 112.419 124.953C108.596 126.797 108.219 131.231 109.878 134.911Z" fill="#C81D33"/>
<path d="M173.702 144.213C175.513 145.043 177.149 146.526 178.718 147.932C183.462 152.234 191.855 160.648 194.592 168.626C197.509 176.678 192.074 180.832 185.893 174C183.169 171.158 179.518 166.801 175.469 168.643C168.19 172.885 173.38 189.365 164.703 195.86C158.049 200.896 150.585 197.264 149.162 189.396C148.251 185.624 148.464 181.379 147.698 177.708C146.843 172.746 142.843 168.946 138.182 172.428C135.776 174.104 133.454 177.092 131.012 178.796C126.459 182.347 121.168 179.24 120.84 173.835C120.493 164.389 129.433 150.751 137.51 145.852C145.576 140.997 156.623 141.65 165.449 142.536C168.494 142.88 172.033 143.371 173.621 144.169L173.712 144.21L173.702 144.213Z" fill="#FE6486"/>
<path d="M131.566 143.116C131.901 143.196 132.216 143.28 132.524 143.376C137.897 144.949 140.024 150.338 143.525 154.524C144.924 156.325 146.539 157.987 148.285 159.037C152.257 161.225 156.777 161.153 160.315 159.034C163.654 156.62 166.67 151.196 169.966 147.513C172.73 144.253 176.799 142.734 181.029 141.763C182.543 138.45 185.672 130.329 182.183 126.519C177.736 121.661 173.1 128.516 169.912 127.989C166.715 127.463 162.309 118.602 160.001 117.881C157.692 117.16 148.866 120.329 148.76 124.038C148.655 127.748 146.124 134.447 141.929 133.527C137.733 132.606 128.662 129.072 128.879 134.246C128.947 136.002 130.093 139.395 131.566 143.116Z" fill="#AA1732"/>
<path d="M156.796 17.292C159.088 36.8459 169.035 122.089 155.791 133.335L157.909 136.729C168.691 129.464 164.862 89.3713 164.18 76.7227C163.422 66.753 162.395 56.8218 161.208 46.9054C160.011 36.9911 158.678 27.1069 157.144 17.2461L156.796 17.292Z" fill="#AA1732"/>
<path d="M156.865 77.9728C155.171 78.3452 153.496 77.274 153.124 75.5803C152.752 73.8866 153.823 72.2117 155.517 71.8393C157.21 71.4669 158.885 72.5381 159.258 74.2318C159.63 75.9255 158.559 77.6004 156.865 77.9728Z" fill="#FFDB63"/>
<path d="M167.72 92.3673C166.027 92.7397 164.352 91.6686 163.979 89.9748C163.607 88.2811 164.678 86.6062 166.372 86.2338C168.066 85.8614 169.741 86.9326 170.113 88.6263C170.485 90.32 169.414 91.995 167.72 92.3673Z" fill="#FFDB63"/>
<path d="M159.76 87.5451C158.066 87.9175 156.391 86.8463 156.019 85.1526C155.646 83.4589 156.717 81.7839 158.411 81.4116C160.105 81.0392 161.78 82.1103 162.152 83.8041C162.524 85.4978 161.453 87.1727 159.76 87.5451Z" fill="#FFDB63"/>
<path d="M163.209 100.814C161.515 101.186 159.84 100.115 159.468 98.4211C159.095 96.7274 160.167 95.0525 161.86 94.6801C163.554 94.3077 165.229 95.3789 165.601 97.0726C165.974 98.7663 164.902 100.441 163.209 100.814Z" fill="#FFDB63"/>
<path d="M169.826 82.5255C168.132 82.8979 166.457 81.8268 166.085 80.133C165.713 78.4393 166.784 76.7644 168.477 76.392C170.171 76.0196 171.846 77.0908 172.218 78.7845C172.591 80.4782 171.52 82.1532 169.826 82.5255Z" fill="#FFDB63"/>
<path d="M159.804 92.3471C158.827 92.5617 157.862 91.9443 157.647 90.968C157.433 89.9916 158.05 89.0262 159.026 88.8115C160.003 88.5969 160.968 89.2143 161.183 90.1906C161.398 91.1669 160.78 92.1324 159.804 92.3471Z" fill="#FFDB63"/>
<path d="M169.015 74.226C168.038 74.4406 167.073 73.8232 166.858 72.8469C166.644 71.8705 167.261 70.9051 168.237 70.6904C169.214 70.4758 170.179 71.0932 170.394 72.0695C170.608 73.0459 169.991 74.0113 169.015 74.226Z" fill="#FFDB63"/>
<path d="M164.784 69.1869C163.808 69.4016 162.842 68.7841 162.628 67.8078C162.413 66.8315 163.031 65.866 164.007 65.6514C164.983 65.4367 165.949 66.0542 166.163 67.0305C166.378 68.0068 165.761 68.9723 164.784 69.1869Z" fill="#FFDB63"/>
<path d="M169.874 99.9213C168.898 100.136 167.932 99.5185 167.718 98.5422C167.503 97.5659 168.12 96.6004 169.097 96.3857C170.073 96.1711 171.039 96.7885 171.253 97.7648C171.468 98.7412 170.85 99.7066 169.874 99.9213Z" fill="#FFDB63"/>
<path d="M172.163 95.394C171.187 95.6086 170.221 94.9911 170.007 94.0148C169.792 93.0385 170.409 92.073 171.386 91.8584C172.362 91.6437 173.328 92.2612 173.542 93.2375C173.757 94.2138 173.139 95.1793 172.163 95.394Z" fill="#FFDB63"/>
<path d="M168.05 104.673C167.074 104.888 166.108 104.27 165.893 103.294C165.679 102.318 166.296 101.352 167.273 101.138C168.249 100.923 169.214 101.54 169.429 102.517C169.644 103.493 169.026 104.459 168.05 104.673Z" fill="#FFDB63"/>
<path d="M161.628 106.331C160.652 106.546 159.686 105.929 159.472 104.952C159.257 103.976 159.874 103.011 160.851 102.796C161.827 102.581 162.792 103.199 163.007 104.175C163.222 105.151 162.604 106.117 161.628 106.331Z" fill="#FFDB63"/>
<path d="M171.968 87.144C170.991 87.3586 170.026 86.7411 169.811 85.7648C169.597 84.7885 170.214 83.823 171.19 83.6084C172.167 83.3937 173.132 84.0112 173.347 84.9875C173.562 85.9638 172.944 86.9293 171.968 87.144Z" fill="#FFDB63"/>
<path d="M166.866 62.8725C165.89 63.0871 164.924 62.4697 164.71 61.4934C164.495 60.517 165.113 59.5516 166.089 59.3369C167.065 59.1223 168.031 59.7397 168.245 60.716C168.46 61.6923 167.843 62.6578 166.866 62.8725Z" fill="#FFDB63"/>
<path d="M158.394 68.4828C157.417 68.6975 156.452 68.08 156.237 67.1037C156.023 66.1274 156.64 65.1619 157.616 64.9473C158.593 64.7326 159.558 65.3501 159.773 66.3264C159.987 67.3027 159.37 68.2682 158.394 68.4828Z" fill="#FFDB63"/>
<path d="M163.026 79.5873C162.05 79.802 161.085 79.1845 160.87 78.2082C160.655 77.2319 161.273 76.2664 162.249 76.0518C163.225 75.8371 164.191 76.4545 164.406 77.4309C164.62 78.4072 164.003 79.3727 163.026 79.5873Z" fill="#FFDB63"/>
<path d="M157.53 62.4584C156.554 62.6731 155.589 62.0556 155.374 61.0793C155.159 60.103 155.777 59.1375 156.753 58.9228C157.729 58.7082 158.695 59.3256 158.909 60.302C159.124 61.2783 158.507 62.2437 157.53 62.4584Z" fill="#FFDB63"/>
</g>
<defs>
<clipPath id="clip0_928_5821">
<rect width="241.07" height="214.74" fill="white" transform="matrix(-0.976673 0.214733 0.214733 0.976673 235.447 0)"/>
</clipPath>
</defs>
</svg>
