<svg width="932" height="368" viewBox="0 0 932 368" fill="none" xmlns="http://www.w3.org/2000/svg">
<path opacity="0.5" d="M931.378 5.42091L919.716 -7.58082e-05C908.434 24.2686 859.039 97.3626 778.388 168.296C770.251 175.457 762.013 182.395 753.677 189.124C750.855 184.169 743.371 173.796 730.125 173.977L712.733 174.215C712.733 174.215 716.124 202.164 747.344 194.181C709.915 223.765 670.657 249.038 630.204 269.538C627.826 270.736 625.44 271.902 623.054 273.069C621.449 268.375 615.77 255.403 601.696 253.449L584.479 251.039C584.479 251.039 583.53 280.196 617.426 275.833C572.92 297.145 526.99 312.698 480.289 322.323C479.08 316.282 475.303 305.31 463.663 301.188L447.261 295.402C447.261 295.402 441.68 318.921 466.372 325.004C456.011 326.873 445.624 328.484 435.211 329.77C397.505 334.428 360.657 334.759 324.984 330.854C325.652 324.509 325.132 313.917 316.151 306.683L302.6 295.776C302.6 295.776 290.304 314.916 308.986 328.787C287.978 325.692 267.392 321.145 247.317 315.043C233.39 310.81 219.685 305.832 206.249 300.164C208.661 294.221 210.955 284.228 204.634 274.954L194.848 260.579C194.848 260.579 177.954 274.93 190.835 293.306C164.424 280.905 139.102 265.741 115.134 247.885C104.927 240.277 95.4855 232.556 86.7758 224.928C90.2234 219.817 95.347 209.429 90.1062 198.27L82.693 182.533C82.693 182.533 65.1877 193.197 72.5759 211.944C31.7088 172.918 11.306 139.26 11.04 138.827L-0.00063267 145.427C1.43103 147.817 35.8381 204.673 107.026 257.863C108.826 259.21 110.649 260.518 112.457 261.83C97.5333 260.619 87.9102 274.366 87.9102 274.366C110.963 289.711 123.359 280.782 129.029 273.304C164.744 296.875 203.054 315.005 243.248 327.265C246.376 328.22 249.524 329.121 252.684 330.002C250.633 330.48 248.128 331.064 245.055 331.763C228.104 335.663 225.126 354.91 225.126 354.91C256.152 358.989 261.312 341.247 262.014 332.5C304.477 343.373 348.942 347.887 394.839 346.01C382.704 352.237 380.37 367.158 380.37 367.158C411.598 371.256 416.618 353.266 417.269 344.581C423.759 344.026 430.262 343.386 436.791 342.575C457.121 340.067 477.344 336.462 497.416 331.786C508.157 329.284 518.856 326.461 529.501 323.337C515.719 333.613 520.46 352.267 520.46 352.267C549.35 344.2 548.511 326.997 545.934 318.271C576.475 308.366 606.581 295.955 636.021 281.041C653.532 272.175 670.801 262.408 687.813 251.825C686.904 253.308 685.879 254.999 684.685 256.961C675.633 271.813 687.299 287.385 687.299 287.385C711.407 268.431 703.177 252.587 697.407 245.744C728.276 225.842 758.211 203.204 786.897 177.967C792.404 173.119 797.758 168.257 802.983 163.408C802.531 164.867 802.017 166.489 801.442 168.34C796.265 184.946 811.357 197.227 811.357 197.227C829.46 173.895 819.157 160.631 811.885 154.996C879.34 90.3387 920.972 27.8514 931.397 5.43292L931.378 5.42091Z" fill="#34632F"/>
</svg>
