<svg width="788" height="312" viewBox="0 0 788 312" fill="none" xmlns="http://www.w3.org/2000/svg">
<path d="M0.0182497 4.58499L9.88223 -0.00015322C19.4249 20.5266 61.2038 82.3504 129.419 142.347C136.301 148.404 143.269 154.272 150.32 159.963C152.707 155.772 159.037 146.999 170.24 147.152L184.951 147.353C184.951 147.353 182.083 170.992 155.676 164.24C187.334 189.263 220.539 210.639 254.755 227.978C256.767 228.992 258.784 229.978 260.802 230.965C262.16 226.995 266.964 216.023 278.867 214.371L293.429 212.332C293.429 212.332 294.232 236.994 265.563 233.303C303.207 251.329 342.055 264.484 381.555 272.625C382.577 267.515 385.772 258.235 395.618 254.749L409.491 249.855C409.491 249.855 414.211 269.747 393.327 274.892C402.089 276.473 410.875 277.835 419.682 278.924C451.574 282.863 482.741 283.143 512.914 279.841C512.349 274.474 512.789 265.515 520.385 259.396L531.847 250.171C531.847 250.171 542.247 266.36 526.445 278.092C544.214 275.474 561.626 271.629 578.606 266.467C590.386 262.887 601.977 258.676 613.342 253.882C611.302 248.856 609.362 240.404 614.707 232.56L622.985 220.401C622.985 220.401 637.274 232.54 626.379 248.082C648.718 237.593 670.135 224.767 690.408 209.665C699.041 203.229 707.027 196.699 714.394 190.247C711.478 185.924 707.144 177.138 711.577 167.699L717.847 154.388C717.847 154.388 732.653 163.408 726.404 179.265C760.97 146.257 778.227 117.788 778.452 117.422L787.79 123.004C786.579 125.025 757.477 173.115 697.265 218.103C695.743 219.243 694.201 220.349 692.672 221.459C705.295 220.435 713.434 232.062 713.434 232.062C693.936 245.042 683.451 237.489 678.655 231.164C648.447 251.101 616.044 266.435 582.047 276.805C579.402 277.613 576.739 278.374 574.066 279.12C575.801 279.524 577.92 280.018 580.519 280.609C594.857 283.908 597.375 300.187 597.375 300.187C571.133 303.637 566.769 288.631 566.174 281.233C530.259 290.429 492.65 294.247 453.83 292.659C464.093 297.926 466.068 310.547 466.068 310.547C439.655 314.013 435.409 298.797 434.858 291.451C429.369 290.982 423.869 290.44 418.346 289.754C401.151 287.633 384.046 284.584 367.069 280.629C357.984 278.512 348.935 276.125 339.931 273.483C351.588 282.174 347.578 297.952 347.578 297.952C323.143 291.128 323.852 276.578 326.032 269.198C300.2 260.82 274.736 250.323 249.835 237.708C235.024 230.209 220.418 221.948 206.028 212.997C206.797 214.251 207.665 215.682 208.674 217.341C216.331 229.903 206.463 243.074 206.463 243.074C186.072 227.042 193.033 213.641 197.914 207.854C171.804 191.02 146.485 171.872 122.222 150.527C117.565 146.426 113.036 142.314 108.616 138.213C108.999 139.447 109.433 140.818 109.92 142.384C114.299 156.43 101.533 166.817 101.533 166.817C86.2214 147.083 94.9363 135.863 101.087 131.097C44.0328 76.4095 8.82012 23.557 0.00190806 4.59514L0.0182497 4.58499Z" fill="#34632F"/>
</svg>
