<svg width="290" height="381" viewBox="0 0 290 381" fill="none" xmlns="http://www.w3.org/2000/svg">
<path d="M36.8174 192.135L37.1781 186.153C51.0212 186.986 65.0222 188.084 78.7806 189.4C90.6106 190.529 102.692 192.558 114.379 194.529C132.827 197.629 151.896 200.835 170.665 200.661C190.094 200.489 218.141 200.224 236.528 188.253C236.823 188.066 237.117 187.879 237.399 187.673C238.255 185.787 247.272 170.868 252.523 166.405C254.542 164.688 256.477 162.679 259.248 162.372C268.57 161.369 260.944 173.048 258.303 175.653C254.897 179.015 250.804 181.71 246.782 184.263C248.276 185.075 250.078 185.141 251.612 184.415C252.319 184.075 253.014 183.716 253.697 183.339C258.071 180.957 262.114 177.931 266.055 174.903C271.63 170.618 277.932 162.206 285.483 161.641C292.116 161.143 289.656 169.119 287.666 172.276C285.017 176.485 280.536 178.434 276.157 180.408C271.57 182.48 266.808 184.196 262.028 185.786C260.939 186.146 259.84 186.502 258.738 186.843C258.8 186.856 258.854 186.864 258.916 186.877C265.72 188.03 272.935 188.599 279.202 191.707C281.764 192.992 284.822 194.716 284.725 197.981C284.641 200.687 282.297 202.862 280.095 204.079C273.409 207.787 262.874 201.556 256.58 198.988C251.855 197.068 246.305 194.992 241.581 192.077C240.158 193.088 238.683 194.011 237.166 194.886C240.293 195.875 266.756 204.686 269.257 220.495C271.825 236.725 247.967 223.702 230.69 198.115C221.994 201.855 212.28 203.927 202.648 205.084C204.352 205.973 206.363 207.805 207.569 208.635C209.767 210.147 211.929 211.719 214.028 213.382C218.318 216.785 222.362 220.53 225.918 224.697C230.17 229.674 233.43 235.382 235.772 241.492C237.385 245.696 242.206 255.993 238.75 260.078C232.235 267.763 216.882 246.341 213.461 242.241C209.378 237.35 205.405 232.35 201.667 227.186C200.041 224.931 198.02 222.48 196.605 219.884C200.063 228.925 208.095 253.894 197.844 268.765C197.844 268.765 195.878 274.066 192.262 267.758C189.195 262.395 178.174 222.038 175.886 206.62C174.123 206.646 172.387 206.664 170.732 206.684C159.11 206.787 147.469 205.651 135.966 204.041C137.24 204.217 140.112 212.279 140.594 213.358C143.133 219.051 145.312 224.926 146.924 230.958C150.856 245.622 149.606 260.599 143.068 274.301C141.837 276.87 137.468 284.289 134.505 280.456C131.758 276.888 131.847 267.299 131.267 262.992C130.325 256.008 129.568 249.004 128.996 241.981C128.712 238.517 127.433 233.223 128.552 229.813C128.552 229.813 115.003 274.22 98.5821 278.228C82.1614 282.236 109.664 232.892 109.664 232.892C109.664 232.892 107.774 230.772 106.238 233.13C100.433 242.039 92.2251 249.154 84.4214 256.25C81.4563 258.955 78.7895 262.042 75.4117 264.264C71.0848 267.101 64.1376 268.099 65.3551 261.124C66.261 255.934 69.2494 250.905 71.7846 246.375C75.3526 239.994 80.1774 230.78 84.5005 225.903C83.8631 226.62 63.5629 244.952 53.0626 239.713C53.0626 239.713 49.6077 235.513 52.3395 231.202C54.6879 227.489 77.3648 204.442 88.5462 196.595C85.0844 196.14 81.6334 195.726 78.2127 195.4C64.5298 194.093 50.5958 192.999 36.8246 192.162L36.8174 192.135Z" fill="#34632F"/>
<path d="M159.652 211.069C159.652 211.069 159.875 232.137 174.799 236.881C174.799 236.881 171.798 222.181 173.887 217.679C173.887 217.679 190.696 223.864 197.205 231.812C197.205 231.812 201.057 224.31 188.486 210.988C188.486 210.988 198.807 209.954 202.679 216.503C202.679 216.503 204.261 199.471 190.838 195.395L170.541 194.604L159.652 211.049V211.069Z" fill="#30191D"/>
<path d="M13.5809 302.821C13.5809 302.821 -3.85704 331.513 0.786312 336.156C5.42966 340.799 21.7118 322.591 22.5026 319.103C22.5026 319.103 3.11812 357.102 5.83519 367.95C8.55226 378.798 33.3506 357.872 40.7313 325.693C40.7313 325.693 34.5266 374.154 41.887 379.974C49.2474 385.793 81.4264 295.846 83.7582 269.101C86.0901 242.356 62.8328 252.048 62.8328 252.048L13.6011 302.841L13.5809 302.821Z" fill="#5489C0"/>
<path d="M30.9926 266.1C30.9926 266.1 14.4671 287.35 17.2045 295.623C19.9418 303.896 24.281 305.072 36.1023 296.008C36.1023 296.008 21.1382 319.245 21.5437 326.322C21.9492 333.398 32.1686 333.013 47.518 311.763C47.518 311.763 38.0691 336.561 43.9696 338.934C49.8701 341.306 64.449 318.454 67.5919 308.235C67.5919 308.235 66.0103 323.99 70.3495 324.375C74.6887 324.76 92.3902 310.587 99.0815 263.342C99.0815 263.342 108.145 238.929 113.255 232.643L127.813 206.264L99.4667 183.817L30.9723 266.1H30.9926Z" fill="#81B4E2"/>
<path d="M31.6055 213.929C31.6055 213.929 14.8165 255.151 30.0848 264.316C30.0848 264.316 43.1429 268.189 47.5632 247.466C47.5632 247.466 45.7991 263.789 51.5374 264.215C57.2757 264.641 90.3469 224.534 96.9571 206.447C96.9571 206.447 92.9829 223.641 94.3211 226.723C95.6594 229.806 106.67 224.959 106.67 224.959L96.5313 245.682C105.169 246.128 114.05 245.824 122.607 244.547C151.684 240.228 177.577 216.159 188.161 189.354C192.845 177.492 195.866 164.657 197.752 152.065C200.145 136.128 197.712 120.291 199.253 104.557C200.814 88.6194 215.575 38.1306 218.678 36.1638C222.165 33.9536 215.758 15.1572 214.136 12.2576C209.715 4.41056 202.517 1.91654 194.042 0.598558C173.258 -2.62543 155.029 7.47234 142.519 23.7139C133.577 31.0946 120.579 38.597 111.09 28.6817C102.493 21.4024 91.2391 3.09257 88.157 3.09257C85.075 3.09257 81.9726 4.6336 83.9598 10.1488C85.9469 15.6641 106.021 34.3997 108.657 35.7379C108.657 35.7379 91.016 21.8485 86.1699 20.9563C81.3238 20.0641 93.0031 37.0559 105.575 41.456C105.575 41.456 89.698 37.7048 89.0289 39.2458C88.3598 40.7868 95.6391 55.3454 134.895 50.0532C135.32 49.9924 126.48 71.0395 124.716 73.3511C110.603 91.8028 91.5027 106.078 76.1938 123.597C58.1476 144.238 31.8894 172.544 29.882 201.499C29.5981 205.717 29.9225 209.995 31.6461 213.909L31.6055 213.929Z" fill="#00ADDC"/>
<mask id="mask0_983_9796" style="mask-type:luminance" maskUnits="userSpaceOnUse" x="23" y="0" width="197" height="265">
<path d="M31.6094 213.929C31.6094 213.929 14.8204 255.151 30.0887 264.316C30.0887 264.316 43.1468 268.189 47.5671 247.466C47.5671 247.466 45.803 263.789 51.5413 264.215C57.2796 264.641 90.3508 224.534 96.961 206.447C96.961 206.447 92.9868 223.641 94.325 226.723C95.6633 229.806 106.673 224.959 106.673 224.959L96.5352 245.682C105.173 246.128 114.054 245.824 122.611 244.547C151.688 240.228 177.581 216.159 188.165 189.354C192.849 177.492 195.87 164.657 197.756 152.065C200.149 136.128 197.716 120.291 199.257 104.557C200.818 88.6194 215.579 38.1306 218.682 36.1638C222.169 33.9536 215.762 15.1572 214.14 12.2576C209.719 4.41056 202.521 1.91654 194.045 0.598558C173.262 -2.62543 155.033 7.47234 142.523 23.7139C133.581 31.0946 120.583 38.597 111.094 28.6817C102.497 21.4024 91.243 3.09257 88.1609 3.09257C85.0789 3.09257 81.9766 4.6336 83.9637 10.1488C85.9508 15.6641 106.025 34.3997 108.661 35.7379C108.661 35.7379 91.0199 21.8485 86.1738 20.9563C81.3277 20.0641 93.007 37.0559 105.579 41.456C105.579 41.456 89.7019 37.7048 89.0328 39.2458C88.3637 40.7868 95.643 55.3454 134.899 50.0532C135.324 49.9924 126.484 71.0395 124.72 73.3511C110.607 91.8028 91.5066 106.078 76.1977 123.597C58.1515 144.238 31.8933 172.544 29.8859 201.499C29.602 205.717 29.9264 209.995 31.65 213.909L31.6094 213.929Z" fill="white"/>
</mask>
<g mask="url(#mask0_983_9796)">
<path d="M119.761 217.964C161.1 168.785 178.469 115.348 158.556 98.6093C138.642 81.8704 88.9874 108.168 47.6482 157.347C6.30894 206.526 -11.0602 259.963 8.85314 276.702C28.7665 293.441 78.4215 267.143 119.761 217.964Z" fill="#29D7FF"/>
</g>
<path d="M206.974 56.8866C206.974 56.8866 204.196 35.8597 218.106 28.4385C218.106 28.4385 240.674 30.9122 240.978 48.8368C241.282 66.7613 238.2 71.7088 235.422 73.2701C235.422 73.2701 230.17 56.5824 214.699 58.4276C214.699 58.4276 212.53 66.153 226.439 68.3226C226.439 68.3226 226.135 78.5217 216.849 80.6913C216.849 80.6913 200.465 83.1651 201.398 62.1382L201.702 57.8193L206.954 56.8866H206.974Z" fill="#30191D"/>
<path d="M177.576 40.8262C183.936 40.8262 189.093 35.6698 189.093 29.3091C189.093 22.9484 183.936 17.792 177.576 17.792C171.215 17.792 166.059 22.9484 166.059 29.3091C166.059 35.6698 171.215 40.8262 177.576 40.8262Z" fill="#F4FFFB"/>
<path d="M187.067 37.0551C185.769 29.3905 183.336 24.9297 180.071 24.1186C174.434 22.7398 167.277 31.9859 167.216 32.0873L165.594 30.8707C165.918 30.4449 173.583 20.4688 180.558 22.172C184.735 23.1859 187.594 28.0928 189.074 36.7306L187.067 37.0753V37.0551Z" fill="black"/>
<path d="M163.666 73.6134C173.195 73.6134 180.921 66.3872 180.921 57.4732C180.921 48.5592 173.195 41.333 163.666 41.333C154.136 41.333 146.41 48.5592 146.41 57.4732C146.41 66.3872 154.136 73.6134 163.666 73.6134Z" fill="#E880AE"/>
</svg>
