<svg width="166" height="216" viewBox="0 0 166 216" fill="none" xmlns="http://www.w3.org/2000/svg">
<g clip-path="url(#clip0_983_9750)">
<path d="M165.914 140.284C155.882 139.297 141.45 125.407 136.689 116.022C140.015 117.738 155.098 122.634 155.529 117.346C155.89 112.959 151.56 109.457 147.803 108.031C142.548 106.041 137.638 106.966 132.069 109.034C129.081 101.654 126.767 94.6743 125.575 86.5661C128.885 91.5955 133.528 95.5596 139.803 95.1757C140.783 94.9172 141.96 94.7918 142.289 94.1259C144.509 89.59 132.751 79.7035 124.351 81.6463C122.633 71.3446 122.218 61.082 123.002 50.4982C125.496 57.9327 135.834 70.5612 143.113 65.14C145.066 55.5981 131.771 48.7355 123.159 47.1766C123.724 42.484 122.782 36.4596 125.339 32.0412C128.892 29.4638 134.359 28.2025 138.571 25.8366C148.533 20.2431 157.349 13.7252 165.969 6.80778V0C158.11 4.25388 150.415 11.7589 141.34 16.5768C136.493 9.54185 124.249 1.71565 117.684 6.6746C114.037 9.43218 118.837 15.0805 121.692 16.5611C126.014 18.786 129.763 19.0915 134.054 20.8229C126.539 24.5519 119.629 27.5131 111.88 30.0592C108.492 23.7528 103.825 19.1229 96.8596 18.4883C95.5733 18.3708 94.2007 18.5118 93.5418 19.2482C89.424 23.8938 100.774 30.02 104.829 31.3831C95.7929 34.3601 87.165 33.232 78.647 33.1066C78.4901 33.0988 78.3411 33.0988 78.1842 33.0988C77.3057 34.6578 77.4783 36.0209 77.7136 37.3057C77.8234 37.9246 77.9411 38.5199 77.9724 39.1075C91.3378 41.4734 104.625 39.7734 117.982 34.6029C116.908 42.0218 115.943 48.5632 116.045 56.0839C104.648 55.7235 93.8791 75.5514 100.366 79.0611C101.44 79.6408 102.978 79.7661 104.389 78.9671C110.719 75.4104 113.292 69.0884 115.543 62.3197C117.096 73.7809 117.708 84.1845 120.578 94.4706C114.986 100.973 106.099 110.812 106.327 119.391C106.358 120.574 106.97 121.827 107.542 122.274C108.099 122.697 109.409 122.736 110.209 122.383C119.394 118.38 119.331 109.222 122.633 101.153C129.936 121.138 144.815 143.002 166 147.366L165.914 140.284ZM136.414 115.223C136.21 115.223 136.038 115.051 136.038 114.847C136.038 114.643 136.21 114.471 136.414 114.471C136.618 114.471 136.791 114.635 136.791 114.847C136.791 115.058 136.626 115.223 136.414 115.223Z" fill="#34632F"/>
<path d="M57.7593 26.4947C57.1711 28.0537 56.9828 30.3021 56.8887 32.6523C52.1669 32.9265 44.1587 28.3044 39.3506 27.3486C34.6367 33.8039 18.3771 39.0057 17.4516 31.25C16.8633 26.3694 26.15 24.9828 30.0404 24.0035C27.4599 21.8805 24.4009 20.8386 21.3968 19.1856C17.7026 17.1487 4.26663 7.44235 6.94911 4.38708C9.99239 0.916602 30.8169 17.0704 35.17 19.2169C34.3308 16.6473 30.2522 9.33819 32.8248 7.92806C37.4133 5.4055 45.7509 15.6211 44.9587 22.8597C48.9981 24.9201 53.3984 26.9726 57.7593 26.4869V26.4947Z" fill="#34632F"/>
<path d="M136.416 115.223C136.623 115.223 136.792 115.054 136.792 114.847C136.792 114.639 136.623 114.471 136.416 114.471C136.208 114.471 136.039 114.639 136.039 114.847C136.039 115.054 136.208 115.223 136.416 115.223Z" fill="#A4D1CB"/>
<path d="M24.0093 85.5719C25.0054 92.1055 21.5307 98.0516 16.252 98.8506C10.9733 99.6497 5.89075 95.0041 4.89462 88.4784C3.8985 81.9526 7.0359 73.7739 12.3146 72.9748C17.5933 72.1757 23.021 79.0384 24.0093 85.5719Z" fill="#F3D1AA"/>
<path d="M88.8923 84.7727C88.8923 91.6902 84.3744 97.2993 78.8055 97.2993C78.5624 97.2993 78.3114 97.2915 78.0761 97.268C76.9623 97.1662 75.8956 96.845 74.9073 96.3279C72.2562 94.9491 70.1776 92.1994 69.2521 88.7916C68.907 87.5303 68.7188 86.1828 68.7188 84.7727C68.7188 81.9211 69.4874 79.2967 70.7816 77.1894C71.5973 75.8497 72.6327 74.7295 73.8092 73.8912C74.9543 73.0765 76.2485 72.5281 77.6211 72.3323C78.0055 72.2774 78.4055 72.2461 78.8055 72.2461C84.3744 72.2461 88.8923 77.8553 88.8923 84.7727Z" fill="#F3D1AA"/>
<path d="M18.998 81.0743C18.0803 79.8365 16.9979 79.1315 15.7743 78.9983C13.484 78.7476 11.4055 80.5181 11.3819 80.5338L10.6133 79.6485C10.7152 79.5623 13.0997 77.5255 15.892 77.831C17.4528 78.0034 18.8176 78.8573 19.9392 80.3771L18.9901 81.0743H18.998Z" fill="#7F2D11"/>
<path d="M52.6704 200.144C52.6704 202.487 45.2425 214.112 43.5797 213.822C42.4346 213.619 42.6856 211.55 42.9444 210.289C41.462 215.593 38.4579 216.517 37.9089 215.773C37.3206 214.99 38.4893 207.375 38.4893 207.375C38.4893 207.375 36.8265 212.937 34.191 212.553C31.7203 212.185 38.3167 199.666 39.203 198.013C39.7207 198.405 40.2776 198.664 40.8816 198.758C40.8816 198.758 44.9053 199.384 46.4112 198.883C47.6897 198.46 49.8859 196.305 50.5134 195.671C51.5409 196.917 52.6704 198.71 52.6704 200.144Z" fill="#F3D1AA"/>
<path d="M89.1501 197.567C89.1501 199.909 81.7145 211.535 80.0516 211.237C78.8986 211.033 79.1575 208.949 79.4242 207.688C77.9496 213.007 74.9377 213.94 74.3808 213.196C73.7925 212.412 74.9691 204.79 74.9691 204.79C74.9691 204.79 73.3062 210.36 70.663 209.968C68.6864 209.67 72.5611 201.515 74.6083 197.473C75.1573 197.715 75.6907 197.856 76.2005 197.872C79.3222 197.982 84.6323 194.237 86.1304 192.161C87.2598 193.258 89.1501 195.71 89.1501 197.567Z" fill="#F3D1AA"/>
<path d="M123.199 135.113C118.517 133.468 112.72 133.468 108.077 135.247C101.771 137.66 99.1511 146.183 100.712 152.293C101.465 155.223 103.261 157.809 106.281 158.67C109.991 159.728 114.917 158.49 114.917 154.087C114.917 151.416 112.32 152.513 110.658 152.388C107.708 152.16 108.399 148.439 109.152 146.582C111.199 141.522 116.885 141.028 121.097 143.958C126.807 147.93 126.141 155.498 124.799 161.538C121.56 176.125 103.834 174.456 94.4215 167.781C92.2018 166.215 86.727 163.269 85.8093 160.527C85.3779 159.211 87.4172 143.331 84.9387 136.625C82.4601 129.919 76.7657 117.824 73.1185 117.095C73.1185 117.095 78.0835 104.122 78.0835 98.2935C78.0835 98.0428 78.0835 97.6981 78.0756 97.2672C76.9618 97.1654 75.8951 96.8442 74.9068 96.3271C71.1027 109.167 59.8944 118.474 46.6702 118.474C42.8583 118.474 39.2189 117.706 35.8697 116.304C35.7913 116.437 35.7442 116.508 35.7442 116.508C32.7244 121.224 31.4773 128.392 28.9674 133.664C26.183 139.524 22.7789 145.157 18.261 149.865C10.6607 157.785 -2.03014 167.805 0.275853 180.355C0.275853 180.355 0.307227 182.392 1.84455 182.071C3.37404 181.749 3.77406 175.952 4.33879 175.153C4.33879 175.153 5.78984 183.199 9.57825 183.442C9.57825 183.442 11.1862 173.14 11.1862 171.526C11.1862 171.526 17.2963 177.041 18.763 176.955C20.2219 176.861 20.4964 175.036 20.2219 173.21C19.9474 171.377 17.8453 169.003 17.8453 167.546C17.8453 166.089 38.4973 143.903 38.4973 140.166C38.6698 141.059 42.1523 159.493 47.9173 160.715C44.1524 163.88 40.3405 167.319 37.3364 171.213C34.0657 175.443 33.3911 181.091 34.1284 186.246C34.5128 188.972 36.105 195.725 39.2032 198.013C39.7209 198.405 40.2777 198.663 40.8817 198.757C40.8817 198.757 44.9054 199.384 46.4114 198.882C47.6899 198.459 49.886 196.305 50.5135 195.671C50.6233 195.561 50.6861 195.49 50.6861 195.49C50.89 195.263 47.9879 191.691 47.7448 191.182C45.2662 186.09 46.0898 180.331 50.1684 176.508C51.0783 175.647 62.6004 169.301 62.6239 169.881C62.8592 175.028 62.1376 180.95 64.5456 185.855C66.0201 188.871 70.6557 195.741 74.6088 197.472C75.1578 197.715 75.6912 197.856 76.201 197.872C79.3227 197.982 84.6328 194.237 86.1309 192.161C86.3191 191.902 86.4525 191.667 86.5074 191.472C86.5074 191.44 82.1307 188.33 81.6444 187.813C80.0757 186.176 79.0168 184.335 78.5933 182.094C77.8638 178.271 78.8756 170.327 82.1072 167.75C86.076 172.168 90.8919 176.36 96.1549 179.149C106.493 184.617 121.787 182.125 129.145 172.631C136.212 163.52 136.322 139.72 123.199 135.113ZM74.1931 152.858C71.3929 159.979 59.51 164.076 50.8743 153.719C44.976 146.653 45.3682 132.732 50.5449 125.305C50.7331 125.031 50.9292 124.78 51.1332 124.545C56.7648 118.027 67.479 125.274 71.2674 130.742C75.4167 136.727 76.8991 146.011 74.1931 152.858Z" fill="#734413"/>
<path d="M78.077 97.2676C76.9632 97.1657 75.8965 96.8445 74.9082 96.3275C71.1041 109.167 59.8958 118.474 46.6716 118.474C42.8597 118.474 39.2203 117.707 35.8711 116.304C36.0358 116.061 36.3339 115.591 36.7496 114.941C38.0045 112.983 40.3497 109.316 43.2048 104.859C43.4166 104.53 43.6283 104.201 43.8479 103.864C46.9932 98.9519 50.6875 93.1861 54.2171 87.6709C54.9544 86.5193 55.6838 85.3834 56.4054 84.2631C58.0918 81.623 59.7075 79.1005 61.1664 76.8286C61.3939 76.4761 61.6135 76.1235 61.8331 75.7867C63.292 73.507 64.5626 71.5171 65.5588 69.9738C66.9628 67.7803 67.802 66.472 67.802 66.472C68.0138 66.1351 68.1785 65.6103 68.2962 64.9365C70.5865 67.5453 72.4532 70.5692 73.8101 73.8908C74.9553 73.0761 76.2495 72.5277 77.6221 72.3319C77.6848 74.2982 77.7397 76.2254 77.7868 78.082C77.7946 78.5677 77.8103 79.0535 77.8182 79.5313C78.0143 87.7571 78.0692 94.4238 78.077 97.2676Z" fill="#734413"/>
<path d="M74.1913 152.858C71.3912 159.979 59.5083 164.076 50.8726 153.72C44.9743 146.653 45.3664 132.732 50.5431 125.306C50.7314 125.031 50.9275 124.781 51.1314 124.546C56.763 118.028 67.4773 125.274 71.2657 130.742C75.4149 136.728 76.8973 146.011 74.1913 152.858Z" fill="#A25B0F"/>
<path d="M76.3046 86.6682C76.3046 90.0369 75.8183 93.2802 74.9085 96.3276C71.1044 109.168 59.896 118.474 46.6719 118.474C42.8599 118.474 39.2205 117.707 35.8714 116.304C28.0906 113.03 21.9021 106.324 18.9451 97.9257C17.7058 94.4239 17.0312 90.6323 17.0312 86.6682C17.0312 84.3024 17.2744 81.9992 17.7293 79.79C17.8078 79.3748 17.9019 78.9674 18.0117 78.56C18.247 77.5494 18.545 76.5702 18.8823 75.5987C22.5923 64.8661 31.5496 56.8676 42.4128 55.1911C42.8599 53.0602 43.7541 50.3653 45.4797 50.1146C47.8405 49.7621 47.7543 52.5353 47.1425 54.0708C47.9504 52.786 49.6681 50.4358 51.1662 50.8745C52.4525 51.2506 52.7192 53.5851 52.3584 55.4496C58.594 56.7501 64.1315 60.15 68.2964 64.9366C70.5867 67.5454 72.4535 70.5693 73.8104 73.8909C75.4183 77.8001 76.3046 82.1245 76.3046 86.6682Z" fill="#734413"/>
<path d="M24.6128 103.966C24.6128 103.966 27.4757 99.2888 27.7345 98.2547C27.9934 97.2206 24.6128 88.9087 24.6128 86.8327C24.6128 84.7566 23.5696 71.7756 32.6681 69.1747C41.7666 66.5738 44.8883 72.0342 44.8883 72.0342C44.8883 72.0342 47.7512 65.2812 59.187 67.6236C70.6228 69.966 70.8817 77.4867 70.8817 78.2701C70.8817 79.0535 66.9835 95.1446 70.8817 95.6695C71.7523 95.7948 68.9679 103.331 68.7247 103.974C63.3754 118.271 42.8725 119.618 31.2406 112.372C29.5542 111.322 23.1069 106.441 24.6128 103.981V103.966Z" fill="#F3D1AA"/>
<path d="M40.1205 87.2167C40.1205 88.619 39.2656 89.7628 38.2146 89.7628C37.1635 89.7628 36.3086 88.6269 36.3086 87.2167C36.3086 85.8066 37.1635 83.6836 38.2146 83.6836C39.2656 83.6836 40.1205 85.8066 40.1205 87.2167Z" fill="#401300"/>
<path d="M58.0268 87.7333C58.0268 89.1356 57.1718 90.2794 56.1208 90.2794C55.0698 90.2794 54.2148 89.1435 54.2148 87.7333C54.2148 86.3232 55.0698 84.2002 56.1208 84.2002C57.1718 84.2002 58.0268 86.3232 58.0268 87.7333Z" fill="#401300"/>
<path d="M48.0992 106.238C43.6676 106.238 39.4713 102.258 39.2831 102.078C39.0478 101.851 39.0399 101.482 39.2674 101.247C39.4948 101.012 39.8635 101.005 40.0988 101.232C40.1458 101.271 44.6323 105.525 48.7972 105.023C52.8602 104.538 54.4132 100.072 54.4289 100.025C54.5308 99.7198 54.8681 99.5553 55.174 99.6571C55.4799 99.7589 55.6446 100.096 55.5426 100.401C55.4721 100.613 53.7465 105.611 48.9384 106.191C48.656 106.222 48.3815 106.238 48.0992 106.238Z" fill="#401300"/>
<path d="M61.2278 76.9306C59.8552 74.6509 55.4315 76.2569 55.3844 76.2726L54.9766 75.168C55.1962 75.0896 60.3729 73.2173 62.2397 76.3274L61.2278 76.9306Z" fill="#7F2D11"/>
<path d="M33.6488 77.6665L32.5586 77.2199C33.9469 73.867 39.3432 74.9481 39.5707 75.0029L39.3275 76.1545C39.2805 76.1467 34.6607 75.2223 33.6488 77.6743V77.6665Z" fill="#7F2D11"/>
<path d="M47.7518 95.4425C46.7086 95.4425 45.6262 95.1762 45.3125 95.0978L45.6106 93.9619C46.8185 94.2831 48.3793 94.4006 48.7636 94.0794L49.5166 94.9803C49.0931 95.3329 48.4342 95.4425 47.7518 95.4425Z" fill="#401300"/>
<path d="M77.5891 79.7194L76.7969 78.8498C78.295 77.4946 81.754 75.5595 84.1384 77.9411L83.307 78.7715C81.1265 76.5936 77.6283 79.6881 77.5891 79.7272V79.7194Z" fill="#7F2D11"/>
<path d="M74.1913 152.858C71.3912 159.979 59.5083 164.076 50.8726 153.72C44.9743 146.653 45.3664 132.732 50.5431 125.306C50.7314 125.031 50.9275 124.781 51.1314 124.546C56.763 118.028 67.4773 125.274 71.2657 130.742C75.4149 136.728 76.8973 146.011 74.1913 152.858Z" fill="#F3D1AA"/>
<path d="M78.6466 33.107C78.4897 33.0991 78.3407 33.0991 78.1838 33.0991C77.3054 34.6581 77.4779 36.0212 77.7132 37.306C77.3446 38.2148 76.8661 39.1157 76.2465 40.0087C76.2465 40.0087 76.1053 40.0949 75.8543 40.1968C76.7563 49.6759 77.3054 61.6699 77.6191 72.332C76.2465 72.5278 74.9523 73.0762 73.8072 73.8909C72.4502 70.5693 70.5835 67.5454 68.2932 64.9366C69.156 60.0717 67.8696 47.1926 66.6068 37.0631C66.4186 36.6793 66.3009 36.3267 66.2852 36.0212C66.2852 36.0212 64.0106 38.8963 61.6497 38.8571C61.6497 38.8571 54.7631 36.5618 58.5359 25.9153C61.9792 19.3661 67.0618 18.708 71.4933 20.1886C74.7405 21.2697 78.9603 26.8476 78.6466 33.107Z" fill="#734413"/>
<path d="M78.647 33.1074C78.5764 34.4862 78.2862 35.9042 77.7136 37.3065C77.4783 36.0217 77.3057 34.6586 78.1842 33.0996C78.3411 33.0996 78.4901 33.0996 78.647 33.1074Z" fill="#A25B0F"/>
</g>
<defs>
<clipPath id="clip0_983_9750">
<rect width="166" height="216" fill="white"/>
</clipPath>
</defs>
</svg>
