<svg width="235" height="233" viewBox="0 0 235 233" fill="none" xmlns="http://www.w3.org/2000/svg">
<g clip-path="url(#clip0_928_6622)">
<path d="M27.6953 51.0064C27.6953 51.0064 41.5633 93.0417 45.8746 109.951C49.2323 123.129 53.8417 136.784 60.1399 149.208C66.4381 161.632 76.7298 171.773 85.8095 182.352C93.5382 191.362 101.545 208.033 114.499 209.899C114.499 209.899 91.313 154.745 91.313 148.116L153.162 218.175L101.803 120.549C130.235 136.804 158.666 153.038 187.097 169.293C197.329 175.128 207.561 180.982 217.793 186.817C223.158 189.893 229.376 194.538 235.019 196.363C210.522 170.344 183.302 146.33 157.573 121.482L153.182 117.235L226.635 153.098C226.635 153.098 116.168 51.0263 58.7293 48.2676L53.0073 55.5116L39.2586 57.794" fill="#FECC71"/>
<path d="M29.4654 59.0836L10.6901 102.171L39.2207 60.1156L54.8768 86.5315L46.8699 60.1156L93.8381 92.0886L56.2675 54.5585L88.2552 48.6442L56.6053 46.2229L78.1821 22.2481L48.5984 39.9712L45.1215 0L38.5253 42.7497L8.24631 17.0284L34.3331 47.6122L6.16016 57.337L29.4654 59.0836Z" fill="#FFEAAD"/>
<path d="M45.2378 154.982C45.2378 154.982 40.0125 111.24 38.8204 108.442C37.6283 105.644 52.887 130.908 50.4631 151.767L45.2378 154.982Z" fill="#FECC71"/>
<path d="M157.297 81.3916C157.297 81.3916 213.126 88.6158 224.372 120.708C224.372 120.708 159.304 87.0082 157.297 81.3916Z" fill="#FECC71"/>
<path d="M100.254 53.2881L119.129 65.3152C119.129 65.3152 123.221 60.5718 123.221 57.3368C123.221 54.1018 101.525 53.6056 100.254 53.2881Z" fill="#FECC71"/>
<path d="M197.299 185.647L196.027 187.172L232.814 217.789L234.086 216.264L197.299 185.647Z" fill="#FECC71"/>
<path d="M72.8231 182.841L71.4375 184.264L106.337 218.189L107.722 216.767L72.8231 182.841Z" fill="#FECC71"/>
<path d="M152.304 177.095L150.477 177.875L174.056 232.99L175.883 232.21L152.304 177.095Z" fill="#FECC71"/>
<path d="M138.529 151.059L137.207 152.541L156.447 169.665L157.769 168.183L138.529 151.059Z" fill="#FECC71"/>
<path d="M19.293 121.382L27.6972 107.053L28.0349 122.771L19.293 121.382Z" fill="#FECC71"/>
<path d="M142.433 69.6619C142.433 69.6619 165.52 66.1689 168.321 68.2726C171.122 70.3764 147.678 75.2587 144.877 74.2068C142.075 73.1549 142.433 69.6619 142.433 69.6619Z" fill="#FECC71"/>
<path d="M20.1216 47.1185L0 48.457L0.13202 50.4373L20.2536 49.0988L20.1216 47.1185Z" fill="#FECC71"/>
<path d="M22.4261 2.63133L20.6016 3.41699L31.7779 29.3152L33.6024 28.5296L22.4261 2.63133Z" fill="#FECC71"/>
<path d="M86.327 37.748H76.9492V39.7327H86.327V37.748Z" fill="#FECC71"/>
</g>
<defs>
<clipPath id="clip0_928_6622">
<rect width="235" height="233" fill="white"/>
</clipPath>
</defs>
</svg>
