<svg width="266" height="185" viewBox="0 0 266 185" fill="none" xmlns="http://www.w3.org/2000/svg">
<g clip-path="url(#clip0_928_6609)">
<path d="M174.094 107.437C174.094 107.437 160.038 147.862 157.191 148.233C157.191 148.233 236.122 121.755 231.429 76.7998" fill="#FF4433"/>
<path d="M151.637 47.5588C151.637 47.5588 178.064 13.8312 180.874 14.4057C180.874 14.4057 97.5933 14.0203 87.4414 58.0741" fill="#FF4433"/>
<path d="M266.001 2.3562C266.001 2.3562 262.848 28.0046 246.938 55.5001C229.575 85.5117 197.003 117.727 136.719 121.195L109.613 82.552C109.613 82.552 140.945 17.9329 210.235 3.03977C226.656 -0.494428 245.215 -1.2289 266.001 2.3562Z" fill="#CBCBE0"/>
<path d="M266 2.3562C266 2.3562 262.848 28.0046 246.937 55.5001C246.631 55.4201 246.332 55.311 246.032 55.1583C234.72 49.5225 216.088 14.4714 210.234 3.03977C226.655 -0.494428 245.215 -1.2289 266 2.3562Z" fill="#FF4433"/>
<path d="M222.933 13.9478C224.497 13.9478 225.765 12.6845 225.765 11.1262C225.765 9.56793 224.497 8.30469 222.933 8.30469C221.369 8.30469 220.102 9.56793 220.102 11.1262C220.102 12.6845 221.369 13.9478 222.933 13.9478Z" fill="#FFFEFA"/>
<path d="M232.937 27.8521C234.501 27.8521 235.769 26.5888 235.769 25.0305C235.769 23.4722 234.501 22.209 232.937 22.209C231.373 22.209 230.105 23.4722 230.105 25.0305C230.105 26.5888 231.373 27.8521 232.937 27.8521Z" fill="#FFFEFA"/>
<path d="M242.148 41.4429C243.712 41.4429 244.98 40.1796 244.98 38.6213C244.98 37.0631 243.712 35.7998 242.148 35.7998C240.584 35.7998 239.316 37.0631 239.316 38.6213C239.316 40.1796 240.584 41.4429 242.148 41.4429Z" fill="#FFFEFA"/>
<path d="M186.34 78.6827C196.441 78.6827 204.63 70.5237 204.63 60.459C204.63 50.3944 196.441 42.2354 186.34 42.2354C176.239 42.2354 168.051 50.3944 168.051 60.459C168.051 70.5237 176.239 78.6827 186.34 78.6827Z" fill="#FFFEFA"/>
<path d="M186.339 81.9482C174.443 81.9482 164.766 72.3055 164.766 60.4521C164.766 48.5987 174.443 38.9561 186.339 38.9561C198.235 38.9561 207.913 48.5987 207.913 60.4521C207.913 72.3055 198.235 81.9482 186.339 81.9482ZM186.339 45.5081C178.07 45.5081 171.334 52.2129 171.334 60.4594C171.334 68.7059 178.063 75.4107 186.339 75.4107C194.616 75.4107 201.345 68.7059 201.345 60.4594C201.345 52.2129 194.616 45.5081 186.339 45.5081Z" fill="#263A42"/>
<path d="M100.782 90.9658L28.31 143.026L73.1432 125.893L0 185L83.5871 140.67L68.0855 164.18L126.056 126.904L100.782 90.9658Z" fill="#F9C079"/>
<path d="M110.686 80.7617L98.3164 89.0312L125.907 130.004L138.276 121.734L110.686 80.7617Z" fill="#213038"/>
</g>
<defs>
<clipPath id="clip0_928_6609">
<rect width="266" height="185" fill="white"/>
</clipPath>
</defs>
</svg>
