<svg width="186" height="186" viewBox="0 0 186 186" fill="none" xmlns="http://www.w3.org/2000/svg">
<g clip-path="url(#clip0_983_9804)">
<path d="M185.77 92.88C185.77 96.06 185.61 99.2 185.3 102.3C184.65 108.75 183.34 115.01 181.43 121C178.31 130.86 173.57 140.01 167.53 148.14C150.63 170.97 123.48 185.77 92.89 185.77C64.69 185.77 39.42 173.2 22.39 153.36C11.37 140.53 3.79 124.65 1.09 107.17C0.37 102.51 0 97.74 0 92.88C0 70.72 7.77 50.36 20.74 34.4C36.95 14.41 61.3 1.3 88.74 0.1C90.12 0.03 91.5 0 92.89 0C128.76 0 159.88 20.34 175.36 50.12C182.01 62.92 185.77 77.46 185.77 92.88Z" fill="#B14CB1"/>
<path d="M185.77 92.8796C185.77 96.0596 185.61 99.1996 185.3 102.3C184.97 104.16 184.63 106.02 184.27 107.87C184.25 107.95 184.24 108.03 184.22 108.11C183.35 112.56 182.46 116.88 181.43 121C178.44 130.45 173.97 139.24 168.28 147.11C168.04 147.45 167.78 147.8 167.53 148.14C163.05 152.33 157.24 155.59 149.53 157.68C139.22 160.48 128.29 160.25 117.75 158.54C86.5596 153.48 58.1696 135.47 38.0096 111.14C24.3196 94.6196 13.8796 73.8296 15.9296 52.4696C16.5396 46.2196 18.2096 40.1296 20.7396 34.3996C36.9496 14.4096 61.2996 1.29961 88.7396 0.0996094C88.8296 3.24961 88.4996 6.63961 88.8296 9.67961C91.3896 33.0196 130.42 47.4496 149.02 51.8996C157.44 53.9196 166.78 54.8996 174.36 50.7096C174.7 50.5196 175.03 50.3296 175.36 50.1196C182.01 62.9196 185.77 77.4596 185.77 92.8796Z" fill="#E958A8"/>
<path d="M35.6095 77.2496C37.4695 73.9996 42.8495 73.5596 46.4095 73.1396C52.2995 72.4496 58.2195 73.7596 62.5195 78.0496C73.2495 88.7796 71.5995 103.64 62.9295 103.64C54.0495 103.64 44.8895 97.6696 39.6895 90.7696C37.4895 87.8596 34.0395 82.2196 35.1595 78.3096C35.2695 77.9296 35.4195 77.5696 35.6095 77.2496Z" fill="#D54E98"/>
<path d="M111.292 81.9004C108.312 77.2904 105.902 71.4404 110.462 67.2604C116.162 62.0404 125.182 60.8504 132.612 60.7904C137.422 60.7504 142.402 61.5704 146.372 64.2904C150.652 67.2304 153.272 72.0704 154.892 77.0104C157.002 83.4604 157.642 93.0604 149.162 94.3904C143.362 95.3004 137.452 95.9504 131.632 95.1904C125.542 94.3904 119.772 91.5404 115.462 87.1604C114.212 85.8904 112.672 84.0204 111.302 81.9004H111.292Z" fill="#D54E98"/>
<path d="M184.27 107.87C184.25 107.95 184.24 108.03 184.22 108.11C183.35 112.56 182.46 116.88 181.43 121C178.44 130.45 173.97 139.24 168.28 147.11C163.93 142.84 157.64 134.22 163.08 123.62C169.06 111.97 176.49 108.24 184.27 107.87Z" fill="#D54E98"/>
<path d="M54.3311 138.14C52.9711 145.96 58.2011 152.75 63.8211 157.52C66.5811 159.86 70.5111 163.02 74.5411 164.93C83.2311 169.05 88.8011 163.22 94.8511 157.8C95.9111 156.85 96.7111 155.26 97.2511 153.26C82.7711 148.07 69.2811 140.13 57.4011 130.21C55.9311 132.49 54.8611 135.14 54.3411 138.13L54.3311 138.14Z" fill="#AD459C"/>
<path d="M86.7206 122.27C76.8706 117.45 63.5706 120.6 57.3906 130.21C69.2706 140.13 82.7606 148.07 97.2406 153.26C99.6506 144.32 96.6806 127.14 86.7206 122.26V122.27Z" fill="#D54E98"/>
<path d="M23.3198 133.66C23.1598 141.89 22.9098 148.57 22.3898 153.36C11.3698 140.53 3.78984 124.65 1.08984 107.17C6.48984 109.87 23.5998 119.59 23.3198 133.66Z" fill="#A043A5"/>
<path d="M52.2399 41.7097C52.2399 41.7097 49.5999 17.9497 64.6899 18.3297C74.1099 18.5697 88.1999 27.9697 88.4099 38.3997C88.5399 44.8997 82.2799 57.5497 74.8699 57.5497C66.1999 57.5497 52.2399 55.2897 52.2399 41.7097Z" fill="#D54E98"/>
<path d="M114.68 129.74C114.25 129.06 113.88 128.29 113.61 127.44C111.77 121.75 111.95 113.75 119.77 113.98C131.78 114.33 136.02 129.87 130.01 132.7C124.68 135.21 117.81 134.65 114.68 129.74Z" fill="#D54E98"/>
</g>
<defs>
<clipPath id="clip0_983_9804">
<rect width="185.77" height="185.77" fill="white"/>
</clipPath>
</defs>
</svg>
