<svg width="341" height="319" viewBox="0 0 341 319" fill="none" xmlns="http://www.w3.org/2000/svg">
<g clip-path="url(#clip0_928_6575)">
<path d="M235.207 106.371C238.765 110.743 241.776 115.383 244.246 120.205C250.853 133.096 253.603 147.297 252.665 161.225C252.412 164.997 251.887 168.745 251.095 172.445C250.277 176.274 249.171 180.051 247.781 183.733C245.901 188.719 243.504 193.537 240.596 198.1C237.136 203.538 232.955 208.615 228.066 213.191C226.741 214.434 225.359 215.639 223.928 216.803C203.17 233.695 176.374 238.207 152.468 231.258C148.821 230.199 145.246 228.874 141.767 227.284C135.251 224.308 129.082 220.41 123.467 215.613C120.554 213.123 117.789 210.39 115.204 207.416C114.628 206.76 114.063 206.086 113.508 205.404C107.019 197.431 102.355 188.573 99.4603 179.329C95.3333 166.172 94.796 152.239 97.695 138.987C101.352 122.258 110.482 106.613 124.787 94.9721C158.394 67.6247 207.83 72.7282 235.207 106.371Z" fill="#6482C4"/>
<path d="M235.209 106.371C238.767 110.744 241.778 115.383 244.248 120.205C244.406 120.513 244.561 120.818 244.711 121.127C246.945 125.622 248.707 130.27 250.014 135.007C252.386 143.593 253.257 152.463 252.667 161.225C246.958 171.73 239.144 181.317 229.3 189.327C190.088 221.236 132.989 216.479 99.4624 179.329C98.5169 176.308 97.7574 173.246 97.1893 170.159C96.8952 168.588 96.6533 167.008 96.4606 165.426C95.3745 156.593 95.8037 147.643 97.6972 138.987C101.355 122.258 110.484 106.613 124.789 94.9721C158.396 67.6247 207.832 72.7282 235.209 106.371Z" fill="#779ED9"/>
<path d="M235.206 106.371C236.26 107.667 237.268 108.988 238.226 110.327C240.5 113.511 242.508 116.814 244.245 120.206C240.679 137.098 231.529 152.92 217.104 164.658C183.584 191.935 134.272 186.845 106.965 153.288C104.749 150.565 102.744 147.738 100.953 144.825C99.7734 142.913 98.6879 140.966 97.6942 138.987C97.8552 138.255 98.0254 137.525 98.2069 136.797C99.6588 130.958 101.785 125.273 104.568 119.86C106.907 115.313 109.713 110.957 112.979 106.874C116.41 102.58 120.347 98.5846 124.786 94.9725C147.545 76.4526 177.564 72.8166 203.073 82.847C206.856 84.3332 210.538 86.1214 214.085 88.2057C218.516 90.8102 222.732 93.8774 226.659 97.3997C229.691 100.119 232.553 103.111 235.206 106.371Z" fill="#9ACAF5"/>
<path d="M235.207 106.371C236.261 107.667 237.268 108.988 238.227 110.327L100.954 144.825C99.7741 142.913 98.6885 140.966 97.6949 138.987C97.8559 138.255 98.0261 137.524 98.2076 136.797L226.659 97.3996C229.692 100.118 232.554 103.111 235.207 106.371Z" fill="#8EB1D9"/>
<path d="M214.086 88.2055C183.026 98.2731 134.003 113.587 104.57 119.86C106.908 115.313 109.714 110.956 112.98 106.874C137.668 101.006 177.301 91.1966 203.074 82.8468C206.857 84.333 210.539 86.1212 214.086 88.2055Z" fill="#8EB1D9"/>
<path d="M244.711 121.127C246.945 125.622 248.708 130.27 250.014 135.007L97.1895 170.159L96.4608 165.426C122.345 157.472 215.791 128.84 244.711 121.127Z" fill="#8EB1D9"/>
<path d="M251.097 172.444L115.207 207.416C117.791 210.39 120.557 213.123 123.47 215.613L247.783 183.733L251.097 172.444Z" fill="#5B74B1"/>
<path d="M240.598 198.1C237.138 203.538 232.958 208.615 228.068 213.19C207.236 218.036 172.812 226.11 152.471 231.258C148.824 230.199 145.248 228.874 141.77 227.284C165.62 219.822 215.81 204.315 240.598 198.1Z" fill="#5B74B1"/>
<path d="M338.337 119.083C336.86 113.864 262.606 130.243 172.485 155.667C82.3646 181.091 10.5048 205.933 11.9819 211.153C13.4589 216.372 87.7133 199.994 177.834 174.569C267.954 149.145 339.814 124.303 338.337 119.083Z" fill="#FFFC75"/>
</g>
<defs>
<clipPath id="clip0_928_6575">
<rect width="311.352" height="157.072" fill="white" transform="translate(0 196.519) rotate(-39.1371)"/>
</clipPath>
</defs>
</svg>
