<svg width="254" height="254" viewBox="0 0 254 254" fill="none" xmlns="http://www.w3.org/2000/svg">
<g clip-path="url(#clip0_983_9797)">
<path d="M253.49 126.75C253.49 196.75 196.74 253.49 126.74 253.49C117.64 253.49 108.77 252.53 100.21 250.71C91.4 248.83 82.93 246.04 74.9 242.44C56.28 234.09 40.05 221.37 27.5 205.59C25.7 203.33 23.98 201.01 22.34 198.63C18.53 193.11 15.15 187.27 12.25 181.17C10.73 177.99 9.35 174.74 8.1 171.42C2.86 157.53 0 142.47 0 126.75C0 78.61 26.83 36.74 66.36 15.28C76.63 9.71 87.75 5.51 99.48 2.95C108.26 1.02 117.38 0 126.74 0C138.9 0 150.66 1.71 161.79 4.92C179.23 9.92 195.12 18.57 208.6 29.98C236.06 53.23 253.49 87.96 253.49 126.75Z" fill="#FFCD95"/>
<path d="M207.088 178.38C185.928 195.08 158.858 198.84 136.848 213.76C125.118 221.72 106.038 235.4 100.208 250.71C91.3984 248.83 82.9284 246.04 74.8984 242.44C86.4584 234.62 108.518 215.92 111.238 213.25C122.168 202.53 131.188 189.93 141.438 178.57C152.018 166.83 163.098 155.42 175.238 145.27C183.658 138.23 193.148 130.62 204.168 127.5C211.158 125.52 228.948 122.46 233.958 129.7C245.728 146.71 218.438 169.42 207.088 178.38Z" fill="#FFE4B9"/>
<path d="M73.52 160.51C72.22 168.29 40.23 191.72 27.5 205.59C25.7 203.33 23.98 201.01 22.34 198.63C18.53 193.11 15.15 187.27 12.25 181.17C27.88 169.72 55.33 150.22 61.39 149.81C69.98 149.24 75.13 150.85 73.52 160.51Z" fill="#FFE4B9"/>
<path d="M208.599 29.98C205.889 33.65 202.429 37.71 199.339 40.68C197.679 42.28 196.459 43.21 195.889 43.25H195.849C194.719 43.03 196.719 38.9 196.999 37.45C200.589 18.67 178.429 23.89 167.939 28.56C152.889 35.27 140.079 46.86 128.889 58.74C112.389 76.26 99.2293 96.62 82.3893 113.83C73.8693 122.54 64.0793 134.17 51.6293 134.79C12.2593 136.77 24.9793 78.2 35.0693 56.86C42.4193 41.31 53.2493 27 66.3593 15.28C84.3093 5.54 104.879 0 126.739 0C157.949 0 186.519 11.28 208.599 29.98Z" fill="#FEBC65"/>
<path d="M207.511 29.0703C203.881 34.0303 200.261 38.4403 199.381 39.3703C192.871 46.2603 184.581 50.5703 176.561 55.4103C168.551 60.2403 160.551 65.1203 152.881 70.4803C148.021 73.8903 141.071 76.9103 138.511 82.6503C136.541 87.0703 137.921 92.5203 142.311 94.9003C147.381 97.6503 152.031 93.5303 155.841 90.5703C172.401 77.7503 188.691 64.3903 206.211 52.9103C210.551 50.0703 215.951 45.8903 221.571 42.6603L207.511 29.0703Z" fill="#FFE4B9"/>
<path d="M161.79 4.92C157.9 6.43 154.02 8.05 150.51 10.29C134.82 20.33 121.76 34.13 110.55 48.88C92.9198 72.09 79.0298 98.05 60.2798 120.38C58.9898 121.91 57.5898 123.49 55.6998 124.16C52.6298 125.23 49.1398 123.47 47.2598 120.81C45.3798 118.16 44.7898 114.83 44.4098 111.6C40.6998 80.18 53.2098 48.02 74.4698 24.58C81.9198 16.37 90.3498 9.17 99.4798 2.95C108.26 1.02 117.38 0 126.74 0C138.9 0 150.66 1.71 161.79 4.92Z" fill="#FFE4B9"/>
</g>
<defs>
<clipPath id="clip0_983_9797">
<rect width="253.49" height="253.49" fill="white"/>
</clipPath>
</defs>
</svg>
