<svg width="171" height="250" viewBox="0 0 171 250" fill="none" xmlns="http://www.w3.org/2000/svg">
<g clip-path="url(#clip0_853_3053)">
<path d="M88.6836 69.6239L82.7712 63.9971L-30.1898 182.691C-31.6492 184.225 -31.589 186.652 -30.0574 188.11L-29.697 188.453C-28.1645 189.911 -25.7369 189.85 -24.2783 188.317L88.6827 69.6231L88.6836 69.6239Z" fill="#D3AE74"/>
<mask id="mask0_853_3053" style="mask-type:luminance" maskUnits="userSpaceOnUse" x="-32" y="63" width="121" height="127">
<path d="M88.6836 69.6239L82.7712 63.9971L-30.1898 182.691C-31.6492 184.225 -31.589 186.652 -30.0574 188.11L-29.697 188.453C-28.1645 189.911 -25.7369 189.85 -24.2783 188.317L88.6827 69.6231L88.6836 69.6239Z" fill="white"/>
</mask>
<g mask="url(#mask0_853_3053)">
<path d="M72.6026 60.8283L81.5234 69.3182L-41.2346 198.307L-50.1554 189.817L72.6026 60.8283Z" fill="#B99668"/>
</g>
<path d="M73.9208 69.8478C78.4312 70.1577 82.2282 73.3374 83.3238 77.723C85.7756 87.5304 99.3458 88.4633 103.128 79.0833C104.82 74.8891 109.019 72.2587 113.53 72.5686C123.616 73.2619 128.705 60.6426 120.956 54.1529C117.491 51.2502 116.29 46.4453 117.981 42.252C121.762 32.873 111.337 24.1414 102.766 29.5094C98.9324 31.9101 93.9914 31.5704 90.5263 28.6677C82.7776 22.178 71.2452 29.4008 73.6969 39.2082C74.7934 43.5946 72.9401 48.1889 69.1073 50.5904C60.5363 55.9585 63.8345 69.1545 73.9208 69.8478Z" fill="#FFF17D"/>
<mask id="mask1_853_3053" style="mask-type:luminance" maskUnits="userSpaceOnUse" x="64" y="26" width="61" height="60">
<path d="M73.9208 69.8478C78.4312 70.1577 82.2282 73.3374 83.3238 77.723C85.7756 87.5304 99.3458 88.4633 103.128 79.0833C104.82 74.8891 109.019 72.2587 113.53 72.5686C123.616 73.2619 128.705 60.6426 120.956 54.1529C117.491 51.2502 116.29 46.4453 117.981 42.252C121.762 32.873 111.337 24.1414 102.766 29.5094C98.9324 31.9101 93.9914 31.5704 90.5263 28.6677C82.7776 22.178 71.2452 29.4008 73.6969 39.2082C74.7934 43.5946 72.9401 48.1889 69.1073 50.5904C60.5363 55.9585 63.8345 69.1545 73.9208 69.8478Z" fill="white"/>
</mask>
<g mask="url(#mask1_853_3053)">
<path d="M65.351 58.0075C54.5096 47.6897 52.9069 31.7747 61.7713 22.4604C70.6357 13.1461 86.6105 13.9596 97.4519 24.2774C108.293 34.5951 109.896 50.5101 101.032 59.8244C92.1672 69.1387 76.1924 68.3252 65.351 58.0075Z" fill="#FFDD79"/>
</g>
<path d="M120.644 85.7073C126.725 95.8406 126.814 99.4471 121.234 109.873C131.371 103.786 134.977 103.694 145.4 109.268C139.319 99.1345 139.23 95.5281 144.809 85.1017C134.673 91.1895 131.066 91.2807 120.644 85.7073Z" fill="#FFF17D"/>
<path d="M80.5926 109.128C82.6874 112.966 82.6168 114.393 80.1171 118.687C84.283 115.978 85.7038 115.836 89.6409 117.74C87.5461 113.902 87.6167 112.475 90.1165 108.181C85.9505 110.89 84.5297 111.032 80.5926 109.128Z" fill="#FFF17D"/>
<path d="M32.1263 58.0298C36.5896 65.4701 36.6526 68.1182 32.5522 75.7756C39.9974 71.3015 42.6463 71.2342 50.2974 75.3232C45.8341 67.8829 45.7711 65.2348 49.8715 57.5773C42.4262 62.0515 39.7774 62.1187 32.1263 58.0298Z" fill="#FFF17D"/>
<path d="M89.718 39.3896C91.368 42.5047 91.286 43.6777 89.162 47.2479C92.6229 44.95 93.7912 44.8091 96.9833 46.3039C95.3333 43.1888 95.4153 42.0158 97.5393 38.4456C94.0784 40.7435 92.9101 40.8844 89.718 39.3896Z" fill="white"/>
</g>
<defs>
<clipPath id="clip0_853_3053">
<rect width="120.422" height="229.398" fill="white" transform="matrix(-0.724385 -0.689396 -0.689396 0.724385 170.379 83.0182)"/>
</clipPath>
</defs>
</svg>
