<svg width="116" height="178" viewBox="0 0 116 178" fill="none" xmlns="http://www.w3.org/2000/svg">
<g clip-path="url(#clip0_853_2994)">
<path d="M66.7323 163.783C66.7323 163.783 61.403 177.143 57.622 178C55.9041 177.487 55.9041 168.75 58.3104 163.268C60.2019 161.041 62.6959 160.795 63.4521 160.946C63.4521 160.946 67.7599 155.9 67.7599 154.544C67.7599 154.544 63.3005 154.995 61.2593 156.051C59.2182 157.106 51.8856 163.207 48.2583 162.302C48.2583 162.302 48.9387 155.975 54.9863 151.531C54.9863 151.531 57.3287 149.875 60.6548 151.38C60.6548 151.38 62.0155 151.607 62.4685 150.326C62.9214 149.046 69.7252 140.76 76.8303 139.78L74.2604 131.871C74.2604 131.871 71.6905 133.754 70.3298 133.378C68.969 133.002 67.3069 131.193 67.2311 130.666C67.2311 130.666 63.4521 131.644 62.6201 131.193C61.7881 130.741 60.5031 128.405 60.5031 127.803C60.5031 127.803 56.4967 128.781 55.7405 127.276C54.9843 125.771 55.3514 123.289 55.6527 121.991C55.954 120.692 66.878 101.716 76.4991 99.318C76.4991 99.318 77.5147 93.1165 73.185 88.7422C73.185 88.7422 68.1031 98.5824 67.7 99.157C64.9206 103.11 61.0578 106.73 57.2968 109.717C55.7624 110.934 55.0521 109.89 53.414 109.707C53.0828 109.671 52.3126 109.707 52.1271 109.671C51.9415 109.635 51.2811 108.536 52.8613 108.427C54.4416 108.317 55.2496 108.427 54.3677 107.695C53.4858 106.963 52.568 106.084 51.2811 106.524C49.9941 106.963 49.9223 107.146 49.4435 106.963C48.9646 106.78 48.7451 105.205 50.2515 104.474C51.6103 103.999 55.0282 103.851 56.5705 105.975C56.5705 105.975 61.5965 99.7356 62.1173 98.1231C62.1173 98.1231 68.536 87.923 68.7675 87.3464C68.9989 86.7698 68.4941 86.6028 68.0232 86.8036C67.5524 87.0044 63.7634 89.4779 60.8882 89.2194C45.2594 87.8057 34.7145 76.347 23.9342 66.302C18.6467 61.375 13.3354 56.4659 8.18762 51.3937C5.95692 49.1966 0.663528 45.3869 -0.000892639 42.0824C-0.000892639 42.0824 48.6054 64.608 54.8765 68.2546C61.1476 71.9011 68.4662 77.5002 68.4662 77.5002C68.4662 77.5002 69.1785 73.9491 71.92 74.0048C71.92 74.0048 67.5883 70.9448 66.5468 68.7059C65.5052 66.4671 65.4494 63.6258 65.615 62.8603C65.615 62.8603 64.6832 62.9696 64.354 62.5879C64.0248 62.2061 64.4637 59.8559 64.3001 59.4185C64.1365 58.9811 63.2027 57.0703 62.5463 57.5614C61.8898 58.0525 61.3411 59.8003 60.9022 59.8003C60.4632 59.8003 56.4568 56.2511 56.345 50.3717C56.2333 44.4922 62.4665 40.1656 63.915 40.0563C65.3616 39.9449 69.37 39.0581 71.5947 41.7205C71.5947 41.7205 70.665 32.5583 73.3506 22.4279C76.0342 12.2954 81.5969 0.828791 82.9398 0.254167C82.9398 0.254167 84.8572 32.7452 84.8572 35.0398C84.8572 35.0398 90.7292 33.2006 93.8239 35.7317C96.9185 38.2628 99.5363 46.0908 91.6011 49.2522C91.6011 49.2522 93.8139 54.911 92.0601 58.7107C90.3062 62.5123 86.5671 65.628 84.2027 65.7811C84.2027 65.7811 82.9817 70.8732 83.2111 71.8634C83.2111 71.8634 87.7882 71.6347 89.161 73.0027C90.5337 74.3706 90.7631 76.5001 90.6873 77.5639C90.6873 77.5639 93.2811 79.3116 93.5106 81.4411C93.7401 83.5686 93.4348 85.3939 93.1295 86.6107C92.8242 87.8276 91.9084 90.1082 92.4431 90.8677C92.4431 90.8677 102.435 99.0019 103.351 99.153C104.267 99.3041 107.623 100.597 108.385 98.9243C109.147 97.2522 109.453 95.0471 111.131 94.7429C112.809 94.4387 115.554 94.2876 115.937 95.9598C116.32 97.6319 114.832 97.5604 114.65 97.3059C114.469 97.0514 114.251 96.4389 113.307 96.5105C112.364 96.5821 112.475 97.7413 112.178 98.4054C111.881 99.0695 110.847 102.161 107.595 102.382C104.343 102.603 98.3571 103.855 92.9619 97.962C92.9619 97.962 91.6989 98.9701 92.1239 100.513C92.1239 100.513 109.121 110.701 110.107 116.591C111.093 122.478 106.789 120.356 106.288 120.48C105.787 120.603 104.868 120.563 104.993 121.854C105.119 123.144 106.372 126.516 104.451 126.683C102.529 126.85 100.482 126.558 100.065 127.017C99.648 127.477 99.0614 128.308 99.1452 128.932C99.229 129.556 99.3966 131.97 97.9341 132.221C96.4716 132.471 94.0074 132.471 92.8382 131.304C91.669 130.137 91.5852 131.928 91.5852 131.928C91.5353 134.048 91.3637 136.193 91.0245 138.285C90.0129 144.514 83.9055 149.541 79.7094 153.895C76.8283 156.886 71.4291 163.805 66.7343 163.779L66.7323 163.783Z" fill="#AB1A78"/>
<path d="M24.2438 151.221C30.3625 154.108 31.5854 156.012 32.4352 163.983C35.1038 156.423 36.7331 154.851 43.3547 153.449C37.236 150.562 36.0131 148.658 35.1633 140.687C32.4948 148.247 30.8655 149.819 24.2438 151.221Z" fill="#FFF17D"/>
<path d="M40.321 131.021C43.5691 131.213 44.4569 131.843 46.2696 135.246C46.0999 131.397 46.5437 130.404 49.2446 128.593C45.9966 128.401 45.1087 127.771 43.296 124.368C43.4657 128.217 43.0219 129.21 40.321 131.021Z" fill="#FFF17D"/>
</g>
<defs>
<clipPath id="clip0_853_2994">
<rect width="116" height="178" fill="white" transform="matrix(-1 0 0 1 116 0)"/>
</clipPath>
</defs>
</svg>
