<svg width="178" height="209" viewBox="0 0 178 209" fill="none" xmlns="http://www.w3.org/2000/svg">
<g clip-path="url(#clip0_155_1222)">
<path d="M125.767 92.8187C117.695 103.134 102.771 104.937 92.4336 96.8476C82.096 88.7577 80.2597 73.8376 88.3319 63.5226C96.4041 53.2076 111.328 51.4039 121.666 59.4938C132.003 67.5836 133.84 82.5037 125.767 92.8187Z" fill="#C1892C"/>
<path d="M128.623 90.5956C120.461 101.025 105.371 102.849 94.9183 94.6693C84.4658 86.4894 82.609 71.4035 90.771 60.9739C98.933 50.5442 114.023 48.7204 124.475 56.9002C134.928 65.08 136.785 80.166 128.623 90.5956Z" fill="#FFC905"/>
<mask id="mask0_155_1222" style="mask-type:luminance" maskUnits="userSpaceOnUse" x="85" y="51" width="49" height="49">
<path d="M128.623 90.5956C120.461 101.025 105.371 102.849 94.9183 94.6693C84.4658 86.4894 82.609 71.4035 90.771 60.9739C98.933 50.5442 114.023 48.7204 124.475 56.9002C134.928 65.08 136.785 80.166 128.623 90.5956Z" fill="white"/>
</mask>
<g mask="url(#mask0_155_1222)">
<path d="M135.517 72.1196L133.783 67.1937L86.4475 63.689L85.3064 75.3998L135.517 72.1196Z" fill="#FDE396"/>
<path d="M139.891 80.3396L138.16 75.5851L87.8787 86.0941L89.9327 95.8178L139.891 80.3396Z" fill="#FDE396"/>
</g>
<path d="M97.6245 91.2097C101.86 94.4575 107.304 95.8701 112.574 95.0912C126.496 93.0439 134.255 77.849 127.554 65.4079C120.615 52.7745 102.89 51.2725 93.9815 62.5938C86.9974 71.4057 88.6588 84.3927 97.6241 91.2095L97.6245 91.2097ZM98.599 89.9645C90.6162 83.6278 89.2193 71.7771 95.4966 63.7794C103.739 53.2446 119.892 54.3362 126.693 65.8935C130.274 71.9401 130.207 79.6516 126.403 85.5709C120.327 95.108 107.371 96.9971 98.5987 89.9648L98.599 89.9645Z" fill="#C1892C"/>
<path d="M121.135 74.6819C121.135 74.6819 126.949 72.0379 122.448 66.0054C119.25 62.1644 110.699 59.8783 104.403 66.4953C98.1073 73.1122 95.8048 81.0146 100.606 86.612C105.407 92.2094 112.676 89.6996 113.373 85.5616C113.392 85.5762 114.095 88.3567 115.858 88.1752C117.621 87.9937 118.584 85.7634 116.634 82.6482C116.634 82.6482 119.908 85.3213 121.353 82.6886C122.799 80.056 119.736 78.3279 119.495 78.2785C119.495 78.2785 123.517 80.6732 124.353 77.2842C125.189 73.8951 121.135 74.6825 121.135 74.6825L121.135 74.6819Z" fill="#D78F20"/>
<path d="M120.6 73.4221C120.6 73.4221 126.414 70.7782 121.912 64.7456C118.715 60.9046 110.164 58.6185 103.868 65.2355C97.5721 71.8525 95.2697 79.7548 100.071 85.3522C104.872 90.9496 112.14 88.4398 112.838 84.3018C112.857 84.3164 113.56 87.097 115.323 86.9154C117.086 86.7339 118.048 84.5037 116.099 81.3884C116.099 81.3884 119.372 84.0616 120.818 81.4289C122.264 78.7962 119.201 77.0681 118.96 77.0188C118.96 77.0188 122.982 79.4134 123.818 76.0244C124.654 72.6354 120.6 73.4227 120.6 73.4227L120.6 73.4221Z" fill="#F8AE1B"/>
<path d="M117.503 69.9881C116.197 71.6569 113.783 71.9487 112.11 70.6399C110.438 69.3311 110.141 66.9174 111.447 65.2486C112.753 63.5798 115.167 63.288 116.839 64.5968C118.512 65.9056 118.809 68.3194 117.503 69.9881Z" fill="#D78F20"/>
<path d="M117.48 70.3841C116.174 72.0529 113.759 72.3447 112.087 71.0359C110.414 69.7271 110.117 67.3134 111.423 65.6446C112.729 63.9758 115.144 63.684 116.816 64.9928C118.488 66.3016 118.785 68.7154 117.48 70.3841Z" fill="#996929"/>
<path d="M108.19 82.075C106.885 83.7438 104.47 84.0356 102.798 82.7268C101.125 81.418 100.828 79.0043 102.134 77.3355C103.44 75.6668 105.855 75.3749 107.527 76.6837C109.199 77.9925 109.496 80.4063 108.19 82.075Z" fill="#D78F20"/>
<path d="M108.167 82.4705C106.861 84.1393 104.447 84.4311 102.774 83.1223C101.102 81.8135 100.805 79.3998 102.111 77.731C103.417 76.0623 105.831 75.7704 107.503 77.0792C109.176 78.388 109.473 80.8018 108.167 82.4705Z" fill="#996929"/>
<path d="M111.198 78.1657C110.791 78.4417 110.115 78.1567 109.688 77.5291C109.26 76.9015 109.243 76.1689 109.65 75.8929C110.056 75.6168 110.732 75.9019 111.16 76.5295C111.587 77.1571 111.604 77.8896 111.198 78.1657Z" fill="#D78F20"/>
<path d="M111.198 78.4845C110.791 78.7606 110.115 78.4756 109.688 77.8479C109.26 77.2203 109.243 76.4878 109.65 76.2117C110.056 75.9357 110.732 76.2207 111.16 76.8483C111.587 77.4759 111.604 78.2085 111.198 78.4845Z" fill="#996929"/>
<path d="M112.495 75.1065C111.783 74.8424 111.344 74.2548 111.515 73.794C111.685 73.3332 112.4 73.1737 113.112 73.4378C113.824 73.7019 114.263 74.2896 114.093 74.7504C113.923 75.2112 113.207 75.3706 112.495 75.1065Z" fill="#D78F20"/>
<path d="M112.183 75.1808C111.471 74.9167 111.032 74.329 111.202 73.8682C111.372 73.4074 112.087 73.2479 112.799 73.512C113.511 73.7761 113.951 74.3638 113.78 74.8246C113.61 75.2854 112.895 75.4449 112.183 75.1808Z" fill="#996929"/>
</g>
<g clip-path="url(#clip1_155_1222)">
<path d="M61.2082 58.9007C54.5696 64.6234 44.5386 63.869 38.8035 57.2159C33.0683 50.5627 33.8008 40.5302 40.4394 34.8075C47.078 29.0849 57.1089 29.8392 62.8441 36.4924C68.5792 43.1455 67.8468 53.1781 61.2082 58.9007Z" fill="#C1892C"/>
<path d="M63.3757 57.8125C56.6633 63.5988 46.5209 62.836 40.722 56.1089C34.9231 49.3818 35.6637 39.2378 42.3761 33.4515C49.0885 27.6653 59.2309 28.428 65.0298 35.1551C70.8287 41.8822 70.0882 52.0263 63.3757 57.8125Z" fill="#FFC905"/>
<mask id="mask1_155_1222" style="mask-type:luminance" maskUnits="userSpaceOnUse" x="36" y="29" width="33" height="33">
<path d="M63.3757 57.8135C56.6633 63.5997 46.5209 62.837 40.722 56.1099C34.9231 49.3828 35.6637 39.2387 42.3761 33.4525C49.0885 27.6663 59.2309 28.429 65.0298 35.1561C70.8287 41.8832 70.0882 52.0273 63.3757 57.8135Z" fill="white"/>
</mask>
<g mask="url(#mask1_155_1222)">
<path d="M70.2979 46.5796L69.7996 43.1209L39.1822 34.6721L36.912 42.2112L70.2979 46.5796Z" fill="#FDE396"/>
<path d="M72.1017 52.5431L71.5829 49.1973L37.2114 49.5649L37.2968 56.2146L72.1017 52.5431Z" fill="#FDE396"/>
</g>
<path d="M42.9474 54.1896C45.3057 56.8715 48.6959 58.506 52.2565 58.6791C61.6617 59.1435 68.7283 50.1769 65.9456 41.1398C63.0315 31.9455 51.591 28.6574 44.2728 34.9319C38.5437 39.8092 37.9474 48.5501 42.9472 54.1893L42.9474 54.1896ZM43.7488 53.4987C39.3317 48.3023 39.9539 40.3416 45.1134 35.907C51.8921 30.0621 62.3536 32.8767 65.3169 41.3466C66.8822 45.7809 65.8371 50.8344 62.5709 54.2259C57.344 59.6972 48.5938 59.2545 43.7486 53.4989L43.7488 53.4987Z" fill="#C1892C"/>
<path d="M60.5237 46.3944C60.5237 46.3944 64.6836 45.4139 62.5122 40.8693C60.9118 37.9326 55.5956 35.3213 50.6035 38.8471C45.6113 42.373 43.0735 47.2613 45.498 51.5592C47.9225 55.8571 53.02 55.1537 54.0155 52.528C54.0259 52.54 54.126 54.4565 55.3069 54.5664C56.4877 54.6762 57.4094 53.3372 56.5343 51.0391C56.5343 51.0391 58.3359 53.219 59.6269 51.6786C60.9178 50.1382 59.1316 48.606 58.9798 48.5423C58.9798 48.5423 61.3091 50.6366 62.2979 48.5205C63.2868 46.4044 60.5236 46.3948 60.5236 46.3948L60.5237 46.3944Z" fill="#D78F20"/>
<path d="M60.3362 45.4974C60.3362 45.4974 64.4961 44.5169 62.3246 39.9723C60.7243 37.0356 55.4081 34.4243 50.416 37.9502C45.4238 41.476 42.886 46.3643 45.3105 50.6622C47.735 54.9601 52.8325 54.2567 53.828 51.631C53.8384 51.6431 53.9385 53.5595 55.1194 53.6694C56.3002 53.7792 57.2219 52.4403 56.3468 50.1421C56.3468 50.1421 58.1484 52.322 59.4394 50.7816C60.7303 49.2412 58.9441 47.709 58.7923 47.6453C58.7923 47.6453 61.1216 49.7396 62.1104 47.6235C63.0993 45.5074 60.3361 45.4978 60.3361 45.4978L60.3362 45.4974Z" fill="#F8AE1B"/>
<path d="M58.75 42.8412C57.676 43.767 56.0532 43.645 55.1254 42.5686C54.1976 41.4923 54.3161 39.8692 55.3901 38.9434C56.464 38.0176 58.0869 38.1396 59.0147 39.216C59.9425 40.2923 59.824 41.9154 58.75 42.8412Z" fill="#D78F20"/>
<path d="M58.6836 43.0985C57.6096 44.0243 55.9868 43.9023 55.059 42.826C54.1312 41.7496 54.2496 40.1265 55.3236 39.2007C56.3976 38.2749 58.0204 38.397 58.9483 39.4733C59.8761 40.5497 59.7576 42.1727 58.6836 43.0985Z" fill="#996929"/>
<path d="M51.0625 49.5658C49.9885 50.4916 48.3657 50.3696 47.4379 49.2932C46.5101 48.2169 46.6286 46.5938 47.7026 45.668C48.7766 44.7422 50.3994 44.8642 51.3272 45.9406C52.255 47.0169 52.1365 48.64 51.0625 49.5658Z" fill="#D78F20"/>
<path d="M50.9961 49.8231C49.9221 50.7489 48.2993 50.6269 47.3715 49.5506C46.4437 48.4742 46.5621 46.8512 47.6361 45.9253C48.7101 44.9995 50.3329 45.1216 51.2608 46.1979C52.1886 47.2743 52.0701 48.8973 50.9961 49.8231Z" fill="#996929"/>
<path d="M53.5469 47.3904C53.2443 47.5188 52.8375 47.2439 52.6384 46.7764C52.4393 46.3089 52.5232 45.8258 52.8258 45.6974C53.1284 45.5689 53.5352 45.8438 53.7343 46.3114C53.9334 46.7789 53.8495 47.262 53.5469 47.3904Z" fill="#D78F20"/>
<path d="M53.5078 47.5984C53.2052 47.7268 52.7985 47.4519 52.5994 46.9844C52.4003 46.5169 52.4842 46.0338 52.7868 45.9054C53.0894 45.777 53.4961 46.0518 53.6952 46.5194C53.8943 46.9869 53.8104 47.47 53.5078 47.5984Z" fill="#996929"/>
<path d="M54.7924 45.5511C54.3593 45.2852 54.1474 44.8424 54.319 44.5621C54.4906 44.2817 54.9808 44.2699 55.4139 44.5357C55.8469 44.8016 56.0589 45.2444 55.8872 45.5247C55.7156 45.8051 55.2254 45.8169 54.7924 45.5511Z" fill="#D78F20"/>
<path d="M54.5775 45.5589C54.1445 45.293 53.9325 44.8502 54.1041 44.5699C54.2758 44.2895 54.766 44.2777 55.199 44.5436C55.6321 44.8094 55.844 45.2522 55.6724 45.5326C55.5008 45.8129 55.0106 45.8247 54.5775 45.5589Z" fill="#996929"/>
</g>
<g clip-path="url(#clip2_155_1222)">
<path d="M97.2254 193.47C76.3645 201.001 53.3352 190.158 45.788 169.251C38.2408 148.345 49.0338 125.292 69.8947 117.761C90.7556 110.23 113.785 121.074 121.332 141.98C128.879 162.887 118.086 185.94 97.2254 193.47Z" fill="#C1892C"/>
<path d="M103.328 192.852C82.2353 200.466 58.95 189.503 51.319 168.364C43.6879 147.225 54.6008 123.916 75.6936 116.301C96.7864 108.687 120.072 119.651 127.703 140.79C135.334 161.928 124.421 185.238 103.328 192.852Z" fill="#FFC905"/>
<mask id="mask2_155_1222" style="mask-type:luminance" maskUnits="userSpaceOnUse" x="48" y="113" width="83" height="83">
<path d="M103.328 192.851C82.2353 200.465 58.95 189.502 51.319 168.363C43.6879 147.224 54.6008 123.915 75.6936 116.3C96.7864 108.686 120.072 119.65 127.703 140.789C135.334 161.928 124.421 185.237 103.328 192.851Z" fill="white"/>
</mask>
<g mask="url(#mask2_155_1222)">
<path d="M129.844 172.554L131.79 163.928L67.0495 116.303L54.874 132.073L129.844 172.554Z" fill="#FDE396"/>
<path d="M128.722 188.281L130.518 179.903L48.9404 149.727L43.1361 165.523L128.722 188.281Z" fill="#FDE396"/>
</g>
<path d="M58.3111 165.839C61.4631 174.309 68.0004 181.234 76.2604 184.86C98.0726 194.452 122.875 179.64 124.46 155.765C125.876 131.4 101.804 113.295 78.8381 121.516C60.8906 127.87 51.5862 147.993 58.3109 165.839L58.3111 165.839ZM60.8295 164.93C55.0821 148.657 63.7432 130.402 79.9442 124.58C101.247 116.887 123.433 132.989 122.787 155.686C122.482 167.582 115.447 178.583 104.664 183.65C87.3665 191.861 67.0831 182.912 60.8289 164.93L60.8295 164.93Z" fill="#C1892C"/>
<path d="M106.907 163.29C106.907 163.29 117.626 164.73 116.598 152.026C115.468 143.639 105.26 132.665 90.2752 136.49C75.2903 140.315 64.8763 149.578 66.7254 161.927C68.5744 174.276 81.2587 177.217 85.9836 171.91C85.9973 171.948 84.5028 176.569 87.1949 177.895C89.887 179.221 93.275 176.888 93.2823 170.666C93.2823 170.666 95.5719 177.446 100.015 174.971C104.457 172.496 101.619 167.261 101.318 166.973C101.318 166.973 104.932 174.027 109.181 169.918C113.429 165.81 106.907 163.291 106.907 163.291L106.907 163.29Z" fill="#D78F20"/>
<path d="M107.274 161.001C107.274 161.001 117.993 162.44 116.965 149.737C115.835 141.35 105.627 130.375 90.6424 134.201C75.6575 138.026 65.2435 147.288 67.0926 159.637C68.9416 171.987 81.6259 174.928 86.3508 169.621C86.3645 169.658 84.87 174.279 87.5621 175.605C90.2542 176.931 93.6422 174.599 93.6494 168.376C93.6494 168.376 95.9391 175.156 100.382 172.681C104.825 170.206 101.986 164.971 101.685 164.683C101.685 164.683 105.299 171.738 109.548 167.629C113.797 163.52 107.274 161.001 107.274 161.001L107.274 161.001Z" fill="#F8AE1B"/>
<path d="M105.919 153.288C102.544 154.506 98.8184 152.752 97.5974 149.37C96.3764 145.988 98.1225 142.258 101.497 141.04C104.872 139.822 108.598 141.576 109.819 144.958C111.04 148.34 109.294 152.07 105.919 153.288Z" fill="#D78F20"/>
<path d="M105.528 153.835C102.153 155.053 98.4278 153.299 97.2068 149.916C95.9858 146.534 97.7319 142.805 101.107 141.586C104.482 140.368 108.207 142.122 109.428 145.504C110.649 148.887 108.903 152.616 105.528 153.835Z" fill="#996929"/>
<path d="M81.6807 162.241C78.3058 163.46 74.5801 161.705 73.3591 158.323C72.1381 154.941 73.8842 151.211 77.2591 149.993C80.634 148.775 84.3597 150.529 85.5806 153.911C86.8016 157.293 85.0555 161.023 81.6807 162.241Z" fill="#D78F20"/>
<path d="M81.29 162.788C77.9152 164.006 74.1895 162.252 72.9685 158.87C71.7475 155.487 73.4936 151.758 76.8685 150.539C80.2434 149.321 83.969 151.075 85.19 154.458C86.411 157.84 84.6649 161.569 81.29 162.788Z" fill="#996929"/>
<path d="M89.5164 159.343C88.6851 159.373 87.972 158.356 87.9237 157.071C87.8753 155.786 88.51 154.72 89.3412 154.69C90.1725 154.66 90.8856 155.677 90.934 156.962C90.9824 158.247 90.3477 159.313 89.5164 159.343Z" fill="#D78F20"/>
<path d="M89.2351 159.802C88.4039 159.832 87.6908 158.815 87.6424 157.53C87.594 156.245 88.2287 155.179 89.06 155.148C89.8913 155.118 90.6044 156.135 90.6527 157.42C90.7011 158.705 90.0664 159.771 89.2351 159.802Z" fill="#996929"/>
<path d="M94.1353 156.121C93.3518 155.101 93.2508 153.863 93.9097 153.356C94.5686 152.848 95.7379 153.263 96.5215 154.282C97.305 155.302 97.406 156.54 96.7471 157.048C96.0882 157.555 94.9189 157.141 94.1353 156.121Z" fill="#D78F20"/>
<path d="M93.6197 155.948C92.8362 154.929 92.7352 153.691 93.3941 153.183C94.053 152.675 95.2223 153.09 96.0058 154.11C96.7894 155.129 96.8904 156.367 96.2315 156.875C95.5726 157.383 94.4032 156.968 93.6197 155.948Z" fill="#996929"/>
</g>
<defs>
<clipPath id="clip0_155_1222">
<rect width="51.2094" height="48.4161" fill="white" transform="matrix(-0.616292 0.787518 0.787518 0.616292 105.276 41.8706)"/>
</clipPath>
<clipPath id="clip1_155_1222">
<rect width="34.2672" height="32.3981" fill="white" transform="matrix(-0.757429 0.652918 0.652918 0.757429 54.3699 22.7964)"/>
</clipPath>
<clipPath id="clip2_155_1222">
<rect width="86.7112" height="81.9815" fill="white" transform="matrix(-0.940589 0.339548 0.339548 0.940589 113.678 101.955)"/>
</clipPath>
</defs>
</svg>
