<svg width="302" height="302" viewBox="0 0 302 302" fill="none" xmlns="http://www.w3.org/2000/svg">
<path d="M26.0482 127.366L152.042 145.247C159.064 146.484 158.097 156.551 150.925 156.402L23.8873 148.948C17.9034 148.598 13.3357 143.462 13.6858 137.478C14.026 131.179 19.8067 126.451 26.0482 127.366Z" fill="#A2664C"/>
<path d="M275.453 174.143L149.459 156.262C142.437 155.025 143.404 144.958 150.576 145.107L277.614 152.561C283.598 152.911 288.165 158.047 287.815 164.031C287.475 170.33 281.694 175.058 275.453 174.143Z" fill="#A2664C"/>
<path d="M127.364 275.458L145.245 149.464C146.482 142.443 156.549 143.409 156.4 150.581L148.946 277.619C148.596 283.603 143.46 288.171 137.47 287.82C131.171 287.48 126.442 281.699 127.358 275.458L127.364 275.458Z" fill="#A2664C"/>
<path d="M174.145 26.0501L156.264 152.044C155.027 159.066 144.96 158.099 145.109 150.927L152.563 23.8891C152.913 17.9053 158.049 13.3376 164.033 13.6877C170.332 14.0278 175.06 19.8085 174.145 26.0501Z" fill="#A2664C"/>
<path d="M49.6028 227.278L148.245 146.877C153.919 142.559 160.659 150.101 155.677 155.265L63.988 243.514C59.6699 247.671 52.7983 247.54 48.635 243.222C44.2375 238.696 44.6929 231.246 49.597 227.277L49.6028 227.278Z" fill="#A2664C"/>
<path d="M253.22 75.8399L154.578 156.241C148.904 160.559 142.164 153.017 147.146 147.853L238.835 59.6044C243.153 55.447 250.025 55.5776 254.188 59.8964C258.585 64.4224 258.13 71.8723 253.226 75.8405L253.22 75.8399Z" fill="#A2664C"/>
<path d="M83.9542 44.0964L156.326 148.772C160.185 154.768 152.136 160.894 147.379 155.519L66.6356 57.1576C62.8299 52.5248 63.503 45.6838 68.1417 41.8787C72.9982 37.8523 80.3952 38.8953 83.96 44.097L83.9542 44.0964Z" fill="#A2664C"/>
<path d="M218.869 259.021L146.496 154.346C142.637 148.35 150.687 142.223 155.444 147.598L236.187 245.96C239.993 250.593 239.32 257.434 234.681 261.239C229.825 265.265 222.428 264.222 218.863 259.02L218.869 259.021Z" fill="#A2664C"/>
<path d="M137.68 281.365C140.345 281.632 142.722 279.688 142.989 277.022C143.256 274.357 141.312 271.98 138.646 271.713C135.981 271.446 133.604 273.391 133.337 276.056C133.07 278.721 135.015 281.098 137.68 281.365Z" fill="#571F10"/>
<path d="M56.2698 240.641C58.9351 240.908 61.3122 238.964 61.579 236.298C61.8459 233.633 59.9016 231.256 57.2362 230.989C54.5709 230.722 52.1938 232.667 51.927 235.332C51.6601 237.997 53.6044 240.374 56.2698 240.641Z" fill="#571F10"/>
<path d="M227.043 257.313C229.709 257.58 232.086 255.636 232.352 252.97C232.619 250.305 230.675 247.928 228.01 247.661C225.344 247.394 222.967 249.338 222.7 252.004C222.434 254.669 224.378 257.046 227.043 257.313Z" fill="#571F10"/>
<path d="M276.035 168.371C278.701 168.638 281.078 166.694 281.345 164.028C281.612 161.363 279.667 158.986 277.002 158.719C274.336 158.452 271.959 160.397 271.693 163.062C271.426 165.727 273.37 168.104 276.035 168.371Z" fill="#571F10"/>
<path d="M245.543 72.5503C248.209 72.8172 250.586 70.8728 250.852 68.2075C251.119 65.5422 249.175 63.1651 246.51 62.8983C243.844 62.6314 241.467 64.5757 241.2 67.2411C240.934 69.9064 242.878 72.2834 245.543 72.5503Z" fill="#571F10"/>
<path d="M163.102 29.8189C165.767 30.0857 168.144 28.1414 168.411 25.476C168.678 22.8107 166.734 20.4337 164.068 20.1668C161.403 19.8999 159.026 21.8443 158.759 24.5096C158.492 27.175 160.436 29.552 163.102 29.8189Z" fill="#571F10"/>
<path d="M74.8128 55.4556C77.4781 55.7224 79.8551 53.7781 80.122 51.1128C80.3889 48.4474 78.4445 46.0704 75.7792 45.8035C73.1138 45.5367 70.7368 47.481 70.4699 50.1463C70.2031 52.8117 72.1474 55.1887 74.8128 55.4556Z" fill="#571F10"/>
<path d="M24.5588 142.255C27.2242 142.522 29.6012 140.577 29.8681 137.912C30.135 135.247 28.1906 132.87 25.5253 132.603C22.8599 132.336 20.4829 134.28 20.216 136.946C19.9492 139.611 21.8935 141.988 24.5588 142.255Z" fill="#571F10"/>
<path d="M160.851 57.2919C109.191 52.1194 63.1194 89.8047 57.9469 141.464C52.7744 193.124 90.4596 239.195 142.119 244.368C193.779 249.54 239.85 211.855 245.023 160.196C250.195 108.536 212.51 62.4644 160.851 57.2919ZM144.567 219.921C106.405 216.1 78.5677 182.068 82.3888 143.906C86.2098 105.744 120.242 77.9063 158.404 81.7273C196.566 85.5484 224.403 119.58 220.582 157.742C216.761 195.904 182.729 223.742 144.567 219.921Z" fill="#CC876A"/>
<path d="M143.362 237.999C95.3248 233.189 60.1597 190.199 64.9695 142.161C69.7793 94.1243 112.775 58.9656 160.806 63.7748C208.838 68.584 244.009 111.575 239.199 159.612C234.389 207.65 191.399 242.815 143.361 238.005L143.362 237.999ZM160.336 68.4717C114.894 63.9217 74.2163 97.1896 69.6658 142.638C65.1152 188.086 98.3837 228.757 143.832 233.308C189.28 237.859 229.952 204.59 234.502 159.142C239.053 113.694 205.784 73.0222 160.336 68.4717Z" fill="#FFC800"/>
<path d="M147.89 179.373C164.099 180.996 178.555 169.172 180.178 152.962C181.801 136.753 169.977 122.297 153.768 120.674C137.558 119.051 123.102 130.876 121.479 147.085C119.856 163.294 131.681 177.75 147.89 179.373Z" fill="#571F10"/>
<path d="M154.603 112.284C133.76 110.197 115.171 125.402 113.085 146.244C110.998 167.086 126.203 185.675 147.045 187.762C167.887 189.849 186.476 174.644 188.563 153.802C190.65 132.959 175.445 114.37 154.603 112.284ZM148.158 176.707C133.422 175.232 122.67 162.088 124.146 147.352C125.621 132.615 138.765 121.864 153.502 123.339C168.238 124.815 178.989 137.959 177.514 152.695C176.038 167.432 162.894 178.183 148.158 176.707Z" fill="#CC876A"/>
<path d="M165.385 143.44C166.125 143.282 170.195 142.308 170.352 142.105C170.816 141.499 169.58 139.329 171.347 137.146C173.107 134.962 176.104 134.705 178.619 135.644C182.872 137.232 180.013 141.5 180.208 141.805C180.295 141.944 182.411 142.6 183.16 143.233C187.91 147.26 180.392 152.052 174.959 148.33C174.243 147.843 173.824 146.574 172.942 146.497C172.537 146.457 165.663 148.49 165.122 148.792C163.565 149.656 161.804 155.457 159.204 156.371C161.924 157.396 167.166 162.321 169.539 162.897C170.894 163.228 170.697 162.176 171.67 161.693C178.031 158.517 184.688 166.827 178.116 169.626C177.379 169.938 176.172 169.793 176.089 169.856C175.522 170.303 176.823 174.187 173.904 175.33C169.479 177.063 164.153 171.264 167.443 167.193C165.583 166.936 157.402 160.045 156.535 160.758C156.372 164.051 153.302 165.748 150.598 163.437C150.134 163.041 149.7 161.871 149.536 161.848C149.202 161.803 148.157 164.13 145.061 163.073C143.49 162.536 143.635 161.198 142.975 160.741C142.798 160.616 141.864 163.256 139.351 162.531C136.239 161.632 137.429 158.157 137.26 157.945C136.855 157.43 128.655 159.793 128.358 160.149C127.785 160.839 128.075 162.682 127.681 163.77C126.54 166.94 120.956 166.797 120.769 163.161C120.721 162.278 121.241 160.397 121.003 159.934C120.854 159.647 118.814 159.466 118.694 157.171C118.573 154.828 119.668 153.13 122.097 152.975C125.916 152.735 126.303 155.976 126.595 156.023C127.038 156.097 134.994 153.514 135.068 153.07C133.184 151.399 132.711 145.161 131.714 144.106C131.451 143.825 128.25 141.921 127.956 141.898C126.996 141.831 127.01 142.817 126.435 143.109C123.278 144.732 118.622 142.547 120.162 138.781C120.743 137.357 123.143 137.14 123.306 136.931C123.785 136.297 123.298 133.402 125.049 132.261C129.09 129.624 133.226 134.574 130.776 138.604C133.657 140.452 133.657 137.197 135.019 135.199C143.889 122.187 164.722 127.445 165.387 143.428L165.385 143.44ZM152.305 146.868C155.756 151.068 161.533 146.618 158.676 141.451C155.579 135.84 148.181 141.853 152.305 146.868ZM140.886 138.431C136.776 139.093 135.937 146.765 140.293 147.142C145.578 147.6 147.324 137.391 140.886 138.431ZM145.173 150.281C146.069 150.869 147.183 149.812 147.65 149.829C148.246 149.853 149.383 151.468 150.268 150.394C151.731 144.124 144.451 144.587 145.173 150.287L145.173 150.281Z" fill="#FEFEFE"/>
</svg>
