<svg width="260" height="466" viewBox="0 0 260 466" fill="none" xmlns="http://www.w3.org/2000/svg">
<g clip-path="url(#clip0_149_1033)">
<path d="M124.554 76.9481C125.204 77.7313 147.374 60.9238 147.374 60.9238C147.374 60.9238 129.026 47.6968 117.83 41.8913C109.557 37.6002 105.173 36.1487 92.9789 36.5044C85.9831 36.7069 79.8682 32.8883 75.8477 32.6862C75.8477 32.6862 69.7533 40.1383 69.8652 49.256C64.1686 48.1079 61.5316 33.1708 61.5316 33.1708L47.467 38.1771L54.1314 54.1679C55.2737 56.9156 56.8372 59.4638 58.7535 61.7362L65.5444 69.7691" fill="black"/>
<path d="M212.393 290.536C212.393 290.536 138.426 303.172 108.092 239.687C106.815 237.013 96.5748 215.008 95.5615 212.218C90.3443 197.819 82.343 161.281 84.5284 127.341L84.7017 126.496C85.5696 122.877 73.016 66.9405 73.016 66.9405C73.016 66.9405 118.778 47.7715 149.644 110.04C180.51 172.309 225.624 267.912 225.624 267.912L212.387 290.537L212.393 290.536Z" fill="#CC2222"/>
<mask id="mask0_149_1033" style="mask-type:luminance" maskUnits="userSpaceOnUse" x="73" y="64" width="153" height="228">
<path d="M212.393 290.536C212.393 290.536 138.426 303.172 108.092 239.687C106.815 237.013 96.5748 215.008 95.5615 212.218C90.3443 197.819 82.343 161.281 84.5284 127.341L84.7017 126.496C85.5696 122.877 73.016 66.9405 73.016 66.9405C73.016 66.9405 118.778 47.7715 149.644 110.04C180.51 172.309 225.624 267.912 225.624 267.912L212.387 290.537L212.393 290.536Z" fill="white"/>
</mask>
<g mask="url(#mask0_149_1033)">
<path d="M210.7 302.002C239.813 291.893 248.844 241.715 230.872 189.927C212.9 138.139 174.731 104.352 145.619 114.461C116.506 124.57 107.475 174.748 125.447 226.536C143.419 278.324 181.588 312.111 210.7 302.002Z" fill="#9B1717"/>
</g>
<path d="M75.6981 79.9365C75.6981 79.9365 93.8566 74.0446 102.513 81.1324C111.168 88.2201 116.236 102.081 111.144 111.579C106.053 121.078 96.019 125.431 84.6088 126.777L75.7039 79.9354L75.6981 79.9365Z" fill="#FBFDE7"/>
<path d="M136.292 190.331C135.729 188.374 135.15 186.426 134.486 184.5C130.711 173.609 119.837 138.924 128.719 123.968C139.328 106.114 151.543 104.704 176.995 123.321C202.448 141.938 234.613 202.23 239.378 225.693C244.142 249.155 252.484 291.433 251.422 298.644C251.422 298.644 197.735 277.634 179.206 256.675C178.021 255.337 176.829 254.018 175.599 252.725C167.567 244.278 141.612 208.815 136.299 190.336L136.292 190.331Z" fill="#12228B"/>
<mask id="mask1_149_1033" style="mask-type:luminance" maskUnits="userSpaceOnUse" x="125" y="109" width="127" height="190">
<path d="M136.292 190.331C135.729 188.374 135.15 186.426 134.486 184.5C130.711 173.609 119.837 138.924 128.719 123.968C139.328 106.114 151.543 104.704 176.995 123.321C202.448 141.938 234.613 202.23 239.378 225.693C244.142 249.155 252.484 291.433 251.422 298.644C251.422 298.644 197.735 277.634 179.206 256.675C178.021 255.337 176.829 254.018 175.599 252.725C167.567 244.278 141.612 208.815 136.299 190.336L136.292 190.331Z" fill="white"/>
</mask>
<g mask="url(#mask1_149_1033)">
<path d="M239.09 255.667C258.723 246.477 259.901 207.513 241.72 168.639C223.54 129.765 192.885 105.701 173.252 114.891C153.619 124.081 152.441 163.044 170.622 201.919C188.803 240.793 219.457 264.857 239.09 255.667Z" fill="#091355"/>
</g>
<path d="M280.819 235.485L284.564 255.181C284.564 255.181 124.304 294.482 107.507 290.976C107.213 291.032 92.7166 310.855 92.7166 310.855L85.9604 305.733L92.4836 292.007L70.8679 295.204L68.24 281.38C68.24 281.38 76.1485 279.99 88.9729 277.648L69.4395 253.95L72.5653 250.481L79.347 258.151L83.866 244.294L88.0134 245.539L82.8325 262.72L94.4979 276.639C144.231 267.506 249.93 247.347 280.819 235.485Z" fill="#825440"/>
<path d="M128.512 283.022C128.512 283.022 131.857 287.26 137.946 286.204C138.356 286.228 123.965 269.797 144.577 267.184C144.577 267.184 132.925 258.728 121.306 267.534C119.554 268.983 116.344 275.582 120.289 281.943C120.708 283.08 125.031 287.132 129.294 287.133C130.174 286.966 129.005 286.681 128.511 283.017L128.512 283.022Z" fill="#091355"/>
<path d="M164.891 277.424C164.891 277.424 168.236 281.661 174.325 280.605C174.735 280.629 160.344 264.198 180.956 261.586C180.956 261.586 169.304 253.129 157.685 261.936C155.933 263.384 152.723 269.984 156.668 276.344C157.087 277.482 161.41 281.533 165.673 281.534C166.553 281.367 165.384 281.082 164.89 277.418L164.891 277.424Z" fill="#091355"/>
<path d="M93.9327 302.153C93.9327 302.153 112.899 305.026 108.981 323.518C108.981 323.518 101.688 325.578 97.0548 319.486C97.0548 319.486 90.7621 311.125 93.9327 302.153Z" fill="#48D673"/>
<path d="M85.6313 230.159C85.6313 230.159 96.3499 241.544 84.5471 251.423C84.5471 251.423 78.8318 249.079 78.9272 242.839C78.9272 242.839 79.0946 234.313 85.6371 230.158L85.6313 230.159Z" fill="#48D673"/>
<path d="M43.7508 224.659C43.7508 224.659 42.9544 256.844 74.8452 256.741C74.8452 256.741 77.8712 250.081 74.699 241.861C72.5169 236.215 68.0146 231.786 62.4947 229.31C57.4312 227.039 49.5965 224.114 43.7518 224.664L43.7508 224.659Z" fill="#48D673"/>
<path d="M73.7807 288.296C73.7807 288.296 73.3697 311.502 50.5911 309.742C50.5911 309.742 46.9579 301.323 53.5203 294.796C53.5203 294.796 62.533 285.918 73.7865 288.295L73.7807 288.296Z" fill="#48D673"/>
<path d="M73.8988 284.779C73.8988 284.779 54.4878 288.284 51.5603 268.934C51.5603 268.934 55.3072 266.474 60.5822 267.631C64.2078 268.421 67.3137 270.742 69.3301 273.854C71.1789 276.712 73.6868 281.186 73.8999 284.785L73.8988 284.779Z" fill="#48D673"/>
<path d="M225.189 286.471C229.674 299.965 248.119 355.283 261.283 391.729C262.272 393.044 270.426 408.465 277.457 407.32C278.473 407.425 282.113 407.508 283.409 404.041C270.568 371.96 248.327 315.52 239.523 293.166C235.071 291.101 229.944 288.717 225.184 286.472L225.189 286.471Z" fill="#CC2222"/>
<path d="M209.863 278.975C209.863 278.975 232.542 387.731 249.722 394.314C251.156 395.461 257.086 398.903 261.187 391.627C261.198 391.625 261.235 391.66 261.284 391.728C248.114 355.284 229.669 299.966 225.19 286.471C218.118 283.138 211.858 280.123 209.863 278.975Z" fill="#12228B"/>
<path d="M251.419 298.647C251.419 298.647 246.247 296.278 239.527 293.165C248.332 315.52 270.572 371.959 283.413 404.04C283.441 403.969 283.472 403.909 283.493 403.834C283.493 403.834 296.22 424.87 303.552 422.361C305.112 422.571 310.613 421.627 308.407 407.324C308.407 407.324 266.284 310.645 251.419 298.647Z" fill="#FFC800"/>
<path d="M87.5865 91.0016C89.4448 90.6483 90.6647 88.8544 90.3112 86.9947C89.9576 85.1351 88.1646 83.914 86.3062 84.2672C84.4479 84.6205 83.228 86.4144 83.5815 88.2741C83.9351 90.1337 85.7281 91.3548 87.5865 91.0016Z" fill="black"/>
<path d="M33.5215 124.926C33.5215 124.926 16.2343 100.188 29.6988 82.3982C43.1633 64.6089 73.7964 66.7013 73.7964 66.7013L80.8757 103.94C80.8757 103.94 48.9603 108.993 47.9822 109.179C47.0041 109.365 37.4544 110.369 33.5215 124.926Z" fill="#FFC800"/>
<path d="M45.7979 109.663C45.7979 109.663 49.6013 133.588 85.5655 126.346L81.0849 103.843L45.7979 109.663Z" fill="black"/>
</g>
<defs>
<clipPath id="clip0_149_1033">
<rect width="240.274" height="427.687" fill="white" transform="translate(0 44.8742) rotate(-10.7639)"/>
</clipPath>
</defs>
</svg>
