<svg width="235" height="260" viewBox="0 0 235 260" fill="none" xmlns="http://www.w3.org/2000/svg">
<g clip-path="url(#clip0_152_1067)">
<path d="M227.1 188.036C227.1 188.036 130.917 178.76 72.0074 91.9214C72.0074 91.9214 55.0352 109.537 37.4725 110.942C37.4725 110.942 70.1179 200.943 130.547 218.381C190.975 235.819 212.462 208.299 227.1 188.036Z" fill="#EAEAEA"/>
<path d="M227.016 188.075C227.016 188.075 176.788 218.605 130.008 190.532C83.2289 162.458 53.4006 112.179 51.639 103.482C51.639 103.482 63.7924 100.743 71.5466 91.6402C71.5466 91.6402 120.35 162.674 227.016 188.075Z" fill="#D1D1D1"/>
<path d="M41.9455 17.179C51.8057 25.5786 53.9781 39.6418 47.7704 50.4803L63.4504 81.5029L34.5864 99.2438L17.6757 62.8742C14.0703 61.8796 10.6193 60.102 7.58346 57.5159C-3.55439 48.0278 -4.89167 31.3088 4.5964 20.171C14.0845 9.03311 30.8077 7.69088 41.9455 17.179ZM21.1821 44.111C24.6041 47.0262 29.74 46.6154 32.6552 43.1933C35.5704 39.7712 35.1596 34.6354 31.7375 31.7202C28.3154 28.805 23.1796 29.2158 20.2644 32.6379C17.3492 36.0599 17.76 41.1958 21.1821 44.111Z" fill="#CC876A"/>
<path d="M88.7433 79.7703C88.7433 79.7703 86.2233 92.4598 73.4412 100.552C60.9577 108.455 42.2687 121.685 21.2596 116.12C19.5244 115.659 18.0108 114.506 17.2839 112.862C16.3439 110.745 16.437 107.465 21.0894 103.087C27.8102 98.7795 78.4828 70.8074 83.677 72.3948C88.8711 73.9822 89.141 78.2802 88.7476 79.7653L88.7433 79.7703Z" fill="#FFC800"/>
<mask id="mask0_152_1067" style="mask-type:luminance" maskUnits="userSpaceOnUse" x="16" y="72" width="73" height="46">
<path d="M88.7433 79.7703C88.7433 79.7703 86.2233 92.4598 73.4412 100.552C60.9577 108.455 42.2687 121.685 21.2596 116.12C19.5244 115.659 18.0108 114.506 17.2839 112.862C16.3439 110.745 16.437 107.465 21.0894 103.087C27.8102 98.7795 78.4828 70.8074 83.677 72.3948C88.8711 73.9822 89.141 78.2802 88.7476 79.7653L88.7433 79.7703Z" fill="white"/>
</mask>
<g mask="url(#mask0_152_1067)">
<path d="M25.7347 127.549C22.2749 122.638 32.9596 109.154 49.5996 97.4316C66.2396 85.7094 82.5336 80.188 85.9934 85.0993C89.4531 90.0105 78.7684 103.495 62.1285 115.217C45.4885 126.939 29.1944 132.46 25.7347 127.549Z" fill="#DAAD3C"/>
</g>
<path d="M32.7165 95.0599L59.5385 73.6564L55.459 65.6944L31.5255 73.0728L51.1527 57.2059L47.7719 50.4801L16.0403 62.4879L17.6772 62.8739L19.3656 66.5L44.6241 55.3791L22.812 73.9312L25.4301 79.5459L53.0934 71.6614L30.3194 90.189L32.7165 95.0599Z" fill="#825440"/>
</g>
<defs>
<clipPath id="clip0_152_1067">
<rect width="278.925" height="103.454" fill="white" transform="matrix(-0.761234 -0.648477 -0.648477 0.761234 234.109 180.877)"/>
</clipPath>
</defs>
</svg>
