<svg width="74" height="35" viewBox="0 0 74 35" fill="none" xmlns="http://www.w3.org/2000/svg">
<g clip-path="url(#clip0_1012_12684)">
<path d="M55.043 24.472C55.043 24.472 57.7384 27.7226 60.3154 25.169C60.3154 25.169 65.2361 27.3741 66.408 23.8922C66.408 23.8922 71.0937 24.8205 71.212 19.3647C71.212 19.3647 75.6644 17.855 73.3207 10.4254C70.977 6.59493 64.8861 -0.254912 55.278 2.41435L55.043 24.472Z" fill="#ED6E84"/>
<path d="M24.5625 0.105144C24.5625 0.105144 25.948 9.44347 37.244 10.3359C46.4609 10.3359 51.0825 7.71554 51.0135 0.574178C51.0135 0.574178 47.7774 4.91111 42.9963 5.66677C38.9072 6.42244 30.9131 7.36702 26.3211 1.82331C25.9743 1.36404 25.6998 0.14423 24.5641 0.103516L24.5625 0.105144Z" fill="#ED6E84"/>
<path d="M17.5039 21.4717L19.8476 31.5723C19.8476 31.5723 40.4673 38.8862 54.2911 32.152C54.2911 32.152 61.2038 9.28176 56.3997 1.85214C56.3997 1.85214 53.3543 -0.121714 51.0106 0.575322C51.0106 0.575322 51.8307 8.93324 40.1156 9.63028C28.4005 10.3273 24.5333 1.03947 24.5333 0.109545C24.5333 0.109545 20.6677 -0.470232 18.7924 1.03784C18.7924 1.03784 24.2983 17.6397 17.5039 21.4701V21.4717Z" fill="#F3C4CC"/>
<path d="M19.4455 0.597323C19.4455 0.597323 6.77223 -2.51491 1.01165 8.17352C-1.39776 14.1928 1.01165 17.6177 2.89679 17.7219C2.89679 17.7219 2.47768 23.0148 7.29488 21.9774C7.29488 21.9774 9.39038 25.7134 12.9503 23.6386C12.9503 23.6386 18.816 26.2329 18.816 20.94C18.816 20.94 23.0054 19.2789 21.9585 9.93891C20.9115 3.81541 19.7594 1.4279 19.4455 0.598951V0.597323Z" fill="#ED6E84"/>
</g>
<defs>
<clipPath id="clip0_1012_12684">
<rect width="74" height="35" fill="white"/>
</clipPath>
</defs>
</svg>
