<svg width="67" height="50" viewBox="0 0 67 50" fill="none" xmlns="http://www.w3.org/2000/svg">
<g clip-path="url(#clip0_1012_12675)">
<path d="M66.7115 19.1704C66.7077 19.6816 66.4481 20.1583 66.1693 20.5888C64.4243 23.3142 61.7438 25.4245 58.6929 26.474C58.1927 26.6469 57.6734 26.793 57.1465 26.7738C55.1304 26.7007 54.0116 24.452 53.3281 22.5416C52.2093 27.0236 51.0867 31.7479 52.0566 36.2223C52.133 36.5683 52.2208 36.9142 52.3201 37.2563C52.6026 38.225 52.9921 39.1668 53.4159 40.097C54.7066 42.9531 56.3217 45.7131 56.2263 48.8037C40.9947 49.7993 25.7021 49.8108 10.4744 48.8306C10.3828 45.7323 12.0056 42.9647 13.3 40.097C13.7162 39.1783 14.1019 38.2481 14.3806 37.2909C14.4837 36.9373 14.5754 36.5798 14.6479 36.2223C15.6025 31.7633 14.4875 27.0544 13.3688 22.5877C12.6929 24.4905 11.5856 26.7353 9.57711 26.8122C9.05399 26.8353 8.53851 26.6931 8.04212 26.5239C4.99505 25.4899 2.31455 23.4026 0.550455 20.6964C0.260258 20.2544 -0.0146655 19.7623 0.000608009 19.2319C0.0120632 18.7821 0.225892 18.367 0.447359 17.9787C5.71291 8.51484 14.3119 0.108036 25.7021 0.000404484C26.2749 -0.0034395 26.8667 0.0157804 27.3899 0.250264C28.1039 0.573159 28.585 1.25354 29.1539 1.80324C31.151 3.74061 34.5722 3.95587 36.7945 2.28373C37.5391 1.71867 38.1615 0.976778 38.9977 0.561627C39.6087 0.257952 40.296 0.154164 40.9718 0.0926602C46.3061 -0.376306 51.6175 1.86474 55.7948 5.23976C56.715 5.98165 57.5856 6.77736 58.418 7.61535C61.362 10.5752 63.8019 14.054 66.0815 17.579C66.3946 18.0633 66.7154 18.5899 66.7115 19.1704Z" fill="#5B88D8"/>
<path d="M53.4167 40.0974H13.3008C13.717 39.1787 14.1026 38.2484 14.3814 37.2913C14.4845 36.9376 14.5761 36.5801 14.6487 36.2227H52.0573C52.1337 36.5686 52.2215 36.9146 52.3208 37.2567C52.6034 38.2254 52.9928 39.1671 53.4167 40.0974Z" fill="#295189"/>
</g>
<defs>
<clipPath id="clip0_1012_12675">
<rect width="66.7109" height="49.5567" fill="white"/>
</clipPath>
</defs>
</svg>
