<svg width="63" height="40" viewBox="0 0 63 40" fill="none" xmlns="http://www.w3.org/2000/svg">
<g clip-path="url(#clip0_1011_12619)">
<path d="M53.1373 37.4696C53.5106 34.6758 48.0888 27.3499 48.0888 27.3499C48.0888 27.3499 50.2094 36.6755 48.6948 37.4696C47.1801 38.2636 28.8049 43.0252 15.3775 36.9737C15.3775 36.9737 14.6709 36.5767 14.9735 34.5925C15.2761 32.6082 15.2761 27.648 15.2761 27.648C15.2761 27.648 10.8128 34.4242 10.531 38.3624C10.3365 41.0778 -0.654266 37.5267 0.0307337 34.8898C1.19706 30.3985 6.37779 21.1815 9.713 14.4046C11.2617 11.2587 12.3749 7.6995 14.6452 4.90246C15.8148 3.46146 17.253 2.36764 19.0012 1.69207C19.623 1.45108 22.1444 0.256785 23.2816 0.353178C23.3049 0.354812 23.3274 0.35808 23.349 0.36053C23.3897 0.366249 23.4288 0.373601 23.4654 0.383403C23.5926 0.416896 23.6923 0.474896 23.7572 0.56312C23.7572 0.56312 24.2044 1.16762 24.9243 1.97144C24.9251 1.97144 24.926 1.97308 24.9268 1.9739C24.9268 1.97471 24.9276 1.97471 24.9276 1.97553C25.7332 2.87248 26.8779 4.01695 28.1182 4.84201C29.1016 5.49634 30.1458 5.94972 31.1275 5.92031C34.4104 5.8231 38.9693 3.31605 39.9694 1.24931C39.9843 1.21909 39.9985 1.18886 40.0118 1.15864C40.0275 1.12106 40.0591 1.09083 40.104 1.06959C40.1647 1.04019 40.2512 1.0263 40.3584 1.02548C41.7475 1.01323 46.7088 3.21966 47.255 3.61095C49.1437 4.96454 49.8819 7.16444 50.8853 9.15194C53.0492 13.4398 55.1524 17.7563 57.254 22.0744C59.1211 25.9121 63.9668 29.6241 62.8296 33.5999C62.1221 36.0743 52.7599 40.296 53.1373 37.4696Z" fill="#A73E1F"/>
<path d="M24.2821 0.410077C24.2821 0.410077 18.3698 -0.562843 17.6324 0.488499C16.8951 1.53984 16.649 4.45043 20.0906 4.7731C20.0906 4.7731 17.7147 8.08806 20.1729 10.2708C22.5488 11.6456 25.6629 10.1091 26.0727 9.46207C26.0727 9.46207 25.8266 12.6153 28.9407 12.6153C30.9076 12.6962 32.8737 12.3727 33.2835 10.0282C33.2835 10.0282 35.6594 12.13 39.0187 11.1604C42.378 10.1907 40.0836 6.71404 40.0836 6.71404C40.0836 6.71404 44.1803 7.28015 45 5.82445C45.8197 4.36956 44.7539 2.50949 44.0165 2.50949C44.0165 2.50949 45.4098 3.0756 45.9834 2.10513C45.9834 2.10513 46.7208 0.245881 39.6746 0.488499C39.6746 0.488499 33.9643 5.50586 24.2837 0.410077H24.2821Z" fill="#FBD593"/>
</g>
<defs>
<clipPath id="clip0_1011_12619">
<rect width="63" height="40" fill="white"/>
</clipPath>
</defs>
</svg>
