<svg width="66" height="51" viewBox="0 0 66 51" fill="none" xmlns="http://www.w3.org/2000/svg">
<g clip-path="url(#clip0_1011_12647)">
<path d="M-0.0705464 21.4412C-0.0705464 21.4412 5.93001 9.81825 13.5537 5.52087C21.1775 1.2235 26.6786 2.86748 26.6786 2.86748C26.6786 2.86748 32.5543 10.5901 39.4289 2.55947C39.4289 2.55947 50.0565 2.11043 54.9297 7.66956C59.8029 13.2287 66.3065 19.7972 65.0543 22.1982C63.8057 24.5993 57.4269 29.0191 55.0546 28.0097C55.0546 28.0097 52.4289 25.2302 52.4289 24.4731C52.4289 24.4731 50.6772 37.1055 51.9294 39.885C53.1817 42.6646 55.0546 47.4667 54.4303 49.7378C53.806 52.0127 10.5498 50.1163 10.0504 49.7378C9.55092 49.3593 11.5523 42.2824 13.6749 39.6327C15.7975 36.983 12.9258 24.3469 12.9258 24.3469C12.9258 24.3469 11.1741 28.2621 9.67577 28.6406C8.17747 29.0191 1.92352 26.2396 -0.0742188 21.4412H-0.0705464Z" fill="#C5BEB6"/>
<mask id="mask0_1011_12647" style="mask-type:luminance" maskUnits="userSpaceOnUse" x="-1" y="2" width="67" height="49">
<path d="M-0.0705464 21.4412C-0.0705464 21.4412 5.93001 9.81825 13.5537 5.52087C21.1775 1.2235 26.6786 2.86748 26.6786 2.86748C26.6786 2.86748 32.5543 10.5901 39.4289 2.55947C39.4289 2.55947 50.0565 2.11043 54.9297 7.66956C59.8029 13.2287 66.3065 19.7972 65.0543 22.1982C63.8057 24.5993 57.4269 29.0191 55.0546 28.0097C55.0546 28.0097 52.4289 25.2302 52.4289 24.4731C52.4289 24.4731 50.6772 37.1055 51.9294 39.885C53.1817 42.6646 55.0546 47.4667 54.4303 49.7378C53.806 52.0127 10.5498 50.1163 10.0504 49.7378C9.55092 49.3593 11.5523 42.2824 13.6749 39.6327C15.7975 36.983 12.9258 24.3469 12.9258 24.3469C12.9258 24.3469 11.1741 28.2621 9.67577 28.6406C8.17747 29.0191 1.92352 26.2396 -0.0742188 21.4412H-0.0705464Z" fill="white"/>
</mask>
<g mask="url(#mask0_1011_12647)">
<path d="M61.4801 6.98438H3.09766V14.0576H61.4801V6.98438Z" fill="#C5BEB6"/>
<path d="M63.359 33.7656H4.97656V43.8708H63.359V33.7656Z" fill="#C5BEB6"/>
<path d="M79.2338 17.7246H-1.28906V22.779H79.2338V17.7246Z" fill="#C5BEB6"/>
<path d="M76.4838 26.6973H-4.03906V29.3507H76.4838V26.6973Z" fill="#C5BEB6"/>
</g>
<path d="M28.0411 0.92732C24.6663 0.0403835 14.2883 -1.94873 8.95242 5.40283C8.32078 6.27121 8.30242 7.44389 8.87163 8.36794C9.96598 10.1418 12.0261 13.029 14.5307 14.3761C15.3055 14.7955 16.2346 14.8214 17.0205 14.4355C19.8555 13.0476 27.325 8.83553 28.9151 2.40431C29.073 1.75859 28.6948 1.09803 28.0448 0.92732H28.0411Z" fill="#ACA093"/>
<path d="M37.8785 1.24568C41.2534 0.358743 51.6313 -1.63037 56.9672 5.72119C57.5989 6.58957 57.6172 7.76225 57.048 8.6863C55.9537 10.4602 53.8935 13.3474 51.389 14.6945C50.6141 15.1138 49.685 15.1398 48.8991 14.7538C46.0641 13.3659 38.5946 9.15389 37.0045 2.72267C36.8466 2.07695 37.2249 1.41639 37.8749 1.24568H37.8785Z" fill="#ACA093"/>
<path d="M13.3671 4.73457C13.3194 5.98519 12.8824 7.24694 11.9423 8.09677L11.6044 7.95204C11.5603 7.29519 11.7366 6.70884 11.9937 6.12992C12.2544 5.56213 12.5666 5.03146 13.0329 4.58984L13.3708 4.73457H13.3671Z" fill="#665F58"/>
<path d="M17.5447 4.18418C17.6806 5.56098 17.4088 6.91179 16.891 8.17354C16.7074 8.58547 16.4908 8.98997 16.1676 9.36478L15.8114 9.2683C15.7196 8.77844 15.7306 8.32198 15.7783 7.86924C15.9583 6.51471 16.3916 5.20843 17.1885 4.08398L17.5447 4.18047V4.18418Z" fill="#665F58"/>
<path d="M22.6419 3.06055C22.7521 4.83442 22.1462 6.48583 21.2024 7.93685C20.8792 8.40815 20.5083 8.85718 19.9979 9.24684L19.6527 9.0984C19.5095 7.31339 20.1558 5.67683 21.1032 4.22582C21.4301 3.75823 21.7973 3.30548 22.2967 2.91211L22.6419 3.06055Z" fill="#665F58"/>
<path d="M51.4861 5.11719C52.3491 6.01155 52.9514 7.2065 52.911 8.47938L52.5731 8.62411C52.07 8.20477 51.7726 7.67038 51.5339 7.08403C51.3062 6.49769 51.1409 5.90764 51.1446 5.26192L51.4824 5.11719H51.4861Z" fill="#665F58"/>
<path d="M47.3207 4.61914C48.1176 5.73987 48.5509 7.04987 48.7308 8.40439C48.7749 8.85343 48.7896 9.3136 48.6978 9.80345L48.3416 9.89994C48.0184 9.52513 47.8054 9.12062 47.6181 8.7087C47.1003 7.44695 46.8286 6.09613 46.9644 4.71934L47.3207 4.62285V4.61914Z" fill="#665F58"/>
<path d="M42.2136 3.43555C43.5687 4.57112 44.3435 6.14831 44.7401 7.84054C44.8577 8.40091 44.9274 8.98354 44.8576 9.62555L44.5125 9.77399C43.128 8.65697 42.3935 7.05751 41.9969 5.36528C41.8831 4.80121 41.8096 4.22229 41.8684 3.58399L42.2136 3.43555Z" fill="#665F58"/>
<path d="M18.5664 20.0348C26.6528 19.2852 34.8127 18.9586 42.9138 19.6229C44.0633 19.7528 45.2788 19.8901 46.3915 20.2538L46.2814 20.6063C44.0119 20.2872 41.6983 20.4096 39.4105 20.3948C35.3232 20.4282 29.565 20.5024 25.5328 20.495C23.2192 20.495 20.8983 20.469 18.5811 20.4022L18.5664 20.0311V20.0348Z" fill="#665F58"/>
<path d="M18.9844 25.5192C27.0708 24.7696 35.2307 24.443 43.3318 25.1073C44.4813 25.2372 45.6968 25.3745 46.8095 25.7382L46.6993 26.0907C44.4298 25.7716 42.1163 25.894 39.8284 25.8792C35.7411 25.9126 29.983 25.9868 25.9508 25.9794C23.6372 25.9794 21.3163 25.9534 18.9991 25.8866L18.9844 25.5155V25.5192Z" fill="#665F58"/>
<path d="M18.7734 33.5348C26.8599 32.7852 35.0198 32.4586 43.1209 33.1229C44.2703 33.2528 45.4858 33.3901 46.5986 33.7538L46.4884 34.1063C44.2189 33.7872 41.9053 33.9096 39.6175 33.8948C35.5302 33.9282 29.772 34.0024 25.7398 33.995C23.4263 33.995 21.1054 33.969 18.7881 33.9022L18.7734 33.5311V33.5348Z" fill="#665F58"/>
<path d="M16.5818 44.3981C26.1298 43.6485 35.7403 43.3219 45.303 43.9862C46.658 44.1198 48.0829 44.2534 49.4049 44.6171L49.3095 44.977C46.6176 44.6505 43.8818 44.7804 41.1753 44.7655C36.3499 44.7989 29.5524 44.8731 24.7931 44.8657C22.0609 44.8657 19.325 44.8397 16.5891 44.7729L16.5781 44.4018L16.5818 44.3981Z" fill="#665F58"/>
</g>
<defs>
<clipPath id="clip0_1011_12647">
<rect width="65.3672" height="50.8411" fill="white"/>
</clipPath>
</defs>
</svg>
