<svg width="73" height="66" viewBox="0 0 73 66" fill="none" xmlns="http://www.w3.org/2000/svg">
<g clip-path="url(#clip0_989_9087)">
<path d="M5.73474 23.0854C5.73474 23.0854 11.9972 35.7268 16.5202 37.1123C16.5202 37.1123 18.7413 37.2116 22.4886 34.1705L32.4471 47.7228C32.4471 47.7228 47.0697 51.3926 53.9086 50.6152L58.0458 23.9182C58.0458 23.9182 66.7075 27.4406 69.5102 27.0017C69.5102 27.0017 72.231 15.9556 69.7194 11.0865C69.7194 11.0865 50.6846 9.84465 49.7178 8.43701C49.7178 8.43701 50.9807 16.1849 41.141 15.1811C41.141 15.1811 34.9412 14.4395 34.1632 9.78784C34.1632 9.78784 18.0445 8.29668 5.7333 23.0931L5.73474 23.0854Z" fill="#4F6153"/>
<path d="M24.7146 10.6238C24.7146 10.6238 30.7906 25.0046 25.1792 30.9306C19.5678 36.8565 12.2495 50.5288 13.5086 51.8543C14.7676 53.1797 30.1297 60.9521 31.2403 59.3803C32.3508 57.8084 44.3468 24.1056 31.2415 10.0574C31.2415 10.0574 26.2943 8.72968 24.7146 10.6238Z" fill="#FF99BB"/>
<path d="M51.4824 8.48658C51.4824 8.48658 50.6534 60.7984 51.6598 61.2581C52.6661 61.7179 64.1085 58.239 64.2767 55.1276C64.4449 52.0162 55.9753 9.32063 55.9753 9.32063C55.9753 9.32063 54.6957 8.12784 51.4863 8.4873L51.4824 8.48658Z" fill="#FF99BB"/>
</g>
<defs>
<clipPath id="clip0_989_9087">
<rect width="63.4703" height="54.8874" fill="white" transform="translate(10.0195) rotate(10.5166)"/>
</clipPath>
</defs>
</svg>
