<svg width="65" height="37" viewBox="0 0 65 37" fill="none" xmlns="http://www.w3.org/2000/svg">
<g clip-path="url(#clip0_1024_7118)">
<path d="M11.2969 20.387C11.2969 20.387 14.7356 1.73694 34.8986 1.85801C55.0616 1.97908 54.4687 22.203 54.4687 22.203C54.4687 22.203 28.2583 29.7093 11.2969 20.387Z" fill="#A39D3F"/>
<path d="M54.4726 21.1293C54.4726 21.1293 50.8019 22.9138 44.306 23.9402C44.0379 15.7128 37.3049 4.81647 36.0934 2.92147C36.4645 2.61616 36.6862 2.2319 36.6862 1.81605C36.6862 0.810642 35.4128 0 33.8404 0C32.268 0 30.9946 0.815906 30.9946 1.81605C30.9946 2.17926 31.1647 2.52141 31.4534 2.80566C30.2522 4.68488 23.6532 15.3706 23.2563 23.5612C19.5237 22.8927 15.5282 21.8715 11.2956 20.3818L0 30.7096C0 30.7096 33.0362 45.2749 65 30.078L54.4726 21.1293ZM24.2822 23.735C24.607 15.8549 31.2524 5.06388 32.3402 3.35311C32.7784 3.52682 33.2939 3.6321 33.8456 3.6321C34.3302 3.6321 34.7839 3.55314 35.1808 3.42154C36.1655 4.96913 43.079 16.1128 43.2852 24.0929C38.3308 24.7825 31.8917 24.9878 24.2822 23.7402V23.735Z" fill="#847D2E"/>
<path d="M40.1719 31.2468C29.1805 31.2468 16.7919 28.2569 16.0341 28.0674C15.4825 27.9305 15.137 27.362 15.2711 26.7988C15.4051 26.2356 15.9619 25.8829 16.5136 26.0197C16.7816 26.0829 43.3683 32.5101 52.4986 26.7514C52.9833 26.4461 53.6174 26.5988 53.9164 27.0936C54.2154 27.5884 54.0659 28.2358 53.5813 28.5412C50.3849 30.552 45.4357 31.2415 40.1668 31.2415L40.1719 31.2468Z" fill="#9F9B41"/>
</g>
<defs>
<clipPath id="clip0_1024_7118">
<rect width="65" height="37" fill="white"/>
</clipPath>
</defs>
</svg>
