<svg width="68" height="63" viewBox="0 0 68 63" fill="none" xmlns="http://www.w3.org/2000/svg">
<g clip-path="url(#clip0_989_9564)">
<path d="M-0.649341 37.354C-0.649341 37.354 -0.856685 13.1418 18.8016 10.6255C38.4599 8.10927 46.832 17.3458 48.962 29.4203C48.962 29.4203 50.2922 29.1693 50.9904 30.4607C50.9904 30.4607 57.6316 25.7152 69.4084 34.4287C69.4084 34.4287 64.634 38.6295 57.993 37.6499C57.993 37.6499 63.5979 46.1549 63.8181 50.2593C63.8181 50.2593 49.734 48.4376 48.8107 35.471C48.8107 35.471 47.205 35.3098 47.0644 34.7502C47.0644 34.7502 24.4119 45.7079 -0.64955 37.3516L-0.649341 37.354Z" fill="#DB282D"/>
</g>
<defs>
<clipPath id="clip0_989_9564">
<rect width="67.4111" height="61.5553" fill="white" transform="translate(0 0.560547) rotate(-0.476053)"/>
</clipPath>
</defs>
</svg>
