<svg width="74" height="38" viewBox="0 0 74 38" fill="none" xmlns="http://www.w3.org/2000/svg">
<g clip-path="url(#clip0_1025_7182)">
<path d="M10.2948 24.0134C10.2948 24.0134 14.9773 -0.567139 33.0267 2.69695C51.078 5.96105 56.7504 8.14316 59.8026 22.8534L10.293 24.0134H10.2948Z" fill="#FFE166"/>
<path d="M8.82525 26.4551L0 37.638L74 37.9992C74 37.9992 67.0155 28.374 61.1766 27.007L8.82525 26.4551Z" fill="#FFE166"/>
<path d="M9.49485 23.7317L8.375 26.8033L61.3119 26.9849C61.3119 26.9849 60.9148 23.2833 60.2853 22.666L9.49485 23.7317Z" fill="#DB282D"/>
<path d="M27.1144 26.4127C25.8664 19.3435 27.7219 13.3128 29.4986 9.49861C31.4236 5.36676 33.6798 2.86513 33.7017 2.83972L33.8426 2.68359L34.0311 2.77981C41.7109 6.7156 45.3541 12.7464 47.0576 17.1106C48.9039 21.8397 48.9332 25.5813 48.9332 25.7374H48.3843C48.3843 25.7011 48.3531 21.925 46.538 17.2867C44.882 13.0532 41.3596 7.21665 33.9725 3.36255C33.4602 3.96708 31.6066 6.26538 29.989 9.74369C28.2489 13.4834 26.4318 19.3962 27.6542 26.3165L27.1125 26.4109L27.1144 26.4127Z" fill="black"/>
<path d="M38.0043 2.35155C38.0925 1.20891 36.5916 0.163121 34.6519 0.0157218C32.7122 -0.131677 31.0683 0.675129 30.98 1.81778C30.8918 2.96042 32.3927 4.00621 34.3324 4.15361C36.2721 4.30101 37.9161 3.4942 38.0043 2.35155Z" fill="black"/>
</g>
<defs>
<clipPath id="clip0_1025_7182">
<rect width="74" height="38" fill="white"/>
</clipPath>
</defs>
</svg>
