<svg width="70" height="37" viewBox="0 0 70 37" fill="none" xmlns="http://www.w3.org/2000/svg">
<g clip-path="url(#clip0_1026_7195)">
<path d="M12.9571 24.8616C12.9571 24.8616 12.0228 1.9669 30.5566 1.75484C49.0905 1.54279 52.6104 13.045 53.3347 22.7703C53.3347 22.7703 19.164 21.827 12.9498 24.8616H12.9571Z" fill="#C99F68"/>
<path d="M12.9557 23.7144C12.9557 23.7144 12.2315 26.9537 12.8543 28.1017C13.1151 28.5844 23.6314 26.5516 24.5946 26.4346C33.8435 25.345 44.1425 24.0727 53.3479 26.1128C53.3479 26.1128 54.0721 23.7071 53.2465 22.347C53.2465 22.347 28.397 18.5812 12.963 23.7071L12.9557 23.7144Z" fill="#653927"/>
<path d="M0 37C1.41231 36.4297 3.25194 33.7168 4.60631 32.6639C6.3373 31.3184 8.2059 30.1631 10.1759 29.2271C16.0931 26.4192 22.7708 25.6514 29.224 25.2346C35.9596 24.7959 42.8546 24.2913 49.5541 25.3443C57.1661 26.5435 64.1407 30.3459 70 35.3255C70 35.3255 31.3751 24.401 0 37Z" fill="#C99F68"/>
<path d="M41.1973 14.471C39.9226 11.1439 37.3297 6.66881 32.1512 3.37829C33.0203 3.13699 33.6287 2.62513 33.6722 1.98897C33.7446 1.02375 32.4989 0.138966 30.8838 0.0146574C29.2687 -0.109651 27.9071 0.570389 27.8346 1.53561C27.7839 2.24489 28.4358 2.903 29.4135 3.25399C28.7182 4.18264 27.6101 5.83521 26.6034 8.02889C25.1259 11.2536 23.5832 16.3575 24.6189 22.3317L25.0679 22.2512C24.054 16.4014 25.5604 11.3998 27.009 8.23363C28.0519 5.94489 29.2107 4.27039 29.877 3.39292C30.1088 3.45142 30.3551 3.48798 30.6158 3.50991C30.9127 3.53185 31.2024 3.52454 31.4777 3.5026C36.83 6.74193 39.4735 11.2682 40.7627 14.6172C42.2692 18.5366 42.2982 21.732 42.2982 21.7613H42.7544C42.7544 21.6297 42.7327 18.4635 41.1973 14.4637V14.471Z" fill="#653927"/>
</g>
<defs>
<clipPath id="clip0_1026_7195">
<rect width="70" height="37" fill="white"/>
</clipPath>
</defs>
</svg>
