<svg width="59" height="44" viewBox="0 0 59 44" fill="none" xmlns="http://www.w3.org/2000/svg">
<g clip-path="url(#clip0_910_9025)">
<path d="M58.9391 42.9501C58.9187 43.4713 58.5039 43.8758 57.9955 43.8799L54.9819 43.8883H52.5417L50.2397 43.8966L47.1651 43.905L26.3217 43.9467L22.7102 43.955H21.3112L19.4932 43.9633L1.24456 44.0009C0.776859 44.0009 0.378293 43.6548 0.309154 43.1794C0.252216 42.7749 0.183077 42.2329 0.126139 41.5782C0.0651335 40.9069 0.0203965 40.1188 0.00412847 39.2389C-0.0446756 36.1241 0.321355 31.8875 2.06203 27.7552C2.31825 27.1506 2.59888 26.5501 2.9161 25.9539C4.9008 22.2219 8.15847 18.7275 13.4252 16.4258C14.1858 16.0922 14.987 15.7837 15.837 15.5043C19.3021 14.3576 23.5114 13.6696 28.6155 13.6487C29.2011 13.6404 29.7949 13.6445 30.405 13.6612C30.405 13.6612 31.0028 13.6612 31.9057 13.6654C32.959 13.6696 34.4232 13.6821 35.8303 13.7029H35.8344C36.6153 13.7154 37.3799 13.7321 38.0428 13.7529C39.1694 13.7905 40.0153 13.8405 40.1861 13.9114C40.6253 14.0949 46.4534 14.8496 51.6591 18.4398C52.2244 18.8276 52.7775 19.2488 53.3185 19.7075C54.7622 20.9292 56.1003 22.4053 57.1862 24.1942C57.5237 25.1449 57.8003 26.204 58.024 27.3299C58.2761 28.5683 58.4632 29.886 58.6056 31.2162C58.695 32.046 58.7642 32.8716 58.817 33.6889C58.8496 34.1559 58.874 34.6188 58.8943 35.0774C59.0611 38.4675 58.9919 41.4906 58.9391 42.9501Z" fill="#BC7A69"/>
<path d="M29.2695 13.6138C29.6966 11.6498 30.1521 9.68999 30.6279 7.73851C30.9858 6.27074 31.3559 4.80296 31.7748 3.35186C32.0839 2.28438 31.8359 1.19336 33.4463 0.282866C35.8359 0.193359 36.2404 1.20857 36.4478 2.65967C36.883 5.64943 36.521 8.74761 36.3542 11.7457C36.3461 11.9 36.1631 13.7723 36.4153 13.7806C36.4071 13.7806 29.2695 13.618 29.2695 13.618V13.6138Z" fill="#BC7A69"/>
<path d="M29.7023 11.3379L29.0312 14.9198L36.6528 14.5111L36.4861 12.0676L29.7023 11.3379Z" fill="#6D453B"/>
<path d="M58.8168 33.6889C58.5891 33.8724 58.3735 34.0475 58.1702 34.2101C56.8647 35.2567 55.5551 36.2909 54.217 37.2958C52.7773 38.2965 51.1709 39.1889 49.8165 40.3189C49.7799 40.2897 49.7393 40.2605 49.7027 40.2313C47.4984 38.5968 43.3825 35.4277 39.7589 32.6297C42.8538 29.8902 45.9 27.1047 48.8567 24.2192C51.9721 26.7545 55.1647 29.1771 58.6053 31.2162C58.463 29.886 58.2759 28.5683 58.0238 27.3299C56.34 25.983 54.5871 24.7321 52.818 23.4895C52.1835 23.0517 51.5491 22.6138 50.9106 22.1885C51.7199 21.3712 52.5252 20.5456 53.3182 19.7075C52.7773 19.2488 52.2242 18.8276 51.6589 18.4398C50.6584 19.1821 49.6661 19.941 48.6859 20.7082H48.6819C46.5345 19.303 44.3708 17.9228 42.2194 16.5301C40.8488 15.5752 39.405 14.7203 38.0426 13.7529C37.3797 13.7321 36.6151 13.7154 35.8342 13.7029C37.7498 14.9455 39.4294 16.5301 41.2392 17.9269C43.0369 19.3822 44.8141 20.8833 46.5995 22.3636C43.3337 24.9906 40.1534 27.7219 37.0136 30.5073C36.0009 29.7192 35.1021 29.027 34.3945 28.4766C31.088 25.983 27.7815 23.477 24.4019 21.0918C26.9681 18.69 29.4775 16.2257 31.9055 13.6654C31.0026 13.6612 30.4047 13.6612 30.4047 13.6612C29.7947 13.6445 29.2009 13.6404 28.6153 13.6487C26.2605 15.4459 23.9585 17.3098 21.6892 19.2154C19.7736 17.9228 17.8296 16.676 15.8367 15.5043C14.9867 15.7837 14.1855 16.0922 13.425 16.4258C15.3324 18.1104 17.309 19.6908 19.3262 21.2211C17.8255 22.5096 16.337 23.8147 14.8566 25.1324C12.819 26.9546 10.7937 28.7893 8.7927 30.6533C6.97881 28.9144 5.05512 27.3049 2.91588 25.9539L2.06181 27.7552C3.39172 29.5899 4.89651 31.2537 6.49891 32.8091C4.29053 34.9065 2.12281 37.0414 0.00390625 39.2348C0.0201743 40.1188 0.0649113 40.9069 0.125916 41.5782C3.05416 39.4182 5.90513 37.1665 8.70729 34.8523C11.1719 37.0373 13.7748 39.0763 16.276 41.2071C17.3253 42.1536 18.464 43.0001 19.493 43.9633H21.3109C19.8753 42.7833 18.7284 41.2821 17.4269 39.952C15.2796 37.6335 13.2176 35.2109 11.0336 32.9133C13.0549 31.212 15.0599 29.4857 17.0528 27.7427C18.7365 26.2624 20.4081 24.7696 22.0633 23.256C22.1406 23.3102 22.2219 23.3686 22.2992 23.4269C25.931 26.0664 30.604 29.2022 35.1306 32.1877C30.8928 35.999 26.716 39.8769 22.71 43.955L26.3215 43.9467C30.3275 40.7901 34.2155 37.4793 38.067 34.1184C40.0354 35.411 41.9225 36.6411 43.6184 37.7586C45.3388 38.9429 47.1079 40.0562 48.8405 41.2279C48.1247 41.9785 47.539 42.8458 47.1649 43.905L50.2395 43.8966C50.6625 43.6381 51.0488 43.3462 51.4189 43.0293C51.7972 43.3128 52.1713 43.5964 52.5414 43.8924H54.9816L55.0264 43.8216C54.091 43.3212 53.2003 42.7583 52.334 42.162C53.3955 41.0528 54.3187 39.7852 55.3517 38.6426C56.4702 37.4751 57.6862 36.2575 58.8941 35.0774C58.8738 34.6188 58.8494 34.1559 58.8168 33.6889Z" fill="#6D453B"/>
</g>
<defs>
<clipPath id="clip0_910_9025">
<rect width="59" height="44" fill="white"/>
</clipPath>
</defs>
</svg>
