<svg width="71" height="66" viewBox="0 0 71 66" fill="none" xmlns="http://www.w3.org/2000/svg">
<g clip-path="url(#clip0_884_9990)">
<path d="M65.1847 45.6644C64.4953 47.1329 63.5688 48.4663 62.4454 49.6207C62.0478 50.0335 61.6211 50.428 61.1761 50.7897C60.7858 51.1111 60.3809 51.4107 59.9615 51.6883C58.1632 52.8829 56.1717 53.8217 54.0598 54.1469C53.6148 54.2163 53.1589 54.2565 52.7029 54.2674C52.3127 54.2784 51.9187 54.2638 51.5212 54.2272C49.6865 54.0519 48.0852 52.9742 46.7539 51.6993C46.5496 51.5093 46.3563 51.3121 46.1666 51.1111C46.0098 50.9467 45.8603 50.7824 45.7144 50.618C45.1198 49.9531 44.5727 49.2407 44.073 48.5028C43.949 48.3238 43.493 47.827 43.493 47.5932C43.4748 48.5649 43.3143 49.5293 43.0116 50.4536C42.7781 51.1659 42.4644 51.8418 42.0778 52.4701C41.8736 52.8135 41.6438 53.1459 41.3957 53.4601C40.4766 54.6327 39.3021 55.6081 37.9853 56.3278C37.6206 56.5287 37.234 56.7187 36.8291 56.8977C36.4753 57.0511 36.1069 57.1936 35.7312 57.3214C33.5719 58.052 31.1317 58.242 29.2277 57.0255C28.6733 56.6712 28.1772 56.2437 27.7286 55.7615C27.3018 55.2976 26.9189 54.7898 26.5723 54.2528C26.1273 53.5624 25.748 52.8318 25.4161 52.1011C25.0842 51.3705 24.7997 50.618 24.5553 49.8508C24.4787 49.617 24.2598 49.186 24.289 48.9302C24.0775 50.691 23.7237 52.5176 22.7169 54.0117C21.5096 55.8017 19.6932 56.8757 17.7491 57.1789C17.5849 57.2082 17.4171 57.2301 17.253 57.241C15.7101 57.3799 14.1125 57.0438 12.6864 56.2072C11.1872 55.3268 9.89603 54.114 8.76895 52.7916C7.48504 51.2865 6.39444 49.617 5.44974 47.8781C5.37679 47.7393 4.35914 45.5219 4.30078 45.5219L13.7879 43.867C13.7879 28.7688 22.3558 21.6927 22.3558 21.6927C22.3558 21.6927 22.8957 21.6306 23.8221 21.5356C24.2598 21.4918 24.7814 21.4406 25.3723 21.3822C25.9669 21.3274 26.6271 21.2653 27.3456 21.2069C27.6301 21.1813 27.9219 21.1594 28.2247 21.1338C28.8119 21.0863 29.4247 21.0388 30.063 20.995C30.4861 20.9657 30.9165 20.9365 31.3542 20.9073C33.6083 20.7612 36.0558 20.6479 38.4011 20.6224C38.6419 20.6187 38.879 20.615 39.1161 20.6187C40.4073 20.6114 41.6547 20.6333 42.8183 20.6954C43.4785 20.7319 44.1131 20.7794 44.7077 20.8415C46.4657 21.0205 47.8919 21.3274 48.7564 21.806C50.1606 22.5804 51.5832 24.6006 52.8926 27.0664C53.0385 27.3368 53.1808 27.6107 53.323 27.892C56.252 33.7041 58.517 41.3574 58.517 41.3574L61.767 41.7994L63.5068 42.0368L66.2971 42.4168C66.3883 42.4314 65.3123 45.394 65.1847 45.6644Z" fill="#979CC8"/>
<path d="M19.9932 36.7112C19.0959 39.1442 18.6582 41.6027 18.9208 44.1928C19.0302 45.9353 19.2564 47.718 19.2308 49.53C19.2199 51.3419 18.815 53.1173 18.3482 54.8489C18.1366 55.616 17.9105 56.3941 17.75 57.1796C17.5858 57.2088 17.418 57.2307 17.2539 57.2417C17.4728 56.4014 17.6697 55.5685 17.8521 54.7247C18.2497 53.0077 18.5305 51.2688 18.3883 49.5555C18.1986 46.9216 17.4253 44.3097 17.3378 41.6064C17.2721 38.8264 18.2424 36.1925 19.1068 33.6134C19.5299 32.3604 20.4418 29.8397 20.916 28.6013C21.8315 26.2232 22.7908 23.8633 23.823 21.5362C24.2607 21.4924 24.7823 21.4413 25.3732 21.3828C23.6735 26.457 21.7111 31.7284 19.9932 36.7112Z" fill="#6E7391"/>
<path d="M46.1028 43.4541C45.8329 45.1528 45.9824 46.91 46.2487 48.6488C46.3909 49.6681 46.5551 50.6763 46.752 51.6992C46.5478 51.5092 46.3545 51.312 46.1648 51.111C46.0663 50.311 45.8985 49.5183 45.7453 48.7329C45.4098 46.9757 45.1399 45.1747 45.2675 43.3665C45.4353 40.696 46.132 38.1352 46.2232 35.5123C46.2888 33.0428 45.4098 30.3651 44.7933 27.9759C44.166 25.6233 43.4839 23.1648 42.8164 20.6953C43.4766 20.7318 44.1113 20.7793 44.7058 20.8414C45.6542 23.9027 46.4967 27.0006 47.2335 30.0947C47.9302 32.7505 48.0104 35.6548 47.27 38.3069C46.8615 40.0568 46.3654 41.7408 46.1028 43.4541Z" fill="#6E7391"/>
<path d="M63.036 47.22C62.8463 48.031 62.6384 48.8274 62.4451 49.6201C62.0475 50.0329 61.6208 50.4275 61.1758 50.7891C61.442 48.6484 61.9162 46.5552 61.9892 44.4254C62.0111 43.5669 61.9199 42.6829 61.7667 41.7988L63.5065 42.0363C63.6415 43.7788 63.5065 45.5506 63.036 47.22Z" fill="#6E7391"/>
<path d="M27.9595 54.7689C27.8939 55.0977 27.8173 55.4301 27.7297 55.7625C27.303 55.2986 26.92 54.7908 26.5735 54.2538C26.6428 53.841 26.7012 53.4282 26.7267 53.019C26.6939 50.1331 25.5011 47.5942 25.0051 44.6973C24.3996 41.1866 25.0488 37.7016 25.596 34.2677C25.8768 32.5763 26.0811 30.8703 26.3291 29.1679C26.6975 26.5158 27.0805 23.8673 27.3468 21.2078C27.6313 21.1823 27.9231 21.1603 28.2258 21.1348C27.3723 25.5185 26.672 29.9059 26.2416 34.3517C25.9206 37.6906 25.7163 41.1501 26.4422 44.4123C27.1899 47.6782 28.9115 51.3057 27.9595 54.7689Z" fill="#6E7391"/>
<path d="M54.6588 51.7102C54.4983 52.5176 54.2649 53.3322 54.0606 54.1469C53.6157 54.2163 53.1597 54.2564 52.7038 54.2674C52.722 54.1615 52.7403 54.0555 52.7548 53.9459C52.9555 52.6089 53.3384 51.2828 53.426 49.9604C53.3895 47.0744 52.2004 44.5355 51.7044 41.6423C51.0989 38.1316 51.7481 34.6466 52.2916 31.209C52.5214 29.8355 52.7001 28.4509 52.8935 27.0664C53.0394 27.3367 53.1816 27.6107 53.3239 27.892C53.178 29.0208 53.0503 30.1569 52.9372 31.293C52.6162 34.632 52.412 38.0951 53.1378 41.3537C53.8856 44.6232 55.6072 48.2471 54.6588 51.7102Z" fill="#6E7391"/>
<path d="M36.8304 56.8986C36.4766 57.052 36.1082 57.1945 35.7325 57.3223C35.3386 56.2958 34.8899 55.2656 34.5288 54.2135C33.8103 52.0545 32.8802 49.5668 32.2893 47.3713C31.589 44.8214 31.2826 42.1693 30.9507 39.5646C30.5093 36.1489 30.1956 32.5799 30.0242 29.1496C29.9148 26.428 29.8892 23.7138 30.0643 20.9959C30.4874 20.9667 30.9178 20.9374 31.3555 20.9082C32.1179 26.1833 32.2127 31.5205 32.2638 36.8503C32.3695 40.2441 32.3039 43.8351 33.2048 47.1156C34.2152 50.4399 35.8346 53.5304 36.8231 56.8693C36.8231 56.8803 36.8231 56.8876 36.8304 56.8986Z" fill="#6E7391"/>
<path d="M42.0792 52.4701C41.8749 52.8135 41.6451 53.1459 41.3971 53.4601C38.49 47.1329 38.5119 35.0485 38.3916 28.8126C38.3551 26.0801 38.4098 23.3549 38.4025 20.6224C38.6432 20.6187 38.8803 20.615 39.1174 20.6187C39.0299 27.7897 39.5369 34.9754 40.2664 42.1062C40.6019 45.0287 41.0068 47.9622 41.6488 50.8262C41.7801 51.3778 41.9187 51.9294 42.0792 52.4701Z" fill="#6E7391"/>
<path d="M60.7227 18.4566C60.3324 19.4867 58.9573 20.1114 57.9323 19.7023C57.4107 19.4904 57.491 18.7123 57.429 18.2739C57.3451 17.6785 57.181 17.094 56.9621 16.535C56.4989 15.3587 55.7913 14.2811 54.9195 13.3678C53.2161 11.5851 50.7358 10.3467 48.23 10.8435C43.5649 11.7677 40.6141 18.4675 40.5229 18.6794C40.5557 18.6246 40.7746 18.6831 40.8183 18.6867C42.0621 18.789 43.233 19.1726 44.3965 19.5781C44.94 19.768 45.4798 19.9616 46.0269 20.1333C46.0525 20.1407 46.0817 20.1516 46.1072 20.1589H46.1108C46.8513 20.3854 47.6172 20.5206 48.3686 20.7215C49.0544 20.9078 52.9061 21.8613 51.7717 23.18C51.3377 23.6842 50.5717 24.075 49.7547 24.3563C49.6015 24.4111 49.4519 24.4586 49.2987 24.5025H49.2951C48.6349 24.6961 47.9747 24.8203 47.464 24.8751C45.6257 25.076 43.7655 24.8824 41.949 24.5828C41.8724 24.5828 41.0591 25.6349 40.9387 25.7482C40.5666 26.1025 40.1618 26.424 39.7314 26.7053C38.8706 27.2715 37.9222 27.6697 36.9228 27.9108C36.3429 28.0496 35.6608 28.1738 34.9896 28.1775C34.7708 28.1811 34.5519 28.1702 34.3404 28.1409C33.5306 28.0387 32.7975 27.6989 32.3744 26.9318C31.7324 25.7664 31.758 24.4038 31.5756 23.1289C31.5756 23.3188 30.8461 23.5125 29.8649 23.6842C29.5841 23.7316 29.285 23.7755 28.9749 23.8193C27.2278 24.0677 25.1779 24.2394 24.8059 24.2248C23.0842 24.1591 21.3736 23.6951 19.9 22.8257C19.579 22.6394 19.2726 22.4311 18.9772 22.201C18.5796 21.9014 18.2075 21.5654 17.8647 21.1927C17.7917 21.1124 17.7188 21.0284 17.6933 20.9224C17.3504 19.5635 23.6131 18.526 24.4885 18.3652C25.9147 18.1059 27.3554 17.9232 28.7999 17.8355C28.9385 17.8246 29.0771 17.8173 29.2193 17.81C30.1348 17.7625 31.0504 17.7552 31.9659 17.7844C32.1957 17.7917 32.4218 17.799 32.6516 17.8136C33.8443 17.8757 35.0334 18.0072 36.2188 18.2082C36.1277 18.1935 38.163 14.9386 38.3636 14.6866C39.2572 13.5651 40.2639 12.5459 41.2852 11.5412C43.2038 9.65625 45.5637 8.01966 48.3394 7.91372C50.8124 7.81874 53.249 8.64069 55.4302 9.74758C57.688 10.891 59.1761 13.3824 60.1391 15.6364C60.4819 16.4474 61.0582 17.5725 60.7227 18.4566Z" fill="#8F8C55"/>
<path d="M36.3453 18.629C36.1921 18.4792 36.2213 18.0554 36.2323 17.8326C36.3234 16.4006 37.8007 16.638 38.7891 16.7111C39.5588 16.7696 40.3904 16.8207 41.1345 17.0472C41.2403 17.0801 41.346 17.1202 41.4226 17.2006C41.5977 17.3906 41.729 18.8372 41.4883 18.8299C40.3576 18.7897 39.2305 18.7532 38.0998 18.713C37.8116 18.702 37.5235 18.6911 37.2353 18.6801C37.0456 18.6728 36.5241 18.7532 36.3745 18.6472C36.3636 18.6399 36.3563 18.6326 36.349 18.6253L36.3453 18.629Z" fill="#5A6246"/>
<path d="M29.2226 17.8105C29.0621 18.1393 28.9053 18.4718 28.7448 18.8005C27.7928 21.0582 25.2979 22.1797 22.9854 22.3879C21.9896 22.523 20.9465 22.6619 19.9033 22.8263C19.5823 22.6399 19.2759 22.4317 18.9805 22.2016C20.2534 21.8691 21.5556 21.6427 22.8505 21.449C24.2949 21.2225 25.7611 21.0582 26.9831 20.2362C27.8621 19.6736 28.3253 18.7494 28.8032 17.8361C28.9418 17.8252 29.0804 17.8179 29.2226 17.8105Z" fill="#5A6246"/>
<path d="M49.7566 24.3564C49.6034 24.4112 49.4539 24.4587 49.3007 24.5025H49.297C48.8083 23.3445 47.6228 22.4239 46.7438 21.5545C45.9851 20.875 45.2009 20.2138 44.3984 19.5781C44.9419 19.7681 45.4817 19.9617 46.0289 20.1334C46.0544 20.1407 46.0836 20.1517 46.1091 20.159H46.1128C47.0173 20.97 47.8854 21.8175 48.6915 22.7381C49.1037 23.2531 49.5414 23.7244 49.7566 24.3564Z" fill="#5A6246"/>
<path d="M36.7803 21.2119C36.762 22.8156 36.6453 24.4814 36.0252 25.9865C35.7809 26.7354 35.3432 27.4477 34.993 28.1783C34.7742 28.182 34.5553 28.171 34.3438 28.1418C34.3766 28.0578 34.4131 27.9774 34.4495 27.9007C35.1571 26.476 35.8903 25.1134 36.1638 23.5462C36.3025 22.7791 36.379 21.99 36.4155 21.1973L36.7803 21.2119Z" fill="#5A6246"/>
<path d="M32.6532 17.8144C31.5116 19.6738 30.4903 21.599 29.8665 23.6849C29.5857 23.7324 29.2866 23.7762 28.9766 23.8201C29.0021 22.6036 29.7279 21.3798 30.2495 20.3423C30.7602 19.4437 31.3328 18.5888 31.9675 17.7852C32.1973 17.7925 32.4234 17.7998 32.6532 17.8144Z" fill="#5A6246"/>
</g>
<defs>
<clipPath id="clip0_884_9990">
<rect width="62" height="50" fill="white" transform="translate(4.30078 7.90625)"/>
</clipPath>
</defs>
</svg>
