<svg width="71" height="69" viewBox="0 0 71 69" fill="none" xmlns="http://www.w3.org/2000/svg">
<g clip-path="url(#clip0_884_9980)">
<path d="M25.6882 36.1162C25.6882 36.1162 18.3965 28.6736 24.8957 18.6973C24.8957 18.6973 30.7615 23.2883 25.6882 36.1162Z" fill="#25A566"/>
<path d="M23.7578 33.7154C23.7578 33.7154 17.6073 32.3908 17.5586 25.207C17.5586 25.207 22.0419 25.5708 23.7578 33.7154Z" fill="#25A566"/>
<path d="M43.0437 38.6091C43.0437 38.6091 51.2254 32.1555 46.0522 21.4336C46.0522 21.4336 39.6478 25.2407 43.0437 38.6091Z" fill="#25A566"/>
<path d="M45.2617 36.4748C45.2617 36.4748 51.5327 35.9445 52.4971 28.8248C52.4971 28.8248 48.0035 28.6147 45.2617 36.4748Z" fill="#25A566"/>
<path d="M67.182 32.7267C67.182 32.7267 57.7229 32.4142 57.7973 39.4109C57.7973 39.4109 59.7594 40.1027 62.1703 39.4417C63.8272 38.9882 65.1224 38.0172 65.8432 36.8182C66.5049 35.7165 67.3538 34.0103 67.182 32.7267Z" fill="#25A566"/>
<path d="M4.52344 31.4688C4.52344 31.4688 6.31881 43.2001 17.9067 41.0916C17.9067 41.0916 18.5735 38.4784 16.8884 35.7012C15.7291 33.7951 13.8055 32.4782 11.6383 31.9376C9.65052 31.4406 6.6112 30.8898 4.52344 31.4688Z" fill="#25A566"/>
<path d="M21.6347 33.6499C21.6347 33.6499 22.5529 29.9171 24.1534 30.3936C25.7538 30.8701 26.2642 32.7071 24.733 34.8847C25.4486 34.4569 26.2386 34.1238 27.0593 33.9624C27.6005 33.8548 28.2263 33.7472 28.7726 33.8625C29.6754 34.0521 29.4395 35.3152 29.2497 35.9454C29.106 36.4245 28.8547 36.86 28.4905 37.2059C28.2674 37.4186 27.4543 38.0667 27.1183 37.9489C27.1183 37.9489 29.7062 38.8686 29.9807 40.0574C30.2551 41.2462 28.0057 42.2351 25.5512 40.7389C26.0821 41.7252 27.1542 44.2027 25.3794 44.5204C24.5817 44.6613 23.5353 44.5204 22.9556 43.9004C22.4452 43.3547 22.2195 42.2684 22.4503 41.5562C22.1297 42.5348 20.6934 45.9551 19.2187 44.6587C18.3825 43.926 19.0776 42.0071 19.4187 41.1462C19.3289 41.3743 18.2928 41.6125 18.0876 41.6791C17.1771 41.9738 16.2896 42.0942 15.3381 42.0506C15.0662 42.0378 14.7866 41.9968 14.5558 41.8533C13.5735 41.2487 14.7456 39.9037 15.2663 39.4169C15.9357 38.7943 16.9898 38.0949 17.9542 38.3537C17.9542 38.3537 13.4581 36.0735 14.6507 34.4415C15.8434 32.8095 18.3287 34.6106 18.3287 34.6106C18.3287 34.6106 17.4771 30.8676 19.2494 30.97C21.0217 31.0725 21.6732 33.0273 21.6347 33.6473V33.6499Z" fill="#F3C4CC"/>
<path d="M21.9568 39.5622C22.9016 39.5622 23.6676 38.7787 23.6676 37.8123C23.6676 36.8459 22.9016 36.0625 21.9568 36.0625C21.012 36.0625 20.2461 36.8459 20.2461 37.8123C20.2461 38.7787 21.012 39.5622 21.9568 39.5622Z" fill="#E29A55"/>
<path d="M8.1073 41.2885C8.1073 41.2885 8.71003 38.8341 9.76417 39.1466C10.8183 39.4592 11.1517 40.6685 10.1438 42.1006C10.6157 41.8188 11.1338 41.601 11.6724 41.4934C12.0263 41.4243 12.4393 41.3525 12.7984 41.4268C13.3908 41.5498 13.2369 42.3824 13.1113 42.7949C13.0164 43.11 12.8497 43.397 12.6111 43.625C12.4649 43.7633 11.9314 44.1912 11.7083 44.1143C11.7083 44.1143 13.4113 44.719 13.5909 45.5004C13.7704 46.2843 12.2931 46.9325 10.6798 45.9487C11.0286 46.5969 11.734 48.2263 10.567 48.4338C10.0412 48.5261 9.3538 48.4338 8.9742 48.0265C8.63821 47.6678 8.48945 46.953 8.64334 46.4842C8.43303 47.1272 7.48917 49.3766 6.5171 48.5235C5.96823 48.0419 6.42477 46.7788 6.64791 46.2152C6.58892 46.3638 5.90668 46.5226 5.77331 46.5662C5.1757 46.7583 4.59092 46.8403 3.96511 46.8121C3.78557 46.8044 3.60347 46.7762 3.44958 46.684C2.80324 46.2869 3.57269 45.4004 3.91638 45.0828C4.35496 44.6728 5.05003 44.2143 5.68354 44.3833C5.68354 44.3833 2.7263 42.8846 3.51113 41.8111C4.29597 40.7376 5.92976 41.9238 5.92976 41.9238C5.92976 41.9238 5.37063 39.4618 6.53506 39.5309C7.69949 39.6001 8.12781 40.8837 8.10473 41.291L8.1073 41.2885Z" fill="#F3C4CC"/>
<path d="M8.31736 45.1776C8.93921 45.1776 9.44332 44.6626 9.44332 44.0273C9.44332 43.392 8.93921 42.877 8.31736 42.877C7.69551 42.877 7.19141 43.392 7.19141 44.0273C7.19141 44.6626 7.69551 45.1776 8.31736 45.1776Z" fill="#E29A55"/>
<path d="M38.9349 31.8297C38.9349 31.8297 39.7967 28.3197 41.3023 28.7681C42.8078 29.2164 43.2874 30.9432 41.846 32.9928C42.5206 32.5906 43.2618 32.278 44.0312 32.1243C44.5391 32.0244 45.129 31.9219 45.642 32.0295C46.4909 32.2063 46.2678 33.395 46.0908 33.9868C45.9549 34.4378 45.7189 34.8477 45.3778 35.173C45.1675 35.3729 44.4031 35.9826 44.0877 35.8699C44.0877 35.8699 46.5217 36.7333 46.7782 37.8529C47.0346 38.9725 44.9212 39.8999 42.6129 38.4934C43.113 39.4208 44.121 41.7522 42.4513 42.0494C41.6998 42.1826 40.7175 42.0494 40.1712 41.4653C39.6916 40.9529 39.4787 39.9306 39.6967 39.2594C39.394 40.1792 38.0449 43.3944 36.6574 42.1775C35.87 41.4883 36.524 39.6847 36.8446 38.8751C36.76 39.0903 35.7853 39.3158 35.593 39.3773C34.7363 39.6539 33.9028 39.7692 33.0076 39.7282C32.7512 39.7154 32.4895 39.677 32.2715 39.5438C31.3482 38.975 32.4485 37.7094 32.9384 37.2534C33.5668 36.6667 34.5568 36.0108 35.4647 36.2542C35.4647 36.2542 31.2353 34.1098 32.3587 32.5752C33.4796 31.0406 35.8187 32.734 35.8187 32.734C35.8187 32.734 35.0185 29.2139 36.683 29.3112C38.3476 29.406 38.9606 31.2455 38.9272 31.8297H38.9349Z" fill="#F3C4CC"/>
<path d="M39.2318 37.3892C40.1214 37.3892 40.8425 36.6528 40.8425 35.7444C40.8425 34.836 40.1214 34.0996 39.2318 34.0996C38.3422 34.0996 37.6211 34.836 37.6211 35.7444C37.6211 36.6528 38.3422 37.3892 39.2318 37.3892Z" fill="#E29A55"/>
<path d="M55.9614 37.9994C55.9614 37.9994 56.913 34.1334 58.5699 34.6253C60.2267 35.1172 60.7577 37.0207 59.17 39.2778C59.9113 38.8346 60.7294 38.4913 61.5784 38.3222C62.1375 38.2121 62.7864 38.0993 63.3507 38.2172C64.2843 38.4119 64.0406 39.7236 63.8457 40.3744C63.6969 40.8688 63.4353 41.3223 63.0583 41.681C62.8275 41.9013 61.9862 42.5726 61.6374 42.4496C61.6374 42.4496 64.3176 43.4001 64.5998 44.635C64.8819 45.8673 62.553 46.8895 60.0139 45.3395C60.5653 46.3617 61.6759 48.9288 59.8369 49.2542C59.011 49.4002 57.9261 49.2542 57.3259 48.6112C56.7976 48.0475 56.5616 46.9202 56.8027 46.1824C56.4693 47.1969 54.9842 50.7376 53.4556 49.3951C52.5887 48.6342 53.3094 46.6487 53.6634 45.7597C53.571 45.9954 52.4964 46.2439 52.286 46.3105C51.3422 46.6154 50.424 46.7409 49.4391 46.6974C49.157 46.6845 48.8697 46.641 48.6286 46.495C47.6104 45.8698 48.8235 44.4735 49.3647 43.9714C50.0572 43.3258 51.1473 42.6033 52.1475 42.8697C52.1475 42.8697 47.4898 40.5076 48.7261 38.8167C49.9623 37.1258 52.5348 38.9935 52.5348 38.9935C52.5348 38.9935 51.6525 35.1172 53.4864 35.2222C55.3202 35.3273 55.9948 37.3512 55.9589 37.9969L55.9614 37.9994Z" fill="#F3C4CC"/>
<path d="M56.2918 44.1226C57.2706 44.1226 58.0641 43.3117 58.0641 42.3113C58.0641 41.311 57.2706 40.5 56.2918 40.5C55.313 40.5 54.5195 41.311 54.5195 42.3113C54.5195 43.3117 55.313 44.1226 56.2918 44.1226Z" fill="#E29A55"/>
</g>
<defs>
<clipPath id="clip0_884_9980">
<rect width="64" height="31" fill="white" transform="translate(3.20312 18.6973)"/>
</clipPath>
</defs>
</svg>
