<svg width="69" height="28" viewBox="0 0 69 28" fill="none" xmlns="http://www.w3.org/2000/svg">
<g clip-path="url(#clip0_905_8833)">
<path d="M54.4111 18.5694C52.8737 15.9739 48.2913 13.2567 45.2612 11.4573C44.3584 10.9216 43.579 10.4605 43.0403 10.0955C38.6836 7.16277 33.2239 5.46586 27.6684 5.31645C21.8105 5.15636 16.3253 6.68038 11.8068 9.71559C9.02154 11.5854 6.60897 14.0144 4.27731 16.3623C3.97707 16.6654 3.6747 16.9685 3.37446 17.2695L3.07422 16.9664C3.37446 16.6654 3.6747 16.3623 3.97707 16.0592C6.32363 13.6964 8.75111 11.2524 11.5725 9.35914C16.1677 6.27483 21.7402 4.73374 27.6833 4.88742C33.3197 5.03897 38.8582 6.76149 43.2809 9.73907C43.8111 10.0955 44.5862 10.5566 45.4827 11.0881C48.5511 12.9088 53.191 15.6622 54.7816 18.3495L54.4154 18.5672L54.4111 18.5694Z" fill="#A78600"/>
<path d="M15.2238 4.09949C15.2238 4.09949 15.9861 0.989567 17.3149 1.38658C18.6436 1.78359 19.0673 3.31401 17.7961 5.12831C18.3902 4.77185 19.046 4.49437 19.7274 4.3599C20.1767 4.27025 20.6963 4.1806 21.1498 4.27665C21.8994 4.4346 21.7035 5.4869 21.5459 6.01198C21.4267 6.41113 21.218 6.77399 20.9156 7.06214C20.7304 7.2393 20.0553 7.77932 19.7764 7.68114C19.7764 7.68114 21.9249 8.44741 22.1528 9.43781C22.3806 10.4282 20.5132 11.2521 18.4754 10.0056C18.9161 10.8273 19.8062 12.8914 18.3327 13.1561C17.6705 13.2735 16.8017 13.1561 16.3204 12.6395C15.8967 12.1849 15.7093 11.2799 15.901 10.6865C15.6348 11.5018 14.4423 14.3514 13.2179 13.2713C12.5238 12.6609 13.1008 11.0621 13.384 10.345C13.3095 10.5349 12.4492 10.7334 12.2789 10.7889C11.523 11.0344 10.7862 11.1347 9.99622 11.0984C9.7705 11.0878 9.5384 11.0536 9.34676 10.9341C8.53121 10.4303 9.50433 9.30974 9.93659 8.90419C10.4924 8.38551 11.3675 7.8028 12.1682 8.01838C12.1682 8.01838 8.43539 6.1187 9.42555 4.75904C10.4157 3.39939 12.4791 4.89992 12.4791 4.89992C12.4791 4.89992 11.7721 1.78146 13.2435 1.86684C14.7149 1.95221 15.2558 3.58082 15.2238 4.09736V4.09949Z" fill="#AB1A78"/>
<path d="M15.4906 9.02702C16.275 9.02702 16.9109 8.37432 16.9109 7.56917C16.9109 6.76403 16.275 6.11133 15.4906 6.11133C14.7062 6.11133 14.0703 6.76403 14.0703 7.56917C14.0703 8.37432 14.7062 9.02702 15.4906 9.02702Z" fill="#FFB801"/>
<path d="M4.07088 13.4792C4.07088 13.4792 4.57128 11.4344 5.44645 11.6948C6.32162 11.9552 6.59843 12.9627 5.76159 14.1558C6.1534 13.921 6.58353 13.7396 7.0307 13.65C7.32455 13.5923 7.66738 13.5326 7.96549 13.5945C8.45737 13.6969 8.32961 14.3906 8.22527 14.7343C8.14648 14.9968 8.00808 15.2359 7.81004 15.4258C7.68867 15.5411 7.24576 15.8976 7.06051 15.8335C7.06051 15.8335 8.47441 16.3373 8.62346 16.9883C8.77252 17.6414 7.546 18.1815 6.20663 17.3618C6.49623 17.9018 7.0818 19.2594 6.11294 19.4323C5.67642 19.5091 5.10575 19.4323 4.7906 19.0929C4.51166 18.794 4.38815 18.1985 4.51591 17.8079C4.34131 18.3437 3.5577 20.2177 2.75067 19.507C2.29498 19.1057 2.67401 18.0534 2.85927 17.5838C2.81029 17.7076 2.24388 17.8399 2.13315 17.8762C1.63701 18.0363 1.15152 18.1046 0.63195 18.0811C0.482894 18.0747 0.331709 18.0512 0.203947 17.9744C-0.332654 17.6436 0.306156 16.905 0.591492 16.6404C0.955613 16.2988 1.53267 15.9168 2.05863 16.0577C2.05863 16.0577 -0.396535 14.809 0.255052 13.9146C0.906638 13.0203 2.26304 14.0086 2.26304 14.0086C2.26304 14.0086 1.79884 11.9573 2.76557 12.015C3.73231 12.0726 4.08791 13.142 4.06875 13.4813L4.07088 13.4792Z" fill="#AB1A78"/>
<path d="M4.24729 16.7175C4.76356 16.7175 5.18208 16.2885 5.18208 15.7592C5.18208 15.2299 4.76356 14.8008 4.24729 14.8008C3.73102 14.8008 3.3125 15.2299 3.3125 15.7592C3.3125 16.2885 3.73102 16.7175 4.24729 16.7175Z" fill="#FFB801"/>
<path d="M29.5867 2.58561C29.5867 2.58561 30.3022 -0.338615 31.5521 0.0349171C32.802 0.40845 33.2002 1.84708 32.0035 3.55466C32.5635 3.21955 33.1789 2.95914 33.8177 2.83108C34.2394 2.74783 34.7291 2.66245 35.155 2.7521C35.8598 2.89938 35.6745 3.88977 35.5276 4.38284C35.4148 4.7585 35.2189 5.10002 34.9357 5.3711C34.761 5.53759 34.1265 6.04559 33.8646 5.95167C33.8646 5.95167 35.8854 6.67099 36.0983 7.60375C36.3112 8.53652 34.5566 9.3092 32.6402 8.13737C33.0554 8.91005 33.8923 10.8524 32.506 11.1C31.8821 11.211 31.0666 11.1 30.613 10.6134C30.2148 10.1865 30.0381 9.33481 30.2191 8.77558C29.9678 9.54185 28.8478 12.2206 27.6958 11.2067C27.0421 10.6326 27.5851 9.1299 27.8513 8.45541C27.781 8.6347 26.9718 8.82254 26.8121 8.87376C26.1009 9.10429 25.4089 9.20034 24.6657 9.16619C24.4528 9.15552 24.2356 9.1235 24.0546 9.01251C23.288 8.53865 24.2015 7.48422 24.6082 7.10429C25.1299 6.61549 25.9519 6.06907 26.7057 6.27184C26.7057 6.27184 23.1943 4.48529 24.127 3.20674C25.0575 1.92819 26.9995 3.33908 26.9995 3.33908C26.9995 3.33908 26.3351 0.406315 27.7171 0.487425C29.0991 0.566401 29.608 2.09895 29.5803 2.58561H29.5867Z" fill="#AB1A78"/>
<path d="M29.8333 7.21722C30.5719 7.21722 31.1706 6.60371 31.1706 5.84689C31.1706 5.09008 30.5719 4.47656 29.8333 4.47656C29.0948 4.47656 28.4961 5.09008 28.4961 5.84689C28.4961 6.60371 29.0948 7.21722 29.8333 7.21722Z" fill="#FFB801"/>
<path d="M44.8087 7.65212C44.8087 7.65212 45.8116 3.56034 47.5598 4.08328C49.308 4.60623 49.8659 6.61903 48.1922 9.00537C48.9737 8.53792 49.8361 8.17293 50.7326 7.99363C51.3224 7.87624 52.0059 7.75884 52.6021 7.88264C53.5859 8.08968 53.3304 9.47496 53.1238 10.1644C52.9684 10.6895 52.6916 11.1676 52.2955 11.5475C52.0528 11.7802 51.1648 12.491 50.7986 12.3608C50.7986 12.3608 53.6264 13.3682 53.9223 14.6724C54.2205 15.9766 51.7653 17.0587 49.0866 15.4173C49.6679 16.4995 50.8369 19.2146 48.8992 19.5603C48.0283 19.7162 46.8848 19.5603 46.2524 18.8816C45.6945 18.2839 45.4475 17.0929 45.7009 16.3117C45.3516 17.3853 43.7844 21.1313 42.1725 19.7119C41.259 18.9072 42.0192 16.8069 42.3918 15.8634C42.2939 16.1132 41.1611 16.3757 40.9396 16.4483C39.9452 16.7706 38.9763 16.9029 37.9372 16.856C37.6412 16.8432 37.3346 16.7962 37.0833 16.6404C36.0101 15.9787 37.2899 14.5016 37.8584 13.9702C38.5888 13.2871 39.7386 12.523 40.7927 12.8047C40.7927 12.8047 35.8824 10.3074 37.1834 8.51658C38.4844 6.72576 41.2015 8.70228 41.2015 8.70228C41.2015 8.70228 40.271 4.59982 42.2066 4.71295C44.14 4.82394 44.8512 6.96695 44.8129 7.64785L44.8087 7.65212Z" fill="#AB1A78"/>
<path d="M45.1586 14.1304C46.1912 14.1304 47.0282 13.2722 47.0282 12.2136C47.0282 11.155 46.1912 10.2969 45.1586 10.2969C44.1261 10.2969 43.2891 11.155 43.2891 12.2136C43.2891 13.2722 44.1261 14.1304 45.1586 14.1304Z" fill="#FFB801"/>
<path d="M69.0009 20.9981L68.8688 20.4858C66.9056 20.9917 61.6758 19.726 58.0964 18.7249C58.8438 18.7996 59.6274 18.8465 60.3705 18.8465C62.0698 18.8465 63.5816 18.5883 64.1331 17.7814C64.4014 17.3802 64.3184 17.1006 64.2013 16.9319C63.3176 15.6705 56.1225 17.0899 54.3125 17.4698C54.2231 17.4912 54.1443 17.5061 54.0804 17.5232L54.0548 17.5125L53.9122 17.5552L53.7227 17.6086L54.1847 18.0461C54.189 18.0717 54.1954 18.1038 54.206 18.1358C55.1004 21.9031 56.7272 28.0013 57.8472 28.0013H57.8579C58.3306 27.9906 58.4626 27.2841 58.5116 27.0152C58.88 24.9746 58.5648 23.0387 57.5598 21.2286C59.538 23.0429 61.6482 24.885 62.1486 24.9426L62.2124 24.4197C61.7333 24.3193 58.765 21.6705 55.8286 18.8914C55.7136 18.759 55.5922 18.6331 55.4602 18.5114C58.4179 19.4143 66.337 21.6811 69.0009 21.0024V20.9981ZM63.7711 17.2372C63.8137 17.2948 63.7456 17.4165 63.6966 17.4848C62.8065 18.7932 58.0666 18.2809 55.2494 17.79C58.1815 17.1945 63.2856 16.5456 63.769 17.235L63.7711 17.2372ZM57.9984 26.917C57.9345 27.2649 57.8664 27.4079 57.8302 27.4549C57.2361 27.0899 55.9095 22.8444 54.8874 18.7185C55.0918 18.9127 55.3303 19.1347 55.5773 19.3716C57.7024 21.6769 58.4924 24.1614 57.9984 26.9149V26.917Z" fill="#A78600"/>
</g>
<defs>
<clipPath id="clip0_905_8833">
<rect width="69" height="28" fill="white"/>
</clipPath>
</defs>
</svg>
