<svg width="70" height="51" viewBox="0 0 70 51" fill="none" xmlns="http://www.w3.org/2000/svg">
<g clip-path="url(#clip0_923_8846)">
<g clip-path="url(#clip1_923_8846)">
<path d="M56.1794 41.4692L51.0938 31.1984C51.0938 31.1984 53.23 40.6633 51.7043 41.4692C50.1785 42.275 31.6686 47.1078 18.1429 40.9659C18.1429 40.9659 17.4311 40.563 17.7359 38.5491C18.0407 36.5352 18.0407 31.501 18.0407 31.501L13.2608 42.3754L2.68359 38.8509C5.84646 31.8816 9.07716 24.9379 12.4368 18.0598C13.9969 14.8669 15.1182 11.2546 17.4051 8.41578C18.5833 6.95327 20.0321 5.84311 21.7931 5.15745C22.4195 4.91287 24.9593 3.70074 26.1049 3.79857C26.1283 3.80023 26.151 3.80355 26.1727 3.80604C26.2138 3.81184 26.2531 3.8193 26.29 3.82925C26.4181 3.86324 26.5186 3.92211 26.5839 4.01165C26.5839 4.01165 27.0344 4.62518 27.7596 5.441C27.7604 5.441 27.7613 5.44266 27.7621 5.44349C27.7621 5.44432 27.763 5.44432 27.763 5.44515C28.5744 6.35549 29.7275 7.51705 30.9769 8.35443C31.9675 9.01853 33.0193 9.47868 34.0083 9.44883C37.3152 9.35017 41.9075 6.80569 42.9149 4.70809C42.93 4.67741 42.9442 4.64673 42.9576 4.61606C42.9735 4.57792 43.0053 4.54724 43.0506 4.52569C43.1117 4.49584 43.1988 4.48174 43.3068 4.48092C44.7061 4.46848 49.7037 6.70786 50.2539 7.10499C52.1565 8.47879 52.9001 10.7115 53.9108 12.7287C56.0906 17.0806 58.2092 21.4615 60.3262 25.8441C62.207 29.7392 64.0811 33.6376 65.9426 37.5418L56.1794 41.4692Z" fill="#81891A"/>
<path d="M26.4219 3.89453C26.4219 3.89453 36.5812 7.08902 43.1029 4.5064L42.4163 11.2345H30.3351L26.4219 3.89453Z" fill="#5373FF"/>
<path d="M38.9181 16.0548C35.1665 17.0406 33.9573 10.0945 33.9573 10.0945C33.1551 12.8852 30.4185 16.6186 27.2774 15.2846C23.2051 13.5568 25.0449 6.27982 26.1737 3.80664C26.2147 3.81244 26.2541 3.81991 26.2909 3.82986C26.419 3.86385 26.5195 3.92271 26.5848 4.01226C26.5848 4.01226 27.0354 4.62578 27.7606 5.44161C27.7614 5.44161 27.7622 5.44327 27.7631 5.4441C27.7631 5.44493 27.7639 5.44493 27.7639 5.44575C28.5754 6.3561 29.7285 7.51765 30.9779 8.35504C31.9685 9.01914 33.0203 9.47928 34.0093 9.44944C37.3162 9.35077 41.9085 6.80629 42.9159 4.70869C42.9309 4.67802 42.9452 4.64734 42.9586 4.61666C42.9745 4.57852 43.0063 4.54785 43.0515 4.52629C43.0574 4.54453 43.0624 4.56194 43.0683 4.57935C45.217 11.4393 42.7383 15.0508 38.9181 16.0548Z" fill="#B5D3FF"/>
<path d="M57.7148 42.8689C57.9845 43.7188 58.5322 46.2923 59.5228 46.5219C59.7489 46.5741 59.985 46.5335 60.2137 46.4921C62.3716 46.1024 65.1962 45.8188 66.7203 44.0123C67.391 43.2172 66.9254 42.4444 66.5469 41.6303C66.2672 41.0284 65.9859 40.4273 65.7045 39.8262L57.7157 42.8681L57.7148 42.8689Z" fill="#5373FF"/>
<path d="M58.1493 44.1669C57.9307 44.1694 57.713 44.1421 57.4978 44.0757C56.5967 43.7963 56.0558 42.915 55.5466 42.1282C54.9931 41.2734 54.3784 40.4468 53.9824 39.5107C53.4121 38.1651 53.8542 35.8677 55.7242 37.0782C56.8086 37.7804 57.7775 38.6576 58.5805 39.665C58.259 38.3301 57.9374 36.9356 58.264 35.6024C58.3645 35.192 58.5311 34.7874 58.8175 34.4757C59.1039 34.1639 59.526 33.9533 59.9505 33.9898C60.3793 34.0263 60.7502 34.2999 61.0458 34.6092C61.9285 35.5328 62.3212 36.7996 62.6863 38.0184C62.3313 36.8344 63.8671 31.8914 65.536 33.6433C67.1153 35.3023 67.0316 38.5001 66.396 40.5106C66.0644 41.5594 65.2044 42.1929 64.1618 42.4681C62.8345 42.818 61.5257 43.0584 60.2403 43.5774C59.5695 43.8486 58.8544 44.1595 58.1501 44.1678L58.1493 44.1669Z" fill="#B5D3FF"/>
<path d="M3.43923 40.6426C3.17629 41.4941 2.15717 43.9233 2.84216 44.6678C2.99876 44.8378 3.21648 44.9364 3.42918 45.0301C5.43141 45.9181 7.92184 47.2662 10.2113 46.6303C11.2187 46.35 11.2756 45.453 11.4289 44.5692C11.5419 43.9158 11.6541 43.2633 11.7647 42.61L3.43923 40.6434V40.6426Z" fill="#5373FF"/>
<path d="M3.0569 41.9562C2.87518 41.836 2.71105 41.6917 2.57204 41.5159C1.98837 40.7814 2.04615 39.7516 2.07546 38.8172C2.10728 37.8024 2.07295 36.7769 2.28146 35.7828C2.58041 34.3534 4.25773 32.7077 5.10769 34.7522C5.60092 35.9386 5.8982 37.2047 5.98529 38.4856C6.48271 37.2055 7.0153 35.8748 8.04614 34.9587C8.36351 34.6768 8.73197 34.4363 9.14649 34.3393C9.561 34.2423 10.0291 34.3053 10.3582 34.5731C10.6907 34.8434 10.8405 35.277 10.9075 35.6974C11.1077 36.9534 10.7074 38.2178 10.3121 39.4275C10.6965 38.2526 14.7872 35.0374 15.1615 37.4161C15.5158 39.6687 13.6191 42.2588 11.9468 43.5605C11.0742 44.2395 10.0031 44.2801 8.9857 43.9228C7.69108 43.4676 6.47517 42.9337 5.11774 42.641C4.41014 42.4885 3.64224 42.345 3.0569 41.957V41.9562Z" fill="#B5D3FF"/>
</g>
</g>
<defs>
<clipPath id="clip0_923_8846">
<rect width="69.1214" height="50.5882" fill="white"/>
</clipPath>
<clipPath id="clip1_923_8846">
<rect width="65" height="43" fill="white" transform="translate(2.05859 3.79297)"/>
</clipPath>
</defs>
</svg>
