<svg width="76" height="48" viewBox="0 0 76 48" fill="none" xmlns="http://www.w3.org/2000/svg">
<g clip-path="url(#clip0_884_10016)">
<g clip-path="url(#clip1_884_10016)">
<path d="M20.9077 39.03C20.9077 39.03 11.6945 21.5941 16.9876 9.83984C19.3743 10.3913 21.7289 11.257 23.9488 12.283C25.7453 13.1167 27.5032 14.1042 29.011 15.3932C30.801 16.9194 32.1804 18.9714 34.3169 20.0615C36.7677 21.312 39.533 20.0231 41.6117 18.6315C43.5044 17.3682 45.134 16.0472 47.1486 14.9571C49.1632 13.867 51.2804 12.764 53.3848 11.7444C54.4434 11.2314 56.4388 9.83984 57.677 9.93603C58.2545 10.1925 57.7861 17.5221 57.7925 18.266C57.8246 21.9276 57.5359 25.6084 56.6569 29.1738C55.8293 32.5405 53.3527 36.093 53.3527 39.5751C53.3527 41.0949 25.8094 42.9289 20.9013 39.0364L20.9077 39.03Z" fill="#AB1A78"/>
<path opacity="0.47" d="M52.9106 26.2432C52.9106 26.2432 49.8758 12.828 54.5466 9.32675C59.2173 5.82547 68.0905 5.59461 69.2582 14.925C69.2582 16.6756 68.0905 17.3746 66.9228 16.791C66.9228 16.791 57.8187 30.7897 52.917 26.2432H52.9106Z" fill="#FF81CC"/>
<path opacity="0.47" d="M21.2887 26.2432C21.2887 26.2432 24.3234 12.828 19.6526 9.32675C14.9819 5.82547 6.10873 5.59461 4.94105 14.925C4.94105 16.6756 6.10873 17.3746 7.27642 16.791C7.27642 16.791 16.3805 30.7897 21.2823 26.2432H21.2887Z" fill="#FF81CC"/>
</g>
</g>
<defs>
<clipPath id="clip0_884_10016">
<rect width="75.967" height="47.7205" fill="white"/>
</clipPath>
<clipPath id="clip1_884_10016">
<rect width="66" height="35" fill="white" transform="translate(4.98438 6.35742)"/>
</clipPath>
</defs>
</svg>
