<svg width="70" height="76" viewBox="0 0 70 76" fill="none" xmlns="http://www.w3.org/2000/svg">
<g clip-path="url(#clip0_884_10001)">
<path d="M-0.00390625 30.2601C-0.00390625 30.2601 6.36103 18.06 14.4516 13.5492C22.5421 9.03845 28.3734 10.7641 28.3734 10.7641C28.3734 10.7641 34.6059 18.8702 41.8979 10.4408C41.8979 10.4408 53.171 9.96943 58.34 15.8046C63.5091 21.6398 70.4077 28.5345 69.0794 31.0547C67.755 33.575 60.9888 38.2143 58.4725 37.1548C58.4725 37.1548 55.6873 34.2372 55.6873 33.4426C55.6873 33.4426 53.8293 46.7022 55.1576 49.6198C56.4859 52.5374 58.4725 57.5779 57.8103 59.9618C57.1481 62.3496 11.2652 60.3591 10.7355 59.9618C10.2057 59.5645 12.3286 52.1361 14.5801 49.3549C16.8316 46.5736 13.7855 33.3101 13.7855 33.3101C13.7855 33.3101 11.9274 37.4197 10.3381 37.817C8.74885 38.2143 2.11904 35.2967 -0.00390625 30.2601Z" fill="#AB1A78"/>
<path d="M35.9532 32.6775C35.9532 32.6775 36.9561 28.5857 38.7043 29.1087C40.4525 29.6316 41.0104 31.6444 39.3368 34.0308C40.1182 33.5633 40.9806 33.1983 41.8771 33.019C42.4669 32.9016 43.1505 32.7842 43.7467 32.908C44.7304 33.1151 44.4749 34.5003 44.2684 35.1898C44.1129 35.7149 43.8361 36.193 43.44 36.5729C43.1973 36.8056 42.3094 37.5164 41.9431 37.3862C41.9431 37.3862 44.7709 38.3936 45.0669 39.6978C45.365 41.0019 42.9098 42.0841 40.2311 40.4427C40.8124 41.5249 41.9814 44.2399 40.0437 44.5857C39.1728 44.7415 38.0293 44.5857 37.3969 43.907C36.839 43.3093 36.592 42.1183 36.8454 41.3371C36.4962 42.4107 34.929 46.1567 33.317 44.7373C32.4035 43.9326 33.1637 41.8323 33.5364 40.8888C33.4384 41.1386 32.3056 41.4011 32.0841 41.4737C31.0897 41.796 30.1209 41.9283 29.0817 41.8814C28.7857 41.8685 28.4791 41.8216 28.2278 41.6658C27.1546 41.0041 28.4344 39.527 29.0029 38.9955C29.7333 38.3125 30.8832 37.5484 31.9372 37.8301C31.9372 37.8301 27.0269 35.3328 28.3279 33.542C29.629 31.7511 32.346 33.7277 32.346 33.7277C32.346 33.7277 31.4155 29.6252 33.3511 29.7383C35.2846 29.8493 35.9958 31.9923 35.9574 32.6732L35.9532 32.6775Z" fill="#F3C4CC"/>
<path d="M36.3032 39.1558C37.3357 39.1558 38.1728 38.2976 38.1728 37.239C38.1728 36.1804 37.3357 35.3223 36.3032 35.3223C35.2706 35.3223 34.4336 36.1804 34.4336 37.239C34.4336 38.2976 35.2706 39.1558 36.3032 39.1558Z" fill="#FF8F01"/>
</g>
<defs>
<clipPath id="clip0_884_10001">
<rect width="69.3006" height="76.0071" fill="white"/>
</clipPath>
</defs>
</svg>
