<svg width="76" height="42" viewBox="0 0 76 42" fill="none" xmlns="http://www.w3.org/2000/svg">
<path d="M63.8972 40.9439C63.8972 40.9439 75.1517 44.6357 75.1517 35.1411C75.1517 35.1411 67.4134 6.65365 53.5209 1.72896C50.883 0.675148 43.4959 0.320433 43.4959 0.320433C43.4959 0.320433 38.3956 8.41001 30.4817 0.320433C29.7791 -0.733382 21.6895 0.84734 17.643 4.54258C15.1841 7.00492 -2.22446 24.4135 0.237885 33.9082C0.237885 33.9082 10.6142 35.8436 11.668 37.6C11.668 37.6 17.1196 22.1578 18.8794 20.8216C18.8794 20.8216 22.2199 33.3778 18.3525 39.3563L57.5674 39.532C57.5674 39.532 52.8184 32.355 55.632 20.8216C55.632 20.8216 64.0728 35.8402 63.8972 40.9405V40.9439Z" fill="#4F6153"/>
<mask id="mask0_989_9625" style="mask-type:luminance" maskUnits="userSpaceOnUse" x="0" y="0" width="76" height="42">
<path d="M63.8972 40.9439C63.8972 40.9439 75.1517 44.6357 75.1517 35.1411C75.1517 35.1411 67.4134 6.65365 53.5209 1.72896C50.883 0.675148 43.4959 0.320433 43.4959 0.320433C43.4959 0.320433 38.3956 8.41001 30.4817 0.320433C29.7791 -0.733382 21.6895 0.84734 17.643 4.54258C15.1841 7.00492 -2.22446 24.4135 0.237885 33.9082C0.237885 33.9082 10.6142 35.8436 11.668 37.6C11.668 37.6 17.1196 22.1578 18.8794 20.8216C18.8794 20.8216 22.2199 33.3778 18.3525 39.3563L57.5674 39.532C57.5674 39.532 52.8184 32.355 55.632 20.8216C55.632 20.8216 64.0728 35.8402 63.8972 40.9405V40.9439Z" fill="white"/>
</mask>
<g mask="url(#mask0_989_9625)">
<path d="M72.6901 6.12305H4.80859V12.8041H72.6901V6.12305Z" fill="#ECECEA"/>
<path d="M58.6226 28.252H15.1992V34.7918H58.6226V28.252Z" fill="#ECECEA"/>
<path d="M17.8651 24.7506L-3.76562 19.9473L-4.73391 24.3077L16.8968 29.1111L17.8651 24.7506Z" fill="#ECECEA"/>
<path d="M57.7364 34.5631L79.3672 29.7598L78.3989 25.3993L56.7682 30.2027L57.7364 34.5631Z" fill="#ECECEA"/>
<path d="M55.9859 22.127H18.1484V24.8614H55.9859V22.127Z" fill="#ECECEA"/>
</g>
</svg>
