<svg width="70" height="51" viewBox="0 0 70 51" fill="none" xmlns="http://www.w3.org/2000/svg">
<g clip-path="url(#clip0_989_9638)">
<path d="M0 19.8832C0 19.8832 6.38251 7.64941 14.4954 3.12618C22.6083 -1.39704 28.4557 0.333346 28.4557 0.333346C28.4557 0.333346 34.7054 8.46187 42.0175 0.00914233C42.0175 0.00914233 53.3217 -0.463491 58.5051 5.38779C63.6884 11.2391 70.606 18.1528 69.2741 20.68C67.946 23.2073 61.1612 27.8594 58.6379 26.7969C58.6379 26.7969 55.845 23.8713 55.845 23.0745C55.845 23.0745 53.9818 36.3707 55.3138 39.2963C56.6458 42.222 58.6379 47.2764 57.9738 49.6669C57.3098 52.0614 11.3002 50.0654 10.769 49.6669C10.2378 49.2685 12.3666 41.8197 14.6243 39.0307C16.882 36.2418 13.8275 22.9417 13.8275 22.9417C13.8275 22.9417 11.9643 27.0625 10.3706 27.461C8.77693 27.8594 2.12881 24.9337 0 19.8832Z" fill="#A39D3F"/>
<mask id="mask0_989_9638" style="mask-type:luminance" maskUnits="userSpaceOnUse" x="0" y="0" width="70" height="51">
<path d="M0 19.8832C0 19.8832 6.38251 7.64941 14.4954 3.12618C22.6083 -1.39704 28.4557 0.333346 28.4557 0.333346C28.4557 0.333346 34.7054 8.46187 42.0175 0.00914233C42.0175 0.00914233 53.3217 -0.463491 58.5051 5.38779C63.6884 11.2391 70.606 18.1528 69.2741 20.68C67.946 23.2073 61.1612 27.8594 58.6379 26.7969C58.6379 26.7969 55.845 23.8713 55.845 23.0745C55.845 23.0745 53.9818 36.3707 55.3138 39.2963C56.6458 42.222 58.6379 47.2764 57.9738 49.6669C57.3098 52.0614 11.3002 50.0654 10.769 49.6669C10.2378 49.2685 12.3666 41.8197 14.6243 39.0307C16.882 36.2418 13.8275 22.9417 13.8275 22.9417C13.8275 22.9417 11.9643 27.0625 10.3706 27.461C8.77693 27.8594 2.12881 24.9337 0 19.8832Z" fill="white"/>
</mask>
<g mask="url(#mask0_989_9638)">
<path d="M65.4775 4.66602H3.37891V12.111H65.4775V4.66602Z" fill="#EBECF0"/>
<path d="M67.4697 32.8555H5.37109V43.4917H67.4697V32.8555Z" fill="#EBECF0"/>
<path d="M84.3514 15.9707H-1.29688V21.2908H84.3514V15.9707Z" fill="#EBECF0"/>
<path d="M81.4256 25.416H-4.22266V28.2089H81.4256V25.416Z" fill="#EBECF0"/>
</g>
</g>
<defs>
<clipPath id="clip0_989_9638">
<rect width="69.4459" height="50.8257" fill="white"/>
</clipPath>
</defs>
</svg>
