<svg width="71" height="52" viewBox="0 0 71 52" fill="none" xmlns="http://www.w3.org/2000/svg">
<g clip-path="url(#clip0_1027_7302)">
<path d="M71.0004 20.1155C70.9963 20.656 70.7159 21.1521 70.4233 21.6039C68.5622 24.4677 65.7095 26.6821 62.4627 27.7832C61.9344 27.9607 61.3817 28.114 60.8209 28.0938C58.6753 28.0172 57.4847 25.6576 56.7532 23.6529C55.4691 28.723 54.1891 34.0836 55.6804 39.0932C56.9117 43.2195 59.9716 46.9101 59.8375 51.2099C51.633 51.7382 43.4123 52.0045 35.1915 52.0004C34.9193 52.0004 34.647 52.0004 34.3747 51.9964C26.6254 51.9843 18.8801 51.7342 11.1469 51.2421C11.021 46.9424 14.0809 43.2558 15.3081 39.1295C16.7954 34.1239 15.5113 28.7674 14.2272 23.7013C13.5079 25.7019 12.3335 28.0535 10.1961 28.1382C9.63933 28.1584 9.09074 28.0091 8.56247 27.8316C5.31968 26.7466 2.46294 24.5564 0.585533 21.7168C0.28076 21.253 -0.0118228 20.7367 0.000368103 20.1801C0.0166227 19.7082 0.244187 19.2766 0.475815 18.8651C5.34812 10.2294 12.9024 2.43263 22.7608 0.472345C23.0697 0.411842 23.3826 0.355373 23.6955 0.306971C24.8821 0.117396 26.1012 0.012525 27.3528 0.000424426C27.9623 -0.00360908 28.5922 0.0165585 29.1489 0.262603C29.9129 0.605451 30.4249 1.31938 31.0263 1.89214C31.9853 2.81178 33.2491 3.36034 34.5698 3.52168C34.6064 3.52974 34.6429 3.53378 34.6795 3.53378C34.8014 3.54991 34.9274 3.56201 35.0493 3.56605C35.1956 3.57815 35.3378 3.57815 35.4841 3.57815C35.5857 3.57815 35.6873 3.57411 35.7889 3.56605C35.9392 3.56605 36.0896 3.54588 36.2359 3.52974C37.2884 3.40471 38.3043 3.02959 39.1576 2.39633C39.9541 1.80744 40.6165 1.02494 41.5024 0.59335C42.1526 0.274703 42.884 0.161765 43.6073 0.101262C44.6883 0.00849145 45.7651 0.0165585 46.8339 0.117396C47.163 0.149664 47.4922 0.185966 47.8173 0.234368C52.0191 0.847461 56.0421 2.84001 59.3824 5.4981C60.3617 6.2806 61.2883 7.11553 62.1741 7.99081C65.3072 11.1006 67.9039 14.7469 70.3258 18.4457C70.659 18.9579 71.0044 19.5065 71.0004 20.1155Z" fill="#CB9D6A"/>
<path d="M15.1387 35.1968C15.1387 35.1968 46.0305 30.9294 55.6573 35.4711L57.3274 42.8444C57.3274 42.8444 20.9538 39.0771 14.2812 42.199C14.2812 42.199 14.3747 36.7094 15.1387 35.1968Z" fill="#152135"/>
<path d="M28.2775 32.8481C28.2775 32.8481 28.8139 41.3185 28.8505 41.7541C28.8505 41.7541 37.5304 40.7054 41.5534 42.4479C41.5534 42.4479 42.5409 35.4255 42.3662 33.4209C42.3662 33.4209 32.5199 31.9809 28.2734 32.8481H28.2775ZM40.2856 36.9099L38.335 36.7929L38.0993 37.7569C38.0993 37.7569 39.5785 38.2732 40.1271 38.4144C39.9686 39.8019 39.802 41.0079 39.802 41.0079C36.9615 39.7777 30.8335 40.5199 30.8335 40.5199C30.8051 40.2093 30.4272 34.2316 30.4272 34.2316C33.4261 33.6226 40.375 34.639 40.375 34.639C40.4156 35.1109 40.3668 35.9701 40.2815 36.9099H40.2856Z" fill="#EEE78D"/>
</g>
<defs>
<clipPath id="clip0_1027_7302">
<rect width="71" height="52" fill="white"/>
</clipPath>
</defs>
</svg>
