<svg width="70" height="51" viewBox="0 0 70 51" fill="none" xmlns="http://www.w3.org/2000/svg">
<g clip-path="url(#clip0_1027_7291)">
<path d="M70.0004 19.7287C69.9964 20.2588 69.7199 20.7454 69.4314 21.1884C67.5965 23.9972 64.784 26.169 61.5829 27.2489C61.0621 27.423 60.5172 27.5733 59.9643 27.5536C57.8489 27.4784 56.675 25.1642 55.9539 23.1981C54.6879 28.1707 53.4258 33.4281 54.8962 38.3414C56.1101 42.3883 59.127 46.008 58.9948 50.2251C50.9058 50.7433 42.8008 51.0044 34.6959 51.0004C34.4274 51.0004 34.159 51.0004 33.8906 50.9965C26.2504 50.9846 18.6141 50.7393 10.9899 50.2567C10.8657 46.0397 13.8826 42.4239 15.0925 38.377C16.5589 33.4677 15.2928 28.2142 14.0268 23.2455C13.3177 25.2077 12.1598 27.514 10.0524 27.5971C9.50357 27.6168 8.9627 27.4705 8.44187 27.2964C5.24475 26.2323 2.42825 24.0842 0.577286 21.2992C0.276805 20.8443 -0.0116563 20.3379 0.000362918 19.792C0.0163886 19.3291 0.240748 18.9059 0.469113 18.5024C5.2728 10.0327 12.7207 2.38585 22.4403 0.463261C22.7448 0.403922 23.0532 0.348539 23.3617 0.301068C24.5316 0.115139 25.7335 0.0122841 26.9675 0.000416264C27.5685 -0.00353968 28.1895 0.01624 28.7383 0.257552C29.4916 0.593808 29.9964 1.29401 30.5893 1.85575C31.5348 2.75771 32.7808 3.29572 34.0829 3.45395C34.119 3.46186 34.155 3.46582 34.1911 3.46582C34.3113 3.48165 34.4355 3.49351 34.5557 3.49747C34.6999 3.50934 34.8401 3.50934 34.9843 3.50934C35.0845 3.50934 35.1847 3.50538 35.2848 3.49747C35.4331 3.49747 35.5813 3.47769 35.7255 3.46187C36.7632 3.33923 37.7648 2.97133 38.6061 2.35025C39.3914 1.77268 40.0444 1.00523 40.9178 0.58194C41.5589 0.26942 42.28 0.158654 42.9932 0.0993148C44.0589 0.00832815 45.1206 0.01624 46.1742 0.115139C46.4988 0.146786 46.8233 0.18239 47.1438 0.229861C51.2864 0.831164 55.2528 2.7854 58.546 5.39236C59.5116 6.15982 60.425 6.9787 61.2984 7.83714C64.3874 10.8872 66.9475 14.4633 69.3353 18.0909C69.6638 18.5933 70.0044 19.1314 70.0004 19.7287Z" fill="#CB9D6A"/>
<path d="M29.5436 17.2324L29.4915 16.9831L29.2431 16.9238C29.0388 16.8803 24.2551 15.7845 20.0644 16.8407L19.8 16.908L18.7383 25.3856L19.2191 25.3579C21.2703 25.2392 26.8593 25.077 28.0732 25.7456L28.57 26.0185L28.6662 25.4647C28.7824 24.7645 29.812 18.5695 29.5436 17.2324ZM28.7864 17.6398C28.8064 18.0117 28.7703 18.6011 28.7062 19.3053C26.5788 19.5782 24.6598 20.8402 23.9226 21.3782C23.0612 20.5079 21.1461 19.5229 20.3328 19.1233L20.5291 17.5488C23.9106 16.7774 27.7447 17.4341 28.7864 17.6438V17.6398ZM27.953 24.8555C26.8633 24.539 24.9082 24.4559 23.1093 24.4559C21.687 24.4559 20.3649 24.5073 19.6517 24.5429L20.2287 19.9541C21.3344 20.5118 23.0932 21.4929 23.5299 22.1377L23.7783 22.5017L24.1189 22.2208C24.1429 22.201 26.2663 20.4921 28.6221 20.1162C28.4418 21.7303 28.1493 23.6529 27.953 24.8515V24.8555Z" fill="#653927"/>
<path d="M51.082 17.1696L50.8176 17.1023C46.6309 16.0461 41.8432 17.1419 41.6429 17.1893L41.3945 17.2487L41.3424 17.4979C41.07 18.835 42.1036 25.0261 42.2198 25.7263L42.316 26.2801L42.8088 26.0071C44.0267 25.3425 49.6157 25.5047 51.667 25.6234L52.1437 25.6511L51.082 17.1696ZM42.0996 17.9014C43.1413 17.6957 46.9754 17.0351 50.3569 17.8065L50.5532 19.3849C49.7399 19.7844 47.8248 20.7695 46.9594 21.6398C46.2222 21.1018 44.3032 19.8398 42.1758 19.5669C42.1117 18.8627 42.0796 18.2772 42.0996 17.9014ZM42.933 25.1171C42.7367 23.9144 42.4442 21.9958 42.2599 20.3818C44.6157 20.7576 46.7431 22.4705 46.7631 22.4903L47.1036 22.7712L47.348 22.4072C47.7847 21.7585 49.5476 20.7813 50.6533 20.2236L51.2303 24.8124C49.6117 24.7333 44.8841 24.5593 42.929 25.121L42.933 25.1171Z" fill="#653927"/>
<path d="M46.1754 0.115234L38.7355 8.34755C38.3669 7.25966 37.4775 5.13928 35.7267 3.46196C35.5824 3.47778 35.4342 3.49361 35.286 3.49756C35.1858 3.50548 35.0856 3.50943 34.9855 3.50943C34.8412 3.50943 34.701 3.50943 34.5568 3.49756C34.4366 3.49756 34.3124 3.48174 34.1922 3.46592C34.1561 3.46592 34.1201 3.46196 34.084 3.45405C32.193 5.16697 31.2235 7.43768 30.8308 8.56117L23.3629 0.301164C23.0544 0.348635 22.7459 0.404018 22.4414 0.463357L31.2114 10.1673L31.3957 9.44334C31.4037 9.4117 32.1329 6.63463 34.1602 4.49842C33.8557 15.8164 33.8757 41.2333 33.8917 50.9966C34.1602 51.0005 34.4286 51.0005 34.697 51.0005C34.677 41.0869 34.661 14.7285 34.9775 3.8536C37.3533 6.0175 38.1545 9.19808 38.1666 9.23368L38.3469 9.96553L47.1449 0.229957C46.8244 0.182485 46.4999 0.146882 46.1754 0.115234Z" fill="#653927"/>
</g>
<defs>
<clipPath id="clip0_1027_7291">
<rect width="70" height="51" fill="white"/>
</clipPath>
</defs>
</svg>
