<svg width="72" height="74" viewBox="0 0 72 74" fill="none" xmlns="http://www.w3.org/2000/svg">
<path d="M43.8448 67.3249C41.9639 66.0902 43.0611 61.5286 43.8448 59.4021C39.6978 58.7847 31.5801 57.9204 32.2854 59.4021C32.9907 60.8838 29.1833 65.3013 27.1914 67.3249C27.1914 67.3249 32.3122 73.8062 36.1198 73.5781C39.4955 73.3758 45.7257 68.5596 43.8448 67.3249Z" fill="#FFC585"/>
<path d="M72 38.0002C72 42.3085 67.3558 48.8093 63.0756 48.8232H63.0617C62.6274 48.8232 62.2144 48.7561 61.8217 48.6311C61.492 48.5267 61.1772 48.3812 60.8771 48.2012C60.3141 49.4452 59.664 50.6408 58.9333 51.7794C58.7148 52.1198 58.4898 52.4545 58.2573 52.7847C53.2196 59.9382 44.9323 64.6074 35.5606 64.6074C26.1889 64.6074 17.9275 59.9531 12.8889 52.8182C11.9424 51.4782 11.1099 50.0514 10.4061 48.5509C10.3218 48.5836 10.2366 48.6125 10.1505 48.6395C9.87362 48.7253 9.58561 48.7831 9.28835 48.8083C9.17259 48.8186 9.05591 48.8232 8.93738 48.8232C8.09374 48.8232 7.23621 48.5705 6.40276 48.1322C3.00135 46.3445 0 41.4636 0 38.0002C0 33.6872 3.47179 30.1901 7.7548 30.1901C7.81499 30.1901 7.87519 30.1911 7.93446 30.1929C8.11874 30.1967 8.30025 30.2088 8.48083 30.2256C11.3488 17.8368 22.3837 8.60742 35.5606 8.60742C48.7374 8.60742 59.8464 17.8993 62.6681 30.3524C62.7505 30.3356 62.8339 30.3188 62.9172 30.3058C63.3488 30.2293 63.7914 30.1901 64.2443 30.1901C68.5273 30.1901 72 33.6872 72 38.0002Z" fill="#FFC585"/>
<path d="M6.56384 38.5197C6.56384 38.5197 30.9166 29.3676 31.0702 23.475C31.0702 23.475 43.0138 32.6271 45.6516 32.4711C45.6516 32.4711 43.7914 28.4387 44.2547 27.0418C44.2547 27.0418 60.6963 36.8923 64.8847 36.7363C64.8847 36.7363 68.5446 15.9899 48.4431 8.89364C48.4431 8.89364 49.528 6.92865 50.6665 6.67023C50.6665 6.67023 49.84 5.27332 47.0462 5.99738C47.0462 5.99738 45.754 0.775283 43.7378 0C43.7378 0 41.9801 2.63782 42.8066 4.65403C42.8066 4.65403 40.9464 1.13848 37.0164 0.880051C37.0164 0.880051 36.1899 4.60281 38.9814 6.82621C38.9814 6.82621 2.21946 3.00102 6.56384 38.5197Z" fill="#7C523A"/>
<path d="M36.561 47.3829C36.2235 47.3829 35.9138 47.2618 35.6554 47.0267C34.5681 46.0325 34.638 43.2108 34.6496 42.8918L35.3481 42.9174C35.3201 43.695 35.4063 45.8533 36.128 46.5121C36.2817 46.6518 36.4516 46.7077 36.6588 46.6798C36.9592 46.6425 37.199 46.4912 37.3922 46.2211C38.086 45.2572 37.9137 43.2131 37.8672 42.9733L38.5516 42.8359C38.6238 43.1968 38.8217 45.4295 37.9603 46.6285C37.6506 47.0592 37.2432 47.3084 36.7473 47.3712C36.6844 47.3782 36.6216 47.3829 36.561 47.3829Z" fill="#7C523A"/>
<path d="M25.3653 57.53C24.7344 59.1318 22.9929 60.0863 20.7975 60.2726C16.0224 57.5533 13.0446 53.5628 11.1914 49.6584C13.0842 48.3663 16.325 48.2173 19.5309 49.4815C23.8357 51.1787 26.4503 54.7827 25.3653 57.53Z" fill="#FF99BB"/>
<path d="M60.4209 49.3796C58.5304 53.6518 55.5294 57.0067 51.2479 59.2977H51.2456C48.482 59.4141 46.1818 58.4199 45.4368 56.5295C44.3518 53.7822 46.9664 50.1782 51.2735 48.481C54.9986 47.0119 58.7726 47.4519 60.4209 49.3796Z" fill="#FF99BB"/>
<path d="M25.2731 39.0168C25.8208 39.0168 26.2649 38.5728 26.2649 38.025C26.2649 37.4773 25.8208 37.0332 25.2731 37.0332C24.7253 37.0332 24.2812 37.4773 24.2812 38.025C24.2812 38.5728 24.7253 39.0168 25.2731 39.0168Z" fill="black"/>
<path d="M45.4879 39.0168C46.0357 39.0168 46.4797 38.5728 46.4797 38.025C46.4797 37.4773 46.0357 37.0332 45.4879 37.0332C44.9401 37.0332 44.4961 37.4773 44.4961 38.025C44.4961 38.5728 44.9401 39.0168 45.4879 39.0168Z" fill="black"/>
<path d="M36.5782 54.6138C33.8077 54.6138 31.9498 52.7466 31.9219 52.7186L32.4224 52.232C32.5738 52.388 36.1918 55.9897 40.8691 52.2041L41.3091 52.7466C39.5816 54.1458 37.9658 54.6138 36.5806 54.6138H36.5782Z" fill="#7C523A"/>
</svg>
