<svg width="65" height="71" viewBox="0 0 65 71" fill="none" xmlns="http://www.w3.org/2000/svg">
<path d="M37.5284 66.9062C35.7106 65.7696 36.771 61.5708 37.5284 59.6134C33.5205 59.0451 25.6751 58.2496 26.3567 59.6134C27.0384 60.9772 23.3587 65.0435 21.4336 66.9062C21.4336 66.9062 26.3933 70.916 30.0731 70.7059C33.3356 70.5198 39.3462 68.0427 37.5284 66.9062Z" fill="#FFCE98"/>
<path d="M8.63384 47.9401C8.63384 47.9401 16.7591 61.5429 28.42 62.0734C40.0809 62.6039 51.209 53.9481 52.6228 52.3568C54.0366 50.7654 55.2728 14.5534 55.2728 14.5534L32.1678 14.9063L13.6778 13.1396L2.09766 41.9344L8.63384 47.9401Z" fill="#FFCE98"/>
<path d="M4.81308 64.9008C4.81308 64.9008 -10.8724 20.0285 14.389 4.83662C37.5309 -9.36355 58.5533 11.2944 60.8504 20.8357C63.1475 30.3771 68.4544 55.1842 58.5625 60.6617C58.5625 60.6617 49.1987 57.8341 45.3125 59.956C45.3125 59.956 60.3291 34.6946 49.5516 18.7946C49.5516 18.7946 24.1126 29.3946 13.5126 20.7389C13.5126 20.7389 1.13907 41.5836 18.981 61.3698C18.981 61.3698 8.87686 56.8955 4.81308 64.9031V64.9008Z" fill="#735C07"/>
<path d="M30.442 43.2328C30.2644 43.2328 30.1376 43.2235 30.0938 43.2212C29.9023 43.2074 29.7616 43.0413 29.7755 42.8499C29.7893 42.6585 29.9554 42.5178 30.1468 42.5316C30.5735 42.5639 31.7843 42.5339 32.271 42.0219C32.4439 41.8397 32.5108 41.6022 32.4716 41.3024C32.4163 40.8641 32.241 40.5436 31.9365 40.3268C31.3669 39.9162 30.4812 39.9785 30.186 40.0385C29.9992 40.0777 29.817 39.9531 29.7801 39.7663C29.7432 39.5795 29.8631 39.3973 30.0523 39.3604C30.1076 39.3489 31.413 39.0975 32.3425 39.7663C32.8037 40.0984 33.0782 40.5851 33.1589 41.217C33.2235 41.7244 33.0897 42.1695 32.7714 42.5017C32.1579 43.1451 31.0255 43.2351 30.442 43.2351V43.2328Z" fill="#7C523A"/>
<path d="M25.2422 47.7832H39.0941C39.0941 47.7832 36.195 52.615 33.0538 52.6957C29.9125 52.7764 26.4507 51.0052 25.2422 47.7832Z" fill="black"/>
<path d="M22.0805 30.6706C21.5524 30.6706 21.0703 31.012 20.7059 31.5655C20.1432 31.2795 19.3844 30.8252 19.1445 30.3408C19.2921 30.8367 19.6681 31.8054 20.4038 32.1398C20.1662 32.7071 20.0256 33.3967 20.0256 34.144C20.0256 36.0629 20.9458 37.6173 22.0805 37.6173C23.2152 37.6173 24.1355 36.0629 24.1355 34.144C24.1355 32.2251 23.2152 30.6706 22.0805 30.6706Z" fill="#215B0E"/>
<path d="M19.1411 30.3385C19.0856 30.1559 19.0625 30.0381 19.0625 30.0381C19.0625 30.1374 19.0925 30.2391 19.1411 30.3385Z" fill="#215B0E"/>
<path d="M38.6135 30.82C39.1417 30.82 39.6237 31.1614 39.9881 31.7149C40.5509 31.4289 41.3097 30.9746 41.5495 30.4902C41.4019 30.9861 41.026 31.9548 40.2903 32.2892C40.5278 32.8565 40.6685 33.5461 40.6685 34.2934C40.6685 36.2123 39.7483 37.7668 38.6135 37.7668C37.4788 37.7668 36.5586 36.2123 36.5586 34.2934C36.5586 32.3745 37.4788 30.82 38.6135 30.82Z" fill="#215B0E"/>
<path d="M41.5547 30.4879C41.6101 30.3053 41.6333 30.1875 41.6333 30.1875C41.6333 30.2869 41.6032 30.3885 41.5547 30.4879Z" fill="#215B0E"/>
</svg>
