<svg width="64" height="71" viewBox="0 0 64 71" fill="none" xmlns="http://www.w3.org/2000/svg">
<path d="M39.4843 66.71C37.7205 65.5908 38.7494 61.4561 39.4843 59.5286C35.5953 58.9691 27.9828 58.1857 28.6442 59.5286C29.3056 60.8716 25.7351 64.8758 23.8672 66.71C23.8672 66.71 28.6797 70.6584 32.2503 70.4516C35.416 70.2683 41.2481 67.8291 39.4843 66.71Z" fill="#F8D6BE"/>
<path d="M63.6009 33.7688C62.6327 30.5251 59.36 30.792 58.0499 31.0394C55.1549 19.2293 44.6386 10.4785 32.1071 10.4785C19.5755 10.4785 9.57564 18.8048 6.38896 30.1709C6.07818 30.0811 1.48105 28.8269 0.302481 32.7765C-0.835447 36.5854 1.31371 40.2852 5.4638 39.8703C6.59694 53.7959 18.091 64.7375 32.1047 64.7375C46.1184 64.7375 57.053 54.32 58.6452 40.8771C62.659 41.1513 64.7173 37.5122 63.6009 33.7663V33.7688Z" fill="#F8D6BE"/>
<path d="M5.26503 31.0418C5.26503 31.0418 -2.38252 27.4197 0.804157 20.8233C3.99083 14.2268 8.0692 12.8051 10.6176 11.7692C10.6176 11.7692 8.0692 2.19834 16.0969 0.645654C24.1269 -0.907029 40.9496 -0.130689 47.1938 8.27563C47.1938 8.27563 58.7907 14.4839 59.1732 27.1601C59.5557 39.8363 56.4957 44.1038 55.9865 44.7515C55.4773 45.3993 52.7998 45.5279 52.2906 42.9417C51.7814 40.3555 55.2215 22.6355 49.2306 20.3065C49.2306 20.3065 47.3181 29.8773 40.1822 29.6202C33.0462 29.363 32.1522 25.6099 32.1522 24.705C32.1522 23.8 32.1522 25.6099 32.1522 25.6099C32.1522 25.6099 20.4262 32.9827 11.6336 32.4659C11.6336 32.4659 13.2903 43.2013 11.6336 44.2348C9.97691 45.2707 8.57362 45.2707 7.68193 43.8466C6.79023 42.4225 5.26024 32.5945 5.26024 31.0418H5.26503Z" fill="#6B3F1C"/>
<path d="M24.4191 39.7751C25.5955 39.7751 26.5491 38.1393 26.5491 36.1214C26.5491 34.1036 25.5955 32.4678 24.4191 32.4678C23.2427 32.4678 22.2891 34.1036 22.2891 36.1214C22.2891 38.1393 23.2427 39.7751 24.4191 39.7751Z" fill="#3C210E"/>
<path d="M39.13 39.7751C40.3064 39.7751 41.2601 38.1393 41.2601 36.1214C41.2601 34.1036 40.3064 32.4678 39.13 32.4678C37.9536 32.4678 37 34.1036 37 36.1214C37 38.1393 37.9536 39.7751 39.13 39.7751Z" fill="#3C210E"/>
<path d="M29.2822 32.3828C31.4385 36.0171 34.5797 43.0939 29.2917 45.452C29.2917 45.452 29.4567 45.0614 29.4567 45.0639C29.7675 45.8135 30.4607 46.3715 31.1851 46.7015C31.4409 46.8228 31.7134 46.9052 31.9859 46.9877L31.9381 47.2255C31.6441 47.1697 31.35 47.1115 31.0679 47.012C30.1834 46.7112 29.3515 46.1459 28.9068 45.2846L28.7969 45.0105L29.0694 44.894C32.8442 43.453 31.8353 38.727 30.6305 35.7405C30.193 34.6293 29.6742 33.5425 29.079 32.5114L29.2822 32.3828Z" fill="#3C210E"/>
<path d="M24.7734 50.8193H39.1314C39.1314 50.8193 36.1264 55.9019 32.8704 55.9869C29.6144 56.0718 26.0261 54.2086 24.7734 50.8193Z" fill="black"/>
</svg>
