<svg width="64" height="69" viewBox="0 0 64 69" fill="none" xmlns="http://www.w3.org/2000/svg">
<path d="M39.4293 64.8576C37.6703 63.7579 38.6964 59.6949 39.4293 57.8009C35.5511 57.2511 27.9596 56.4812 28.6192 57.8009C29.2788 59.1206 25.7182 63.0553 23.8555 64.8576C23.8555 64.8576 28.6546 68.7376 32.2153 68.5344C35.3722 68.3542 41.1882 65.9574 39.4293 64.8576Z" fill="#EEBC99"/>
<path d="M31.6356 62.6315C46.1842 62.6315 57.9781 50.8375 57.9781 36.2889C57.9781 21.7403 46.1842 9.94629 31.6356 9.94629C17.0869 9.94629 5.29297 21.7403 5.29297 36.2889C5.29297 50.8375 17.0869 62.6315 31.6356 62.6315Z" fill="#EEBC99"/>
<path d="M56.6562 30.0354C56.6562 30.0354 61.4687 28.5914 62.6701 32.5606C63.8714 36.5298 61.3462 40.3788 56.6562 39.2976V30.0354Z" fill="#EEBC99"/>
<path d="M6.31119 29.0716C6.31119 29.0716 1.49871 27.6276 0.297362 31.5968C-0.90399 35.5659 1.62121 39.415 6.31119 38.3337V29.0716Z" fill="#EEBC99"/>
<path d="M58.4464 30.1387C58.4464 30.1387 65.982 26.6218 62.842 20.217C59.702 13.8121 55.6833 12.4317 53.1723 11.4259C53.1723 11.4259 55.6833 2.13309 47.7732 0.625506C39.8608 -0.879717 23.2822 -0.125928 17.1293 8.0362C17.1293 8.0362 5.70237 14.0642 5.32547 26.3721C4.94858 38.6801 7.96373 42.8236 8.46547 43.4525C8.96722 44.0815 11.6055 44.2063 12.1072 41.6953C12.609 39.1842 9.21926 21.979 15.1224 19.7176C15.1224 19.7176 17.0069 29.0104 24.0383 28.7607C31.0697 28.511 31.9507 24.8669 31.9507 23.9883C31.9507 23.1096 31.9507 24.8669 31.9507 24.8669C31.9507 24.8669 43.5049 32.0256 52.1688 31.5238C52.1688 31.5238 50.5364 41.9473 52.1688 42.9508C53.8012 43.9566 55.1839 43.9566 56.0626 42.5739C56.9412 41.1912 58.4488 31.6487 58.4488 30.1411L58.4464 30.1387Z" fill="#F67E29"/>
<path d="M32.93 52.12C29.5073 52.12 25.882 50.9682 23.9881 46.787C23.9081 46.6103 23.9881 46.4007 24.1648 46.3182C24.3438 46.2381 24.5511 46.3182 24.6336 46.4949C28.3389 54.6759 39.4008 50.3015 40.6516 49.7762C41.0002 49.6302 41.1416 49.9246 41.1486 49.9388C41.2287 50.1107 41.1533 50.318 40.9837 50.4052C40.9696 50.4122 40.9531 50.4193 40.939 50.424L40.9249 50.4287C40.2347 50.7185 36.706 52.12 32.9323 52.12H32.93Z" fill="#5E410D"/>
<path d="M23.5197 44.1515C26.6264 44.1515 29.1448 41.6857 29.1448 38.6441C29.1448 35.6025 26.6264 33.1367 23.5197 33.1367C20.413 33.1367 17.8945 35.6025 17.8945 38.6441C17.8945 41.6857 20.413 44.1515 23.5197 44.1515Z" fill="white"/>
<path d="M21.579 41.0263C23.4823 41.0263 25.0253 39.4833 25.0253 37.58C25.0253 35.6767 23.4823 34.1338 21.579 34.1338C19.6757 34.1338 18.1328 35.6767 18.1328 37.58C18.1328 39.4833 19.6757 41.0263 21.579 41.0263Z" fill="black"/>
<path d="M41.2853 44.963C44.392 44.963 46.9105 42.4973 46.9105 39.4556C46.9105 36.414 44.392 33.9482 41.2853 33.9482C38.1786 33.9482 35.6602 36.414 35.6602 39.4556C35.6602 42.4973 38.1786 44.963 41.2853 44.963Z" fill="white"/>
<path d="M39.3525 41.8378C41.2558 41.8378 42.7987 40.2948 42.7987 38.3915C42.7987 36.4882 41.2558 34.9453 39.3525 34.9453C37.4492 34.9453 35.9062 36.4882 35.9062 38.3915C35.9062 40.2948 37.4492 41.8378 39.3525 41.8378Z" fill="black"/>
<path d="M40.0835 29.5927C40.9433 29.2323 41.7254 29.4372 42.5145 29.5997C43.3013 29.774 44.0669 30.0449 44.8183 30.3559C45.7511 30.7799 50.4694 32.6738 48.9736 34.0754C48.6391 34.3439 48.1514 34.2921 47.8782 33.9646C47.4424 33.4723 46.9265 33.0224 46.3424 32.6832C45.0633 31.9765 43.5604 31.8493 42.1353 31.6444C41.3909 31.5313 40.6041 31.5148 39.9304 31.006C39.4098 30.6621 39.5064 29.8164 40.0812 29.5927H40.0835Z" fill="#5E410D"/>
<path d="M26.8605 30.6327C26.0973 30.9342 25.3718 30.767 24.6439 30.7081C22.889 30.5408 20.9668 30.2464 19.3533 31.1274C19.0494 31.2828 18.7667 31.4501 18.5076 31.6362C17.669 32.2086 16.7786 31.0214 17.5677 30.3759C18.2909 29.8129 19.1295 29.5326 19.9327 29.3395C20.736 29.1275 21.5322 28.9579 22.3378 28.8283C23.141 28.7011 23.949 28.6163 24.7546 28.6304C25.5602 28.6587 26.3682 28.6399 27.1196 29.1911C27.6638 29.5774 27.4965 30.4537 26.8605 30.6303V30.6327Z" fill="#5E410D"/>
</svg>
