<svg width="66" height="72" viewBox="0 0 66 72" fill="none" xmlns="http://www.w3.org/2000/svg">
<path d="M40.3976 67.5555C38.4208 66.3195 39.5739 61.7532 40.3976 59.6246C36.039 59.0066 27.5071 58.1414 28.2484 59.6246C28.9897 61.1078 24.988 65.5298 22.8945 67.5555C22.8945 67.5555 28.2882 71.9161 32.29 71.6877C35.838 71.4852 42.3744 68.7915 40.3976 67.5555Z" fill="#FFC585"/>
<path d="M64.0874 40.0972C64.0874 43.7786 60.0993 49.3334 56.4236 49.3454H56.4117C56.0387 49.3454 55.6841 49.288 55.3469 49.1812C55.0638 49.092 54.7934 48.9677 54.5357 48.8139C54.0522 49.8769 53.4939 50.8984 52.8665 51.8714C52.6788 52.1622 52.4856 52.4483 52.286 52.7304C47.9598 58.843 40.8432 62.8328 32.7953 62.8328C24.7474 62.8328 17.653 58.8557 13.326 52.759C12.5133 51.614 11.7984 50.3948 11.194 49.1127C11.1216 49.1406 11.0485 49.1653 10.9745 49.1884C10.7367 49.2617 10.4894 49.3111 10.2341 49.3326C10.1347 49.3414 10.0345 49.3454 9.93273 49.3454C9.20827 49.3454 8.47187 49.1294 7.75615 48.7549C4.83521 47.2274 2.25781 43.0567 2.25781 40.0972C2.25781 36.4118 5.23919 33.4236 8.9172 33.4236C8.9689 33.4236 9.02059 33.4244 9.07148 33.426C9.22974 33.4292 9.38561 33.4396 9.54068 33.4539C12.0036 22.8678 21.4797 14.9814 32.7953 14.9814C44.1108 14.9814 53.6506 22.9212 56.0737 33.5623C56.1445 33.5479 56.2161 33.5336 56.2876 33.5224C56.6582 33.4571 57.0384 33.4236 57.4272 33.4236C61.1052 33.4236 64.0874 36.4118 64.0874 40.0972Z" fill="#FFC585"/>
<path d="M24.6801 46.8024C27.7804 46.8024 30.2937 44.3372 30.2937 41.2962C30.2937 38.2552 27.7804 35.79 24.6801 35.79C21.5797 35.79 19.0664 38.2552 19.0664 41.2962C19.0664 44.3372 21.5797 46.8024 24.6801 46.8024Z" fill="white"/>
<path d="M25.4808 44.2079C27.3795 44.2079 28.9187 42.6656 28.9187 40.7631C28.9187 38.8606 27.3795 37.3184 25.4808 37.3184C23.5821 37.3184 22.043 38.8606 22.043 40.7631C22.043 42.6656 23.5821 44.2079 25.4808 44.2079Z" fill="black"/>
<path d="M40.8871 46.2722C43.9874 46.2722 46.5007 43.8069 46.5007 40.766C46.5007 37.725 43.9874 35.2598 40.8871 35.2598C37.7868 35.2598 35.2734 37.725 35.2734 40.766C35.2734 43.8069 37.7868 46.2722 40.8871 46.2722Z" fill="white"/>
<path d="M41.6839 43.6776C43.5826 43.6776 45.1218 42.1353 45.1218 40.2328C45.1218 38.3304 43.5826 36.7881 41.6839 36.7881C39.7853 36.7881 38.2461 38.3304 38.2461 40.2328C38.2461 42.1353 39.7853 43.6776 41.6839 43.6776Z" fill="black"/>
<path d="M34.0462 51.5186C33.8363 51.5186 33.6263 51.5074 33.4164 51.4859C29.9006 51.1233 27.6524 47.8834 27.5586 47.7455L27.821 47.5654C27.8433 47.5981 30.0835 50.8229 33.4514 51.1688C35.4761 51.3775 37.5063 50.5161 39.4849 48.6101L39.7052 48.8396C37.8578 50.6189 35.9572 51.5186 34.0454 51.5186H34.0462Z" fill="black"/>
<path d="M65.2311 13C64.0883 19.9819 54.9501 19.6393 54.8364 19.868C56.3227 21.6234 57.044 27.5567 57.3685 33.6462C57.7406 40.6609 57.5864 47.8842 57.4639 49.1711C57.4885 49.4062 57.5021 49.6365 57.5076 49.8604C57.6309 54.9586 53.1226 56.9547 53.1226 56.9547C53.4654 56.5866 53.6881 55.126 53.8248 53.0597C53.8376 52.8621 53.8511 52.6581 53.8622 52.4494C53.9958 50.0469 54.0308 46.9647 54.0157 43.853C53.9807 36.9125 53.6936 29.827 53.6936 29.827V33.059C53.6936 33.059 49.6951 32.9179 45.1256 33.0574C40.5562 33.1976 39.0706 23.0737 39.0706 23.0737C37.8141 26.0499 39.0706 33.0327 39.0706 33.0327C39.0706 33.0327 29.7034 33.2614 26.1622 32.3458C22.621 31.4294 24.4484 23.9901 24.4484 23.9901C22.0492 26.0499 20.1072 33.0327 20.1072 33.0327C17.366 33.6048 12.5675 32.4605 12.5675 32.4605C11.8501 33.7307 11.4 39.4839 11.1249 45.0945C11.0485 46.6762 10.9849 48.246 10.9332 49.7018C10.9126 50.278 10.8943 50.8358 10.8768 51.3704C10.7758 54.6144 10.7392 56.9571 10.7392 56.9571C9.4827 56.2702 7.99798 51.4629 7.99798 51.4629C7.83177 50.7975 7.71248 50.0572 7.63534 49.258C7.21863 44.9519 7.99559 38.9166 8.98328 33.5498C10.2119 26.8802 11.7682 21.2433 11.7682 21.2433C5.25676 22.7303 -0.111946 20.7844 0.00177402 11.3983C0.116289 2.0115 11.5392 1.32462 17.4805 4.41478C23.4202 7.50574 18.3942 14.7172 18.3942 14.7172C31.5834 6.62842 46.5833 12.7131 46.7249 12.7705C45.6974 11.8493 45.128 0.866434 52.4371 0.0648087C59.7486 -0.73602 66.3738 6.01724 65.2311 13Z" fill="#2C2C7C"/>
<path d="M16.3887 51.196C18.3401 51.196 19.922 49.6109 19.922 47.6556C19.922 45.7003 18.3401 44.1152 16.3887 44.1152C14.4374 44.1152 12.8555 45.7003 12.8555 47.6556C12.8555 49.6109 14.4374 51.196 16.3887 51.196Z" fill="#FF40AD"/>
<path d="M50.0333 50.7575C51.9847 50.7575 53.5666 49.1724 53.5666 47.2171C53.5666 45.2618 51.9847 43.6768 50.0333 43.6768C48.0819 43.6768 46.5 45.2618 46.5 47.2171C46.5 49.1724 48.0819 50.7575 50.0333 50.7575Z" fill="#FF40AD"/>
</svg>
