<svg width="76" height="69" viewBox="0 0 76 69" fill="none" xmlns="http://www.w3.org/2000/svg">
<path d="M43.5206 64.7079C41.7028 63.5714 42.7632 59.3725 43.5206 57.4152C39.5127 56.8469 31.6672 56.0513 32.3489 57.4152C33.0306 58.779 29.3508 62.8453 27.4258 64.7079C27.4258 64.7079 32.3854 68.7177 36.0653 68.5077C39.3278 68.3215 45.3384 65.8445 43.5206 64.7079Z" fill="#CA8F53"/>
<path d="M6.9555 39.3486C6.9555 39.3486 12.4731 67.0742 1.17188 66.8754C1.17188 66.8754 18.6586 69.9202 21.6718 51.901" fill="#352300"/>
<path d="M65.4702 41.0801C65.4702 41.0801 59.9526 68.8057 71.2538 68.6068C71.2538 68.6068 53.7671 71.6516 50.7539 53.6325" fill="#352300"/>
<path d="M67.3426 26.1567C66.7766 26.1567 66.2243 26.2151 65.6904 26.3253C62.7326 13.3109 51.1333 3.59863 37.2742 3.59863C23.415 3.59863 11.8963 13.2456 8.88996 26.1937C8.63951 26.1703 8.38518 26.1567 8.12891 26.1567C3.63927 26.1567 0 29.8106 0 34.3183C0 38.826 4.8789 45.63 9.36853 45.63C9.91311 45.63 10.4257 45.5296 10.9081 45.3454C15.5744 55.2633 25.6264 62.1267 37.2761 62.1267C48.9259 62.1267 59.2253 55.0947 63.814 44.9789C64.5032 45.3931 65.2681 45.629 66.1049 45.629C70.5945 45.629 75.4734 38.825 75.4734 34.3173C75.4734 29.8096 71.8342 26.1557 67.3445 26.1557L67.3426 26.1567Z" fill="#CA8F53"/>
<path d="M24.0676 31.0491C25.3908 31.0491 26.4634 29.9722 26.4634 28.6437C26.4634 27.3152 25.3908 26.2383 24.0676 26.2383C22.7445 26.2383 21.6719 27.3152 21.6719 28.6437C21.6719 29.9722 22.7445 31.0491 24.0676 31.0491Z" fill="black"/>
<path d="M48.3567 31.6282C49.6798 31.6282 50.7525 30.5513 50.7525 29.2228C50.7525 27.8943 49.6798 26.8174 48.3567 26.8174C47.0336 26.8174 45.9609 27.8943 45.9609 29.2228C45.9609 30.5513 47.0336 31.6282 48.3567 31.6282Z" fill="black"/>
<path d="M19 43.6217C22.3202 43.6217 25.0118 40.9193 25.0118 37.5857C25.0118 34.2522 22.3202 31.5498 19 31.5498C15.6798 31.5498 12.9883 34.2522 12.9883 37.5857C12.9883 40.9193 15.6798 43.6217 19 43.6217Z" fill="#CA2554"/>
<path d="M56.4727 43.6217C59.7929 43.6217 62.4844 40.9193 62.4844 37.5857C62.4844 34.2522 59.7929 31.5498 56.4727 31.5498C53.1525 31.5498 50.4609 34.2522 50.4609 37.5857C50.4609 40.9193 53.1525 43.6217 56.4727 43.6217Z" fill="#CA2554"/>
<path d="M36.4708 40.0467C35.2778 40.0467 34.2139 39.8362 33.346 39.5711C31.125 38.8917 29.7194 37.7465 29.6602 37.6978L29.8446 37.4717C29.8582 37.4834 31.2716 38.6335 33.4412 39.2943C35.435 39.9024 38.4977 40.2094 41.7642 38.2222L41.9147 38.4726C39.9722 39.6539 38.1007 40.0467 36.4698 40.0467H36.4708Z" fill="black"/>
<path d="M8.09659 26.2397C8.09659 26.2397 39.5114 23.0292 45.7183 10.7527C45.7183 10.7527 58.5096 25.2953 65.6581 26.2397C65.6581 26.2397 66.2221 8.86382 43.0847 1.30939C19.9473 -6.24602 7.53162 21.1394 8.09659 26.2397Z" fill="#352300"/>
</svg>
