<svg width="1745" height="3344" viewBox="0 0 1745 3344" fill="none" xmlns="http://www.w3.org/2000/svg">
<path d="M1086.86 2384.53C1079.05 2345.91 1068.61 2299.46 1047.56 2262.81L1745 64.2828L972.31 0L494.662 2131.75C420.915 2150.57 351.874 2185.35 298.244 2240.98C222.584 2319.47 195.226 2434.45 101.724 2497.59C55.7483 2528.59 -22.2394 2583.8 5.99756 2650.47C47.9392 2749.54 275.645 2687.64 340.6 2641.14C340.29 2641.35 328.705 2694.59 326.481 2701.59C309.053 2756.59 290.59 2811.23 274.145 2866.6C246.115 2961.05 182.608 3094.9 225.273 3193.04C273.214 3303.46 437.981 3216.32 466.425 3130.93C438.084 3216.11 467.459 3358.72 581.7 3342.86C700.233 3326.43 729.038 3179.66 747.708 3082.67C740.209 3121.5 760.12 3184.59 775.997 3218.86C812.922 3298.48 898.874 3287.6 931.403 3215.49C961.295 3149.34 972.31 3073.44 973.448 3001.07C1005.25 3071.58 1128.29 3225.18 1169.09 3065.46C1188.95 2987.75 1144.16 2883.24 1129.11 2806.98C1101.55 2667.27 1114.89 2523.46 1086.86 2384.58V2384.53Z" fill="#EEBC99"/>
</svg>
