<svg width="107" height="114" viewBox="0 0 107 114" fill="none" xmlns="http://www.w3.org/2000/svg">
<g clip-path="url(#clip0_853_2998)">
<path d="M78.3585 58.9987C66.4933 65.4004 51.6738 60.9502 45.2582 49.0591C38.8426 37.1679 43.2603 22.3387 55.1255 15.9371C66.9907 9.53548 81.8103 13.9856 88.2259 25.8768C94.6415 37.7679 90.2237 52.5971 78.3585 58.9987Z" fill="#C1892C"/>
<path d="M81.9717 58.0791C69.9746 64.5519 54.9904 60.0523 48.5035 48.029C42.0165 36.0056 46.4834 21.0116 58.4805 14.5388C70.4776 8.06606 85.4618 12.5657 91.9487 24.589C98.4357 36.6123 93.9688 51.6064 81.9717 58.0791Z" fill="#FFC905"/>
<mask id="mask0_853_2998" style="mask-type:luminance" maskUnits="userSpaceOnUse" x="45" y="11" width="50" height="51">
<path d="M81.9717 58.0789C69.9746 64.5517 54.9904 60.052 48.5035 48.0287C42.0165 36.0054 46.4834 21.0114 58.4805 14.5386C70.4776 8.06582 85.4618 12.5654 91.9487 24.5888C98.4357 36.6121 93.9688 51.6061 81.9717 58.0789Z" fill="white"/>
</mask>
<g mask="url(#mask0_853_2998)">
<path d="M96.0907 43.4937L96.4858 38.1331L53.2846 15.3167L47.3813 25.8916L96.0907 43.4937Z" fill="#FDE396"/>
<path d="M96.8295 53.0491L97.1565 47.8512L45.4004 37.0378L43.3298 47.0556L96.8295 53.0491Z" fill="#FDE396"/>
</g>
<path d="M52.4824 45.8825C55.1382 50.6914 59.6907 54.2677 64.9824 55.7053C78.9578 59.513 92.5387 48.3796 91.3466 33.8834C90.0092 19.1077 73.9101 10.385 60.8414 17.391C50.6221 22.8235 46.836 35.7574 52.4822 45.8821L52.4824 45.8825ZM53.9148 45.1097C48.9975 35.8428 52.5646 24.0896 61.7817 19.1338C73.8978 12.5949 88.683 20.2824 90.3338 33.9862C91.219 41.1653 87.9779 48.4112 81.9498 52.4261C72.2885 58.917 59.2899 55.3585 53.9144 45.1099L53.9148 45.1097Z" fill="#C1892C"/>
<path d="M81.4683 39.9845C81.4683 39.9845 88.0417 39.8871 86.2825 32.3419C84.8495 27.4011 77.7267 21.7204 69.0613 25.3663C60.3959 29.0123 54.9671 35.5166 57.1881 42.7748C59.4092 50.033 67.2994 50.6619 69.6632 47.0467C69.6748 47.0682 69.1914 49.9803 70.9291 50.5358C72.6668 51.0913 74.4941 49.3846 73.9394 45.6428C73.9394 45.6428 75.925 49.5133 78.3737 47.6261C80.8224 45.7389 78.6458 42.8465 78.4388 42.7006C78.4388 42.7006 81.2454 46.6171 83.4306 43.7652C85.6158 40.9132 81.4681 39.9851 81.4681 39.9851L81.4683 39.9845Z" fill="#D78F20"/>
<path d="M81.4839 38.575C81.4839 38.575 88.0574 38.4777 86.2981 30.9325C84.8651 25.9917 77.7423 20.3109 69.0769 23.9569C60.4115 27.6029 54.9827 34.1071 57.2038 41.3654C59.4248 48.6236 67.315 49.2525 69.6789 45.6373C69.6904 45.6587 69.2071 48.5709 70.9447 49.1264C72.6824 49.6819 74.5097 47.9752 73.955 44.2334C73.955 44.2334 75.9407 48.1039 78.3894 46.2167C80.838 44.3295 78.6614 41.4371 78.4544 41.2912C78.4544 41.2912 81.2611 45.2077 83.4462 42.3557C85.6314 39.5038 81.4837 38.5756 81.4837 38.5756L81.4839 38.575Z" fill="#F8AE1B"/>
<path d="M79.9783 34.0602C78.0587 35.0959 75.6612 34.3759 74.6233 32.4522C73.5854 30.5284 74.3001 28.1294 76.2197 27.0937C78.1392 26.0581 80.5367 26.778 81.5746 28.7018C82.6125 30.6255 81.8978 33.0246 79.9783 34.0602Z" fill="#D78F20"/>
<path d="M79.7947 34.4235C77.8751 35.4592 75.4776 34.7392 74.4397 32.8155C73.4018 30.8917 74.1165 28.4927 76.0361 27.457C77.9556 26.4213 80.3531 27.1413 81.391 29.065C82.429 30.9888 81.7142 33.3879 79.7947 34.4235Z" fill="#996929"/>
<path d="M66.2088 41.6203C64.2892 42.6559 61.8917 41.936 60.8538 40.0122C59.8159 38.0885 60.5306 35.6894 62.4501 34.6538C64.3697 33.6181 66.7672 34.3381 67.8051 36.2618C68.843 38.1856 68.1283 40.5846 66.2088 41.6203Z" fill="#D78F20"/>
<path d="M66.0252 41.9836C64.1056 43.0192 61.7081 42.2993 60.6702 40.3755C59.6323 38.4518 60.347 36.0527 62.2665 35.0171C64.1861 33.9814 66.5836 34.7014 67.6215 36.6251C68.6594 38.5488 67.9447 40.9479 66.0252 41.9836Z" fill="#996929"/>
<path d="M70.6624 39.174C70.1653 39.2669 69.6452 38.7194 69.5007 37.9513C69.3562 37.1831 69.642 36.4851 70.1391 36.3923C70.6361 36.2994 71.1562 36.8468 71.3007 37.615C71.4452 38.3832 71.1594 39.0811 70.6624 39.174Z" fill="#D78F20"/>
<path d="M70.5335 39.475C70.0364 39.5679 69.5163 39.0204 69.3718 38.2523C69.2273 37.4841 69.5131 36.7861 70.0102 36.6933C70.5072 36.6004 71.0273 37.1479 71.1718 37.916C71.3163 38.6842 71.0305 39.3822 70.5335 39.475Z" fill="#996929"/>
<path d="M73.1454 36.8217C72.5828 36.2792 72.4108 35.5439 72.7613 35.1795C73.1119 34.815 73.8522 34.9594 74.4148 35.502C74.9775 36.0445 75.1494 36.7798 74.7989 37.1442C74.4484 37.5087 73.7081 37.3643 73.1454 36.8217Z" fill="#D78F20"/>
<path d="M72.8212 36.7639C72.2586 36.2213 72.0866 35.4861 72.4371 35.1216C72.7877 34.7572 73.5279 34.9016 74.0906 35.4441C74.6533 35.9867 74.8252 36.7219 74.4747 37.0864C74.1242 37.4508 73.3839 37.3064 72.8212 36.7639Z" fill="#996929"/>
</g>
<g clip-path="url(#clip1_853_2998)">
<path d="M30.5365 103.98C37.9735 107.992 47.2623 105.203 51.2836 97.7496C55.3049 90.2963 52.5359 81.0014 45.0988 76.9889C37.6617 72.9764 28.3729 75.7657 24.3516 83.2191C20.3304 90.6724 23.0994 99.9673 30.5365 103.98Z" fill="#C1892C"/>
<path d="M28.2743 103.403C35.794 107.46 45.1861 104.64 49.252 97.1039C53.318 89.5677 50.5182 80.1695 42.9985 76.1124C35.4788 72.0553 26.0867 74.8756 22.0207 82.4118C17.9547 89.948 20.7545 99.3462 28.2743 103.403Z" fill="#FFC905"/>
<mask id="mask1_853_2998" style="mask-type:luminance" maskUnits="userSpaceOnUse" x="20" y="74" width="32" height="32">
<path d="M28.2743 103.403C35.794 107.46 45.1861 104.64 49.252 97.1036C53.318 89.5675 50.5182 80.1693 42.9985 76.1121C35.4788 72.055 26.0867 74.8754 22.0207 82.4116C17.9547 89.9477 20.7545 99.3459 28.2743 103.403Z" fill="white"/>
</mask>
<g mask="url(#mask1_853_2998)">
<path d="M19.4241 94.2613L19.1764 90.9013L46.2548 76.6001L49.9549 83.2284L19.4241 94.2613Z" fill="#FDE396"/>
<path d="M18.9609 100.25L18.7559 96.9924L51.1965 90.2146L52.4943 96.4937L18.9609 100.25Z" fill="#FDE396"/>
</g>
<path d="M46.758 95.7586C45.0933 98.7727 42.2398 101.014 38.923 101.915C30.1633 104.302 21.6508 97.3237 22.3981 88.2375C23.2363 78.9762 33.3272 73.5089 41.5185 77.9002C47.924 81.3053 50.2971 89.4122 46.7581 95.7583L46.758 95.7586ZM45.8601 95.2741C48.9423 89.4657 46.7064 82.0988 40.9292 78.9926C33.3349 74.894 24.0676 79.7125 23.0329 88.302C22.478 92.8018 24.5095 97.3435 28.2879 99.8601C34.3436 103.929 42.491 101.698 45.8604 95.2743L45.8601 95.2741Z" fill="#C1892C"/>
<path d="M28.5887 92.0616C28.5887 92.0616 24.4685 92.0006 25.5712 87.2713C26.4694 84.1744 30.9339 80.6138 36.3653 82.8991C41.7968 85.1843 45.1995 89.2612 43.8074 93.8106C42.4152 98.3601 37.4697 98.7542 35.988 96.4882C35.9808 96.5017 36.2838 98.327 35.1946 98.6752C34.1055 99.0234 32.9601 97.9536 33.3078 95.6083C33.3078 95.6083 32.0632 98.0343 30.5283 96.8514C28.9935 95.6685 30.3578 93.8556 30.4876 93.7641C30.4876 93.7641 28.7284 96.219 27.3587 94.4314C25.989 92.6438 28.5888 92.062 28.5888 92.062L28.5887 92.0616Z" fill="#D78F20"/>
<path d="M28.5809 91.1781C28.5809 91.1781 24.4607 91.1171 25.5634 86.3878C26.4616 83.2909 30.9261 79.7302 36.3575 82.0155C41.789 84.3008 45.1917 88.3776 43.7996 92.9271C42.4074 97.4765 37.4619 97.8707 35.9802 95.6047C35.973 95.6181 36.276 97.4434 35.1868 97.7916C34.0976 98.1398 32.9523 97.0701 33.2999 94.7247C33.2999 94.7247 32.0554 97.1507 30.5205 95.9679C28.9857 94.785 30.35 92.972 30.4797 92.8806C30.4797 92.8806 28.7206 95.3354 27.3509 93.5478C25.9812 91.7602 28.581 91.1785 28.581 91.1785L28.5809 91.1781Z" fill="#F8AE1B"/>
<path d="M29.5258 88.3484C30.7289 88.9975 32.2317 88.5462 32.8822 87.3404C33.5328 86.1346 33.0848 84.6309 31.8817 83.9818C30.6785 83.3326 29.1757 83.7839 28.5252 84.9897C27.8746 86.1955 28.3226 87.6992 29.5258 88.3484Z" fill="#D78F20"/>
<path d="M29.6429 88.5761C30.8461 89.2253 32.3489 88.774 32.9994 87.5682C33.65 86.3624 33.202 84.8587 31.9988 84.2096C30.7957 83.5604 29.2929 84.0117 28.6424 85.2175C27.9918 86.4233 28.4398 87.927 29.6429 88.5761Z" fill="#996929"/>
<path d="M38.1547 93.0869C39.3578 93.736 40.8606 93.2848 41.5111 92.079C42.1617 90.8732 41.7137 89.3694 40.5106 88.7203C39.3074 88.0712 37.8046 88.5224 37.1541 89.7282C36.5035 90.934 36.9515 92.4377 38.1547 93.0869Z" fill="#D78F20"/>
<path d="M38.2718 93.3147C39.475 93.9638 40.9778 93.5125 41.6283 92.3067C42.2789 91.1009 41.8309 89.5972 40.6277 88.9481C39.4246 88.2989 37.9218 88.7502 37.2713 89.956C36.6207 91.1618 37.0687 92.6655 38.2718 93.3147Z" fill="#996929"/>
<path d="M35.365 91.5536C35.6766 91.6118 36.0025 91.2686 36.0931 90.7872C36.1837 90.3057 36.0046 89.8682 35.693 89.81C35.3815 89.7518 35.0555 90.0949 34.9649 90.5764C34.8743 91.0579 35.0535 91.4954 35.365 91.5536Z" fill="#D78F20"/>
<path d="M35.4431 91.7423C35.7547 91.8005 36.0807 91.4574 36.1713 90.9759C36.2618 90.4944 36.0827 90.0569 35.7711 89.9987C35.4596 89.9405 35.1336 90.2836 35.043 90.7651C34.9524 91.2466 35.1316 91.6841 35.4431 91.7423Z" fill="#996929"/>
<path d="M33.8092 90.0794C34.1619 89.7393 34.2697 89.2784 34.05 89.05C33.8302 88.8216 33.3662 88.9121 33.0136 89.2522C32.6609 89.5922 32.5531 90.0531 32.7728 90.2815C32.9925 90.51 33.4565 90.4194 33.8092 90.0794Z" fill="#D78F20"/>
<path d="M34.0123 90.043C34.365 89.7029 34.4728 89.2421 34.2531 89.0136C34.0334 88.7852 33.5694 88.8757 33.2167 89.2158C32.864 89.5559 32.7562 90.0167 32.9759 90.2451C33.1957 90.4736 33.6597 90.3831 34.0123 90.043Z" fill="#996929"/>
</g>
<g clip-path="url(#clip2_853_2998)">
<path d="M11.9754 57.5756C17.5675 59.5619 23.7145 56.6288 25.7051 51.0245C27.6957 45.4202 24.7761 39.2668 19.184 37.2805C13.5919 35.2943 7.4449 38.2273 5.4543 43.8316C3.4637 49.436 6.3833 55.5894 11.9754 57.5756Z" fill="#C1892C"/>
<path d="M10.3438 57.4188C15.998 59.4271 22.2134 56.4615 24.2261 50.7949C26.2388 45.1282 23.2867 38.9065 17.6325 36.8981C11.9782 34.8898 5.7629 37.8554 3.75017 43.5221C1.73745 49.1887 4.6895 55.4105 10.3438 57.4188Z" fill="#FFC905"/>
<mask id="mask2_853_2998" style="mask-type:luminance" maskUnits="userSpaceOnUse" x="3" y="36" width="22" height="23">
<path d="M10.3438 57.4186C15.998 59.4269 22.2134 56.4613 24.2261 50.7946C26.2388 45.128 23.2867 38.9062 17.6325 36.8979C11.9782 34.8895 5.7629 37.8552 3.75017 43.5218C1.73745 49.1884 4.6895 55.4102 10.3438 57.4186Z" fill="white"/>
</mask>
<g mask="url(#mask2_853_2998)">
<path d="M3.22008 52.0246L2.68748 49.7193L19.9446 36.8871L23.2241 41.09L3.22008 52.0246Z" fill="#FDE396"/>
<path d="M3.5397 56.2306L3.04767 53.9916L24.8338 45.805L26.4086 50.0234L3.5397 56.2306Z" fill="#FDE396"/>
</g>
<path d="M22.3481 50.1287C21.5164 52.3993 19.7768 54.2613 17.5717 55.2427C11.7486 57.8395 5.09176 53.9104 4.63486 47.5244C4.22233 41.007 10.6384 36.1293 16.7947 38.2975C21.6057 39.9729 24.1229 45.3444 22.3482 50.1285L22.3481 50.1287ZM21.673 49.8889C23.1884 45.527 20.8459 40.6544 16.503 39.1189C10.7925 37.0898 4.87829 41.4288 5.08234 47.501C5.18036 50.6834 7.07784 53.6173 9.97019 54.9581C14.6096 57.1315 20.0245 54.7088 21.6732 49.889L21.673 49.8889Z" fill="#C1892C"/>
<path d="M9.34394 49.5138C9.34394 49.5138 6.47796 49.9138 6.7355 46.5133C7.02636 44.2676 9.74248 41.3172 13.7573 42.32C17.772 43.3229 20.5712 45.7869 20.0935 49.0937C19.6158 52.4005 16.2259 53.205 14.9543 51.7915C14.9507 51.8016 15.357 53.0358 14.6385 53.3944C13.92 53.753 13.0102 53.1335 12.9997 51.4685C12.9997 51.4685 12.3964 53.2858 11.2043 52.6297C10.0121 51.9735 10.7643 50.5689 10.8445 50.4915C10.8445 50.4915 9.8872 52.384 8.74474 51.2904C7.60227 50.1969 9.34406 49.514 9.34406 49.514L9.34394 49.5138Z" fill="#D78F20"/>
<path d="M9.24238 48.9015C9.24238 48.9015 6.37639 49.3015 6.63394 45.901C6.9248 43.6553 9.64092 40.7049 13.6557 41.7077C17.6705 42.7106 20.4697 45.1746 19.9919 48.4814C19.5142 51.7882 16.1243 52.5927 14.8528 51.1791C14.8492 51.1893 15.2554 52.4235 14.5369 52.7821C13.8184 53.1407 12.9087 52.5212 12.8982 50.8562C12.8982 50.8562 12.2949 52.6735 11.1027 52.0173C9.91055 51.3612 10.6628 49.9566 10.743 49.8792C10.743 49.8792 9.78564 51.7717 8.64318 50.6781C7.50071 49.5846 9.2425 48.9017 9.2425 48.9017L9.24238 48.9015Z" fill="#F8AE1B"/>
<path d="M9.59298 46.8364C10.4977 47.1577 11.4921 46.6832 11.8142 45.7765C12.1362 44.8699 11.6639 43.8744 10.7592 43.553C9.85449 43.2317 8.86003 43.7062 8.53799 44.6129C8.21595 45.5195 8.68829 46.515 9.59298 46.8364Z" fill="#D78F20"/>
<path d="M9.69844 46.9819C10.6031 47.3032 11.5976 46.8287 11.9196 45.922C12.2417 45.0154 11.7693 44.0199 10.8646 43.6985C9.95996 43.3772 8.9655 43.8517 8.64346 44.7584C8.32142 45.665 8.79375 46.6605 9.69844 46.9819Z" fill="#996929"/>
<path d="M16.093 49.1984C16.9977 49.5198 17.9921 49.0452 18.3142 48.1386C18.6362 47.2319 18.1639 46.2364 17.2592 45.9151C16.3545 45.5937 15.36 46.0683 15.038 46.9749C14.716 47.8816 15.1883 48.8771 16.093 49.1984Z" fill="#D78F20"/>
<path d="M16.1984 49.3442C17.1031 49.6655 18.0976 49.191 18.4196 48.2843C18.7417 47.3777 18.2693 46.3822 17.3646 46.0608C16.46 45.7395 15.4655 46.214 15.1435 47.1207C14.8214 48.0273 15.2938 49.0228 16.1984 49.3442Z" fill="#996929"/>
<path d="M13.9913 48.4336C14.2137 48.4406 14.4031 48.1674 14.4143 47.8236C14.4255 47.4797 14.2542 47.1953 14.0317 47.1884C13.8093 47.1814 13.6198 47.4545 13.6087 47.7984C13.5975 48.1423 13.7688 48.4267 13.9913 48.4336Z" fill="#D78F20"/>
<path d="M14.0694 48.5559C14.2919 48.5629 14.4813 48.2898 14.4924 47.9459C14.5036 47.602 14.3323 47.3176 14.1098 47.3107C13.8874 47.3037 13.698 47.5769 13.6868 47.9207C13.6756 48.2646 13.8469 48.549 14.0694 48.5559Z" fill="#996929"/>
<path d="M12.7485 47.5777C12.9568 47.3039 12.9821 46.9725 12.8051 46.8375C12.6281 46.7026 12.3158 46.8152 12.1075 47.0891C11.8993 47.3629 11.874 47.6944 12.051 47.8293C12.228 47.9642 12.5403 47.8516 12.7485 47.5777Z" fill="#D78F20"/>
<path d="M12.8852 47.5309C13.0935 47.257 13.1188 46.9256 12.9418 46.7906C12.7648 46.6557 12.4525 46.7683 12.2442 47.0422C12.036 47.3161 12.0107 47.6475 12.1877 47.7824C12.3647 47.9174 12.677 47.8047 12.8852 47.5309Z" fill="#996929"/>
</g>
<defs>
<clipPath id="clip0_853_2998">
<rect width="52.7103" height="49.8352" fill="white" transform="matrix(-0.880079 0.474828 0.474828 0.880079 80.0312 2.50073)"/>
</clipPath>
<clipPath id="clip1_853_2998">
<rect width="33.0386" height="31.2365" fill="white" transform="translate(29.4922 68.5669) rotate(28.3481)"/>
</clipPath>
<clipPath id="clip2_853_2998">
<rect width="23.2016" height="21.936" fill="white" transform="translate(7.44531 33.1116) rotate(19.5545)"/>
</clipPath>
</defs>
</svg>
