<svg width="102" height="118" viewBox="0 0 102 118" fill="none" xmlns="http://www.w3.org/2000/svg">
<path d="M3.17962 85.3281C3.17962 85.3281 46.8261 81.1189 73.5585 41.7127C73.5585 41.7127 81.2602 49.7066 89.2299 50.344C89.2299 50.344 74.4159 91.1852 46.9942 99.0983C19.5725 107.011 9.82196 94.523 3.17962 85.3281Z" fill="#EAEAEA"/>
<path d="M3.21875 85.3455C3.21875 85.3455 26.0115 99.1997 47.2393 86.4603C68.4671 73.7209 82.0028 50.9048 82.8022 46.9584C82.8022 46.9584 77.2871 45.7152 73.7684 41.5846C73.7684 41.5846 51.6221 73.8186 3.21875 85.3455Z" fill="#D1D1D1"/>
<path d="M87.1968 7.79571C82.7224 11.6073 81.7366 17.989 84.5536 22.9074L77.4382 36.985L90.5363 45.0356L98.2101 28.5316C99.8462 28.0802 101.412 27.2736 102.79 26.1C107.844 21.7945 108.451 14.2076 104.145 9.15344C99.8397 4.09924 92.251 3.49016 87.1968 7.79571ZM96.619 20.0171C95.0661 21.34 92.7355 21.1535 91.4126 19.6007C90.0897 18.0478 90.2762 15.7172 91.8291 14.3943C93.3819 13.0714 95.7125 13.2579 97.0354 14.8107C98.3583 16.3636 98.1718 18.6942 96.619 20.0171Z" fill="#CC876A"/>
<path d="M65.9622 36.1984C65.9622 36.1984 67.1058 41.9567 72.9061 45.6289C78.571 49.2149 87.0518 55.2188 96.5854 52.6935C97.3728 52.4842 98.0597 51.9611 98.3895 51.2148C98.8161 50.2542 98.7738 48.766 96.6627 46.7794C93.6128 44.8245 70.6183 32.1311 68.2613 32.8515C65.9043 33.5718 65.7818 35.5222 65.9603 36.1961L65.9622 36.1984Z" fill="#FFC800"/>
<mask id="mask0_785_2891" style="mask-type:luminance" maskUnits="userSpaceOnUse" x="65" y="32" width="34" height="22">
<path d="M65.9622 36.1984C65.9622 36.1984 67.1058 41.9567 72.9061 45.6289C78.571 49.2149 87.0518 55.2188 96.5854 52.6935C97.3728 52.4842 98.0597 51.9611 98.3895 51.2148C98.8161 50.2542 98.7738 48.766 96.6627 46.7794C93.6128 44.8245 70.6183 32.1311 68.2613 32.8515C65.9043 33.5718 65.7818 35.5222 65.9603 36.1961L65.9622 36.1984Z" fill="white"/>
</mask>
<g mask="url(#mask0_785_2891)">
<path d="M94.5544 57.8792C96.1244 55.6505 91.2759 49.5317 83.7249 44.2123C76.1739 38.893 68.7799 36.3875 67.2099 38.6161C65.6399 40.8447 70.4885 46.9636 78.0395 52.2829C85.5904 57.6023 92.9844 60.1078 94.5544 57.8792Z" fill="#DAAD3C"/>
</g>
<path d="M91.3873 43.137L79.2158 33.4245L81.0671 29.8114L91.9278 33.1596L83.0212 25.9594L84.5554 22.9074L98.9547 28.3564L98.2119 28.5315L97.4458 30.177L85.9838 25.1305L95.8818 33.5492L94.6938 36.097L82.1405 32.5192L92.4751 40.9267L91.3873 43.137Z" fill="#825440"/>
</svg>
