<svg width="155" height="155" viewBox="0 0 155 155" fill="none" xmlns="http://www.w3.org/2000/svg">
<g clip-path="url(#clip0_785_2856)">
<path d="M13.3755 65.419L78.0893 74.6032C81.6959 75.2384 81.1994 80.4092 77.5156 80.3327L12.2656 76.5041C9.19217 76.3243 6.84608 73.6863 7.0259 70.6128C7.2006 67.3774 10.1697 64.9488 13.3755 65.419Z" fill="#A2664C"/>
<path d="M141.477 89.4445L76.763 80.2603C73.1564 79.6251 73.6528 74.4543 77.3366 74.5308L142.587 78.3594C145.66 78.5392 148.006 81.1772 147.826 84.2507C147.652 87.4861 144.683 89.9147 141.477 89.4445Z" fill="#A2664C"/>
<path d="M65.4132 141.483L74.5975 76.7691C75.2327 73.1625 80.4034 73.6589 80.327 77.3427L76.4984 142.593C76.3186 145.666 73.6805 148.012 70.6041 147.832C67.3687 147.657 64.94 144.688 65.4102 141.483L65.4132 141.483Z" fill="#A2664C"/>
<path d="M89.4421 13.3801L80.2579 78.0939C79.6226 81.7004 74.4519 81.204 74.5283 77.5202L78.357 12.2702C78.5368 9.19675 81.1748 6.85066 84.2482 7.03048C87.4836 7.20518 89.9123 10.1743 89.4421 13.3801Z" fill="#A2664C"/>
<path d="M25.4772 116.736L76.1423 75.4402C79.0569 73.2223 82.5189 77.0959 79.9598 79.7484L32.8659 125.075C30.6479 127.21 27.1185 127.143 24.9802 124.925C22.7215 122.6 22.9554 118.774 25.4742 116.736L25.4772 116.736Z" fill="#A2664C"/>
<path d="M130.059 38.9535L79.394 80.2494C76.4795 82.4673 73.0175 78.5937 75.5765 75.9412L122.67 30.6145C124.888 28.4792 128.418 28.5463 130.556 30.7645C132.815 33.0892 132.581 36.9156 130.062 38.9538L130.059 38.9535Z" fill="#A2664C"/>
<path d="M43.1188 22.6494L80.2912 76.4133C82.2732 79.4931 78.1388 82.6396 75.6953 79.8792L34.2236 29.3579C32.2689 26.9784 32.6146 23.4647 34.9971 21.5103C37.4916 19.4422 41.2908 19.9779 43.1219 22.6497L43.1188 22.6494Z" fill="#A2664C"/>
<path d="M112.414 133.04L75.2413 79.2761C73.2592 76.1963 77.3937 73.0498 79.8371 75.8102L121.309 126.331C123.264 128.711 122.918 132.225 120.535 134.179C118.041 136.247 114.242 135.711 112.411 133.04L112.414 133.04Z" fill="#A2664C"/>
<path d="M70.7138 144.517C72.0828 144.654 73.3037 143.655 73.4408 142.286C73.5778 140.917 72.5792 139.696 71.2102 139.559C69.8412 139.422 68.6203 140.421 68.4832 141.79C68.3461 143.159 69.3448 144.38 70.7138 144.517Z" fill="#571F10"/>
<path d="M28.8974 123.6C30.2664 123.737 31.4873 122.738 31.6244 121.369C31.7614 120 30.7628 118.779 29.3938 118.642C28.0248 118.505 26.8039 119.504 26.6668 120.873C26.5297 122.242 27.5284 123.463 28.8974 123.6Z" fill="#571F10"/>
<path d="M116.612 132.163C117.981 132.3 119.202 131.301 119.339 129.932C119.476 128.563 118.478 127.343 117.109 127.205C115.74 127.068 114.519 128.067 114.382 129.436C114.245 130.805 115.243 132.026 116.612 132.163Z" fill="#571F10"/>
<path d="M141.776 86.4802C143.145 86.6172 144.366 85.6186 144.503 84.2496C144.64 82.8806 143.642 81.6597 142.273 81.5226C140.904 81.3855 139.683 82.3842 139.546 83.7532C139.409 85.1222 140.407 86.3431 141.776 86.4802Z" fill="#571F10"/>
<path d="M126.116 37.2641C127.485 37.4012 128.706 36.4025 128.843 35.0335C128.98 33.6645 127.982 32.4436 126.613 32.3065C125.244 32.1695 124.023 33.1681 123.886 34.5371C123.748 35.9061 124.747 37.127 126.116 37.2641Z" fill="#571F10"/>
<path d="M83.7724 15.3161C85.1414 15.4532 86.3623 14.4545 86.4994 13.0855C86.6364 11.7165 85.6378 10.4956 84.2688 10.3585C82.8998 10.2215 81.6789 11.2201 81.5418 12.5891C81.4047 13.9581 82.4034 15.179 83.7724 15.3161Z" fill="#571F10"/>
<path d="M38.4247 28.4838C39.7937 28.6209 41.0146 27.6222 41.1517 26.2532C41.2888 24.8842 40.2901 23.6633 38.9211 23.5263C37.5521 23.3892 36.3312 24.3879 36.1941 25.7569C36.0571 27.1258 37.0557 28.3467 38.4247 28.4838Z" fill="#571F10"/>
<path d="M12.6122 73.0661C13.9812 73.2032 15.2021 72.2045 15.3392 70.8355C15.4763 69.4665 14.4776 68.2456 13.1086 68.1085C11.7396 67.9715 10.5187 68.9701 10.3816 70.3391C10.2446 71.7081 11.2432 72.929 12.6122 73.0661Z" fill="#571F10"/>
<path d="M82.6148 29.4269C56.0811 26.7702 32.4175 46.1263 29.7608 72.66C27.1041 99.1938 46.4602 122.857 72.9939 125.514C99.5277 128.171 123.191 108.815 125.848 82.2809C128.505 55.7472 109.149 32.0836 82.6148 29.4269ZM74.2512 112.957C54.6502 110.995 40.3522 93.515 42.3148 73.914C44.2774 54.313 61.7572 40.015 81.3582 41.9776C100.959 43.9402 115.257 61.4199 113.295 81.021C111.332 100.622 93.8522 114.92 74.2512 112.957Z" fill="#CC876A"/>
<path d="M73.6332 122.243C48.9601 119.772 30.8983 97.6913 33.3688 73.0182C35.8392 48.345 57.923 30.2866 82.5932 32.7567C107.263 35.2269 125.328 57.3083 122.858 81.9815C120.387 106.655 98.3061 124.716 73.6329 122.246L73.6332 122.243ZM82.3516 35.1692C59.0113 32.8322 38.1182 49.9194 35.7809 73.2627C33.4436 96.606 50.5312 117.496 73.8745 119.833C97.2178 122.171 118.108 105.083 120.445 81.7399C122.782 58.3966 105.695 37.5065 82.3516 35.1692Z" fill="#FFC800"/>
<path d="M75.9592 92.1309C84.2847 92.9645 91.7097 86.8911 92.5433 78.5656C93.3769 70.2401 87.3035 62.8152 78.978 61.9815C70.6524 61.1479 63.2275 67.2213 62.3939 75.5469C61.5603 83.8724 67.6337 91.2973 75.9592 92.1309Z" fill="#571F10"/>
<path d="M79.4044 57.672C68.6992 56.6002 59.1515 64.4099 58.0796 75.1151C57.0077 85.8203 64.8175 95.368 75.5227 96.4398C86.2278 97.5117 95.7755 89.7019 96.8474 78.9968C97.9193 68.2916 90.1095 58.7439 79.4044 57.672ZM76.0942 90.7619C68.5252 90.004 63.003 83.2529 63.7609 75.6839C64.5188 68.1149 71.2698 62.5928 78.8388 63.3506C86.4078 64.1085 91.93 70.8595 91.1721 78.4285C90.4143 85.9975 83.6632 91.5197 76.0942 90.7619Z" fill="#CC876A"/>
<path d="M84.9439 73.6746C85.3236 73.5938 87.4143 73.0935 87.4949 72.9888C87.7331 72.6777 87.0985 71.5633 88.0057 70.442C88.9099 69.3203 90.4491 69.1881 91.7409 69.6707C93.9253 70.4864 92.457 72.6786 92.5571 72.8348C92.6018 72.9063 93.6888 73.2435 94.0736 73.5684C96.5132 75.6371 92.6515 78.0982 89.8611 76.1863C89.4932 75.9362 89.2783 75.2842 88.8254 75.245C88.6173 75.2241 85.0862 76.2686 84.8088 76.4236C84.009 76.8673 83.1045 79.8469 81.7692 80.3163C83.1662 80.843 85.8582 83.3725 87.0774 83.6682C87.7731 83.8383 87.6718 83.2982 88.1718 83.0498C91.4388 81.4185 94.8582 85.6869 91.4827 87.1246C91.1042 87.2846 90.4842 87.2104 90.4414 87.2426C90.1504 87.4724 90.8187 89.4673 89.3193 90.0542C87.0463 90.9444 84.311 87.9659 86.0006 85.8751C85.0452 85.7429 80.8432 82.2033 80.3983 82.57C80.3143 84.2611 78.7376 85.1327 77.3488 83.9459C77.1103 83.7423 76.8872 83.1413 76.8031 83.1298C76.6318 83.1066 76.0949 84.3016 74.5045 83.7586C73.6976 83.4828 73.7725 82.7959 73.4335 82.5609C73.3425 82.497 72.8625 83.853 71.5719 83.4802C69.9734 83.0186 70.5846 81.234 70.4981 81.1249C70.29 80.8604 66.078 82.0742 65.9257 82.2569C65.6313 82.6112 65.7802 83.5581 65.5781 84.1166C64.9916 85.7452 62.1238 85.6713 62.0276 83.8037C62.0029 83.3505 62.2702 82.3843 62.1478 82.1467C62.0712 81.9989 61.0236 81.9062 60.9619 80.7274C60.8997 79.5242 61.4622 78.6516 62.7097 78.5724C64.6714 78.449 64.8702 80.1136 65.0201 80.1378C65.2478 80.1758 69.334 78.8489 69.3721 78.6212C68.4042 77.7628 68.1615 74.5587 67.6492 74.0171C67.5144 73.8726 65.8702 72.8948 65.7191 72.8827C65.2261 72.8485 65.2332 73.3549 64.938 73.505C63.3164 74.3386 60.9252 73.2159 61.7158 71.2818C62.0144 70.5503 63.2469 70.4391 63.3308 70.3318C63.5766 70.0062 63.3265 68.5191 64.2258 67.933C66.3016 66.5784 68.4258 69.1211 67.1677 71.1911C68.6473 72.1403 68.6472 70.4682 69.347 69.4418C73.9025 62.7586 84.603 65.4595 84.9445 73.6685L84.9439 73.6746ZM78.2253 75.4354C79.9982 77.5927 82.9652 75.307 81.4978 72.6534C79.9072 69.7712 76.1075 72.8599 78.2253 75.4354ZM72.3605 71.1019C70.2493 71.4418 69.8182 75.3825 72.0557 75.5761C74.7703 75.8113 75.6669 70.568 72.3605 71.1019ZM74.5623 77.1885C75.0225 77.4904 75.5946 76.9477 75.8343 76.9565C76.1407 76.9689 76.7247 77.7979 77.179 77.2465C77.9308 74.0262 74.1912 74.264 74.562 77.1915L74.5623 77.1885Z" fill="#FEFEFE"/>
</g>
<defs>
<clipPath id="clip0_785_2856">
<rect width="141.472" height="141.472" fill="white" transform="translate(14.0947) rotate(5.71778)"/>
</clipPath>
</defs>
</svg>
