<svg width="130" height="212" viewBox="0 0 130 212" fill="none" xmlns="http://www.w3.org/2000/svg">
<g clip-path="url(#clip0_785_2904)">
<path d="M73.0099 34.9863C72.7146 35.3425 62.6346 27.7005 62.6346 27.7005C62.6346 27.7005 70.9767 21.6866 76.0672 19.047C79.8289 17.0959 81.8218 16.436 87.3663 16.5977C90.5471 16.6898 93.3274 14.9536 95.1554 14.8617C95.1554 14.8617 97.9264 18.2499 97.8755 22.3955C100.466 21.8735 101.665 15.082 101.665 15.082L108.059 17.3582L105.029 24.6288C104.51 25.8781 103.799 27.0367 102.928 28.0699L99.8401 31.7223" fill="black"/>
<path d="M33.0733 132.099C33.0733 132.099 66.7041 137.844 80.4962 108.979C81.077 107.763 85.7328 97.7581 86.1935 96.4896C88.5656 89.9428 92.2036 73.33 91.2099 57.898L91.1311 57.5142C90.7365 55.8688 96.4443 30.4358 96.4443 30.4358C96.4443 30.4358 75.6374 21.7202 61.6035 50.032C47.5696 78.3438 27.0576 121.812 27.0576 121.812L33.076 132.099L33.0733 132.099Z" fill="#CC2222"/>
<mask id="mask0_785_2904" style="mask-type:luminance" maskUnits="userSpaceOnUse" x="27" y="29" width="70" height="104">
<path d="M33.0733 132.098C33.0733 132.098 66.7041 137.844 80.4962 108.979C81.077 107.763 85.7328 97.7579 86.1935 96.4893C88.5656 89.9426 92.2036 73.3298 91.2099 57.8978L91.1311 57.514C90.7365 55.8685 96.4443 30.4355 96.4443 30.4355C96.4443 30.4355 75.6374 21.7199 61.6035 50.0317C47.5696 78.3436 27.0576 121.812 27.0576 121.812L33.076 132.099L33.0733 132.098Z" fill="white"/>
</mask>
<g mask="url(#mask0_785_2904)">
<path d="M33.8407 137.312C20.6042 132.716 16.498 109.901 24.6693 86.3545C32.8407 62.8079 50.1951 47.4458 63.4316 52.0422C76.6681 56.6386 80.7743 79.453 72.603 103C64.4317 126.546 47.0772 141.908 33.8407 137.312Z" fill="#9B1717"/>
</g>
<path d="M95.2238 36.3451C95.2238 36.3451 86.9677 33.6662 83.0321 36.8888C79.0965 40.1114 76.7926 46.4135 79.1075 50.7321C81.4224 55.0508 85.9845 57.0301 91.1724 57.6421L95.2212 36.3446L95.2238 36.3451Z" fill="#FBFDE7"/>
<path d="M67.6736 86.5384C67.9295 85.6486 68.1927 84.7629 68.4947 83.8873C70.2113 78.9355 75.1554 63.165 71.1168 56.3651C66.2934 48.247 60.7396 47.6061 49.167 56.0708C37.5943 64.5355 22.9697 91.9484 20.8034 102.616C18.6371 113.284 14.8445 132.507 15.3271 135.785C15.3271 135.785 39.7371 126.232 48.1621 116.703C48.7006 116.095 49.2428 115.495 49.8018 114.907C53.4537 111.066 65.2547 94.9423 67.6705 86.5405L67.6736 86.5384Z" fill="#12228B"/>
<mask id="mask1_785_2904" style="mask-type:luminance" maskUnits="userSpaceOnUse" x="15" y="49" width="58" height="87">
<path d="M67.6736 86.5384C67.9295 85.6486 68.1927 84.7629 68.4947 83.8873C70.2113 78.9355 75.1554 63.165 71.1168 56.3651C66.2934 48.247 60.7396 47.6061 49.167 56.0708C37.5943 64.5355 22.9697 91.9484 20.8034 102.616C18.6371 113.284 14.8445 132.507 15.3271 135.785C15.3271 135.785 39.7371 126.232 48.1621 116.703C48.7006 116.095 49.2428 115.495 49.8018 114.907C53.4537 111.066 65.2547 94.9423 67.6705 86.5405L67.6736 86.5384Z" fill="white"/>
</mask>
<g mask="url(#mask1_785_2904)">
<path d="M20.9333 116.245C12.0067 112.066 11.4713 94.3506 19.7375 76.6755C28.0037 59.0003 41.9414 48.0591 50.8681 52.2375C59.7947 56.4159 60.3301 74.1318 52.0639 91.8069C43.7977 109.482 29.86 120.423 20.9333 116.245Z" fill="#091355"/>
</g>
<path d="M1.96099 107.069L0.258553 116.024C0.258553 116.024 73.1241 133.893 80.7614 132.299C80.8948 132.325 87.4861 141.337 87.4861 141.337L90.5579 139.008L87.592 132.768L97.4201 134.221L98.6149 127.936C98.6149 127.936 95.0191 127.304 89.1882 126.239L98.0695 115.464L96.6483 113.887L93.5649 117.375L91.5102 111.074L89.6245 111.64L91.9801 119.452L86.6762 125.78C64.0639 121.628 16.0055 112.462 1.96099 107.069Z" fill="#825440"/>
<path d="M71.2123 128.682C71.2123 128.682 69.6914 130.609 66.9232 130.129C66.7368 130.14 73.2797 122.669 63.908 121.481C63.908 121.481 69.206 117.636 74.489 121.64C75.2853 122.299 76.745 125.3 74.9511 128.192C74.7606 128.709 72.795 130.551 70.857 130.552C70.4568 130.475 70.9882 130.346 71.2128 128.68L71.2123 128.682Z" fill="#091355"/>
<path d="M54.6732 126.137C54.6732 126.137 53.1523 128.064 50.3841 127.584C50.1978 127.594 56.7407 120.124 47.3689 118.936C47.3689 118.936 52.6669 115.091 57.9499 119.095C58.7463 119.754 60.2059 122.754 58.412 125.646C58.2216 126.163 56.2559 128.006 54.3179 128.006C53.9177 127.93 54.4492 127.801 54.6737 126.134L54.6732 126.137Z" fill="#091355"/>
<path d="M86.9352 137.381C86.9352 137.381 78.3117 138.687 80.0932 147.095C80.0932 147.095 83.4088 148.032 85.5156 145.261C85.5156 145.261 88.3767 141.46 86.9352 137.381Z" fill="#48D673"/>
<path d="M90.7091 104.647C90.7091 104.647 85.8356 109.823 91.202 114.315C91.202 114.315 93.8006 113.25 93.7572 110.413C93.7572 110.413 93.6811 106.536 90.7064 104.647L90.7091 104.647Z" fill="#48D673"/>
<path d="M109.75 102.146C109.75 102.146 110.112 116.78 95.6121 116.733C95.6121 116.733 94.2363 113.705 95.6786 109.968C96.6708 107.401 98.7178 105.387 101.228 104.261C103.53 103.229 107.092 101.899 109.749 102.149L109.75 102.146Z" fill="#48D673"/>
<path d="M96.0949 131.08C96.0949 131.08 96.2817 141.631 106.639 140.831C106.639 140.831 108.29 137.003 105.307 134.036C105.307 134.036 101.209 129.999 96.0922 131.08L96.0949 131.08Z" fill="#48D673"/>
<path d="M96.0442 129.481C96.0442 129.481 104.87 131.075 106.201 122.277C106.201 122.277 104.497 121.159 102.099 121.685C100.45 122.044 99.0383 123.099 98.1215 124.514C97.2809 125.813 96.1406 127.848 96.0437 129.484L96.0442 129.481Z" fill="#48D673"/>
<path d="M27.2552 130.251C25.2161 136.386 16.8297 161.538 10.8444 178.108C10.3946 178.706 6.68735 185.718 3.49054 185.197C3.02881 185.245 1.37367 185.283 0.784393 183.706C6.62279 169.12 16.735 143.459 20.7381 133.294C22.7623 132.356 25.0933 131.272 27.2578 130.251L27.2552 130.251Z" fill="#CC2222"/>
<path d="M34.2227 126.842C34.2227 126.842 23.9114 176.291 16.1002 179.284C15.4481 179.805 12.7519 181.37 10.8873 178.062C10.882 178.061 10.8655 178.077 10.8433 178.108C16.8312 161.538 25.2176 136.386 27.2541 130.25C30.4694 128.735 33.3157 127.364 34.2227 126.842Z" fill="#12228B"/>
<path d="M15.3276 135.787C15.3276 135.787 17.679 134.709 20.7344 133.294C16.7314 143.458 6.61909 169.12 0.780696 183.706C0.767858 183.673 0.754031 183.646 0.744308 183.612C0.744308 183.612 -5.04205 193.177 -8.37577 192.036C-9.08512 192.131 -11.5865 191.702 -10.5833 185.199C-10.5833 185.199 8.56883 141.242 15.3276 135.787Z" fill="#FFC800"/>
<path d="M89.8177 41.376C88.9728 41.2154 88.4181 40.3998 88.5789 39.5542C88.7396 38.7087 89.5549 38.1535 90.3998 38.3141C91.2447 38.4748 91.7994 39.2904 91.6386 40.1359C91.4779 40.9815 90.6626 41.5367 89.8177 41.376Z" fill="black"/>
<path d="M114.402 56.8008C114.402 56.8008 122.262 45.5527 116.14 37.4644C110.018 29.3761 96.0899 30.3275 96.0899 30.3275L92.8711 47.2587C92.8711 47.2587 107.382 49.5562 107.827 49.6408C108.272 49.7253 112.614 50.1819 114.402 56.8008Z" fill="#FFC800"/>
<path d="M108.82 49.8607C108.82 49.8607 107.091 60.7392 90.7386 57.4461L92.7758 47.2148L108.82 49.8607Z" fill="black"/>
</g>
<defs>
<clipPath id="clip0_785_2904">
<rect width="109.246" height="194.458" fill="white" transform="matrix(-0.982405 -0.186763 -0.186763 0.982405 129.641 20.4031)"/>
</clipPath>
</defs>
</svg>
