<svg width="282" height="356" viewBox="0 0 282 356" fill="none" xmlns="http://www.w3.org/2000/svg">
<g clip-path="url(#clip0_928_5109)">
<path d="M89.0187 99.5699L78.375 183.646L87.7413 206.999L144.789 210.821L135.422 98.7227L89.0187 99.5699Z" fill="#E09C2D"/>
<path d="M88.332 99.8008C88.332 99.8008 89.2426 104.814 91.3726 104.759C93.5027 104.704 95.7871 101.964 96.0992 100.95C96.0992 100.95 96.1797 104.191 98.7602 104.127C101.337 104.063 102.634 102.015 102.818 100.446C102.818 100.446 104.031 103.995 105.707 103.841C107.383 103.687 109.594 102.288 109.652 100.163C109.652 100.163 110.668 104.948 112.888 103.998C115.109 103.048 115.739 101.354 115.81 99.7848C115.81 99.7848 116.804 103.565 118.596 103.517C120.389 103.469 122.152 102.198 122.332 100.401C122.332 100.401 123.568 104.846 125.784 103.892C128.001 102.939 129.533 101.338 129.494 99.7719C129.494 99.7719 130.72 103.88 132.509 103.613C134.298 103.344 136.496 101.611 136.444 99.4863L88.332 99.8008Z" fill="#F7F0E8"/>
<path d="M87.5938 97.6444C87.5938 97.6444 110.583 39.2637 111.742 39.2637C112.9 39.2637 138.013 99.1848 138.013 99.1848L87.5938 97.6444Z" fill="#515C04"/>
<path d="M86.3368 100.266C86.3368 100.266 83.5021 98.8511 84.802 96.4956C86.1019 94.1401 87.9906 94.6118 87.9906 94.6118L138.545 94.7306C138.545 94.7306 140.215 96.6881 139.504 99.8684L86.3336 100.266H86.3368Z" fill="#B0AD34"/>
<path d="M101.956 143.625C101.956 143.625 102.94 115.872 103.925 114.152C104.909 112.432 109.095 108.013 114.266 108.748C119.437 109.486 120.914 115.625 120.914 115.625L120.666 143.625H101.949H101.956Z" fill="#A73E1F"/>
<path d="M189.39 127.551C189.027 127.541 188.695 127.528 188.425 127.534C186.784 127.557 185.143 127.576 183.499 127.595L183.505 128.019C183.142 130.631 180.339 132.127 177.749 132.162C175.677 132.191 174.602 129.213 174.184 127.666C174.097 127.666 174.007 127.666 173.92 127.666C173.685 129.592 172.585 131.764 169.712 131.806C166.929 131.844 166.295 128.715 166.163 127.672C166.153 127.672 166.14 127.672 166.131 127.672C166.131 130.824 164.213 132.262 161.6 132.297C159.393 132.329 158.576 128.902 158.35 127.634C158.322 127.634 158.293 127.634 158.264 127.634C158.035 131.588 155.197 131.54 153.196 131.479C151.645 131.43 150.763 128.853 150.416 127.551C150.316 127.551 150.22 127.551 150.12 127.547C149.84 128.882 148.984 131.584 146.613 131.761C144.344 131.928 143.524 129.056 143.244 127.432C141.349 127.396 139.454 127.352 137.559 127.307L137.594 225.17L196.878 222.885L189.39 127.554V127.551ZM152.424 178.98C152.62 174.388 152.861 169.796 153.138 165.21C153.428 160.377 152.842 155.451 153.975 150.688C155.571 143.975 167.134 138.776 172.427 144.46C175.082 147.309 174.242 152.916 174.506 156.536C174.898 161.92 175.291 167.305 175.687 172.69C175.851 174.93 176.015 177.17 176.176 179.41L152.424 178.983V178.98Z" fill="#F1D3A7"/>
<path d="M174.508 156.533C174.244 152.913 175.081 147.306 172.429 144.457C167.136 138.777 155.573 143.972 153.977 150.686C152.844 155.448 153.433 160.374 153.14 165.207C152.863 169.796 152.622 174.385 152.426 178.977L176.178 179.404C176.014 177.164 175.85 174.924 175.689 172.684C175.296 167.299 174.9 161.914 174.508 156.529V156.533Z" fill="#A73E1F"/>
<path d="M153.194 131.476C155.195 131.537 158.033 131.585 158.262 127.631C155.646 127.612 153.03 127.583 150.414 127.548C150.762 128.851 151.643 131.428 153.194 131.476Z" fill="#F2E9E2"/>
<path d="M174.188 127.666C174.606 129.213 175.68 132.191 177.753 132.162C180.343 132.124 183.142 130.632 183.509 128.019L183.502 127.596C180.809 127.625 178.119 127.65 175.426 127.663C175.014 127.663 174.603 127.663 174.191 127.663L174.188 127.666Z" fill="#F2E9E2"/>
<path d="M143.242 127.429C143.522 129.056 144.343 131.925 146.611 131.758C148.982 131.582 149.838 128.88 150.118 127.545C149.883 127.541 149.652 127.538 149.417 127.535C147.357 127.506 145.298 127.468 143.242 127.426V127.429Z" fill="#F2E9E2"/>
<path d="M166.164 127.672C166.296 128.712 166.93 131.844 169.713 131.806C172.583 131.764 173.687 129.592 173.922 127.666C171.335 127.676 168.751 127.679 166.164 127.672Z" fill="#F2E9E2"/>
<path d="M161.597 132.297C164.213 132.258 166.128 130.82 166.128 127.672C163.534 127.666 160.941 127.653 158.348 127.634C158.573 128.901 159.39 132.329 161.597 132.297Z" fill="#F2E9E2"/>
<path d="M189.562 121.613C189.7 121.613 189.848 121.629 190 121.652C184.733 109.723 163.989 65.665 163.989 65.665L135.832 121.613C136.398 121.575 136.968 121.572 137.534 121.572C154.874 121.588 172.226 121.43 189.565 121.616L189.562 121.613Z" fill="#515C04"/>
<path d="M140.064 124.941C136.48 124.842 134.24 124.771 134.24 124.771L135.83 121.61C135.029 121.665 134.24 121.793 133.503 122.105C131.837 122.807 129.913 125.724 132.284 126.883C132.329 126.905 132.377 126.928 132.426 126.947C133.021 127.194 133.69 127.217 134.337 127.233C135.408 127.262 136.483 127.281 137.554 127.307V125.089L140.058 124.945L140.064 124.941Z" fill="#B0AD34"/>
<path d="M189.199 125.111L189.389 127.547C191.017 127.592 193.289 127.611 193.858 126.142C194.714 123.93 191.96 121.938 189.997 121.646C190.711 123.263 191.139 124.29 191.197 124.537C191.252 124.778 190.525 124.964 189.199 125.108V125.111Z" fill="#B0AD34"/>
<path d="M158.261 127.634C158.29 127.634 158.319 127.634 158.348 127.634C158.296 127.345 158.274 127.169 158.274 127.169C158.274 127.329 158.267 127.483 158.258 127.634H158.261Z" fill="#A0855C"/>
<path d="M166.133 127.673C166.133 127.673 166.155 127.673 166.165 127.673C166.139 127.464 166.133 127.339 166.133 127.339C166.136 127.454 166.133 127.56 166.133 127.673Z" fill="#A0855C"/>
<path d="M150.117 127.544C150.217 127.544 150.313 127.544 150.413 127.547C150.294 127.108 150.239 126.812 150.239 126.812C150.239 126.812 150.21 127.105 150.117 127.544Z" fill="#A0855C"/>
<path d="M143.109 126.351L183.486 126.775L183.499 127.596C185.14 127.577 186.784 127.561 188.425 127.535C188.699 127.532 189.03 127.542 189.39 127.551L189.2 125.115C181.359 125.966 152.54 125.289 140.065 124.945L137.559 125.09V127.307C139.454 127.352 141.349 127.394 143.244 127.432C143.135 126.797 143.106 126.354 143.106 126.354L143.109 126.351Z" fill="#B0AD34"/>
<path d="M173.922 127.666C174.009 127.666 174.099 127.666 174.186 127.666C174.038 127.124 173.973 126.758 173.973 126.758C173.977 127.047 173.96 127.355 173.922 127.669V127.666Z" fill="#A0855C"/>
<path d="M143.109 126.351C143.109 126.351 143.138 126.797 143.248 127.429C145.307 127.467 147.366 127.506 149.422 127.538C149.657 127.541 149.889 127.544 150.124 127.548C150.217 127.105 150.246 126.816 150.246 126.816C150.246 126.816 150.304 127.111 150.42 127.551C153.036 127.586 155.651 127.615 158.267 127.634C158.277 127.483 158.283 127.329 158.283 127.169C158.283 127.169 158.306 127.345 158.357 127.634C160.951 127.653 163.544 127.666 166.137 127.673C166.137 127.56 166.141 127.455 166.137 127.339C166.137 127.339 166.144 127.464 166.17 127.673C168.757 127.679 171.34 127.676 173.927 127.666C173.966 127.352 173.982 127.047 173.979 126.755C173.979 126.755 174.046 127.124 174.191 127.663C174.603 127.663 175.015 127.663 175.427 127.663C178.12 127.65 180.81 127.625 183.503 127.596L183.49 126.774L143.113 126.351H143.109Z" fill="#B0AD34"/>
<path d="M140.062 124.941L188.963 122.095L189.201 125.114C190.526 124.97 191.253 124.784 191.199 124.543C191.144 124.296 190.713 123.269 189.999 121.652C189.847 121.629 189.699 121.616 189.561 121.613C172.222 121.427 154.873 121.584 137.53 121.568C136.967 121.568 136.394 121.568 135.828 121.61L134.238 124.771C134.238 124.771 136.474 124.842 140.062 124.941Z" fill="#B0AD34"/>
<path d="M140.062 124.942C152.54 125.285 181.356 125.965 189.197 125.112L188.959 122.092L140.059 124.938L140.062 124.942Z" fill="#B0AD34"/>
<path d="M266.783 306.968C266.783 306.968 265.557 320.812 247.188 318.367C243.05 317.818 238.542 317.131 234.703 315.164C232.802 314.188 231.183 312.927 229.755 311.348C228.326 309.769 227.104 307.719 224.774 307.584C222.445 307.452 219.221 309.468 216.917 310.119C208.29 312.561 201.16 313.091 194.214 306.775C188.435 301.519 183.927 293.711 187.795 285.999C192.898 275.82 197.795 275.618 199.021 275.82C200.247 276.022 201.061 267.678 212.695 270.528C212.695 270.528 229.838 259.331 247.188 279.69C247.188 279.69 261.882 273.583 269.231 283.763C270.882 286.035 275.933 286.519 278.289 288.352C283.018 292.032 282.909 297.722 279.743 302.401C276.696 306.9 271.921 307.728 266.783 306.968Z" fill="white"/>
<path d="M188.594 180.212L188.648 326.812L235.638 320.291L224.473 178.123L188.594 180.212Z" fill="#F1C261"/>
<path d="M198.969 217.827C199.107 214.621 199.274 211.418 199.467 208.215C199.67 204.843 199.262 201.402 200.05 198.081C201.163 193.396 209.236 189.766 212.93 193.733C214.783 195.722 214.197 199.634 214.381 202.16C214.654 205.918 214.931 209.676 215.205 213.437C215.317 215 215.433 216.562 215.546 218.125L198.969 217.827Z" fill="#A73E1F"/>
<path d="M192.464 181.091C192.464 181.091 192.709 185.029 194.913 184.865C197.114 184.701 197.445 181.412 197.445 181.412C197.445 181.412 198.056 184.621 199.507 184.666C200.955 184.711 203.037 184.746 203.053 181.659C203.053 181.659 203.484 185.266 205.373 185.241C207.262 185.215 208.632 184.143 208.536 181.778C208.536 181.778 208.706 184.929 211.036 184.894C213.365 184.862 214.028 182.814 214.009 181.37C214.009 181.37 214.694 185.17 216.644 185.144C218.452 185.119 220.405 184.076 220.66 182.253L220.644 181.383L192.461 181.088L192.464 181.091Z" fill="#F2E9E2"/>
<path d="M186.277 179.991L207.04 138.737C207.04 138.737 225.709 178.386 226.034 179.83C226.359 181.275 186.281 179.991 186.281 179.991H186.277Z" fill="#515C04"/>
<path d="M185.011 181.508C184.979 181.496 184.943 181.48 184.911 181.464C183.254 180.655 184.599 178.62 185.764 178.129C186.639 177.76 187.623 177.754 188.573 177.757C200.674 177.767 212.785 177.658 224.886 177.789C226.247 177.805 228.531 179.291 227.885 180.953C227.399 182.208 225.134 181.906 224.091 181.922C221.067 181.967 218.042 181.996 215.018 182.012C208.969 182.041 202.916 182.012 196.867 181.926C193.36 181.874 189.85 181.804 186.343 181.711C185.889 181.698 185.423 181.682 185.008 181.512L185.011 181.508Z" fill="#B0AD34"/>
<path d="M80.4309 316.303C80.4309 316.303 79.2051 330.147 60.836 327.702C56.6982 327.153 52.1904 326.466 48.3519 324.499C46.4503 323.523 44.8318 322.262 43.4032 320.683C41.9746 319.104 40.752 317.054 38.4225 316.919C36.0929 316.787 32.8689 318.803 30.5652 319.454C21.9389 321.896 14.8088 322.426 7.86205 316.11C2.08331 310.854 -2.42449 303.046 1.44302 295.334C6.54607 285.155 11.4432 284.953 12.6691 285.155C13.895 285.357 14.709 277.013 26.3437 279.863C26.3437 279.863 43.4869 268.666 60.836 289.025C60.836 289.025 75.5306 282.918 82.8795 293.097C84.5301 295.37 89.5817 295.854 91.937 297.687C96.6668 301.367 96.5574 307.057 93.3913 311.736C90.3443 316.235 85.5694 317.063 80.4309 316.303Z" fill="white"/>
<path d="M106.526 188.194L106.471 334.791L42.6992 327.256L53.8642 185.091L106.526 188.194Z" fill="#FBD593"/>
<path d="M84.7097 230.786C84.5713 227.58 84.404 224.377 84.211 221.174C84.0083 217.802 84.4169 214.361 83.6286 211.04C82.5153 206.355 74.4425 202.725 70.7487 206.692C68.8954 208.681 69.481 212.593 69.2976 215.119C69.0241 218.877 68.7474 222.635 68.4739 226.396C68.3613 227.959 68.2454 229.521 68.1328 231.084L84.7097 230.786Z" fill="#A73E1F"/>
<path d="M104.524 187.838C104.524 187.838 104.099 194.661 100.283 194.378C96.4674 194.096 95.8946 188.396 95.8946 188.396C95.8946 188.396 94.8328 193.958 92.3231 194.035C89.8134 194.112 86.2098 194.176 86.1776 188.826C86.1776 188.826 85.4343 195.075 82.1621 195.03C78.8898 194.985 76.5152 193.127 76.6826 189.035C76.6826 189.035 76.3865 194.494 72.3485 194.436C68.3137 194.378 67.1618 190.835 67.1972 188.332C67.1972 188.332 66.0131 194.917 62.6315 194.869C59.4976 194.824 56.1127 193.017 55.6719 189.86L55.6976 188.355L104.521 187.844L104.524 187.838Z" fill="#F2E9E2"/>
<path d="M105.715 186.233L78.4885 132.133C78.4885 132.133 54.0061 184.127 53.5846 186.021C53.1631 187.914 105.715 186.233 105.715 186.233Z" fill="#515C04"/>
<path d="M107.377 188.219C107.422 188.2 107.464 188.18 107.506 188.161C109.678 187.102 107.915 184.432 106.39 183.79C105.241 183.306 103.954 183.299 102.705 183.299C86.8332 183.312 70.9545 183.168 55.0855 183.341C53.2997 183.36 50.3074 185.311 51.1504 187.49C51.7875 189.137 54.7573 188.739 56.1248 188.761C60.092 188.819 64.0561 188.861 68.0233 188.88C75.9578 188.918 83.8891 188.88 91.8236 188.764C96.4247 188.697 101.026 188.604 105.624 188.485C106.216 188.469 106.83 188.45 107.374 188.222L107.377 188.219Z" fill="#B0AD34"/>
<path d="M192.893 213.257H103.695V334.672H192.893V213.257Z" fill="#E3A131"/>
<path d="M108.553 228.325C108.553 228.325 109.058 236.437 113.595 236.103C118.132 235.767 118.814 228.992 118.814 228.992C118.814 228.992 120.075 235.606 123.061 235.699C126.047 235.792 130.33 235.866 130.368 229.505C130.368 229.505 131.253 236.938 135.146 236.88C139.04 236.826 141.862 234.618 141.662 229.749C141.662 229.749 142.016 236.241 146.813 236.171C151.611 236.1 152.981 231.887 152.936 228.912C152.936 228.912 154.346 236.742 158.368 236.684C162.39 236.627 166.765 234.13 166.704 229.798C166.704 229.798 168.735 235.725 171.071 235.689C173.406 235.654 176.489 233.446 176.437 229.929C176.437 229.929 178.625 237.747 181.862 237.159C185.099 236.572 186.328 231.816 186.302 230.192C186.302 230.192 187.931 235.176 190.135 235.009C192.339 234.842 196.074 233.029 196.02 229.239L108.547 228.321L108.553 228.325Z" fill="#F2E9E2"/>
<path d="M101.519 198.931H117.16C117.758 198.931 118.244 199.416 118.244 200.013V207.692C118.244 208.523 118.92 209.197 119.753 209.197H122.256C123.09 209.197 123.765 208.523 123.765 207.692V199.512C123.765 198.915 124.251 198.431 124.85 198.431H146.784C147.382 198.431 147.868 198.915 147.868 199.512V206.941C147.868 207.772 148.544 208.446 149.377 208.446H150.877C151.71 208.446 152.386 207.772 152.386 206.941V199.512C152.386 198.915 152.872 198.431 153.47 198.431H174.4C174.999 198.431 175.485 198.915 175.485 199.512V206.691C175.485 207.522 176.16 208.196 176.994 208.196H179.748C180.581 208.196 181.257 207.522 181.257 206.691V200.513C181.257 199.916 181.743 199.432 182.341 199.432H199.755C200.353 199.432 200.839 199.916 200.839 200.513V229.402C200.839 229.999 200.353 230.484 199.755 230.484H101.973C101.381 230.484 100.898 230.009 100.889 229.418L100.422 200.029C100.412 199.425 100.901 198.928 101.506 198.928L101.519 198.931Z" fill="#7B5A16"/>
<path d="M124.473 222.166L121.352 220.481L118.782 222.924L119.422 219.442L116.301 217.76L119.818 217.291L120.458 213.81L121.993 216.999L125.509 216.531L122.939 218.973L124.473 222.166Z" fill="#7B5A16"/>
<path d="M119.849 329.698C119.588 318.941 120.505 307.985 122.448 297.394C123.97 289.089 127.14 279.985 135.377 276.05C147.594 270.219 166.513 271.14 171.043 286.178C174.666 298.206 173.434 310.937 173.408 323.311C173.402 326.79 173.37 330.272 173.257 333.748L119.27 333.459L119.849 329.694V329.698Z" fill="#7B5A16"/>
<path d="M174.662 335.202L117.582 334.897L118.399 329.605C118.148 318.918 119.033 307.995 121.025 297.135C123.168 285.46 127.656 278.137 134.754 274.748C143.397 270.621 153.905 270.127 161.524 273.483C166.962 275.881 170.733 280.126 172.432 285.762C175.405 295.623 175.183 305.954 174.967 315.947C174.916 318.37 174.861 320.873 174.858 323.315C174.851 326.187 174.829 329.974 174.707 333.796L174.662 335.202ZM120.957 332.025L171.853 332.297C171.936 329.002 171.956 325.808 171.962 323.309C171.968 320.841 172.02 318.322 172.075 315.886C172.284 306.117 172.499 296.018 169.661 286.596C168.194 281.724 165.064 278.204 160.356 276.128C153.583 273.14 143.799 273.634 136.009 277.354C129.722 280.354 125.867 286.805 123.879 297.655C121.913 308.364 121.047 319.133 121.305 329.663V329.791L120.964 332.028L120.957 332.025Z" fill="#F1C261"/>
<path d="M172.638 343.462C172.638 343.462 173.864 357.306 192.233 354.861C196.37 354.312 200.878 353.625 204.717 351.658C206.618 350.683 208.237 349.421 209.665 347.842C211.094 346.264 212.317 344.213 214.646 344.078C216.976 343.947 220.2 345.962 222.503 346.613C231.13 349.055 238.26 349.585 245.207 343.269C250.985 338.013 255.493 330.205 251.626 322.493C246.522 312.314 241.625 312.112 240.399 312.314C239.174 312.516 238.36 304.172 226.725 307.022C226.725 307.022 209.582 295.825 192.233 316.184C192.233 316.184 177.538 310.077 170.189 320.257C168.538 322.529 163.487 323.013 161.132 324.846C156.402 328.527 156.511 334.216 159.677 338.895C162.724 343.395 167.499 344.223 172.638 343.462Z" fill="white"/>
<path d="M95.7474 344.313C95.7474 344.313 94.5215 358.157 76.1524 355.711C72.0146 355.163 67.5068 354.476 63.6683 352.509C61.7667 351.533 60.1482 350.272 58.7196 348.693C57.291 347.114 56.0684 345.063 53.7389 344.929C51.4094 344.797 48.1854 346.812 45.8816 347.464C37.2553 349.906 30.1252 350.436 23.1785 344.12C17.3997 338.863 12.8919 331.056 16.7594 323.344C21.8625 313.165 26.7596 312.962 27.9855 313.165C29.2114 313.367 30.0254 305.023 41.6601 307.873C41.6601 307.873 58.8033 296.676 76.1524 317.035C76.1524 317.035 90.847 310.928 98.1959 321.107C99.8465 323.379 104.898 323.864 107.253 325.696C111.983 329.377 111.874 335.067 108.708 339.746C105.661 344.245 100.886 345.073 95.7474 344.313Z" fill="white"/>
<path d="M111.765 4.54943L110.156 4.5752L110.724 39.8327L112.332 39.807L111.765 4.54943Z" fill="#523C03"/>
<path d="M222.939 109.492L217.492 105.808L212.296 109.839L214.123 103.533L208.676 99.852L215.252 99.637L217.08 93.3311L219.319 99.5055L225.896 99.2904L220.703 103.318L222.939 109.492Z" fill="#7B5A16"/>
<path d="M201.317 86.2044L196.111 85.0074L193.36 89.5772L192.894 84.2693L187.688 83.0755L192.604 80.9896L192.134 75.6816L195.641 79.6995L200.558 77.6168L197.81 82.1834L201.317 86.2044Z" fill="#7B5A16"/>
<path d="M209.103 67.646L207.23 66.3303L205.399 67.7038L206.072 65.5183L204.199 64.2058L206.49 64.1705L207.166 61.9883L207.906 64.148L210.197 64.1127L208.363 65.483L209.103 67.646Z" fill="#7B5A16"/>
<path d="M140.033 176.201L133.826 173.409L129.245 178.435L129.991 171.683L123.781 168.891L130.448 167.511L131.195 160.759L134.57 166.657L141.24 165.277L136.658 170.303L140.033 176.201Z" fill="#7B5A16"/>
<path d="M67.5816 276.526L62.2341 274.896L59.0261 279.466L58.9296 273.888L53.582 272.258L58.8685 270.441L58.7687 264.867L62.1343 269.318L67.4208 267.502L64.2161 272.072L67.5816 276.526Z" fill="#7B5A16"/>
<path d="M76.1549 317.035L71.7951 314.882L68.3973 318.354L69.102 313.553L64.7422 311.403L69.5364 310.588L70.241 305.79L72.4997 310.084L77.2939 309.269L73.8962 312.738L76.1549 317.035Z" fill="#7B5A16"/>
<path d="M232.141 236.909L227.09 234.701L223.425 238.815L223.966 233.34L218.914 231.132L224.3 229.954L224.841 224.479L227.63 229.226L233.02 228.048L229.355 232.159L232.141 236.909Z" fill="#7B5A16"/>
<path d="M208.812 287.844L206.09 283.922L201.508 285.293L204.407 281.499L201.685 277.578L206.199 279.154L209.095 275.36L208.989 280.129L213.5 281.705L208.921 283.075L208.812 287.844Z" fill="#7B5A16"/>
<path d="M110.159 4.50452L110.854 23.1925C112.433 22.256 114.141 21.3643 115.901 20.8276C119.921 19.6032 123.548 21.8079 127.073 23.4213C130.597 25.0347 134.943 25.5643 138.809 24.3375C145.216 22.3002 150.853 18.4048 152.541 13.0128C154.255 8.59297 155.764 1.02274 155.581 -1.2839C155.581 -1.2839 144.756 8.83875 137.693 8.89953C130.63 8.96031 118.781 -1.07966 110.159 4.4981L110.159 4.50452Z" fill="#E89B34"/>
</g>
<defs>
<clipPath id="clip0_928_5109">
<rect width="282" height="356" fill="white"/>
</clipPath>
</defs>
</svg>
