<svg width="174" height="248" viewBox="0 0 174 248" fill="none" xmlns="http://www.w3.org/2000/svg">
<g clip-path="url(#clip0_928_5170)">
<path d="M1.19893 135.888C4.09127 127.56 9.83975 120.57 16.9059 115.397C20.305 112.908 24.0444 110.705 27.9359 109.073C30.9477 107.81 36.9242 105.73 39.7188 108.523C42.1731 110.976 45.5722 123.432 47.0818 124.564C48.5913 125.697 54.6366 132.491 58.4122 132.115C62.1878 131.738 65.3987 130.418 65.3987 130.418L55.7696 144.006C55.7696 144.006 48.4718 144.216 45.0075 147.78C45.1017 147.653 40.6238 144.726 40.1496 144.477C37.7206 143.192 34.7595 142.925 32.164 143.873C30.1621 144.603 28.3594 146.521 26.2128 146.922C24.0118 147.335 23.6788 144.77 23.5014 143.185C23.2408 140.819 23.2915 138.952 22.1005 136.774C19.8634 132.686 14.3792 132.024 10.1873 132.726C8.17095 133.063 1.98446 133.616 1.19531 135.895L1.19893 135.888Z" fill="#7C7825"/>
<path d="M45.9112 148.659L43.9782 147.031C43.5474 147.621 43.761 148.337 44.0795 148.627C43.6451 148.236 40.0433 145.863 39.5473 145.591C37.3971 144.455 34.798 144.253 32.5934 145.056C31.8658 145.32 31.1165 145.805 30.3273 146.318C29.14 147.089 27.9092 147.885 26.4431 148.16C25.2739 148.377 24.4703 148.008 23.9997 147.661C22.606 146.626 22.3743 144.556 22.2368 143.319C22.1897 142.881 22.1499 142.462 22.1137 142.053C21.958 140.306 21.8313 138.927 20.9843 137.375C19.0693 133.87 14.081 133.349 10.3923 133.967C10.1172 134.014 9.76966 134.061 9.36785 134.119C5.02391 134.738 2.67457 135.472 2.38497 136.301L-0.0078125 135.472C2.81575 127.343 8.40133 120.046 16.148 114.373C19.8295 111.678 23.6268 109.504 27.4386 107.905C33.636 105.307 38.1899 105.209 40.608 107.63C42.0234 109.044 43.4388 112.619 45.2777 117.51C46.1538 119.836 47.3483 123.016 47.866 123.577C48.2461 123.866 48.7674 124.358 49.4805 125.035C51.562 127.003 55.895 131.091 58.2806 130.856C61.8136 130.501 64.8797 129.257 64.9123 129.246L68.9486 127.593L56.4344 145.251L55.8009 145.269C55.7358 145.269 48.9701 145.512 45.9112 148.659ZM35.4134 142.042C37.2451 142.042 39.0985 142.487 40.7383 143.355C41.0894 143.544 42.5266 144.477 43.4352 145.081C44.0904 145.515 44.5827 145.852 44.9592 146.116C48.2461 143.504 53.2959 142.907 55.0842 142.773L62.1974 132.737C61.115 133.001 59.8589 133.24 58.534 133.374C54.99 133.725 50.4543 129.438 47.7429 126.873C47.1239 126.287 46.5845 125.78 46.3203 125.578C45.4189 124.901 44.6696 123.074 42.9103 118.4C41.665 115.09 39.96 110.56 38.8197 109.42C37.2089 107.814 33.5165 108.104 28.4233 110.242C24.7961 111.765 21.1725 113.841 17.6503 116.417C11.5181 120.907 6.82303 126.457 3.89811 132.629C5.41849 132.166 7.21398 131.869 9.01672 131.612C9.39319 131.558 9.72261 131.511 9.97962 131.467C17.1833 130.263 21.5417 133.099 23.2141 136.16C24.3146 138.175 24.4739 139.947 24.644 141.825C24.6802 142.216 24.7164 142.621 24.7635 143.041C24.8286 143.645 25.0096 145.251 25.5164 145.627C25.5563 145.656 25.6576 145.732 25.9834 145.671C26.9572 145.49 27.9273 144.86 28.9554 144.195C29.8314 143.627 30.7364 143.041 31.7319 142.679C32.9011 142.252 34.1536 142.042 35.417 142.042H35.4134ZM47.8407 123.552C47.8407 123.552 47.8443 123.552 47.8479 123.555C47.8479 123.555 47.8443 123.555 47.8407 123.552Z" fill="#515C04"/>
<path d="M62.4447 113.566C62.4447 113.566 57.0727 122.448 59.346 123.273C61.6193 124.098 72.1606 123.685 72.5733 126.58L75.672 117.698L62.4447 113.566Z" fill="#7C7825"/>
<path d="M72.051 131.909L71.3161 126.757C71.3161 126.757 71.0483 126.236 68.793 125.769C67.1568 125.429 65.126 125.252 63.3342 125.096C61.354 124.923 59.7902 124.785 58.907 124.463C58.3241 124.25 57.8825 123.801 57.6689 123.193C56.8255 120.806 59.9676 115.209 61.3577 112.912L61.8717 112.062L77.2963 116.88L72.051 131.909ZM60.0364 122.159C60.7531 122.325 62.1758 122.452 63.555 122.571C66.7876 122.853 70.0926 123.146 72.0582 124.188L74.0383 118.512L63.0192 115.072C61.2997 118.067 60.011 121.113 60.0328 122.155L60.0364 122.159Z" fill="#515C04"/>
<path d="M50.4886 100.314C50.4886 100.314 43.875 105.683 43.875 108.371C43.875 111.059 52.762 112.297 57.1023 111.884C61.4426 111.472 50.4886 100.318 50.4886 100.318V100.314Z" fill="#7C7825"/>
<path d="M55.3588 113.219C51.5868 113.219 45.8166 112.452 43.623 110.459C42.7831 109.696 42.6094 108.903 42.6094 108.368C42.6094 105.318 48.0284 100.68 49.69 99.3307L50.5841 98.6035L51.3914 99.4248C51.4782 99.5152 53.5633 101.642 55.5796 104.103C59.5073 108.903 59.6376 110.647 59.2467 111.718C59.0729 112.192 58.5806 113.01 57.2231 113.14C56.6946 113.19 56.0611 113.216 55.3588 113.216V113.219ZM50.3995 102.044C47.7207 104.367 45.1433 107.25 45.1433 108.368C45.1976 108.556 46.099 109.442 49.4619 110.115C51.8692 110.597 54.8014 110.803 56.8285 110.633C56.5245 109.283 53.7552 105.582 50.3995 102.044Z" fill="#515C04"/>
<path d="M20.1221 187.102C20.1221 187.102 16.0099 180.503 22.8624 176.893C22.8624 176.893 27.4742 179.631 27.9702 180.753C28.4661 181.874 21.99 187.352 20.1185 187.102H20.1221Z" fill="#7C7825"/>
<path d="M20.2162 188.375C20.1257 188.375 20.0388 188.371 19.9592 188.361L19.3655 188.281L19.0506 187.774C18.9637 187.637 16.9365 184.323 17.8922 180.803C18.4605 178.697 19.9374 177.008 22.2759 175.774L22.9058 175.441L23.5176 175.803C25.3674 176.903 28.5602 178.943 29.1357 180.239C29.581 181.244 28.8208 182.261 28.5348 182.644C27.2353 184.377 22.6488 188.375 20.2198 188.375H20.2162ZM22.8479 178.361C21.5121 179.2 20.6651 180.239 20.3356 181.461C19.894 183.089 20.4261 184.757 20.828 185.687C22.4497 185 25.7583 182.25 26.5909 181.024C25.9538 180.409 24.3683 179.302 22.8479 178.361Z" fill="#515C04"/>
<path d="M20.875 192.583C20.875 192.583 24.6144 190.34 26.4823 190.34C28.3502 190.34 26.9819 198.932 26.4823 199.681C25.9827 200.43 21.4976 195.199 20.875 192.583Z" fill="#7C7825"/>
<path d="M26.3326 201.02C26.2421 201.02 26.148 201.012 26.0503 200.994C24.215 200.665 20.2222 195.321 19.6394 192.876L19.4258 191.975L20.2222 191.497C20.8955 191.092 24.367 189.077 26.4811 189.077C27.1906 189.077 27.8132 189.475 28.1861 190.17C29.3625 192.366 28.244 199.326 27.5381 200.386C27.2666 200.792 26.8213 201.023 26.3363 201.023L26.3326 201.02ZM22.4267 193.158C23.1217 194.645 24.6385 196.627 25.7064 197.738C26.0467 195.875 26.3363 192.789 26.0575 191.653C25.12 191.834 23.6322 192.51 22.4267 193.158Z" fill="#515C04"/>
<path d="M29.2188 199.681C29.2188 199.681 31.4631 193.954 32.0857 193.578C32.7084 193.201 37.693 194.949 37.8161 197.188C37.9392 199.428 30.9636 199.804 29.2188 199.677V199.681Z" fill="#7C7825"/>
<path d="M29.8904 200.961C29.5465 200.961 29.2859 200.954 29.1338 200.943L27.418 200.82L28.0442 199.217C30.4442 193.085 31.0922 192.698 31.4397 192.492C32.6959 191.739 35.4217 193.114 35.9574 193.396C37.9303 194.442 39.0127 195.73 39.0887 197.119C39.114 197.6 39.0054 198.317 38.3249 198.982C36.6018 200.679 31.885 200.961 29.894 200.961H29.8904ZM32.7248 194.836C32.352 195.506 31.7185 196.92 31.0958 198.414C33.3619 198.291 36.0443 197.774 36.5402 197.184C36.3629 196.302 33.9049 195.079 32.7212 194.836H32.7248Z" fill="#515C04"/>
<path d="M69.5891 31.4091C69.5891 31.4091 68.6624 21.0261 71.0733 20.2844C73.4842 19.5428 81.2779 22.882 84.0617 26.9592C84.0617 26.9592 71.6308 31.7818 69.5891 31.4091Z" fill="#7C7825"/>
<path d="M69.7699 32.6864C69.6142 32.6864 69.4803 32.6756 69.3644 32.6539L68.416 32.4802L68.3291 31.5179C68.3183 31.4093 68.0902 28.819 68.1626 26.0876C68.2748 21.739 69.0604 19.5755 70.7038 19.069C73.8097 18.1139 82.0777 21.7969 85.1112 26.2431L86.0089 27.56L84.5211 28.1352C80.8903 29.5426 72.4921 32.6828 69.7699 32.6828V32.6864ZM71.5002 21.4785C70.8305 22.1261 70.5156 26.0043 70.7581 30.0527C72.8649 29.6294 77.56 28.0593 81.9546 26.4059C78.8885 23.3163 73.1328 21.0624 71.5002 21.4785Z" fill="#515C04"/>
<path d="M43.7143 59.7597C43.7143 59.7597 32.0725 50.1038 32.1884 46.3775C32.3042 42.6512 47.4392 45.5635 49.1876 46.96C50.9361 48.3564 43.7143 59.7597 43.7143 59.7597Z" fill="#7C7825"/>
<path d="M44.0129 61.6514L42.9052 60.7324C40.0635 58.3736 30.7965 50.3675 30.9232 46.3372C30.9413 45.7403 31.1947 44.6333 32.6752 43.9495C36.4689 42.1985 48.0817 44.4524 49.9786 45.9682C51.3505 47.0644 50.8618 49.4485 48.2301 54.4664C46.6374 57.5018 44.8636 60.3128 44.7876 60.4322L44.0165 61.6514H44.0129ZM36.849 45.8163C36.0599 45.8163 35.3286 45.8633 34.6988 45.9755C33.6562 46.16 33.4463 46.4349 33.4463 46.4385C33.3992 48.2004 38.3911 53.5222 43.412 57.8418C46.3369 53.0483 48.1541 49.0289 48.1975 47.8314C46.8545 47.1729 41.0192 45.8127 36.849 45.8127V45.8163Z" fill="#515C04"/>
<path d="M111.597 91.6094C111.351 91.8156 111.46 92.0544 111.579 92.3221C112.673 94.5362 117.646 103.729 127.442 106.37C130.515 107.148 134.077 107.694 137.02 106.714C139.066 106.041 141.647 104.286 138.497 103.056C136.836 102.387 134.942 101.902 133.422 100.885C128.604 97.6656 122.982 90.3215 129.78 85.9765C129.882 85.8969 130.023 85.8354 129.903 85.839C128.698 86.1284 125.549 87.1559 123.525 87.7637C120.875 88.5813 118.515 89.323 115.851 90.1514C113.968 90.799 112.846 90.9546 111.619 91.6022L111.605 91.613L111.597 91.6094Z" fill="#E1822C"/>
<mask id="mask0_928_5170" style="mask-type:luminance" maskUnits="userSpaceOnUse" x="111" y="85" width="29" height="23">
<path d="M111.597 91.6094C111.351 91.8156 111.46 92.0544 111.579 92.3221C112.673 94.5362 117.646 103.729 127.442 106.37C130.515 107.148 134.077 107.694 137.02 106.714C139.066 106.041 141.647 104.286 138.497 103.056C136.836 102.387 134.942 101.902 133.422 100.885C128.604 97.6656 122.982 90.3215 129.78 85.9765C129.882 85.8969 130.023 85.8354 129.903 85.839C128.698 86.1284 125.549 87.1559 123.525 87.7637C120.875 88.5813 118.515 89.323 115.851 90.1514C113.968 90.799 112.846 90.9546 111.619 91.6022L111.605 91.613L111.597 91.6094Z" fill="white"/>
</mask>
<g mask="url(#mask0_928_5170)">
<path d="M129.776 85.9733C129.776 85.9733 122.569 93.4983 124.596 102.962C126.623 112.427 113.096 100.933 113.096 100.933L105.316 92.1453L129.878 85.2787L129.896 85.8358L171.275 84.0342" fill="#E1822C"/>
</g>
<path d="M77.3602 1.349C78.2254 0.998077 79.3367 1.0632 80.2779 1.15364C83.5938 1.46839 86.8807 3.06746 89.8309 4.50734C97.2374 8.11428 104.658 12.7161 108.622 19.9372C110.363 23.1137 111.348 26.6446 112.173 30.1684C112.781 32.7587 113.288 35.5878 112.137 37.9864C111.504 39.3069 110.418 40.3597 109.27 41.275C107.066 43.0333 104.542 44.4008 101.864 45.2835C98.6564 46.3436 94.8337 46.6077 92.1658 44.531C90.2762 43.0622 89.3205 40.66 89.0092 38.2903C88.6979 35.9207 88.9477 33.5148 89.0165 31.1271C89.0744 29.2314 89.0165 27.332 88.8536 25.4435C88.1549 17.5133 83.2644 11.5982 77.4761 6.5116C76.5349 5.68313 75.648 4.06959 76.0751 2.72738C76.3068 2.00382 76.7738 1.58416 77.353 1.349H77.3602Z" fill="#7B5A16"/>
<path d="M97.1958 47.1832C95.2808 47.1832 93.2464 46.7418 91.5088 45.3888C89.6047 43.9055 88.3378 41.4345 87.9432 38.4317C87.6934 36.5324 87.7839 34.633 87.8708 32.7952C87.8998 32.2272 87.9251 31.6592 87.9432 31.0948C87.9975 29.2461 87.9432 27.3794 87.7839 25.5379C87.0635 17.3363 81.5214 11.4972 76.772 7.32591C75.4942 6.20439 74.4951 4.14948 75.0526 2.39485C75.3603 1.4289 76.0191 0.719808 76.9567 0.339939C78.0064 -0.0833432 79.2264 -0.0399296 80.3847 0.0686043C83.8997 0.405059 87.3061 2.06201 90.3106 3.52722C97.0148 6.79409 105.265 11.5479 109.58 19.413C111.411 22.7486 112.418 26.4351 113.236 29.919C113.869 32.6143 114.434 35.722 113.124 38.4534C112.338 40.0923 111.017 41.2753 109.956 42.1219C107.636 43.9742 105.029 45.3815 102.213 46.3113C100.957 46.7273 99.1397 47.1796 97.1958 47.1796V47.1832ZM79.049 2.17054C78.5965 2.17054 78.1259 2.21396 77.7675 2.35867C77.4236 2.49615 77.2318 2.70598 77.1195 3.06052C76.8589 3.87453 77.4815 5.06478 78.2019 5.70151C83.2554 10.1406 89.1523 16.3849 89.945 25.3534C90.1152 27.2781 90.1695 29.2317 90.1115 31.1636C90.0934 31.7424 90.0681 32.3213 90.0391 32.9037C89.9523 34.7271 89.869 36.4492 90.0934 38.1532C90.2781 39.5641 90.8826 42.1544 92.8374 43.6775C95.6428 45.8591 99.8492 44.8063 101.525 44.2528C104.099 43.4026 106.477 42.1183 108.595 40.4288C109.902 39.3832 110.695 38.486 111.158 37.52C112.164 35.4253 111.661 32.7554 111.114 30.4219C110.333 27.0863 109.373 23.5698 107.668 20.4621C103.647 13.1361 95.7695 8.61022 89.355 5.48445C86.5169 4.10245 83.2988 2.53232 80.1748 2.23566C79.9033 2.21034 79.487 2.17054 79.049 2.17054Z" fill="#4F3200"/>
<path d="M121.889 67.8116C121.889 67.8116 132.763 56.9438 146.834 59.5015C160.905 62.0593 159.945 80.5969 155.149 86.3492C151.58 90.6291 144.503 90.7738 139.572 89.323C136.894 88.5344 134.36 86.7833 131.46 86.5301C128.22 86.2515 124.77 87.1487 121.889 88.5886C117.411 90.8244 113.574 92.4235 110.696 91.1464C110.696 91.1464 123.489 112.56 138.838 107.126C138.838 107.126 139.952 106.793 140.944 106.034C141.784 105.39 143.022 106.016 142.982 107.076C142.845 110.581 138.953 116.547 115.978 119.644C115.978 119.644 115.413 133.666 127.735 144.339C134.186 149.632 150.769 159.993 163.898 162.753C168.275 164.363 178.639 172.883 168.275 180.018C168.275 180.018 166.664 188.074 156.988 184.623C156.988 184.623 155.145 180.481 155.377 179.558L146.392 180.481L146.729 183.889C146.729 183.889 159.258 192.933 157.73 204.127C156.202 215.32 153.147 219.137 150.092 220.917C155.182 221.17 165.39 224.046 165.531 231.177C165.111 238.304 143.717 238.865 122.881 233.973C122.881 233.973 108.336 237.888 106.519 237.606C106.939 238.865 108.336 245.713 100.506 244.595C100.506 244.595 98.6887 247.11 91.2751 246.69C83.8614 246.27 57.5734 242.917 55.3362 238.166C49.6022 238.445 36.813 239.849 28.0563 234.635C19.2997 229.422 4.01987 219.737 4.57734 204.094C5.13481 188.451 7.93303 170.76 24.516 165.546C26.3803 165.546 28.2771 165.952 27.6002 168.661C26.9233 171.371 16.6245 188.031 22.3151 196.29C25.4319 200.758 33.9713 201.71 36.2736 199.405C36.2736 199.405 51.6946 144.393 63.5065 130.588C66.8477 124.799 68.8278 119.206 67.5934 117.227C65.5517 113.96 58.9453 111.706 55.8901 109.416C38.6628 96.508 38.6193 62.4464 50.3733 45.6779C63.568 26.8473 90.8515 23.2367 111.786 28.2944C120.245 31.2936 135.612 39.3179 137.129 57.6709" fill="#B0AD34"/>
<path d="M92.8773 248C92.3524 248 91.795 247.986 91.2085 247.953C87.8275 247.761 79.3894 246.871 71.1323 245.294C59.5449 243.083 55.9575 241.01 54.6833 239.466C54.3213 239.487 53.9339 239.509 53.5321 239.534C50.314 239.73 45.9049 239.998 41.246 239.621C35.6532 239.169 31.0016 237.856 27.4142 235.721C20.0223 231.318 2.71169 221.015 3.31622 204.047C3.87369 188.433 6.74431 169.805 24.1418 164.335L24.3264 164.277H24.5219C25.7165 164.277 27.4142 164.418 28.3735 165.645C29.0215 166.477 29.1771 167.591 28.8332 168.966C28.6667 169.631 28.1563 170.706 27.3853 172.334C24.7354 177.927 19.2259 189.565 23.3599 195.571C25.0323 197.97 28.5364 199.08 31.0233 199.301C33.036 199.478 34.484 199.138 35.1609 198.682C35.8197 196.36 39.4686 183.679 44.2614 169.758C51.3529 149.169 57.4779 135.747 62.4625 129.85C66.4843 122.857 67.0852 118.805 66.5133 117.893C65.3838 116.084 62.2924 114.46 59.5666 113.024C57.8869 112.137 56.2978 111.302 55.1213 110.422C46.9257 104.283 41.7745 92.8508 40.989 79.0598C40.2578 66.1877 43.3746 53.4349 49.3257 44.944C55.5919 36.0044 65.4635 29.7275 77.8763 26.7899C88.6565 24.2393 100.801 24.3334 112.07 27.0576L112.197 27.0938C116.436 28.5988 122.601 31.4134 127.904 36.2866C134.163 42.0353 137.685 49.1949 138.376 57.5592L135.85 57.7691C135.227 50.2368 131.223 36.5543 111.408 29.5032C100.534 26.8875 88.8339 26.7971 78.4555 29.2536C66.6544 32.0465 57.3005 37.9761 51.3964 46.3983C45.847 54.3177 42.8243 66.781 43.5157 78.9151C44.2578 91.9572 49.0398 102.702 56.638 108.397C57.6516 109.156 59.1539 109.949 60.7431 110.784C63.8997 112.445 67.1649 114.163 68.6563 116.551C70.7233 119.858 66.5024 127.907 64.5947 131.218L64.5368 131.319L64.4608 131.409C52.9674 144.849 37.6406 199.2 37.4849 199.746L37.3944 200.064L37.1591 200.299C35.9392 201.519 33.6188 202.076 30.788 201.822C27.6097 201.54 23.4395 200.129 21.2639 197.011C16.2973 189.801 22.2304 177.272 25.0793 171.249C25.6839 169.975 26.2522 168.77 26.3572 168.347C26.4947 167.801 26.4947 167.374 26.3572 167.2C26.2703 167.088 25.9336 166.831 24.692 166.809C9.07193 171.849 6.38593 188.498 5.82846 204.134C5.59678 210.574 8.25383 216.717 13.7199 222.393C18.1652 227.006 23.5409 230.479 28.6884 233.543C36.2469 238.044 46.9583 237.396 53.3548 237.006C54.0498 236.962 54.6905 236.926 55.2588 236.897L56.1059 236.857L56.4679 237.624C56.667 238.044 58.3286 240.276 71.5884 242.809C79.7261 244.361 88.0157 245.24 91.3316 245.428C97.4204 245.772 99.2846 244.028 99.4729 243.836L99.8964 243.149L100.667 243.344C102.753 243.641 104.179 243.344 104.917 242.465C106.025 241.137 105.5 238.612 105.301 238.011L104.646 236.043L106.698 236.358C107.839 236.448 115.65 234.607 122.536 232.755L122.843 232.671L123.155 232.744C140.357 236.781 157.841 236.959 162.956 233.145C163.767 232.541 164.187 231.89 164.248 231.152C164.071 224.969 154.409 222.408 150.015 222.187L145.758 221.974L149.439 219.828C151.701 218.508 154.894 215.425 156.458 203.961C157.182 198.642 154.344 193.791 151.835 190.654C149.034 187.156 146 184.942 145.967 184.92L145.508 184.587L144.986 179.356L157.023 178.122L156.603 179.797C156.628 180.293 157.204 181.968 157.906 183.611C160.523 184.453 162.663 184.428 164.27 183.531C166.453 182.312 167.007 179.797 167.014 179.772L167.119 179.276L167.535 178.983C170.395 177.015 171.698 174.841 171.405 172.522C170.916 168.626 166.131 164.982 163.521 163.98C150.731 161.256 134.127 151.249 126.908 145.323C114.242 134.354 114.662 120.194 114.688 119.597L114.731 118.534L115.784 118.392C138.89 115.281 141.602 109.409 141.692 107.033C140.614 107.872 139.455 108.259 139.209 108.335C132.472 110.708 125.182 108.556 118.13 102.112C112.935 97.3658 109.717 92.0224 109.583 91.7981L107.535 88.372L111.183 89.9928C113.649 91.089 117.529 89.3416 121.294 87.4603C124.675 85.7708 128.313 84.9966 131.538 85.2752C133.544 85.4488 135.31 86.2303 137.023 86.9828C138.018 87.4205 138.956 87.8366 139.9 88.1151C144.581 89.4935 151.035 89.2765 154.145 85.5465C156.755 82.4171 158.145 74.751 155.969 68.7563C154.854 65.6812 152.317 61.7957 146.576 60.7537C133.316 58.3443 122.858 68.608 122.753 68.7129L120.961 66.9221C121.424 66.459 132.469 55.6165 147.028 58.2611C153.953 59.5201 157.008 64.1943 158.351 67.8917C159.506 71.0753 159.864 74.8885 159.358 78.6293C158.883 82.1313 157.692 85.2426 156.092 87.1637C153.309 90.5029 147.003 92.8436 139.184 90.5391C138.083 90.2135 137.023 89.7468 135.998 89.2945C134.405 88.5927 132.903 87.9306 131.318 87.7932C128.548 87.5508 125.392 88.2381 122.423 89.7214C119.231 91.3169 116.125 92.7315 113.345 92.8581C117.127 98.093 127.173 109.902 138.384 105.933L138.445 105.911C138.445 105.911 139.361 105.625 140.143 105.028C140.929 104.424 141.967 104.337 142.854 104.797C143.734 105.253 144.255 106.143 144.219 107.127C144.042 111.631 139.184 117.615 117.236 120.744C117.41 124.109 118.749 134.908 128.534 143.384C135.549 149.144 151.741 158.912 164.129 161.517L164.306 161.567C167.329 162.682 173.247 166.94 173.91 172.2C174.189 174.425 173.609 177.695 169.349 180.792C169.019 181.863 168.027 184.305 165.533 185.72C163.151 187.069 160.121 187.102 156.53 185.821L156.02 185.64L155.799 185.144C155.021 183.393 154.503 181.993 154.25 180.951L147.748 181.617L147.908 183.216C150.264 185.05 160.415 193.625 158.959 204.301C157.913 211.967 156.103 216.985 153.222 220.016C159.318 221.102 166.641 224.553 166.771 231.156V231.206V231.257C166.681 232.784 165.906 234.104 164.462 235.179C160.737 237.953 153.287 238.496 147.698 238.438C140.197 238.38 131.394 237.259 122.876 235.284C119.748 236.123 111.792 238.207 108.038 238.753C108.255 240.377 108.143 242.548 106.854 244.089C105.612 245.576 103.621 246.191 100.924 245.927C99.9543 246.723 97.6448 248.007 92.8484 248.007L92.8773 248Z" fill="#515C04"/>
<path d="M39.7944 186.576C39.7944 186.576 33.8939 179.5 35.074 175.372C36.2541 171.244 43.7293 171.244 43.7293 171.244L39.7944 186.576Z" fill="#7C7825"/>
<path d="M40.4052 189.286L38.8196 187.383C38.1717 186.606 32.5282 179.659 33.8531 175.021C35.2793 170.032 43.3808 169.975 43.7247 169.975H45.3573L40.4015 189.286H40.4052ZM42.0631 172.623C39.8767 172.894 36.8649 173.705 36.2893 175.72C35.7318 177.673 37.4404 181.081 39.2214 183.704L42.0631 172.626V172.623Z" fill="#515C04"/>
<path d="M44.5177 166.328C44.5177 166.328 38.8127 155.518 39.9928 152.371C41.5674 151.386 51.0083 150.012 51.9929 150.012L44.5177 166.328Z" fill="#7C7825"/>
<path d="M44.5959 169.197L43.394 166.921C42.3986 165.033 37.4899 155.431 38.8039 151.929L38.956 151.527L39.3216 151.3C41.2691 150.084 51.0502 148.749 51.9914 148.749H53.9643L44.5959 169.197ZM41.0918 153.253C40.9651 155.022 42.5325 159.346 44.4655 163.397L49.9099 151.509C47.1624 151.9 42.6592 152.692 41.0918 153.25V153.253Z" fill="#515C04"/>
<path d="M52.7726 57.9024C46.2821 57.6854 39.9218 58.7996 33.5254 59.733C30.1914 60.2214 22.9044 60.869 22.499 65.3804C22.1551 69.1827 24.7977 70.9156 27.6176 72.7752C30.7995 74.8771 33.1634 76.3315 34.148 80.141C34.6222 81.9752 35.0892 86.7073 37.7643 86.7073C39.9797 86.7073 51.2378 82.9557 53.6269 81.0816" fill="#B0AD34"/>
<path d="M37.7635 87.9738C34.4839 87.9738 33.644 83.9001 33.1445 81.4654C33.0612 81.0638 32.9924 80.7201 32.9237 80.456C32.0911 77.2434 30.1616 75.9663 27.2331 74.038L26.8856 73.8101C24.0476 71.9325 20.8294 69.8052 21.2385 65.2649C21.7055 60.0842 28.7643 59.111 32.5581 58.59C32.8368 58.5502 33.101 58.5141 33.3436 58.4815C34.1255 58.3657 34.9074 58.25 35.6857 58.1342C41.2495 57.3021 47.0016 56.4411 52.8153 56.6364L52.7284 59.1689C47.1537 58.9808 41.5102 59.8237 36.0622 60.6377C35.2766 60.7535 34.4947 60.8729 33.7092 60.985C33.4594 61.0212 33.1915 61.0574 32.9019 61.0972C29.8069 61.5241 24.0476 62.3164 23.7616 65.4928C23.5009 68.3798 25.3109 69.7328 28.2829 71.6973L28.6268 71.9252C31.6712 73.9331 34.2992 75.6696 35.3744 79.8229C35.4576 80.1485 35.5337 80.5211 35.6241 80.9553C35.9246 82.4096 36.5472 85.4413 37.7635 85.4413C39.6604 85.4413 50.6107 81.838 52.8442 80.087L54.4081 82.0768C51.903 84.0412 40.3446 87.9738 37.7635 87.9738Z" fill="#515C04"/>
<path d="M96.202 116.731C96.202 116.731 91.5468 144.064 93.8744 150.171C96.202 156.278 93.5848 190.589 93.5848 190.589C93.5848 190.589 111.333 209.199 95.3296 227.519C95.3296 227.519 103.865 231.77 104.738 236.133C104.738 236.133 137.202 235.58 143.895 212.9C150.588 190.22 139.558 169.074 136.354 165.293C133.151 161.513 114.533 131.271 114.533 118.479L96.202 116.735V116.731Z" fill="#FEDC65"/>
<path d="M68.8242 164.78C68.8242 164.78 78.6994 185.691 101.27 183.578C101.27 183.578 102.287 189.197 106.171 188.947C110.055 188.697 109.429 183.687 108.3 180.684C108.3 180.684 109.679 189.197 112.81 188.198C115.941 187.2 114.566 177.555 114.566 177.555C114.566 177.555 116.195 183.564 117.071 182.688C117.947 181.813 122.707 177.678 117.321 171.043C111.934 164.407 100.785 156.77 99.2788 155.642C97.7729 154.513 90.1348 148.004 89.8815 144.875" fill="#B0AD34"/>
<path d="M105.928 190.22C103.977 190.22 102.29 189.074 101.15 186.957C100.759 186.23 100.487 185.499 100.31 184.924C88.755 185.655 80.5848 180.463 75.716 175.898C70.3114 170.829 67.7847 165.547 67.6797 165.323L69.9711 164.241C69.9964 164.292 72.4399 169.371 77.5151 174.114C84.2446 180.398 92.1976 183.159 101.15 182.319L102.308 182.211L102.514 183.354C102.522 183.397 103.372 187.873 106.087 187.684C106.945 187.63 107.278 187.261 107.456 186.99C107.861 186.364 107.955 185.38 107.861 184.313C107.38 182.782 107.13 181.382 107.05 180.89L109.486 180.243C109.881 181.295 110.203 182.511 110.344 183.723C110.826 185.206 111.452 186.548 112.104 186.946C112.241 187.033 112.317 187.03 112.426 186.997C113.421 186.679 114.011 182.652 113.313 177.739L115.789 177.229C116.162 178.607 116.65 180.029 117.038 180.908C118.348 179.389 120.01 176.368 116.339 171.846C111.687 166.115 102.467 159.498 99.4375 157.324C99.0139 157.02 98.7026 156.796 98.5216 156.662C98.4275 156.589 88.9577 149.177 88.6211 144.98L91.1478 144.777C91.1768 145.139 91.5424 146.601 95.0139 150.124C97.1099 152.252 99.3434 154.111 100.038 154.632C100.209 154.759 100.509 154.976 100.911 155.265C104.009 157.49 113.436 164.256 118.301 170.25C120.502 172.964 123.402 178.285 118.077 183.473L117.961 183.585C117.566 183.98 117.012 184.135 116.484 183.991C116.375 183.962 116.241 183.926 116.086 183.835C115.872 186.386 115.126 188.784 113.193 189.403C112.364 189.667 111.528 189.562 110.775 189.099C110.388 188.86 110.037 188.531 109.718 188.137C109.675 188.213 109.631 188.289 109.581 188.361C109.077 189.139 108.093 190.09 106.247 190.21C106.138 190.217 106.029 190.22 105.921 190.22H105.928ZM116.187 181.78C116.187 181.78 116.18 181.787 116.176 181.791L116.187 181.78Z" fill="#515C04"/>
<path d="M101.729 69.5433C103.541 69.0439 104.229 65.8097 103.266 62.3196C102.302 58.8295 100.053 56.405 98.2412 56.9044C96.4296 57.4038 95.7418 60.6379 96.705 64.1281C97.6682 67.6182 99.9177 70.0427 101.729 69.5433Z" fill="#303002"/>
<path d="M43.9721 78.4953L41.5322 77.8115C41.8617 76.6321 43.0635 74.6821 49.6301 71.3827C50.7124 70.84 51.7731 70.3408 52.7287 69.9139C49.6337 69.2229 45.7965 68.3148 44.7757 67.8517C43.1323 67.1028 41.2463 66.7266 39.7295 66.8315C38.2236 66.94 34.01 68.1556 32.5113 68.6187L31.7656 66.1984C32.3448 66.0211 37.4815 64.4546 39.5485 64.3063C42.3069 64.1109 44.8554 65.1094 45.8219 65.5472C46.8644 66.0211 53.3296 67.4791 57.1632 68.2895L61.3333 69.1722L57.3586 70.7098C51.3133 73.0505 44.4753 76.6936 43.9685 78.4989L43.9721 78.4953Z" fill="#454800"/>
<path d="M88.5261 56.984C88.3994 56.984 88.2691 56.9659 88.1388 56.9225C87.4727 56.709 87.1071 55.9999 87.317 55.3343C87.4003 55.0702 89.4528 48.8331 95.4004 48.2361C96.0954 48.171 96.718 48.6739 96.7868 49.3685C96.8556 50.0631 96.3488 50.6854 95.6538 50.7541C91.3786 51.181 89.746 56.0542 89.7315 56.1049C89.5578 56.6403 89.0582 56.9804 88.5261 56.9804V56.984Z" fill="#454800"/>
<path d="M139.167 75.3185C139.648 74.8908 139.277 73.6898 138.339 72.6359C137.401 71.582 136.25 71.0744 135.769 71.502C135.288 71.9297 135.659 73.1307 136.597 74.1846C137.535 75.2385 138.686 75.7461 139.167 75.3185Z" fill="#303002"/>
<path d="M146.989 70.8383C147.402 69.4895 147.238 68.2433 146.622 68.055C146.007 67.8667 145.173 68.8075 144.76 70.1563C144.347 71.5052 144.511 72.7513 145.126 72.9396C145.742 73.1279 146.576 72.1871 146.989 70.8383Z" fill="#565408"/>
<path d="M86.2218 94.6379C93.1291 94.6379 98.7287 89.4207 98.7287 82.985C98.7287 76.5492 93.1291 71.332 86.2218 71.332C79.3144 71.332 73.7148 76.5492 73.7148 82.985C73.7148 89.4207 79.3144 94.6379 86.2218 94.6379Z" fill="#E89B34"/>
<path d="M103.453 245.432C102.921 245.432 102.309 245.338 101.614 245.099L101.039 244.904L100.832 244.332C99.5471 240.768 97.4983 237.321 96.615 237.237L96.8539 234.716C98.3996 234.864 99.8621 236.369 101.451 239.452C102.146 240.797 102.689 242.114 102.979 242.859C103.464 242.954 103.844 242.914 104.116 242.737C104.666 242.378 104.865 241.438 104.89 241.137L104.901 241.043C106.074 233.417 93.9869 229.296 93.8638 229.257L90.6131 228.175L93.7842 226.883C97.5453 225.353 99.4386 219.499 99.4096 209.493C99.3951 204.048 98.2295 196.591 92.7851 191.986C87.8294 187.793 80.1913 185.843 70.1025 186.183L70.0156 183.651C80.7596 183.292 88.9697 185.445 94.4213 190.054C100.608 195.285 101.925 203.509 101.944 209.489C101.973 218.852 100.358 224.886 97.0313 227.813C101.02 229.636 108.503 234.079 107.41 241.387C107.37 241.81 107.102 243.8 105.513 244.846C105.049 245.15 104.369 245.439 103.442 245.439L103.453 245.432Z" fill="#515C04"/>
<path d="M121.72 38.4387C122.281 37.1225 121.342 35.4621 119.622 34.73C117.902 33.998 116.053 34.4715 115.492 35.7877C114.931 37.1039 115.871 38.7643 117.591 39.4964C119.31 40.2285 121.159 39.7549 121.72 38.4387Z" fill="#81891A"/>
<path d="M110.982 32.6464C111.51 31.4093 110.668 29.8662 109.103 29.1999C107.538 28.5336 105.841 28.9964 105.314 30.2336C104.787 31.4707 105.628 33.0138 107.194 33.6801C108.759 34.3463 110.455 33.8836 110.982 32.6464Z" fill="#81891A"/>
<path d="M130.577 45.6223C131.187 44.1903 129.729 42.198 127.319 41.1723C124.909 40.1467 122.461 40.4761 121.851 41.9081C121.241 43.3401 122.699 45.3324 125.109 46.3581C127.519 47.3838 129.967 47.0544 130.577 45.6223Z" fill="#81891A"/>
<path d="M120.857 47.0762C121.718 46.0669 121.244 44.2489 119.798 43.0156C118.351 41.7823 116.48 41.6007 115.619 42.61C114.757 43.6193 115.231 45.4373 116.678 46.6706C118.124 47.9039 119.995 48.0855 120.857 47.0762Z" fill="#81891A"/>
<path d="M53.6732 101.88C55.5536 101.506 56.5553 98.5771 55.9106 95.3378C55.2659 92.0984 53.2188 89.7755 51.3384 90.1493C49.458 90.5231 48.4562 93.4522 49.101 96.6915C49.7457 99.9308 51.7927 102.254 53.6732 101.88Z" fill="#81891A"/>
<path d="M64.0467 105.581C65.1037 105.1 65.2373 103.123 64.3452 101.167C63.4532 99.2108 61.8731 98.0151 60.8162 98.4965C59.7592 98.9779 59.6255 100.954 60.5176 102.91C61.4097 104.867 62.9897 106.062 64.0467 105.581Z" fill="#81891A"/>
<path d="M59.7319 94.4881C61.1473 93.8434 61.3981 91.3547 60.2921 88.9292C59.1861 86.5038 57.1422 85.0602 55.7268 85.7049C54.3114 86.3495 54.0606 88.8383 55.1666 91.2637C56.2726 93.6891 58.3166 95.1327 59.7319 94.4881Z" fill="#81891A"/>
<path d="M63.2076 147.709C64.83 147.651 66.0567 145.123 65.9476 142.062C65.8385 139.001 64.4349 136.566 62.8125 136.624C61.1902 136.682 59.9634 139.21 60.0725 142.271C60.1816 145.332 61.5853 147.767 63.2076 147.709Z" fill="#81891A"/>
<path d="M57.0359 159.005C58.0537 156.589 57.8316 154.19 56.5399 153.647C55.2482 153.103 53.3761 154.621 52.3584 157.037C51.3407 159.453 51.5627 161.853 52.8544 162.396C54.1461 162.94 56.0182 161.421 57.0359 159.005Z" fill="#81891A"/>
<path d="M72.4436 139.17C73.3116 137.11 73.013 135.017 71.7766 134.497C70.5402 133.977 68.8342 135.226 67.9662 137.286C67.0982 139.347 67.3968 141.439 68.6332 141.959C69.8696 142.48 71.5756 141.231 72.4436 139.17Z" fill="#81891A"/>
<path d="M66.8644 153.941C67.9651 151.328 67.6445 148.699 66.1483 148.069C64.6521 147.44 62.5469 149.048 61.4462 151.661C60.3454 154.274 60.666 156.903 62.1622 157.532C63.6585 158.162 65.7637 156.554 66.8644 153.941Z" fill="#81891A"/>
<path d="M50.8769 174.747C52.3633 174.693 53.498 172.73 53.4111 170.364C53.3243 167.998 52.049 166.124 50.5625 166.179C49.0761 166.233 47.9415 168.195 48.0283 170.562C48.1151 172.928 49.3905 174.802 50.8769 174.747Z" fill="#81891A"/>
<path d="M89.9753 202.713C91.3779 202.663 92.4384 200.475 92.3439 197.825C92.2495 195.175 91.0359 193.068 89.6333 193.118C88.2308 193.168 87.1703 195.356 87.2647 198.006C87.3592 200.656 88.5728 202.763 89.9753 202.713Z" fill="#81891A"/>
<path d="M79.3836 203.411C80.4013 200.995 80.1792 198.595 78.8876 198.052C77.5959 197.509 75.7238 199.027 74.706 201.443C73.6883 203.859 73.9104 206.258 75.2021 206.801C76.4938 207.345 78.3659 205.827 79.3836 203.411Z" fill="#81891A"/>
<path d="M96.9464 212.582C98.0472 209.969 97.7266 207.341 96.2303 206.711C94.7341 206.082 92.6289 207.69 91.5282 210.303C90.4275 212.916 90.7481 215.544 92.2443 216.174C93.7405 216.803 95.8457 215.195 96.9464 212.582Z" fill="#81891A"/>
<path d="M83.1386 197.012C84.6251 196.957 85.7597 194.995 85.6729 192.629C85.5861 190.263 84.3107 188.389 82.8242 188.443C81.3378 188.498 80.2032 190.46 80.29 192.826C80.3768 195.192 81.6522 197.066 83.1386 197.012Z" fill="#81891A"/>
<path d="M153.409 204.149C154.577 204.107 155.461 202.286 155.383 200.082C155.304 197.878 154.293 196.124 153.124 196.166C151.955 196.207 151.072 198.028 151.15 200.233C151.229 202.437 152.24 204.19 153.409 204.149Z" fill="#81891A"/>
<path d="M149.285 205.137C149.841 203.819 149.72 202.51 149.016 202.214C148.312 201.917 147.292 202.746 146.736 204.065C146.181 205.383 146.301 206.692 147.005 206.988C147.709 207.285 148.73 206.456 149.285 205.137Z" fill="#81891A"/>
<path d="M151.097 193.356C151.556 192.268 151.422 191.173 150.8 190.911C150.177 190.649 149.3 191.319 148.842 192.407C148.383 193.496 148.517 194.59 149.139 194.852C149.762 195.114 150.639 194.445 151.097 193.356Z" fill="#81891A"/>
<path d="M151.338 215.384C152.824 215.329 153.959 213.367 153.872 211.001C153.785 208.635 152.51 206.761 151.023 206.815C149.537 206.87 148.402 208.832 148.489 211.198C148.576 213.564 149.851 215.438 151.338 215.384Z" fill="#81891A"/>
<path d="M88.3001 169.986C89.2095 168.917 88.3087 166.658 86.288 164.94C84.2673 163.222 81.892 162.696 80.9826 163.764C80.0732 164.832 80.974 167.091 82.9947 168.809C85.0153 170.527 87.3906 171.054 88.3001 169.986Z" fill="#81891A"/>
<path d="M87.8224 178.381C88.6777 177.987 88.7727 176.37 88.0348 174.77C87.2968 173.169 86.0053 172.191 85.1501 172.585C84.2949 172.979 84.1998 174.595 84.9378 176.196C85.6757 177.796 86.9672 178.775 87.8224 178.381Z" fill="#81891A"/>
<path d="M78.6363 167.312C79.25 167.03 79.3467 165.931 78.8522 164.859C78.3577 163.786 77.4593 163.146 76.8456 163.429C76.2319 163.711 76.1352 164.81 76.6297 165.882C77.1242 166.955 78.0226 167.595 78.6363 167.312Z" fill="#81891A"/>
<path d="M97.9005 179.217C98.8631 178.084 98.1794 175.923 96.3734 174.39C94.5673 172.858 92.3229 172.535 91.3602 173.668C90.3976 174.801 91.0813 176.962 92.8873 178.494C94.6933 180.027 96.9378 180.35 97.9005 179.217Z" fill="#81891A"/>
<path d="M151.018 166.142C151.873 165.749 151.968 164.132 151.23 162.531C150.492 160.931 149.201 159.953 148.345 160.346C147.49 160.74 147.395 162.357 148.133 163.958C148.871 165.558 150.163 166.536 151.018 166.142Z" fill="#81891A"/>
<path d="M156.476 166.478C157.09 166.196 157.187 165.097 156.692 164.025C156.198 162.952 155.299 162.312 154.685 162.595C154.072 162.877 153.975 163.976 154.47 165.048C154.964 166.121 155.862 166.761 156.476 166.478Z" fill="#81891A"/>
<path d="M167.029 170.66C167.992 169.527 167.308 167.366 165.502 165.834C163.696 164.301 161.452 163.978 160.489 165.111C159.526 166.244 160.21 168.405 162.016 169.938C163.822 171.47 166.067 171.794 167.029 170.66Z" fill="#81891A"/>
<path d="M33.8746 208.171C36.3584 207.413 38.0383 205.707 37.6267 204.36C37.215 203.012 34.8678 202.535 32.384 203.293C29.9002 204.051 28.2204 205.757 28.632 207.104C29.0436 208.452 31.3908 208.929 33.8746 208.171Z" fill="#81891A"/>
<path d="M24.4926 206.319C25.4897 205.667 25.4646 203.866 24.4367 202.296C23.4088 200.726 21.7672 199.982 20.7702 200.634C19.7731 201.286 19.7982 203.087 20.8261 204.657C21.854 206.227 23.4956 206.971 24.4926 206.319Z" fill="#81891A"/>
<path d="M18.805 199.266C19.694 199.231 20.3665 198 20.3071 196.516C20.2478 195.033 19.479 193.859 18.5901 193.895C17.7011 193.93 17.0286 195.161 17.0879 196.645C17.1473 198.128 17.916 199.302 18.805 199.266Z" fill="#81891A"/>
<path d="M51.6012 139.111C44.4445 137.74 41.2336 129.058 38.6562 122.079C37.8598 119.923 37.1069 117.882 36.3684 116.5C35.5105 114.89 35.0471 114.872 35.029 114.872C31.9376 115.028 21.8995 121.605 16.2994 125.718L14.8008 123.678C16.3465 122.542 30.0408 112.586 34.906 112.343C37.7187 112.191 39.1051 115.979 41.0382 121.2C43.3947 127.578 46.3305 135.519 52.0826 136.619L51.6048 139.108L51.6012 139.111Z" fill="#515C04"/>
<path d="M28.6881 13.8886C29.4555 13.3568 30.5523 13.1759 31.4935 13.0565C34.7985 12.6368 38.3533 13.4761 41.5497 14.2323C49.5679 16.128 57.8214 18.9861 63.273 25.1616C65.6694 27.8786 67.407 31.1057 68.9889 34.3653C70.1509 36.7567 71.2695 39.4085 70.6722 41.9989C70.3428 43.4279 69.5175 44.6905 68.598 45.8373C66.8315 48.037 64.674 49.9218 62.2522 51.3726C59.3563 53.1091 55.682 54.2089 52.6268 52.769C50.4621 51.7488 49.0032 49.6179 48.1779 47.3749C47.3525 45.1319 47.0665 42.7297 46.6104 40.3853C46.2484 38.5222 45.7778 36.6843 45.2023 34.8754C42.7805 27.2925 36.7063 22.593 29.9442 18.9028C28.8437 18.3023 27.6238 16.9203 27.7469 15.5166C27.812 14.7605 28.1777 14.2467 28.6917 13.8922L28.6881 13.8886Z" fill="#7B5A16"/>
<path d="M55.7363 54.5237C54.5562 54.5237 53.3435 54.303 52.1634 53.7495C49.9806 52.7221 48.2032 50.5912 47.157 47.7476C46.4946 45.9495 46.1688 44.0755 45.8502 42.263C45.7525 41.7022 45.6548 41.1451 45.5462 40.588C45.195 38.7754 44.7317 36.9629 44.1706 35.2047C41.6656 27.3613 34.9723 22.8825 29.4265 19.8544C27.9351 19.0404 26.5052 17.2568 26.6645 15.4226C26.7514 14.4132 27.2401 13.5775 28.0691 13.0023C28.9994 12.3583 30.1976 12.134 31.356 11.9857C34.8637 11.5443 38.5488 12.4126 41.7995 13.1795C49.0575 14.8944 58.1508 17.7235 64.0875 24.4453C66.607 27.2998 68.4025 30.6716 69.9663 33.895C71.1754 36.3877 72.4098 39.2928 71.7329 42.2449C71.3274 44.014 70.2994 45.4575 69.4487 46.5175C67.5916 48.8329 65.3617 50.7793 62.8169 52.306C61.2241 53.2611 58.5743 54.5273 55.7435 54.5273L55.7363 54.5237ZM29.3071 14.7822C29.003 14.992 28.8582 15.2417 28.8256 15.6071C28.7496 16.4609 29.6184 17.4847 30.4618 17.9442C36.366 21.164 43.4936 25.9612 46.2339 34.539C46.824 36.3805 47.3055 38.2762 47.6747 40.1719C47.7833 40.7399 47.8846 41.3115 47.986 41.8867C48.3009 43.6848 48.6014 45.3815 49.1951 46.9951C49.6838 48.33 50.8421 50.725 53.0865 51.785C56.301 53.2973 60.1744 51.3473 61.6911 50.4392C64.0151 49.0464 66.0532 47.27 67.7473 45.1572C68.7935 43.8512 69.369 42.8021 69.6079 41.7565C70.1292 39.4918 69.0541 36.9991 68.0043 34.8393C66.5093 31.7569 64.8007 28.5371 62.4549 25.8816C56.9236 19.6156 48.2394 16.9312 41.2963 15.2887C38.223 14.5615 34.7406 13.7403 31.6238 14.1346C31.0736 14.2034 29.9225 14.3517 29.3035 14.7822H29.3071Z" fill="#4F3200"/>
</g>
<defs>
<clipPath id="clip0_928_5170">
<rect width="174" height="248" fill="white"/>
</clipPath>
</defs>
</svg>
