<svg width="394" height="210" viewBox="0 0 394 210" fill="none" xmlns="http://www.w3.org/2000/svg">
<g clip-path="url(#clip0_983_9720)">
<path d="M12.7672 137.751C31.5609 139.313 45.3367 152.427 56.6937 166.278C65.1437 176.58 74.612 188.891 87.6373 194.008C99.8863 198.819 120.893 196.468 125.992 182.492C125.992 182.492 118.973 190.455 111.897 190.076C106.252 190.129 98.1133 190.159 97.3189 181.486C97.2651 174.498 99.0528 171.709 106.344 169.346C118.691 165.34 130.543 175.263 141.507 179.092C165.863 187.599 213.923 174.046 223.158 147.262C223.158 147.262 212.101 152.75 208.29 152.946C204.479 153.143 190.355 149.893 194.097 137.294C197.838 124.695 215.846 126.831 227.189 132.354C242.49 141.574 259.155 150.821 277.442 151.602C297.324 152.451 314.815 142.065 328.734 128.687C336.687 121.046 350.771 103.594 362.557 102.478C369.679 100.964 382.223 98.4819 384.4 99.8744C384.4 99.8744 366.851 89.1026 354.394 87.5142C341.937 85.9259 323.128 86.4748 317.573 97.4651C317.573 97.4651 322.837 85.8178 334.774 84.3201C334.774 84.3201 313.01 85.8849 304.783 93.9325C295.514 100.27 287.48 109.153 276.817 113.256C270.409 115.722 259.812 115.956 255.677 109.358C245.209 92.6462 276.043 78.3343 288.773 84.5706C288.773 84.5706 268.562 48.4048 203.054 72.2392C203.054 72.2392 215.191 56.0563 227.092 57.9441C210.488 55.3075 194.571 58.2643 180.178 66.9682C172.181 71.8056 123.24 116.899 121.252 84.83C121.34 77.6659 127.395 73.0605 131.512 72.3619C135.629 71.6632 191.131 62.8934 193.947 29.589C193.947 29.589 185.858 45.2631 174.253 47.8815C147.137 54.0031 118.994 45.6746 92.5394 55.4367C81.5429 59.4953 70.9124 66.0676 61.2961 72.6998C38.7515 88.248 18.1178 110.053 12.7568 137.75" fill="#FF9310"/>
<path d="M19.6179 133.919C19.9268 133.039 23.8805 131.995 24.6258 131.721C29.4044 129.958 34.442 128.868 39.5029 128.332C49.4528 127.279 59.6284 128.39 69.1531 131.404C78.8801 134.478 85.8161 139.929 94.1455 145.449C119.83 162.481 156.412 181.96 186.295 163.253C185.022 164.051 178.718 160.161 177.689 159.539C173.146 156.792 169.323 152.827 169.141 147.249C168.876 139.032 172.628 129.394 179.637 124.771C190.948 117.306 206.232 116.77 218.172 122.939C231.641 129.897 244.437 138.207 259.651 140.878C271.748 143.002 281.941 135.881 291.639 129.612C297.97 125.518 303.576 119.896 310.725 117.19C313.571 116.111 324.115 112.425 326.66 114.771C315.219 104.22 298.675 112.18 286.983 117.977C275.291 123.774 258.562 131.358 247.067 122.081C242.609 118.483 238.238 111.053 237.777 105.297C236.745 92.425 249.8 81.0024 257.464 80.8519C256.057 80.8789 253.266 78.8473 251.947 78.3212C247.062 76.3794 241.949 74.9839 236.765 74.1184C221.788 71.616 206.134 74.0438 192.68 81.1121C178.53 88.5473 165.054 96.8165 150.205 102.914C140.988 106.698 131.582 110.18 121.605 107.317C111.825 104.511 104.296 97.8664 104.435 87.1898C104.532 79.7788 107.576 67.1228 114.909 63.2185C114.909 63.2185 40.5649 73.9921 19.6135 133.913L19.6179 133.919Z" fill="#FEDC65"/>
</g>
<defs>
<clipPath id="clip0_983_9720">
<rect width="149.304" height="373.592" fill="white" transform="matrix(-0.16731 -0.985904 -0.985904 0.16731 393.306 147.2)"/>
</clipPath>
</defs>
</svg>
