<svg width="169" height="212" viewBox="0 0 169 212" fill="none" xmlns="http://www.w3.org/2000/svg">
<g clip-path="url(#clip0_983_9707)">
<path d="M15.9932 122.492C21.0649 163.826 55.1735 193.652 92.1753 189.112C129.177 184.572 155.065 147.384 149.993 106.05C144.922 64.7153 104.141 5.03661 67.1371 9.57693C30.1334 14.1173 10.9215 81.157 15.9932 122.492Z" fill="#B0AD34"/>
<mask id="mask0_983_9707" style="mask-type:luminance" maskUnits="userSpaceOnUse" x="15" y="9" width="136" height="181">
<path d="M15.9932 122.492C21.0649 163.826 55.1735 193.652 92.1753 189.112C129.177 184.572 155.065 147.384 149.993 106.05C144.922 64.7153 104.141 5.03661 67.1371 9.57693C30.1334 14.1173 10.9215 81.157 15.9932 122.492Z" fill="white"/>
</mask>
<g mask="url(#mask0_983_9707)">
<path d="M144.094 79.3789C144.094 79.3789 144.663 139.649 102.851 158.421C58.5277 173.829 12.9376 123.281 12.3034 118.113C12.3034 118.113 26.0432 212.97 84.7698 203.665C143.497 194.36 181.89 117.767 144.094 79.3789Z" fill="#8F8D29"/>
</g>
<path d="M24.3935 55.815C24.3935 55.815 57.0901 61.2473 57.2891 85.6173C57.4881 109.987 18.7914 113.81 15.2292 113.2C15.2292 113.2 14.2715 74.6769 24.3935 55.815Z" fill="#FFE63D"/>
<path d="M77.6812 49.5319C80.3053 48.219 81.9964 45.5102 83.4283 42.742C87.1009 35.844 86.1544 26.9975 79.2636 22.5749C74.9264 19.8209 69.5729 19.5839 64.7797 20.6477C61.0629 21.4625 58.3594 23.1955 56.5571 26.4372C55.1824 28.8792 54.3974 31.6968 54.3387 34.5165C54.1655 39.0388 56.5848 43.138 59.8575 46.092C65.2152 51.1328 70.8976 52.8537 77.6533 49.5472L77.6812 49.5319Z" fill="#FFE63D"/>
<path d="M122.994 164.02C123.705 163.205 124.376 162.316 124.999 161.348C130.586 152.671 135.22 140.678 131.345 130.486C128.89 124.029 123.232 119.693 117.062 117.003C105.841 112.113 92.9337 111.881 84.1269 121.381C78.4841 127.469 74.2028 136.859 76.1562 145.261C77.5424 151.223 81.7064 157.077 85.7658 161.528C95.4506 172.15 113.156 175.286 122.995 164.018L122.994 164.02Z" fill="#FFE63D"/>
<path d="M142.209 77.5681C142.209 77.5681 139.707 87.7951 127.469 87.5545C115.232 87.3138 107.066 75.4466 106.35 64.1401C105.633 52.8335 115.281 45.0814 124.957 46.3062C124.957 46.3062 139.442 68.1226 142.209 77.5681Z" fill="#FFE63D"/>
<path d="M62.2462 184.979C62.2462 184.979 70.6917 174.377 65.5743 166.122C60.457 157.867 51.7231 157.743 47.7436 158.745C43.764 159.746 37.9238 163.707 37.4895 168.543C37.4895 168.543 48.6764 181.691 62.2462 184.979Z" fill="#FFE63D"/>
</g>
<defs>
<clipPath id="clip0_983_9707">
<rect width="146.278" height="194.824" fill="white" transform="matrix(-0.992556 0.121786 0.121786 0.992556 145.189 0)"/>
</clipPath>
</defs>
</svg>
