<svg width="158" height="147" viewBox="0 0 158 147" fill="none" xmlns="http://www.w3.org/2000/svg">
<g clip-path="url(#clip0_983_9723)">
<path d="M133.062 40.9433C129.993 44.1168 125.523 45.5265 121.261 44.1717C114.64 42.0652 111.667 34.9978 114.209 28.72C111.257 27.9689 108.288 27.7408 105.246 27.5879C100.598 27.3527 95.9999 27.4805 91.348 27.9339C78.4401 29.1906 65.7532 32.1969 53.6086 36.7821C49.434 38.3591 45.4537 40.1473 41.586 42.2889L40.4204 42.9337C38.7888 43.8374 37.1928 44.7725 35.7513 45.9505L33.6366 47.6784C33.1602 48.0679 32.7221 48.5241 32.2519 48.9545C17.0177 62.8793 13.2757 86.0641 23.0072 104.3C26.1847 110.254 30.6642 115.478 36.0538 119.538C36.9229 120.193 37.7068 120.938 38.6833 121.32C38.7432 120.862 38.5939 120.417 38.5155 119.985C36.0723 106.612 44.5411 93.6743 57.7611 90.499C63.2887 89.1707 69.1368 89.7665 74.3711 92.1433C83.899 96.4717 89.9379 106.584 89.2693 117.022C89.2097 117.947 88.3407 120.755 88.7844 121.406C89.1132 121.886 95.0018 116.732 95.4833 116.314C99.0488 113.218 102.399 109.917 105.602 106.444C114.476 96.8244 122.604 85.9939 128.356 74.1973C128.911 73.0591 129.447 71.913 129.969 70.7591C131.058 68.3498 131.917 66.0365 132.733 63.5376C134.49 58.1525 135.692 51.7294 134.709 46.0853C134.39 44.2577 133.923 42.5004 133.065 40.9419L133.062 40.9433ZM93.3057 59.3063C96.4203 57.3062 100.57 58.2126 102.572 61.3306C104.574 64.4486 103.673 68.5983 100.557 70.5991C97.4416 72.5999 93.2932 71.6928 91.2909 68.5747C89.2887 65.4567 90.1899 61.307 93.3057 59.3063ZM89.6807 74.4413C91.7852 73.0898 94.5879 73.7017 95.9412 75.8093C97.2946 77.9168 96.6849 80.7199 94.5804 82.0714C92.4758 83.4228 89.6732 82.8109 88.3198 80.7033C86.9665 78.5958 87.5762 75.7927 89.6807 74.4413ZM51.6754 44.4132C56.8935 41.0624 63.8428 42.581 67.1969 47.8044C70.5511 53.0277 69.0406 59.9787 63.8225 63.3295C58.6044 66.6803 51.6552 65.1617 48.301 59.9383C44.9468 54.7149 46.4573 47.7639 51.6754 44.4132Z" fill="#B0AD34"/>
<path d="M38.6805 121.32C38.8286 121.553 39.1296 121.733 39.3934 121.91C40.6853 122.774 44.1197 124.536 45.5935 125.165C51.1804 127.55 57.1335 128.802 63.2174 128.863C76.2634 128.991 85.03 123.55 85.0051 123.552C85.094 123.546 85.1681 123.604 85.2077 123.721L88.7065 121.474C88.6699 121.369 88.6359 121.244 88.6728 121.087C91.3853 109.321 85.3665 97.1394 74.3683 92.1437C69.1351 89.7662 63.2866 89.1723 57.7601 90.4999C44.539 93.6758 36.0706 106.612 38.5145 119.986C38.5936 120.419 38.7429 120.864 38.6823 121.321L38.6805 121.32Z" fill="#FFE63D"/>
<path d="M48.3001 59.9385C44.9458 54.7149 46.4565 47.764 51.6745 44.4133C56.8925 41.0626 63.8417 42.5809 67.196 47.8045C70.5503 53.0281 69.0395 59.979 63.8216 63.3297C58.6036 66.6804 51.6544 65.1621 48.3001 59.9385Z" fill="#FFE63D"/>
<path d="M114.21 28.7217C111.669 34.9988 114.641 42.0662 121.262 44.1734C125.523 45.5282 129.994 44.1186 133.063 40.9451C132.874 40.6022 132.889 40.2164 132.681 39.913C132.141 39.1164 131.728 38.3027 131.118 37.5691C128.934 34.9437 126.321 32.9546 123.211 31.5077C120.335 30.1704 117.284 29.1358 114.211 28.7228L114.21 28.7217Z" fill="#FFE63D"/>
<path d="M91.2923 68.5752C89.2898 65.4568 90.1918 61.3072 93.307 59.3068C96.4222 57.3064 100.571 58.2127 102.573 61.3311C104.576 64.4496 103.674 68.5992 100.559 70.5996C97.4435 72.6 93.2948 71.6937 91.2923 68.5752Z" fill="#FFE63D"/>
<path d="M88.3194 80.7021C86.9664 78.5951 87.5757 75.7914 89.6803 74.44C91.7849 73.0885 94.5878 73.701 95.9408 75.808C97.2938 77.915 96.6845 80.7186 94.5799 82.0701C92.4753 83.4215 89.6724 82.809 88.3194 80.7021Z" fill="#FFE63D"/>
</g>
<defs>
<clipPath id="clip0_983_9723">
<rect width="92.4429" height="127.239" fill="white" transform="matrix(-0.540335 -0.84145 -0.84145 0.540335 157.016 77.7861)"/>
</clipPath>
</defs>
</svg>
