<svg width="56" height="61" viewBox="0 0 56 61" fill="none" xmlns="http://www.w3.org/2000/svg">
<g clip-path="url(#clip0_999_12473)">
<path d="M54.6638 7.5319L32.6197 3.96457L32.6291 3.90657L9.40671 0.148542C9.40671 0.148542 1.52565 25.6119 7.26329 36.5396C10.2519 44.2249 20.5681 54.9263 23.5116 56.1467L23.4976 56.2337C26.4561 56.1768 39.9054 49.1576 45.2226 42.727C54.0972 34.179 54.6638 7.5319 54.6638 7.5319Z" fill="#FFB801"/>
<path d="M48.7784 12.4575L31.5628 9.67153L31.5698 9.62803L13.4345 6.69324C13.4345 6.69324 7.29707 26.5762 11.7558 35.1096C14.0878 41.1114 22.1438 49.4681 24.4377 50.4196L24.426 50.4921C26.7335 50.4489 37.2339 44.9762 41.3947 39.9506C48.3316 33.2613 48.764 12.4552 48.764 12.4552L48.7784 12.4575Z" fill="#DB282D"/>
<path d="M39.3885 21.5462C38.4086 21.1866 37.3251 21.6776 36.965 22.643C36.831 23.0047 36.8153 23.3819 36.9022 23.731C35.399 24.3663 32.1438 25.9837 30.5806 28.6455C30.5806 28.6455 30.2712 21.4369 29.8695 18.9746C30.4342 18.8203 30.9189 18.4148 31.134 17.8316C31.4941 16.8662 30.9918 15.7947 30.0119 15.4351C29.0321 15.0755 27.9485 15.5665 27.5884 16.5319C27.2951 17.3183 27.5803 18.1686 28.223 18.6523C27.4433 20.8341 25.3663 26.6477 25.008 27.8591C25.008 27.8591 22.7351 23.6868 20.1929 22.4378C20.3577 21.5599 19.8682 20.6655 18.9915 20.3449C18.0117 19.9853 16.9281 20.4763 16.568 21.4418C16.208 22.4072 16.7103 23.4787 17.6901 23.8383C17.986 23.9457 18.2881 23.9686 18.5806 23.934C19.3815 25.5861 21.1631 30.1815 19.8331 36.3244C19.8331 36.3244 27.8222 35.2646 32.7142 39.254C32.7142 39.254 33.837 28.6067 37.6963 24.8423C37.8156 24.9211 37.9441 24.9903 38.0828 25.0426C39.0627 25.4022 40.1463 24.9112 40.5063 23.9457C40.8664 22.9803 40.3641 21.9088 39.3843 21.5492L39.3885 21.5462Z" fill="#FFB801"/>
</g>
<defs>
<clipPath id="clip0_999_12473">
<rect width="47.7041" height="53.1139" fill="white" transform="translate(8.4849) rotate(9.19234)"/>
</clipPath>
</defs>
</svg>
