<svg width="57" height="61" viewBox="0 0 57 61" fill="none" xmlns="http://www.w3.org/2000/svg">
<g clip-path="url(#clip0_999_12487)">
<path d="M55.7061 10.4066L34.6945 5.46087L34.7059 5.41244L12.5821 0.204873C12.5821 0.204873 3.27978 24.1144 8.06729 34.996C10.4296 42.5821 19.6497 53.5674 22.3989 54.938L22.3788 55.0236C25.2326 55.1685 38.6664 49.3662 44.2319 43.5597C53.3669 35.9551 55.7061 10.4066 55.7061 10.4066Z" fill="#C0BCB3"/>
<path d="M33.1595 9.46731L16.3933 5.52084C16.3933 5.52084 12.6837 15.0629 11.9327 23.6068L28.8954 27.5996L33.1632 9.46818L33.1595 9.46731Z" fill="#FFB801"/>
<path d="M46.0079 31.6306C49.1375 23.6544 50.0667 13.4893 50.0667 13.4893L33.6601 9.62752L33.6689 9.59027L33.1609 9.4707L28.8931 27.6021L46.0079 31.6306Z" fill="#DB282D"/>
<path d="M28.8914 27.6016L24.0326 48.2439C24.0326 48.2439 24.0493 48.2557 24.0568 48.2574L24.041 48.3245C26.2687 48.436 36.7577 43.9064 41.1038 39.3738C43.1431 37.6756 44.752 34.8302 46.0061 31.6301L28.8914 27.6016Z" fill="#FFB801"/>
<path d="M11.9265 23.6094C11.626 27.0143 11.7957 30.2665 12.8615 32.6877C14.6969 38.5889 21.8519 47.1261 24.0259 48.2472L28.8847 27.605L11.9257 23.6131L11.9265 23.6094Z" fill="#DB282D"/>
</g>
<defs>
<clipPath id="clip0_999_12487">
<rect width="46.1045" height="51.1159" fill="white" transform="translate(11.7117) rotate(13.2453)"/>
</clipPath>
</defs>
</svg>
