<svg width="50" height="66" viewBox="0 0 50 66" fill="none" xmlns="http://www.w3.org/2000/svg">
<g clip-path="url(#clip0_999_12455)">
<path d="M41.9089 37.2127C40.9412 41.1254 39.8413 51.2377 36.3976 54.3991C34.5219 56.125 31.5073 57.1289 29.1698 58.0283C27.3437 58.7322 25.4834 59.3448 23.5981 59.8773C22.5769 60.1656 21.5442 60.4155 20.5115 60.6654C19.8291 60.8276 19.0758 61.1555 18.3575 61.1729C18.276 61.1764 18.1959 61.1743 18.1136 61.1687C17.5482 61.1234 17.4081 60.9292 16.9337 60.54C16.0366 59.8069 15.1479 59.064 14.2878 58.2898C12.6432 56.8104 11.0734 55.246 9.59107 53.6057C7.72701 51.54 5.20676 48.987 4.25267 46.31C2.68249 41.9086 6.42307 32.4493 7.39077 28.5367C8.35846 24.624 14.0273 0 14.0273 0C13.9104 0.508924 17.4528 2.52868 17.9132 2.80508C22.0983 5.2941 26.7883 6.85299 31.5099 7.99416C31.9491 8.10277 32.3896 8.20582 32.828 8.30538C38.2051 9.52593 43.926 10.2021 49.3394 8.8724C49.3394 8.8724 42.8766 33.3001 41.9089 37.2127Z" fill="#C6CECD"/>
<path d="M31.5099 7.99416L18.3575 61.1729C18.276 61.1764 18.1959 61.1743 18.1136 61.1687C17.5482 61.1234 17.4081 60.9292 16.9337 60.54C16.0366 59.8069 15.1479 59.064 14.2878 58.2898C12.6432 56.8104 11.0734 55.246 9.59107 53.6057C7.72701 51.54 5.20676 48.987 4.25267 46.31C2.68249 41.9086 6.42307 32.4493 7.39077 28.5367C8.35846 24.624 14.0273 0 14.0273 0C13.9104 0.508924 17.4528 2.52868 17.9132 2.80508C22.0983 5.2941 26.7883 6.85299 31.5099 7.99416Z" fill="#B6B7BA"/>
<path d="M35.0486 51.2578C31.4678 55.7712 21.149 57.6814 18.8201 58.0629C18.5153 58.1117 18.3481 58.1353 18.3481 58.1353C18.3481 58.1353 6.98127 50.779 7.22994 43.4201C8.45276 37.9807 16.1719 5.30859 16.1719 5.30859C16.1719 5.30859 22.3134 8.80157 30.4724 10.9495C34.8623 12.1032 39.8378 12.8698 44.7549 12.4961C44.7549 12.4961 37.4956 45.7606 35.0486 51.2578Z" fill="#DB282D"/>
<path d="M30.4724 10.9495L18.8201 58.0629C18.5153 58.1117 18.3481 58.1353 18.3481 58.1353C18.3481 58.1353 6.98127 50.779 7.22994 43.4201C8.45276 37.9807 16.1719 5.30859 16.1719 5.30859C16.1719 5.30859 22.3134 8.80157 30.4724 10.9495Z" fill="#A61E22"/>
<path d="M25.1984 40.1383C25.4672 43.9194 25.7324 47.7026 25.9984 51.483C24.324 51.0659 22.649 50.6517 20.9747 50.2346L20.7072 50.1685C19.1195 49.7758 17.5317 49.3831 15.9454 48.9967C17.9429 45.7761 19.9438 42.5534 21.9413 39.3328C22.2745 38.7946 22.6154 38.2376 22.7226 37.6111C22.8263 36.9866 22.637 36.266 22.1018 35.9179C21.5947 35.5886 20.9343 35.6616 20.3359 35.75C18.3952 36.0355 16.4525 36.3411 14.517 36.6661C15.3043 33.4949 16.0881 30.3258 16.8747 27.1574C18.1234 28.6069 19.5639 29.897 21.1488 30.9776C21.5882 31.2783 22.0515 31.5673 22.5716 31.687C23.0909 31.8096 23.6831 31.7344 24.0707 31.3752C24.6052 30.8809 24.601 30.0524 24.553 29.3283C24.3673 26.3834 24.1815 23.4384 23.9957 20.4935C23.9484 19.7666 23.904 19.0405 23.8588 18.3171C23.8039 17.4761 23.6322 17.1559 24.5715 17.3438C25.9183 17.6119 27.2542 17.96 28.5728 18.3659C28.6622 18.391 28.748 18.4182 28.8368 18.446C30.2798 18.7113 31.7161 19.0399 33.124 19.4591C34.0399 19.7299 33.7387 19.9332 33.3009 20.6524C32.9209 21.2706 32.5431 21.8923 32.1625 22.5133L27.5512 30.0698C27.1741 30.6888 26.7813 31.4191 27.0238 32.1055C27.1993 32.604 27.6881 32.9466 28.2047 33.0802C28.7207 33.2167 29.2652 33.177 29.7942 33.1158C31.7001 32.8986 33.5758 32.4287 35.3563 31.7283C34.5753 34.8982 33.7943 38.068 33.0098 41.2399C31.4489 40.05 29.8755 38.8748 28.2887 37.717C27.8005 37.3598 27.2504 36.9873 26.6483 37.0423C26.0124 37.1008 25.5091 37.6501 25.3125 38.2516C25.1125 38.8552 25.1544 39.5069 25.1984 40.1383Z" fill="#FFB801"/>
<path d="M28.5729 18.3652L20.7074 50.1678C19.1197 49.7751 17.5319 49.3824 15.9456 48.996C17.943 45.7754 19.944 42.5527 21.9415 39.3321C22.2747 38.7939 22.6156 38.2369 22.7228 37.6104C22.8264 36.9859 22.6372 36.2653 22.1019 35.9172C21.5949 35.5879 20.9345 35.6609 20.3361 35.7494C18.3954 36.0348 16.4527 36.3404 14.5172 36.6655C15.3045 33.4942 16.0883 30.3251 16.8749 27.1567C18.1236 28.6062 19.5641 29.8963 21.149 30.9769C21.5884 31.2776 22.0517 31.5666 22.5718 31.6863C23.0911 31.8089 23.6833 31.7337 24.0709 31.3745C24.6054 30.8802 24.6012 30.0517 24.5532 29.3276C24.3674 26.3827 24.1817 23.4377 23.9959 20.4928C23.9486 19.7659 23.9041 19.0398 23.859 18.3164C23.8041 17.4754 23.6324 17.1552 24.5717 17.3431C25.9184 17.6112 27.2543 17.9593 28.5729 18.3652Z" fill="#D99C00"/>
</g>
<defs>
<clipPath id="clip0_999_12455">
<rect width="36.4094" height="58.4243" fill="white" transform="translate(14.0273) rotate(13.8918)"/>
</clipPath>
</defs>
</svg>
