<svg width="71" height="61" viewBox="0 0 71 61" fill="none" xmlns="http://www.w3.org/2000/svg">
<path d="M1.54559 41.2223C1.54559 41.2223 25.3482 41.234 41.8555 21.3429C41.8555 21.3429 45.5981 26.0653 49.8707 26.8271C49.8707 26.8271 39.7277 48.1177 24.4974 50.9571C9.26703 53.7964 4.65288 46.5382 1.54559 41.2223Z" fill="#EAEAEA"/>
<path d="M1.56641 41.2355C1.56641 41.2355 13.1557 49.9146 25.2923 44.1433C37.4289 38.372 45.9371 26.7534 46.5757 24.663C46.5757 24.663 43.661 23.7024 41.9762 21.2864C41.9762 21.2864 28.3224 37.5425 1.56641 41.2355Z" fill="#D1D1D1"/>
<path d="M51.0052 3.73316C48.3881 5.55825 47.5212 8.95464 48.7857 11.7596L44.204 18.993L50.8592 24.0287L55.8697 15.5135C56.7773 15.3554 57.6657 15.0015 58.4715 14.4396C61.4278 12.378 62.153 8.31065 60.0914 5.35438C58.0298 2.39811 53.9615 1.67158 51.0052 3.73316ZM55.456 10.8298C54.5477 11.4632 53.2982 11.2405 52.6648 10.3322C52.0314 9.42385 52.2541 8.17441 53.1625 7.54099C54.0708 6.90757 55.3202 7.13035 55.9536 8.03866C56.587 8.94696 56.3643 10.1964 55.456 10.8298Z" fill="#CC876A"/>
<path d="M38.0452 17.9659C38.0452 17.9659 38.3615 21.137 41.3031 23.4249C44.176 25.6591 48.4437 29.3471 53.727 28.482C54.1634 28.4102 54.5619 28.1635 54.7792 27.7775C55.0599 27.2809 55.1151 26.4746 54.0784 25.2907C52.533 24.0747 40.7739 16.0122 39.4627 16.278C38.1514 16.5437 37.9831 17.5911 38.0443 17.9646L38.0452 17.9659Z" fill="#FFC800"/>
<mask id="mask0_989_9164" style="mask-type:luminance" maskUnits="userSpaceOnUse" x="38" y="16" width="17" height="13">
<path d="M38.053 17.9659C38.053 17.9659 38.3693 21.137 41.3109 23.4249C44.1838 25.6591 48.4515 29.3471 53.7348 28.482C54.1712 28.4102 54.5697 28.1635 54.787 27.7775C55.0678 27.2809 55.1229 26.4746 54.0863 25.2907C52.5408 24.0747 40.7817 16.0122 39.4705 16.278C38.1592 16.5437 37.9909 17.5911 38.0521 17.9646L38.053 17.9659Z" fill="white"/>
</mask>
<g mask="url(#mask0_989_9164)">
<path d="M52.3681 31.1769C53.3331 30.055 51.0339 26.495 47.2327 23.2255C43.4315 19.956 39.5677 18.215 38.6027 19.3369C37.6377 20.4589 39.937 24.0188 43.7382 27.2883C47.5394 30.5578 51.4031 32.2988 52.3681 31.1769Z" fill="#DAAD3C"/>
</g>
<path d="M51.4158 23.046L45.3483 17.1609L46.5377 15.3057L52.2304 17.6835L47.7953 13.3268L48.784 11.7581L56.2786 15.4563L55.8681 15.5121L55.3679 16.361L49.4393 13.0341L54.3463 18.1011L53.571 19.4154L46.9759 16.8249L52.1193 21.9087L51.4158 23.046Z" fill="#825440"/>
</svg>
