<svg width="30" height="71" viewBox="0 0 30 71" fill="none" xmlns="http://www.w3.org/2000/svg">
<g clip-path="url(#clip0_1007_12576)">
<path d="M8.1469 54.4477L11.103 55.2117L7.36449 69.6768L4.40837 68.9128L8.1469 54.4477Z" fill="#8F6E5C"/>
<path d="M8.11832 54.5589L9.66942 54.9598L5.95941 69.3146L4.4083 68.9137L8.11832 54.5589Z" fill="#775B4B"/>
<path d="M3.69928 53.5012C5.77606 54.9895 7.6653 55.8497 9.28683 56.3269C12.9922 57.4138 15.3075 56.5014 15.3075 56.5014L23.4483 1.53321L3.69928 53.5012Z" fill="#D1D1D1"/>
<path d="M3.69773 53.502C5.77451 54.9903 7.66375 55.8505 9.28528 56.3277L23.4468 1.534L3.69773 53.502Z" fill="#ABABAB"/>
<path d="M4.01162 53.5377C5.97133 54.9115 7.72776 55.8304 9.28463 56.3272C13.1777 57.5687 15.3053 56.5016 15.3053 56.5016L15.9439 52.2633C13.5423 52.3865 11.8979 52.2695 10.4389 51.9025C6.66438 50.959 5.54503 49.461 5.54503 49.461L4.01198 53.5364L4.01162 53.5377Z" fill="#639378"/>
<path d="M3.66656 53.583C5.62626 54.9568 7.72908 55.8301 9.28595 56.3269L10.4399 51.9036C6.66535 50.96 5.42591 48.8862 5.42591 48.8862L3.66799 53.5834L3.66656 53.583Z" fill="#517861"/>
</g>
<defs>
<clipPath id="clip0_1007_12576">
<rect width="12" height="70" fill="white" transform="matrix(-0.968187 -0.250229 -0.250229 0.968187 29.1343 3.00275)"/>
</clipPath>
</defs>
</svg>
