<svg width="42" height="75" viewBox="0 0 42 75" fill="none" xmlns="http://www.w3.org/2000/svg">
<g clip-path="url(#clip0_1008_12595)">
<path d="M8.68381 58.205C8.68381 58.205 29.8607 3.41475 32.1035 1.34899C32.1035 1.34899 39.032 9.06935 36.2398 16.8963C33.7737 23.9392 13.2395 60.5562 13.2395 60.5562L8.68655 58.1984L8.68381 58.205Z" fill="#D1D1D1"/>
<path d="M8.94897 59.3117L5.57307 68.7276L8.3271 69.8732L12.6024 60.8779L15.0863 61.9111L15.6344 60.5934L7.14174 57.0605L6.59358 58.3783L8.94897 59.3117Z" fill="#CC876A"/>
<path d="M5.78924 58.5249C6.38964 58.7747 7.07883 58.4904 7.32859 57.89C7.57835 57.2896 7.2941 56.6004 6.6937 56.3507C6.0933 56.1009 5.40411 56.3852 5.15435 56.9856C4.90459 57.586 5.18884 58.2751 5.78924 58.5249Z" fill="#FFC800"/>
<path d="M15.7775 62.6089C16.3779 62.8586 17.0671 62.5744 17.3169 61.974C17.5666 61.3736 17.2824 60.6844 16.682 60.4347C16.0816 60.1849 15.3924 60.4691 15.1426 61.0695C14.8929 61.6699 15.1771 62.3591 15.7775 62.6089Z" fill="#FFC800"/>
<path d="M5.84261 71.816C7.19624 72.3791 8.75004 71.7382 9.31314 70.3846C9.87623 69.031 9.23538 67.4772 7.88176 66.9141C6.52813 66.351 4.97433 66.9919 4.41123 68.3455C3.84814 69.6991 4.48899 71.2529 5.84261 71.816Z" fill="#FFC800"/>
</g>
<defs>
<clipPath id="clip0_1008_12595">
<rect width="13.3299" height="75.1412" fill="white" transform="translate(28.8605) rotate(22.5868)"/>
</clipPath>
</defs>
</svg>
