<svg width="39" height="76" viewBox="0 0 39 76" fill="none" xmlns="http://www.w3.org/2000/svg">
<g clip-path="url(#clip0_1056_7411)">
<path d="M21.5626 76.0009L21.1035 75.4631C23.2169 73.5968 24.3524 71.7055 24.482 69.832C24.6608 67.2391 22.8979 65.2374 21.1876 63.3034C19.3407 61.2091 17.4306 59.0436 18.072 56.1586C18.3454 54.9262 18.9026 54.3635 19.6035 53.6476C20.1398 53.1026 20.7461 52.4829 21.4225 51.3787C23.697 47.6674 23.7566 43.1975 21.5907 38.09L22.2355 37.8086C24.4926 43.1441 24.419 47.8348 22.0183 51.7563C21.2998 52.9281 20.6339 53.6084 20.1012 54.1533C19.4318 54.8372 18.9867 55.2895 18.7589 56.3189C18.1947 58.8441 19.9049 60.7817 21.7134 62.8297C23.5183 64.8741 25.3862 66.9898 25.183 69.8855C25.0393 71.9513 23.8232 74.0099 21.5626 76.0045V76.0009Z" fill="black"/>
<path d="M24.8774 38.1176H19.7852L22.3331 32.2266L24.8809 38.1176H24.8774ZM20.8576 37.4053H23.805L22.3331 33.9967L20.8611 37.4053H20.8576Z" fill="black"/>
<path d="M6.15277 24.5535L0.745065 19.0577C-0.520122 17.7719 -0.106571 15.5957 1.53712 14.8798L8.61656 11.7954C10.0885 11.1543 11.2976 10.011 12.0336 8.5649L15.6785 1.38803C16.4881 -0.207623 18.6189 -0.485437 19.8035 0.846647L24.6434 6.3032C25.7474 7.54624 27.2509 8.34763 28.8841 8.5649L36.8011 9.61204C38.55 9.84355 39.5348 11.774 38.7112 13.359L34.7159 21.0559C34.0325 22.3737 33.7766 23.8803 33.9904 25.3548L35.0839 32.895C35.3432 34.6937 33.7346 36.1932 31.9927 35.7693L24.4086 33.9243C22.9331 33.5646 21.3841 33.7106 19.9997 34.3339L11.932 37.9705C10.2918 38.7077 8.44133 37.5288 8.38175 35.7052L8.17497 29.287C8.1189 27.5061 7.39693 25.8143 6.15628 24.5535H6.15277Z" fill="#FF9925"/>
<path d="M19.9003 21.7374C18.3057 21.7374 17.044 20.9752 17.023 20.961C16.8583 20.8577 16.8057 20.6404 16.9073 20.473C17.009 20.3056 17.2227 20.2522 17.3875 20.3519C17.5031 20.4232 20.2543 22.0722 22.5463 19.9851C22.69 19.8533 22.9108 19.8675 23.0405 20.0136C23.1702 20.1596 23.1562 20.384 23.0125 20.5158C21.9891 21.4454 20.8816 21.7339 19.9003 21.7339V21.7374Z" fill="black"/>
<path d="M15.2791 18.4676C15.8733 18.4676 16.355 17.8728 16.355 17.1391C16.355 16.4053 15.8733 15.8105 15.2791 15.8105C14.6848 15.8105 14.2031 16.4053 14.2031 17.1391C14.2031 17.8728 14.6848 18.4676 15.2791 18.4676Z" fill="black"/>
<path d="M23.3572 17.7293C23.9514 17.7293 24.4331 17.1345 24.4331 16.4008C24.4331 15.6671 23.9514 15.0723 23.3572 15.0723C22.763 15.0723 22.2812 15.6671 22.2812 16.4008C22.2812 17.1345 22.763 17.7293 23.3572 17.7293Z" fill="black"/>
</g>
<defs>
<clipPath id="clip0_1056_7411">
<rect width="39" height="76" fill="white"/>
</clipPath>
</defs>
</svg>
