<svg width="71" height="63" viewBox="0 0 71 63" fill="none" xmlns="http://www.w3.org/2000/svg">
<path d="M64.6692 48.8893C62.4278 49.1757 60.1513 47.5274 58.2667 44.6176C56.3018 41.5923 54.764 37.2101 54.1207 32.2198C53.6081 28.2245 53.7539 24.4554 54.4172 21.3597C55.3721 16.862 57.4174 13.7763 60.1211 13.4245C64.6893 12.8416 69.4082 20.3044 70.6645 30.099C71.9209 39.8886 69.2373 48.3063 64.6692 48.8893Z" fill="#BBB7B8"/>
<path d="M58.2667 44.6177C56.3018 41.5924 54.764 37.2102 54.1207 32.2199C53.6081 28.2246 53.7539 24.4555 54.4172 21.3598C54.6685 21.2392 54.9298 21.1638 55.2012 21.1287C58.2265 20.7417 61.3574 25.6868 62.1916 32.1746C63.0158 38.6324 61.2619 44.1805 58.2667 44.6177Z" fill="#B3D6E9"/>
<path d="M3.78125 39.7135L29.6122 39.03L28.7578 31.1602L3.78125 36.4319V39.7135Z" fill="#FFB801"/>
<path d="M28.2431 25.943C28.2431 25.943 27.047 40.4867 30.8111 43.0497L41.9325 44.0749C41.9325 44.0749 36.2889 33.9787 38.5101 23.375L28.2431 25.943Z" fill="#D38C00"/>
<path d="M40.0537 15.7621C40.0537 15.7621 31.6712 38.0048 44.6721 48.6085L64.6734 48.8899C64.6734 48.8899 46.7978 38.4923 58.7735 13.8574L40.0537 15.7621Z" fill="#FFE166"/>
<path d="M0.0189194 33.7285C0.0189194 33.7285 -0.322812 41.5984 1.89844 42.7945L6.00425 41.0858L4.63732 33.7285H0.0189194Z" fill="#6B2B05"/>
</svg>
