<svg width="49" height="68" viewBox="0 0 49 68" fill="none" xmlns="http://www.w3.org/2000/svg">
<g clip-path="url(#clip0_1055_7355)">
<path d="M10.653 2.16227C10.5968 3.9908 18.5264 6.47959 20.0762 6.90001C31.2862 9.94262 38.4128 -1.8101 48.8473 0.154525C48.8473 0.154525 48.5759 29.4083 48.5759 29.4258C48.5883 28.0689 32.4893 34.1434 31.5095 34.6001C24.9091 37.6791 14.4184 36.8963 9.56641 30.7625C9.56641 30.7625 10.653 2.16631 10.6544 2.16092L10.653 2.16227Z" fill="#5B28DB"/>
<g clip-path="url(#clip1_1055_7355)">
<path d="M30.8041 21.5849C30.8041 21.5849 29.5929 25.0007 29.3477 25.0321C29.3477 25.0321 36.1486 22.7948 35.7442 18.9961" fill="#FF4433"/>
<path d="M28.8711 16.5247C28.8711 16.5247 31.1482 13.6747 31.3903 13.7233C31.3903 13.7233 24.2146 13.6907 23.3398 17.4132" fill="#FF4433"/>
<path d="M38.7248 12.7048C38.7248 12.7048 38.4531 14.872 37.0823 17.1954C35.5863 19.7313 32.7797 22.4534 27.5855 22.7465L25.25 19.4812C25.25 19.4812 27.9496 14.021 33.9198 12.7625C35.3347 12.4639 36.9339 12.4019 38.7248 12.7048Z" fill="#CBCBE0"/>
<path d="M38.7229 12.7048C38.7229 12.7048 38.4513 14.872 37.0804 17.1954C37.054 17.1886 37.0282 17.1794 37.0024 17.1665C36.0277 16.6903 34.4223 13.7285 33.918 12.7625C35.3329 12.4639 36.932 12.4019 38.7229 12.7048Z" fill="#FF4433"/>
<path d="M35.0135 13.6839C35.1483 13.6839 35.2575 13.5771 35.2575 13.4454C35.2575 13.3138 35.1483 13.207 35.0135 13.207C34.8788 13.207 34.7695 13.3138 34.7695 13.4454C34.7695 13.5771 34.8788 13.6839 35.0135 13.6839Z" fill="#FFFEFA"/>
<path d="M35.8768 14.8596C36.0116 14.8596 36.1208 14.7529 36.1208 14.6212C36.1208 14.4896 36.0116 14.3828 35.8768 14.3828C35.7421 14.3828 35.6328 14.4896 35.6328 14.6212C35.6328 14.7529 35.7421 14.8596 35.8768 14.8596Z" fill="#FFFEFA"/>
<path d="M36.6698 16.0081C36.8045 16.0081 36.9138 15.9013 36.9138 15.7697C36.9138 15.638 36.8045 15.5312 36.6698 15.5312C36.535 15.5312 36.4258 15.638 36.4258 15.7697C36.4258 15.9013 36.535 16.0081 36.6698 16.0081Z" fill="#FFFEFA"/>
<path d="M31.8571 19.154C32.7275 19.154 33.433 18.4645 33.433 17.6141C33.433 16.7636 32.7275 16.0742 31.8571 16.0742C30.9868 16.0742 30.2812 16.7636 30.2812 17.6141C30.2812 18.4645 30.9868 19.154 31.8571 19.154Z" fill="#FFFEFA"/>
<path d="M31.8589 19.4296C30.8338 19.4296 30 18.6148 30 17.6133C30 16.6117 30.8338 15.7969 31.8589 15.7969C32.8839 15.7969 33.7177 16.6117 33.7177 17.6133C33.7177 18.6148 32.8839 19.4296 31.8589 19.4296ZM31.8589 16.3505C31.1464 16.3505 30.566 16.9171 30.566 17.6139C30.566 18.3107 31.1457 18.8772 31.8589 18.8772C32.572 18.8772 33.1518 18.3107 33.1518 17.6139C33.1518 16.9171 32.572 16.3505 31.8589 16.3505Z" fill="#263A42"/>
<path d="M24.4883 20.1914L18.244 24.5904L22.1069 23.1427L15.8047 28.1372L23.0068 24.3913L21.6711 26.3779L26.666 23.2281L24.4883 20.1914Z" fill="#F9C079"/>
<path d="M25.3431 19.3305L24.2773 20.0293L26.6546 23.4914L27.7204 22.7926L25.3431 19.3305Z" fill="#213038"/>
</g>
<path d="M10.1622 1.84126L9.13994 1.76797C8.23423 1.70303 7.46625 2.10557 7.42462 2.66706L2.67784 66.6909C2.63621 67.2524 3.33669 67.7602 4.24241 67.8251L5.26464 67.8984C6.17035 67.9634 6.93833 67.5608 6.97996 66.9993L11.7267 2.97551C11.7684 2.41402 11.0679 1.9062 10.1622 1.84126Z" fill="#D38C00"/>
</g>
<defs>
<clipPath id="clip0_1055_7355">
<rect width="49" height="68" fill="white"/>
</clipPath>
<clipPath id="clip1_1055_7355">
<rect width="22.9194" height="15.6322" fill="white" transform="translate(15.8047 12.5059)"/>
</clipPath>
</defs>
</svg>
