<svg width="49" height="68" viewBox="0 0 49 68" fill="none" xmlns="http://www.w3.org/2000/svg">
<g clip-path="url(#clip0_1055_7373)">
<path d="M10.653 2.16227C10.5968 3.9908 18.5264 6.47959 20.0762 6.90001C31.2862 9.94262 38.4128 -1.8101 48.8473 0.154525C48.8473 0.154525 48.5759 29.4083 48.5759 29.4258C48.5883 28.0689 32.4893 34.1434 31.5095 34.6001C24.9091 37.6791 14.4184 36.8963 9.56641 30.7625C9.56641 30.7625 10.653 2.16631 10.6544 2.16092L10.653 2.16227Z" fill="#CB55E4"/>
<path d="M34.186 24.3806C30.5829 25.0045 27.1609 22.5919 26.5349 18.9975C25.9244 15.4414 28.2729 12.0687 31.8 11.3826C30.653 11.1145 29.4415 11.0725 28.211 11.2854C23.2669 12.1404 19.963 16.8367 20.8205 21.7713C21.6779 26.7059 26.3762 30.0158 31.3132 29.1597C35.4021 28.4554 38.3628 25.1083 38.7779 21.185C37.8307 22.8179 36.1973 24.0339 34.186 24.3806Z" fill="#FF9925"/>
<path d="M10.1622 1.84126L9.13994 1.76797C8.23423 1.70303 7.46625 2.10557 7.42462 2.66706L2.67784 66.6909C2.63621 67.2524 3.33669 67.7602 4.24241 67.8251L5.26464 67.8984C6.17035 67.9634 6.93833 67.5608 6.97996 66.9993L11.7267 2.97551C11.7684 2.41402 11.0679 1.9062 10.1622 1.84126Z" fill="#D38C00"/>
</g>
<defs>
<clipPath id="clip0_1055_7373">
<rect width="49" height="68" fill="white"/>
</clipPath>
</defs>
</svg>
