<svg width="70" height="51" viewBox="0 0 70 51" fill="none" xmlns="http://www.w3.org/2000/svg">
<g clip-path="url(#clip0_206_296)">
<path d="M0 19.8822C0 19.8822 6.38251 7.64843 14.4954 3.12521C22.6083 -1.39802 28.4557 0.332369 28.4557 0.332369C28.4557 0.332369 34.7054 8.46089 42.0175 0.00816576C42.0175 0.00816576 53.3217 -0.464468 58.5051 5.38682C63.6884 11.2381 70.606 18.1518 69.2741 20.6791C67.946 23.2063 61.1612 27.8584 58.6379 26.796C58.6379 26.796 55.845 23.8703 55.845 23.0735C55.845 23.0735 53.9818 36.3697 55.3138 39.2954C56.6458 42.221 58.6379 47.2755 57.9738 49.666C57.3098 52.0604 11.3002 50.0644 10.769 49.666C10.2378 49.2676 12.3666 41.8187 14.6243 39.0298C16.882 36.2408 13.8275 22.9407 13.8275 22.9407C13.8275 22.9407 11.9643 27.0616 10.3706 27.46C8.77693 27.8584 2.12881 24.9328 0 19.8822Z" fill="#67AFD7"/>
<mask id="mask0_206_296" style="mask-type:luminance" maskUnits="userSpaceOnUse" x="0" y="-1" width="70" height="52">
<path d="M0 19.8822C0 19.8822 6.38251 7.64843 14.4954 3.12521C22.6083 -1.39802 28.4557 0.332369 28.4557 0.332369C28.4557 0.332369 34.7054 8.46089 42.0175 0.00816576C42.0175 0.00816576 53.3217 -0.464468 58.5051 5.38682C63.6884 11.2381 70.606 18.1518 69.2741 20.6791C67.946 23.2063 61.1612 27.8584 58.6379 26.796C58.6379 26.796 55.845 23.8703 55.845 23.0735C55.845 23.0735 53.9818 36.3697 55.3138 39.2954C56.6458 42.221 58.6379 47.2755 57.9738 49.666C57.3098 52.0604 11.3002 50.0644 10.769 49.666C10.2378 49.2676 12.3666 41.8187 14.6243 39.0298C16.882 36.2408 13.8275 22.9407 13.8275 22.9407C13.8275 22.9407 11.9643 27.0616 10.3706 27.46C8.77693 27.8584 2.12881 24.9328 0 19.8822Z" fill="white"/>
</mask>
<g mask="url(#mask0_206_296)">
<path d="M65.4775 4.66406H3.37891V12.109H65.4775V4.66406Z" fill="#EBECF0"/>
<path d="M67.4697 32.8545H5.37109V43.4907H67.4697V32.8545Z" fill="#EBECF0"/>
<path d="M84.3514 15.9678H-1.29688V21.2878H84.3514V15.9678Z" fill="#EBECF0"/>
<path d="M81.4256 25.4131H-4.22266V28.2059H81.4256V25.4131Z" fill="#EBECF0"/>
</g>
</g>
<defs>
<clipPath id="clip0_206_296">
<rect width="69.4459" height="50.8257" fill="white"/>
</clipPath>
</defs>
</svg>
