<svg width="64" height="55" viewBox="0 0 64 55" fill="none" xmlns="http://www.w3.org/2000/svg">
<g clip-path="url(#clip0_206_275)">
<path d="M0 23.4807C0 23.4807 8.46455 34.7667 13.1644 35.3034C13.1644 35.3034 15.3664 34.9956 18.4957 31.3217L30.7604 42.8288C30.7604 42.8288 45.8072 43.768 52.3894 41.7554L51.5844 14.7517C51.5844 14.7517 60.7435 16.6341 63.419 15.6909C63.419 15.6909 64.078 4.33384 60.7198 0.00488281C60.7198 0.00488281 41.7782 2.25815 40.5706 1.05062C40.5706 1.05062 43.2264 8.43786 33.3689 9.24683C33.3689 9.24683 27.1379 9.64934 25.5239 5.21778C25.5239 5.21778 9.40374 6.69365 0 23.4886V23.4807Z" fill="#4F6153"/>
<path d="M16.3876 7.76337C16.3876 7.76337 24.9863 20.7936 20.5508 27.6442C16.1153 34.4948 11.4154 49.2732 12.8952 50.3465C14.375 51.4199 30.8977 56.2579 31.7027 54.5098C32.5077 52.7616 38.1507 17.4354 22.7015 6.01521C22.7015 6.01521 17.5951 5.6127 16.3876 7.76337Z" fill="#FFB801"/>
<path d="M42.3125 0.777769C42.3125 0.777769 51.0454 52.3622 52.1187 52.6305C53.1921 52.8989 63.8073 47.39 63.4048 44.3001C63.0023 41.2103 46.8822 0.777769 46.8822 0.777769C46.8822 0.777769 45.4063 -0.161421 42.3164 0.777769H42.3125Z" fill="#FFB801"/>
</g>
<defs>
<clipPath id="clip0_206_275">
<rect width="63.4703" height="54.8874" fill="white"/>
</clipPath>
</defs>
</svg>
