<svg width="70" height="76" viewBox="0 0 70 76" fill="none" xmlns="http://www.w3.org/2000/svg">
<g clip-path="url(#clip0_206_237)">
<path d="M-0.00390625 30.2591C-0.00390625 30.2591 6.36103 18.059 14.4516 13.5482C22.5421 9.03747 28.3734 10.7631 28.3734 10.7631C28.3734 10.7631 34.6059 18.8692 41.8979 10.4398C41.8979 10.4398 53.171 9.96845 58.34 15.8036C63.5091 21.6388 70.4077 28.5335 69.0794 31.0538C67.755 33.574 60.9888 38.2133 58.4725 37.1538C58.4725 37.1538 55.6873 34.2362 55.6873 33.4416C55.6873 33.4416 53.8293 46.7012 55.1576 49.6188C56.4859 52.5364 58.4725 57.5769 57.8103 59.9608C57.1481 62.3487 11.2652 60.3582 10.7355 59.9608C10.2057 59.5635 12.3286 52.1352 14.5801 49.3539C16.8316 46.5727 13.7855 33.3091 13.7855 33.3091C13.7855 33.3091 11.9274 37.4187 10.3381 37.816C8.74885 38.2133 2.11904 35.2957 -0.00390625 30.2591Z" fill="#DB282D"/>
<mask id="mask0_206_237" style="mask-type:luminance" maskUnits="userSpaceOnUse" x="-1" y="10" width="71" height="52">
<path d="M-0.00390625 30.2591C-0.00390625 30.2591 6.36103 18.059 14.4516 13.5482C22.5421 9.03747 28.3734 10.7631 28.3734 10.7631C28.3734 10.7631 34.6059 18.8692 41.8979 10.4398C41.8979 10.4398 53.171 9.96845 58.34 15.8036C63.5091 21.6388 70.4077 28.5335 69.0794 31.0538C67.755 33.574 60.9888 38.2133 58.4725 37.1538C58.4725 37.1538 55.6873 34.2362 55.6873 33.4416C55.6873 33.4416 53.8293 46.7012 55.1576 49.6188C56.4859 52.5364 58.4725 57.5769 57.8103 59.9608C57.1481 62.3487 11.2652 60.3582 10.7355 59.9608C10.2057 59.5635 12.3286 52.1352 14.5801 49.3539C16.8316 46.5727 13.7855 33.3091 13.7855 33.3091C13.7855 33.3091 11.9274 37.4187 10.3381 37.816C8.74885 38.2133 2.11904 35.2957 -0.00390625 30.2591Z" fill="white"/>
</mask>
<g mask="url(#mask0_206_237)">
<path d="M65.287 15.083H3.35938V22.5075H65.287V15.083Z" fill="#DB282D"/>
<path d="M67.2792 43.1963H5.35156V53.8032H67.2792V43.1963Z" fill="#DB282D"/>
<path d="M84.1156 26.3564H-1.29688V31.6619H84.1156V26.3564Z" fill="#DB282D"/>
<path d="M81.1976 35.7764H-4.21484V38.5615H81.1976V35.7764Z" fill="#DB282D"/>
</g>
<path d="M42.4117 33.079C42.739 32.9738 44.5386 32.3467 44.6009 32.2493C44.784 31.9533 44.1257 31.0262 44.8268 29.9589C45.528 28.8916 46.8719 28.6384 48.056 28.95C50.0543 29.4758 48.952 31.5404 49.0571 31.6728C49.1039 31.7312 50.0933 31.9338 50.4595 32.187C52.7927 33.7996 49.6064 36.3082 46.9732 34.867C46.6265 34.6761 46.3811 34.123 45.976 34.1268C45.789 34.1268 42.7662 35.3617 42.5364 35.5214C41.8703 35.9849 41.3327 38.6921 40.1992 39.2258C41.4808 39.5686 44.075 41.5591 45.1813 41.7149C45.8085 41.8045 45.6721 41.3371 46.0928 41.0722C48.8312 39.3427 52.2279 42.8095 49.3766 44.3754C49.0571 44.5507 48.5001 44.539 48.469 44.5702C48.2352 44.8 48.9987 46.4983 47.7249 47.1489C45.8007 48.1344 43.1207 45.7505 44.4295 43.7561C43.5764 43.7249 39.5565 40.9709 39.1942 41.3371C39.2682 42.8368 37.9555 43.7444 36.6233 42.8212C36.3974 42.6615 36.1442 42.1512 36.0702 42.1473C35.9183 42.1434 35.5482 43.2458 34.0992 42.9069C33.3629 42.7355 33.3668 42.1239 33.0474 41.9447C32.9617 41.898 32.6579 43.1367 31.4854 42.9186C30.0325 42.6537 30.4181 41.0254 30.3285 40.9358C30.1221 40.7216 26.5111 42.1629 26.3942 42.3382C26.1683 42.6771 26.3826 43.499 26.254 44.0092C25.8801 45.4973 23.3442 45.6842 23.0949 44.0482C23.0326 43.6509 23.1845 42.7744 23.056 42.5758C22.9742 42.4511 22.0432 42.4628 21.8835 41.4267C21.7199 40.371 22.1406 39.5491 23.2351 39.3699C24.9569 39.0895 25.2763 40.5385 25.4126 40.5463C25.6152 40.558 29.1054 39.0271 29.1171 38.8246C28.19 38.1507 27.6914 35.3461 27.1928 34.9137C27.0603 34.8007 25.5256 34.0801 25.3893 34.084C24.9491 34.0957 24.9997 34.5436 24.7543 34.7034C23.3987 35.5798 21.1862 34.8007 21.7121 33.0245C21.9107 32.3506 22.9897 32.148 23.0521 32.0429C23.2429 31.7351 22.8885 30.4458 23.6286 29.8459C25.3386 28.467 27.4382 30.5237 26.5111 32.4597C27.9017 33.1647 27.7537 31.6923 28.2796 30.7223C31.7113 24.4236 41.3912 25.861 42.4156 33.0751L42.4117 33.079ZM36.6389 35.2253C38.3957 36.9743 40.8108 34.6956 39.2799 32.483C37.6205 30.0796 34.5432 33.1413 36.6389 35.2253ZM31.0803 31.9221C29.2495 32.409 29.2144 35.9226 31.2088 35.8953C33.6239 35.8603 33.955 31.1586 31.0803 31.9221ZM33.5616 37.0951C33.994 37.321 34.4497 36.7912 34.664 36.7757C34.9367 36.7601 35.5248 37.4418 35.8754 36.912C36.2533 34.0022 32.9773 34.5436 33.5616 37.0951Z" fill="#FEFEFE"/>
</g>
<defs>
<clipPath id="clip0_206_237">
<rect width="69.3006" height="76.0071" fill="white"/>
</clipPath>
</defs>
</svg>
