<svg width="76" height="48" viewBox="0 0 76 48" fill="none" xmlns="http://www.w3.org/2000/svg">
<g clip-path="url(#clip0_206_267)">
<path d="M32.12 3.60096C32.12 3.60096 37.9047 11.6309 43.6924 5.48545C49.48 -0.662995 50.622 0.0228155 50.622 0.0228155C50.622 0.0228155 62.8801 11.8217 68.5127 12.2809L75.517 9.46315C75.517 9.46315 78.1051 23.3195 70.8743 25.8302C70.8743 25.8302 66.6879 21.5662 65.9246 19.7384C65.9246 19.7384 54.3522 15.2478 52.2978 14.4845L56.3321 29.7095L65.9246 36.7137C65.9246 36.7137 46.8918 58.2601 17.3542 41.0522L25.1188 28.8716L28.1632 11.6667L9.13047 11.8188C9.13047 11.8188 4.4103 16.691 4.56237 17.6034C4.56237 17.6094 -2.44185 15.9038 0.906698 0.00790659C0.906698 0.00790659 7.15056 2.07727 8.06299 3.75303C8.06299 3.75303 27.4506 2.38141 28.9474 2.38141L32.12 3.60096Z" fill="#FFB801"/>
<path d="M47.7917 33.891L44.136 31.9111C44.136 31.9111 42.7644 5.11383 45.9639 1.00194C45.9639 1.00194 50.3024 -0.140081 51.5219 0.0119898C51.5219 0.0119898 57.1545 27.9513 57.8403 28.8667L47.7917 33.891Z" fill="#6B2B05"/>
<path d="M32.8963 35.2621L36.5519 33.2822C36.5519 33.2822 37.9236 6.48492 34.7241 2.37304C34.7241 2.37304 30.3856 1.23101 29.1661 1.38308C29.1661 1.38308 23.5335 29.3224 22.8477 30.2378L32.8963 35.2621Z" fill="#6B2B05"/>
</g>
<defs>
<clipPath id="clip0_206_267">
<rect width="75.967" height="47.7205" fill="white"/>
</clipPath>
</defs>
</svg>
