<svg width="70" height="51" viewBox="0 0 70 51" fill="none" xmlns="http://www.w3.org/2000/svg">
<g clip-path="url(#clip0_206_252)">
<path d="M0 19.7893C0 19.7893 6.35268 7.61268 14.4277 3.1106C22.5026 -1.39149 28.3227 0.330811 28.3227 0.330811C28.3227 0.330811 34.5432 8.42134 41.8212 0.00812304C41.8212 0.00812304 53.0725 -0.462302 58.2316 5.36164C63.3907 11.1856 70.276 18.067 68.9503 20.5824C67.6284 23.0978 60.8753 27.7282 58.3638 26.6707C58.3638 26.6707 55.584 23.7588 55.584 22.9656C55.584 22.9656 53.7295 36.1997 55.0553 39.1117C56.381 42.0237 58.3638 47.0545 57.7029 49.4338C57.0419 51.8171 11.2474 49.8304 10.7187 49.4338C10.1899 49.0373 12.3088 41.6232 14.556 38.8473C16.8031 36.0714 13.7628 22.8335 13.7628 22.8335C13.7628 22.8335 11.9084 26.9351 10.3221 27.3316C8.73591 27.7282 2.11886 24.8162 0 19.7893Z" fill="black"/>
<mask id="mask0_206_252" style="mask-type:luminance" maskUnits="userSpaceOnUse" x="0" y="-1" width="70" height="52">
<path d="M0 19.7893C0 19.7893 6.35268 7.61268 14.4277 3.1106C22.5026 -1.39149 28.3227 0.330811 28.3227 0.330811C28.3227 0.330811 34.5432 8.42134 41.8212 0.00812304C41.8212 0.00812304 53.0725 -0.462302 58.2316 5.36164C63.3907 11.1856 70.276 18.067 68.9503 20.5824C67.6284 23.0978 60.8753 27.7282 58.3638 26.6707C58.3638 26.6707 55.584 23.7588 55.584 22.9656C55.584 22.9656 53.7295 36.1997 55.0553 39.1117C56.381 42.0237 58.3638 47.0545 57.7029 49.4338C57.0419 51.8171 11.2474 49.8304 10.7187 49.4338C10.1899 49.0373 12.3088 41.6232 14.556 38.8473C16.8031 36.0714 13.7628 22.8335 13.7628 22.8335C13.7628 22.8335 11.9084 26.9351 10.3221 27.3316C8.73591 27.7282 2.11886 24.8162 0 19.7893Z" fill="white"/>
</mask>
<g mask="url(#mask0_206_252)">
<path d="M65.1639 4.64258H3.35547V12.0527H65.1639V4.64258Z" fill="black"/>
<path d="M67.1521 32.7012H5.34375V43.2877H67.1521V32.7012Z" fill="black"/>
<path d="M83.9589 15.8945H-1.28906V21.1897H83.9589V15.8945Z" fill="black"/>
<path d="M81.0449 25.2949H-4.20312V28.0747H81.0449V25.2949Z" fill="black"/>
</g>
<path d="M42.3327 22.6039C42.6593 22.4989 44.4554 21.873 44.5176 21.7758C44.7004 21.4803 44.0433 20.555 44.7431 19.4898C45.4429 18.4245 46.7842 18.1718 47.9661 18.4828C49.9606 19.0077 48.8603 21.0682 48.9653 21.2004C49.0119 21.2587 49.9994 21.4609 50.3649 21.7136C52.6937 23.3231 49.5135 25.8269 46.8853 24.3884C46.5393 24.1979 46.2944 23.6458 45.89 23.6497C45.7034 23.6497 42.6865 24.8822 42.4571 25.0416C41.7923 25.5042 41.2558 28.2062 40.1244 28.7389C41.4035 29.081 43.9928 31.0677 45.0969 31.2232C45.7229 31.3126 45.5868 30.8461 46.0067 30.5817C48.7398 28.8555 52.13 32.3156 49.2841 33.8785C48.9653 34.0535 48.4093 34.0418 48.3782 34.0729C48.145 34.3023 48.907 35.9974 47.6357 36.6467C45.7151 37.6303 43.0403 35.2509 44.3466 33.2604C43.4951 33.2293 39.4829 30.4806 39.1214 30.8461C39.1952 32.3429 37.885 33.2487 36.5554 32.3273C36.3299 32.1679 36.0772 31.6586 36.0033 31.6547C35.8517 31.6508 35.4824 32.7511 34.0361 32.4128C33.3013 32.2418 33.3052 31.6314 32.9864 31.4526C32.9009 31.4059 32.5976 32.6422 31.4274 32.4245C29.9772 32.1601 30.3621 30.535 30.2727 30.4456C30.0666 30.2318 26.4626 31.6703 26.346 31.8452C26.1205 32.1835 26.3343 33.0038 26.2061 33.5131C25.8328 34.9982 23.3019 35.1849 23.053 33.552C22.9908 33.1554 23.1425 32.2807 23.0142 32.0824C22.9325 31.958 22.0033 31.9696 21.8439 30.9355C21.6806 29.8819 22.1005 29.0616 23.193 28.8827C24.9114 28.6028 25.2302 30.0491 25.3663 30.0568C25.5684 30.0685 29.0519 28.5406 29.0636 28.3384C28.1383 27.6658 27.6407 24.8666 27.143 24.4351C27.0108 24.3223 25.479 23.6031 25.343 23.607C24.9036 23.6186 24.9542 24.0657 24.7092 24.2251C23.3563 25.0999 21.148 24.3223 21.6729 22.5495C21.8711 21.8769 22.9481 21.6747 23.0103 21.5697C23.2008 21.2626 22.847 19.9757 23.5857 19.377C25.2924 18.0007 27.3879 20.0535 26.4626 21.9857C27.8506 22.6894 27.7029 21.2198 28.2277 20.2518C31.6529 13.9652 41.3141 15.3998 42.3366 22.6L42.3327 22.6039ZM36.5709 24.7461C38.3244 26.4917 40.7348 24.2173 39.2069 22.0091C37.5507 19.6103 34.4793 22.6661 36.5709 24.7461ZM31.023 21.4492C29.1958 21.9352 29.1608 25.442 31.1513 25.4148C33.5618 25.3798 33.8923 20.6872 31.023 21.4492ZM33.4996 26.6122C33.9311 26.8377 34.386 26.309 34.5998 26.2934C34.872 26.2779 35.459 26.9582 35.8089 26.4295C36.1861 23.5253 32.9164 24.0657 33.4996 26.6122Z" fill="#FEFEFE"/>
</g>
<defs>
<clipPath id="clip0_206_252">
<rect width="69.1214" height="50.5882" fill="white"/>
</clipPath>
</defs>
</svg>
