<svg width="73" height="66" viewBox="0 0 73 66" fill="none" xmlns="http://www.w3.org/2000/svg">
<g clip-path="url(#clip0_206_275)">
<path d="M5.73474 23.0863C5.73474 23.0863 11.9972 35.7278 16.5202 37.1133C16.5202 37.1133 18.7413 37.2125 22.4886 34.1715L32.4471 47.7238C32.4471 47.7238 47.0697 51.3936 53.9086 50.6162L58.0458 23.9192C58.0458 23.9192 66.7075 27.4416 69.5102 27.0026C69.5102 27.0026 72.231 15.9566 69.7194 11.0874C69.7194 11.0874 50.6846 9.84563 49.7178 8.43799C49.7178 8.43799 50.9807 16.1859 41.141 15.1821C41.141 15.1821 34.9412 14.4405 34.1632 9.78882C34.1632 9.78882 18.0445 8.29766 5.7333 23.0941L5.73474 23.0863Z" fill="#4F6153"/>
<path d="M24.7146 10.6248C24.7146 10.6248 30.7906 25.0056 25.1792 30.9315C19.5678 36.8575 12.2495 50.5298 13.5086 51.8552C14.7676 53.1807 30.1297 60.9531 31.2403 59.3813C32.3508 57.8094 44.3468 24.1066 31.2415 10.0584C31.2415 10.0584 26.2943 8.73065 24.7146 10.6248Z" fill="#FFB801"/>
<path d="M51.4824 8.48853C51.4824 8.48853 50.6534 60.8004 51.6598 61.2601C52.6661 61.7198 64.1085 58.241 64.2767 55.1296C64.4449 52.0182 55.9753 9.32258 55.9753 9.32258C55.9753 9.32258 54.6957 8.1298 51.4863 8.48925L51.4824 8.48853Z" fill="#FFB801"/>
</g>
<defs>
<clipPath id="clip0_206_275">
<rect width="63.4703" height="54.8874" fill="white" transform="translate(10.0195) rotate(10.5166)"/>
</clipPath>
</defs>
</svg>
