<svg width="61" height="151" viewBox="0 0 61 151" fill="none" xmlns="http://www.w3.org/2000/svg">
<g clip-path="url(#clip0_701_437)">
<path d="M59.41 144.36C59.41 144.36 61.37 141.55 60.61 138.19C59.85 134.83 53.53 112.48 52.95 110.75C52.37 109.02 46.22 87.4804 45.83 86.1304C45.44 84.7804 35.64 51.8904 35.06 49.7804C34.48 47.6604 18.71 0.920357 18.52 0.150357C18.33 -0.619643 16.44 1.78036 16.44 1.78036C16.44 1.78036 17.3 4.28036 18.49 7.73036L4.42 12.1704C3.61 9.61036 2.88 7.21036 2.49 5.79036H0C0 5.79036 14.93 57.6004 15.85 64.3004C16.76 71.0104 21.95 88.3804 23.47 90.8204C24.99 93.2604 39.62 145.38 40.84 147.82C42.06 150.26 43.58 150.56 43.58 150.56C43.58 150.56 40.47 137.11 39.95 133.69L55.18 128.51C57.09 136.23 58.99 143.53 59.41 144.36ZM45.45 92.2104C47.07 96.2004 49.22 102.87 50.23 106.67L34.38 111.51C32.83 105.81 31.24 100.11 30.02 95.9504C32.78 93.9304 42.42 92.5904 45.45 92.2104ZM25.32 27.8704C25.58 28.7804 27.31 34.2104 29.23 40.2004L28.03 38.2904C27.01 39.1004 16.85 42.0404 13.47 43.0004C12.56 39.4104 11.64 35.8204 10.81 32.6604C13.49 31.3404 22.44 28.6504 25.31 27.8004C25.31 27.8204 25.33 27.8604 25.33 27.8804L25.32 27.8704ZM5.55 15.6804L19.74 11.3804C21.24 15.7304 22.92 20.6304 24.05 23.9804C19.26 23.3704 11.99 27.3804 9.76 28.7004C8.86 25.3704 8.17 22.9904 7.94 22.4404C7.48 21.3704 6.55 18.6704 5.56 15.6704L5.55 15.6804ZM14.43 46.8504C14.6 46.6704 14.77 46.4704 14.94 46.2304C15.82 45.0204 27.4 42.2204 29.7 41.6804C31.3 46.6704 32.95 51.8104 33.94 54.8504L17.52 60.0504C16.86 56.8804 15.71 52.0304 14.42 46.8504H14.43ZM17.91 62.0104L18.73 63.9704C19.37 62.3804 31.9 59.5804 35.19 58.8804C35.82 61.2504 37.1 66.2204 38.51 71.4804C32.38 71.3504 23.87 74.4204 21.87 75.1804C19.85 69.9204 18.12 64.9504 18.12 63.5804C18.12 63.3104 18.04 62.7604 17.91 62.0204V62.0104ZM23.17 78.5104C25 77.1104 36.11 75.8304 39.59 75.4504C41.03 80.7104 42.47 85.6704 43.4 88.0004C38.75 87.9504 31.58 90.9804 28.87 92.2104C28.46 90.9104 28.14 90.0404 27.97 89.7504C27.35 88.6704 25.26 83.8004 23.16 78.5204L23.17 78.5104ZM39.03 129.24C38.26 126.11 37.03 121.39 35.66 116.27L50.84 109.65C51.05 111.23 52.63 118.05 54.38 125.24L39.03 129.24Z" fill="#3D2D00"/>
</g>
<defs>
<clipPath id="clip0_701_437">
<rect width="60.78" height="150.56" fill="white"/>
</clipPath>
</defs>
</svg>
