<svg width="275" height="274" viewBox="0 0 275 274" fill="none" xmlns="http://www.w3.org/2000/svg">
<path d="M146.126 188.906L146.436 181.2L150.437 179.782C156.356 177.679 162.719 176.191 168.336 180.342C169.115 180.923 170.254 182.517 170.438 183.391C171.537 188.552 155.204 194.858 146.126 188.906Z" fill="#3D2D00"/>
<path d="M207.904 150.316C204.381 159.211 196.426 159.035 189.484 161.79L184.716 155.47C188.641 147.885 196.375 143.79 204.86 144.582C207.507 144.824 208.824 147.972 207.897 150.311L207.904 150.316Z" fill="#3D2D00"/>
<path d="M84.1747 186.219L86.932 178.477C88.6999 178.545 90.7642 178.77 92.3995 178.657C104.434 177.818 110.114 185.377 108.968 188.217C106.745 193.741 91.14 193.73 84.1693 186.226L84.1747 186.219Z" fill="#3D2D00"/>
<path d="M255.333 139.89L250.596 133.572L253.43 128.772C256.387 123.76 260.154 119.232 266.456 118.789C267.307 118.731 269.071 118.973 269.771 119.36C274.535 121.988 266.824 138.017 255.333 139.89Z" fill="#3D2D00"/>
<path d="M85.3932 168.804L76.3932 166.325L75.9143 158.682C83.7708 152.441 100.667 157.567 100.307 163.29C100.064 167.24 91.7957 170.571 85.3878 168.811L85.3932 168.804Z" fill="#3D2D00"/>
<path d="M238.465 132.743L234.614 136.255L227.689 132.685C227.947 124.22 232.826 117.245 240.662 114.014C243.005 113.045 245.846 114.876 246.131 117.331C246.868 123.764 243.209 128.433 238.472 132.748L238.465 132.743Z" fill="#3D2D00"/>
<path d="M206.4 174.162L204.981 166.241C211.386 162.92 216.666 157.034 225.311 160.006C226.36 160.369 227.838 161.534 228.299 162.35C231.293 167.615 216.181 177.499 206.4 174.162Z" fill="#3D2D00"/>
<path d="M42.6583 149.979C35.5665 154.073 28.0667 150.391 21.4567 147.08L21.3148 139.78C31.0805 133.863 47.1646 142.301 45.3432 147.049C45.0214 147.878 43.5539 149.459 42.6515 149.974L42.6583 149.979Z" fill="#3D2D00"/>
<path d="M138.721 172.246L132.784 172.269L129.909 165.145C135.905 158.896 144.397 156.767 152.569 160.029C154.637 160.852 155.233 163.752 154.121 165.359C150.369 170.805 145.066 172.223 138.721 172.246Z" fill="#3D2D00"/>
<path d="M27.0607 168.103L30.623 160.432L34.9519 161.426C41.4857 160.912 47.3741 163.135 51.1388 168.908C52.1412 170.438 51.3785 173.801 49.3625 174.453C41.2619 177.067 33.5091 174.743 27.0553 168.11L27.0607 168.103Z" fill="#3D2D00"/>
<path d="M122.103 177.27C119.673 177.453 117.271 174.631 117.195 172.948C117.01 168.783 121.747 166.599 125.573 167.097L128.71 174.66C127.047 175.845 124.496 177.091 122.103 177.27Z" fill="#3D2D00"/>
<path d="M71.8025 167.319C67.7452 168.306 62.4204 168.757 61.2592 164.165C60.8884 162.702 62.4417 159.289 63.9371 158.933C66.3694 158.354 68.3887 158.356 71.0895 158.376L71.8079 167.312L71.8025 167.319Z" fill="#3D2D00"/>
<path d="M22.7083 165.889C21.0142 165.349 18.1009 164.212 16.4315 163.15C15.3294 162.447 14.8777 159.518 15.1702 158.39C15.4628 157.263 17.2979 155.187 18.5162 155.098C21.6269 154.878 24.2499 156.327 26.7029 158.062L22.7083 165.889Z" fill="#3D2D00"/>
<path d="M195.442 177.083C193.823 177.232 191.418 174.917 191.077 173.445C190.69 171.792 192.028 168.596 193.745 167.973C195.876 167.189 198.55 166.879 200.224 166.94L202.025 175.427C200.267 176.117 197.951 176.842 195.447 177.077L195.442 177.083Z" fill="#3D2D00"/>
<path d="M16.7679 147.457C12.8639 149.426 7.48168 148.297 6.57559 143.773C6.22284 141.993 8.26975 139.047 10.11 138.631C11.7949 138.259 15.3703 138.626 16.7475 139.722L16.7747 147.462L16.7679 147.457Z" fill="#3D2D00"/>
<path d="M81.5484 179.948L79.7798 183.732C79.3424 184.679 76.9041 184.06 75.6393 183.704C72.4271 182.806 70.6668 180.038 71.7028 177.001C72.5782 174.434 75.886 173.375 78.9347 174.508C79.9301 174.885 81.7299 175.795 82.4177 176.337C83.1056 176.88 81.9458 179.079 81.547 179.935L81.5484 179.948Z" fill="#3D2D00"/>
<path d="M181.872 168.674C180.695 169.691 177.229 169.255 175.934 168.278C174.639 167.302 173.404 163.601 174.815 162.218C176.69 160.372 178.813 159.108 180.762 158.049L186.166 164.992L181.879 168.68L181.872 168.674Z" fill="#3D2D00"/>
<path d="M232.665 140.858C233.356 141.634 230.315 149.694 225.121 147.907C222.025 146.847 220.975 143.403 222.66 140.523C223.219 139.562 224.711 137.039 225.633 137.269C227.682 137.78 231.453 139.482 232.665 140.858Z" fill="#3D2D00"/>
<path d="M141.521 187.647C138.716 190.45 133.027 189.653 131.61 185.666C130.917 183.716 132.778 180.458 134.961 179.749C136.714 179.177 139.921 179.606 141.875 180.418L141.528 187.653L141.521 187.647Z" fill="#3D2D00"/>
<path d="M251.845 142.927C249.437 146.318 245.235 149.311 241.82 146.442C240.84 145.626 240.036 142.64 240.668 141.46C241.972 139.021 243.977 137.487 246.46 135.877L251.845 142.927Z" fill="#3D2D00"/>
</svg>
