<svg width="17" height="21" viewBox="0 0 17 21" fill="none" xmlns="http://www.w3.org/2000/svg">
<path d="M11.8149 3.98428C8.88466 6.4108 9.6367 10.2275 9.74923 10.7151C10.0896 11.1698 10.4337 11.6441 10.7834 12.148L9.75851 10.7642L9.74923 10.7151C8.90783 9.60204 8.13306 8.6799 7.67585 8.14553C8.72696 6.11495 8.39829 3.62262 7.89763 2.37389C7.56527 1.53096 6.63641 1.08574 5.74728 1.33524C4.25212 1.77054 3.08697 2.71337 2.32356 4.05859C1.562 5.41363 1.18864 7.15325 1.29483 9.1686C1.31893 9.6729 1.55122 10.148 1.91844 10.4755C2.28381 10.7932 2.73922 10.9412 3.2005 10.9048C3.47138 10.8842 3.72871 10.8457 3.97436 10.7993C5.29104 10.5504 6.34858 9.95353 7.09972 9.0279C8.60678 10.809 12.3991 15.5266 12.8466 18.6478L13.8268 18.5032C13.5623 16.6196 12.2474 14.2934 10.8665 12.2646L11.8064 13.5218C17.2789 7.15453 11.8149 3.98428 11.8149 3.98428ZM6.63621 7.97569C5.92779 9.12731 4.74808 9.77776 3.1247 9.91164C2.92446 9.92913 2.73885 9.86245 2.57953 9.71956C2.40853 9.56869 2.30685 9.35384 2.29361 9.12227C2.22529 7.79181 2.29922 3.3915 6.02332 2.31095C6.44638 2.18009 6.83061 2.38223 6.96998 2.74262C7.41144 3.83971 7.70985 6.2258 6.63621 7.97569Z" fill="#FF9925"/>
<path d="M10.7841 12.1482L9.75929 10.7644L9.75 10.7153C10.0904 11.17 10.4345 11.6443 10.7841 12.1482Z" fill="#FF9925"/>
</svg>
