<svg width="49" height="46" viewBox="0 0 49 46" fill="none" xmlns="http://www.w3.org/2000/svg">
<g clip-path="url(#clip0_1503_7135)">
<path d="M10.1113 29.0242L17.3036 35.9017L16.5958 36.5974L9.9036 29.2276L10.1113 29.0242Z" fill="#FF9925"/>
<path d="M17.4154 14.609C20.7201 18.9928 24.2567 23.4944 27.2962 28.0913L25.6896 29.0276C25.0439 27.8697 24.2931 26.6964 23.5552 25.5383C21.3401 22.1703 18.8731 18.4914 16.6026 15.197L17.4154 14.609Z" fill="#FF9925"/>
<path d="M31.1149 25.99C30.7572 23.3512 30.5603 20.5621 29.5296 18.0897L29.7751 17.9461C31.0629 20.3963 31.4952 23.1687 32.1056 25.8417L31.1149 25.99Z" fill="#FF9925"/>
<path d="M7.39873 36.6884C7.57103 36.5415 7.59159 36.2827 7.44466 36.1104C7.29773 35.9381 7.03895 35.9176 6.86666 36.0645C6.69436 36.2114 6.6738 36.4702 6.82072 36.6425C6.96765 36.8148 7.22643 36.8354 7.39873 36.6884Z" fill="#FF9925"/>
<path d="M8.79717 36.5732C8.96946 36.4263 8.99003 36.1675 8.8431 35.9952C8.69617 35.8229 8.43739 35.8023 8.26509 35.9493C8.0928 36.0962 8.07223 36.355 8.21916 36.5273C8.36609 36.6996 8.62487 36.7201 8.79717 36.5732Z" fill="#FF9925"/>
<path d="M7.92998 38.0224C8.10228 37.8755 8.12284 37.6167 7.97591 37.4444C7.82898 37.2721 7.5702 37.2516 7.39791 37.3985C7.22561 37.5454 7.20505 37.8042 7.35197 37.9765C7.4989 38.1488 7.75768 38.1693 7.92998 38.0224Z" fill="#FF9925"/>
<path d="M18.3698 27.162C18.6135 26.9542 18.6426 26.5881 18.4348 26.3444C18.2269 26.1006 17.8608 26.0715 17.6171 26.2794C17.3734 26.4872 17.3443 26.8533 17.5521 27.0971C17.76 27.3408 18.1261 27.3699 18.3698 27.162Z" fill="#FF9925"/>
<path d="M42.2956 21.1474C42.5393 20.9395 42.5684 20.5734 42.3605 20.3297C42.1527 20.086 41.7866 20.0569 41.5429 20.2647C41.2991 20.4726 41.2701 20.8387 41.4779 21.0824C41.6858 21.3261 42.0518 21.3552 42.2956 21.1474Z" fill="#FF9925"/>
<path d="M41.9089 17.1015C42.1526 16.8936 42.1817 16.5276 41.9738 16.2838C41.766 16.0401 41.3999 16.011 41.1562 16.2188C40.9124 16.4267 40.8833 16.7928 41.0912 17.0365C41.299 17.2802 41.6651 17.3093 41.9089 17.1015Z" fill="#FF9925"/>
<path d="M47.5099 16.5174C47.8293 16.245 47.8674 15.7653 47.595 15.446C47.3227 15.1266 46.843 15.0885 46.5236 15.3608C46.2042 15.6332 46.1661 16.1129 46.4385 16.4323C46.7108 16.7516 47.1905 16.7898 47.5099 16.5174Z" fill="#FF9925"/>
<path d="M40.9886 20.1211C41.1609 19.9741 41.1814 19.7153 41.0345 19.543C40.8876 19.3708 40.6288 19.3502 40.4565 19.4971C40.2842 19.644 40.2636 19.9028 40.4106 20.0751C40.5575 20.2474 40.8163 20.268 40.9886 20.1211Z" fill="#FF9925"/>
</g>
<defs>
<clipPath id="clip0_1503_7135">
<rect width="45.24" height="21.2" fill="white" transform="translate(0 29.355) rotate(-40.4566)"/>
</clipPath>
</defs>
</svg>
