<svg width="58" height="58" viewBox="0 0 58 58" fill="none" xmlns="http://www.w3.org/2000/svg">
<circle cx="29" cy="29" r="29" fill="white"/>
<path d="M16.1049 23.1446C16.1049 23.1446 19.076 26.7691 19.5009 26.7691C20.4484 26.7615 22.3816 24.2998 23.0313 23.7024C24.7732 22.0997 26.38 19.9936 28.6211 19.0854C31.6879 17.8427 33.2979 20.5807 33.2357 23.423C33.1676 26.5334 30.3502 27.6253 27.8267 28.3C26.4746 28.6611 25.1076 28.9584 23.7444 29.2725C23.2052 29.3968 21.9552 29.4519 21.5378 29.8768C21.1981 30.2222 20.2644 32.984 20.5196 33.6754C21.2751 35.716 23.4083 36.7528 25.1098 37.8113C25.852 38.2729 28.9757 40.2957 26.9702 41.0969C24.5935 42.0461 22.2163 40.7514 18.5662 35.7458C18.1419 35.2279 15.4254 35.8323 15.0857 36.695C14.7321 37.594 15.5663 39.267 15.8954 40.0611C16.592 41.7428 17.8393 44.024 19.5003 44.8938C25.3187 47.941 33.3527 47.995 38.2076 42.9699C40.9543 40.1265 39.4603 34.8706 36.805 32.5661C36.1037 31.9575 35.4204 31.5866 34.9504 31.6893C36.5248 31.3466 38.6595 29.2168 39.5405 27.8702C42.6845 23.0651 40.5348 15.8107 35.145 13.9263C31.5895 12.6829 27.1041 12.5948 24.3393 14.2555C20.6041 16.4994 16.1049 23.1446 16.1049 23.1446Z" fill="#FFC800"/>
</svg>
