<svg width="58" height="58" viewBox="0 0 58 58" fill="none" xmlns="http://www.w3.org/2000/svg">
<circle cx="29" cy="29" r="29" fill="white"/>
<path d="M43 41.9125L42.594 35.9157L39.8526 36.5254C39.8526 36.5254 36.6037 11.0141 36.2992 10.3028C35.9947 9.59158 25.74 10.3028 25.334 10.7093C24.928 11.1157 13.9629 43.4371 15.0798 43.6403C16.1968 43.8436 32.7458 43.2339 32.7458 43.2339C32.6443 44.0472 33.1518 47.7061 33.1518 47.7061C34.5732 48.2141 40.1571 47.9093 40.1571 47.9093L39.9541 42.421L43 41.913V41.9125ZM33.0503 35.4077L23.9126 35.9157L30.5119 18.1291C30.5119 18.1291 33.1518 28.0895 33.0503 35.4077Z" fill="#FFC800"/>
</svg>
