<svg width="58" height="58" viewBox="0 0 58 58" fill="none" xmlns="http://www.w3.org/2000/svg">
<circle cx="29" cy="29" r="29" fill="white"/>
<path d="M29.1442 36.7128C29.1442 36.7128 34.4201 36.2274 34.4211 36.2274C35.0268 36.1565 35.4889 34.2334 35.8726 33.7754C36.8792 32.5738 38.4233 32.5425 39.7619 33.0871C40.7937 33.507 41.4469 33.8448 41.7889 34.7888C41.8947 35.0811 41.9525 35.3891 41.9763 35.7C42.0911 37.21 41.7713 38.8618 41.4056 40.2907C41.0911 41.5196 40.658 42.8048 39.8236 43.7688C38.9854 44.7372 37.8597 44.9968 36.67 45.2177C34.1753 45.6811 31.6133 45.7989 29.0849 45.8938C28.0205 45.9339 26.955 45.9451 25.8906 45.9857C23.9348 46.0605 21.7698 45.8366 19.8434 45.445C18.2642 45.1243 17.0394 44.2523 16.6812 42.5594C15.6746 37.8049 19.9477 34.8068 22.9704 32.1534C23.6103 31.5917 24.273 31.0418 24.8844 30.4469C26.0637 29.2986 27.0656 27.6287 27.9631 26.2404C28.7538 25.0178 29.611 23.9653 29.6784 22.4352C29.7248 21.3828 29.0389 20.3357 27.8677 20.4696C27.4005 20.5229 27.4512 20.8969 27.4517 20.8983C27.7012 22.7178 27.604 24.6868 26.5846 26.2585C25.365 28.139 23.1767 29.0273 21.024 28.7672C18.9904 28.5213 17.8482 26.8871 16.9749 25.1366C15.908 22.9989 15.5598 20.6123 16.7353 18.4326C18.5559 15.0557 21.8328 10.4992 29.6357 12.4824C36.9703 14.8949 38.1145 19.6117 38.1666 20.9521C38.2188 22.2925 37.6463 25.9373 35.6179 28.3497C33.5895 30.7622 29.1447 36.7133 29.1447 36.7133L29.1442 36.7128Z" fill="#FFC800"/>
</svg>
