<svg width="58" height="58" viewBox="0 0 58 58" fill="none" xmlns="http://www.w3.org/2000/svg">
<circle cx="29" cy="29" r="29" fill="white"/>
<path d="M18.2109 27.9404C20.0584 25.1131 22.3037 22.5481 24.8599 20.3462C25.186 26.1489 25.5112 31.9894 24.7985 37.7573C24.7035 38.5284 24.5817 39.3198 24.1838 39.9865C23.8315 40.5772 23.2881 41.0248 22.7412 41.4402C21.7806 42.17 20.7745 42.8392 19.7307 43.4423C19.4907 43.5809 19.2403 43.724 19.0844 43.953C18.9285 44.1826 18.9003 44.5263 19.0997 44.7191C19.2665 44.8801 19.5239 44.885 19.7555 44.8801C25.7175 44.7564 31.6796 44.6143 37.6412 44.4538C38.0381 44.4429 38.9517 44.1537 38.4944 43.6003C38.0613 43.0767 37.1289 42.8327 36.5311 42.56C35.8699 42.2579 35.2053 41.9097 34.7401 41.3324C33.9581 40.3616 33.926 39.0038 33.9304 37.7553C33.9591 29.2614 33.9873 20.7675 34.016 12.2736C34.0205 11.0032 33.3608 11.1165 32.3843 11.1021C31.3045 11.0857 30.2251 11.0698 29.1452 11.0534C28.1505 11.0385 27.128 11.0281 26.1966 11.3793C25.2796 11.7251 24.5258 12.3928 23.78 13.0307C20.9309 15.4685 17.8219 17.6967 14.2834 18.9233C14.125 18.9785 13.9528 19.0411 13.8657 19.1852C13.7489 19.3779 13.8335 19.6253 13.9221 19.8325C15.1217 22.6569 16.5495 25.3838 18.1866 27.9772C18.1946 27.9653 18.2025 27.9528 18.2104 27.9409L18.2109 27.9404Z" fill="#FFB300"/>
</svg>
