<svg width="82" height="61" viewBox="0 0 82 61" fill="none" xmlns="http://www.w3.org/2000/svg">
<path d="M81.1909 26.6714L77.6987 6.3594C77.5229 5.3321 76.9604 4.44139 76.1167 3.85159C75.2925 3.27347 74.2964 3.05863 73.312 3.23441L65.6323 4.62501C63.2104 1.69141 59.6753 0.00390434 55.855 0.00390434L12.695 0C5.695 0 0 5.6953 0 12.695V36.816C0 38.9176 1.707 40.6246 3.8086 40.6246H29.1996V59.6676C29.1996 60.3707 29.766 60.9371 30.4691 60.9371H38.0863C38.7894 60.9371 39.3558 60.3707 39.3558 59.6676V40.6246H64.7468C66.8484 40.6246 68.5554 38.9176 68.5554 36.816V32.8551L78.1296 31.1246C80.1765 30.7535 81.5515 28.7574 81.1921 26.6754L81.1909 26.6714ZM78.6909 27.1011V27.1167L66.6009 20.8315C65.9759 20.5073 65.2142 20.7495 64.89 21.3745C64.5658 21.9956 64.808 22.7612 65.433 23.0854L76.495 28.8354L45.702 34.4057V33.0776L52.9872 25.0971C53.4598 24.5815 53.4247 23.7768 52.9051 23.3041C52.3895 22.8314 51.5848 22.8666 51.1121 23.3861L45.7019 29.3119V17.4529L56.5649 23.1013C57.1079 23.3826 57.6938 23.5193 58.2797 23.5193C59.307 23.5193 60.3266 23.0935 61.057 22.2927L75.202 6.80468L78.6909 27.1011ZM72.5425 5.95308L59.1835 20.5821C58.8085 20.9961 58.2226 21.1016 57.7382 20.8477L45.7032 14.5899V12.6915C45.7032 12.0353 45.7696 11.3946 45.8907 10.7696L72.5427 5.9493L72.5425 5.95308ZM55.8585 2.53898C58.4093 2.53898 60.7999 3.4882 62.6515 5.16398L46.8505 8.02339C48.5458 4.76949 51.9443 2.54288 55.8583 2.54288L55.8585 2.53898ZM2.5385 36.816V12.695C2.5385 7.09338 7.0932 2.53898 12.6945 2.53898H48.2495C45.1636 4.85928 43.1636 8.54678 43.1636 12.695V38.086H3.8086C3.10938 38.086 2.5385 37.5152 2.5385 36.816ZM36.8155 58.398H31.7374V40.625H36.8155V58.398ZM66.0145 36.816C66.0145 37.5152 65.4442 38.0855 64.745 38.0855H45.702V36.9878L66.014 33.312L66.0145 36.816ZM38.0845 24.121V16.5038C38.0845 14.4022 36.3775 12.6952 34.2759 12.6952H11.4239C9.3223 12.6952 7.6153 14.4022 7.6153 16.5038V24.121C7.6153 26.2226 9.3223 27.9296 11.4239 27.9296H34.2759C36.3775 27.9296 38.0845 26.2226 38.0845 24.121ZM10.1545 24.121V16.5038C10.1545 15.8046 10.7248 15.2343 11.424 15.2343H34.276C34.9752 15.2343 35.5455 15.8046 35.5455 16.5038V24.121C35.5455 24.8202 34.9752 25.3905 34.276 25.3905H11.424C10.7248 25.3905 10.1545 24.8202 10.1545 24.121Z" fill="black"/>
</svg>
