<svg width="86" height="91" viewBox="0 0 86 91" fill="none" xmlns="http://www.w3.org/2000/svg">
<g clip-path="url(#clip0_17_226)">
<path d="M57.2356 -0.332031C51.7434 -0.332031 47.2747 4.93747 47.2747 11.414C47.2747 17.8906 51.7435 23.16 57.2356 23.16C62.7278 23.16 67.1965 17.8905 67.1965 11.414C67.1965 4.93737 62.7277 -0.332031 57.2356 -0.332031ZM57.2356 20.035C53.4661 20.035 50.3997 16.1678 50.3997 11.4139C50.3997 6.65997 53.4661 2.79277 57.2356 2.79277C61.0051 2.79277 64.0715 6.65997 64.0715 11.4139C64.0715 16.1678 61.0051 20.035 57.2356 20.035Z" fill="black"/>
<path d="M78.9006 19.266L63.0806 27.2855C61.3423 25.391 58.8618 24.2738 56.272 24.2738H54.7603C53.1587 24.2738 51.6236 24.6918 50.2681 25.4496C50.1041 25.4379 49.94 25.4418 49.772 25.4848C49.4634 25.5629 18.811 33.0903 3.17402 33.2348C1.68962 33.2465 0.404523 34.1606 -0.0993769 35.5629C-0.607187 36.9731 -0.193127 38.5082 0.955323 39.4691L5.67412 43.43C10.3929 47.3948 11.9241 53.86 9.48662 59.524L7.14282 64.9615C6.54907 66.3443 6.87329 67.9029 7.96704 68.9342C8.64282 69.5709 9.50224 69.899 10.3732 69.899C10.9162 69.899 11.463 69.774 11.9748 69.5123C18.3498 66.2896 30.5058 60.6607 42.8928 57.6963L42.6233 58.6885L30.8613 80.8995C30.1699 82.2042 30.0605 83.7472 30.5566 85.1378C31.0527 86.5245 32.1113 87.6534 33.4707 88.2276C34.1348 88.5089 34.8301 88.6456 35.5176 88.6456C37.2364 88.6456 38.9043 87.8018 39.9082 86.3018L52.4122 67.5868L54.7286 69.3524C56.1622 70.4462 56.5724 72.4501 55.6778 74.0204L50.6466 82.8446C49.8498 84.2469 49.6818 85.9266 50.1935 87.4579C50.7052 88.9892 51.8458 90.2352 53.3302 90.872C54.0529 91.1845 54.8107 91.3329 55.5607 91.3329C57.6232 91.3329 59.6115 90.2118 60.6154 88.2899L70.8384 68.7309C72.2876 65.9614 71.2173 62.5239 68.4517 61.0668L63.19 58.2895L67.0572 36.6335L83.2562 27.3405C84.682 26.5241 85.5648 25.0007 85.5648 23.36C85.5648 22.5631 85.3617 21.7819 84.975 21.1022C83.7641 18.9616 81.0961 18.1569 78.8969 19.2741L78.9006 19.266ZM10.5646 66.727C10.4006 66.813 10.2443 66.7895 10.1076 66.6606C9.96696 66.5278 9.93571 66.3755 10.0099 66.1997L12.3537 60.7622C15.342 53.8247 13.467 45.8992 7.68183 41.0392L2.96303 37.0783C2.77944 36.926 2.79506 36.7463 2.84194 36.6213C2.90444 36.4494 3.02553 36.3635 3.20522 36.3595C15.7282 36.2463 36.8502 31.6993 46.0492 29.5783L40.4789 36.4611C38.975 38.3166 38.975 41.0158 40.475 42.8713L45.2953 48.844L43.8148 54.2854C30.5488 57.2073 17.3418 63.2971 10.5608 66.7264L10.5646 66.727ZM37.3106 84.563C36.7364 85.4185 35.6348 85.7505 34.6856 85.3482C34.1231 85.1099 33.7012 84.6646 33.4981 84.0904C33.295 83.5162 33.338 82.9029 33.6231 82.3638L44.6031 61.6298L49.9234 65.6884L37.3104 84.5674L37.3106 84.563ZM64.1116 35.395L59.9241 58.856C59.803 59.524 60.1311 60.1958 60.7327 60.5122L67.0022 63.8247C68.2483 64.481 68.7288 66.0278 68.0764 67.2778L57.8534 86.8398C57.2362 88.0195 55.7948 88.5312 54.5722 88.0039C53.8964 87.711 53.3925 87.1641 53.162 86.4648C52.9276 85.7656 53.0018 85.0273 53.3651 84.3867L58.3924 75.5664C60.0604 72.6445 59.2987 68.9062 56.6229 66.8672L53.3534 64.375C53.244 64.2227 53.1112 64.086 52.9472 63.9766C52.8417 63.9063 52.7284 63.8516 52.6112 63.8125L45.8651 58.6719L47.7245 51.8281C49.3417 53.4961 51.9354 53.8281 53.9433 52.5703C55.1738 51.793 56.0019 50.5234 56.2167 49.0859C56.4277 47.6484 56.0058 46.1914 55.0487 45.0937L50.8417 40.2539C50.2753 39.6055 49.2909 39.5313 48.6386 40.1016C47.9863 40.668 47.9199 41.6563 48.4863 42.3047L52.6933 47.1445C53.0527 47.5586 53.2089 48.0859 53.1269 48.6289C53.0448 49.1719 52.748 49.6328 52.2831 49.9258C51.4902 50.4258 50.4472 50.2539 49.8573 49.5195L42.9159 40.914C42.3339 40.1953 42.3378 39.1484 42.9198 38.4296L50.0018 29.6796C51.1737 28.2343 52.912 27.4023 54.7713 27.4023H56.283C58.1814 27.4023 60.0018 28.3047 61.1502 29.8164L63.5291 32.9453C64.0604 33.6446 64.2752 34.5391 64.1229 35.4023L64.1116 35.395ZM81.7096 24.622L67.0146 33.0517C66.7998 32.3369 66.4677 31.6533 66.0068 31.0478L65.0498 29.79L80.3158 22.0517C81.0189 21.6924 81.8744 21.9463 82.2611 22.6338C82.3861 22.8525 82.4486 23.0947 82.4486 23.3525C82.4486 23.876 82.1666 24.3603 81.7096 24.622Z" fill="black"/>
</g>
<defs>
<clipPath id="clip0_17_226">
<rect width="86" height="91" fill="white"/>
</clipPath>
</defs>
</svg>
