<svg width="62" height="61" viewBox="0 0 62 61" fill="none" xmlns="http://www.w3.org/2000/svg">
<path d="M33.0959 54.5854C45.3531 54.5854 55.2894 44.3667 55.2894 31.7612C55.2894 19.1558 45.3531 8.93701 33.0959 8.93701C20.8387 8.93701 10.9023 19.1558 10.9023 31.7612C10.9023 44.3667 20.8387 54.5854 33.0959 54.5854Z" fill="#FFB801"/>
<path d="M37.9222 29.1941C37.8904 29.1113 37.833 29.0476 37.7502 29.0094C37.7056 28.9903 37.661 28.9775 37.6101 28.9775C37.4826 28.9775 37.3616 29.054 37.3107 29.1686C35.8328 32.3919 33.3357 32.6404 32.6031 32.6404H32.4694C32.412 32.6404 32.3547 32.6404 32.2974 32.6404C29.5391 32.6404 26.6725 29.1304 26.6471 29.0986C26.5834 29.0221 26.4878 28.9775 26.3923 28.9775C26.3158 28.9775 26.2457 29.003 26.1884 29.0476C26.1183 29.1049 26.0801 29.1814 26.0674 29.2706C26.061 29.3597 26.0865 29.4426 26.1374 29.5126C26.2648 29.6655 29.2206 33.2965 32.2719 33.2965C32.342 33.2965 32.412 33.2965 32.4821 33.2965H32.5649C33.1637 33.2965 36.2341 33.1118 37.9158 29.4489C37.954 29.3661 37.9541 29.2769 37.9222 29.1941Z" fill="#260E09"/>
<path d="M32.0089 22.3652L29.6328 28.7035H34.3849L32.0089 22.3652ZM32.0089 24.2381L33.4358 28.041H30.582L32.0089 24.2381Z" fill="#260E09"/>
<path d="M26.233 27.6144C27.313 27.6144 28.1886 26.6447 28.1886 25.4486C28.1886 24.2524 27.313 23.2827 26.233 23.2827C25.1529 23.2827 24.2773 24.2524 24.2773 25.4486C24.2773 26.6447 25.1529 27.6144 26.233 27.6144Z" fill="#260E09"/>
<path d="M37.6119 27.6144C38.6919 27.6144 39.5675 26.6447 39.5675 25.4486C39.5675 24.2524 38.6919 23.2827 37.6119 23.2827C36.5318 23.2827 35.6562 24.2524 35.6562 25.4486C35.6562 26.6447 36.5318 27.6144 37.6119 27.6144Z" fill="#260E09"/>
<path d="M18.239 35.2583C20.8002 35.2583 22.8765 33.1821 22.8765 30.6209C22.8765 28.0597 20.8002 25.9834 18.239 25.9834C15.6778 25.9834 13.6016 28.0597 13.6016 30.6209C13.6016 33.1821 15.6778 35.2583 18.239 35.2583Z" fill="#F3695B"/>
<path d="M45.8953 35.2583C48.4565 35.2583 50.5327 33.1821 50.5327 30.6209C50.5327 28.0597 48.4565 25.9834 45.8953 25.9834C43.3341 25.9834 41.2578 28.0597 41.2578 30.6209C41.2578 33.1821 43.3341 35.2583 45.8953 35.2583Z" fill="#F3695B"/>
<path d="M14.7492 25.0086L6.93944 23.1167C7.06684 22.1293 7.26432 19.9635 6.60182 19.3201C6.45531 19.18 6.27695 19.1035 6.07948 19.1035C6.03489 19.1035 5.98392 19.1035 5.93296 19.1162C4.67804 19.3392 4.58887 20.1673 4.55701 21.5369C3.58875 20.3202 2.85618 19.7087 2.37842 19.7087C2.3402 19.7087 2.30836 19.7087 2.27651 19.7214C1.98348 19.7788 1.44201 19.887 1.25728 20.3903C1.05344 20.9445 1.37831 21.779 2.27013 23.0084C1.97073 22.9702 1.69045 22.9511 1.44202 22.9511C0.938778 22.9511 0.562933 23.0339 0.339979 23.1931C0.161615 23.3205 0.0533287 23.4925 0.0278482 23.7028C-0.105925 24.7857 0.174359 25.1551 2.3848 25.5692C1.98985 26.0087 1.55668 26.6203 1.51846 27.2254C1.49935 27.5822 1.60764 27.8943 1.84333 28.1491C2.15547 28.4931 2.49309 28.6651 2.84345 28.6651C2.88167 28.6651 2.91988 28.6651 2.9581 28.6587C3.61423 28.5886 4.24488 27.9516 5.12396 26.4801L12.112 31.7291C12.1693 31.7737 12.2394 31.7992 12.3158 31.7992C12.4241 31.7992 12.5197 31.7482 12.5898 31.6654C12.7044 31.5189 12.6726 31.3023 12.5197 31.194L5.22587 25.7157C5.16854 25.6711 5.09847 25.6456 5.02203 25.6456H4.95196C4.85641 25.6711 4.77359 25.7285 4.729 25.8176C4.39775 26.3909 3.51868 27.9261 2.84345 27.9962C2.68419 27.9962 2.51856 27.9007 2.3402 27.7032C2.23191 27.5822 2.18095 27.442 2.19369 27.2764C2.23191 26.6585 3.00907 25.8686 3.3021 25.6138C3.40402 25.531 3.44224 25.3908 3.41039 25.2634C3.37854 25.136 3.27025 25.0405 3.14284 25.0214C0.60116 24.5946 0.626635 24.3971 0.728557 23.7537C0.804999 23.6964 0.989734 23.6327 1.41653 23.6327C1.94525 23.6327 2.59501 23.7346 2.98996 23.8238H3.0664C3.18106 23.8302 3.28936 23.7728 3.35306 23.6709C3.4295 23.5499 3.42312 23.3906 3.33394 23.2823C1.84333 21.4159 1.83696 20.8043 1.90066 20.626C1.95162 20.4858 2.15547 20.4349 2.42938 20.3839C2.62686 20.3839 3.59512 21.3139 4.61434 22.7217C4.67805 22.8109 4.77996 22.8619 4.88826 22.8619C4.92011 22.8619 4.95833 22.8619 4.99018 22.8491C5.13032 22.8046 5.22588 22.6835 5.23225 22.537C5.23862 22.295 5.24499 22.0656 5.25136 21.8427C5.28321 20.1737 5.34053 19.9253 6.0731 19.7979L6.09859 19.7087L6.14955 19.817C6.49354 20.1482 6.46805 21.9064 6.2451 23.3397C6.21962 23.5116 6.3279 23.6773 6.4999 23.7219L14.6091 25.6839H14.6855C14.8448 25.6902 14.9786 25.5883 15.0168 25.4354C15.0614 25.2507 14.9467 25.0723 14.7683 25.0277L14.7492 25.0086Z" fill="#1E0720"/>
<path d="M61.6854 19.6262C61.5197 19.2185 61.1057 19.0147 60.4559 19.0147C60.1438 19.0147 59.7807 19.0593 59.3667 19.1548C59.6852 18.6452 59.838 18.2184 59.8189 17.8808C59.8062 17.6451 59.7043 17.454 59.5323 17.3202C59.4558 17.2565 59.3157 17.1864 59.1246 17.1864C59.0927 17.1864 59.0609 17.1864 59.0227 17.1864C58.4621 17.2629 57.7359 17.9763 57.1944 18.607C56.8696 17.868 56.3791 17.0718 55.4809 17.0718C55.3152 17.0718 55.1369 17.0973 54.9521 17.1546C54.6336 17.2501 54.417 17.4604 54.3151 17.7534C54.0667 18.4732 54.6273 19.5689 55.0222 20.2122L49.0725 23.3973C48.9897 23.4419 48.9324 23.512 48.9005 23.6075C48.8687 23.7031 48.8814 23.7923 48.926 23.8751C48.9897 23.9897 49.1044 24.0598 49.2318 24.0598C49.2891 24.0598 49.3464 24.0471 49.3974 24.0152L55.6847 20.6518C55.7739 20.6072 55.8376 20.5244 55.8567 20.4288C55.8822 20.3333 55.8567 20.2314 55.8057 20.1486C55.3662 19.5179 54.8184 18.4286 54.9712 17.9891C54.9904 17.9317 55.0286 17.868 55.156 17.8298C55.2643 17.798 55.3726 17.7789 55.4681 17.7789C56.0669 17.7789 56.3854 18.4605 56.7167 19.2822L56.774 19.4224C56.8186 19.537 56.9269 19.6198 57.0989 19.6389C57.2072 19.6389 57.3155 19.588 57.3792 19.5052C57.9525 18.7599 58.7806 17.9317 59.1246 17.9254C59.1501 18.3458 58.443 19.3141 58.2136 19.5434C58.099 19.6581 58.0799 19.8428 58.1627 19.9766C58.2264 20.0785 58.3347 20.1422 58.4557 20.1422C58.5003 20.1422 58.5385 20.1358 58.5767 20.1231C59.1182 19.9256 59.9208 19.7218 60.4878 19.7218C60.7999 19.7218 60.991 19.7855 61.0356 19.8937C61.042 19.9129 61.0484 19.932 61.0229 19.9829C60.7426 20.4798 59.029 21.0213 58.7551 21.0722C58.5959 21.0722 58.4621 21.1741 58.4175 21.327C58.3729 21.4735 58.4366 21.6392 58.5704 21.722C59.4304 22.2571 60.3795 23.0788 60.405 23.461C60.405 23.4865 60.405 23.5056 60.3604 23.5438C60.2839 23.6075 60.1693 23.6394 60.0291 23.6394C59.201 23.6394 57.704 22.6393 57.5639 22.4991C57.5002 22.3972 57.3855 22.3335 57.2454 22.3335C56.9906 22.3462 56.895 22.3526 53.3278 29.4044C53.2832 29.4872 53.2768 29.5827 53.3086 29.6719C53.3405 29.7611 53.3978 29.8312 53.4806 29.8758C53.5316 29.9012 53.5826 29.914 53.6399 29.914C53.7737 29.914 53.8947 29.8375 53.952 29.7229C55.0095 27.6271 56.7549 24.2254 57.3409 23.1998C57.8888 23.6012 58.908 24.1808 59.6979 24.3146C59.8126 24.3337 59.9208 24.3401 60.0291 24.3401C60.3476 24.3401 60.6088 24.2573 60.8127 24.0853C61.0229 23.9133 61.1248 23.6776 61.1121 23.4164C61.0675 22.7858 60.2903 22.0787 59.5832 21.5627C60.1693 21.3716 61.2267 20.9576 61.5962 20.4034C61.8064 20.0848 61.7682 19.8109 61.6917 19.6326L61.6854 19.6262Z" fill="#1E0720"/>
<path d="M16.073 60.1272C15.9583 60.1145 15.8564 60.038 15.8182 59.9297C15.7799 59.8215 15.8054 59.694 15.8882 59.6112L18.8249 56.681C18.6529 56.7001 18.4872 56.7065 18.3344 56.7065C17.4935 56.7065 16.8246 56.4962 16.5444 56.1395C16.4361 56.0057 16.2258 55.6426 16.5762 55.1585C16.7864 54.8655 17.1113 54.719 17.5317 54.719C18.1751 54.719 18.9395 55.0629 19.5065 55.3815L20.1116 50.5656C20.1307 50.4128 20.2581 50.2981 20.411 50.2981C20.5321 50.3108 20.6021 50.3491 20.6531 50.4191C20.704 50.4828 20.7232 50.5657 20.7168 50.6421L20.1307 55.2796C20.5384 54.6107 21.1691 53.7698 21.8507 53.5978C21.9335 53.5787 22.0163 53.566 22.0991 53.566C22.303 53.566 22.4941 53.6297 22.6661 53.7507C23.0037 53.9928 23.0483 54.2667 23.0228 54.4578C22.9527 55.0056 22.1947 55.5471 20.583 56.1841L25.6282 57.7957L28.0297 49.4827C28.0679 49.3553 28.189 49.2598 28.3227 49.2598L28.4119 49.2725C28.5712 49.3171 28.6667 49.4891 28.6158 49.6483L25.3925 60.7833C25.3542 60.9107 25.2332 60.9999 25.0994 60.9999L16.0666 60.1272H16.073ZM24.8829 60.3693L25.4625 58.3754L19.7867 56.5663L16.7737 59.5794L24.8892 60.3693H24.8829ZM17.5254 55.3241C17.3024 55.3241 17.1495 55.3878 17.0603 55.5152C16.9457 55.6745 16.9903 55.7255 17.0094 55.7573C17.1686 55.9548 17.691 56.0886 18.3216 56.0886C18.6592 56.0886 19.0032 56.0503 19.3154 55.9803C18.8822 55.7318 18.0859 55.3241 17.5254 55.3241ZM22.0991 54.1711C22.0673 54.1711 22.029 54.1711 21.9972 54.1839C21.5449 54.2985 21.0289 54.9993 20.7295 55.4706C22.2902 54.8082 22.4112 54.4451 22.424 54.375C22.424 54.3304 22.3412 54.2667 22.3157 54.2412C22.2456 54.1903 22.1819 54.1648 22.1055 54.1648L22.0991 54.1711Z" fill="#1E0720"/>
<path d="M39.0078 51.8463L39.4728 51.3749L46.257 58.0954L48.5821 54.4962C48.2891 54.5599 48.0216 54.5854 47.7859 54.5854C47.4419 54.5854 47.1552 54.5217 46.9259 54.4007C46.6265 54.2414 46.4227 53.9739 46.3526 53.6299C46.2188 53.012 46.5692 52.7763 46.7284 52.6998C46.8494 52.6425 46.9896 52.617 47.1616 52.617C47.3782 52.617 47.6457 52.6616 47.9324 52.7572L44.8238 48.1834L45.3716 47.814L48.5949 52.5533C48.6586 51.9036 48.8242 51.4258 49.0854 51.1328C49.2892 50.9035 49.5631 50.7824 49.8689 50.7824C50.3084 50.7824 50.6078 51.0245 50.6715 51.4322C50.7735 52.0947 50.2065 53.1458 49.6077 53.7254L55.2325 55.0695L47.7731 60.516L39.0142 51.8399L39.0078 51.8463ZM47.8305 59.656L53.6846 55.3817L49.4485 54.3752L46.7412 58.5731L47.8305 59.656ZM47.1807 53.2795C47.1106 53.2795 47.0469 53.2923 47.0087 53.3114C46.9705 53.3305 46.9896 53.4579 47.0023 53.4961C47.0342 53.6554 47.1106 53.7573 47.2444 53.8274C47.3718 53.8974 47.5502 53.9293 47.7731 53.9293C48.0088 53.9293 48.2891 53.8911 48.6012 53.8146V53.7764C48.1617 53.528 47.5565 53.2795 47.1871 53.2795H47.1807ZM49.8625 51.4449C49.7415 51.4449 49.6523 51.4832 49.5759 51.5787C49.3529 51.8272 49.2255 52.4196 49.2255 53.184C49.6459 52.719 50.0727 51.9227 50.0154 51.5405C50.0027 51.4768 50.0027 51.4513 49.8625 51.4513V51.4449Z" fill="#1E0720"/>
<path d="M39.5664 12.7399C39.5664 12.7399 41.9743 4.33135 50.1026 7.19154C50.1026 7.19154 50.6059 10.6123 47.58 12.345C47.58 12.345 43.4331 14.7019 39.5664 12.7399Z" fill="#28AF6C"/>
<path d="M40.8758 8.70772C40.8758 8.70772 32.4481 8.63128 32.7666 0.280036C32.7666 0.280036 34.5375 -0.452527 36.6588 0.452032C38.1175 1.06994 39.2323 2.293 39.8311 3.75813C40.3789 5.10223 41.0733 7.17889 40.8758 8.70772Z" fill="#28AF6C"/>
</svg>
