<svg width="15" height="19" viewBox="0 0 15 19" fill="none" xmlns="http://www.w3.org/2000/svg">
<path d="M5.46133 0.034379C5.50718 0.0124018 5.55651 -0.00163263 5.61283 0.000214211C5.80055 0.00637034 5.94898 0.175601 5.94241 0.371056C5.53558 11.1431 5.40919 11.2133 5.18696 11.3391C5.07236 11.394 4.94095 11.3897 4.83792 11.3237C4.45942 11.1782 1.20263 10.6723 0.732583 11.6861C0.679967 11.7978 0.69262 11.8687 0.728196 11.9286C1.01782 12.482 2.79857 12.9553 3.96617 13.107C4.11569 13.1315 4.23967 13.2451 4.26432 13.4064C4.28898 13.5677 4.20864 13.7216 4.07111 13.7875C3.75938 14.0042 1.95097 15.6982 1.88105 16.549C1.87297 16.6779 1.90505 16.7298 1.94892 16.7665C2.40031 17.2039 3.9762 16.0542 4.93783 15.0643C5.05091 14.9428 5.22816 14.9251 5.36043 15.0155C5.49271 15.106 5.55076 15.2801 5.49268 15.4425C5.36409 15.8023 4.99483 17.5081 5.29493 18.0854C5.34033 18.1887 5.39665 18.1905 5.41891 18.1991C5.43769 18.1997 5.4641 18.1966 5.48767 18.1661C5.94872 17.8681 6.49806 16.1721 6.74546 15.0727C6.77232 14.9444 6.86946 14.8498 6.97991 14.8065C7.1015 14.7674 7.22811 14.8028 7.31171 14.8878L7.4538 15.0216C8.5015 16.0578 9.37546 16.783 10.2797 15.9361C10.4504 15.7773 10.4626 15.6368 10.4513 15.5269C10.3852 14.8085 9.04193 13.7314 8.21358 13.215C8.12517 13.1612 8.07148 13.0812 8.0525 12.9749C8.03701 12.8766 8.05557 12.7715 8.11451 12.6952L13.8117 4.88691C13.9261 4.7263 14.1451 4.69826 14.2913 4.82046C14.4452 4.93899 14.4714 5.16683 14.3535 5.3195L8.8809 12.8182C9.56803 13.2868 11.0303 14.4031 11.1262 15.4629C11.1659 15.8477 11.0227 16.1952 10.7278 16.4712C9.42036 17.6846 8.12797 16.6599 7.25794 15.8174C7.01645 16.7409 6.50859 18.3209 5.84344 18.7648C5.60528 18.9174 5.39114 18.9143 5.25689 18.8825C5.01067 18.8275 4.81706 18.6607 4.68655 18.4059C4.41853 17.8806 4.47731 17.0255 4.58716 16.3286C3.66615 17.1163 2.25181 18.0443 1.46953 17.2751C1.30583 17.1132 1.12729 16.8334 1.19936 16.3662C1.33389 15.494 2.39878 14.3392 3.11284 13.67C2.11201 13.4767 0.528816 13.053 0.112168 12.2528C-0.0323157 11.9662 -0.037092 11.6608 0.0971773 11.3561C0.279914 10.9512 0.672848 10.6666 1.2308 10.5049C2.30501 10.1919 3.93363 10.3822 4.7356 10.5651C4.87323 9.15292 5.10655 3.7718 5.2332 0.336058C5.2378 0.199239 5.32447 0.0807673 5.43143 0.0294872L5.46133 0.034379Z" fill="#1E0720"/>
</svg>
