<svg width="46" height="65" viewBox="0 0 46 65" fill="none" xmlns="http://www.w3.org/2000/svg">
<g clip-path="url(#clip0_522_2338)">
<path d="M3.31367 50.9619C3.75085 51.8844 3.90269 52.7961 3.76054 53.3672L15.2979 47.8993L15.4375 48.1938L3.38341 53.9066C3.19641 53.9952 2.97095 53.9709 2.72712 53.8569C2.19624 53.6078 1.5856 52.9106 1.14841 51.9881C0.512825 50.647 0.481927 49.3293 1.08229 49.0447C1.68266 48.7602 2.67939 49.6172 3.31613 50.9608L3.31367 50.9619Z" fill="#260E09"/>
<path d="M11.4934 56.0182C12.0887 56.8475 12.4013 57.7172 12.3638 58.3045L22.7357 50.8593L22.9257 51.124L12.0893 58.9027C11.9212 59.0234 11.695 59.0399 11.4347 58.9714C10.8678 58.8213 10.1422 58.2447 9.54692 57.4155C8.68147 56.2098 8.41513 54.9189 8.95485 54.5315C9.49457 54.1441 10.6286 54.8088 11.4957 56.0166L11.4934 56.0182Z" fill="#260E09"/>
<path d="M45.4111 32.5027C45.4111 43.5602 36.5441 52.5239 25.6059 52.5239C14.6677 52.5239 5.80078 43.5602 5.80078 32.5027C5.80078 21.4452 14.6677 0 25.6059 0C36.5441 0 45.4111 21.4452 45.4111 32.5027Z" fill="#F4D4AB"/>
<path d="M29.2095 22.8344C30.227 22.8344 31.0519 21.5519 31.0519 19.9699C31.0519 18.3879 30.227 17.1055 29.2095 17.1055C28.192 17.1055 27.3672 18.3879 27.3672 19.9699C27.3672 21.5519 28.192 22.8344 29.2095 22.8344Z" fill="#260E09"/>
<path d="M22.108 22.8231C23.1255 22.8231 23.9503 21.5407 23.9503 19.9587C23.9503 18.3767 23.1255 17.0942 22.108 17.0942C21.0905 17.0942 20.2656 18.3767 20.2656 19.9587C20.2656 21.5407 21.0905 22.8231 22.108 22.8231Z" fill="#260E09"/>
<path d="M24.8046 30.0507C25.2361 30.1313 25.6921 30.1252 26.1589 30.0324C28.4571 29.5672 28.9208 25.9726 28.9408 25.8212L28.5387 25.7737C28.5322 25.8085 28.0905 29.2272 26.0796 29.6353C25.1541 29.8224 24.2704 29.6101 23.5848 29.0415C22.8639 28.4414 22.4547 27.5228 22.4611 26.5213L22.0557 26.5203C22.0485 27.6436 22.5102 28.6772 23.326 29.356C23.7599 29.7169 24.2613 29.9519 24.8014 30.0529L24.8046 30.0507Z" fill="#260E09"/>
<path d="M40.9365 43.3481C39.9157 43.3481 39.2127 43.005 39.1992 42.9968L39.3797 42.632C39.4928 42.6891 42.1917 43.9907 44.6266 40.9492C47.0723 37.8996 41.0793 30.0878 41.0173 30.0088L41.3351 29.7583C41.591 30.0905 47.5867 37.9078 44.939 41.2079C43.5546 42.9342 42.0543 43.3481 40.9365 43.3481Z" fill="#260E09"/>
<path d="M6.95411 40.9584C7.97494 40.9584 8.67794 40.6153 8.69141 40.6072L8.51094 40.2423C8.39781 40.2995 5.69895 41.601 3.26404 38.5596C0.818366 35.51 6.81136 27.6981 6.87331 27.6192L6.55548 27.3687C6.2996 27.7008 0.303911 35.5182 2.9516 38.8183C4.33605 40.5445 5.83632 40.9584 6.95411 40.9584Z" fill="#260E09"/>
<path d="M38.2876 41.4663C39.5131 41.4663 40.507 42.1307 40.507 42.9503C40.507 43.7698 39.5131 44.4342 38.2876 44.4342C37.062 44.4342 34.4062 43.7698 34.4062 42.9503C34.4062 42.1307 37.0593 41.4663 38.2876 41.4663Z" fill="#260E09"/>
<path d="M9.60307 39.0767C8.37754 39.0767 7.38365 39.741 7.38365 40.5606C7.38365 41.3802 8.37754 42.0446 9.60307 42.0446C10.8286 42.0446 13.4844 41.3802 13.4844 40.5606C13.4844 39.741 10.8313 39.0767 9.60307 39.0767Z" fill="#260E09"/>
<ellipse cx="18.2455" cy="23.9472" rx="2.2807" ry="2.2807" fill="#F3695B"/>
<ellipse cx="33.0698" cy="23.9472" rx="2.2807" ry="2.2807" fill="#F3695B"/>
</g>
<defs>
<clipPath id="clip0_522_2338">
<rect width="45.6141" height="65" fill="white"/>
</clipPath>
</defs>
</svg>
