<svg width="89" height="79" viewBox="0 0 89 79" fill="none" xmlns="http://www.w3.org/2000/svg">
<path d="M42.1584 61.4666C56.1644 66.1164 71.3982 58.1994 76.1841 43.7835C80.97 29.3676 73.4956 13.9118 59.4897 9.26197C45.4837 4.61218 30.2499 12.5292 25.464 26.9451C20.6781 41.361 28.1525 56.8168 42.1584 61.4666Z" fill="#FFB802"/>
<path d="M57.3174 34.2599C57.3124 34.1531 57.2711 34.0585 57.191 33.9834C57.1473 33.9446 57.1012 33.9131 57.0429 33.8938C56.8974 33.8454 56.73 33.8869 56.6283 33.9987C53.7158 37.1243 50.7681 36.4612 49.931 36.1833L49.7781 36.1325C49.7126 36.1108 49.6471 36.089 49.5816 36.0673C46.4298 35.0209 44.4869 29.9194 44.4698 29.8733C44.4261 29.7617 44.3338 29.6745 44.2246 29.6383C44.1373 29.6093 44.0475 29.6118 43.9651 29.6411C43.8633 29.68 43.7906 29.753 43.7421 29.8501C43.701 29.9497 43.6987 30.0541 43.7303 30.1535C43.8178 30.3767 45.8167 35.6505 49.3034 36.808C49.3834 36.8346 49.4635 36.8611 49.5436 36.8877L49.6382 36.9191C50.3224 37.1463 53.901 38.0998 57.2134 34.5489C57.2885 34.4687 57.3223 34.3667 57.3174 34.2599Z" fill="#260E09"/>
<path d="M53.1377 24.2104L48.0162 30.5577L53.4463 32.3604L53.1377 24.2104ZM52.4266 26.3522L52.6132 31.2427L49.3523 30.1601L52.4266 26.3522Z" fill="#260E09"/>
<path d="M44.5595 28.0189C45.7937 28.4287 47.1623 27.6519 47.6165 26.2839C48.0706 24.9159 47.4383 23.4748 46.2041 23.0651C44.97 22.6554 43.6013 23.4322 43.1472 24.8002C42.693 26.1681 43.3254 27.6092 44.5595 28.0189Z" fill="#260E09"/>
<path d="M57.5595 32.3349C58.7937 32.7446 60.1623 31.9678 60.6165 30.5998C61.0706 29.2319 60.4383 27.7908 59.2041 27.381C57.97 26.9713 56.6013 27.7481 56.1472 29.1161C55.693 30.484 56.3254 31.9251 57.5595 32.3349Z" fill="#260E09"/>
<path d="M32.5206 33.7354C35.4473 34.707 38.608 33.1202 39.5804 30.1911C40.5529 27.2621 38.9686 24.1 36.042 23.1284C33.1154 22.1568 29.9546 23.7436 28.9822 26.6727C28.0098 29.6017 29.594 32.7638 32.5206 33.7354Z" fill="#FB6B83"/>
<path d="M64.1183 44.2256C67.0449 45.1972 70.2057 43.6104 71.1781 40.6814C72.1505 37.7523 70.5663 34.5902 67.6397 33.6186C64.7131 32.647 61.5523 34.2338 60.5799 37.1629C59.6075 40.0919 61.1917 43.254 64.1183 44.2256Z" fill="#FB6B83"/>
<path d="M28.2998 28.2175L20.0941 23.0912C20.6145 22.0104 21.6625 19.6084 21.1497 18.6213C21.0355 18.4054 20.8608 18.2503 20.6351 18.1754C20.5841 18.1585 20.5259 18.1392 20.4628 18.1344C18.9442 17.9133 18.5279 18.8265 17.9715 20.3807C17.3271 18.622 16.7222 17.6447 16.1762 17.4635C16.1326 17.449 16.0962 17.4369 16.0549 17.4394C15.6983 17.3938 15.0385 17.3122 14.6364 17.8177C14.193 18.3741 14.2474 19.4517 14.7997 21.1961C14.4721 21.0388 14.1591 20.9106 13.8752 20.8163C13.3002 20.6254 12.8392 20.5776 12.524 20.6751C12.2718 20.7531 12.0828 20.9088 11.9739 21.1395C11.4099 22.3272 11.5899 22.8561 13.9585 24.1681C13.3403 24.521 12.6131 25.056 12.3397 25.7336C12.1824 26.1343 12.1877 26.5324 12.3602 26.9132C12.5863 27.425 12.9068 27.7497 13.3071 27.8827C13.3508 27.8972 13.3945 27.9117 13.4406 27.9189C14.2169 28.0876 15.1794 27.5984 16.7426 26.249L22.7348 34.9028C22.7834 34.9756 22.8537 35.0313 22.9411 35.0603C23.0648 35.1014 23.1934 35.0793 23.3049 35.0112C23.4915 34.8871 23.5374 34.6274 23.4038 34.4455L17.1493 25.4135C17.1007 25.3407 17.0303 25.285 16.9429 25.256L16.8629 25.2294C16.744 25.2223 16.6276 25.2565 16.5428 25.3415C15.9466 25.8715 14.3593 27.2937 13.5611 27.1177C13.3791 27.0573 13.2261 26.8852 13.0973 26.5917C13.0195 26.4122 13.0145 26.2326 13.0919 26.048C13.3702 25.3559 14.5581 24.7474 14.9897 24.5671C15.1376 24.5111 15.2345 24.3653 15.2465 24.2075C15.2584 24.0497 15.171 23.8994 15.0327 23.8292C12.2904 22.3769 12.3945 22.1607 12.7552 21.4636C12.8643 21.427 13.0996 21.4243 13.5873 21.5862C14.1914 21.7867 14.8952 22.1498 15.3126 22.4016L15.4 22.4306C15.5286 22.4814 15.6741 22.4569 15.7856 22.3645C15.9189 22.2551 15.9721 22.0705 15.9113 21.9129C14.9166 19.2129 15.1415 18.5111 15.282 18.3313C15.3935 18.1904 15.6458 18.2094 15.9781 18.255C16.2038 18.3299 16.9571 19.7609 17.5872 21.7575C17.6261 21.8837 17.7232 21.9806 17.847 22.0217C17.8834 22.0338 17.9271 22.0483 17.9683 22.0458C18.1454 22.048 18.3005 21.9458 18.3634 21.7806C18.4626 21.5062 18.5569 21.2464 18.6489 20.9938C19.3189 19.0972 19.4787 18.8349 20.3642 18.9671L20.4272 18.8747L20.4443 19.0179C20.7116 19.5272 20.015 21.5282 19.216 23.0828C19.1216 23.2698 19.1825 23.5003 19.3621 23.6166L27.8833 28.9366L27.9707 28.9656C28.1502 29.0333 28.3418 28.9675 28.4435 28.8071C28.5646 28.6128 28.5013 28.3653 28.3144 28.2466L28.2998 28.2175Z" fill="#1E0720"/>
<path d="M20.3224 62.7337C20.1962 62.6756 20.1088 62.5495 20.1062 62.4112C20.1037 62.2728 20.1812 62.1368 20.3072 62.0735L24.7754 59.8364C24.5716 59.793 24.3799 59.7375 24.2052 59.6795C23.2444 59.3605 22.5599 58.8664 22.3751 58.3521C22.3021 58.158 22.1998 57.663 22.7839 57.2423C23.1354 56.9869 23.5623 56.9426 24.0427 57.1021C24.7778 57.3461 25.5207 58.0295 26.0476 58.6088L28.5676 53.3309C28.6474 53.1633 28.8365 53.0805 29.0112 53.1385C29.1447 53.199 29.2103 53.2693 29.2419 53.3688C29.2759 53.4609 29.2663 53.5629 29.23 53.6479L26.7997 58.7291C27.5195 58.1188 28.5593 57.3964 29.4035 57.4583C29.5054 57.4679 29.6048 57.4847 29.6995 57.5161C29.9324 57.5935 30.1266 57.7388 30.2772 57.9425C30.571 58.3474 30.518 58.6775 30.4163 58.8864C30.1283 59.4864 29.0565 59.818 26.973 59.9351L32.1261 63.6922L38.0265 55.0962C38.1185 54.965 38.2931 54.9016 38.446 54.9524L38.5431 55.0008C38.7081 55.1122 38.752 55.3451 38.6333 55.5079L30.7225 67.0194C30.6305 67.1506 30.4583 67.2067 30.3054 67.156L20.3152 62.7313L20.3224 62.7337ZM30.3047 66.355L31.7241 64.2947L25.9253 60.0726L21.3384 62.3754L30.3119 66.3574L30.3047 66.355ZM23.8129 57.7941C23.5581 57.7096 23.3593 57.7244 23.209 57.8363C23.0175 57.9749 23.0491 58.0501 23.0588 58.0938C23.1658 58.38 23.7119 58.7312 24.4326 58.9704C24.8183 59.0985 25.2259 59.1853 25.6092 59.2235C25.2085 58.7751 24.4535 58.0068 23.8129 57.7941ZM29.477 58.2106C29.4406 58.1985 29.3969 58.184 29.3557 58.1865C28.7953 58.1461 27.9397 58.7517 27.4186 59.1772C29.4535 59.0116 29.7297 58.6423 29.7708 58.567C29.7877 58.516 29.7173 58.4117 29.6979 58.3729C29.6371 58.2881 29.574 58.2348 29.4867 58.2058L29.477 58.2106Z" fill="#1E0720"/>
<path d="M49.6807 61.9649L50.3911 61.6023L55.5916 71.8616L59.615 68.6276C59.2559 68.5893 58.9405 68.5169 58.6712 68.4275C58.2782 68.297 57.9748 68.1154 57.7587 67.89C57.477 67.5943 57.3457 67.211 57.3962 66.791C57.478 66.0336 57.9678 65.897 58.1788 65.87C58.3389 65.8503 58.5087 65.8744 58.7052 65.9396C58.9527 66.0218 59.2415 66.1743 59.5328 66.3923L57.7171 59.9823L58.4834 59.7676L60.3672 66.4105C60.6867 65.6916 61.0573 65.208 61.467 64.972C61.787 64.787 62.1459 64.7525 62.4953 64.8685C62.9976 65.0353 63.2478 65.4257 63.1658 65.9161C63.0307 66.7124 61.9838 67.6994 61.0795 68.1351L66.9966 71.8061L56.405 75.205L49.6904 61.9601L49.6807 61.9649ZM56.797 74.2433L65.1093 71.5758L60.6509 68.8178L55.9635 72.5916L56.797 74.2433ZM58.4682 66.7021C58.3882 66.6755 58.3105 66.6659 58.2596 66.6733C58.2087 66.6806 58.1821 66.8336 58.1822 66.8821C58.1581 67.0763 58.2068 67.2219 58.333 67.3528C58.452 67.4812 58.6437 67.5853 58.8985 67.6699C59.1678 67.7593 59.5026 67.8219 59.8883 67.8529L59.9028 67.8092C59.4949 67.3583 58.8977 66.8447 58.4755 66.7045L58.4682 66.7021ZM62.2365 65.6238C62.0982 65.5778 61.9818 65.5877 61.8582 65.668C61.5091 65.8675 61.1386 66.4967 60.8484 67.3709C61.5053 66.9986 62.2953 66.2499 62.3749 65.791C62.3846 65.7134 62.3942 65.6842 62.2341 65.631L62.2365 65.6238Z" fill="#1E0720"/>
<path d="M65.4384 16.0732C65.4384 16.0732 71.3824 7.37041 79.5844 13.7249C79.5844 13.7249 78.8607 17.8279 74.7454 18.6615C74.7454 18.6615 69.1119 19.7838 65.4384 16.0732Z" fill="#20D39C"/>
<path d="M68.467 11.9501C68.467 11.9501 58.8659 8.66557 62.4006 -0.764292C62.4006 -0.764292 64.7023 -0.930276 66.7827 0.908905C68.215 2.16894 69.0245 3.99056 69.1525 5.89327C69.2681 7.63824 69.2731 10.2766 68.467 11.9501Z" fill="#20D39C"/>
</svg>
