<svg width="69" height="97" viewBox="0 0 69 97" fill="none" xmlns="http://www.w3.org/2000/svg">
<path fill-rule="evenodd" clip-rule="evenodd" d="M58.0098 3.39137L57.9021 3.32137L57.824 3.27832C51.0505 -0.38032 45.7254 -0.681833 41.5768 0.930768C37.3959 2.55683 34.3053 6.19665 32.1301 10.846C26.8427 22.1504 26.9665 39.5282 27.0634 43.3376C24.7266 46.4874 13.4976 61.7035 6.347 73.0644C3.87937 76.9869 1.89338 80.4651 0.878167 82.8692C0.337313 84.1507 0.058679 85.2006 0.0142585 85.9329C-0.215382 89.7369 2.36801 93.5383 4.9366 95.0216C7.50518 96.505 12.2708 96.9169 15.4258 94.8305C16.0385 94.4267 16.8076 93.6621 17.6471 92.5529C19.2228 90.4692 21.2424 87.0098 23.4042 82.9123C29.6694 71.0399 37.2317 53.7078 38.7905 50.1084C42.1422 48.2831 57.2856 39.6843 64.4198 29.438C67.3569 25.2221 68.9534 20.7208 68.2507 16.2814C67.5534 11.8798 64.6055 7.41883 58.0098 3.38329V3.39137ZM55.8533 6.9316L55.8749 6.94237C61.0627 10.1218 63.6014 13.4627 64.1506 16.9302C64.6971 20.3681 63.2891 23.8033 61.0142 27.0662C53.4412 37.9426 36.2194 46.7782 36.2194 46.7782C35.7914 46.999 35.4549 47.3597 35.2664 47.8039C35.2664 47.8039 26.6919 67.7878 19.7335 80.9767C17.9809 84.2988 16.3365 87.1821 14.963 89.177C14.2272 90.2458 13.6368 91.0399 13.1377 91.3684C11.2798 92.596 8.58985 92.3376 7.09328 91.4734C5.59644 90.6092 4.02287 88.407 4.15721 86.1833C4.19329 85.5856 4.58472 84.6784 5.14253 83.5073C6.18386 81.3212 7.8592 78.4541 9.85948 75.2746C17.8024 62.6538 30.8217 45.2383 30.8217 45.2383C31.1124 44.8533 31.2551 44.3794 31.2336 43.8975C31.2336 43.8975 30.2752 24.6056 35.891 12.6039C37.5763 9.00182 39.8404 6.05929 43.079 4.79936C46.3527 3.52867 50.5094 4.04291 55.8533 6.9316Z" fill="black"/>
</svg>
