<svg width="62" height="52" viewBox="0 0 62 52" fill="none" xmlns="http://www.w3.org/2000/svg">
<path d="M17.1133 8.88649C17.1133 8.88649 22.4259 19.8904 22.4753 25.0713C22.4863 26.0098 22.5302 26.9483 22.7168 27.8703C24.1986 35.2959 31.701 55.2017 48.6432 51.0581C67.5611 46.4315 60.4154 17.5689 60.4154 17.5689C60.4154 17.5689 36.4538 19.1111 36.5965 19.9508C36.7392 20.7905 42.7598 37.6064 36.7392 33.9622C30.7186 30.318 27.486 6.08749 20.7575 4.8252L17.1133 8.88649Z" fill="#6B2B05"/>
<path d="M13.4727 5.94482C13.4727 5.94482 16.1344 3.04704 16.0411 1.46094C16.0411 1.46094 21.3538 3.23364 21.9136 5.24233C21.9136 5.24233 18.906 9.68231 17.6931 10.0555C17.6931 10.0555 14.5484 7.48702 13.4727 5.94482Z" fill="#FFCA31"/>
<path d="M0.144163 2.32219C3.14623 0.873297 9.8748 -1.62934 16.1863 1.50993C16.1863 1.50993 15.8131 5.94442 13.9416 6.59752C13.9416 6.59752 8.36554 1.38919 0.292345 2.7832C0.00695675 2.8326 -0.119273 2.44293 0.144163 2.32219Z" fill="#3F0A00"/>
</svg>
