<svg width="39" height="64" viewBox="0 0 39 64" fill="none" xmlns="http://www.w3.org/2000/svg">
<path d="M4.72351 46.2384C4.72351 46.2384 20.0737 52.0422 34.4474 51.2988C34.4474 51.2988 37.798 62.4361 33.9171 63.2787C30.0362 64.1213 8.94641 64.7953 0 56.528C0 56.528 1.34816 50.4513 4.72351 46.2334V46.2384Z" fill="#6B2B05"/>
<path d="M4.55183 46.3913C4.55183 46.3913 7.33736 38.9269 10.4996 38.0396C13.6618 37.1524 24.4223 35.7597 33.1506 42.2179C33.1506 42.2179 34.7962 49.1768 34.4145 51.4568C34.4145 51.4568 18.8512 53.8607 4.54688 46.3962L4.55183 46.3913Z" fill="#D38C00"/>
<path d="M25.9688 40.5821L26.7271 26.9171C26.7271 26.9171 16.6506 22.7339 18.1723 14.9969C18.9554 11.0119 22.5637 8.10737 26.623 8.15694C30.1719 8.19659 34.0329 10.2783 33.686 19.3288C33.686 19.3288 39.4751 16.6325 38.3699 9.98091C37.7354 6.16444 35.0391 3.027 31.4655 1.55493C26.1968 -0.611042 17.3644 -2.10789 11.7933 8.44441C8.24944 15.5322 8.24944 25.2766 18.3755 29.1971C18.5044 29.8315 17.8699 38.6887 17.8699 38.6887C17.8699 38.6887 19.1338 40.9687 25.9688 40.5871V40.5821Z" fill="#C0BCB3"/>
</svg>
