<svg width="36" height="64" viewBox="0 0 36 64" fill="none" xmlns="http://www.w3.org/2000/svg">
<path d="M17.8732 37.357C17.3572 35.081 17.1817 31.5348 19.7249 28.4154C23.8709 23.3344 29.8608 9.15723 18.6406 1.66662C7.42038 -5.82399 -9.03015 13.8375 6.08202 22.931C6.08202 22.931 -1.40859 10.6265 8.62254 3.93999C8.62254 3.93999 18.7872 0.194692 21.7285 10.8937C24.4838 20.917 12.3364 29.2038 14.746 37.9515C13.2164 39.3475 13.1431 42.2233 13.1431 42.2233C16.6213 40.2171 21.8359 40.7514 21.8359 40.7514C21.8359 40.7514 20.9297 38.038 17.8706 37.3544L17.8732 37.357Z" fill="#C0BCB3"/>
<path d="M9.02594 63.9899C9.02594 63.9899 3.27441 44.1974 16.383 39.7816C29.4915 35.3658 35.9083 57.3007 35.9083 57.3007C35.9083 57.3007 13.8398 60.9125 9.02594 63.9873V63.9899Z" fill="black"/>
</svg>
