<svg width="71" height="36" viewBox="0 0 71 36" fill="none" xmlns="http://www.w3.org/2000/svg">
<path d="M64.6692 35.4967C62.4278 35.7831 60.1513 34.1348 58.2667 31.225C56.3018 28.1997 54.764 23.8175 54.1207 18.8272C53.6081 14.832 53.7539 11.0629 54.4172 7.96717C55.3721 3.46937 57.4174 0.383738 60.1211 0.0319554C64.6893 -0.550999 69.4082 6.91182 70.6645 16.7065C71.9209 26.4961 69.2373 34.9137 64.6692 35.4967Z" fill="#BBB7B8"/>
<path d="M58.2667 31.2261C56.3018 28.2008 54.764 23.8186 54.1207 18.8283C53.6081 14.833 53.7539 11.0639 54.4172 7.96824C54.6685 7.84763 54.9298 7.77225 55.2012 7.73707C58.2265 7.35011 61.3574 12.2952 62.1916 18.783C63.0158 25.2408 61.2619 30.7889 58.2667 31.2261Z" fill="#B3D6E9"/>
<path d="M3.78125 26.3209L29.6122 25.6375L28.7578 17.7676L3.78125 23.0393V26.3209Z" fill="#FFB801"/>
<path d="M28.2431 12.5514C28.2431 12.5514 27.047 27.0951 30.8111 29.6581L41.9325 30.6833C41.9325 30.6833 36.2889 20.5871 38.5101 9.9834L28.2431 12.5514Z" fill="#D38C00"/>
<path d="M40.0537 2.37047C40.0537 2.37047 31.6712 24.6132 44.6721 35.2169L64.6734 35.4983C64.6734 35.4983 46.7978 25.1007 58.7735 0.46582L40.0537 2.37047Z" fill="#FFE166"/>
<path d="M0.0189194 20.3359C0.0189194 20.3359 -0.322812 28.2058 1.89844 29.4019L6.00425 27.6932L4.63732 20.3359H0.0189194Z" fill="#6B2B05"/>
</svg>
