<svg width="77" height="66" viewBox="0 0 77 66" fill="none" xmlns="http://www.w3.org/2000/svg">
<path d="M1.67861 44.7525C1.67861 44.7525 27.5191 44.7651 45.4396 23.1711C45.4396 23.1711 49.5026 28.2978 54.1411 29.1249C54.1411 29.1249 43.1298 52.2382 26.5954 55.3207C10.0611 58.4031 5.05193 50.5235 1.67861 44.7525Z" fill="#EAEAEA"/>
<path d="M1.70312 44.7652C1.70312 44.7652 14.2847 54.1874 27.4603 47.922C40.636 41.6565 49.8726 29.0432 50.5659 26.7738C50.5659 26.7738 47.4017 25.731 45.5726 23.1082C45.5726 23.1082 30.7498 40.756 1.70312 44.7652Z" fill="#D1D1D1"/>
<path d="M55.3694 4.0524C52.5282 6.03374 51.5871 9.72092 52.9598 12.766L47.9858 20.6187L55.2108 26.0856L60.6503 16.8413C61.6356 16.6696 62.6001 16.2855 63.4748 15.6755C66.6842 13.4374 67.4715 9.0218 65.2334 5.81242C62.9953 2.60305 58.5787 1.81432 55.3694 4.0524ZM60.2011 11.7566C59.2151 12.4443 57.8587 12.2024 57.171 11.2164C56.4834 10.2303 56.7252 8.87389 57.7113 8.18624C58.6974 7.49859 60.0538 7.74044 60.7414 8.72651C61.4291 9.71258 61.1872 11.069 60.2011 11.7566Z" fill="#CC876A"/>
<path d="M41.3058 19.5043C41.3058 19.5043 41.6491 22.9469 44.8426 25.4307C47.9614 27.8562 52.5945 31.86 58.3301 30.9208C58.8039 30.8428 59.2365 30.575 59.4724 30.156C59.7772 29.6168 59.8371 28.7415 58.7117 27.4562C57.034 26.1362 44.2681 17.3834 42.8446 17.6719C41.4211 17.9604 41.2383 19.0974 41.3048 19.5029L41.3058 19.5043Z" fill="#FFC800"/>
<mask id="mask0_216_271" style="mask-type:luminance" maskUnits="userSpaceOnUse" x="41" y="17" width="19" height="15">
<path d="M41.3136 19.5053C41.3136 19.5053 41.6569 22.9479 44.8504 25.4317C47.9692 27.8572 52.6023 31.8609 58.338 30.9217C58.8117 30.8438 59.2443 30.576 59.4802 30.157C59.7851 29.6178 59.8449 28.7425 58.7195 27.4572C57.0418 26.1371 44.2759 17.3844 42.8524 17.6729C41.4289 17.9614 41.2462 19.0984 41.3126 19.5039L41.3136 19.5053Z" fill="white"/>
</mask>
<g mask="url(#mask0_216_271)">
<path d="M56.8525 33.8471C57.9001 32.6291 55.404 28.7644 51.2774 25.215C47.1507 21.6656 42.9562 19.7755 41.9086 20.9935C40.861 22.2115 43.357 26.0762 47.4837 29.6256C51.6103 33.175 55.8049 35.0651 56.8525 33.8471Z" fill="#DAAD3C"/>
</g>
<path d="M55.8217 25.0193L49.2347 18.6303L50.5259 16.6163L56.706 19.1977L51.8912 14.468L52.9646 12.765L61.1008 16.7799L60.6551 16.8404L60.1122 17.762L53.676 14.1502L59.0031 19.6511L58.1614 21.078L51.0016 18.2656L56.5854 23.7847L55.8217 25.0193Z" fill="#825440"/>
</svg>
