<svg width="68" height="39" viewBox="0 0 68 39" fill="none" xmlns="http://www.w3.org/2000/svg">
<path d="M3.04391 38.9179C3.04391 38.9179 31.7913 27.8374 64.0202 38.9179L67.5785 26.0609C67.5785 26.0609 57.4286 26.9067 56.7524 21.4102C56.0763 15.9136 54.9335 3.9024 37.8076 0.603946C20.6789 -2.69716 13.3211 8.21371 11.6718 16.8417C10.0226 25.4696 9.89535 24.8332 0 26.2306" fill="#030303"/>
<path d="M37.8471 16.7517C38.0698 16.6801 39.2948 16.2532 39.3372 16.1869C39.4618 15.9854 39.0137 15.3543 39.491 14.6278C39.9683 13.9013 40.883 13.729 41.6891 13.9411C43.0493 14.2991 42.2989 15.7043 42.3705 15.7945C42.4023 15.8343 43.0758 15.9721 43.3251 16.1445C44.9133 17.2422 42.7444 18.9498 40.952 17.9687C40.716 17.8388 40.549 17.4623 40.2732 17.4649C40.1459 17.4649 38.0884 18.3055 37.9319 18.4142C37.4785 18.7297 37.1126 20.5725 36.341 20.9357C37.2134 21.1691 38.9793 22.524 39.7323 22.63C40.1592 22.691 40.0664 22.3728 40.3527 22.1925C42.2167 21.0153 44.5288 23.3751 42.5879 24.441C42.3705 24.5603 41.9914 24.5524 41.9701 24.5736C41.8111 24.73 42.3308 25.8861 41.4637 26.3289C40.1539 26.9997 38.3297 25.377 39.2206 24.0194C38.6399 23.9982 35.9035 22.1236 35.657 22.3728C35.7073 23.3937 34.8138 24.0115 33.907 23.3831C33.7532 23.2743 33.5808 22.927 33.5305 22.9243C33.4271 22.9217 33.1752 23.6721 32.1888 23.4414C31.6877 23.3247 31.6903 22.9084 31.4729 22.7865C31.4146 22.7546 31.2078 23.5978 30.4097 23.4493C29.4207 23.269 29.6832 22.1607 29.6222 22.0997C29.4816 21.9539 27.0237 22.9349 26.9442 23.0543C26.7904 23.2849 26.9362 23.8444 26.8487 24.1918C26.5942 25.2046 24.8681 25.3319 24.6984 24.2183C24.6559 23.9478 24.7593 23.3512 24.6718 23.216C24.6162 23.1312 23.9825 23.1391 23.8737 22.4338C23.7624 21.7153 24.0487 21.1558 24.7938 21.0338C25.9658 20.8429 26.1832 21.8293 26.276 21.8346C26.4139 21.8425 28.7896 20.8005 28.7976 20.6626C28.1665 20.2039 27.8271 18.2948 27.4877 18.0005C27.3976 17.9236 26.3529 17.4331 26.2601 17.4358C25.9605 17.4437 25.9949 17.7486 25.8279 17.8574C24.9052 18.4539 23.3991 17.9236 23.7571 16.7146C23.8923 16.2559 24.6268 16.118 24.6692 16.0464C24.7991 15.8369 24.5578 14.9593 25.0616 14.5509C26.2256 13.6123 27.6548 15.0123 27.0237 16.3301C27.9703 16.81 27.8695 15.8078 28.2275 15.1475C30.5634 10.8601 37.1524 11.8385 37.8497 16.749L37.8471 16.7517ZM33.9149 18.2127C35.1107 19.4032 36.7547 17.852 35.7126 16.346C34.5831 14.71 32.4884 16.7941 33.9149 18.2127ZM30.1339 15.9615C28.8877 16.293 28.8638 18.6846 30.2214 18.6661C31.8653 18.6422 32.0907 15.4418 30.1339 15.9615ZM31.8203 19.4854C32.1146 19.6392 32.4248 19.2785 32.5706 19.2679C32.7562 19.2573 33.1566 19.7213 33.3952 19.3607C33.6524 17.3801 31.4225 17.7486 31.8203 19.4854Z" fill="#FEFEFE"/>
</svg>
