<svg width="62" height="39" viewBox="0 0 62 39" fill="none" xmlns="http://www.w3.org/2000/svg">
<path d="M51.3021 26.6679C51.3021 26.6679 55.5623 34.5394 55.4435 38.1485C55.4435 38.1485 43.2547 35.4851 43.4328 24.066C43.4328 24.066 42.0375 23.8031 41.959 23.3026C41.959 23.3026 21.3029 31.1741 0 21.9582C0 21.9582 0.366853 17.2655 2.56585 12.2228C3.16172 10.8551 3.89118 9.46402 4.78393 8.13233C6.83873 5.06815 9.75871 2.3263 13.898 0.952195C15.1152 0.547173 16.4363 0.263021 17.8719 0.120946C18.2578 0.0848965 18.6501 0.0573295 19.053 0.0403652C22.6919 -0.108072 25.8599 0.156995 28.6039 0.767709C30.2558 1.13244 31.7529 1.62441 33.1058 2.22664C40.2541 5.40108 43.3946 11.6461 44.0244 18.7795C44.0244 18.7795 45.2077 18.6608 45.7209 19.844C45.7209 19.844 51.8937 16.1946 61.5401 24.717C61.5401 24.717 57.0424 28.0293 51.3021 26.6679Z" fill="#DB282D"/>
<path d="M6.49431 10.4189C6.49431 11.7336 5.42768 12.8003 4.11295 12.8003C3.5192 12.8003 2.97422 12.5819 2.55859 12.2214C3.15446 10.8536 3.88393 9.46256 4.77667 8.13086C5.76908 8.41713 6.49431 9.3332 6.49431 10.4189Z" fill="#FEFEFE"/>
<path d="M9.41652 22.7637C10.7317 22.7637 11.7979 21.6975 11.7979 20.3823C11.7979 19.0671 10.7317 18.001 9.41652 18.001C8.10133 18.001 7.03516 19.0671 7.03516 20.3823C7.03516 21.6975 8.10133 22.7637 9.41652 22.7637Z" fill="#FEFEFE"/>
<path d="M14.186 15.1817C15.5012 15.1817 16.5674 14.1155 16.5674 12.8003C16.5674 11.4851 15.5012 10.4189 14.186 10.4189C12.8709 10.4189 11.8047 11.4851 11.8047 12.8003C11.8047 14.1155 12.8709 15.1817 14.186 15.1817Z" fill="#FEFEFE"/>
<path d="M18.5188 1.75717C18.5188 3.0719 17.4521 4.13853 16.1353 4.13853C14.8184 4.13853 13.7539 3.0719 13.7539 1.75717C13.7539 1.47514 13.8027 1.20371 13.8939 0.951367C15.111 0.546345 16.4321 0.262193 17.8677 0.120117C18.2706 0.548465 18.5188 1.12101 18.5188 1.75717Z" fill="#FEFEFE"/>
<path d="M25.3423 12.042C26.6575 12.042 27.7237 10.9758 27.7237 9.66066C27.7237 8.34547 26.6575 7.2793 25.3423 7.2793C24.0271 7.2793 22.9609 8.34547 22.9609 9.66066C22.9609 10.9758 24.0271 12.042 25.3423 12.042Z" fill="#FEFEFE"/>
<path d="M33.101 2.22651C32.8826 3.31646 31.9199 4.13923 30.7642 4.13923C29.4494 4.13923 28.3828 3.0726 28.3828 1.75787C28.3828 1.40374 28.4592 1.06869 28.5991 0.767578C30.251 1.13231 31.7481 1.62427 33.101 2.22651Z" fill="#FEFEFE"/>
<path d="M38.5571 14.4248C39.8723 14.4248 40.9385 13.3587 40.9385 12.0435C40.9385 10.7283 39.8723 9.66211 38.5571 9.66211C37.242 9.66211 36.1758 10.7283 36.1758 12.0435C36.1758 13.3587 37.242 14.4248 38.5571 14.4248Z" fill="#FEFEFE"/>
<path d="M26.8579 21.4541C28.1731 21.4541 29.2393 20.388 29.2393 19.0728C29.2393 17.7576 28.1731 16.6914 26.8579 16.6914C25.5427 16.6914 24.4766 17.7576 24.4766 19.0728C24.4766 20.388 25.5427 21.4541 26.8579 21.4541Z" fill="#FEFEFE"/>
<path d="M36.0962 24.4864C37.4114 24.4864 38.4776 23.4202 38.4776 22.105C38.4776 20.7898 37.4114 19.7236 36.0962 19.7236C34.781 19.7236 33.7148 20.7898 33.7148 22.105C33.7148 23.4202 34.781 24.4864 36.0962 24.4864Z" fill="#FEFEFE"/>
</svg>
