<svg width="74" height="34" viewBox="0 0 74 34" fill="none" xmlns="http://www.w3.org/2000/svg">
<path d="M0 12.631C0 12.631 7.87384 18.4568 14.2104 12.056C19.9301 6.27712 23.3032 0.236641 29.509 0.152746C30.918 0.133006 32.3096 0.537678 33.4299 1.39391C33.684 1.58884 33.9086 1.79611 34.0542 2.00585C34.6291 2.8374 36.8696 4.11804 38.1502 2.77325C39.4309 1.42845 43.0779 -1.6436 47.6872 1.11014C52.2965 3.86142 56.5209 9.2406 56.7134 9.81553C56.9058 10.3905 65.2263 18.5851 73.036 12.7593C73.036 12.7593 70.0897 36.0205 35.1103 33.1409C33.7753 33.0299 32.4379 32.9534 31.0981 32.9164C24.0607 32.719 4.11828 30.323 0 12.631Z" fill="black"/>
<path d="M41.4009 14.1736C41.6081 14.107 42.7481 13.7097 42.7876 13.648C42.9036 13.4605 42.4866 12.8732 42.9307 12.1971C43.3749 11.521 44.2262 11.3606 44.9763 11.5581C46.2421 11.8912 45.5438 13.1989 45.6104 13.2828C45.6401 13.3199 46.2668 13.4482 46.4987 13.6086C47.9768 14.6301 45.9584 16.2192 44.2903 15.3062C44.0707 15.1853 43.9153 14.8349 43.6586 14.8374C43.5402 14.8374 41.6254 15.6196 41.4798 15.7207C41.0579 16.0144 40.7174 17.7293 39.9993 18.0674C40.8111 18.2845 42.4545 19.5454 43.1553 19.6441C43.5525 19.7008 43.4662 19.4047 43.7327 19.237C45.4673 18.1414 47.619 20.3375 45.8128 21.3294C45.6104 21.4404 45.2576 21.433 45.2378 21.4528C45.0898 21.5984 45.5734 22.6742 44.7666 23.0863C43.5476 23.7106 41.8499 22.2004 42.679 20.9371C42.1386 20.9173 39.5922 19.1728 39.3627 19.4047C39.4096 20.3547 38.578 20.9297 37.7341 20.3449C37.591 20.2437 37.4306 19.9205 37.3838 19.918C37.2875 19.9155 37.0531 20.6138 36.1352 20.3992C35.6688 20.2906 35.6713 19.9032 35.469 19.7897C35.4147 19.7601 35.2222 20.5447 34.4795 20.4066C33.5591 20.2388 33.8034 19.2073 33.7466 19.1506C33.6159 19.0149 31.3285 19.9279 31.2544 20.0389C31.1113 20.2536 31.247 20.7742 31.1656 21.0975C30.9287 22.0401 29.3224 22.1585 29.1645 21.1221C29.125 20.8704 29.2212 20.3153 29.1398 20.1894C29.088 20.1105 28.4982 20.1179 28.3971 19.4615C28.2934 18.7928 28.5599 18.2722 29.2533 18.1587C30.3439 17.981 30.5463 18.8989 30.6326 18.9038C30.7609 18.9112 32.9718 17.9415 32.9792 17.8132C32.392 17.3863 32.0761 15.6097 31.7603 15.3358C31.6764 15.2643 30.7042 14.8078 30.6178 14.8102C30.339 14.8176 30.3711 15.1014 30.2156 15.2026C29.3569 15.7578 27.9554 15.2643 28.2885 14.1391C28.4143 13.7122 29.0978 13.5839 29.1373 13.5173C29.2582 13.3223 29.0337 12.5056 29.5025 12.1256C30.5857 11.2521 31.9157 12.5549 31.3285 13.7813C32.2094 14.2279 32.1156 13.2952 32.4487 12.6808C34.6226 8.6908 40.7544 9.60131 41.4033 14.1711L41.4009 14.1736ZM37.7415 15.5357C38.8544 16.6436 40.3842 15.2001 39.4145 13.7986C38.3634 12.2761 36.414 14.2156 37.7415 15.5357ZM34.2229 13.4408C33.0631 13.7492 33.0409 15.9749 34.3043 15.9576C35.8341 15.9354 36.0439 12.9571 34.2229 13.4408ZM35.7922 16.7176C36.0661 16.8607 36.3548 16.5252 36.4905 16.5153C36.6632 16.5054 37.0358 16.9372 37.2579 16.6016C37.4973 14.7584 35.4221 15.1014 35.7922 16.7176Z" fill="#FEFEFE"/>
</svg>
