<svg width="71" height="33" viewBox="0 0 71 33" fill="none" xmlns="http://www.w3.org/2000/svg">
<path d="M70.0622 17.1238C68.9005 15.9445 64.0172 18.0492 62.3601 18.2353C59.5489 18.5521 57.1299 18.1598 55.0579 16.1608C51.6432 12.8718 50.7153 6.90224 46.7901 3.68363C40.6144 -1.38316 27.9537 -1.42339 22.5374 4.81518C19.3087 8.53418 17.8478 15.7308 13.1456 17.8028C8.72254 19.7515 5.15189 16.1407 1.09594 16.8271C-0.153784 17.0383 -0.219162 17.3074 0.323978 18.4666C1.37003 20.697 7.34457 25.4243 9.33608 27.3077C11.1541 29.0251 12.9444 30.8306 14.3978 32.8648C18.5921 32.2211 22.7587 31.155 26.968 30.6194C33.9584 29.7292 40.3252 30.1341 47.2654 31.1198C49.3097 31.4114 53.9239 32.7567 55.6011 32.6184C55.9481 32.5882 56.0813 32.5204 56.368 32.3569C57.3939 31.7635 60.0971 28.5147 61.2537 27.4385C63.4037 25.4344 68.5333 21.4639 69.9214 19.2587C70.291 18.6703 70.6078 17.677 70.0647 17.1264L70.0622 17.1238Z" fill="#030303"/>
<path d="M40.2533 15.092C40.4645 15.0241 41.6262 14.6193 41.6664 14.5564C41.7846 14.3653 41.3597 13.7669 41.8123 13.0779C42.2649 12.3889 43.1324 12.2255 43.8968 12.4266C45.1868 12.7661 44.4752 14.0988 44.5431 14.1843C44.5732 14.222 45.2119 14.3528 45.4483 14.5162C46.9545 15.5572 44.8976 17.1766 43.1978 16.2462C42.974 16.123 42.8156 15.7659 42.5541 15.7684C42.4334 15.7684 40.4821 16.5655 40.3337 16.6686C39.9037 16.9679 39.5567 18.7155 38.825 19.06C39.6523 19.2812 41.327 20.5662 42.0411 20.6668C42.4459 20.7246 42.3579 20.4228 42.6295 20.2519C44.3972 19.1354 46.5899 21.3733 44.7493 22.3842C44.5431 22.4973 44.1835 22.4898 44.1634 22.5099C44.0125 22.6583 44.5054 23.7546 43.6831 24.1745C42.4409 24.8107 40.7109 23.2718 41.5558 21.9844C41.0051 21.9643 38.4101 20.1865 38.1763 20.4228C38.224 21.3909 37.3766 21.9768 36.5167 21.3809C36.3708 21.2778 36.2074 20.9484 36.1596 20.9459C36.0615 20.9434 35.8226 21.655 34.8872 21.4362C34.412 21.3256 34.4145 20.9308 34.2083 20.8151C34.153 20.7849 33.9569 21.5846 33.2 21.4437C32.2621 21.2728 32.511 20.2217 32.4532 20.1638C32.3199 20.0256 29.9889 20.9559 29.9135 21.0691C29.7676 21.2878 29.9059 21.8184 29.823 22.1478C29.5816 23.1084 27.9446 23.2291 27.7837 22.173C27.7434 21.9165 27.8415 21.3507 27.7585 21.2225C27.7057 21.142 27.1047 21.1495 27.0017 20.4807C26.896 19.7992 27.1676 19.2687 27.8742 19.153C28.9856 18.972 29.1918 19.9074 29.2798 19.9124C29.4106 19.9199 31.6636 18.9317 31.6711 18.801C31.0727 18.366 30.7508 16.5555 30.429 16.2764C30.3435 16.2035 29.3527 15.7383 29.2647 15.7408C28.9806 15.7483 29.0133 16.0375 28.8549 16.1406C27.9798 16.7064 26.5516 16.2035 26.891 15.0568C27.0193 14.6218 27.7158 14.4911 27.756 14.4232C27.8792 14.2245 27.6504 13.3922 28.1282 13.005C29.232 12.1148 30.5874 13.4425 29.9889 14.6922C30.8866 15.1473 30.7911 14.1969 31.1305 13.5707C33.3458 9.50472 39.5945 10.4326 40.2558 15.0895L40.2533 15.092ZM36.5267 16.4801C37.6608 17.6091 39.2198 16.1381 38.2316 14.7098C37.1604 13.1583 35.1739 15.1348 36.5267 16.4801ZM32.9385 14.3452C31.7566 14.6595 31.734 16.9276 33.0215 16.91C34.5805 16.8874 34.7942 13.8524 32.9385 14.3452ZM34.5402 17.687C34.8194 17.8329 35.1135 17.4909 35.2518 17.4808C35.4279 17.4708 35.8076 17.9108 36.0339 17.5688C36.2778 15.6905 34.1631 16.04 34.5402 17.687Z" fill="#FEFEFE"/>
</svg>
