<svg width="71" height="64" viewBox="0 0 71 64" fill="none" xmlns="http://www.w3.org/2000/svg">
<g clip-path="url(#clip0_202_101)">
<path d="M0 35.2659C0 35.2659 1.88512 11.1262 21.6873 10.3176C41.4894 9.50903 49.0323 19.4343 50.1113 31.6477C50.1113 31.6477 51.4581 31.5125 52.0422 32.8594C52.0422 32.8594 59.0686 28.7054 70.0486 38.4037C70.0486 38.4037 64.9291 42.1763 58.3976 40.6267C58.3976 40.6267 63.2467 49.584 63.1116 53.6922C63.1116 53.6922 49.2375 50.6606 49.4378 37.6627C49.4378 37.6627 47.852 37.3634 47.7603 36.7937C47.7603 36.7937 24.2458 45.7535 0 35.2634L0 35.2659Z" fill="#DB282D"/>
</g>
<defs>
<clipPath id="clip0_202_101">
<rect width="70.0486" height="63.9636" fill="white"/>
</clipPath>
</defs>
</svg>
