<svg width="71" height="52" viewBox="0 0 71 52" fill="none" xmlns="http://www.w3.org/2000/svg">
<path d="M70.2582 17.1717C69.0932 15.9891 64.1963 18.0997 62.5346 18.2863C59.7155 18.604 57.2897 18.2106 55.212 16.206C51.7877 12.9078 50.8572 6.92155 46.921 3.69394C40.7281 -1.38703 28.0319 -1.42738 22.6005 4.82865C19.3628 8.55805 17.8977 15.7748 13.1824 17.8526C8.74694 19.8068 5.16631 16.1858 1.09901 16.8742C-0.154214 17.086 -0.219775 17.3558 0.324885 18.5183C1.37386 20.7549 7.36512 25.4955 9.3622 27.3841C11.1853 29.1064 12.9807 30.9168 14.4381 32.9568C18.6441 32.3113 22.8224 31.2421 27.0435 30.705C34.0534 29.8124 40.4381 30.2184 47.3976 31.2068C49.4477 31.4993 54.0747 32.8484 55.7566 32.7097C56.1046 32.6794 56.2383 32.6113 56.5257 32.4474C57.5545 31.8523 60.2652 28.5945 61.4251 27.5152C63.5811 25.5055 68.7251 21.524 70.117 19.3126C70.4877 18.7225 70.8054 17.7265 70.2607 17.1743L70.2582 17.1717Z" fill="#030303"/>
<path d="M38.4783 12.6689C38.6901 12.6008 39.8551 12.1949 39.8954 12.1318C40.0139 11.9402 39.5878 11.3401 40.0417 10.6491C40.4956 9.95823 41.3655 9.79433 42.1321 9.99605C43.4256 10.3365 42.712 11.6729 42.7801 11.7586C42.8104 11.7965 43.4508 11.9276 43.6879 12.0915C45.1983 13.1354 43.1356 14.7593 41.4311 13.8263C41.2066 13.7028 41.0478 13.3447 40.7855 13.3472C40.6645 13.3472 38.7078 14.1466 38.559 14.2499C38.1278 14.55 37.7798 16.3025 37.046 16.648C37.8756 16.8699 39.555 18.1584 40.2711 18.2592C40.6771 18.3172 40.5889 18.0147 40.8612 17.8432C42.6338 16.7236 44.8327 18.9678 42.9869 19.9815C42.7801 20.095 42.4195 20.0874 42.3993 20.1076C42.248 20.2563 42.7423 21.3557 41.9177 21.7768C40.6721 22.4148 38.9372 20.8716 39.7845 19.5806C39.2322 19.5604 36.63 17.7776 36.3955 18.0147C36.4434 18.9855 35.5936 19.573 34.7312 18.9754C34.585 18.872 34.4211 18.5417 34.3732 18.5391C34.2748 18.5366 34.0353 19.2502 33.0973 19.0309C32.6207 18.9199 32.6232 18.524 32.4164 18.408C32.361 18.3778 32.1643 19.1796 31.4053 19.0384C30.4647 18.8669 30.7144 17.8129 30.6564 17.7549C30.5227 17.6162 28.1852 18.5492 28.1096 18.6627C27.9633 18.8821 28.102 19.4141 28.0188 19.7445C27.7767 20.7077 26.1352 20.8287 25.9738 19.7697C25.9335 19.5125 26.0318 18.9451 25.9486 18.8165C25.8956 18.7358 25.293 18.7434 25.1896 18.0727C25.0837 17.3893 25.356 16.8573 26.0646 16.7413C27.1791 16.5597 27.3859 17.4977 27.4742 17.5028C27.6053 17.5103 29.8646 16.5194 29.8722 16.3882C29.272 15.952 28.9493 14.1365 28.6265 13.8566C28.5408 13.7835 27.5473 13.317 27.459 13.3195C27.1741 13.3271 27.2069 13.617 27.048 13.7204C26.1705 14.2878 24.7382 13.7835 25.0787 12.6336C25.2073 12.1974 25.9057 12.0663 25.9461 11.9982C26.0696 11.799 25.8402 10.9643 26.3193 10.576C27.4262 9.68338 28.7854 11.0148 28.1852 12.268C29.0854 12.7244 28.9896 11.7712 29.33 11.1434C31.5515 7.06598 37.8176 7.99644 38.4808 12.6664L38.4783 12.6689ZM34.7413 14.0583C35.8786 15.1905 37.4419 13.7154 36.451 12.2831C35.3768 10.7273 33.3847 12.7093 34.7413 14.0583ZM31.143 11.92C29.9579 12.2352 29.9352 14.5097 31.2263 14.492C32.7896 14.4693 33.004 11.4258 31.143 11.92ZM32.7493 15.2687C33.0292 15.4149 33.3242 15.072 33.4629 15.0619C33.6394 15.0518 34.0202 15.4931 34.2471 15.1501C34.4917 13.2665 32.371 13.617 32.7493 15.2687Z" fill="#FEFEFE"/>
<path d="M55.8847 32.7213L55.6326 36.36C51.7998 36.9677 47.9317 37.3963 44.051 37.5981C38.6296 37.8805 33.8159 37.5073 28.4803 36.5491C25.6687 36.0422 22.8824 35.3841 20.1087 34.7159C20.1818 35.8733 20.0532 37.0862 19.8237 38.2259C19.1757 41.4132 17.1937 44.1264 15.5749 46.8825C14.8663 48.0903 14.2082 49.3309 13.4845 50.5287C13.3029 50.8288 13.0836 51.2045 12.8465 51.444L12.8642 43.728L6.89058 48.7409C6.83511 48.7485 6.85276 48.6728 6.86032 48.6325C7.19317 47.0817 8.02781 44.9611 8.54473 43.3901C10.2745 38.1175 11.9463 31.5538 18.3486 30.5402C23.243 29.766 28.1474 29.0877 33.1225 29.0424C40.0694 28.9793 46.976 30.2073 53.6532 32.043C54.0944 32.1641 55.5721 32.739 55.8873 32.7239L55.8847 32.7213Z" fill="#DB282D"/>
</svg>
