<svg width="70" height="72" viewBox="0 0 70 72" fill="none" xmlns="http://www.w3.org/2000/svg">
<g clip-path="url(#clip0_884_10224)">
<path d="M51.7165 21.998L49.8485 20.2203L14.1588 57.7214C13.6976 58.2059 13.7167 58.9729 14.2006 59.4334L14.3144 59.5418C14.7986 60.0026 15.5656 59.9831 16.0265 59.4989L51.7162 21.9978L51.7165 21.998Z" fill="#D3AE74"/>
<mask id="mask0_884_10224" style="mask-type:luminance" maskUnits="userSpaceOnUse" x="13" y="20" width="39" height="40">
<path d="M51.7165 21.998L49.8485 20.2203L14.1588 57.7214C13.6976 58.2059 13.7167 58.9729 14.2006 59.4334L14.3144 59.5418C14.7986 60.0026 15.5656 59.9831 16.0265 59.4989L51.7162 21.9978L51.7165 21.998Z" fill="white"/>
</mask>
<g mask="url(#mask0_884_10224)">
<path d="M46.6363 19.218L49.4548 21.9004L10.6697 62.654L7.85117 59.9716L46.6363 19.218Z" fill="#B99668"/>
</g>
<path d="M47.0492 22.0682C48.4742 22.1661 49.6739 23.1708 50.02 24.5564C50.7947 27.655 55.0821 27.9497 56.2772 24.9862C56.8117 23.661 58.1384 22.8299 59.5635 22.9278C62.7502 23.1469 64.3579 19.1599 61.9098 17.1095C60.815 16.1924 60.4355 14.6743 60.9698 13.3494C62.1646 10.3861 58.8707 7.62737 56.1627 9.32339C54.9515 10.0819 53.3904 9.97455 52.2956 9.05745C49.8475 7.00704 46.2038 9.28907 46.9784 12.3877C47.3249 13.7736 46.7393 15.2251 45.5284 15.9839C42.8204 17.6799 43.8624 21.8492 47.0492 22.0682Z" fill="#FFF17D"/>
<mask id="mask1_884_10224" style="mask-type:luminance" maskUnits="userSpaceOnUse" x="43" y="8" width="21" height="20">
<path d="M47.0492 22.0682C48.4742 22.1661 49.6739 23.1708 50.02 24.5564C50.7947 27.655 55.0821 27.9497 56.2772 24.9862C56.8117 23.661 58.1384 22.8299 59.5635 22.9278C62.7502 23.1469 64.3579 19.1599 61.9098 17.1095C60.815 16.1924 60.4355 14.6743 60.9698 13.3494C62.1646 10.3861 58.8707 7.62737 56.1627 9.32339C54.9515 10.0819 53.3904 9.97455 52.2956 9.05745C49.8475 7.00704 46.2038 9.28907 46.9784 12.3877C47.3249 13.7736 46.7393 15.2251 45.5284 15.9839C42.8204 17.6799 43.8624 21.8492 47.0492 22.0682Z" fill="white"/>
</mask>
<g mask="url(#mask1_884_10224)">
<path d="M44.341 18.3267C40.9157 15.0668 40.4093 10.0385 43.21 7.09568C46.0107 4.15285 51.0579 4.40986 54.4832 7.66974C57.9085 10.9296 58.4149 15.9579 55.6142 18.9007C52.8135 21.8436 47.7663 21.5866 44.341 18.3267Z" fill="#FFDD79"/>
</g>
<path d="M52.043 12.4462C52.5643 13.4304 52.5384 13.801 51.8674 14.929C52.9608 14.203 53.3299 14.1585 54.3385 14.6308C53.8171 13.6466 53.8431 13.276 54.5141 12.148C53.4207 12.874 53.0515 12.9185 52.043 12.4462Z" fill="white"/>
</g>
<defs>
<clipPath id="clip0_884_10224">
<rect width="27.1143" height="72.4778" fill="white" transform="matrix(-0.724385 -0.689396 -0.689396 0.724385 69.6071 18.6934)"/>
</clipPath>
</defs>
</svg>
