<svg width="74" height="75" viewBox="0 0 74 75" fill="none" xmlns="http://www.w3.org/2000/svg">
<g clip-path="url(#clip0_927_8961)">
<path d="M51.7188 24.1161L49.8507 22.3383L14.161 59.8394C13.6999 60.3239 13.7189 61.0909 14.2028 61.5515L14.3167 61.6598C14.8009 62.1206 15.5679 62.1011 16.0287 61.6169L51.7185 24.1158L51.7188 24.1161Z" fill="#D3AE74"/>
<mask id="mask0_927_8961" style="mask-type:luminance" maskUnits="userSpaceOnUse" x="13" y="22" width="39" height="40">
<path d="M51.7188 24.1161L49.8507 22.3383L14.161 59.8394C13.6999 60.3239 13.7189 61.0909 14.2028 61.5515L14.3167 61.6598C14.8009 62.1206 15.5679 62.1011 16.0287 61.6169L51.7185 24.1158L51.7188 24.1161Z" fill="white"/>
</mask>
<g mask="url(#mask0_927_8961)">
<path d="M46.6385 21.336L49.457 24.0184L10.6719 64.772L7.8534 62.0896L46.6385 21.336Z" fill="#B99668"/>
</g>
<path d="M52.0452 14.5642C52.5666 15.5484 52.5406 15.919 51.8696 17.0471C52.963 16.321 53.3322 16.2765 54.3407 16.7488C53.8194 15.7646 53.8453 15.394 54.5163 14.266C53.4229 14.992 53.0538 15.0365 52.0452 14.5642Z" fill="white"/>
<path d="M62.9175 11.9285C64.4937 13.219 65.6339 14.8436 66.3249 16.6152C66.1802 16.4774 66.0312 16.3419 65.8741 16.2132C62.4555 13.4143 57.4151 13.9169 54.6161 17.3353C51.8172 20.7539 52.3195 25.7942 55.7382 28.5932C57.5626 30.0868 59.8483 30.6392 62.0093 30.311C57.9328 33.0263 52.4049 32.903 48.4177 29.6385C43.5272 25.6345 42.8086 18.4241 46.8126 13.5336C50.8166 8.64311 58.027 7.92446 62.9175 11.9285Z" fill="#FFDD79"/>
<path d="M52.1624 12.5857C52.6837 13.5699 52.6578 13.9405 51.9868 15.0686C53.0802 14.3425 53.4493 14.298 54.4579 14.7703C53.9366 13.7861 53.9625 13.4155 54.6335 12.2875C53.5401 13.0135 53.171 13.058 52.1624 12.5857Z" fill="white"/>
</g>
<defs>
<clipPath id="clip0_927_8961">
<rect width="29.1481" height="75.4022" fill="white" transform="matrix(-0.724385 -0.689396 -0.689396 0.724385 73.0977 20.0946)"/>
</clipPath>
</defs>
</svg>
