<svg width="69" height="65" viewBox="0 0 69 65" fill="none" xmlns="http://www.w3.org/2000/svg">
<g filter="url(#filter0_d_927_8915)">
<g clip-path="url(#clip0_927_8915)">
<path d="M62.4179 45.5368C60.2352 43.3113 57.7229 41.7463 55.03 40.2147C53.0429 39.0844 50.9244 38.0661 48.7017 37.3805C52.5475 35.2735 56.0431 32.3243 57.7695 28.2142C59.2361 24.7239 59.9018 20.9464 60.3525 17.2087C60.6766 14.5199 63.3788 0 63.3788 0C54.083 2.15143 44.2461 12.4768 38.0855 19.5751C36.2557 21.683 35.1504 24.3227 34.5005 26.9921C33.8505 24.3227 32.7452 21.683 30.9155 19.5751C24.7548 12.4768 14.918 2.15143 5.6221 0C5.6221 0 8.32435 14.5199 8.6484 17.2087C9.09909 20.9464 9.76487 24.7229 11.2315 28.2142C12.9579 32.3243 16.4535 35.2735 20.2992 37.3805C18.0765 38.0661 15.9581 39.0853 13.971 40.2147C11.279 41.7463 8.76573 43.3103 6.58306 45.5368C6.25529 45.8713 4.45255 48.2117 4 48.1849C5.29526 48.2608 6.73857 49.7785 7.68557 50.5216C9.53301 51.9717 11.3525 53.4671 13.3368 54.7318C15.3631 56.0234 17.6277 57.2001 20.1074 56.9713C22.7109 56.7304 25.0547 55.1506 27.0092 53.6218C29.9992 51.2832 32.3858 48.5805 33.6615 44.9642C33.979 44.0645 34.2612 43.1408 34.5014 42.2059C34.7407 43.1408 35.0238 44.0645 35.3404 44.9642C36.6152 48.5805 39.0017 51.2832 41.9927 53.6218C43.9472 55.1506 46.29 56.7313 48.8945 56.9713C51.3742 57.2001 53.6388 56.0234 55.665 54.7318C57.6493 53.4671 59.4689 51.9717 61.3163 50.5216C62.2633 49.7785 63.7066 48.2608 65.0019 48.1849C64.5493 48.2117 62.7475 45.8713 62.4188 45.5368H62.4179Z" fill="#B5D3FF"/>
</g>
</g>
<defs>
<filter id="filter0_d_927_8915" x="0" y="0" width="69" height="65" filterUnits="userSpaceOnUse" color-interpolation-filters="sRGB">
<feFlood flood-opacity="0" result="BackgroundImageFix"/>
<feColorMatrix in="SourceAlpha" type="matrix" values="0 0 0 0 0 0 0 0 0 0 0 0 0 0 0 0 0 0 127 0" result="hardAlpha"/>
<feOffset dy="4"/>
<feGaussianBlur stdDeviation="2"/>
<feComposite in2="hardAlpha" operator="out"/>
<feColorMatrix type="matrix" values="0 0 0 0 0 0 0 0 0 0 0 0 0 0 0 0 0 0 0.25 0"/>
<feBlend mode="normal" in2="BackgroundImageFix" result="effect1_dropShadow_927_8915"/>
<feBlend mode="normal" in="SourceGraphic" in2="effect1_dropShadow_927_8915" result="shape"/>
</filter>
<clipPath id="clip0_927_8915">
<rect width="61" height="57" fill="white" transform="translate(4)"/>
</clipPath>
</defs>
</svg>
