<svg width="61" height="57" viewBox="0 0 61 57" fill="none" xmlns="http://www.w3.org/2000/svg">
<g clip-path="url(#clip0_927_8907)">
<path d="M58.4179 45.5368C56.2352 43.3113 53.7229 41.7463 51.03 40.2147C49.0429 39.0844 46.9244 38.0661 44.7017 37.3805C48.5475 35.2735 52.0431 32.3243 53.7695 28.2142C55.2361 24.7239 55.9018 20.9464 56.3525 17.2087C56.6766 14.5199 59.3788 0 59.3788 0C50.083 2.15143 40.2461 12.4768 34.0855 19.5751C32.2557 21.683 31.1504 24.3227 30.5005 26.9921C29.8505 24.3227 28.7452 21.683 26.9155 19.5751C20.7548 12.4768 10.918 2.15143 1.6221 0C1.6221 0 4.32435 14.5199 4.6484 17.2087C5.09909 20.9464 5.76487 24.7229 7.23146 28.2142C8.95785 32.3243 12.4535 35.2735 16.2992 37.3805C14.0765 38.0661 11.9581 39.0853 9.97097 40.2147C7.27895 41.7463 4.76573 43.3103 2.58306 45.5368C2.25529 45.8713 0.452549 48.2117 0 48.1849C1.29526 48.2608 2.73857 49.7785 3.68557 50.5216C5.53301 51.9717 7.35252 53.4671 9.33684 54.7318C11.3631 56.0234 13.6277 57.2001 16.1074 56.9713C18.7109 56.7304 21.0547 55.1506 23.0092 53.6218C25.9992 51.2832 28.3858 48.5805 29.6615 44.9642C29.979 44.0645 30.2612 43.1408 30.5014 42.2059C30.7407 43.1408 31.0238 44.0645 31.3404 44.9642C32.6152 48.5805 35.0017 51.2832 37.9927 53.6218C39.9472 55.1506 42.29 56.7313 44.8945 56.9713C47.3742 57.2001 49.6388 56.0234 51.665 54.7318C53.6493 53.4671 55.4689 51.9717 57.3163 50.5216C58.2633 49.7785 59.7066 48.2608 61.0019 48.1849C60.5493 48.2117 58.7475 45.8713 58.4188 45.5368H58.4179Z" fill="#AB1A78"/>
</g>
<defs>
<clipPath id="clip0_927_8907">
<rect width="61" height="57" fill="white"/>
</clipPath>
</defs>
</svg>
