<svg width="76" height="42" viewBox="0 0 76 42" fill="none" xmlns="http://www.w3.org/2000/svg">
<g clip-path="url(#clip0_1049_7400)">
<path d="M76.0003 32.9957C75.9971 33.4322 75.7742 33.833 75.5417 34.1978C74.0624 36.5109 71.7951 38.2994 69.2145 39.1888C68.7946 39.3322 68.3554 39.456 67.9097 39.4397C66.2044 39.3778 55.7463 20.7234 55.165 19.1043C54.1444 23.1994 53.127 27.529 54.3123 31.5753C55.2909 34.908 57.723 37.889 57.6164 41.3618C51.0954 41.7886 44.5616 42.0036 38.0277 42.0003C37.8114 42.0003 37.595 42.0003 37.3786 41.9971C31.2194 41.9873 25.0634 41.7853 18.9171 41.3879C18.817 37.915 21.249 34.9374 22.2244 31.6046C23.4065 27.5616 22.3859 23.2352 21.3653 19.1434C20.7936 20.7593 9.80268 39.9577 8.10382 40.0261C7.66134 40.0424 7.22531 39.9218 6.80544 39.7785C4.22808 38.9021 1.95754 37.1331 0.465381 34.8396C0.223148 34.465 -0.00939678 34.048 0.000292568 33.5984C0.0132117 33.2172 10.2516 15.5695 10.4357 15.2372C11.3497 13.5888 12.3865 11.9794 13.5363 10.4612C16.3785 6.69845 19.9313 3.49274 24.13 1.65858C25.409 1.09823 26.7493 0.664941 28.1478 0.381509C28.3933 0.332642 28.642 0.287032 28.8907 0.247938C29.8338 0.09482 30.8027 0.0101163 31.7975 0.000342806C32.282 -0.00291503 32.7826 0.0133741 33.2251 0.212102C33.8323 0.489018 34.2392 1.06565 34.7172 1.52827C35.4794 2.27105 36.4839 2.71412 37.5336 2.84443C37.5627 2.85095 37.5917 2.85421 37.6208 2.85421C37.7177 2.86724 37.8178 2.87701 37.9147 2.88027C38.031 2.89004 38.144 2.89004 38.2603 2.89004C38.341 2.89004 38.4218 2.88678 38.5025 2.88027C38.622 2.87701 38.7415 2.86398 38.8578 2.85095C39.6943 2.74995 40.5018 2.44698 41.18 1.9355C41.813 1.45985 42.3395 0.827833 43.0436 0.479244C43.5604 0.221876 44.1417 0.130656 44.7166 0.0817887C45.5757 0.00685848 46.4316 0.0133741 47.2811 0.09482C47.5427 0.120883 47.8043 0.150203 48.0627 0.189297C49.3481 0.381509 50.611 0.733355 51.8318 1.22529C53.7826 2.00391 55.6204 3.12135 57.2546 4.44077C58.033 5.07279 58.7694 5.74716 59.4735 6.45411C60.0161 7.00469 60.9947 8.37623 62.2123 10.2137C66.5629 16.7782 73.9591 29.3111 75.4641 31.6469C75.729 32.0607 76.0035 32.5038 76.0003 32.9957Z" fill="#C0BCB3"/>
<path d="M22.9661 9.18706C20.7699 12.6501 17.2268 14.3214 15.0499 12.9173C14.2457 12.396 13.7386 11.5262 13.5352 10.4609C16.3774 6.69807 19.9301 3.49236 24.1288 1.6582C25.0622 3.50865 24.6747 6.49283 22.9661 9.18706Z" fill="#9E9074"/>
<path d="M62.2112 10.213C62.0433 11.3923 61.5233 12.3566 60.6544 12.917C58.4808 14.3211 54.9377 12.6498 52.7415 9.18676C50.894 6.271 50.5872 3.01968 51.8307 1.22461C53.7815 2.00323 55.6192 3.12067 57.2535 4.44009C58.0319 5.07211 58.7683 5.74648 59.4723 6.45343C60.0149 7.00401 60.9936 8.37556 62.2112 10.213Z" fill="#9E9074"/>
</g>
<defs>
<clipPath id="clip0_1049_7400">
<rect width="76" height="42" fill="white"/>
</clipPath>
</defs>
</svg>
