<svg width="76" height="42" viewBox="0 0 76 42" fill="none" xmlns="http://www.w3.org/2000/svg">
<g clip-path="url(#clip0_1050_7419)">
<path d="M76.0003 32.9989C75.9971 33.4355 75.7742 33.8362 75.5417 34.2011C74.0624 36.5142 71.7951 38.3027 69.2145 39.1921C68.7946 39.3354 68.3554 39.4592 67.9097 39.4429C66.2044 39.381 55.7463 20.7234 55.165 19.1043C54.1444 23.1994 53.127 27.529 54.3123 31.5753C55.2909 34.908 57.723 37.889 57.6164 41.3618C51.0954 41.7886 44.5616 42.0036 38.0277 42.0003C37.8114 42.0003 37.595 42.0003 37.3786 42.0003C31.2194 41.9906 25.0634 41.7886 18.9171 41.3911C18.817 37.9183 21.249 34.9406 22.2244 31.6079C23.4065 27.5649 22.3859 23.2385 21.3653 19.1466C20.7936 20.7625 9.80268 39.9642 8.10382 40.0326C7.66134 40.0489 7.22531 39.9284 6.80544 39.785C4.22808 38.9087 1.95754 37.1397 0.465381 34.8461C0.223148 34.4682 -0.00939678 34.0512 0.000292568 33.6016C0.00998191 33.341 4.83205 24.9488 7.91649 19.5995C7.97139 19.505 8.0263 19.4105 8.07798 19.3193C8.13611 19.2248 8.19102 19.1271 8.2427 19.0359C9.48616 16.8792 10.3808 15.3317 10.4357 15.2372C11.0655 14.1035 11.7502 12.9861 12.4963 11.9045C12.5545 11.8133 12.6158 11.7253 12.6804 11.6373C12.7418 11.5461 12.8031 11.4581 12.8645 11.3702C16.653 6.04363 21.7981 1.6651 28.1478 0.381509C28.3933 0.332642 28.642 0.287032 28.8907 0.247938C29.8338 0.09482 30.8027 0.0101163 31.7975 0.000342806C32.282 -0.00291503 32.7826 0.0133741 33.2251 0.212102C33.8323 0.489018 34.2392 1.06565 34.7172 1.52827C35.4794 2.27105 36.4839 2.71412 37.5336 2.84443C37.5627 2.85095 37.5917 2.85421 37.6208 2.85421C37.7177 2.86724 37.8178 2.87701 37.9147 2.88027C38.031 2.89004 38.144 2.89004 38.2603 2.89004C38.341 2.89004 38.4218 2.88678 38.5025 2.88027C38.622 2.87701 38.7415 2.86398 38.8578 2.85095C39.6943 2.74995 40.5018 2.44698 41.18 1.9355C41.813 1.45985 42.3395 0.827833 43.0436 0.479244C43.5604 0.221876 44.1417 0.130656 44.7166 0.0817887C45.5757 0.00685848 46.4316 0.0133741 47.2811 0.09482C47.5427 0.120883 47.8043 0.150203 48.0627 0.189297C51.4023 0.684488 54.5998 2.29386 57.2546 4.44077C58.033 5.07279 58.7694 5.74716 59.4735 6.45411C60.1162 7.10242 61.3629 8.89097 62.8906 11.2431C62.9487 11.3311 63.0069 11.4256 63.065 11.5168C63.1264 11.608 63.1845 11.6992 63.2427 11.7904C64.5895 13.8755 66.1236 16.3384 67.6448 18.8176C67.703 18.9088 67.7611 19.0033 67.816 19.0945C67.8709 19.1857 67.9291 19.2769 67.984 19.3714C71.3236 24.8185 74.5307 30.2037 75.4641 31.6502C75.729 32.0639 76.0035 32.507 76.0003 32.9989Z" fill="#DECDA8"/>
<path d="M41.6781 21.3027H33.9331C31.6173 21.3027 29.7344 23.2021 29.7344 25.5379V26.3231C29.7344 28.6557 31.6173 30.5582 33.9331 30.5582H41.6781C43.9939 30.5582 45.8768 28.6557 45.8768 26.3231V25.5379C45.8768 23.2021 43.9939 21.3027 41.6781 21.3027ZM45.2309 26.3231C45.2309 28.2973 43.6386 29.9067 41.6781 29.9067H33.9331C31.9726 29.9067 30.3803 28.2973 30.3803 26.3231V25.5379C30.3803 23.5604 31.9726 21.9543 33.9331 21.9543H41.6781C43.6386 21.9543 45.2309 23.5604 45.2309 25.5379V26.3231Z" fill="black"/>
<path d="M42.0721 23.5352H34.0234V26.4444H42.0721V23.5352Z" fill="#F97600"/>
<path d="M33.6992 23.209V26.7698H42.3938V23.209H33.6992ZM41.7478 26.1182H34.3452V23.8606H41.7478V26.1182Z" fill="black"/>
<path d="M15.8716 13.7999L10.9171 21.2408L8.07812 19.3187C8.13626 19.2242 8.19117 19.1265 8.24284 19.0353C9.48631 16.8786 10.381 15.3311 10.4359 15.2366C11.0657 14.1029 11.7504 12.9855 12.4965 11.9039C12.5546 11.8126 12.616 11.7247 12.6806 11.6367L15.8716 13.7999Z" fill="#F97600"/>
<path d="M12.866 11.3691C12.8046 11.4571 12.7433 11.5451 12.6819 11.6363C12.6173 11.7242 12.5559 11.8122 12.4978 11.9034L15.424 13.8874L10.8312 20.7875L8.24418 19.0348C8.1925 19.126 8.13759 19.2238 8.07946 19.3183C8.02778 19.4095 7.97288 19.504 7.91797 19.5984L11.0056 21.69L16.3219 13.7115L12.866 11.3691Z" fill="black"/>
<path d="M67.8164 19.0933L64.8256 21.1165L59.8711 13.6788L63.0653 11.5156C63.1267 11.6068 63.1849 11.6981 63.243 11.7893C64.5898 13.8743 66.124 16.3372 67.6452 18.8164C67.7033 18.9077 67.7615 19.0021 67.8164 19.0933Z" fill="#F97600"/>
<path d="M67.8168 19.0936C67.7618 19.0023 67.7037 18.9079 67.6456 18.8167L64.9132 20.6671L60.3204 13.767L63.2434 11.7895C63.1852 11.6983 63.1271 11.6071 63.0657 11.5158C63.0076 11.4246 62.9495 11.3301 62.8913 11.2422L59.4258 13.5911L64.7388 21.5695L67.9847 19.3705C67.9298 19.276 67.8717 19.1848 67.8168 19.0936Z" fill="black"/>
</g>
<defs>
<clipPath id="clip0_1050_7419">
<rect width="76" height="42" fill="white"/>
</clipPath>
</defs>
</svg>
