<svg width="70" height="76" viewBox="0 0 70 76" fill="none" xmlns="http://www.w3.org/2000/svg">
<g clip-path="url(#clip0_990_10076)">
<path d="M-0.00390625 30.2601C-0.00390625 30.2601 6.36103 18.06 14.4516 13.5492C22.5421 9.03845 28.3734 10.7641 28.3734 10.7641C28.3734 10.7641 34.6059 18.8702 41.8979 10.4408C41.8979 10.4408 53.171 9.96943 58.34 15.8046C63.5091 21.6398 70.4077 28.5345 69.0794 31.0547C67.755 33.575 60.9888 38.2143 58.4725 37.1548C58.4725 37.1548 55.6873 34.2372 55.6873 33.4426C55.6873 33.4426 53.8293 46.7022 55.1576 49.6198C56.4859 52.5374 58.4725 57.5779 57.8103 59.9618C57.1481 62.3496 11.2652 60.3591 10.7355 59.9618C10.2057 59.5645 12.3286 52.1361 14.5801 49.3549C16.8316 46.5736 13.7855 33.3101 13.7855 33.3101C13.7855 33.3101 11.9274 37.4197 10.3381 37.817C8.74885 38.2143 2.11904 35.2967 -0.00390625 30.2601Z" fill="#5B28DB"/>
<mask id="mask0_990_10076" style="mask-type:luminance" maskUnits="userSpaceOnUse" x="-1" y="10" width="71" height="52">
<path d="M-0.00390625 30.2601C-0.00390625 30.2601 6.36103 18.06 14.4516 13.5492C22.5421 9.03845 28.3734 10.7641 28.3734 10.7641C28.3734 10.7641 34.6059 18.8702 41.8979 10.4408C41.8979 10.4408 53.171 9.96943 58.34 15.8046C63.5091 21.6398 70.4077 28.5345 69.0794 31.0547C67.755 33.575 60.9888 38.2143 58.4725 37.1548C58.4725 37.1548 55.6873 34.2372 55.6873 33.4426C55.6873 33.4426 53.8293 46.7022 55.1576 49.6198C56.4859 52.5374 58.4725 57.5779 57.8103 59.9618C57.1481 62.3496 11.2652 60.3591 10.7355 59.9618C10.2057 59.5645 12.3286 52.1361 14.5801 49.3549C16.8316 46.5736 13.7855 33.3101 13.7855 33.3101C13.7855 33.3101 11.9274 37.4197 10.3381 37.817C8.74885 38.2143 2.11904 35.2967 -0.00390625 30.2601Z" fill="white"/>
</mask>
<g mask="url(#mask0_990_10076)">
<path d="M65.287 15.084H3.35938V22.5084H65.287V15.084Z" fill="#5B28DB"/>
<path d="M67.2792 43.1973H5.35156V53.8042H67.2792V43.1973Z" fill="#5B28DB"/>
<path d="M84.1156 26.3574H-1.29688V31.6628H84.1156V26.3574Z" fill="#5B28DB"/>
<path d="M81.1976 35.7773H-4.21484V38.5625H81.1976V35.7773Z" fill="#5B28DB"/>
</g>
<path d="M34.5039 26.3906C32.5708 33.3901 31.0042 34.9575 24.0039 36.8906C31.0034 38.8237 32.5708 40.3904 34.5039 47.3906C36.437 40.3911 38.0037 38.8237 45.0039 36.8906C38.0044 34.9575 36.437 33.3909 34.5039 26.3906Z" fill="#FFF17D"/>
</g>
<defs>
<clipPath id="clip0_990_10076">
<rect width="69.3006" height="76.0071" fill="white"/>
</clipPath>
</defs>
</svg>
