<svg width="70" height="51" viewBox="0 0 70 51" fill="none" xmlns="http://www.w3.org/2000/svg">
<g clip-path="url(#clip0_1049_7362)">
<path d="M0 19.9494C0 19.9494 6.43343 7.67368 14.6111 3.13495C22.7887 -1.40378 28.6827 0.332536 28.6827 0.332536C28.6827 0.332536 34.9823 8.48893 42.3528 0.00722055C42.3528 0.00722055 53.7471 -0.467034 58.9718 5.40432C64.1965 11.2757 71.1694 18.2131 69.8268 20.749C68.4881 23.2849 61.6491 27.953 59.1057 26.8869C59.1057 26.8869 56.2906 23.9512 56.2906 23.1516C56.2906 23.1516 54.4125 36.4935 55.7551 39.4291C57.0977 42.3648 59.1057 47.4366 58.4364 49.8353C57.767 52.2379 11.3904 50.2351 10.8549 49.8353C10.3195 49.4355 12.4653 41.9611 14.741 39.1626C17.0167 36.3641 13.9378 23.0184 13.9378 23.0184C13.9378 23.0184 12.0597 27.1534 10.4533 27.5532C8.84695 27.953 2.14579 25.0173 0 19.9494Z" fill="#C0BCB3"/>
<path d="M15.5106 31.6396C15.5106 31.6396 44.587 29.5035 55.4144 32.6116L55.757 39.4315C55.757 39.4315 31.0233 37.2758 14.6602 38.7377C14.6602 38.7377 15.3216 33.6385 15.5067 31.6396H15.5106Z" fill="#B5A98C"/>
<path d="M56.1739 39.8617L55.7251 39.8225C55.477 39.8029 30.8379 37.6864 14.6992 39.1288L14.2109 39.1719L14.2739 38.6859C14.2818 38.6349 14.9354 33.571 15.1204 31.6034L15.1519 31.2742L15.4827 31.2507C16.6717 31.1644 44.752 29.1459 55.5243 32.2344L55.796 32.3128L56.1779 39.8617H56.1739ZM28.1015 37.8393C40.4526 37.8393 52.8549 38.7995 55.3471 39.0033L55.04 32.9125C44.8268 30.1415 19.0931 31.7876 15.8724 32.0071C15.6953 33.7513 15.2779 37.0632 15.1165 38.3018C19.1167 37.9647 23.6052 37.8393 28.1015 37.8393Z" fill="black"/>
<path d="M41.6937 25.1602H27.0078V36.6481H41.6937V25.1602Z" fill="#FAEDD3"/>
<path d="M42.0866 37.0394H26.6133V24.7676H42.0866V37.0394ZM27.4007 36.2555H41.2991V25.5515H27.4007V36.2555Z" fill="black"/>
<path d="M33.3098 26.916H29.1836V34.7745H33.3098V26.916Z" fill="#5C8FAD"/>
<path d="M33.7027 35.1658H28.7891V26.5234H33.7027V35.1658ZM29.5765 34.382H32.9153V27.3073H29.5765V34.382Z" fill="black"/>
<path d="M37.5121 30.1959C38.3601 30.1959 39.0476 29.5115 39.0476 28.6673C39.0476 27.823 38.3601 27.1387 37.5121 27.1387C36.664 27.1387 35.9766 27.823 35.9766 28.6673C35.9766 29.5115 36.664 30.1959 37.5121 30.1959Z" fill="#FFE600"/>
<path d="M37.5152 30.5872C36.4521 30.5872 35.5859 29.7249 35.5859 28.6666C35.5859 27.6084 36.4521 26.7461 37.5152 26.7461C38.5782 26.7461 39.4444 27.6084 39.4444 28.6666C39.4444 29.7249 38.5782 30.5872 37.5152 30.5872ZM37.5152 27.53C36.8852 27.53 36.3734 28.0395 36.3734 28.6666C36.3734 29.2937 36.8852 29.8033 37.5152 29.8033C38.1451 29.8033 38.657 29.2937 38.657 28.6666C38.657 28.0395 38.1451 27.53 37.5152 27.53Z" fill="black"/>
<path d="M37.5121 34.6334C38.3601 34.6334 39.0476 33.949 39.0476 33.1048C39.0476 32.2605 38.3601 31.5762 37.5121 31.5762C36.664 31.5762 35.9766 32.2605 35.9766 33.1048C35.9766 33.949 36.664 34.6334 37.5121 34.6334Z" fill="#E50000"/>
<path d="M37.5152 35.0247C36.4521 35.0247 35.5859 34.1624 35.5859 33.1041C35.5859 32.0459 36.4521 31.1836 37.5152 31.1836C38.5782 31.1836 39.4444 32.0459 39.4444 33.1041C39.4444 34.1624 38.5782 35.0247 37.5152 35.0247ZM37.5152 31.9714C36.8852 31.9714 36.3734 32.4809 36.3734 33.108C36.3734 33.7352 36.8852 34.2447 37.5152 34.2447C38.1451 34.2447 38.657 33.7352 38.657 33.108C38.657 32.4809 38.1451 31.9714 37.5152 31.9714Z" fill="black"/>
</g>
<defs>
<clipPath id="clip0_1049_7362">
<rect width="70" height="51" fill="white"/>
</clipPath>
</defs>
</svg>
