<svg width="62" height="45" viewBox="0 0 62 45" fill="none" xmlns="http://www.w3.org/2000/svg">
<g clip-path="url(#clip0_1049_7388)">
<path d="M62.0003 17.4077C61.9968 17.8754 61.7519 18.3047 61.4964 18.6957C59.8712 21.174 57.3801 23.0903 54.5448 24.0432C54.0835 24.1968 53.6009 24.3294 53.1112 24.312C51.2376 24.2456 50.1979 22.2037 49.5592 20.4689C48.4378 24.8565 47.32 29.4954 48.6223 33.8307C49.6976 37.4015 52.3696 40.5953 52.2525 44.3162C45.088 44.7735 37.9093 45.0039 30.7306 45.0004C30.4929 45.0004 30.2551 45.0004 30.0174 44.9969C23.2503 44.9864 16.4868 44.77 9.73395 44.3441C9.62395 40.6232 12.296 37.4329 13.3677 33.8621C14.6664 29.5303 13.5451 24.8949 12.4237 20.5108C11.7956 22.2421 10.7701 24.2771 8.90359 24.3504C8.41745 24.3678 7.93839 24.2387 7.47708 24.0851C4.64535 23.1461 2.15073 21.2508 0.51131 18.7934C0.24517 18.392 -0.0103242 17.9452 0.000321442 17.4635C0.0145156 17.0551 0.213234 16.6816 0.4155 16.3256C4.67019 8.85237 11.2669 2.10516 19.8757 0.40876C20.1454 0.356402 20.4186 0.307535 20.6918 0.265648C21.728 0.101593 22.7926 0.0108389 23.8855 0.000367292C24.4178 -0.00312324 24.9678 0.0143294 25.454 0.227252C26.1211 0.523948 26.5682 1.14177 27.0934 1.63743C27.9308 2.43327 29.0344 2.90798 30.1877 3.04761C30.2196 3.05459 30.2516 3.05808 30.2835 3.05808C30.39 3.07204 30.5 3.08251 30.6064 3.086C30.7342 3.09647 30.8584 3.09647 30.9861 3.09647C31.0748 3.09647 31.1636 3.09298 31.2523 3.086C31.3836 3.086 31.5149 3.06855 31.6426 3.05459C32.5617 2.94638 33.4488 2.62176 34.194 2.07375C34.8895 1.56413 35.4679 0.886964 36.2415 0.513476C36.8093 0.237724 37.448 0.139989 38.0796 0.0876307C39.0236 0.00734837 39.9639 0.0143294 40.8972 0.101593C41.1846 0.129517 41.472 0.160932 41.7559 0.202818C45.4251 0.73338 48.9382 2.45771 51.8551 4.75797C52.7103 5.43513 53.5193 6.15767 54.2929 6.91512C57.0288 9.60632 59.2963 12.7618 61.4113 15.9626C61.7022 16.4059 62.0039 16.8806 62.0003 17.4077Z" fill="#DECDA8"/>
<path d="M34.8956 30.8248H26.3826C23.8383 30.8248 21.7695 28.7898 21.7695 26.2871V25.4459C21.7695 22.9432 23.8383 20.9082 26.3826 20.9082H34.8956C37.4399 20.9082 39.5087 22.9432 39.5087 25.4459V26.2871C39.5087 28.7898 37.4399 30.8248 34.8956 30.8248ZM26.3862 21.6063C24.2322 21.6063 22.4828 23.3271 22.4828 25.4459V26.2871C22.4828 28.4059 24.2322 30.1267 26.3862 30.1267H34.8991C37.0531 30.1267 38.8025 28.4059 38.8025 26.2871V25.4459C38.8025 23.3271 37.0531 21.6063 34.8991 21.6063H26.3862Z" fill="black"/>
<path d="M35.3273 23.3027H26.4844V26.4198H35.3273V23.3027Z" fill="#F97600"/>
<path d="M35.6816 26.7683H26.1289V22.9531H35.6816V26.7683ZM26.8386 26.0702H34.9719V23.6512H26.8386V26.0702Z" fill="black"/>
</g>
<defs>
<clipPath id="clip0_1049_7388">
<rect width="62" height="45" fill="white"/>
</clipPath>
</defs>
</svg>
