<svg width="168" height="212" viewBox="0 0 168 212" fill="none" xmlns="http://www.w3.org/2000/svg">
<g clip-path="url(#clip0_862_15977)">
<path d="M115.727 182.484C94.3979 193.917 67.7852 186.02 56.2864 164.846C44.7876 143.672 52.757 117.239 74.0865 105.806C95.416 94.3724 122.029 102.269 133.527 123.443C145.026 144.617 137.057 171.05 115.727 182.484Z" fill="#C1892C"/>
<path d="M122.222 180.835C100.655 192.396 73.7469 184.412 62.1202 163.002C50.4936 141.593 58.5516 114.866 80.1182 103.305C101.685 91.7449 128.593 99.7292 140.22 121.139C151.846 142.548 143.789 169.275 122.222 180.835Z" fill="#FFC905"/>
<mask id="mask0_862_15977" style="mask-type:luminance" maskUnits="userSpaceOnUse" x="56" y="98" width="90" height="89">
<path d="M122.222 180.834C100.655 192.394 73.7469 184.41 62.1202 163C50.4936 141.591 58.5516 114.864 80.1182 103.303C101.685 91.743 128.593 99.7272 140.22 121.137C151.846 142.546 143.789 169.273 122.222 180.834Z" fill="white"/>
</mask>
<g mask="url(#mask0_862_15977)">
<path d="M147.618 154.814L148.34 145.262L70.7816 104.702L60.1531 123.558L147.618 154.814Z" fill="#FDE396"/>
<path d="M148.926 171.839L149.525 162.577L56.5721 143.424L52.83 161.279L148.926 171.839Z" fill="#FDE396"/>
</g>
<path d="M69.2701 159.17C74.0305 167.732 82.2008 174.095 91.7038 176.644C116.802 183.398 141.224 163.53 139.114 137.702C136.745 111.377 107.843 95.8702 84.3503 108.383C65.9796 118.086 59.1492 141.141 69.2697 159.169L69.2701 159.17ZM71.8451 157.789C63.0321 141.288 69.4664 120.337 86.0356 111.486C107.816 99.8079 134.36 113.473 137.295 137.888C138.869 150.678 133.03 163.596 122.192 170.764C104.822 182.351 81.4784 176.039 71.8444 157.79L71.8451 157.789Z" fill="#C1892C"/>
<path d="M121.358 148.596C121.358 148.596 133.167 148.408 130.023 134.967C127.46 126.166 114.677 116.06 99.1018 122.576C83.5267 129.092 73.7596 140.694 77.7334 153.622C81.7073 166.55 95.8802 167.653 100.135 161.206C100.156 161.244 99.2807 166.434 102.401 167.42C105.521 168.406 108.808 165.361 107.82 158.695C107.82 158.695 111.378 165.587 115.782 162.219C120.185 158.851 116.281 153.702 115.909 153.442C115.909 153.442 120.943 160.415 124.875 155.328C128.807 150.241 121.357 148.597 121.357 148.597L121.358 148.596Z" fill="#D78F20"/>
<path d="M121.385 146.084C121.385 146.084 133.194 145.896 130.051 132.455C127.487 123.655 114.704 113.548 99.1292 120.064C83.554 126.58 73.7869 138.182 77.7608 151.11C81.7346 164.038 95.9075 165.141 100.162 158.694C100.183 158.732 99.308 163.923 102.428 164.908C105.549 165.894 108.835 162.849 107.847 156.183C107.847 156.183 111.406 163.075 115.809 159.707C120.212 156.339 116.308 151.19 115.937 150.931C115.937 150.931 120.97 157.903 124.902 152.816C128.834 147.73 121.385 146.085 121.385 146.085L121.385 146.084Z" fill="#F8AE1B"/>
<path d="M118.688 138.042C115.237 139.891 110.932 138.614 109.072 135.188C107.211 131.763 108.501 127.486 111.951 125.637C115.402 123.787 119.707 125.064 121.568 128.49C123.428 131.915 122.139 136.192 118.688 138.042Z" fill="#D78F20"/>
<path d="M118.356 138.69C114.905 140.54 110.6 139.262 108.739 135.837C106.879 132.411 108.168 128.135 111.619 126.285C115.07 124.435 119.375 125.713 121.236 129.138C123.096 132.564 121.807 136.84 118.356 138.69Z" fill="#996929"/>
<path d="M93.9379 151.544C90.4872 153.393 86.1818 152.116 84.3215 148.69C82.4612 145.265 83.7505 140.988 87.2012 139.139C90.6519 137.289 94.9573 138.566 96.8175 141.992C98.6778 145.417 97.3885 149.694 93.9379 151.544Z" fill="#D78F20"/>
<path d="M93.6058 152.192C90.1551 154.042 85.8497 152.764 83.9895 149.339C82.1292 145.913 83.4185 141.637 86.8692 139.787C90.3199 137.937 94.6252 139.215 96.4855 142.64C98.3458 146.066 97.0565 150.342 93.6058 152.192Z" fill="#996929"/>
<path d="M101.938 147.174C101.045 147.34 100.112 146.366 99.8537 144.997C99.5958 143.629 100.111 142.385 101.004 142.218C101.897 142.051 102.83 143.026 103.088 144.394C103.346 145.763 102.831 147.007 101.938 147.174Z" fill="#D78F20"/>
<path d="M101.707 147.711C100.814 147.877 99.8811 146.903 99.6232 145.534C99.3653 144.166 99.8803 142.922 100.773 142.755C101.667 142.589 102.6 143.563 102.858 144.931C103.115 146.3 102.601 147.544 101.707 147.711Z" fill="#996929"/>
<path d="M106.408 142.978C105.399 142.012 105.091 140.702 105.722 140.052C106.352 139.402 107.682 139.658 108.692 140.623C109.701 141.589 110.008 142.899 109.378 143.549C108.747 144.199 107.418 143.943 106.408 142.978Z" fill="#D78F20"/>
<path d="M105.83 142.876C104.821 141.911 104.513 140.601 105.144 139.951C105.774 139.301 107.104 139.556 108.113 140.522C109.123 141.487 109.43 142.797 108.8 143.447C108.169 144.097 106.84 143.842 105.83 142.876Z" fill="#996929"/>
</g>
<g clip-path="url(#clip1_862_15977)">
<path d="M44.2367 89.8013C29.4341 93.6156 14.2906 84.7772 10.4128 70.0602C6.53492 55.3432 15.3911 40.3207 30.1937 36.5064C44.9963 32.6921 60.1397 41.5305 64.0176 56.2475C67.8954 70.9645 59.0392 85.987 44.2367 89.8013Z" fill="#C1892C"/>
<path d="M48.4659 89.7635C33.4988 93.6202 18.187 84.6835 14.2661 69.8029C10.3451 54.9224 19.2998 39.7328 34.2669 35.8761C49.234 32.0194 64.5458 40.956 68.4667 55.8366C72.3877 70.7172 63.433 85.9068 48.4659 89.7635Z" fill="#FFC905"/>
<mask id="mask1_862_15977" style="mask-type:luminance" maskUnits="userSpaceOnUse" x="13" y="34" width="57" height="57">
<path d="M48.4659 89.7635C33.4988 93.6202 18.187 84.6835 14.2661 69.8029C10.3451 54.9224 19.2998 39.7328 34.2669 35.8761C49.234 32.0194 64.5458 40.956 68.4667 55.8366C72.3877 70.7172 63.433 85.9068 48.4659 89.7635Z" fill="white"/>
</mask>
<g mask="url(#mask1_862_15977)">
<path d="M67.9539 77.6092L69.8302 71.8563L28.3301 35.3326L18.9793 45.3071L67.9539 77.6092Z" fill="#FDE396"/>
<path d="M66.2028 88.2507L67.9603 82.6575L13.8021 56.9579L8.82684 67.3514L66.2028 88.2507Z" fill="#FDE396"/>
</g>
<path d="M19.2265 68.5255C20.8624 74.4935 24.9206 79.6233 30.3687 82.6137C44.7542 90.5235 62.72 81.9978 65.3015 65.8346C67.7979 49.327 52.3919 35.4758 36.1 39.6279C23.3726 42.8244 15.7222 55.9449 19.2264 68.525L19.2265 68.5255ZM21.0135 68.065C18.0824 56.618 25.174 44.7292 36.6684 41.7849C51.7844 37.8877 66.02 50.2552 64.1572 65.6754C63.2039 73.7591 57.6829 80.8092 49.9577 83.5805C37.5609 88.0834 24.1856 80.7079 21.0131 68.0651L21.0135 68.065Z" fill="#C1892C"/>
<path d="M52.7756 69.8542C52.7756 69.8542 60.0494 71.5109 60.1375 62.7926C59.8854 57.0082 53.5588 48.8891 43.0248 50.5499C32.4907 52.2106 24.7571 57.8633 25.2553 66.3918C25.7535 74.9204 34.2839 77.7238 37.8618 74.4066C37.8688 74.4332 36.5532 77.4864 38.3198 78.5595C40.0864 79.6327 42.5598 78.2575 42.9539 74.0192C42.9539 74.0192 44.1029 78.7819 47.31 77.3761C50.517 75.9703 48.8944 72.2253 48.7054 72.0103C48.7054 72.0103 50.7474 77.0435 53.9231 74.5126C57.0989 71.9817 52.7752 69.8548 52.7752 69.8548L52.7756 69.8542Z" fill="#D78F20"/>
<path d="M53.1701 68.3171C53.1701 68.3171 60.4439 69.9737 60.532 61.2555C60.2799 55.4711 53.9533 47.352 43.4193 49.0127C32.8853 50.6735 25.1516 56.3262 25.6498 64.8547C26.1481 73.3833 34.6785 76.1867 38.2564 72.8695C38.2634 72.8961 36.9477 75.9492 38.7143 77.0224C40.4809 78.0956 42.9544 76.7204 43.3484 72.4821C43.3484 72.4821 44.4975 77.2448 47.7045 75.839C50.9115 74.4331 49.289 70.6882 49.1 70.4732C49.1 70.4732 51.1419 75.5064 54.3177 72.9755C57.4934 70.4445 53.1698 68.3177 53.1698 68.3177L53.1701 68.3171Z" fill="#F8AE1B"/>
<path d="M52.7209 62.978C50.3262 63.5951 47.8763 62.1652 47.2489 59.7843C46.6216 57.4034 48.0543 54.973 50.4491 54.356C52.8438 53.7389 55.2937 55.1688 55.9211 57.5497C56.5485 59.9306 55.1157 62.3609 52.7209 62.978Z" fill="#D78F20"/>
<path d="M52.4202 63.3257C50.0254 63.9428 47.5755 62.5129 46.9481 60.132C46.3208 57.7511 47.7535 55.3207 50.1483 54.7036C52.543 54.0865 54.993 55.5164 55.6203 57.8973C56.2477 60.2783 54.8149 62.7086 52.4202 63.3257Z" fill="#996929"/>
<path d="M35.5061 67.5483C33.1113 68.1654 30.6614 66.7355 30.0341 64.3546C29.4067 61.9737 30.8395 59.5434 33.2342 58.9263C35.629 58.3092 38.0789 59.7391 38.7062 62.12C39.3336 64.5009 37.9009 66.9313 35.5061 67.5483Z" fill="#D78F20"/>
<path d="M35.2053 67.896C32.8106 68.5131 30.3606 67.0832 29.7333 64.7023C29.1059 62.3214 30.5387 59.891 32.9334 59.2739C35.3282 58.6569 37.7781 60.0867 38.4055 62.4676C39.0328 64.8486 37.6001 67.2789 35.2053 67.896Z" fill="#996929"/>
<path d="M41.0732 66.0687C40.5002 66.0369 40.0739 65.2991 40.121 64.4208C40.1681 63.5425 40.6708 62.8562 41.2438 62.8881C41.8167 62.9199 42.2431 63.6577 42.196 64.536C42.1488 65.4143 41.6462 66.1005 41.0732 66.0687Z" fill="#D78F20"/>
<path d="M40.8505 66.3636C40.2775 66.3318 39.8512 65.594 39.8983 64.7157C39.9454 63.8374 40.4481 63.1512 41.0211 63.183C41.5941 63.2148 42.0204 63.9526 41.9733 64.8309C41.9262 65.7092 41.4235 66.3955 40.8505 66.3636Z" fill="#996929"/>
<path d="M44.4451 64.1636C43.9705 63.4197 43.9785 62.57 44.463 62.2657C44.9474 61.9614 45.7248 62.3178 46.1993 63.0616C46.6739 63.8055 46.6659 64.6553 46.1815 64.9596C45.697 65.2638 44.9196 64.9075 44.4451 64.1636Z" fill="#D78F20"/>
<path d="M44.1052 64.0132C43.6307 63.2693 43.6387 62.4196 44.1231 62.1153C44.6075 61.811 45.3849 62.1674 45.8595 62.9113C46.334 63.6551 46.326 64.5049 45.8416 64.8092C45.3572 65.1135 44.5798 64.7571 44.1052 64.0132Z" fill="#996929"/>
</g>
<g clip-path="url(#clip2_862_15977)">
<path d="M100.634 56.0405C89.3699 50.8884 84.3474 37.5981 89.4158 26.3557C94.4841 15.1133 107.724 10.176 118.988 15.3281C130.252 20.4801 135.274 33.7704 130.206 45.0128C125.137 56.2552 111.898 61.1925 100.634 56.0405Z" fill="#C1892C"/>
<path d="M103.312 58.1764C91.9233 52.9671 86.8451 39.5291 91.9698 28.1617C97.0944 16.7943 110.481 11.8022 121.871 17.0115C133.26 22.2208 138.338 35.6588 133.213 47.0262C128.088 58.3936 114.701 63.3857 103.312 58.1764Z" fill="#FFC905"/>
<mask id="mask2_862_15977" style="mask-type:luminance" maskUnits="userSpaceOnUse" x="89" y="14" width="47" height="47">
<path d="M103.312 58.1764C91.9233 52.9671 86.8451 39.5291 91.9698 28.1617C97.0944 16.7943 110.481 11.8022 121.871 17.0115C133.26 22.2208 138.338 35.6588 133.213 47.0262C128.088 58.3936 114.701 63.3857 103.312 58.1764Z" fill="white"/>
</mask>
<g mask="url(#mask2_862_15977)">
<path d="M121.781 60.4699L125.898 57.8061L118.411 13.6405L107.436 15.1479L121.781 60.4699Z" fill="#FDE396"/>
<path d="M115.248 66.2742L119.208 63.6503L98.2304 19.8393L89.7955 23.843L115.248 66.2742Z" fill="#FDE396"/>
</g>
<path d="M95.7462 29.8897C93.7307 34.481 93.6678 39.7807 95.5712 44.4429C100.59 56.762 116.249 60.5624 126.122 51.7055C136.116 42.5885 133.486 26.0088 121.112 20.3095C111.47 15.8274 99.9595 20.1827 95.7463 29.8893L95.7462 29.8897ZM97.106 30.5117C101.102 21.8106 111.632 17.9456 120.369 21.9572C131.873 27.2171 134.523 42.2655 125.482 51.0214C120.758 55.6233 113.685 57.2441 107.408 55.0467C97.3076 51.5557 92.6516 40.0884 97.1056 30.5115L97.106 30.5117Z" fill="#C1892C"/>
<path d="M116.187 47.8428C116.187 47.8428 119.92 52.597 124.424 47.1542C127.217 43.3845 127.377 35.0458 119.899 30.7162C112.421 26.3866 104.668 25.9987 100.63 31.6213C96.5923 37.2438 100.531 43.3611 104.476 43.0987C104.467 43.119 102.081 44.3695 102.645 45.9464C103.21 47.5234 105.468 47.9198 107.879 45.453C107.879 45.453 106.172 49.0373 108.908 49.7887C111.644 50.5402 112.534 47.355 112.524 47.1232C112.524 47.1232 111.242 51.3333 114.532 51.3606C117.822 51.3879 116.186 47.843 116.186 47.843L116.187 47.8428Z" fill="#D78F20"/>
<path d="M117.218 47.0752C117.218 47.0752 120.951 51.8295 125.455 46.3866C128.248 42.6169 128.408 34.2782 120.93 29.9486C113.452 25.619 105.7 25.2311 101.662 30.8537C97.6236 36.4762 101.563 42.5935 105.507 42.3311C105.498 42.3514 103.112 43.6019 103.677 45.1789C104.241 46.7558 106.5 47.1522 108.91 44.6854C108.91 44.6854 107.203 48.2697 109.939 49.0211C112.675 49.7726 113.565 46.5874 113.556 46.3556C113.556 46.3556 112.273 50.5657 115.563 50.593C118.854 50.6203 117.217 47.0754 117.217 47.0754L117.218 47.0752Z" fill="#F8AE1B"/>
<path d="M119.661 43.4878C117.839 42.6543 117.026 40.5042 117.846 38.6854C118.666 36.8666 120.808 36.0679 122.63 36.9014C124.452 37.7348 125.265 39.885 124.445 41.7038C123.625 43.5226 121.483 44.3213 119.661 43.4878Z" fill="#D78F20"/>
<path d="M119.294 43.5523C117.471 42.7188 116.659 40.5687 117.479 38.7499C118.299 36.9311 120.441 36.1323 122.263 36.9658C124.085 37.7993 124.898 39.9494 124.078 41.7682C123.258 43.587 121.116 44.3858 119.294 43.5523Z" fill="#996929"/>
<path d="M106.493 37.5816C104.671 36.7481 103.858 34.598 104.678 32.7792C105.498 30.9604 107.64 30.1616 109.462 30.9951C111.284 31.8286 112.097 33.9787 111.277 35.7975C110.457 37.6163 108.315 38.415 106.493 37.5816Z" fill="#D78F20"/>
<path d="M106.126 37.646C104.303 36.8125 103.491 34.6624 104.311 32.8436C105.131 31.0248 107.273 30.2261 109.095 31.0596C110.917 31.8931 111.73 34.0432 110.91 35.862C110.09 37.6808 107.948 38.4795 106.126 37.646Z" fill="#996929"/>
<path d="M110.752 39.4904C110.407 39.178 110.515 38.496 110.993 37.9672C111.471 37.4384 112.137 37.263 112.482 37.5754C112.826 37.8877 112.718 38.5697 112.24 39.0985C111.763 39.6273 111.096 39.8028 110.752 39.4904Z" fill="#D78F20"/>
<path d="M110.459 39.5607C110.114 39.2483 110.222 38.5664 110.7 38.0375C111.178 37.5087 111.844 37.3333 112.189 37.6457C112.533 37.9581 112.425 38.64 111.947 39.1688C111.47 39.6977 110.803 39.8731 110.459 39.5607Z" fill="#996929"/>
<path d="M113.847 40.0107C113.928 39.3003 114.367 38.7695 114.827 38.8251C115.287 38.8808 115.594 39.5018 115.514 40.2122C115.433 40.9225 114.994 41.4533 114.534 41.3977C114.074 41.3421 113.766 40.7211 113.847 40.0107Z" fill="#D78F20"/>
<path d="M113.71 39.7431C113.791 39.0327 114.23 38.5019 114.69 38.5576C115.15 38.6132 115.458 39.2342 115.377 39.9446C115.296 40.655 114.857 41.1857 114.397 41.1301C113.937 41.0745 113.63 40.4535 113.71 39.7431Z" fill="#996929"/>
</g>
<defs>
<clipPath id="clip0_862_15977">
<rect width="94.6166" height="88.8706" fill="white" transform="matrix(-0.881365 0.472437 0.477231 0.878778 118.855 81.807)"/>
</clipPath>
<clipPath id="clip1_862_15977">
<rect width="59.7638" height="56.1344" fill="white" transform="matrix(-0.968368 0.249527 0.254798 0.966994 61.2617 28.5004)"/>
</clipPath>
<clipPath id="clip2_862_15977">
<rect width="48.4261" height="45.4852" fill="white" transform="matrix(-0.909388 -0.415949 -0.410989 0.91164 142.625 26.141)"/>
</clipPath>
</defs>
</svg>
