<svg width="72" height="87" viewBox="0 0 72 87" fill="none" xmlns="http://www.w3.org/2000/svg">
<g clip-path="url(#clip0_522_2490)">
<path d="M35.7765 80.5663C35.3395 80.5663 34.9844 80.2122 34.9844 79.7765V1.30344C34.9844 0.867753 35.3395 0.513672 35.7765 0.513672C36.2134 0.513672 36.5686 0.867753 36.5686 1.30344V79.7765C36.5686 80.2122 36.2134 80.5663 35.7765 80.5663Z" fill="#825440"/>
<path d="M53.9761 55.1422C53.9761 55.1422 70.6049 54.8289 71.0537 55.1422C71.5026 55.4554 71.6385 56.0162 71.5026 56.5085C71.4801 56.8889 67.1209 77.86 64.0872 80.2806C63.3453 81.356 58.4924 85.7919 54.986 86.0604C54.1094 86.3961 22.6276 88.2112 16.6287 85.6576C10.6299 83.1041 8.47147 78.2641 8.47147 78.2641C8.47147 78.2641 0 62.4015 0 62.2672C0 62.133 0.134656 60.9457 1.01124 60.8338C1.88783 60.7219 21.145 60.6771 21.347 60.8785C21.549 61.0799 27.7062 68.0036 29.594 68.8552C31.4819 69.7069 40.2002 70.1097 41.9534 68.5867C43.7066 67.0638 53.9748 55.1435 53.9748 55.1435L53.9761 55.1422Z" fill="#CC876A"/>
<mask id="mask0_522_2490" style="mask-type:luminance" maskUnits="userSpaceOnUse" x="0" y="55" width="72" height="32">
<path d="M53.9761 55.1422C53.9761 55.1422 70.6049 54.8289 71.0537 55.1422C71.5026 55.4554 71.6385 56.0162 71.5026 56.5085C71.4801 56.8889 67.1209 77.86 64.0872 80.2806C63.3453 81.356 58.4924 85.7919 54.986 86.0604C54.1094 86.3961 22.6276 88.2112 16.6287 85.6576C10.6299 83.1041 8.47147 78.2641 8.47147 78.2641C8.47147 78.2641 0 62.4015 0 62.2672C0 62.133 0.134656 60.9457 1.01124 60.8338C1.88783 60.7219 21.145 60.6771 21.347 60.8785C21.549 61.0799 27.7062 68.0036 29.594 68.8552C31.4819 69.7069 40.2002 70.1097 41.9534 68.5867C43.7066 67.0638 53.9748 55.1435 53.9748 55.1435L53.9761 55.1422Z" fill="white"/>
</mask>
<g mask="url(#mask0_522_2490)">
<path d="M75.7202 65.3594H-4.16406V67.2746H75.7202V65.3594Z" fill="#825440"/>
<path d="M77.7436 72.0127H-2.14062V73.9279H77.7436V72.0127Z" fill="#825440"/>
<path d="M81.7866 79.7764H1.90234V81.6916H81.7866V79.7764Z" fill="#825440"/>
<path d="M81.3803 57.8984H1.49609V59.8136H81.3803V57.8984Z" fill="#825440"/>
</g>
<path d="M10.3808 62.7432C8.25665 62.7432 6.53516 64.4596 6.53516 66.5762C6.53516 68.6928 8.25665 70.4105 10.3808 70.4105C12.5049 70.4105 14.2264 68.6941 14.2264 66.5762C14.2264 64.4583 12.5049 62.7432 10.3808 62.7432ZM10.3808 69.2877C8.87976 69.2877 7.66257 68.0741 7.66257 66.5775C7.66257 65.0809 8.87976 63.8673 10.3808 63.8673C11.8818 63.8673 13.099 65.0809 13.099 66.5775C13.099 68.0741 11.8818 69.2877 10.3808 69.2877Z" fill="white"/>
<path d="M10.3847 69.5575C12.0361 69.5575 13.3749 68.2227 13.3749 66.5761C13.3749 64.9295 12.0361 63.5947 10.3847 63.5947C8.73327 63.5947 7.39453 64.9295 7.39453 66.5761C7.39453 68.2227 8.73327 69.5575 10.3847 69.5575Z" fill="#571F10"/>
<path d="M19.5839 69.2881C17.4598 69.2881 15.7383 71.0045 15.7383 73.1211C15.7383 75.2377 17.4598 76.9555 19.5839 76.9555C21.708 76.9555 23.4295 75.239 23.4295 73.1211C23.4295 71.0032 21.708 69.2881 19.5839 69.2881ZM19.5839 75.8327C18.0829 75.8327 16.8657 74.619 16.8657 73.1224C16.8657 71.6258 18.0829 70.4122 19.5839 70.4122C21.0849 70.4122 22.3021 71.6258 22.3021 73.1224C22.3021 74.619 21.0849 75.8327 19.5839 75.8327Z" fill="white"/>
<path d="M19.5839 76.1024C21.2353 76.1024 22.5741 74.7676 22.5741 73.121C22.5741 71.4745 21.2353 70.1396 19.5839 70.1396C17.9325 70.1396 16.5938 71.4745 16.5938 73.121C16.5938 74.7676 17.9325 76.1024 19.5839 76.1024Z" fill="#571F10"/>
<path d="M61.412 56.9482C59.2879 56.9482 57.5664 58.6647 57.5664 60.7813C57.5664 62.8979 59.2879 64.6156 61.412 64.6156C63.5362 64.6156 65.2577 62.8992 65.2577 60.7813C65.2577 58.6634 63.5362 56.9482 61.412 56.9482ZM61.412 63.4928C59.911 63.4928 58.6938 62.2792 58.6938 60.7826C58.6938 59.286 59.911 58.0723 61.412 58.0723C62.9131 58.0723 64.1302 59.286 64.1302 60.7826C64.1302 62.2792 62.9131 63.4928 61.412 63.4928Z" fill="white"/>
<path d="M61.412 63.7636C63.0635 63.7636 64.4022 62.4287 64.4022 60.7822C64.4022 59.1356 63.0635 57.8008 61.412 57.8008C59.7606 57.8008 58.4219 59.1356 58.4219 60.7822C58.4219 62.4287 59.7606 63.7636 61.412 63.7636Z" fill="#571F10"/>
<path d="M58.937 47.7331C60.7166 46.9447 67.6395 28.6049 50.2345 12.4343C50.0365 11.4484 7.91016 16.7728 7.91016 16.7728C7.91016 16.7728 27.2928 40.0421 7.91016 52.0716" fill="black"/>
<path d="M35.7773 0.866409C35.7773 0.866409 37.3959 -1.08301 43.3947 0.866409C49.3935 2.81583 54.315 0.000292543 54.315 0.000292543C54.315 0.000292543 52.8998 3.42132 48.6529 4.83238C48.6529 4.83238 52.2252 6.31057 56.4049 5.16804C56.4049 5.16804 55.8557 7.4847 51.346 8.18365C49.239 8.51009 47.0858 8.33502 45.0449 7.72163C42.5854 6.98188 38.353 5.94201 36.5866 6.91607" fill="#CC2222"/>
<path d="M42.7159 29.4054C42.9456 29.3316 44.2103 28.8933 44.2539 28.8236C44.3832 28.6169 43.9212 27.968 44.4123 27.219C44.9034 26.4713 45.8486 26.2936 46.679 26.5108C48.0823 26.8794 47.31 28.3247 47.3813 28.4168C47.413 28.4576 48.1087 28.5985 48.3675 28.7775C50.0071 29.9055 47.7681 31.6641 45.9186 30.6558C45.6757 30.5229 45.5014 30.1359 45.2189 30.1385C45.0882 30.1398 42.9641 31.002 42.8017 31.1152C42.333 31.439 41.9581 33.3371 41.1594 33.7096C42.0584 33.9492 43.8829 35.3444 44.6578 35.4524C45.0988 35.5142 45.0037 35.1878 45.2981 35.0022C47.2216 33.7925 49.6058 36.2185 47.6031 37.3149C47.3787 37.4387 46.9892 37.4294 46.9655 37.4518C46.8005 37.6111 47.3378 38.8023 46.444 39.2591C45.0909 39.9501 43.2096 38.2784 44.1285 36.8819C43.5278 36.8582 40.7053 34.9311 40.4518 35.1865C40.5046 36.2369 39.5818 36.8726 38.6471 36.225C38.4874 36.1145 38.3105 35.7564 38.259 35.7538C38.1521 35.7499 37.892 36.5225 36.8742 36.2856C36.358 36.1658 36.3606 35.7367 36.1362 35.6116C36.0768 35.5774 35.8629 36.4462 35.0391 36.2948C34.0187 36.1079 34.288 34.9693 34.2272 34.9048C34.082 34.7547 31.546 35.7643 31.4641 35.8867C31.3044 36.1237 31.4549 36.7002 31.3651 37.0569C31.1024 38.0981 29.3202 38.2311 29.1446 37.0833C29.1024 36.8042 29.2067 36.1908 29.1169 36.0513C29.0601 35.9644 28.4053 35.9723 28.2931 35.247C28.1796 34.5073 28.474 33.9321 29.2423 33.807C30.4503 33.6096 30.6773 34.6257 30.7711 34.631C30.915 34.6402 33.3639 33.5674 33.3744 33.4253C32.7223 32.9541 32.3711 30.9902 32.0213 30.6874C31.9288 30.6071 30.8503 30.103 30.7539 30.1056C30.4463 30.1148 30.4806 30.4268 30.309 30.5387C29.3559 31.1534 27.8033 30.6084 28.173 29.3645C28.3129 28.8933 29.0707 28.7498 29.1143 28.6788C29.2476 28.4629 28.9994 27.5599 29.5209 27.1413C30.7222 26.1765 32.1968 27.6165 31.546 28.9736C32.5229 29.4685 32.4186 28.4352 32.7883 27.7574C35.1976 23.3452 41.9977 24.3534 42.7172 29.4054H42.7159ZM38.6603 30.9099C39.8934 32.134 41.5898 30.5374 40.5165 28.9881C39.3508 27.3059 37.1897 29.4488 38.6603 30.9099ZM34.7579 28.5945C33.4708 28.9354 33.4484 31.3969 34.8477 31.3771C36.5441 31.3535 36.7765 28.0588 34.7579 28.5945ZM36.4992 32.2196C36.8029 32.3775 37.1237 32.0063 37.2729 31.9971C37.4643 31.9853 37.8775 32.4631 38.1244 32.0919C38.391 30.0556 36.0887 30.4334 36.4992 32.2196Z" fill="#FEFEFE"/>
</g>
<defs>
<clipPath id="clip0_522_2490">
<rect width="71.5514" height="87" fill="white"/>
</clipPath>
</defs>
</svg>
