<svg width="41" height="45" viewBox="0 0 41 45" fill="none" xmlns="http://www.w3.org/2000/svg">
<path d="M2.80434 36.9351L5.84356 28.6804C1.61434 26.2887 -0.649101 21.5001 0.16242 16.7372C1.1983 10.6609 6.81102 6.46372 12.9267 7.2392C14.522 1.93213 20.0879 -1.07736 25.3587 0.356619C30.6296 1.7906 33.9085 7.11435 32.6588 12.5178C38.4359 14.0091 41.8432 19.9453 40.3094 25.6601C38.7756 31.3748 32.8942 34.7817 27.0901 33.2172L22.9713 44.3571L2.80434 36.9351ZM25.5168 29.7234L26.9371 30.3131C28.3283 30.9019 29.8336 31.0299 31.3057 30.78C35.7808 30.0028 38.7413 25.7044 37.8174 21.2712C37.0732 17.6985 34.0203 15.2664 30.3753 14.8627L29.0157 14.7097L29.8412 12.6296C31.4762 8.52714 28.7575 3.94363 24.4775 2.88463C20.5285 1.92163 16.4889 4.29117 15.424 8.23518C15.2299 8.96939 15.1824 9.6496 15.0165 10.4136C14.6267 10.345 14.2662 10.2627 13.9061 10.1659C9.45769 8.89927 4.83697 11.2965 3.24152 15.545C1.64607 19.7936 3.57411 24.6456 7.74228 26.6151L9.21931 27.2498L7.24438 32.648L22.3839 38.2221L25.5313 29.7238L25.5168 29.7234Z" fill="white"/>
</svg>
