<svg width="77" height="114" viewBox="0 0 77 114" fill="none" xmlns="http://www.w3.org/2000/svg">
<path d="M23.8818 30.162L28.2694 23.4471L29.9876 20.8111L41.9513 2.4821C43.3447 0.339709 45.9571 -0.588867 47.7849 0.388561L48.0186 0.511876C49.838 1.49471 50.2487 4.05934 48.9268 6.23903L39.9987 20.9671C38.6768 23.1468 39.255 25.8058 41.2888 26.9005C43.3227 27.9952 45.9819 27.0841 47.2324 24.8671L55.6685 9.87262C56.9189 7.65564 59.4106 6.65007 61.23 7.6329L61.4636 7.75622C63.283 8.73905 63.8174 11.3668 62.6439 13.6295L54.7189 28.9019C53.5454 31.1646 54.242 33.8784 56.2758 34.9732C58.3096 36.0679 60.8451 35.0935 61.9472 32.7936L69.3856 17.2631C70.4877 14.9631 72.861 13.9028 74.6804 14.8857L74.9141 15.009C76.7334 15.9918 77.3832 18.6882 76.361 21.02L67.5687 41.068L66.304 43.9477L63.0817 51.293C59.686 59.0346 50.9264 62.068 43.5113 58.0705L41.964 57.2338C41.9104 63.7211 39.6629 72.6032 35.3989 81.6392C28.0192 97.2983 10.3195 117.207 3.05279 113.292C-4.21393 109.378 2.61878 83.612 11.6886 68.8642C16.9257 60.3443 23.1309 53.5914 28.5328 49.9925C21.4525 45.887 19.3624 37.1159 23.8872 30.1704L23.8818 30.162Z" fill="#FFB801"/>
</svg>
