<svg width="47" height="70" viewBox="0 0 47 70" fill="none" xmlns="http://www.w3.org/2000/svg">
<g clip-path="url(#clip0_522_2946)">
<path d="M24.4183 69.5804C24.0483 69.5804 23.6783 69.5804 23.3083 69.5504C12.1683 68.9804 3.1683 59.7904 2.8183 48.6304C2.6283 42.5504 4.9883 36.6904 9.3183 32.4604C7.7983 29.5404 4.7183 27.1504 1.8483 25.1704C1.5783 24.9904 1.2883 24.8004 0.988304 24.6204C0.0683039 24.0604 -0.261696 22.9004 0.198304 21.9404L0.568304 21.1704C0.808304 20.6704 1.2383 20.2904 1.7583 20.1004C2.2883 19.9104 2.8583 19.9504 3.3683 20.2004C4.0183 20.5204 4.9483 21.0204 5.7583 21.4704C5.5683 17.6804 5.8683 9.2304 11.4583 4.0804C15.8883 0.0304031 22.5783 -1.0196 31.3583 0.990403L32.2583 1.1904L32.1283 2.1004C29.9383 17.7404 25.5983 19.3704 20.5683 21.2704C18.0483 22.2204 15.4483 23.2004 12.7583 26.2404C13.5283 27.0104 13.9283 27.6904 14.3983 28.5004C14.4383 28.5704 14.4783 28.6404 14.5283 28.7104C17.8583 26.9904 21.5683 26.1704 25.3483 26.3204C36.4283 26.7704 45.5283 35.7904 46.0683 46.8604C46.3683 52.9704 44.0583 58.9504 39.7383 63.2604C35.6783 67.3104 30.1483 69.5804 24.4283 69.5804H24.4183ZM2.4983 22.0104L2.3783 22.0504L2.0083 22.8204C2.0083 22.8204 2.0083 22.9004 2.0483 22.9304C2.3583 23.1204 2.6683 23.3204 2.9783 23.5204C6.2983 25.8104 9.8883 28.6304 11.4583 32.3004L11.7383 32.9504L11.2083 33.4304C6.9583 37.3104 4.6283 42.8204 4.8083 48.5704C5.1283 58.7004 13.2983 67.0404 23.4083 67.5504C28.9783 67.8404 34.3883 65.7504 38.3083 61.8404C42.2283 57.9304 44.3283 52.5004 44.0583 46.9504C43.5683 36.9104 35.3083 28.7204 25.2583 28.3104C21.5483 28.1604 17.8683 29.0604 14.6583 30.9104L13.8283 31.3904L13.3183 30.5804C13.0683 30.1804 12.8583 29.8304 12.6683 29.5104C12.0983 28.5404 11.7583 27.9504 10.7283 27.0904L9.9783 26.4604L10.5983 25.7004C13.8383 21.6604 17.0383 20.4604 19.8683 19.4004C24.3883 17.7004 27.9683 16.3504 30.0183 2.7504C22.3683 1.1704 16.5883 2.1204 12.8283 5.5704C6.3583 11.5104 7.8983 23.0204 7.9183 23.1404L8.1983 25.1604L6.4283 24.1504C6.4283 24.1504 3.8083 22.6504 2.4983 22.0204V22.0104Z" fill="black"/>
</g>
<defs>
<clipPath id="clip0_522_2946">
<rect width="46.09" height="69.58" fill="white"/>
</clipPath>
</defs>
</svg>
