<svg width="49" height="72" viewBox="0 0 49 72" fill="none" xmlns="http://www.w3.org/2000/svg">
<path d="M1.03627 67.388C1.18275 69.3416 1.73698 70.3427 2.40372 70.7019C3.06984 71.0606 4.20793 70.9724 5.91675 70.0189C7.56395 69.0996 9.46046 67.5256 11.4037 65.5235C15.2853 61.5244 19.1817 55.9962 21.4626 51.1565L21.4629 51.1551C24.1166 45.5314 25.4826 40.0644 25.5149 36.1535L25.5286 34.4921L26.9911 35.2823L27.9677 35.8111C32.1352 38.0574 37.0296 36.3663 38.9418 32.0067L40.9782 27.3662L40.9785 27.3649L41.7771 25.5466L47.3323 12.8792C47.8416 11.7172 47.4066 10.6585 46.8583 10.3623L46.7201 10.2898L46.7112 10.285L46.6166 10.2425C46.1193 10.055 45.2528 10.2767 44.7434 11.3395L44.7421 11.3392L40.043 21.1521C39.1444 23.0275 36.9572 23.9856 35.0838 22.9772C33.2404 21.9849 32.736 19.6328 33.6864 17.8002L38.6934 8.15053C39.2733 7.0322 38.8741 6.05796 38.3599 5.78018L38.2211 5.70681L38.2128 5.70288L38.1112 5.6567C37.5741 5.45524 36.6268 5.69739 36.0448 6.72927L36.0434 6.72898L30.7153 16.2019L30.715 16.2033C29.7025 17.9981 27.4562 18.8684 25.6147 17.8775C23.7397 16.8682 23.3396 14.5082 24.4182 12.7294L30.059 3.42357C30.7067 2.35574 30.3429 1.47058 29.874 1.20856L29.7259 1.12961L29.7216 1.12656L29.61 1.0775C29.0243 0.860003 27.9952 1.11532 27.3459 2.11334L27.3443 2.1144L19.7856 13.6949L18.7001 15.3608L18.6993 15.3613L16.2811 19.062L16.2843 19.0669L15.9309 19.6083C13.382 23.521 14.5569 28.417 18.5305 30.7211L19.9209 31.5275L18.583 32.4189C15.3264 34.5886 11.4983 38.7311 8.2384 44.0345C5.43652 48.5904 2.96377 54.8839 1.76402 60.3279C1.16343 63.0533 0.895122 65.5051 1.03627 67.388Z" stroke="black" stroke-width="2"/>
</svg>
