<svg width="643" height="521" viewBox="0 0 643 521" fill="none" xmlns="http://www.w3.org/2000/svg">
<g clip-path="url(#clip0_547_3704)">
<path d="M261.175 167.248L216.235 175.705L202.555 279.814L230.565 283.725L233.815 255.742H252.71L258.575 282.426L284.621 277.866L261.175 167.248ZM236.416 229.708L242.281 203.024L250.746 229.708H236.416Z" fill="black"/>
<path d="M157.067 155.402L165.603 304.352H194.334L185.021 155.402L225.397 153.073L224.619 126.699L132.223 128.252L133.777 157.732L157.067 155.402Z" fill="black"/>
<path d="M268.191 382.935L274.706 496.66H296.653L289.53 382.935L320.367 381.156L319.773 361.023L249.211 362.209L250.398 384.714L268.191 382.935Z" fill="black"/>
<path d="M293.449 335.725C293.449 335.725 293.52 335.725 293.548 335.725C294.099 335.754 299.54 336.036 299.54 336.078C299.512 338.493 299.498 340.991 300.416 343.222C300.656 343.801 300.967 344.38 301.49 344.733C302.041 345.1 302.734 345.171 303.398 345.128C304.599 345.058 305.843 344.606 306.606 343.674C307.341 342.77 307.525 341.514 307.369 340.342C307.087 338.196 305.659 336.248 303.709 335.316C301.603 334.313 299.06 334.483 297.01 333.382C294.862 332.224 293.59 329.81 293.378 327.381C293.166 324.953 293.887 322.525 294.919 320.322C296.148 317.696 298.042 315.126 300.699 313.842C303.568 312.458 307.171 312.726 309.828 314.463C311.877 315.804 313.333 318.035 313.602 320.463C313.913 323.428 312.499 326.308 310.846 328.793C309.221 327.974 307.595 327.155 305.97 326.351C306.634 325.32 307.327 324.261 307.624 323.075C307.92 321.889 307.793 320.506 306.959 319.588C305.659 318.148 303.2 318.458 301.702 319.687C300.501 320.689 299.738 322.157 299.399 323.668C299.116 324.911 298.89 326.944 299.738 328.017C300.091 328.468 300.656 328.708 301.208 328.864C303.582 329.57 306.535 329.485 308.627 331.024C310.563 332.464 311.849 334.666 312.584 336.939C313.672 340.356 313.602 344.352 311.496 347.246C309.602 349.858 306.309 351.213 303.087 351.284C301.08 351.326 299.003 350.79 297.561 349.321C294.41 346.088 293.506 340.215 293.336 335.909C293.336 335.852 293.336 335.796 293.364 335.768C293.378 335.754 293.407 335.739 293.421 335.739L293.449 335.725Z" fill="black"/>
<path d="M179.422 464.088C179.535 464.06 179.662 464.06 179.775 464.088C181.782 464.215 201.68 465.218 201.68 465.387C201.581 474.225 201.553 483.346 204.902 491.535C205.764 493.652 206.923 495.756 208.817 497.041C210.824 498.396 213.381 498.636 215.784 498.481C220.193 498.198 224.73 496.575 227.5 493.144C230.199 489.812 230.877 485.224 230.312 480.988C229.266 473.152 224.051 466.008 216.915 462.606C209.198 458.935 199.913 459.556 192.395 455.518C184.537 451.297 179.902 442.43 179.125 433.564C178.348 424.698 180.976 415.817 184.778 407.755C189.286 398.169 196.182 388.766 205.934 384.036C216.406 378.954 229.577 379.97 239.3 386.31C246.79 391.195 252.146 399.383 253.093 408.264C254.252 419.121 249.065 429.625 243.003 438.717C237.067 435.738 231.117 432.745 225.182 429.766C227.641 425.997 230.128 422.128 231.245 417.765C232.361 413.403 231.852 408.377 228.842 405.031C224.094 399.779 215.077 400.894 209.622 405.412C205.213 409.069 202.457 414.462 201.228 419.982C200.21 424.528 199.348 431.94 202.471 435.894C203.772 437.545 205.821 438.421 207.842 439.014C216.533 441.583 227.344 441.273 234.976 446.92C242.07 452.172 246.776 460.262 249.419 468.564C253.404 481.059 253.15 495.643 245.448 506.26C238.537 515.804 226.468 520.774 214.682 521.014C207.361 521.169 199.73 519.207 194.487 513.828C182.969 502.01 179.662 480.508 179.054 464.766C179.054 464.582 179.054 464.371 179.181 464.229C179.238 464.159 179.323 464.131 179.407 464.116L179.422 464.088Z" fill="black"/>
<path d="M253.749 304.453L253.41 347.797L279.88 346.625L279.244 338.521L262.313 339.679L262.851 304.75L253.749 304.453Z" fill="black"/>
<path d="M349.661 212.511C359.652 205.509 368.259 195.146 372.329 179.898C374.336 158.551 358.974 137.867 292.863 145.872L296.877 227.265H296.99L300.212 292.634C300.212 292.634 362.309 295.302 375.664 245.266C376.95 231.656 371.156 218.314 349.661 212.511ZM344.969 180.166C342.75 194.553 322.258 199.537 322.258 199.537L320.591 172.415C320.591 172.415 346.622 173.516 344.969 180.166ZM346.425 240.875C344.206 255.262 323.714 260.246 323.714 260.246L322.046 233.124C322.046 233.124 348.078 234.226 346.425 240.875Z" fill="black"/>
<path d="M391.765 135.926L383.149 304.676L480.242 309.778L481.437 281.716L412.112 277.68L420.197 135.752L391.765 135.926Z" fill="black"/>
<path d="M440.633 132.522L441.298 245.47L503.804 244.609L503.517 222.263L462.206 226.599L461.783 200.296L477.918 202.448L479.555 180.351L460.752 178.5L459.902 155.426L504.569 156.426L504.915 134.164L440.633 132.522Z" fill="black"/>
<path d="M275.077 304.312L272.547 333.749L288.856 335.019L289.308 329.188L278.44 329.329L278.963 322.468L283.118 323.414L284.065 317.696L279.217 316.778L279.542 310.735L291.145 312.063L291.767 306.274L275.077 304.312Z" fill="black"/>
<path d="M561.028 433.776C561.141 433.776 561.254 433.776 561.367 433.804C563.233 434.157 581.831 437.418 581.803 437.574C580.686 445.875 579.584 454.445 581.803 462.521C582.368 464.61 583.216 466.728 584.855 468.154C586.579 469.665 588.954 470.187 591.243 470.314C595.426 470.568 599.864 469.566 602.874 466.658C605.799 463.848 606.972 459.598 606.93 455.546C606.859 448.064 602.789 440.736 596.472 436.712C589.646 432.364 580.842 431.87 574.242 427.196C567.345 422.311 564.024 413.445 564.321 405.016C564.632 396.588 568.123 388.54 572.631 381.41C577.987 372.925 585.562 364.892 595.285 361.574C605.714 358.016 617.995 360.501 626.39 367.588C632.863 373.052 636.947 381.382 636.791 389.839C636.608 400.174 630.517 409.45 623.761 417.299C618.532 413.798 613.289 410.311 608.06 406.809C610.802 403.548 613.6 400.202 615.155 396.235C616.709 392.267 616.822 387.481 614.378 383.98C610.534 378.488 601.913 378.488 596.26 382.102C591.681 385.025 588.473 389.768 586.664 394.823C585.18 398.974 583.513 405.849 585.972 409.93C587.003 411.638 588.826 412.697 590.649 413.487C598.521 416.918 608.725 417.878 615.24 424.076C621.302 429.837 624.779 437.997 626.305 446.101C628.595 458.314 626.658 471.994 618.179 481.087C610.562 489.247 598.648 492.523 587.54 491.393C580.644 490.687 573.705 487.962 569.395 482.287C559.94 469.834 559.332 449.235 560.604 434.369C560.618 434.185 560.647 433.987 560.788 433.875C560.859 433.818 560.929 433.804 561.014 433.79L561.028 433.776Z" fill="black"/>
<path d="M501.468 328.098L502.836 430.405L559.469 429.222L559.045 408.984L521.662 413.18L521.097 389.354L535.722 391.2L537.051 371.178L520.014 369.618L519.074 348.719L559.552 349.328L559.718 329.163L501.468 328.098Z" fill="black"/>
<path d="M28.3069 385.124L30.1583 315.816L57.4053 318.019L54.918 387.849L72.4986 387.312L74.1803 319.741L99.7597 321.196L99.4064 387.157L117.467 387.835L116.761 411.709L97.3713 412.641L97.4985 473.972L70.7179 472.983L71.9615 415.295L53.2787 415.126L51.8654 468.705L27.2046 469.68L29.0983 411.483L0 410.241L0.18372 385.731L28.3069 385.124Z" fill="black"/>
<path d="M369.753 450.916C367.959 411.37 351.184 400.075 337.376 398.07C335.158 397.745 332.897 398 330.805 398.833C322.721 402.023 302.399 413.516 302.908 448.318C303.402 481.101 323.852 490.984 333.843 493.864C337.532 494.923 341.461 494.951 345.135 493.878C354.392 491.182 371.138 482.005 369.725 450.916H369.753ZM342.577 467.519C341.659 469.623 340.146 471.303 337.659 470.413C336.415 469.976 335.285 469.27 334.267 468.394C330.24 464.907 327.978 458.54 327.201 453.881C326.099 447.273 326.862 440.383 328.558 433.931C328.629 433.691 328.685 433.437 328.756 433.197C329.745 429.653 332.402 421.45 337.588 424.542C339.086 425.432 340.076 426.985 340.909 428.524C347.326 440.369 347.961 455.165 342.591 467.519H342.577Z" fill="black"/>
<path d="M516.083 467.992L516.111 467.921C498.29 460.735 479.918 453.196 466.563 439.388C472.188 435.237 478.11 431.453 483.225 426.695C488.341 421.937 492.652 415.979 494.022 409.132C494.941 404.543 494.503 399.771 493.429 395.225C492.298 390.411 490.39 385.639 486.914 382.109C483.367 378.495 478.491 376.49 473.587 375.205C461.674 372.085 449.237 372.791 437.112 374.104C434.045 374.443 420.93 374.259 419.319 376.688C418.471 377.958 422.273 394.463 421.693 394.519C426.074 394.011 430.484 393.884 434.893 394.11L446.778 496.031L466.761 494.76C465.786 483.988 464.797 473.202 463.822 462.429C477.813 472.453 492.086 482.604 508.395 488.111C510.953 481.404 513.511 474.712 516.069 468.006L516.083 467.992ZM459.978 415.753L456.996 393.249C456.996 393.249 471.453 394.943 474.421 398.345C477.403 401.748 470.167 414.483 459.964 415.753H459.978Z" fill="black"/>
<path d="M159.568 461.279L158.862 376.356L130.738 376.667L132.547 475.115L160.176 475.779L159.738 461.293L159.568 461.279Z" fill="black"/>
<path d="M411.972 482.103L411.279 397.195L383.156 397.491L384.965 495.939L412.594 496.603L412.156 482.117L411.972 482.103Z" fill="black"/>
<path d="M104.155 41.1694L79.0845 45.885L71.4531 103.982L87.0834 106.157L88.9065 90.5417H99.4492L102.714 105.423L117.256 102.881L104.169 41.1553L104.155 41.1694ZM90.348 76.0279L93.6125 61.147L98.3327 76.0279H90.3338H90.348Z" fill="black"/>
<path d="M100.892 18.7917L80.1599 0L70.875 7.70869L95.8609 29.79L105.174 22.4625L100.948 18.7493L100.892 18.7917Z" fill="black"/>
<path d="M391.693 364.2L373.529 365.549L390.679 368.53L378.275 377.57L394.951 376.282L392.54 389.936L401.326 378.478L408.53 384.778L405.036 376.323L416.245 380.66L407.576 369.624L417.744 363.766L403.192 364.54L407.475 353.405L398.817 360.409L395.821 345.163L396.135 361.953L383.95 355.203L391.693 364.2Z" fill="#FF8F01"/>
<g clip-path="url(#clip1_547_3704)">
<path d="M573.693 66.7669C573.31 66.5451 572.846 66.2071 572.938 66.0367L573.38 65.2253L573.892 64.2842C574.025 64.0435 573.596 63.581 573.447 63.2565L573.118 62.5371C573.029 62.3424 573.634 61.8448 573.793 61.98C574.303 62.4154 575.069 63.5378 575.438 64.2572L573.69 66.7642L573.693 66.7669Z" fill="black"/>
<path d="M513.084 100.886C513.26 101.816 513.009 103.196 511.852 102.782L511.914 100.094C511.916 99.9259 512.771 99.7014 512.828 99.8583C512.904 100.069 512.982 100.345 513.084 100.886Z" fill="black"/>
<path d="M600.065 69.9852C599.882 70.0204 599.434 69.3767 599.545 69.2577C599.655 69.1387 599.966 68.8142 600.125 68.7817L602.08 68.3977C602.234 68.368 602.566 68.6465 602.642 68.7845C602.744 68.9684 602.391 69.5363 602.186 69.5769L600.063 69.9879L600.065 69.9852Z" fill="black"/>
<path d="M511.463 60.422C510.888 60.7817 509.337 60.8331 508.676 60.6708C508.449 60.614 508.595 59.7107 508.824 59.6891L510.753 59.4998C510.918 59.4835 511.209 59.4781 511.314 59.4727C511.476 59.4646 511.606 60.3327 511.463 60.422Z" fill="black"/>
<path d="M510.075 106.757C509.913 106.922 509.096 106.855 509.039 106.633C508.982 106.411 509.087 105.989 509.26 105.827L510.56 104.615C510.687 104.496 511.2 104.467 511.372 104.494C511.602 104.529 511.561 105.251 511.402 105.413L510.075 106.76V106.757Z" fill="black"/>
<path d="M609.739 66.6774C609.585 66.7721 608.943 66.599 608.898 66.453C608.835 66.261 608.978 65.7985 609.165 65.6822L610.802 64.6491C610.991 64.5301 611.501 64.6626 611.663 64.7843C611.824 64.906 611.655 65.5037 611.487 65.6065L609.736 66.6829L609.739 66.6774Z" fill="black"/>
<path d="M576.628 61.8635C576.531 62.0609 575.98 62.4341 575.808 62.3584C575.592 62.2637 575.425 61.7147 575.527 61.4984L576.336 59.7567C576.42 59.5755 576.927 59.3456 577.121 59.3943C577.364 59.4538 577.521 60.065 577.41 60.2895L576.628 61.8662V61.8635Z" fill="black"/>
<path d="M493.097 94.2738C492.101 94.9337 491.759 93.9006 491.448 93.3002L491.009 92.4429C490.89 92.2103 491.311 91.5856 491.659 91.5288C492.26 92.1589 492.9 93.4138 493.097 94.2738Z" fill="black"/>
<path d="M570.506 70.1474C570.365 70.2664 569.64 70.069 569.597 69.8824C569.543 69.6471 569.699 69.2847 569.942 69.09L571.471 67.8594C571.596 67.7594 572.049 67.8757 572.127 68.0109C572.205 68.1461 572.227 68.7032 572.108 68.806L570.508 70.1474H570.506Z" fill="black"/>
<path d="M481.51 99.0795C481.394 99.2526 480.838 99.4554 480.698 99.3527C480.558 99.2499 480.38 98.6847 480.477 98.5413L481.691 96.7591C481.791 96.6131 482.373 96.5941 482.541 96.659C482.708 96.7239 482.748 97.2594 482.646 97.4082L481.507 99.0795H481.51Z" fill="black"/>
<path d="M492.897 90.6848C492.681 90.7307 492.206 90.5333 492.096 90.344C491.605 89.511 494.683 88.6862 495.155 89.5759C495.258 89.768 494.842 90.2629 494.629 90.3088L492.897 90.6848Z" fill="black"/>
<path d="M490.887 89.7084C489.957 90.6631 489.555 89.3569 489.309 88.7024C489.064 88.0479 488.783 87.0743 489.762 87.0283C490.191 87.5043 490.747 88.9079 490.887 89.7057V89.7084Z" fill="black"/>
<path d="M617.635 60.2705C617.514 60.4057 616.925 60.4977 616.753 60.4652C615.849 60.3057 618.237 57.3713 618.822 57.9474C618.954 58.0772 619.073 58.6586 618.949 58.7966L617.635 60.2705Z" fill="black"/>
<path d="M472.059 125.699C471.517 126.562 471.264 127.468 470.36 127.141C470.303 126.251 470.786 124.75 471.706 124.323C472.146 124.117 472.281 125.348 472.059 125.699Z" fill="black"/>
<path d="M479.216 103.396C479.17 103.49 478.903 103.685 478.822 103.75C478.7 103.85 478.093 103.455 478.139 103.304C478.387 102.503 478.762 100.927 479.636 100.735C479.841 100.689 480.192 101.394 480.103 101.576L479.216 103.396Z" fill="black"/>
<path d="M547.726 72.5029L545.994 71.9187C545.806 71.8538 545.441 71.367 545.498 71.175C545.746 70.3393 548.868 71.2831 548.538 72.2189C548.468 72.4163 547.98 72.5894 547.724 72.5029H547.726Z" fill="black"/>
<path d="M475.124 116.504C475.019 117.124 474.582 117.965 474.083 118.094C473.346 117.102 473.967 115.571 474.639 114.854C474.811 114.882 475.359 115.125 475.329 115.306L475.124 116.507V116.504Z" fill="black"/>
<path d="M504.588 61.823C504.335 61.9095 503.657 61.6878 503.66 61.4579C503.663 61.228 503.965 60.7196 504.186 60.6574L505.891 60.176C506.061 60.1273 506.53 60.2679 506.676 60.3626C506.87 60.4897 506.56 61.1577 506.336 61.2334L504.588 61.8203V61.823Z" fill="black"/>
<path d="M525.84 61.7905L523.722 61.3361C523.544 61.2982 523.25 60.7871 523.266 60.6086C523.288 60.3679 523.879 60.1678 524.113 60.2246L525.897 60.6465C526.05 60.6816 526.336 61.0251 526.412 61.1576C526.514 61.3334 526.031 61.8337 525.84 61.7905Z" fill="black"/>
<path d="M593.04 70.699C592.538 71.8727 588.573 71.5671 589.76 70.7017C590.512 70.1527 592.463 69.7659 593.04 70.699Z" fill="black"/>
<path d="M615.556 61.7227C615.761 62.7342 613.312 64.5353 613.093 63.8403C612.702 62.5881 615.413 61.0168 615.556 61.7227Z" fill="black"/>
<path d="M500.232 63.9025C500.067 64.0053 499.552 63.9999 499.403 63.9323C499.255 63.8647 499.104 63.2778 499.242 63.1913L501.168 61.9688C501.335 61.8634 501.861 61.977 502.004 62.1041C502.147 62.2312 501.985 62.8099 501.823 62.9127L500.232 63.9052V63.9025Z" fill="black"/>
<path d="M587.8 71.6375L585.326 71.4563C585.17 71.4455 584.841 71.0209 584.779 70.8749C584.32 69.8445 587.026 70.5585 587.727 70.5044L587.803 71.6375H587.8Z" fill="black"/>
<path d="M535.42 65.3606C534.686 66.0097 532.061 64.2112 532.668 63.6974C532.822 63.5676 533.367 63.4378 533.532 63.5405L535.215 64.5601C535.377 64.6575 535.56 65.2335 535.417 65.3606H535.42Z" fill="black"/>
<path d="M566.889 45.2284C567.01 45.8991 566.929 47.0539 566.32 46.8484C565.497 46.3481 565.286 44.6226 565.777 43.8275C566.409 43.5463 566.746 44.436 566.889 45.2284Z" fill="black"/>
<path d="M496.482 66.929C496.309 67.0858 495.813 67.2021 495.622 67.1508C495.43 67.0994 495.357 66.407 495.503 66.2745L497.186 64.7086C497.299 64.6032 497.985 64.8925 497.995 65.0494C498.012 65.2576 497.893 65.6498 497.739 65.7904L496.482 66.9317V66.929Z" fill="black"/>
<path d="M582.319 70.7665L580.433 70.0147C580.258 69.9444 579.956 69.4386 580.021 69.2601C580.085 69.0816 580.611 68.8058 580.787 68.8815L582.826 69.7578C582.937 69.8064 583.047 70.2446 583.091 70.3554C583.158 70.5231 582.505 70.8422 582.316 70.7665H582.319Z" fill="black"/>
<path d="M484.553 95.28C484.405 95.4125 484.03 95.4936 483.838 95.4909C483.647 95.4882 483.455 94.6688 483.604 94.5444L485.349 93.084C485.441 93.0082 485.934 93.1407 486.045 93.184C486.212 93.2516 486.212 93.8033 486.075 93.925L484.553 95.2773V95.28Z" fill="black"/>
<path d="M568.316 37.6666C568.216 37.7153 567.809 37.4989 567.809 37.3853C567.817 36.0358 570.336 35.3056 570.563 35.8032C570.66 36.0142 570.482 36.6227 570.266 36.7255L568.316 37.6666Z" fill="black"/>
<path d="M473.278 122.346C473.222 122.513 472.741 122.673 472.574 122.681C471.746 122.711 472.634 119.685 473.424 119.622C473.634 119.606 473.98 120.258 473.912 120.455L473.278 122.346Z" fill="black"/>
<path d="M493.463 70.8206C493.352 70.9855 492.656 71.2019 492.57 71.045C492.483 70.8882 492.351 70.4257 492.448 70.2743L493.514 68.6489C493.603 68.511 494.024 68.3487 494.177 68.3108C494.38 68.2594 494.709 68.9518 494.59 69.1276L493.463 70.8233V70.8206Z" fill="black"/>
<path d="M476.53 110.224C476.929 110.819 476.015 113.962 475.062 113.183C475.106 112.399 475.351 111.028 475.575 110.389C475.645 110.195 476.414 110.054 476.527 110.224H476.53Z" fill="black"/>
<path d="M543.59 70.7613C542.678 70.4963 540.328 69.3658 541.21 68.8087C541.394 68.6924 541.882 68.641 542.076 68.7519L543.822 69.7471C544.016 69.858 543.8 70.8208 543.59 70.7613Z" fill="black"/>
<path d="M539.172 68.2757L537.1 67.1047C536.925 67.0047 536.8 66.2961 536.949 66.1852C537.097 66.0743 537.526 65.9986 537.68 66.0933L539.352 67.1264C539.455 67.1886 539.647 67.5158 539.714 67.6132C539.816 67.7592 539.328 68.3623 539.172 68.273V68.2757Z" fill="black"/>
<path d="M478.031 106.422C477.968 107.244 477.521 108.445 476.719 108.394C476.107 107.669 476.9 106.049 477.351 105.44C477.445 105.313 478.106 105.419 478.095 105.576L478.031 106.419V106.422Z" fill="black"/>
<path d="M565.652 72.162C565.447 72.2106 564.926 71.5372 565.05 71.4209C565.174 71.3047 565.474 71.0423 565.633 70.9855L567.405 70.3338C567.616 70.2553 568.109 70.8476 568.125 71.1153C567.613 71.4994 566.377 71.9916 565.652 72.162Z" fill="black"/>
<path d="M579.744 38.3049C579.606 39.6923 576.334 36.3009 577.305 36.2279C578.422 36.117 579.549 37.0284 579.744 38.3049Z" fill="black"/>
<path d="M531.256 62.4532C531.002 62.9427 530.649 63.3483 530.444 63.2726L528.442 62.5235C528.31 62.4748 528.097 62.0691 528.021 61.9474C527.919 61.7852 528.669 61.3768 528.858 61.4552L531.256 62.4559V62.4532Z" fill="black"/>
<path d="M581.364 45.4258C581.367 45.7665 581.486 48.4953 580.641 48.2249C580.433 48.1573 580.031 47.7678 580.056 47.5569L580.274 45.6908C580.293 45.5204 580.541 45.1743 580.655 45.0472C580.768 44.92 581.361 45.2554 581.364 45.4258Z" fill="black"/>
<path d="M566.474 41.7506C566.395 41.9507 565.538 41.8723 565.543 41.6587C565.548 41.4044 565.543 38.4295 567.008 38.892C567.102 39.4464 566.733 41.1015 566.474 41.7506Z" fill="black"/>
<path d="M516.651 60.1001C515.756 60.7465 513.803 60.7844 513.301 59.9649C513.654 58.7831 517.485 59.497 516.651 60.1001Z" fill="black"/>
<path d="M499.27 102.006C498.655 102.319 498.156 102.446 497.965 102.238L496.675 100.851C496.567 100.734 496.408 100.145 496.567 100.104L497.449 99.8799L499.273 102.008L499.27 102.006Z" fill="black"/>
<path d="M491.298 75.1586C491.22 75.3371 490.82 75.6265 490.661 75.6292C490.448 75.6319 490.135 74.9964 490.216 74.7962L490.915 73.0789C490.993 72.8842 491.506 72.5813 491.711 72.6137C491.967 72.6543 492.134 73.279 492.026 73.5224L491.298 75.1559V75.1586Z" fill="black"/>
<path d="M489.935 80.0563C489.873 80.343 488.794 80.2105 488.837 79.9482C488.891 79.6345 489.288 76.354 490.111 77.241C490.221 77.36 490.442 77.6954 490.407 77.8522L489.932 80.0536L489.935 80.0563Z" fill="black"/>
<path d="M489.255 82.2066C489.711 82.8097 489.784 85.6683 488.856 85.2735C488.346 85.1626 488.244 83.7725 488.36 83.1911L488.524 82.3743C488.567 82.1634 489.128 82.0362 489.258 82.2066H489.255Z" fill="black"/>
<path d="M571.71 58.0368C571.6 57.8286 573.617 61.2849 572.288 60.6304C572.131 60.5547 571.683 60.3518 571.597 60.2058L570.715 58.7184C570.604 58.5345 570.677 58.0125 570.796 57.8286C570.914 57.6447 571.608 57.8421 571.713 58.0368H571.71Z" fill="black"/>
<path d="M578.625 57.3444C578.563 57.5094 578.126 57.8231 577.967 57.815C576.804 57.7555 578.431 53.9395 579.041 54.8076C579.146 54.9563 579.327 55.4432 579.262 55.6162L578.623 57.3417L578.625 57.3444Z" fill="black"/>
<path d="M570.5 55.6867L569.893 56.2141C569.771 56.3222 569.334 55.9409 569.264 55.7949L568.49 54.1884C568.428 54.0613 568.468 53.5934 568.495 53.4474C568.536 53.25 569.242 53.2148 569.337 53.4014L570.5 55.6867Z" fill="black"/>
<path d="M504.451 91.799L502.223 90.9985C502.069 90.9417 501.735 90.4441 501.829 90.3251C502.601 89.3434 505.139 90.8146 504.894 91.1662L504.451 91.799Z" fill="black"/>
<path d="M493.579 96.0859C493.849 94.7148 496.765 98.712 495.486 98.6498C495.313 98.6416 494.82 98.5362 494.723 98.3982L493.606 96.7864C493.522 96.6647 493.552 96.232 493.579 96.0859Z" fill="black"/>
<path d="M578.709 67.6079L578.504 68.3191C578.469 68.4381 577.881 68.4273 577.79 68.3435L576.268 66.9453C576.147 66.8317 576.203 66.28 576.252 66.1204C576.3 65.9609 576.859 65.9068 576.98 66.0203L578.709 67.6079Z" fill="black"/>
<path d="M581.133 40.8852L581.373 42.9325C581.384 43.0353 581.017 43.2652 580.911 43.2597C580.755 43.2516 580.288 42.9974 580.261 42.8406L579.884 40.531C579.857 40.3687 580.526 40.0658 580.642 40.1767C580.758 40.2876 581.106 40.6932 581.127 40.8852H581.133Z" fill="black"/>
<path d="M509.215 93.4869L508.873 94.1766C508.797 94.328 508.233 94.2226 508.101 94.1198L506.636 92.9731C506.477 92.8487 506.391 92.4106 506.399 92.2213C506.407 92.0319 507.125 91.9265 507.273 92.0374L509.213 93.4869H509.215Z" fill="black"/>
<path d="M512.259 97.8438C510.994 98.4388 510.95 97.2489 510.486 96.635L509.977 95.9643C509.866 95.8182 510.373 95.2259 510.565 95.2854C511.306 95.5072 512.127 96.9108 512.259 97.8438Z" fill="black"/>
<path d="M490.445 91.2906C490.141 91.4826 487.767 93.1188 487.524 92.2479C487.472 92.0613 487.591 91.561 487.761 91.4718L489.364 90.6415C489.488 90.5766 489.868 90.536 490.008 90.5279C490.194 90.5198 490.605 91.1878 490.445 91.2879V91.2906Z" fill="black"/>
<path d="M499.511 90.3767L497.553 90.1846C497.394 90.1684 497.051 89.8817 496.951 89.76C496.457 89.1624 499.115 88.5106 500.169 89.7871C500.283 89.925 499.695 90.3956 499.511 90.3767Z" fill="black"/>
<path d="M558.448 73.5197H555.562C555.424 73.5197 555.171 72.9707 555.268 72.876C555.365 72.7814 555.683 72.4487 555.818 72.4433L557.922 72.3838C558.154 72.3784 558.338 72.8301 558.446 73.5197H558.448Z" fill="black"/>
<path d="M552.982 73.4817C552.019 73.4303 550.675 73.1572 550.273 72.7461C550.619 71.6941 551.79 72.0538 552.545 72.2755L553.349 72.5108C553.578 72.5784 553.254 73.4952 552.982 73.4817Z" fill="black"/>
<path d="M502.986 105.07C501.934 106.406 501.306 105.183 500.666 104.651L499.992 104.091C499.849 103.972 500.17 103.604 500.51 103.142L502.989 105.07H502.986Z" fill="black"/>
<path d="M506.891 107.553C506.274 107.536 504.93 107.215 504.374 106.944C504.242 106.879 504.196 106.173 504.331 106.117C505.035 105.83 506.827 106.409 507.293 106.787C507.426 106.895 507.061 107.558 506.891 107.553Z" fill="black"/>
<path d="M521.049 60.8925L518.934 60.687C518.799 60.6734 518.468 60.3597 518.371 60.2624C518.273 60.165 518.508 59.6484 518.646 59.6539L521.057 59.7431C521.219 59.7485 521.54 60.192 521.565 60.3543C521.589 60.5166 521.214 60.9087 521.052 60.8925H521.049Z" fill="black"/>
<path d="M566.91 48.6116C567.536 47.9273 569.095 51.6892 567.944 51.5648C566.87 51.1781 566.471 49.5257 566.91 48.6116Z" fill="black"/>
<path d="M575.187 36.174L573.027 36.1875C572.865 36.1875 572.509 35.8738 572.403 35.7494C571.969 35.2436 574.17 34.4269 575.587 35.6006C575.686 35.6818 575.32 36.1713 575.187 36.174Z" fill="black"/>
<path d="M563.493 72.1243C562.679 73.3819 561.233 73.3927 560.043 72.933C560.699 71.7782 562.304 71.5429 563.493 72.1243Z" fill="black"/>
<path d="M580.147 52.7253C580.115 52.866 579.683 53.0823 579.551 53.1391C579.375 53.2148 579.014 52.5387 579.068 52.3494L579.715 50.0588C579.772 49.8586 580.697 50.2589 580.649 50.4861L580.15 52.7253H580.147Z" fill="black"/>
<path d="M597.798 69.9932C597.024 70.8261 595.61 70.9884 594.647 70.5286C593.943 69.6821 598.089 68.8167 597.798 69.9932Z" fill="black"/>
<path d="M605.186 68.6627C605.037 68.7249 604.39 68.4842 604.322 68.3598C604.233 68.1948 604.503 67.7486 604.678 67.6755L606.413 66.967C606.532 66.9183 606.942 66.9129 607.077 66.9102C607.276 66.9048 607.398 67.7432 607.209 67.8216L605.183 68.66L605.186 68.6627Z" fill="black"/>
<path d="M469.679 129.88C469.347 130.575 468.538 131.392 468.063 130.789C467.753 130.394 468.63 128.682 469.703 128.809C469.946 128.839 469.819 129.583 469.676 129.88H469.679Z" fill="black"/>
</g>
</g>
<defs>
<clipPath id="clip0_547_3704">
<rect width="643" height="521" fill="white"/>
</clipPath>
<clipPath id="clip1_547_3704">
<rect width="151" height="96" fill="white" transform="translate(468 35)"/>
</clipPath>
</defs>
</svg>
