<svg width="643" height="521" viewBox="0 0 643 521" fill="none" xmlns="http://www.w3.org/2000/svg">
<g clip-path="url(#clip0_853_4450)">
<path d="M261.175 167.248L216.235 175.705L202.555 279.815L230.565 283.725L233.815 255.743H252.71L258.575 282.427L284.621 277.866L261.175 167.248ZM236.416 229.708L242.281 203.024L250.746 229.708H236.416Z" fill="#3D2D00"/>
<path d="M157.067 155.402L165.603 304.352H194.334L185.021 155.402L225.397 153.073L224.619 126.699L132.223 128.252L133.777 157.732L157.067 155.402Z" fill="#3D2D00"/>
<path d="M268.191 382.935L274.706 496.66H296.653L289.53 382.935L320.367 381.156L319.773 361.023L249.211 362.209L250.398 384.714L268.191 382.935Z" fill="#3D2D00"/>
<path d="M293.449 335.725C293.449 335.725 293.52 335.725 293.548 335.725C294.099 335.753 299.54 336.035 299.54 336.078C299.512 338.492 299.498 340.991 300.416 343.222C300.656 343.801 300.967 344.379 301.49 344.732C302.041 345.099 302.734 345.17 303.398 345.128C304.599 345.057 305.843 344.605 306.606 343.674C307.341 342.77 307.525 341.513 307.369 340.342C307.087 338.196 305.659 336.247 303.709 335.315C301.603 334.313 299.06 334.482 297.01 333.381C294.862 332.223 293.59 329.809 293.378 327.381C293.166 324.952 293.887 322.524 294.919 320.322C296.148 317.696 298.042 315.126 300.699 313.841C303.568 312.458 307.171 312.726 309.828 314.462C311.877 315.804 313.333 318.034 313.602 320.463C313.913 323.428 312.499 326.308 310.846 328.793C309.221 327.974 307.595 327.155 305.97 326.35C306.634 325.319 307.327 324.261 307.624 323.075C307.92 321.889 307.793 320.505 306.959 319.587C305.659 318.147 303.2 318.458 301.702 319.686C300.501 320.689 299.738 322.157 299.399 323.668C299.116 324.91 298.89 326.943 299.738 328.016C300.091 328.468 300.656 328.708 301.208 328.863C303.582 329.569 306.535 329.484 308.627 331.023C310.563 332.463 311.849 334.666 312.584 336.939C313.672 340.356 313.602 344.351 311.496 347.245C309.602 349.857 306.309 351.213 303.087 351.283C301.08 351.326 299.003 350.789 297.561 349.321C294.41 346.088 293.506 340.214 293.336 335.908C293.336 335.852 293.336 335.795 293.364 335.767C293.378 335.753 293.407 335.739 293.421 335.739L293.449 335.725Z" fill="#3D2D00"/>
<path d="M179.422 464.089C179.535 464.06 179.662 464.06 179.775 464.089C181.782 464.216 201.68 465.218 201.68 465.388C201.581 474.226 201.553 483.346 204.902 491.535C205.764 493.653 206.923 495.756 208.817 497.041C210.824 498.397 213.381 498.637 215.784 498.481C220.193 498.199 224.73 496.575 227.5 493.145C230.199 489.813 230.877 485.224 230.312 480.989C229.266 473.153 224.051 466.009 216.915 462.606C209.198 458.935 199.913 459.557 192.395 455.519C184.537 451.297 179.902 442.431 179.125 433.565C178.348 424.698 180.976 415.818 184.778 407.756C189.286 398.17 196.182 388.767 205.934 384.037C216.406 378.954 229.577 379.971 239.3 386.31C246.79 391.195 252.146 399.384 253.093 408.264C254.252 419.121 249.065 429.625 243.003 438.718C237.067 435.739 231.117 432.746 225.182 429.767C227.641 425.997 230.128 422.129 231.245 417.766C232.361 413.403 231.852 408.377 228.842 405.031C224.094 399.779 215.077 400.894 209.622 405.412C205.213 409.069 202.457 414.462 201.228 419.983C200.21 424.529 199.348 431.941 202.471 435.894C203.772 437.546 205.821 438.421 207.842 439.014C216.533 441.584 227.344 441.273 234.976 446.921C242.07 452.173 246.776 460.263 249.419 468.564C253.404 481.059 253.15 495.643 245.448 506.261C238.537 515.805 226.468 520.774 214.682 521.014C207.361 521.17 199.73 519.207 194.487 513.828C182.969 502.011 179.662 480.508 179.054 464.766C179.054 464.583 179.054 464.371 179.181 464.23C179.238 464.159 179.323 464.131 179.407 464.117L179.422 464.089Z" fill="#3D2D00"/>
<path d="M253.749 304.453L253.41 347.797L279.88 346.625L279.244 338.521L262.313 339.679L262.851 304.75L253.749 304.453Z" fill="#3D2D00"/>
<path d="M349.661 212.511C359.652 205.508 368.259 195.145 372.329 179.897C374.336 158.55 358.974 137.867 292.863 145.872L296.877 227.265H296.99L300.212 292.633C300.212 292.633 362.309 295.302 375.664 245.266C376.95 231.656 371.156 218.314 349.661 212.511ZM344.969 180.166C342.75 194.552 322.258 199.536 322.258 199.536L320.591 172.415C320.591 172.415 346.622 173.516 344.969 180.166ZM346.425 240.875C344.206 255.262 323.714 260.246 323.714 260.246L322.046 233.124C322.046 233.124 348.078 234.225 346.425 240.875Z" fill="#3D2D00"/>
<path d="M391.765 135.926L383.149 304.676L480.242 309.778L481.437 281.715L412.112 277.679L420.197 135.752L391.765 135.926Z" fill="#3D2D00"/>
<path d="M440.633 132.522L441.298 245.47L503.804 244.609L503.517 222.263L462.206 226.599L461.783 200.296L477.918 202.448L479.555 180.351L460.752 178.5L459.902 155.426L504.569 156.426L504.915 134.164L440.633 132.522Z" fill="#3D2D00"/>
<path d="M275.077 304.312L272.547 333.749L288.856 335.019L289.308 329.188L278.44 329.329L278.963 322.468L283.118 323.414L284.065 317.696L279.217 316.778L279.542 310.735L291.145 312.063L291.767 306.274L275.077 304.312Z" fill="#3D2D00"/>
<path d="M561.028 433.776C561.141 433.776 561.254 433.776 561.367 433.804C563.233 434.157 581.831 437.418 581.803 437.574C580.686 445.875 579.584 454.445 581.803 462.521C582.368 464.61 583.216 466.728 584.855 468.154C586.579 469.665 588.954 470.187 591.243 470.314C595.426 470.568 599.864 469.566 602.874 466.658C605.799 463.848 606.972 459.598 606.93 455.546C606.859 448.064 602.789 440.736 596.472 436.712C589.646 432.364 580.842 431.87 574.242 427.196C567.345 422.311 564.024 413.445 564.321 405.016C564.632 396.588 568.123 388.54 572.631 381.41C577.987 372.925 585.562 364.892 595.285 361.574C605.714 358.016 617.995 360.501 626.39 367.588C632.863 373.052 636.947 381.382 636.791 389.839C636.608 400.174 630.517 409.45 623.761 417.299C618.532 413.798 613.289 410.311 608.06 406.809C610.802 403.548 613.6 400.202 615.155 396.235C616.709 392.267 616.822 387.481 614.378 383.98C610.534 378.488 601.913 378.488 596.26 382.102C591.681 385.025 588.473 389.768 586.664 394.823C585.18 398.974 583.513 405.849 585.972 409.93C587.003 411.638 588.826 412.697 590.649 413.487C598.521 416.918 608.725 417.878 615.24 424.076C621.302 429.837 624.779 437.997 626.305 446.101C628.595 458.314 626.658 471.994 618.179 481.087C610.562 489.247 598.648 492.523 587.54 491.393C580.644 490.687 573.705 487.962 569.395 482.287C559.94 469.834 559.332 449.235 560.604 434.369C560.618 434.185 560.647 433.987 560.788 433.875C560.859 433.818 560.929 433.804 561.014 433.79L561.028 433.776Z" fill="#3D2D00"/>
<path d="M501.468 328.098L502.836 430.405L559.469 429.222L559.045 408.983L521.662 413.18L521.097 389.354L535.722 391.2L537.051 371.178L520.014 369.618L519.074 348.719L559.552 349.328L559.718 329.162L501.468 328.098Z" fill="#3D2D00"/>
<path d="M28.3069 385.124L30.1583 315.816L57.4053 318.019L54.918 387.849L72.4986 387.312L74.1803 319.741L99.7597 321.196L99.4064 387.157L117.467 387.835L116.761 411.709L97.3713 412.641L97.4985 473.972L70.7179 472.983L71.9615 415.295L53.2787 415.126L51.8654 468.705L27.2046 469.68L29.0983 411.483L0 410.241L0.18372 385.731L28.3069 385.124Z" fill="#3D2D00"/>
<path d="M369.753 450.916C367.959 411.37 351.184 400.075 337.376 398.07C335.158 397.745 332.897 398 330.805 398.833C322.721 402.023 302.399 413.516 302.908 448.318C303.402 481.101 323.852 490.984 333.843 493.864C337.532 494.923 341.461 494.951 345.135 493.878C354.392 491.182 371.138 482.005 369.725 450.916H369.753ZM342.577 467.519C341.659 469.623 340.146 471.303 337.659 470.413C336.415 469.976 335.285 469.27 334.267 468.394C330.24 464.907 327.978 458.54 327.201 453.881C326.099 447.273 326.862 440.383 328.558 433.931C328.629 433.691 328.685 433.437 328.756 433.197C329.745 429.653 332.402 421.45 337.588 424.542C339.086 425.432 340.076 426.985 340.909 428.524C347.326 440.369 347.961 455.165 342.591 467.519H342.577Z" fill="#3D2D00"/>
<path d="M516.083 467.991L516.111 467.921C498.29 460.734 479.918 453.195 466.563 439.387C472.188 435.236 478.11 431.453 483.225 426.695C488.341 421.937 492.652 415.979 494.022 409.131C494.941 404.543 494.503 399.771 493.429 395.225C492.298 390.41 490.39 385.638 486.914 382.109C483.367 378.494 478.491 376.489 473.587 375.205C461.674 372.085 449.237 372.79 437.112 374.103C434.045 374.442 420.93 374.259 419.319 376.687C418.471 377.958 422.273 394.462 421.693 394.519C426.074 394.01 430.484 393.883 434.893 394.109L446.778 496.031L466.761 494.76C465.786 483.988 464.797 473.201 463.822 462.429C477.813 472.453 492.086 482.604 508.395 488.11C510.953 481.404 513.511 474.712 516.069 468.005L516.083 467.991ZM459.978 415.753L456.996 393.248C456.996 393.248 471.453 394.942 474.421 398.345C477.403 401.747 470.167 414.482 459.964 415.753H459.978Z" fill="#3D2D00"/>
<path d="M159.568 461.279L158.862 376.356L130.738 376.667L132.547 475.115L160.176 475.779L159.738 461.293L159.568 461.279Z" fill="#3D2D00"/>
<path d="M411.972 482.103L411.279 397.194L383.156 397.491L384.965 495.939L412.594 496.603L412.156 482.117L411.972 482.103Z" fill="#3D2D00"/>
<path d="M108.705 214.009L92.8318 217.056L88 254.595L97.8963 256L99.0506 245.911H105.726L107.793 255.526L117 253.884L108.714 214L108.705 214.009ZM99.9633 236.533L102.03 226.917L105.019 236.533H99.9543H99.9633Z" fill="#3D2D00"/>
<path d="M106.253 199.985L92.9555 188L87 192.917L103.026 207L109 202.327L106.29 199.958L106.253 199.985Z" fill="#3D2D00"/>
<path d="M391.693 364.201L373.529 365.549L390.679 368.53L378.275 377.571L394.951 376.283L392.54 389.936L401.326 378.478L408.53 384.779L405.036 376.323L416.245 380.66L407.576 369.624L417.744 363.767L403.192 364.541L407.475 353.405L398.817 360.409L395.821 345.163L396.135 361.953L383.95 355.203L391.693 364.201Z" fill="#FF9925"/>
<g clip-path="url(#clip1_853_4450)">
<path d="M573.693 66.7659C573.31 66.5441 572.846 66.2061 572.938 66.0357L573.38 65.2244L573.892 64.2832C574.025 64.0425 573.596 63.5801 573.447 63.2555L573.118 62.5361C573.029 62.3414 573.634 61.8438 573.793 61.979C574.303 62.4144 575.069 63.5368 575.438 64.2562L573.69 66.7632L573.693 66.7659Z" fill="black"/>
<path d="M513.084 100.885C513.26 101.816 513.009 103.195 511.852 102.781L511.914 100.093C511.916 99.9254 512.771 99.7009 512.828 99.8578C512.904 100.069 512.982 100.345 513.084 100.885Z" fill="black"/>
<path d="M600.065 69.9843C599.882 70.0194 599.434 69.3757 599.545 69.2568C599.655 69.1378 599.966 68.8132 600.125 68.7808L602.08 68.3967C602.234 68.367 602.566 68.6455 602.642 68.7835C602.744 68.9674 602.391 69.5353 602.186 69.5759L600.063 69.987L600.065 69.9843Z" fill="black"/>
<path d="M511.463 60.422C510.888 60.7817 509.337 60.8331 508.676 60.6708C508.449 60.614 508.595 59.7107 508.824 59.6891L510.753 59.4998C510.918 59.4835 511.209 59.4781 511.314 59.4727C511.476 59.4646 511.606 60.3327 511.463 60.422Z" fill="black"/>
<path d="M510.075 106.757C509.913 106.922 509.096 106.855 509.039 106.633C508.982 106.411 509.087 105.989 509.26 105.827L510.56 104.615C510.687 104.496 511.2 104.467 511.372 104.494C511.602 104.529 511.561 105.251 511.402 105.413L510.075 106.76V106.757Z" fill="black"/>
<path d="M609.739 66.6774C609.585 66.7721 608.943 66.599 608.898 66.453C608.835 66.261 608.978 65.7985 609.165 65.6822L610.802 64.6491C610.991 64.5301 611.501 64.6626 611.663 64.7843C611.824 64.906 611.655 65.5037 611.487 65.6065L609.736 66.6829L609.739 66.6774Z" fill="black"/>
<path d="M576.628 61.8635C576.531 62.0609 575.98 62.4341 575.808 62.3584C575.592 62.2637 575.425 61.7147 575.527 61.4984L576.336 59.7567C576.42 59.5755 576.927 59.3456 577.121 59.3943C577.364 59.4538 577.521 60.065 577.41 60.2895L576.628 61.8662V61.8635Z" fill="black"/>
<path d="M493.097 94.2733C492.101 94.9332 491.759 93.9001 491.448 93.2997L491.009 92.4424C490.89 92.2098 491.311 91.5851 491.659 91.5283C492.26 92.1585 492.9 93.4133 493.097 94.2733Z" fill="black"/>
<path d="M570.506 70.1469C570.365 70.2659 569.64 70.0685 569.597 69.8819C569.543 69.6466 569.699 69.2842 569.942 69.0895L571.471 67.8589C571.596 67.7589 572.049 67.8752 572.127 68.0104C572.205 68.1456 572.227 68.7027 572.108 68.8055L570.508 70.1469H570.506Z" fill="black"/>
<path d="M481.51 99.079C481.394 99.2521 480.838 99.4549 480.698 99.3522C480.558 99.2494 480.38 98.6842 480.477 98.5408L481.691 96.7586C481.791 96.6126 482.373 96.5936 482.541 96.6585C482.708 96.7234 482.748 97.2589 482.646 97.4077L481.507 99.079H481.51Z" fill="black"/>
<path d="M492.897 90.6843C492.681 90.7303 492.206 90.5328 492.096 90.3435C491.605 89.5105 494.683 88.6857 495.155 89.5755C495.258 89.7675 494.842 90.2624 494.629 90.3084L492.897 90.6843Z" fill="black"/>
<path d="M490.887 89.7084C489.957 90.6631 489.555 89.3569 489.309 88.7024C489.064 88.0479 488.783 87.0743 489.762 87.0283C490.191 87.5043 490.747 88.9079 490.887 89.7057V89.7084Z" fill="black"/>
<path d="M617.635 60.27C617.514 60.4052 616.925 60.4972 616.753 60.4647C615.849 60.3052 618.237 57.3708 618.822 57.9469C618.954 58.0767 619.073 58.6582 618.949 58.7961L617.635 60.27Z" fill="black"/>
<path d="M472.059 125.699C471.517 126.562 471.264 127.468 470.36 127.141C470.303 126.251 470.786 124.75 471.706 124.323C472.146 124.117 472.281 125.348 472.059 125.699Z" fill="black"/>
<path d="M479.216 103.396C479.17 103.49 478.903 103.685 478.822 103.75C478.7 103.85 478.093 103.455 478.139 103.304C478.387 102.503 478.762 100.927 479.636 100.735C479.841 100.689 480.192 101.394 480.103 101.576L479.216 103.396Z" fill="black"/>
<path d="M547.726 72.5024L545.994 71.9182C545.806 71.8533 545.441 71.3665 545.498 71.1745C545.746 70.3388 548.868 71.2827 548.538 72.2184C548.468 72.4158 547.98 72.5889 547.724 72.5024H547.726Z" fill="black"/>
<path d="M475.124 116.504C475.019 117.124 474.582 117.965 474.083 118.094C473.346 117.102 473.967 115.571 474.639 114.854C474.811 114.882 475.359 115.125 475.329 115.306L475.124 116.507V116.504Z" fill="black"/>
<path d="M504.588 61.823C504.335 61.9095 503.657 61.6878 503.66 61.4579C503.663 61.228 503.965 60.7196 504.186 60.6574L505.891 60.176C506.061 60.1273 506.53 60.2679 506.676 60.3626C506.87 60.4897 506.56 61.1577 506.336 61.2334L504.588 61.8203V61.823Z" fill="black"/>
<path d="M525.84 61.7905L523.722 61.3361C523.544 61.2982 523.25 60.7871 523.266 60.6086C523.288 60.3679 523.879 60.1678 524.113 60.2246L525.897 60.6465C526.05 60.6816 526.336 61.0251 526.412 61.1576C526.514 61.3334 526.031 61.8337 525.84 61.7905Z" fill="black"/>
<path d="M593.04 70.6985C592.538 71.8722 588.573 71.5666 589.76 70.7012C590.512 70.1522 592.463 69.7654 593.04 70.6985Z" fill="black"/>
<path d="M615.556 61.7222C615.761 62.7337 613.312 64.5348 613.093 63.8398C612.702 62.5876 615.413 61.0163 615.556 61.7222Z" fill="black"/>
<path d="M500.232 63.902C500.067 64.0048 499.552 63.9994 499.403 63.9318C499.255 63.8642 499.104 63.2773 499.242 63.1908L501.168 61.9684C501.335 61.8629 501.861 61.9765 502.004 62.1036C502.147 62.2307 501.985 62.8094 501.823 62.9122L500.232 63.9047V63.902Z" fill="black"/>
<path d="M587.8 71.6366L585.326 71.4554C585.17 71.4445 584.841 71.0199 584.779 70.8739C584.32 69.8435 587.026 70.5575 587.727 70.5034L587.803 71.6366H587.8Z" fill="black"/>
<path d="M535.42 65.3601C534.686 66.0092 532.061 64.2107 532.668 63.6969C532.822 63.5671 533.367 63.4373 533.532 63.54L535.215 64.5596C535.377 64.657 535.56 65.233 535.417 65.3601H535.42Z" fill="black"/>
<path d="M566.889 45.2284C567.01 45.8991 566.929 47.0539 566.32 46.8484C565.497 46.3481 565.286 44.6226 565.777 43.8275C566.409 43.5463 566.746 44.436 566.889 45.2284Z" fill="black"/>
<path d="M496.482 66.9285C496.309 67.0854 495.813 67.2016 495.622 67.1503C495.43 67.0989 495.357 66.4065 495.503 66.274L497.186 64.7081C497.299 64.6027 497.985 64.892 497.995 65.0489C498.012 65.2571 497.893 65.6493 497.739 65.7899L496.482 66.9312V66.9285Z" fill="black"/>
<path d="M582.319 70.766L580.433 70.0142C580.258 69.9439 579.956 69.4381 580.021 69.2596C580.085 69.0812 580.611 68.8053 580.787 68.881L582.826 69.7573C582.937 69.8059 583.047 70.2441 583.091 70.355C583.158 70.5226 582.505 70.8418 582.316 70.766H582.319Z" fill="black"/>
<path d="M484.553 95.2795C484.405 95.412 484.03 95.4931 483.838 95.4904C483.647 95.4877 483.455 94.6683 483.604 94.5439L485.349 93.0835C485.441 93.0077 485.934 93.1403 486.045 93.1835C486.212 93.2511 486.212 93.8029 486.075 93.9246L484.553 95.2768V95.2795Z" fill="black"/>
<path d="M568.316 37.6666C568.216 37.7153 567.809 37.4989 567.809 37.3853C567.817 36.0358 570.336 35.3056 570.563 35.8032C570.66 36.0142 570.482 36.6227 570.266 36.7255L568.316 37.6666Z" fill="black"/>
<path d="M473.278 122.346C473.222 122.513 472.741 122.673 472.574 122.681C471.746 122.711 472.634 119.685 473.424 119.622C473.634 119.606 473.98 120.258 473.912 120.455L473.278 122.346Z" fill="black"/>
<path d="M493.463 70.8201C493.352 70.985 492.656 71.2014 492.57 71.0445C492.483 70.8877 492.351 70.4252 492.448 70.2738L493.514 68.6484C493.603 68.5105 494.024 68.3482 494.177 68.3103C494.38 68.2589 494.709 68.9513 494.59 69.1271L493.463 70.8228V70.8201Z" fill="black"/>
<path d="M476.53 110.224C476.929 110.819 476.015 113.961 475.062 113.183C475.106 112.398 475.351 111.027 475.575 110.389C475.645 110.194 476.414 110.054 476.527 110.224H476.53Z" fill="black"/>
<path d="M543.59 70.7603C542.678 70.4953 540.328 69.3648 541.21 68.8077C541.394 68.6914 541.882 68.64 542.076 68.7509L543.822 69.7462C544.016 69.857 543.8 70.8198 543.59 70.7603Z" fill="black"/>
<path d="M539.172 68.2753L537.1 67.1042C536.925 67.0042 536.8 66.2956 536.949 66.1847C537.097 66.0738 537.526 65.9981 537.68 66.0928L539.352 67.1259C539.455 67.1881 539.647 67.5153 539.714 67.6127C539.816 67.7587 539.328 68.3618 539.172 68.2726V68.2753Z" fill="black"/>
<path d="M478.031 106.422C477.968 107.244 477.521 108.445 476.719 108.394C476.107 107.669 476.9 106.049 477.351 105.44C477.445 105.313 478.106 105.419 478.095 105.576L478.031 106.419V106.422Z" fill="black"/>
<path d="M565.652 72.1615C565.447 72.2102 564.926 71.5367 565.05 71.4205C565.174 71.3042 565.474 71.0418 565.633 70.985L567.405 70.3333C567.616 70.2548 568.109 70.8471 568.125 71.1149C567.613 71.4989 566.377 71.9911 565.652 72.1615Z" fill="black"/>
<path d="M579.744 38.3049C579.606 39.6923 576.334 36.3009 577.305 36.2279C578.422 36.117 579.549 37.0284 579.744 38.3049Z" fill="black"/>
<path d="M531.256 62.4522C531.002 62.9417 530.649 63.3474 530.444 63.2716L528.442 62.5225C528.31 62.4738 528.097 62.0681 528.021 61.9464C527.919 61.7842 528.669 61.3758 528.858 61.4542L531.256 62.4549V62.4522Z" fill="black"/>
<path d="M581.364 45.4253C581.367 45.7661 581.486 48.4948 580.641 48.2244C580.433 48.1568 580.031 47.7673 580.056 47.5564L580.274 45.6903C580.293 45.5199 580.541 45.1738 580.655 45.0467C580.768 44.9196 581.361 45.2549 581.364 45.4253Z" fill="black"/>
<path d="M566.474 41.7501C566.395 41.9502 565.538 41.8718 565.543 41.6582C565.548 41.4039 565.543 38.429 567.008 38.8915C567.102 39.4459 566.733 41.101 566.474 41.7501Z" fill="black"/>
<path d="M516.651 60.1001C515.756 60.7465 513.803 60.7844 513.301 59.9649C513.654 58.7831 517.485 59.497 516.651 60.1001Z" fill="black"/>
<path d="M499.27 102.006C498.655 102.319 498.156 102.446 497.965 102.238L496.675 100.851C496.567 100.734 496.408 100.145 496.567 100.104L497.449 99.8799L499.273 102.008L499.27 102.006Z" fill="black"/>
<path d="M491.298 75.1586C491.22 75.3371 490.82 75.6265 490.661 75.6292C490.448 75.6319 490.135 74.9964 490.216 74.7962L490.915 73.0789C490.993 72.8842 491.506 72.5813 491.711 72.6137C491.967 72.6543 492.134 73.279 492.026 73.5224L491.298 75.1559V75.1586Z" fill="black"/>
<path d="M489.935 80.0559C489.873 80.3425 488.794 80.21 488.837 79.9477C488.891 79.634 489.288 76.3535 490.111 77.2405C490.221 77.3595 490.442 77.6949 490.407 77.8517L489.932 80.0532L489.935 80.0559Z" fill="black"/>
<path d="M489.255 82.2061C489.711 82.8092 489.784 85.6678 488.856 85.273C488.346 85.1621 488.244 83.772 488.36 83.1906L488.524 82.3738C488.567 82.1629 489.128 82.0358 489.258 82.2061H489.255Z" fill="black"/>
<path d="M571.71 58.0363C571.6 57.8281 573.617 61.2844 572.288 60.6299C572.131 60.5542 571.683 60.3514 571.597 60.2053L570.715 58.7179C570.604 58.534 570.677 58.012 570.796 57.8281C570.914 57.6442 571.608 57.8416 571.713 58.0363H571.71Z" fill="black"/>
<path d="M578.625 57.3439C578.563 57.5089 578.126 57.8226 577.967 57.8145C576.804 57.755 578.431 53.939 579.041 54.8071C579.146 54.9559 579.327 55.4427 579.262 55.6157L578.623 57.3412L578.625 57.3439Z" fill="black"/>
<path d="M570.5 55.6862L569.893 56.2136C569.771 56.3218 569.334 55.9404 569.264 55.7944L568.49 54.1879C568.428 54.0608 568.468 53.593 568.495 53.4469C568.536 53.2495 569.242 53.2143 569.337 53.4009L570.5 55.6862Z" fill="black"/>
<path d="M504.451 91.7985L502.223 90.998C502.069 90.9412 501.735 90.4436 501.829 90.3246C502.601 89.3429 505.139 90.8141 504.894 91.1657L504.451 91.7985Z" fill="black"/>
<path d="M493.579 96.0854C493.849 94.7143 496.765 98.7115 495.486 98.6493C495.313 98.6412 494.82 98.5357 494.723 98.3978L493.606 96.7859C493.522 96.6642 493.552 96.2315 493.579 96.0854Z" fill="black"/>
<path d="M578.709 67.6069L578.504 68.3182C578.469 68.4372 577.881 68.4263 577.79 68.3425L576.268 66.9443C576.147 66.8307 576.203 66.279 576.252 66.1194C576.3 65.9599 576.859 65.9058 576.98 66.0194L578.709 67.6069Z" fill="black"/>
<path d="M581.133 40.8848L581.373 42.932C581.384 43.0348 581.017 43.2647 580.911 43.2593C580.755 43.2511 580.288 42.9969 580.261 42.8401L579.884 40.5305C579.857 40.3682 580.526 40.0653 580.642 40.1762C580.758 40.2871 581.106 40.6927 581.127 40.8848H581.133Z" fill="black"/>
<path d="M509.215 93.486L508.873 94.1756C508.797 94.327 508.233 94.2216 508.101 94.1188L506.636 92.9721C506.477 92.8477 506.391 92.4096 506.399 92.2203C506.407 92.031 507.125 91.9255 507.273 92.0364L509.213 93.486H509.215Z" fill="black"/>
<path d="M512.259 97.8429C510.994 98.4378 510.95 97.2479 510.486 96.634L509.977 95.9633C509.866 95.8172 510.373 95.225 510.565 95.2845C511.306 95.5062 512.127 96.9098 512.259 97.8429Z" fill="black"/>
<path d="M490.445 91.2901C490.141 91.4821 487.767 93.1183 487.524 92.2474C487.472 92.0608 487.591 91.5605 487.761 91.4713L489.364 90.641C489.488 90.5761 489.868 90.5355 490.008 90.5274C490.194 90.5193 490.605 91.1873 490.445 91.2874V91.2901Z" fill="black"/>
<path d="M499.511 90.3762L497.553 90.1842C497.394 90.1679 497.051 89.8813 496.951 89.7596C496.457 89.1619 499.115 88.5101 500.169 89.7866C500.283 89.9245 499.695 90.3951 499.511 90.3762Z" fill="black"/>
<path d="M558.448 73.5197H555.562C555.424 73.5197 555.171 72.9707 555.268 72.876C555.365 72.7814 555.683 72.4487 555.818 72.4433L557.922 72.3838C558.154 72.3784 558.338 72.8301 558.446 73.5197H558.448Z" fill="black"/>
<path d="M552.982 73.4817C552.019 73.4303 550.675 73.1572 550.273 72.7461C550.619 71.6941 551.79 72.0538 552.545 72.2755L553.349 72.5108C553.578 72.5784 553.254 73.4952 552.982 73.4817Z" fill="black"/>
<path d="M502.986 105.07C501.934 106.406 501.306 105.183 500.666 104.651L499.992 104.091C499.849 103.972 500.17 103.604 500.51 103.142L502.989 105.07H502.986Z" fill="black"/>
<path d="M506.891 107.552C506.274 107.536 504.93 107.214 504.374 106.944C504.242 106.879 504.196 106.173 504.331 106.116C505.035 105.829 506.827 106.408 507.293 106.787C507.426 106.895 507.061 107.558 506.891 107.552Z" fill="black"/>
<path d="M521.049 60.892L518.934 60.6865C518.799 60.6729 518.468 60.3592 518.371 60.2619C518.273 60.1645 518.508 59.648 518.646 59.6534L521.057 59.7426C521.219 59.748 521.54 60.1915 521.565 60.3538C521.589 60.5161 521.214 60.9082 521.052 60.892H521.049Z" fill="black"/>
<path d="M566.91 48.6116C567.536 47.9273 569.095 51.6892 567.944 51.5648C566.87 51.1781 566.471 49.5257 566.91 48.6116Z" fill="black"/>
<path d="M575.187 36.1735L573.027 36.187C572.865 36.187 572.509 35.8733 572.403 35.7489C571.969 35.2432 574.17 34.4264 575.587 35.6001C575.686 35.6813 575.32 36.1708 575.187 36.1735Z" fill="black"/>
<path d="M563.493 72.1234C562.679 73.3809 561.233 73.3917 560.043 72.932C560.699 71.7772 562.304 71.5419 563.493 72.1234Z" fill="black"/>
<path d="M580.147 52.7249C580.115 52.8655 579.683 53.0818 579.551 53.1386C579.375 53.2144 579.014 52.5382 579.068 52.3489L579.715 50.0583C579.772 49.8581 580.697 50.2584 580.649 50.4856L580.15 52.7249H580.147Z" fill="black"/>
<path d="M597.798 69.9932C597.024 70.8261 595.61 70.9884 594.647 70.5286C593.943 69.6821 598.089 68.8167 597.798 69.9932Z" fill="black"/>
<path d="M605.186 68.6617C605.037 68.7239 604.39 68.4832 604.322 68.3588C604.233 68.1938 604.503 67.7476 604.678 67.6746L606.413 66.966C606.532 66.9173 606.942 66.9119 607.077 66.9092C607.276 66.9038 607.398 67.7422 607.209 67.8206L605.183 68.659L605.186 68.6617Z" fill="black"/>
<path d="M469.679 129.88C469.347 130.575 468.538 131.392 468.063 130.789C467.753 130.394 468.63 128.682 469.703 128.809C469.946 128.839 469.819 129.583 469.676 129.88H469.679Z" fill="black"/>
</g>
</g>
<path d="M137.97 337.043L114.259 338.855L136.628 342.645L120.402 354.38L142.171 352.652L138.967 370.314L150.482 355.467L159.856 363.586L155.332 352.666L169.943 358.232L158.675 343.996L171.969 336.385L152.975 337.44L158.611 323.027L147.283 332.115L143.437 312.414L143.777 334.121L127.902 325.439L137.97 337.043Z" fill="#FF9925"/>
<defs>
<clipPath id="clip0_853_4450">
<rect width="643" height="521" fill="white"/>
</clipPath>
<clipPath id="clip1_853_4450">
<rect width="151" height="96" fill="white" transform="translate(468 35)"/>
</clipPath>
</defs>
</svg>
