<svg width="191" height="157" viewBox="0 0 191 157" fill="none" xmlns="http://www.w3.org/2000/svg">
<path d="M78.3406 50.1641L64.861 52.7007L60.7578 83.9275L69.1592 85.1005L70.1342 76.7073H75.8015L77.5606 84.7109L85.3728 83.3431L78.3406 50.1641ZM70.9141 68.8985L72.6732 60.8948L75.2123 68.8985H70.9141Z" fill="#3D2D00"/>
<path d="M47.1082 46.6111L49.6684 91.2874H58.286L55.4926 46.6111L67.603 45.9124L67.3699 38.002L39.6562 38.4678L40.1225 47.3099L47.1082 46.6111Z" fill="#3D2D00"/>
<path d="M80.4428 114.859L82.3969 148.97H88.9798L86.8435 114.859L96.0926 114.326L95.9146 108.287L74.75 108.643L75.1061 115.393L80.4428 114.859Z" fill="#3D2D00"/>
<path d="M88.0183 100.698C88.0183 100.698 88.0395 100.698 88.048 100.698C88.2133 100.706 89.8452 100.791 89.8452 100.804C89.8368 101.528 89.8325 102.277 90.108 102.946C90.1801 103.12 90.2734 103.294 90.4302 103.4C90.5955 103.51 90.8032 103.531 91.0024 103.518C91.3627 103.497 91.7358 103.361 91.9647 103.082C92.1851 102.811 92.2402 102.434 92.1936 102.083C92.1088 101.439 91.6807 100.855 91.0957 100.575C90.4641 100.274 89.7011 100.325 89.0865 99.9949C88.4422 99.6476 88.0607 98.9235 87.9971 98.1951C87.9335 97.4668 88.1497 96.7384 88.4591 96.0778C88.8279 95.2901 89.3959 94.5194 90.1928 94.134C91.0533 93.719 92.1342 93.7995 92.9311 94.3204C93.5458 94.7227 93.9824 95.3918 94.0629 96.1201C94.1561 97.0094 93.7323 97.8733 93.2363 98.6186C92.7488 98.373 92.2614 98.1274 91.7739 97.886C91.9731 97.5769 92.1808 97.2593 92.2699 96.9035C92.3589 96.5478 92.3207 96.1328 92.0706 95.8576C91.6807 95.4256 90.9431 95.5188 90.4938 95.8872C90.1335 96.1879 89.9046 96.6283 89.8028 97.0814C89.7181 97.4541 89.6502 98.0639 89.9046 98.3857C90.0105 98.5212 90.1801 98.5932 90.3454 98.6398C91.0575 98.8515 91.9435 98.8261 92.5708 99.2877C93.1515 99.7196 93.5373 100.38 93.7577 101.062C94.0841 102.087 94.0629 103.285 93.4313 104.153C92.8633 104.937 91.8756 105.343 90.9092 105.365C90.3073 105.377 89.6842 105.216 89.2518 104.776C88.3065 103.806 88.0352 102.044 87.9844 100.753C87.9844 100.736 87.9844 100.719 87.9929 100.711C87.9971 100.706 88.0056 100.702 88.0098 100.702L88.0183 100.698Z" fill="#3D2D00"/>
<path d="M53.8175 139.2C53.8514 139.191 53.8895 139.191 53.9234 139.2C54.5254 139.238 60.4937 139.539 60.4937 139.59C60.464 142.24 60.4555 144.976 61.4601 147.432C61.7187 148.067 62.0663 148.698 62.6343 149.084C63.2362 149.49 64.0034 149.562 64.7241 149.516C66.0466 149.431 67.4072 148.944 68.2381 147.915C69.0477 146.916 69.2512 145.539 69.0816 144.269C68.7679 141.919 67.2038 139.776 65.0632 138.755C62.7487 137.654 59.9638 137.841 57.7087 136.63C55.3519 135.363 53.9616 132.704 53.7285 130.045C53.4953 127.385 54.2837 124.721 55.424 122.303C56.7762 119.428 58.8448 116.608 61.7696 115.189C64.9106 113.665 68.8612 113.97 71.7775 115.871C74.0241 117.336 75.6306 119.792 75.9146 122.456C76.2622 125.712 74.7066 128.863 72.8881 131.59C71.1078 130.697 69.3232 129.799 67.5429 128.905C68.2805 127.775 69.0265 126.614 69.3614 125.306C69.6962 123.997 69.5436 122.49 68.6408 121.486C67.2165 119.911 64.5121 120.245 62.8759 121.6C61.5534 122.697 60.7268 124.315 60.358 125.971C60.0528 127.334 59.7943 129.558 60.7311 130.743C61.121 131.239 61.7357 131.501 62.3418 131.679C64.9487 132.45 68.1914 132.357 70.4804 134.051C72.6083 135.626 74.0199 138.052 74.8125 140.542C76.0079 144.29 75.9316 148.665 73.6214 151.849C71.5486 154.712 67.9286 156.202 64.3934 156.274C62.1977 156.321 59.9087 155.732 58.3361 154.119C54.8814 150.574 53.8895 144.125 53.7073 139.403C53.7073 139.348 53.7073 139.285 53.7454 139.242C53.7624 139.221 53.7878 139.213 53.8132 139.208L53.8175 139.2Z" fill="#3D2D00"/>
<path d="M76.1095 91.3184L76.0078 104.319L83.9472 103.967L83.7564 101.537L78.6783 101.884L78.8394 91.4073L76.1095 91.3184Z" fill="#3D2D00"/>
<path d="M104.88 63.7405C107.877 61.6401 110.458 58.5318 111.679 53.9583C112.281 47.5554 107.673 41.3516 87.8438 43.7526L89.0476 68.1658H89.0815L90.048 87.7725C90.048 87.7725 108.673 88.5729 112.679 73.5651C113.065 69.4828 111.327 65.481 104.88 63.7405ZM103.472 54.0388C102.807 58.354 96.6606 59.8488 96.6606 59.8488L96.1604 51.7139C96.1604 51.7139 103.968 52.0442 103.472 54.0388ZM103.909 72.2481C103.244 76.5632 97.0972 78.0581 97.0972 78.0581L96.597 69.9232C96.597 69.9232 104.405 70.2535 103.909 72.2481Z" fill="#3D2D00"/>
<path d="M117.509 40.7692L114.925 91.3845L144.047 92.9148L144.405 84.4976L123.612 83.287L126.037 40.7171L117.509 40.7692Z" fill="#3D2D00"/>
<path d="M132.164 39.7481L132.364 73.626L151.111 73.3679L151.025 66.6654L138.634 67.9659L138.508 60.0764L143.347 60.7219L143.838 54.0942L138.199 53.539L137.944 46.6181L151.341 46.9179L151.445 40.2406L132.164 39.7481Z" fill="#3D2D00"/>
<path d="M82.5049 91.2754L81.7461 100.105L86.6377 100.486L86.7734 98.737L83.5137 98.7793L83.6705 96.7212L84.9168 97.005L85.2008 95.2899L83.7468 95.0146L83.8443 93.2022L87.3244 93.6003L87.5109 91.864L82.5049 91.2754Z" fill="#3D2D00"/>
<path d="M168.276 130.108C168.31 130.108 168.343 130.108 168.377 130.116C168.937 130.222 174.515 131.201 174.507 131.247C174.172 133.737 173.841 136.308 174.507 138.73C174.676 139.357 174.931 139.992 175.422 140.42C175.939 140.873 176.652 141.029 177.338 141.067C178.593 141.144 179.924 140.843 180.827 139.971C181.704 139.128 182.056 137.853 182.043 136.638C182.022 134.394 180.801 132.196 178.907 130.989C176.859 129.685 174.218 129.536 172.239 128.135C170.17 126.669 169.174 124.01 169.263 121.482C169.357 118.954 170.403 116.54 171.756 114.401C173.362 111.856 175.634 109.447 178.551 108.452C181.679 107.384 185.362 108.13 187.88 110.256C189.822 111.894 191.047 114.393 191 116.93C190.945 120.029 189.118 122.812 187.092 125.166C185.524 124.116 183.951 123.07 182.383 122.02C183.205 121.041 184.044 120.038 184.51 118.848C184.977 117.658 185.011 116.222 184.277 115.172C183.124 113.525 180.539 113.525 178.843 114.609C177.47 115.486 176.507 116.908 175.965 118.424C175.52 119.669 175.02 121.732 175.757 122.956C176.067 123.468 176.613 123.786 177.16 124.023C179.521 125.052 182.582 125.34 184.536 127.199C186.354 128.927 187.397 131.374 187.855 133.805C188.542 137.468 187.961 141.571 185.418 144.299C183.133 146.746 179.559 147.729 176.228 147.39C174.159 147.178 172.078 146.361 170.785 144.658C167.949 140.923 167.767 134.745 168.148 130.286C168.153 130.231 168.161 130.172 168.204 130.138C168.225 130.121 168.246 130.116 168.271 130.112L168.276 130.108Z" fill="#3D2D00"/>
<path d="M150.41 98.4108L150.82 129.097L167.807 128.742L167.68 122.672L156.467 123.931L156.298 116.784L160.684 117.338L161.083 111.332L155.973 110.864L155.691 104.596L167.832 104.779L167.882 98.7301L150.41 98.4108Z" fill="#3D2D00"/>
<path d="M8.49043 115.515L9.04572 94.7266L17.2182 95.3872L16.4722 116.332L21.7453 116.171L22.2498 95.9038L29.9221 96.34L29.8161 116.125L35.2334 116.328L35.0214 123.489L29.2057 123.768L29.2439 142.164L21.2112 141.867L21.5843 124.564L15.9805 124.514L15.5566 140.584L8.1598 140.877L8.7278 123.421L0 123.048L0.0551051 115.697L8.49043 115.515Z" fill="#3D2D00"/>
<path d="M110.908 135.249C110.37 123.388 105.338 120 101.197 119.398C100.531 119.301 99.8531 119.377 99.2258 119.627C96.8012 120.584 90.7057 124.031 90.8583 134.47C91.0066 144.303 97.1403 147.267 100.137 148.131C101.243 148.449 102.422 148.457 103.524 148.135C106.3 147.326 111.323 144.574 110.9 135.249H110.908ZM102.757 140.229C102.481 140.86 102.028 141.364 101.282 141.097C100.909 140.966 100.57 140.754 100.264 140.492C99.0562 139.446 98.378 137.536 98.1449 136.138C97.8142 134.156 98.0431 132.09 98.5518 130.155C98.573 130.083 98.59 130.006 98.6112 129.934C98.9079 128.871 99.7048 126.411 101.26 127.339C101.71 127.605 102.006 128.071 102.257 128.533C104.181 132.086 104.372 136.524 102.761 140.229H102.757Z" fill="#3D2D00"/>
<path d="M154.795 140.37L154.803 140.349C149.458 138.194 143.948 135.932 139.942 131.791C141.629 130.546 143.405 129.411 144.94 127.984C146.474 126.557 147.767 124.77 148.178 122.716C148.454 121.34 148.322 119.908 148 118.545C147.661 117.101 147.089 115.669 146.046 114.611C144.982 113.526 143.52 112.925 142.049 112.54C138.475 111.604 134.745 111.816 131.108 112.209C130.188 112.311 126.255 112.256 125.772 112.984C125.517 113.366 126.657 118.316 126.484 118.333C127.798 118.18 129.12 118.142 130.443 118.21L134.008 148.781L140.001 148.399C139.709 145.168 139.412 141.933 139.12 138.702C143.316 141.709 147.597 144.753 152.489 146.405C153.256 144.393 154.024 142.386 154.791 140.375L154.795 140.37ZM137.967 124.702L137.072 117.952C137.072 117.952 141.409 118.46 142.299 119.481C143.193 120.501 141.023 124.321 137.963 124.702H137.967Z" fill="#3D2D00"/>
<path d="M47.8621 138.357L47.6502 112.885L39.2148 112.978L39.7574 142.507L48.0444 142.706L47.913 138.361L47.8621 138.357Z" fill="#3D2D00"/>
<path d="M123.569 144.604L123.361 119.137L114.926 119.226L115.468 148.754L123.755 148.953L123.624 144.609L123.569 144.604Z" fill="#3D2D00"/>
<path d="M31.2384 12.3499L23.7187 13.7643L21.4297 31.1902L26.1179 31.8424L26.6647 27.1587H29.8269L30.806 31.6221L35.1678 30.8599L31.2426 12.3457L31.2384 12.3499ZM27.097 22.8055L28.0762 18.3421L29.492 22.8055H27.0928H27.097Z" fill="#3D2D00"/>
<path d="M30.2611 5.63641L24.0427 0L21.2578 2.31216L28.7521 8.93526L31.5455 6.73744L30.2781 5.62371L30.2611 5.63641Z" fill="#3D2D00"/>
<path d="M117.483 109.238L112.035 109.643L117.179 110.537L113.458 113.249L118.46 112.862L117.737 116.958L120.372 113.521L122.533 115.411L121.485 112.874L124.847 114.175L122.247 110.865L125.297 109.108L120.932 109.34L122.216 106L119.62 108.101L118.721 103.528L118.815 108.564L115.16 106.54L117.483 109.238Z" fill="#FF8F01"/>
<path d="M41.3818 101.091L34.2699 101.635L40.9793 102.771L36.1125 106.291L42.642 105.773L41.6809 111.07L45.1347 106.617L47.9464 109.052L46.5894 105.777L50.9719 107.447L47.5923 103.177L51.5797 100.894L45.8824 101.21L47.573 96.8872L44.1753 99.613L43.0216 93.704L43.1235 100.215L38.3622 97.6108L41.3818 101.091Z" fill="#FF8F01"/>
</svg>
