<svg width="98" height="23" viewBox="0 0 98 23" fill="none" xmlns="http://www.w3.org/2000/svg">
<g clip-path="url(#clip0_1252_989)">
<path d="M11.7212 16.2025L6.91059 18.1785C6.57828 18.3151 6.22477 18.036 6.27913 17.6821L7.07431 12.5421L3.70998 8.57727C3.47756 8.30343 3.63334 7.8813 3.98809 7.82232L9.12145 6.98954L11.8525 2.56378C12.0414 2.25904 12.4919 2.27605 12.6563 2.59598L15.0338 7.222L20.0874 8.45351C20.4365 8.53868 20.559 8.97149 20.3059 9.22622L16.6416 12.9166L17.0327 18.1028C17.0595 18.4596 16.6841 18.711 16.3637 18.5493L11.7221 16.2056L11.7212 16.2025Z" fill="#FFB802"/>
</g>
<g clip-path="url(#clip1_1252_989)">
<path d="M30.4947 16.2025L25.684 18.1785C25.3517 18.3151 24.9982 18.036 25.0526 17.6821L25.8477 12.5421L22.4834 8.57727C22.251 8.30343 22.4068 7.8813 22.7615 7.82232L27.8949 6.98954L30.626 2.56378C30.8148 2.25904 31.2654 2.27605 31.4298 2.59598L33.8072 7.222L38.8608 8.45351C39.2099 8.53868 39.3324 8.97149 39.0793 9.22622L35.415 12.9166L35.8062 18.1028C35.8329 18.4596 35.4576 18.711 35.1372 18.5493L30.4955 16.2056L30.4947 16.2025Z" fill="#FFB802"/>
</g>
<g clip-path="url(#clip2_1252_989)">
<path d="M49.2486 16.2025L44.4379 18.1785C44.1056 18.3151 43.7521 18.036 43.8065 17.6821L44.6017 12.5421L41.2373 8.57727C41.0049 8.30343 41.1607 7.8813 41.5154 7.82232L46.6488 6.98954L49.3799 2.56378C49.5687 2.25904 50.0193 2.27605 50.1837 2.59598L52.5611 7.222L57.6147 8.45351C57.9638 8.53868 58.0863 8.97149 57.8332 9.22622L54.1689 12.9166L54.5601 18.1028C54.5868 18.4596 54.2115 18.711 53.8911 18.5493L49.2494 16.2056L49.2486 16.2025Z" fill="#FFB802"/>
</g>
<g clip-path="url(#clip3_1252_989)">
<path d="M68.0103 16.2025L63.1997 18.1785C62.8673 18.3151 62.5138 18.036 62.5682 17.6821L63.3634 12.5421L59.999 8.57727C59.7666 8.30343 59.9224 7.8813 60.2771 7.82232L65.4105 6.98954L68.1416 2.56378C68.3305 2.25904 68.781 2.27605 68.9454 2.59598L71.3228 7.222L76.3764 8.45351C76.7255 8.53868 76.848 8.97149 76.5949 9.22622L72.9307 12.9166L73.3218 18.1028C73.3485 18.4596 72.9732 18.711 72.6528 18.5493L68.0111 16.2056L68.0103 16.2025Z" fill="#FFB802"/>
</g>
<g clip-path="url(#clip4_1252_989)">
<path d="M86.772 16.2025L81.9614 18.1785C81.6291 18.3151 81.2755 18.036 81.3299 17.6821L82.1251 12.5421L78.7608 8.57727C78.5283 8.30343 78.6841 7.8813 79.0389 7.82232L84.1722 6.98954L86.9033 2.56378C87.0922 2.25904 87.5427 2.27605 87.7071 2.59598L90.0845 7.222L95.1381 8.45351C95.4872 8.53868 95.6098 8.97149 95.3567 9.22622L91.6924 12.9166L92.0835 18.1028C92.1102 18.4596 91.7349 18.711 91.4145 18.5493L86.7728 16.2056L86.772 16.2025Z" fill="#FFB802"/>
</g>
<defs>
<clipPath id="clip0_1252_989">
<rect width="16.6881" height="16.6209" fill="white" transform="translate(8.30859) rotate(30)"/>
</clipPath>
<clipPath id="clip1_1252_989">
<rect width="16.6881" height="16.6209" fill="white" transform="translate(27.0742) rotate(30)"/>
</clipPath>
<clipPath id="clip2_1252_989">
<rect width="16.6881" height="16.6209" fill="white" transform="translate(45.8359) rotate(30)"/>
</clipPath>
<clipPath id="clip3_1252_989">
<rect width="16.6881" height="16.6209" fill="white" transform="translate(64.5977) rotate(30)"/>
</clipPath>
<clipPath id="clip4_1252_989">
<rect width="16.6881" height="16.6209" fill="white" transform="translate(83.3594) rotate(30)"/>
</clipPath>
</defs>
</svg>
