<svg width="108" height="156" viewBox="0 0 108 156" fill="none" xmlns="http://www.w3.org/2000/svg">
<g clip-path="url(#clip0_522_2386)">
<path d="M7.83294 122.029C8.86568 124.237 9.22435 126.42 8.88856 127.788L36.1429 114.695L36.4727 115.4L7.99767 129.079C7.55593 129.292 7.02335 129.233 6.44735 128.961C5.19326 128.364 3.75076 126.695 2.71802 124.486C1.21659 121.274 1.1436 118.119 2.56183 117.438C3.98006 116.757 6.3346 118.809 7.83876 122.026L7.83294 122.029Z" fill="#260E09"/>
<path d="M27.1535 134.135C28.5598 136.121 29.2982 138.204 29.2094 139.61L53.7107 121.782L54.1596 122.416L28.5611 141.042C28.164 141.331 27.6297 141.371 27.0148 141.207C25.6756 140.847 23.9616 139.467 22.5553 137.481C20.5109 134.594 19.8817 131.503 21.1567 130.575C22.4317 129.648 25.1106 131.239 27.1588 134.131L27.1535 134.135Z" fill="#260E09"/>
<path d="M107.273 77.8277C107.273 104.305 86.3272 125.768 60.4882 125.768C34.6492 125.768 13.7031 104.305 13.7031 77.8277C13.7031 51.3505 34.6492 0 60.4882 0C86.3272 0 107.273 51.3505 107.273 77.8277Z" fill="#F4D4AB"/>
<path d="M69.0044 54.6768C71.408 54.6768 73.3565 51.606 73.3565 47.8179C73.3565 44.0298 71.408 40.959 69.0044 40.959C66.6008 40.959 64.6523 44.0298 64.6523 47.8179C64.6523 51.606 66.6008 54.6768 69.0044 54.6768Z" fill="#260E09"/>
<path d="M52.231 54.6495C54.6346 54.6495 56.5831 51.5786 56.5831 47.7905C56.5831 44.0025 54.6346 40.9316 52.231 40.9316C49.8274 40.9316 47.8789 44.0025 47.8789 47.7905C47.8789 51.5786 49.8274 54.6495 52.231 54.6495Z" fill="#260E09"/>
<path d="M58.5959 71.9558C59.6154 72.1489 60.6926 72.1342 61.7952 71.9119C67.2242 70.7982 68.3195 62.1907 68.3669 61.8283L67.417 61.7146C67.4016 61.7979 66.3581 69.9841 61.608 70.9611C59.4217 71.4092 57.3341 70.9009 55.7145 69.5394C54.0117 68.1024 53.045 65.9029 53.0601 63.5047L52.1025 63.5023C52.0855 66.192 53.1761 68.6671 55.1031 70.2924C56.1283 71.1566 57.3126 71.7193 58.5885 71.961L58.5959 71.9558Z" fill="#260E09"/>
<path d="M96.7055 103.798C94.2941 103.798 92.6334 102.976 92.6016 102.956L93.0279 102.083C93.2951 102.22 99.6705 105.336 105.422 98.0535C111.2 90.7512 97.0427 72.0457 96.8964 71.8567L97.6472 71.2568C98.2517 72.0523 112.415 90.7708 106.161 98.6729C102.89 102.806 99.346 103.798 96.7055 103.798Z" fill="#260E09"/>
<path d="M16.4312 98.0739C18.8427 98.0739 20.5033 97.2524 20.5352 97.2328L20.1088 96.3592C19.8416 96.4961 13.4662 99.6126 7.71428 92.3299C1.93694 85.0276 16.094 66.3221 16.2403 66.133L15.4895 65.5332C14.8851 66.3286 0.721655 85.0472 6.9762 92.9493C10.2466 97.0829 13.7907 98.0739 16.4312 98.0739Z" fill="#260E09"/>
<path d="M90.446 99.291C93.3411 99.291 95.6889 100.882 95.6889 102.844C95.6889 104.807 93.3411 106.398 90.446 106.398C87.551 106.398 81.2773 104.807 81.2773 102.844C81.2773 100.882 87.5446 99.291 90.446 99.291Z" fill="#260E09"/>
<path d="M22.6868 93.5684C19.7918 93.5684 17.4439 95.1592 17.4439 97.1217C17.4439 99.0842 19.7918 100.675 22.6868 100.675C25.5818 100.675 31.8555 99.0842 31.8555 97.1217C31.8555 95.1592 25.5882 93.5684 22.6868 93.5684Z" fill="#260E09"/>
<ellipse cx="43.1025" cy="57.342" rx="5.38763" ry="5.46114" fill="#F3695B"/>
<ellipse cx="78.1181" cy="57.342" rx="5.38763" ry="5.46114" fill="#F3695B"/>
</g>
<defs>
<clipPath id="clip0_522_2386">
<rect width="107.753" height="155.642" fill="white"/>
</clipPath>
</defs>
</svg>
