<svg width="85" height="111" viewBox="0 0 85 111" fill="none" xmlns="http://www.w3.org/2000/svg">
<g clip-path="url(#clip0_522_2400)">
<path d="M43.8006 83.3786L43.2045 83.2592L40.7785 95.369L30.6292 96.4143L30.4646 96.4311C30.1936 96.4845 29.9677 96.6837 29.7957 96.9849C29.3612 97.7306 29.2384 99.1272 29.5416 100.646C29.9684 102.787 31.0815 104.369 32.0251 104.177C32.9639 103.988 33.3796 102.099 32.9529 99.9584C32.6876 98.6415 32.1655 97.5342 31.581 96.924L41.2868 95.9266L43.8006 83.3786Z" fill="#260E09"/>
<path d="M63.1343 98.3569C61.6524 98.7603 60.4587 99.4783 59.9463 100.2L54.9566 81.8233L54.4844 81.9524L59.6935 101.152C59.7744 101.45 60.0214 101.682 60.3893 101.847C61.1942 102.203 62.5843 102.216 64.0662 101.813C66.2223 101.221 67.7581 99.971 67.499 99.0159C67.2398 98.0607 65.2856 97.7686 63.1295 98.3601L63.1343 98.3569Z" fill="#260E09"/>
<path d="M70.4958 49.4719C74.2123 65.5386 64.2298 81.5957 48.1918 85.3395C32.1584 89.0801 16.148 79.09 12.4282 63.0185C8.71169 46.9517 14.504 12.7567 30.5373 9.01604C46.5706 5.27542 66.7792 33.4051 70.4958 49.4719Z" fill="#F4D4AB"/>
<path d="M45.2166 40.5446C46.7081 40.1966 47.486 38.051 46.9541 35.7523C46.4222 33.4536 44.782 31.8723 43.2905 32.2204C41.7991 32.5684 41.0212 34.714 41.553 37.0127C42.0849 39.3114 43.7251 40.8927 45.2166 40.5446Z" fill="#260E09"/>
<path d="M33.0877 43.3757C34.5792 43.0276 35.3571 40.882 34.8252 38.5833C34.2933 36.2847 32.6531 34.7034 31.1616 35.0514C29.6702 35.3995 28.8922 37.5451 29.4241 39.8438C29.956 42.1425 31.5962 43.7237 33.0877 43.3757Z" fill="#260E09"/>
<path d="M69.7374 15.2362C71.1974 16.3657 72.9849 16.5 73.7328 15.5311C74.4807 14.5622 73.8994 12.863 72.4394 11.7336C70.9794 10.6041 67.2164 8.94289 66.4692 9.90778C65.7221 10.8727 68.2773 14.1068 69.7374 15.2362Z" fill="#260E09"/>
<path d="M46.0885 42.9255C46.9666 46.1965 44.9643 48.3312 41.6992 49.2184C38.4341 50.1056 35.1448 49.4011 34.2627 46.1293" fill="#260E09"/>
<path d="M61.4172 38.7864L61.1275 38.2518C61.2715 38.1729 75.6954 30.1903 76.0394 22.5318C76.1672 19.686 75.5544 17.6283 74.2225 16.4168C72.6284 14.9663 70.5083 15.2543 70.4876 15.2543L70.4015 14.6528C70.4993 14.6392 72.8157 14.3202 74.6242 15.9586C76.1 17.2984 76.7802 19.5146 76.6458 22.558C76.2873 30.5574 62.0255 38.4525 61.4172 38.7864Z" fill="#260E09"/>
<path d="M12.814 69.7031C11.161 69.3719 9.07295 68.3239 7.53648 65.3892C4.59767 59.7786 15.7347 50.11 16.2088 49.7036L16.6043 50.164C16.4897 50.2612 5.36219 59.9235 8.07323 65.1031C10.7787 70.2691 15.1377 69.1618 15.3206 69.1155L15.4799 69.7027C15.4576 69.7106 14.316 70.004 12.814 69.7031Z" fill="#260E09"/>
<path d="M17.2665 67.7341C15.4586 67.3719 13.7976 68.0501 13.5574 69.2491C13.3172 70.4482 14.5887 71.7139 16.3967 72.0761C18.2047 72.4383 22.3173 72.2512 22.5575 71.0521C22.7977 69.8531 19.0785 68.097 17.2665 67.7341Z" fill="#260E09"/>
<ellipse cx="26.4468" cy="46.1019" rx="3.02336" ry="3.02336" transform="rotate(-16.9871 26.4468 46.1019)" fill="#F3695B"/>
<ellipse cx="52.146" cy="40.055" rx="3.02336" ry="3.02336" transform="rotate(-16.9871 52.146 40.055)" fill="#F3695B"/>
</g>
<defs>
<clipPath id="clip0_522_2400">
<rect width="66.5139" height="99.7705" fill="white" transform="matrix(0.980518 0.196427 -0.196429 0.980518 19.5978 0)"/>
</clipPath>
</defs>
</svg>
