<svg width="41" height="58" viewBox="0 0 41 58" fill="none" xmlns="http://www.w3.org/2000/svg">
<g clip-path="url(#clip0_522_2352)">
<path d="M28.3444 55.8596C27.4268 55.8596 26.6279 56.0855 26.2187 56.4184V45.0259H25.9258V56.9286C25.9258 57.1133 26.0323 57.2858 26.2187 57.4388C26.6255 57.7717 27.4268 57.9976 28.3444 57.9976C29.6784 57.9976 30.7606 57.519 30.7606 56.9262C30.7606 56.3334 29.6808 55.8571 28.3444 55.8571V55.8596Z" fill="#260E09"/>
<path d="M17.0138 55.8596C17.9314 55.8596 18.7303 56.0855 19.1395 56.4184V45.0259H19.4324V56.9286C19.4324 57.1133 19.3259 57.2858 19.1395 57.4388C18.7328 57.7717 17.9314 57.9976 17.0138 57.9976C15.6799 57.9976 14.5977 57.519 14.5977 56.9262C14.5977 56.3334 15.6774 55.8571 17.0138 55.8571V55.8596Z" fill="#260E09"/>
<path d="M40.8184 29.0024C40.8184 38.8691 32.8484 46.8675 23.0166 46.8675C13.1848 46.8675 5.21484 38.8691 5.21484 29.0024C5.21484 19.1357 13.1848 0 23.0166 0C32.8484 0 40.8184 19.1357 40.8184 29.0024Z" fill="#F4D4AB"/>
<path d="M27.3122 20.3653C28.2268 20.3653 28.9682 19.221 28.9682 17.8094C28.9682 16.3978 28.2268 15.2534 27.3122 15.2534C26.3977 15.2534 25.6562 16.3978 25.6562 17.8094C25.6562 19.221 26.3977 20.3653 27.3122 20.3653Z" fill="#260E09"/>
<path d="M19.8747 20.3653C20.7893 20.3653 21.5307 19.221 21.5307 17.8094C21.5307 16.3978 20.7893 15.2534 19.8747 15.2534C18.9602 15.2534 18.2188 16.3978 18.2188 17.8094C18.2188 19.221 18.9602 20.3653 19.8747 20.3653Z" fill="#260E09"/>
<path d="M22.6512 26.8474C22.2566 26.8474 21.8547 26.7672 21.4577 26.6093C19.5039 25.8245 19.6879 22.5955 19.6952 22.4595L20.0583 22.4838C20.0583 22.5154 19.884 25.5864 21.5932 26.274C22.3801 26.5898 23.196 26.5485 23.8956 26.1622C24.6316 25.754 25.1449 25.0154 25.3047 24.1359L25.663 24.2015C25.4838 25.1879 24.9052 26.0189 24.0724 26.4805C23.6293 26.7259 23.1475 26.8498 22.6536 26.8498L22.6512 26.8474Z" fill="#260E09"/>
<path d="M7.74423 22.1146C7.4174 21.9445 -0.25724 17.9138 0.00665111 13.8101C0.256016 9.90086 3.87302 8.40178 3.90934 8.38721L4.04491 8.72492C4.01102 8.7395 0.604643 10.156 0.367383 13.8344C0.120439 17.7024 7.83139 21.7526 7.90886 21.7914L7.74181 22.1146H7.74423Z" fill="#260E09"/>
<path d="M36.7959 38.6795C35.8784 38.6795 35.2465 38.3733 35.2344 38.3661L35.3966 38.0405C35.4983 38.0915 37.9241 39.2529 40.1127 36.539C42.311 33.8178 36.9242 26.8472 36.8686 26.7767L37.1542 26.5532C37.3842 26.8496 42.7734 33.8251 40.3936 36.7698C39.1492 38.3102 37.8007 38.6795 36.7959 38.6795Z" fill="#260E09"/>
<path d="M34.4184 37.001C35.5199 37.001 36.4133 37.5938 36.4133 38.3251C36.4133 39.0564 35.5199 39.6493 34.4184 39.6493C33.3168 39.6493 30.9297 39.0564 30.9297 38.3251C30.9297 37.5938 33.3144 37.001 34.4184 37.001Z" fill="#260E09"/>
<path d="M5.68024 9.08933C4.69247 9.58012 3.62964 9.44892 3.30522 8.79292C2.98081 8.13692 3.52069 7.2088 4.50847 6.71802C5.49625 6.22723 7.89548 5.69515 8.2199 6.34872C8.54431 7.00228 6.66802 8.59855 5.68024 9.08933Z" fill="#260E09"/>
<ellipse cx="16.4016" cy="21.3686" rx="2.05" ry="2.03509" fill="#F3695B"/>
<ellipse cx="30.7492" cy="21.3686" rx="2.05" ry="2.03509" fill="#F3695B"/>
</g>
<defs>
<clipPath id="clip0_522_2352">
<rect width="41" height="58" fill="white"/>
</clipPath>
</defs>
</svg>
