<svg width="96" height="125" viewBox="0 0 96 125" fill="none" xmlns="http://www.w3.org/2000/svg">
<g clip-path="url(#clip0_522_2324)">
<path d="M49.1843 93.6224L48.515 93.4883L45.7909 107.086L34.3945 108.26L34.2097 108.279C33.9053 108.339 33.6517 108.562 33.4586 108.901C32.9706 109.738 32.8328 111.306 33.1733 113.012C33.6524 115.416 34.9023 117.192 35.9619 116.976C37.0161 116.764 37.4828 114.643 37.0037 112.239C36.7058 110.761 36.1196 109.517 35.4632 108.832L46.3616 107.712L49.1843 93.6224Z" fill="#260E09"/>
<path d="M70.8987 110.441C69.2347 110.894 67.8944 111.7 67.319 112.511L61.7163 91.8758L61.186 92.0208L67.0352 113.58C67.126 113.914 67.4033 114.175 67.8164 114.36C68.7202 114.76 70.2812 114.774 71.9452 114.322C74.3662 113.657 76.0907 112.254 75.7997 111.181C75.5087 110.108 73.3143 109.78 70.8933 110.445L70.8987 110.441Z" fill="#260E09"/>
<path d="M79.1627 55.5501C83.3359 73.591 72.1268 91.6211 54.1181 95.8249C36.1147 100.025 18.1369 88.8076 13.9602 70.7612C9.78692 52.7203 16.2909 14.3235 34.2943 10.1232C52.2977 5.92298 74.9895 37.5091 79.1627 55.5501Z" fill="#F4D4AB"/>
<path d="M50.7733 45.5267C52.448 45.1358 53.3215 42.7266 52.7242 40.1455C52.127 37.5643 50.2852 35.7887 48.6105 36.1796C46.9358 36.5704 46.0623 38.9796 46.6595 41.5608C47.2567 44.1419 49.0985 45.9175 50.7733 45.5267Z" fill="#260E09"/>
<path d="M37.1561 48.7044C38.8308 48.3136 39.7043 45.9043 39.1071 43.3232C38.5098 40.7421 36.668 38.9665 34.9933 39.3573C33.3186 39.7481 32.4451 42.1574 33.0423 44.7385C33.6395 47.3196 35.4813 49.0952 37.1561 48.7044Z" fill="#260E09"/>
<path d="M78.3059 17.1075C79.9453 18.3757 81.9524 18.5265 82.7923 17.4386C83.6321 16.3507 82.9794 14.4427 81.34 13.1744C79.7006 11.9062 75.4752 10.0408 74.6362 11.1243C73.7973 12.2078 76.6665 15.8392 78.3059 17.1075Z" fill="#260E09"/>
<path d="M51.7534 48.199C52.7393 51.8719 50.491 54.2688 46.8247 55.2651C43.1583 56.2614 39.4649 55.4703 38.4745 51.7964" fill="#260E09"/>
<path d="M68.965 43.5512L68.6397 42.951C68.8013 42.8624 84.9976 33.8989 85.3838 25.2993C85.5274 22.1039 84.8393 19.7933 83.3436 18.4329C81.5537 16.8042 79.1731 17.1276 79.1499 17.1276L79.0532 16.4522C79.163 16.437 81.764 16.0787 83.7948 17.9185C85.4518 19.4229 86.2156 21.9114 86.0647 25.3287C85.6622 34.3111 69.648 43.1762 68.965 43.5512Z" fill="#260E09"/>
<path d="M14.3869 78.2675C12.5308 77.8957 10.1862 76.7188 8.46095 73.4235C5.16103 67.1236 17.6666 56.2669 18.1989 55.8106L18.6429 56.3276C18.5143 56.4367 6.01949 67.2863 9.06364 73.1023C12.1016 78.903 16.9962 77.6597 17.2015 77.6078L17.3803 78.267C17.3553 78.276 16.0734 78.6054 14.3869 78.2675Z" fill="#260E09"/>
<path d="M19.3953 76.0568C17.3652 75.6501 15.5001 76.4117 15.2304 77.7581C14.9607 79.1045 16.3884 80.5257 18.4186 80.9324C20.4487 81.3391 25.0667 81.129 25.3364 79.7826C25.6061 78.4363 21.4299 76.4644 19.3953 76.0568Z" fill="#260E09"/>
<ellipse cx="29.6995" cy="51.7666" rx="3.39485" ry="3.39485" transform="rotate(-16.9871 29.6995 51.7666)" fill="#F3695B"/>
<ellipse cx="58.5589" cy="44.9766" rx="3.39485" ry="3.39485" transform="rotate(-16.9871 58.5589 44.9766)" fill="#F3695B"/>
</g>
<defs>
<clipPath id="clip0_522_2324">
<rect width="74.6868" height="112.03" fill="white" transform="translate(22.0078) rotate(11.3281)"/>
</clipPath>
</defs>
</svg>
