<svg width="22" height="28" viewBox="0 0 22 28" fill="none" xmlns="http://www.w3.org/2000/svg">
<g clip-path="url(#clip0_569_624)">
<g clip-path="url(#clip1_569_624)">
<path d="M20.7675 15.0339C21.4968 14.6773 22 13.9117 22 13.0283C22 11.8504 21.0987 10.8787 19.9618 10.8133C19.9713 10.8035 19.9809 10.7936 19.9904 10.7806C20.4236 10.2276 20.5764 9.47184 20.414 8.70624L19.1465 2.74176C18.8185 1.20402 17.6401 0 16.465 0H5.75159C4.57643 0 3.39172 1.20402 3.05733 2.73849L1.76115 8.70297C1.59236 9.47184 1.74522 10.2276 2.17516 10.7806C2.18153 10.7904 2.1879 10.8002 2.19745 10.8067H2.16561C0.971338 10.8067 0 11.8046 0 13.0283C0 13.9542 0.55414 14.7492 1.34076 15.0862C1.25478 15.1582 1.17197 15.24 1.09554 15.3283C0.592357 15.9107 0.363057 16.6763 0.452229 17.4877L1.28981 25.0358C1.47134 26.6684 2.7707 28 4.18471 28H18.1561C19.5764 28 20.8567 26.6684 21.0159 25.0325L21.7452 17.4812C21.8248 16.6731 21.586 15.9075 21.0764 15.3283C20.9809 15.2204 20.8758 15.119 20.7675 15.0339ZM2.53822 8.88292L3.83439 2.91844C4.0828 1.77986 4.96178 0.817948 5.75159 0.817948H16.465C17.2548 0.817948 18.1274 1.77658 18.3694 2.91517L19.6369 8.87964C19.7484 9.41295 19.6561 9.90372 19.3694 10.2669C19.0987 10.6137 18.6752 10.8067 18.1815 10.8067H3.98089C3.48726 10.8067 3.06688 10.617 2.79618 10.2702C2.51274 9.90699 2.42357 9.41295 2.53822 8.88292ZM0.796178 13.0283C0.796178 12.2561 1.41083 11.6247 2.16561 11.6247H19.8344C20.5892 11.6247 21.2038 12.2561 21.2038 13.0283C21.2038 13.8004 20.5892 14.4351 19.8344 14.4351H2.16561C1.41083 14.4351 0.796178 13.8037 0.796178 13.0283ZM20.9522 17.4027L20.2229 24.9507C20.1083 26.158 19.1592 27.1821 18.1561 27.1821H4.18471C3.17834 27.1821 2.21656 26.158 2.07962 24.9441L1.24522 17.3961C1.18153 16.8203 1.33758 16.2772 1.69108 15.8747C2.03822 15.4723 2.53503 15.2531 3.08917 15.2531H19.0701C19.6274 15.2531 20.1306 15.4756 20.4841 15.878C20.8439 16.2837 21.0096 16.8236 20.9522 17.4027Z" fill="black"/>
<path d="M11.0783 24.7084C10.7248 24.7084 10.4414 24.5251 10.4414 24.2994V18.24C10.4414 18.0143 10.728 17.8311 11.0783 17.8311C11.4287 17.8311 11.7153 18.0143 11.7153 18.24V24.2994C11.7153 24.5251 11.4287 24.7084 11.0783 24.7084Z" fill="#F3695B"/>
<path d="M6.4578 23.3673C6.13615 23.3673 5.875 23.1841 5.875 22.9584V19.1565C5.875 18.9308 6.13615 18.7476 6.4578 18.7476C6.77946 18.7476 7.04061 18.9308 7.04061 19.1565V22.9584C7.04061 23.1841 6.77946 23.3673 6.4578 23.3673Z" fill="#F3695B"/>
<path d="M15.2913 23.3673C14.9728 23.3673 14.7148 23.1841 14.7148 22.9584V19.1565C14.7148 18.9308 14.9728 18.7476 15.2913 18.7476C15.6097 18.7476 15.8677 18.9308 15.8677 19.1565V22.9584C15.8677 23.1841 15.6097 23.3673 15.2913 23.3673Z" fill="#F3695B"/>
</g>
</g>
<defs>
<clipPath id="clip0_569_624">
<rect width="22" height="28" fill="white"/>
</clipPath>
<clipPath id="clip1_569_624">
<rect width="22" height="28" fill="white"/>
</clipPath>
</defs>
</svg>
