<svg width="275" height="405" viewBox="0 0 275 405" fill="none" xmlns="http://www.w3.org/2000/svg">
<path d="M166.44 66.9303C165.875 67.6115 146.593 52.9933 146.593 52.9933C146.593 52.9933 162.551 41.4893 172.288 36.44C179.484 32.7079 183.296 31.4455 193.902 31.7548C199.987 31.9309 205.305 28.6098 208.802 28.434C208.802 28.434 214.103 34.9154 214.005 42.8454C218.96 41.8469 221.253 28.8555 221.253 28.8555L233.486 33.2096L227.69 47.1175C226.696 49.5072 225.336 51.7236 223.67 53.7L217.763 60.6865" fill="black"/>
<path d="M90.0442 252.696C90.0442 252.696 154.376 263.686 180.759 208.47C181.87 206.144 190.776 187.006 191.657 184.579C196.195 172.056 203.154 140.278 201.253 110.758L201.103 110.024C200.348 106.876 211.266 58.2256 211.266 58.2256C211.266 58.2256 171.465 41.5535 144.619 95.711C117.774 149.869 78.5368 233.018 78.5368 233.018L90.0492 252.697L90.0442 252.696Z" fill="#CC2222"/>
<mask id="mask0_522_2458" style="mask-type:luminance" maskUnits="userSpaceOnUse" x="78" y="55" width="134" height="199">
<path d="M90.0442 252.696C90.0442 252.696 154.376 263.686 180.759 208.47C181.87 206.144 190.776 187.006 191.657 184.579C196.195 172.056 203.154 140.278 201.253 110.758L201.103 110.024C200.348 106.876 211.266 58.2256 211.266 58.2256C211.266 58.2256 171.465 41.5535 144.619 95.711C117.774 149.869 78.5368 233.018 78.5368 233.018L90.0492 252.697L90.0442 252.696Z" fill="white"/>
</mask>
<g mask="url(#mask0_522_2458)">
<path d="M91.5172 262.668C66.1972 253.876 58.3425 210.234 73.9734 165.192C89.6042 120.15 122.801 90.7638 148.122 99.5562C173.442 108.349 181.296 151.99 165.665 197.032C150.034 242.074 116.837 271.461 91.5172 262.668Z" fill="#9B1717"/>
</g>
<path d="M208.933 69.5286C208.933 69.5286 193.14 64.4041 185.612 70.5686C178.083 76.7332 173.676 88.7883 178.104 97.0494C182.532 105.311 191.259 109.097 201.183 110.267L208.928 69.5276L208.933 69.5286Z" fill="#FBFDE7"/>
<path d="M156.233 165.543C156.723 163.841 157.226 162.147 157.804 160.472C161.088 151 170.545 120.832 162.82 107.825C153.593 92.2958 142.969 91.07 120.832 107.262C98.6949 123.454 70.7195 175.892 66.5756 196.299C62.4317 216.705 55.177 253.476 56.1 259.748C56.1 259.748 102.794 241.474 118.91 223.245C119.94 222.081 120.977 220.935 122.046 219.81C129.032 212.463 151.606 181.619 156.227 165.547L156.233 165.543Z" fill="#12228B"/>
<mask id="mask1_522_2458" style="mask-type:luminance" maskUnits="userSpaceOnUse" x="56" y="95" width="110" height="165">
<path d="M156.233 165.543C156.723 163.841 157.226 162.147 157.804 160.472C161.088 151 170.545 120.832 162.82 107.825C153.593 92.2958 142.969 91.07 120.832 107.262C98.6949 123.454 70.7195 175.892 66.5756 196.299C62.4317 216.705 55.177 253.476 56.1 259.748C56.1 259.748 102.794 241.474 118.91 223.245C119.94 222.081 120.977 220.935 122.046 219.81C129.032 212.463 151.606 181.619 156.227 165.547L156.233 165.543Z" fill="white"/>
</mask>
<g mask="url(#mask1_522_2458)">
<path d="M66.8261 222.368C49.7503 214.375 48.7262 180.487 64.5386 146.676C80.3511 112.865 107.012 91.9359 124.088 99.9288C141.164 107.922 142.188 141.81 126.376 175.621C110.563 209.431 83.902 230.361 66.8261 222.368Z" fill="#091355"/>
</g>
<path d="M30.5331 204.816L27.2765 221.946C27.2765 221.946 166.66 256.128 181.27 253.079C181.525 253.127 194.134 270.368 194.134 270.368L200.01 265.913L194.336 253.975L213.136 256.755L215.422 244.733C215.422 244.733 208.543 243.523 197.39 241.486L214.378 220.875L211.66 217.858L205.762 224.529L201.831 212.477L198.224 213.56L202.73 228.503L192.584 240.609C149.329 232.666 57.3988 215.132 30.5331 204.816Z" fill="#825440"/>
<path d="M162.999 246.161C162.999 246.161 160.089 249.846 154.794 248.928C154.438 248.948 166.953 234.658 149.026 232.386C149.026 232.386 159.161 225.031 169.267 232.69C170.79 233.95 173.582 239.69 170.151 245.222C169.786 246.211 166.026 249.735 162.319 249.736C161.553 249.59 162.57 249.343 163 246.156L162.999 246.161Z" fill="#091355"/>
<path d="M131.362 241.291C131.362 241.291 128.453 244.977 123.157 244.059C122.801 244.079 135.317 229.789 117.39 227.517C117.39 227.517 127.524 220.161 137.63 227.821C139.153 229.081 141.945 234.821 138.514 240.353C138.149 241.342 134.389 244.866 130.682 244.867C129.917 244.721 130.933 244.473 131.363 241.286L131.362 241.291Z" fill="#091355"/>
<path d="M193.075 262.8C193.075 262.8 176.579 265.299 179.987 281.382C179.987 281.382 186.329 283.174 190.359 277.875C190.359 277.875 195.832 270.603 193.075 262.8Z" fill="#48D673"/>
<path d="M200.292 200.183C200.292 200.183 190.97 210.085 201.235 218.677C201.235 218.677 206.206 216.639 206.123 211.212C206.123 211.212 205.978 203.796 200.287 200.182L200.292 200.183Z" fill="#48D673"/>
<path d="M236.722 195.4C236.722 195.4 237.415 223.393 209.678 223.303C209.678 223.303 207.046 217.511 209.805 210.362C211.703 205.451 215.619 201.599 220.42 199.445C224.824 197.47 231.638 194.926 236.721 195.405L236.722 195.4Z" fill="#48D673"/>
<path d="M210.602 250.747C210.602 250.747 210.96 270.93 230.771 269.399C230.771 269.399 233.931 262.077 228.223 256.401C228.223 256.401 220.385 248.679 210.597 250.746L210.602 250.747Z" fill="#48D673"/>
<path d="M210.501 247.688C210.501 247.688 227.383 250.737 229.93 233.908C229.93 233.908 226.671 231.768 222.083 232.774C218.93 233.461 216.228 235.48 214.475 238.187C212.867 240.672 210.685 244.564 210.5 247.693L210.501 247.688Z" fill="#48D673"/>
<path d="M78.9156 249.161C75.015 260.897 58.9728 309.01 47.5235 340.708C46.6632 341.852 39.5715 355.264 33.4564 354.268C32.5731 354.359 29.407 354.432 28.2798 351.416C39.448 323.514 58.7917 274.426 66.4491 254.983C70.3212 253.188 74.7802 251.114 78.9206 249.162L78.9156 249.161Z" fill="#CC2222"/>
<path d="M92.2448 242.64C92.2448 242.64 72.5205 337.23 57.5786 342.955C56.3312 343.953 51.1736 346.947 47.6067 340.619C47.5967 340.617 47.565 340.647 47.5226 340.707C58.9769 309.01 75.019 260.897 78.9147 249.16C85.0652 246.261 90.51 243.639 92.2448 242.64Z" fill="#12228B"/>
<path d="M56.1053 259.75C56.1053 259.75 60.6034 257.69 66.448 254.982C58.7906 274.425 39.4469 323.513 28.2787 351.415C28.2541 351.353 28.2277 351.301 28.2091 351.235C28.2091 351.235 17.1404 369.532 10.7633 367.349C9.40645 367.532 4.62158 366.711 6.54063 354.271C6.54063 354.271 43.1766 270.186 56.1053 259.75Z" fill="#FFC800"/>
<path d="M198.595 79.1531C196.979 78.8458 195.918 77.2856 196.226 75.6682C196.533 74.0508 198.093 72.9887 199.709 73.296C201.325 73.6033 202.386 75.1635 202.079 76.7809C201.771 78.3983 200.212 79.4604 198.595 79.1531Z" fill="black"/>
<path d="M245.615 108.659C245.615 108.659 260.651 87.1424 248.94 71.6704C237.229 56.1983 210.586 58.0182 210.586 58.0182L204.429 90.4057C204.429 90.4057 232.187 94.8008 233.038 94.9625C233.889 95.1242 242.195 95.9976 245.615 108.659Z" fill="#FFC800"/>
<path d="M234.939 95.3824C234.939 95.3824 231.631 116.192 200.352 109.892L204.249 90.321L234.939 95.3824Z" fill="black"/>
</svg>
