<svg width="117" height="120" viewBox="0 0 117 120" fill="none" xmlns="http://www.w3.org/2000/svg">
<path d="M77.3642 94.6292C93.7694 94.6292 107.068 81.3167 107.068 64.8949C107.068 48.4731 93.7694 35.1606 77.3642 35.1606C60.9591 35.1606 47.6602 48.4731 47.6602 64.8949C47.6602 81.3167 60.9591 94.6292 77.3642 94.6292Z" fill="#FFB801"/>
<path d="M91.1103 71.0492C87.5336 71.0492 84.0266 65.7624 83.8869 65.5247C83.7751 65.3568 83.831 65.1471 83.9847 65.0352C84.1524 64.9233 84.362 64.9792 84.4737 65.1331C84.5156 65.189 88.0505 70.5736 91.3758 70.3359C91.5854 70.3359 95.1342 70.5876 97.1322 65.203C97.2021 65.0212 97.3977 64.9373 97.5793 64.9932C97.7609 65.0631 97.8587 65.2589 97.7889 65.4408C95.6093 71.3429 91.5574 71.0352 91.3758 71.0212C91.292 71.0212 91.2082 71.0212 91.1383 71.0212L91.1103 71.0492Z" fill="#260E09"/>
<path d="M94.1019 64.2238L87.5352 64.2238L90.8185 55.4546L94.1019 64.2238ZM88.5411 63.5245L93.0959 63.5245L90.8185 57.4406L88.5411 63.5245Z" fill="#260E09"/>
<path d="M83.1338 59.6226C84.7156 59.6226 85.998 58.2012 85.998 56.4478C85.998 54.6944 84.7156 53.2729 83.1338 53.2729C81.5519 53.2729 80.2695 54.6944 80.2695 56.4478C80.2695 58.2012 81.5519 59.6226 83.1338 59.6226Z" fill="#260E09"/>
<path d="M70.9795 69.5244C74.7219 69.5244 77.7558 66.4875 77.7558 62.7412C77.7558 58.995 74.7219 55.958 70.9795 55.958C67.237 55.958 64.2031 58.995 64.2031 62.7412C64.2031 66.4875 67.237 69.5244 70.9795 69.5244Z" fill="#F3695B"/>
<path d="M59.1723 99.986L59.2142 99.986C59.2142 99.986 59.2841 99.93 59.326 99.9161C59.8429 100.979 61.1004 102.28 62.0645 102.406C62.5954 102.475 63.0006 102.196 63.1682 101.636C63.28 101.245 63.2241 100.853 63.0146 100.503C62.6233 99.8601 61.7291 99.4265 60.9328 99.1468L69.1482 96.4895L68.9386 95.8182L60.9886 98.3776C61.4777 97.7202 61.8549 97.007 61.7711 96.4755C61.7291 96.1958 61.5475 95.7342 60.7511 95.6783C60.2761 95.6503 59.8569 95.8042 59.5356 96.1258C59.2561 96.4056 59.0745 96.7832 58.9627 97.2028C58.823 97.6923 58.7671 98.2098 58.7531 98.6573L54.3381 93.5384L66.5913 86.7692L66.256 86.1538L50.6914 94.7552L55.1205 107.105L59.2002 99.958L59.1723 99.986ZM62.4138 100.867C62.5255 101.049 62.5535 101.231 62.4976 101.441C62.4138 101.72 62.302 101.72 62.1623 101.706C61.4777 101.608 60.332 100.406 59.9268 99.5804C60.7651 99.8042 62.0226 100.238 62.4138 100.881L62.4138 100.867ZM60.0246 96.6433C60.2062 96.4615 60.4158 96.3776 60.6952 96.4056C61.0445 96.4335 61.0725 96.5594 61.0725 96.6014C61.0725 96.6853 61.0725 96.7972 61.0445 96.9091C60.8769 97.4685 60.2481 98.2657 59.6893 98.7972C59.6194 98.7832 59.5495 98.7692 59.5216 98.7692L59.4517 98.7692C59.4797 98.014 59.6054 97.0909 60.0386 96.6433L60.0246 96.6433ZM53.6814 93.9021L58.5855 99.5944L55.2322 105.455L51.5157 95.0909L53.6814 93.9021Z" fill="#1E0720"/>
<path d="M45.8999 85.7203L45.9419 85.7203C45.9419 85.7203 46.0257 85.7483 46.0676 85.7623C45.7882 86.9092 45.9139 88.7133 46.5846 89.4266C46.9478 89.8182 47.4368 89.8602 47.9259 89.5385C48.2612 89.3147 48.4708 88.9791 48.5266 88.5735C48.6384 87.8182 48.2193 86.9231 47.7861 86.1959L55.792 89.4266L56.0575 88.7693L48.3031 85.6504C49.0995 85.4686 49.84 85.1469 50.1194 84.6994C50.2592 84.4616 50.4128 83.9861 49.84 83.4266C49.4907 83.091 49.0715 82.9511 48.6105 82.9931C48.2193 83.035 47.842 83.2168 47.4788 83.4546C47.0596 83.7343 46.6824 84.1119 46.389 84.4336L46.2632 77.6784L60.0115 80.3217L60.1372 79.6364L42.6725 76.2798L38.1875 88.6154L45.886 85.7483L45.8999 85.7203ZM47.8281 88.4756C47.8001 88.6854 47.7023 88.8392 47.5207 88.9651C47.2832 89.1329 47.1854 89.063 47.0875 88.9651C46.6125 88.4476 46.5147 86.7973 46.7383 85.9022C47.2412 86.6154 47.9259 87.7483 47.8141 88.4896L47.8281 88.4756ZM48.6943 83.6784C48.9458 83.6504 49.1554 83.7343 49.365 83.9161C49.6165 84.1679 49.5606 84.2658 49.5326 84.3078C49.4907 84.3777 49.4069 84.4616 49.3091 84.5315C48.834 84.8532 47.842 85.063 47.0596 85.105C47.0177 85.049 46.9758 84.9931 46.9478 84.9651L46.9059 84.9092C47.4089 84.3497 48.0935 83.7203 48.7083 83.6644L48.6943 83.6784ZM45.5646 77.5245L45.7043 85.049L39.3751 87.4127L43.1475 77.077L45.5646 77.5385L45.5646 77.5245Z" fill="#1E0720"/>
<path d="M76.1752 41.3986C76.1752 41.3986 78.0614 45.8321 79.3189 46.014C80.5763 46.1958 81.722 41.1888 81.9036 40.7692C82.0853 40.3496 90.7338 39.986 90.8596 39.3286C90.9853 38.6713 85.69 35.4125 85.0333 35.3286C84.3767 35.2447 86.4165 31.0769 86.1511 30.0839C85.8856 29.0909 78.8438 32.6153 78.3688 32.979C77.8937 33.3426 72.1653 32.5174 71.2571 33.2167C70.3489 33.916 73.2271 36.6993 73.9118 36.7272C74.5964 36.7552 69.1334 40.8811 69.7062 41.3706C70.2791 41.8601 73.9397 42.6573 76.1752 41.3846L76.1752 41.3986Z" fill="#20D39C"/>
<path d="M98.0418 58.9092C99.2687 58.9092 100.263 57.4878 100.263 55.7344C100.263 53.981 99.2687 52.5596 98.0418 52.5596C96.8149 52.5596 95.8203 53.981 95.8203 55.7344C95.8203 57.4878 96.8149 58.9092 98.0418 58.9092Z" fill="#260E09"/>
<path d="M21.8111 33.2449C21.9089 33.0631 22.1045 32.9931 22.2862 33.0491C22.3281 33.0491 22.384 33.0771 22.4398 33.105L20.875 35.2868C21.2802 34.3358 21.6015 33.6225 21.7971 33.2449L21.8111 33.2449Z" fill="#CB55E6"/>
<path d="M34.5128 32.6711C41.6524 35.0627 55.4286 40.0278 56.5603 41.6082L56.728 41.8599L56.8957 41.6082C56.9795 41.4823 57.217 41.1467 57.3148 41.0208C57.3986 40.9275 57.1704 40.4613 56.6302 39.6222C55.2889 37.5523 52.1452 32.7131 49.784 27.6222C47.1573 21.9579 46.2212 17.6502 47.0176 14.797C47.1852 14.1816 47.5345 13.6502 48.0096 13.2306C48.1912 13.0767 48.4008 12.9089 48.6104 12.769C50.8039 18.9648 58.5723 39.1187 58.9495 40.0697C59.3966 41.1886 58.4046 41.9159 57.2589 43.2026C56.2809 44.3215 30.6566 35.846 23.7266 33.5243C24.2435 33.2026 25.1098 32.7411 26.2834 32.3914C28.0858 31.846 30.9779 31.4404 34.5128 32.6711Z" fill="white"/>
<path d="M48.9581 11.1748C48.7485 10.8252 48.2734 10.7412 48.0499 10.979C48.022 11.007 48.1756 11.5105 48.469 12.3636C48.483 12.3636 48.497 12.3357 48.5249 12.3217L48.7485 12.6713C48.7485 12.6713 48.6647 12.7412 48.6227 12.7692C50.8163 18.965 58.5846 39.1189 58.9619 40.0699C59.409 41.1888 58.417 41.9161 57.2713 43.2028C56.2933 44.3217 30.669 35.8461 23.7389 33.5245C23.3896 33.7343 23.194 33.8881 23.194 33.8881L22.9286 33.5664C22.9286 33.5664 23.0403 33.4685 23.222 33.3566C22.8867 33.2447 22.6352 33.1608 22.4396 33.0909L20.8747 35.2727C20.5673 36.014 20.2041 36.8811 19.7989 37.8601C16.9905 44.7552 12.5056 56.5175 12.5196 56.8951C12.5196 57.4266 13.1762 57.7063 13.4696 57.5804C13.7631 57.4545 43.6069 65.1468 46.2336 65.0769C48.8603 65.007 50.6487 61.2867 50.9281 60.8951C51.0538 60.7273 52.4231 57.6923 54.0718 54.0699C56.2374 49.3287 58.8641 43.5804 59.7723 42.028C61.365 39.2867 49.1816 11.5105 48.972 11.1608L48.9581 11.1748Z" fill="#CB55E6"/>
<path d="M48.007 13.2306C47.532 13.6501 47.1827 14.1816 47.015 14.797C46.2186 17.6501 47.1547 21.9578 49.7814 27.6222C52.1566 32.7271 55.2863 37.5662 56.6276 39.6222C57.1679 40.452 57.3961 40.9182 57.3122 41.0208C57.2005 41.1466 56.9629 41.4823 56.8931 41.6082L56.7254 41.8599L56.5578 41.6082C55.426 40.0138 41.6359 35.0627 34.5102 32.6711C30.9754 31.4543 28.0832 31.8459 26.2808 32.3914C25.1072 32.741 24.2409 33.2026 23.724 33.5243C23.5424 33.4683 23.3607 33.3984 23.207 33.3564C23.6681 33.0487 24.6601 32.4473 26.1271 31.9998C27.9854 31.4264 30.9754 31.0068 34.622 32.2655C35.4463 32.5452 54.1546 38.8529 56.6835 41.1466C56.7534 41.0487 56.8372 40.9369 56.9071 40.8389C56.8093 40.6711 56.5578 40.2795 56.2644 39.8459C54.9231 37.776 51.7654 32.9089 49.3762 27.79C46.3863 21.3704 45.5759 16.6292 46.9451 13.6921L46.9451 13.6641C46.9451 13.6641 47.6298 12.8669 48.4401 12.3354C48.482 12.4613 48.5379 12.6012 48.5799 12.755C48.3703 12.8949 48.1607 13.0487 47.9791 13.2166L48.007 13.2306Z" fill="#CB55E6"/>
<path d="M48.7342 12.6721C48.7342 12.6721 48.6504 12.7422 48.6085 12.7702C48.5526 12.63 48.5107 12.4898 48.4688 12.3497C48.4827 12.3497 48.4967 12.3216 48.5246 12.3076L48.7482 12.6581L48.7342 12.6721Z" fill="#28AF6C"/>
<path d="M23.1795 33.9021L22.9141 33.5804C22.9141 33.5804 23.0258 33.4825 23.2075 33.3706C23.3612 33.4265 23.5428 33.4825 23.7244 33.5384C23.3751 33.7482 23.1795 33.9021 23.1795 33.9021Z" fill="#CB55E6"/>
<path d="M57.872 43.7344C57.872 43.7344 80.1012 58.7554 73.8558 69.8882C70.6981 75.5246 63.5306 75.8602 57.0616 72.9931C50.5927 70.126 45.1437 64.2798 42.3633 62.8113L49.2654 63.133C49.2654 63.133 53.7084 71.6225 63.5865 72.0001C73.3807 72.3637 70.1532 53.7903 56.2513 45.5805L57.858 43.7344L57.872 43.7344Z" fill="#CB55E6"/>
<path d="M49.2776 62.8672C49.2776 62.8672 49.4313 62.8253 49.5012 62.8393L62.2155 65.2309C62.4111 62.6714 62.8163 61.4127 63.5987 60.9232C64.0458 60.6295 64.6187 60.6155 65.2753 60.8812C65.7224 61.0491 66.0438 61.3707 66.2254 61.8183C66.5887 62.6994 66.3232 63.9302 66.0857 64.6994C69.4389 63.7344 69.9559 64.0561 70.4589 65.4686C70.5427 65.7204 70.5148 65.9861 70.389 66.2379C70.0118 66.9372 68.6845 67.4686 67.7483 67.7623C69.8581 68.8393 70.892 69.7484 70.9758 70.5875C71.0457 71.3008 70.4728 71.7484 70.1236 72.0141C69.425 72.5596 67.2593 71.6505 65.7504 70.9232C66.7005 72.9372 67.2034 74.0561 65.7085 75.161C65.443 75.3568 65.1356 75.4127 64.8143 75.3008C63.5289 74.8812 62.3692 71.6924 61.964 70.5036L50.3814 73.105C50.1858 73.147 49.9902 73.0211 49.9483 72.8253C49.9063 72.6295 50.0321 72.4337 50.2277 72.3917L62.1317 69.7204C62.3133 69.6784 62.4949 69.7903 62.5508 69.9721C63.1097 71.7484 64.2554 74.3637 65.0378 74.6155C65.1216 74.6435 65.1915 74.6295 65.2753 74.5735C66.2673 73.8463 66.0857 73.3568 65.0797 71.1889C64.954 70.9092 64.8003 70.6015 64.6466 70.2658C64.5767 70.126 64.6187 69.9582 64.7304 69.8463C64.8422 69.7344 65.0099 69.7204 65.1496 69.7903C67.2034 70.8812 69.3132 71.6505 69.6485 71.4407C70.0118 71.161 70.2772 70.9372 70.2493 70.6575C70.2074 70.2938 69.6765 69.4547 66.5747 68.0001C66.435 67.9302 66.3512 67.7903 66.3651 67.6365C66.3791 67.4826 66.4909 67.3568 66.6446 67.3148C67.6785 67.063 69.425 66.4616 69.7463 65.8742C69.7882 65.7903 69.7882 65.7344 69.7743 65.6924C69.4529 64.7693 69.3411 64.4477 65.6107 65.5805C65.4709 65.6225 65.3312 65.5805 65.2334 65.4686C65.1356 65.3707 65.1216 65.2169 65.1775 65.077C65.4011 64.5456 65.932 62.9512 65.5548 62.07C65.443 61.8043 65.2753 61.6365 65.0099 61.5386C64.5767 61.3707 64.2414 61.3707 63.9899 61.5246C63.2354 62.0001 63.0259 64.0001 62.9141 65.6784C62.9141 65.7763 62.8582 65.8742 62.7744 65.9442C62.6905 66.0141 62.5927 66.0281 62.481 66.0141L49.3754 63.5386C49.1798 63.4966 49.0541 63.3148 49.082 63.119C49.1099 63.0071 49.1798 62.9092 49.2776 62.8533L49.2776 62.8672Z" fill="#1E0720"/>
<path d="M102.889 70.0142C105.196 70.0142 107.066 66.9772 107.066 63.231C107.066 59.4847 105.196 56.4478 102.889 56.4478C100.581 56.4478 98.7109 59.4847 98.7109 63.231C98.7109 66.9772 100.581 70.0142 102.889 70.0142Z" fill="#F3695B"/>
</svg>
