<svg width="99" height="119" viewBox="0 0 99 119" fill="none" xmlns="http://www.w3.org/2000/svg">
<g clip-path="url(#clip0_1013_7581)">
<path d="M70.7944 53.5945C65.8495 59.2843 57.2182 59.8793 51.516 54.9235C45.8137 49.9677 45.1999 41.3378 50.1448 35.648C55.0898 29.9582 63.7211 29.3632 69.4233 34.319C75.1255 39.2747 75.7394 47.9047 70.7944 53.5945Z" fill="#C1892C"/>
<path d="M72.5026 52.4007C67.5026 58.1537 58.7754 58.7553 53.0098 53.7444C47.2442 48.7336 46.6235 40.0077 51.6234 34.2547C56.6234 28.5016 65.3506 27.9 71.1162 32.9109C76.8818 37.9218 77.5025 46.6476 72.5026 52.4007Z" fill="#FFC905"/>
<mask id="mask0_1013_7581" style="mask-type:luminance" maskUnits="userSpaceOnUse" x="48" y="29" width="28" height="29">
<path d="M72.5026 52.4007C67.5026 58.1537 58.7754 58.7553 53.0098 53.7444C47.2442 48.7336 46.6235 40.0077 51.6234 34.2547C56.6234 28.5016 65.3506 27.9 71.1162 32.9109C76.8818 37.9218 77.5025 46.6476 72.5026 52.4007Z" fill="white"/>
</mask>
<g mask="url(#mask0_1013_7581)">
<path d="M77.0105 41.9855L76.1598 39.1029L49.0566 35.6874L48.0541 42.3846L77.0105 41.9855Z" fill="#FDE396"/>
<path d="M79.2819 46.8391L78.4277 44.0551L49.2163 48.6071L50.1091 54.2567L79.2819 46.8391Z" fill="#FDE396"/>
</g>
<path d="M54.6695 51.8362C57.0076 53.8283 60.0949 54.8014 63.147 54.5096C71.21 53.745 76.1192 45.2412 72.636 37.8921C69.0216 30.4254 58.8781 29.0375 53.4227 35.2809C49.1477 40.1389 49.7181 47.6527 54.6694 51.8361L54.6695 51.8362ZM55.2665 51.1493C50.8658 47.271 50.4137 40.4182 54.2584 36.0072C59.3076 30.1961 68.5595 31.3016 72.1264 38.1456C74.0056 41.727 73.7392 46.1574 71.3774 49.447C67.6031 54.7488 60.1004 55.4511 55.2664 51.1495L55.2665 51.1493Z" fill="#C1892C"/>
<path d="M68.6711 43.0322C68.6711 43.0322 72.0911 41.6846 69.6823 38.084C67.9579 35.7817 63.1108 34.2146 59.2963 37.8315C55.4819 41.4484 53.9246 45.9222 56.5184 49.2816C59.1122 52.6409 63.3643 51.4135 63.8879 49.0557C63.8982 49.0647 64.2198 50.6836 65.2385 50.6315C66.2572 50.5794 66.8765 49.326 65.8482 47.4777C65.8482 47.4777 67.6506 49.111 68.5595 47.6407C69.4683 46.1703 67.759 45.0864 67.6219 45.0509C67.6219 45.0509 69.8629 46.5463 70.4436 44.6231C71.0243 42.7 68.6711 43.0325 68.6711 43.0325L68.6711 43.0322Z" fill="#D78F20"/>
<path d="M68.3977 42.2919C68.3977 42.2919 71.8176 40.9444 69.4088 37.3438C67.6845 35.0415 62.8374 33.4744 59.0229 37.0913C55.2084 40.7081 53.6512 45.182 56.245 48.5413C58.8388 51.9006 63.0909 50.6732 63.6145 48.3155C63.6248 48.3244 63.9463 49.9434 64.965 49.8913C65.9837 49.8391 66.6031 48.5857 65.5748 46.7375C65.5748 46.7375 67.3772 48.3708 68.286 46.9004C69.1949 45.43 67.4855 44.3461 67.3485 44.3106C67.3485 44.3106 69.5894 45.806 70.1701 43.8829C70.7508 41.9597 68.3977 42.2923 68.3977 42.2923L68.3977 42.2919Z" fill="#F8AE1B"/>
<path d="M66.7211 40.2273C65.9211 41.1478 64.5248 41.2441 63.6023 40.4423C62.6798 39.6406 62.5805 38.2444 63.3805 37.3239C64.1805 36.4034 65.5768 36.3072 66.4993 37.1089C67.4218 37.9107 67.5211 39.3068 66.7211 40.2273Z" fill="#D78F20"/>
<path d="M66.6977 40.4539C65.8977 41.3744 64.5013 41.4706 63.5788 40.6689C62.6563 39.8671 62.557 38.471 63.357 37.5505C64.157 36.63 65.5534 36.5337 66.4759 37.3355C67.3984 38.1372 67.4977 39.5334 66.6977 40.4539Z" fill="#996929"/>
<path d="M61.0102 46.8982C60.2102 47.8187 58.8138 47.915 57.8913 47.1132C56.9688 46.3115 56.8695 44.9153 57.6695 43.9948C58.4695 43.0743 59.8659 42.9781 60.7884 43.7798C61.7109 44.5816 61.8102 45.9777 61.0102 46.8982Z" fill="#D78F20"/>
<path d="M60.9868 47.1248C60.1868 48.0453 58.7904 48.1415 57.8679 47.3398C56.9454 46.538 56.8461 45.1419 57.6461 44.2214C58.4461 43.3009 59.8424 43.2046 60.765 44.0064C61.6875 44.8081 61.7868 46.2043 60.9868 47.1248Z" fill="#996929"/>
<path d="M62.8544 44.7407C62.6127 44.8873 62.2326 44.7035 62.0055 44.3301C61.7783 43.9567 61.7902 43.5352 62.0319 43.3885C62.2736 43.2419 62.6537 43.4257 62.8809 43.7991C63.108 44.1725 63.0962 44.5941 62.8544 44.7407Z" fill="#D78F20"/>
<path d="M62.8466 44.9233C62.6049 45.0699 62.2248 44.8861 61.9976 44.5127C61.7705 44.1394 61.7824 43.7178 62.0241 43.5712C62.2658 43.4245 62.6459 43.6084 62.8731 43.9817C63.1002 44.3551 63.0884 44.7767 62.8466 44.9233Z" fill="#996929"/>
<path d="M63.6906 43.0204C63.2892 42.8476 63.0542 42.4968 63.1657 42.237C63.2772 41.9772 63.693 41.9067 64.0944 42.0796C64.4958 42.2524 64.7308 42.6032 64.6193 42.863C64.5078 43.1228 64.092 43.1933 63.6906 43.0204Z" fill="#D78F20"/>
<path d="M63.5109 43.0536C63.1095 42.8808 62.8745 42.53 62.986 42.2702C63.0975 42.0104 63.5133 41.9399 63.9147 42.1128C64.3161 42.2856 64.5511 42.6364 64.4396 42.8962C64.3281 43.156 63.9123 43.2265 63.5109 43.0536Z" fill="#996929"/>
</g>
<g clip-path="url(#clip1_1013_7581)">
<path d="M34.693 32.1885C30.7079 35.2812 24.9648 34.5507 21.8653 30.5569C18.7659 26.5632 19.4838 20.8185 23.4689 17.7258C27.4539 14.6331 33.1971 15.3636 36.2965 19.3573C39.396 23.3511 38.678 29.0958 34.693 32.1885Z" fill="#C1892C"/>
<path d="M35.968 31.6263C31.9386 34.7534 26.1317 34.0148 22.9978 29.9767C19.8639 25.9385 20.5898 20.1299 24.6191 17.0029C28.6485 13.8758 34.4554 14.6144 37.5894 18.6526C40.7233 22.6907 39.9973 28.4993 35.968 31.6263Z" fill="#FFC905"/>
<mask id="mask1_1013_7581" style="mask-type:luminance" maskUnits="userSpaceOnUse" x="21" y="15" width="19" height="19">
<path d="M35.968 31.6263C31.9386 34.7534 26.1317 34.0148 22.9978 29.9767C19.8639 25.9385 20.5898 20.1299 24.6191 17.0029C28.6485 13.8758 34.4554 14.6144 37.5894 18.6526C40.7233 22.6907 39.9973 28.4993 35.968 31.6263Z" fill="white"/>
</mask>
<g mask="url(#mask1_1013_7581)">
<path d="M40.2819 25.3755L40.0979 23.3728L22.7501 17.6105L21.2221 21.8765L40.2819 25.3755Z" fill="#FDE396"/>
<path d="M41.1416 28.8563L40.9424 26.9178L21.1759 26.1118L21.0282 29.9364L41.1416 28.8563Z" fill="#FDE396"/>
</g>
<path d="M24.3345 28.9401C25.6106 30.5514 27.5108 31.5912 29.5522 31.7961C34.9442 32.3414 39.2713 27.3968 37.9394 22.1202C36.5366 16.7494 30.0583 14.5209 25.6663 17.9107C22.229 20.5444 21.6276 25.5507 24.3344 28.94L24.3345 28.9401ZM24.8156 28.5667C22.4306 25.4492 23.0238 20.8921 26.1206 18.496C30.1897 15.3372 36.1194 17.2646 37.5719 22.2205C38.3404 24.8155 37.59 27.6892 35.6124 29.5418C32.4462 32.5318 27.43 32.0184 24.8154 28.5668L24.8156 28.5667Z" fill="#C1892C"/>
<path d="M34.6686 24.9793C34.6686 24.9793 37.0886 24.5389 35.9751 21.8625C35.1422 20.1272 32.1639 18.469 29.1902 20.3477C26.2165 22.2265 24.6132 24.9611 25.8795 27.5031C27.1458 30.0452 30.0965 29.7917 30.7464 28.3121C30.752 28.3193 30.7528 29.4238 31.4283 29.5219C32.1038 29.6199 32.6732 28.8776 32.2382 27.5308C32.2382 27.5308 33.2092 28.8371 33.9968 27.9899C34.7844 27.1427 33.8031 26.2092 33.7177 26.1681C33.7177 26.1681 34.9945 27.4408 35.6255 26.2538C36.2565 25.0668 34.6686 24.9795 34.6686 24.9795L34.6686 24.9793Z" fill="#D78F20"/>
<path d="M34.5866 24.4578C34.5866 24.4578 37.0066 24.0174 35.893 21.341C35.0602 19.6057 32.0819 17.9475 29.1082 19.8263C26.1345 21.705 24.5311 24.4396 25.7975 26.9816C27.0638 29.5237 30.0144 29.2703 30.6644 27.7906C30.67 27.7978 30.6708 28.9023 31.3463 29.0004C32.0217 29.0985 32.5911 28.3561 32.1562 27.0093C32.1562 27.0093 33.1272 28.3156 33.9147 27.4684C34.7023 26.6213 33.721 25.6877 33.6357 25.6466C33.6357 25.6466 34.9125 26.9193 35.5435 25.7323C36.1744 24.5453 34.5866 24.458 34.5866 24.458L34.5866 24.4578Z" fill="#F8AE1B"/>
<path d="M33.7548 22.8844C33.1101 23.3847 32.181 23.2665 31.6796 22.6204C31.1781 21.9743 31.2943 21.0449 31.939 20.5446C32.5837 20.0443 33.5128 20.1624 34.0142 20.8086C34.5157 21.4547 34.3995 22.3841 33.7548 22.8844Z" fill="#D78F20"/>
<path d="M33.7079 23.0299C33.0632 23.5302 32.1341 23.4121 31.6327 22.7659C31.1313 22.1198 31.2474 21.1904 31.8921 20.6901C32.5368 20.1898 33.4659 20.308 33.9674 20.9541C34.4688 21.6002 34.3527 22.5296 33.7079 23.0299Z" fill="#996929"/>
<path d="M29.1376 26.5221C28.4929 27.0224 27.5638 26.9042 27.0624 26.2581C26.561 25.612 26.6771 24.6826 27.3218 24.1823C27.9665 23.682 28.8956 23.8001 29.3971 24.4463C29.8985 25.0924 29.7823 26.0217 29.1376 26.5221Z" fill="#D78F20"/>
<path d="M29.0908 26.6676C28.4461 27.1679 27.5169 27.0497 27.0155 26.4036C26.5141 25.7575 26.6302 24.8281 27.2749 24.3278C27.9196 23.8275 28.8488 23.9457 29.3502 24.5918C29.8516 25.2379 29.7355 26.1673 29.0908 26.6676Z" fill="#996929"/>
<path d="M30.6293 25.3453C30.4516 25.4101 30.2259 25.2401 30.1253 24.9655C30.0247 24.6909 30.0873 24.4157 30.265 24.3508C30.4427 24.286 30.6683 24.456 30.7689 24.7306C30.8695 25.0052 30.807 25.2804 30.6293 25.3453Z" fill="#D78F20"/>
<path d="M30.602 25.4644C30.4242 25.5293 30.1986 25.3592 30.098 25.0846C29.9974 24.81 30.0599 24.5348 30.2376 24.47C30.4154 24.4051 30.641 24.5751 30.7416 24.8498C30.8422 25.1244 30.7797 25.3995 30.602 25.4644Z" fill="#996929"/>
<path d="M31.4037 24.3249C31.1627 24.1593 31.054 23.8985 31.1609 23.7424C31.2678 23.5863 31.5499 23.5941 31.791 23.7597C32.032 23.9253 32.1407 24.1861 32.0338 24.3422C31.9268 24.4982 31.6447 24.4905 31.4037 24.3249Z" fill="#D78F20"/>
<path d="M31.2826 24.3229C31.0416 24.1573 30.9329 23.8965 31.0398 23.7405C31.1468 23.5844 31.4288 23.5921 31.6699 23.7577C31.9109 23.9234 32.0196 24.1841 31.9127 24.3402C31.8057 24.4963 31.5237 24.4885 31.2826 24.3229Z" fill="#996929"/>
</g>
<g clip-path="url(#clip2_1013_7581)">
<path d="M51.4097 110.599C39.1966 114.31 26.2811 107.396 22.562 95.1563C18.8429 82.9165 25.7287 69.9858 37.9418 66.2749C50.1549 62.564 63.0704 69.478 66.7895 81.7178C70.5085 93.9576 63.6228 106.888 51.4097 110.599Z" fill="#C1892C"/>
<path d="M54.9347 110.425C42.5858 114.177 29.5267 107.187 25.7663 94.8108C22.006 82.4349 28.9683 69.3606 41.3171 65.6084C53.6659 61.8562 66.725 68.8471 70.4854 81.2229C74.2458 93.5987 67.2835 106.673 54.9347 110.425Z" fill="#FFC905"/>
<mask id="mask2_1013_7581" style="mask-type:luminance" maskUnits="userSpaceOnUse" x="24" y="64" width="48" height="48">
<path d="M54.9347 110.425C42.5858 114.177 29.5267 107.187 25.7663 94.8108C22.006 82.4349 28.9683 69.3606 41.3171 65.6084C53.6659 61.8562 66.725 68.8471 70.4854 81.2229C74.2458 93.5987 67.2835 106.673 54.9347 110.425Z" fill="white"/>
</mask>
<g mask="url(#mask2_1013_7581)">
<path d="M70.773 99.5441L72.1469 94.644L36.3456 65.3543L28.8807 74.0581L70.773 99.5441Z" fill="#FDE396"/>
<path d="M69.6632 108.55L70.9433 103.789L24.9482 84.0296L21.1445 92.9365L69.6632 108.55Z" fill="#FDE396"/>
</g>
<path d="M29.8619 93.5661C31.4228 98.5275 34.9753 102.702 39.6155 105.03C51.8685 111.189 66.5628 103.41 68.1803 89.734C69.7156 75.7717 56.4154 64.6525 42.972 68.6982C32.4683 71.8191 26.5248 83.1096 29.8618 93.5657L29.8619 93.5661ZM31.3363 93.1181C28.5145 83.595 34.0329 73.359 43.5171 70.4921C55.9888 66.7009 68.2642 76.6125 67.2212 89.6391C66.6937 96.4672 62.3246 102.582 55.9766 105.175C45.7917 109.383 34.3984 103.638 31.3359 93.1183L31.3363 93.1181Z" fill="#C1892C"/>
<path d="M57.8706 93.5394C57.8706 93.5394 63.9887 94.6842 63.7739 87.3521C63.3725 82.498 57.8304 75.8883 49.1043 77.6433C40.3782 79.3984 34.1184 84.414 34.8157 91.5665C35.5129 98.7191 42.7164 100.785 45.5892 97.8746C45.5959 97.8967 44.6002 100.508 46.1083 101.35C47.6163 102.192 49.6327 100.952 49.821 97.3754C49.821 97.3754 50.9364 101.34 53.5632 100.049C56.19 98.7578 54.7137 95.6649 54.5491 95.4906C54.5491 95.4906 56.4176 99.6522 58.9812 97.4164C61.5448 95.1805 57.8703 93.5399 57.8703 93.5399L57.8706 93.5394Z" fill="#D78F20"/>
<path d="M58.1479 92.2347C58.1479 92.2347 64.266 93.3795 64.0512 86.0474C63.6499 81.1933 58.1077 74.5836 49.3816 76.3386C40.6555 78.0937 34.3958 83.1093 35.093 90.2618C35.7902 97.4144 42.9937 99.4805 45.8665 96.5699C45.8733 96.592 44.8775 99.2035 46.3856 100.045C47.8937 100.887 49.91 99.6471 50.0984 96.0707C50.0984 96.0707 51.2137 100.035 53.8405 98.7443C56.4674 97.4531 54.991 94.3602 54.8264 94.1859C54.8264 94.1859 56.6949 98.3475 59.2585 96.1117C61.8221 93.8758 58.1477 92.2352 58.1477 92.2352L58.1479 92.2347Z" fill="#F8AE1B"/>
<path d="M57.5943 87.7617C55.6185 88.3621 53.529 87.2435 52.9273 85.2634C52.3257 83.2832 53.4397 81.1913 55.4155 80.5909C57.3913 79.9906 59.4808 81.1091 60.0825 83.0893C60.6841 85.0694 59.5701 87.1614 57.5943 87.7617Z" fill="#D78F20"/>
<path d="M57.356 88.0644C55.3802 88.6648 53.2907 87.5463 52.6891 85.5661C52.0874 83.5859 53.2014 81.494 55.1772 80.8937C57.153 80.2933 59.2425 81.4119 59.8442 83.392C60.4458 85.3722 59.3319 87.4641 57.356 88.0644Z" fill="#996929"/>
<path d="M43.399 92.1904C41.4232 92.7908 39.3337 91.6722 38.732 89.6921C38.1304 87.7119 39.2443 85.62 41.2202 85.0197C43.196 84.4193 45.2855 85.5378 45.8871 87.518C46.4888 89.4982 45.3748 91.5901 43.399 92.1904Z" fill="#D78F20"/>
<path d="M43.1607 92.4932C41.1849 93.0935 39.0954 91.975 38.4937 89.9948C37.8921 88.0147 39.0061 85.9227 40.9819 85.3224C42.9577 84.722 45.0472 85.8406 45.6489 87.8207C46.2505 89.8009 45.1366 91.8928 43.1607 92.4932Z" fill="#996929"/>
<path d="M47.9877 90.7564C47.509 90.7492 47.1292 90.1435 47.1395 89.4035C47.1497 88.6635 47.5461 88.0695 48.0247 88.0768C48.5034 88.084 48.8832 88.6897 48.873 89.4297C48.8627 90.1696 48.4664 90.7636 47.9877 90.7564Z" fill="#D78F20"/>
<path d="M47.8119 91.0113C47.3332 91.0041 46.9535 90.3983 46.9637 89.6584C46.9739 88.9184 47.3703 88.3244 47.849 88.3316C48.3276 88.3389 48.7074 88.9446 48.6972 89.6845C48.6869 90.4245 48.2906 91.0185 47.8119 91.0113Z" fill="#996929"/>
<path d="M50.7361 89.0413C50.3159 88.4321 50.2945 87.7175 50.6882 87.4452C51.082 87.1729 51.7418 87.446 52.1619 88.0552C52.5821 88.6644 52.6035 89.379 52.2098 89.6513C51.816 89.9236 51.1562 89.6505 50.7361 89.0413Z" fill="#D78F20"/>
<path d="M50.447 88.9271C50.0268 88.3179 50.0054 87.6033 50.3991 87.331C50.7929 87.0587 51.4527 87.3317 51.8729 87.9409C52.2931 88.5501 52.3145 89.2647 51.9207 89.537C51.527 89.8093 50.8672 89.5362 50.447 88.9271Z" fill="#996929"/>
</g>
<defs>
<clipPath id="clip0_1013_7581">
<rect width="29.4725" height="27.8649" fill="white" transform="matrix(-0.655977 0.75478 0.75478 0.655977 60.5243 23.7041)"/>
</clipPath>
<clipPath id="clip1_1013_7581">
<rect width="19.7218" height="18.646" fill="white" transform="matrix(-0.790005 0.6131 0.6131 0.790005 31.8329 11.2334)"/>
</clipPath>
<clipPath id="clip2_1013_7581">
<rect width="49.9049" height="47.1828" fill="white" transform="matrix(-0.956807 0.290725 0.290725 0.956807 63.579 58.4863)"/>
</clipPath>
</defs>
</svg>
