<svg width="258" height="240" viewBox="0 0 258 240" fill="none" xmlns="http://www.w3.org/2000/svg">
<path d="M6.46461 173.418C6.46461 173.418 95.1701 164.864 149.5 84.7759C149.5 84.7759 165.153 101.022 181.35 102.318C181.35 102.318 151.243 185.322 95.5118 201.404C39.7809 217.487 19.9643 192.106 6.46461 173.418Z" fill="#EAEAEA"/>
<path d="M6.53906 173.455C6.53906 173.455 52.8622 201.611 96.0049 175.72C139.148 149.829 166.657 103.459 168.282 95.4381C168.282 95.4381 157.073 92.9115 149.922 84.5167C149.922 84.5167 104.912 150.028 6.53906 173.455Z" fill="#D1D1D1"/>
<path d="M177.223 15.8435C168.129 23.5901 166.125 36.56 171.851 46.556L157.39 75.1667L184.01 91.5285L199.606 57.9863C202.931 57.069 206.114 55.4296 208.913 53.0445C219.185 44.2941 220.419 28.8748 211.668 18.6029C202.918 8.33091 187.495 7.09303 177.223 15.8435ZM196.372 40.6818C193.216 43.3703 188.479 42.9915 185.791 39.8354C183.102 36.6794 183.481 31.9428 186.637 29.2543C189.793 26.5657 194.53 26.9446 197.218 30.1006C199.907 33.2566 199.528 37.9932 196.372 40.6818Z" fill="#CC876A"/>
<path d="M134.062 73.5693C134.062 73.5693 136.387 85.2723 148.175 92.7356C159.688 100.024 176.924 112.226 196.3 107.093C197.9 106.668 199.296 105.605 199.966 104.088C200.833 102.136 200.748 99.1113 196.457 95.0738C190.259 91.1008 143.525 65.3032 138.735 66.7672C133.945 68.2312 133.696 72.195 134.059 73.5648L134.062 73.5693Z" fill="#FFC800"/>
<mask id="mask0_522_2518" style="mask-type:luminance" maskUnits="userSpaceOnUse" x="133" y="66" width="68" height="43">
<path d="M134.062 73.5693C134.062 73.5693 136.387 85.2723 148.175 92.7356C159.688 100.024 176.924 112.226 196.3 107.093C197.9 106.668 199.296 105.605 199.966 104.088C200.833 102.136 200.748 99.1113 196.457 95.0738C190.259 91.1008 143.525 65.3032 138.735 66.7672C133.945 68.2312 133.696 72.195 134.059 73.5648L134.062 73.5693Z" fill="white"/>
</mask>
<g mask="url(#mask0_522_2518)">
<path d="M192.176 117.634C195.366 113.104 185.512 100.668 170.166 89.8576C154.82 79.0467 139.792 73.9546 136.602 78.484C133.411 83.0134 143.265 95.4491 158.611 106.26C173.958 117.071 188.985 122.163 192.176 117.634Z" fill="#DAAD3C"/>
</g>
<path d="M185.737 87.6696L161 67.9302L164.762 60.5871L186.835 67.3919L168.734 52.7585L171.852 46.5556L201.116 57.6299L199.607 57.9859L198.05 61.3301L174.755 51.0737L194.871 68.1836L192.456 73.3617L166.944 66.0903L187.947 83.1775L185.737 87.6696Z" fill="#825440"/>
</svg>
