<svg width="56" height="91" viewBox="0 0 56 91" fill="none" xmlns="http://www.w3.org/2000/svg">
<g clip-path="url(#clip0_522_2771)">
<path d="M23.7038 67.0098C18.0755 67.0098 14.582 64.0533 14.582 59.2891H16.6037C16.6037 64.349 21.569 64.898 23.7038 64.898C25.8387 64.898 30.804 64.349 30.804 59.2891H32.8257C32.8257 64.0533 29.3322 67.0098 23.7038 67.0098Z" fill="black"/>
<path d="M21.9001 55.3785H19.8784C19.8784 53.8073 18.6573 52.5317 17.1532 52.5317C15.649 52.5317 14.4279 53.8073 14.4279 55.3785H12.4062C12.4062 52.6415 14.5331 50.4199 17.1532 50.4199C19.7732 50.4199 21.9001 52.6415 21.9001 55.3785Z" fill="black"/>
<path d="M35.2321 55.3785H33.2104C33.2104 53.8073 31.9893 52.5317 30.4852 52.5317C28.9811 52.5317 27.76 53.8073 27.76 55.3785H25.7383C25.7383 52.6415 27.8651 50.4199 30.4852 50.4199C33.1053 50.4199 35.2321 52.6415 35.2321 55.3785Z" fill="black"/>
<path d="M47 90.7888L44.9864 91C44.9541 90.6452 44.0726 82.6795 37.1827 80.1875C35.7999 81.2181 34.2958 82.0966 32.6865 82.7977L31.9021 80.8464C39.8513 77.383 44.9783 69.3328 44.9783 60.3365C44.9783 48.0796 35.436 38.1118 23.7022 38.1118C11.9683 38.1118 2.42602 48.0796 2.42602 60.3365C2.42602 70.6421 9.40485 79.7567 19.028 82.0206L18.5833 84.0817C15.478 83.3468 12.6234 81.9614 10.1407 80.0862C2.95165 82.4345 2.04594 90.6452 2.00551 91L0 90.7888C0.0404336 90.3918 0.96232 81.7756 8.29697 78.5403C3.42877 74.0126 0.404336 67.4322 0.404336 60.3365C0.404336 46.9223 10.8605 36 23.7022 36C36.5439 36 47 46.9223 47 60.3365C47 67.5167 44.0079 74.1477 39.0184 78.6839C46.07 82.0206 46.9596 90.4002 47 90.7888Z" fill="black"/>
<path d="M9.99531 63.3943C11.7639 63.3943 13.1976 61.8967 13.1976 60.0492C13.1976 58.2018 11.7639 56.7041 9.99531 56.7041C8.22671 56.7041 6.79297 58.2018 6.79297 60.0492C6.79297 61.8967 8.22671 63.3943 9.99531 63.3943Z" fill="#F3695B"/>
<path d="M37.425 63.3943C39.1936 63.3943 40.6273 61.8967 40.6273 60.0492C40.6273 58.2018 39.1936 56.7041 37.425 56.7041C35.6564 56.7041 34.2227 58.2018 34.2227 60.0492C34.2227 61.8967 35.6564 63.3943 37.425 63.3943Z" fill="#F3695B"/>
</g>
<path d="M23.8633 30.8086L26.3573 24.0344C22.8867 22.0718 21.0293 18.1421 21.6952 14.2335C22.5453 9.24716 27.1513 5.8028 32.17 6.43917C33.4791 2.08403 38.0467 -0.385644 42.3721 0.791121C46.6975 1.96789 49.3883 6.33672 48.3627 10.771C53.1036 11.9947 55.8997 16.8662 54.641 21.5559C53.3823 26.2456 48.5559 29.0414 43.7929 27.7575L40.4129 36.8992L23.8633 30.8086ZM42.5018 24.8904L43.6673 25.3743C44.809 25.8575 46.0443 25.9625 47.2524 25.7574C50.9247 25.1197 53.3542 21.5923 52.5961 17.9543C51.9854 15.0224 49.48 13.0265 46.4888 12.6952L45.3731 12.5697L46.0506 10.8627C47.3923 7.4961 45.1612 3.73473 41.6489 2.86568C38.4083 2.07542 35.0932 4.01993 34.2193 7.2565C34.0601 7.85902 34.0211 8.41722 33.8849 9.04417C33.565 8.98786 33.2692 8.92032 32.9737 8.84088C29.3232 7.80148 25.5313 9.76871 24.222 13.2552C22.9128 16.7417 24.495 20.7234 27.9155 22.3396L29.1276 22.8604L27.5069 27.2904L39.9309 31.8647L42.5137 24.8907L42.5018 24.8904Z" fill="black"/>
<defs>
<clipPath id="clip0_522_2771">
<rect width="47" height="55" fill="white" transform="translate(0 36)"/>
</clipPath>
</defs>
</svg>
