<svg width="172" height="261" viewBox="0 0 172 261" fill="none" xmlns="http://www.w3.org/2000/svg">
<g clip-path="url(#clip0_522_2531)">
<path d="M119.573 233.146C100.054 243.677 75.6749 236.356 65.1209 216.795C54.5669 197.233 61.8343 172.838 81.3532 162.307C100.872 151.776 125.251 159.097 135.805 178.658C146.359 198.22 139.092 222.615 119.573 233.146Z" fill="#C1892C"/>
<path d="M125.515 231.633C105.779 242.281 81.1291 234.878 70.4578 215.099C59.7865 195.32 67.1347 170.654 86.8705 160.006C106.606 149.358 131.256 156.76 141.928 176.539C152.599 196.318 145.251 220.984 125.515 231.633Z" fill="#FFC905"/>
<mask id="mask0_522_2531" style="mask-type:luminance" maskUnits="userSpaceOnUse" x="65" y="155" width="82" height="82">
<path d="M125.515 231.632C105.779 242.28 81.1291 234.877 70.4578 215.098C59.7865 195.319 67.1347 170.653 86.8705 160.005C106.606 149.357 131.256 156.759 141.928 176.538C152.599 196.317 145.251 220.983 125.515 231.632Z" fill="white"/>
</mask>
<g mask="url(#mask0_522_2531)">
<path d="M148.742 207.638L149.392 198.82L78.3234 161.286L68.6122 178.682L148.742 207.638Z" fill="#FDE396"/>
<path d="M149.959 223.358L150.497 214.807L65.3553 197.019L61.9491 213.499L149.959 223.358Z" fill="#FDE396"/>
</g>
<path d="M77.0008 211.569C81.3698 219.48 88.8589 225.363 97.564 227.728C120.554 233.992 142.896 215.677 140.935 191.83C138.734 167.523 112.251 153.174 90.7519 164.699C73.9405 173.636 67.7122 194.913 77.0005 211.568L77.0008 211.569ZM79.3572 210.298C71.268 195.053 77.1361 175.719 92.2988 167.566C112.23 156.809 136.553 169.456 139.268 191.999C140.725 203.809 135.393 215.729 125.476 222.334C109.583 233.012 88.1996 227.158 79.3566 210.298L79.3572 210.298Z" fill="#C1892C"/>
<path d="M124.688 201.866C124.688 201.866 135.501 201.706 132.607 189.294C130.25 181.166 118.532 171.821 104.277 177.818C90.0223 183.816 81.0916 194.516 84.7454 206.456C88.3991 218.397 101.379 219.431 105.268 213.484C105.287 213.519 104.491 218.31 107.35 219.224C110.209 220.137 113.215 217.33 112.302 211.174C112.302 211.174 115.569 217.542 119.597 214.437C123.625 211.332 120.044 206.574 119.704 206.334C119.704 206.334 124.321 212.777 127.916 208.086C131.51 203.394 124.687 201.867 124.687 201.867L124.688 201.866Z" fill="#D78F20"/>
<path d="M124.711 199.548C124.711 199.548 135.525 199.388 132.631 186.975C130.273 178.847 118.556 169.502 104.301 175.5C90.0457 181.498 81.115 192.198 84.7688 204.138C88.4226 216.078 101.402 217.113 105.291 211.165C105.31 211.201 104.515 215.991 107.373 216.905C110.232 217.819 113.238 215.011 112.326 208.856C112.326 208.856 115.592 215.223 119.62 212.119C123.649 209.014 120.068 204.256 119.727 204.016C119.727 204.016 124.344 210.459 127.939 205.767C131.534 201.076 124.711 199.549 124.711 199.549L124.711 199.548Z" fill="#F8AE1B"/>
<path d="M122.235 192.12C119.077 193.824 115.133 192.639 113.426 189.475C111.718 186.31 112.894 182.364 116.052 180.66C119.21 178.956 123.154 180.14 124.861 183.305C126.569 186.47 125.393 190.416 122.235 192.12Z" fill="#D78F20"/>
<path d="M121.93 192.719C118.773 194.422 114.829 193.238 113.121 190.073C111.414 186.909 112.589 182.962 115.747 181.258C118.905 179.555 122.849 180.739 124.556 183.904C126.264 187.068 125.088 191.015 121.93 192.719Z" fill="#996929"/>
<path d="M99.5827 204.557C96.4249 206.26 92.4809 205.076 90.7735 201.911C89.0661 198.747 90.2418 194.8 93.3996 193.096C96.5573 191.393 100.501 192.577 102.209 195.742C103.916 198.906 102.74 202.853 99.5827 204.557Z" fill="#D78F20"/>
<path d="M99.278 205.154C96.1202 206.858 92.1762 205.674 90.4688 202.509C88.7614 199.344 89.9371 195.398 93.0949 193.694C96.2526 191.99 100.197 193.175 101.904 196.339C103.612 199.504 102.436 203.451 99.278 205.154Z" fill="#996929"/>
<path d="M106.904 200.532C106.086 200.685 105.231 199.784 104.993 198.521C104.755 197.257 105.225 196.109 106.043 195.956C106.861 195.803 107.716 196.704 107.954 197.968C108.192 199.231 107.721 200.379 106.904 200.532Z" fill="#D78F20"/>
<path d="M106.693 201.027C105.875 201.18 105.02 200.28 104.782 199.016C104.544 197.752 105.014 196.604 105.832 196.451C106.65 196.298 107.505 197.199 107.743 198.463C107.981 199.726 107.511 200.875 106.693 201.027Z" fill="#996929"/>
<path d="M110.994 196.663C110.068 195.771 109.785 194.561 110.362 193.962C110.938 193.362 112.156 193.6 113.082 194.492C114.007 195.385 114.29 196.594 113.714 197.194C113.137 197.793 111.919 197.556 110.994 196.663Z" fill="#D78F20"/>
<path d="M110.462 196.568C109.537 195.676 109.254 194.466 109.831 193.867C110.407 193.267 111.625 193.505 112.551 194.397C113.476 195.29 113.759 196.499 113.182 197.099C112.606 197.699 111.388 197.461 110.462 196.568Z" fill="#996929"/>
</g>
<path d="M34.1582 62.8007C23.9009 65.8526 12.5059 60.2878 8.70668 50.3713C4.90749 40.4549 10.1428 29.942 20.4001 26.89C30.6575 23.8381 42.0525 29.4029 45.8517 39.3194C49.6509 49.2358 44.4156 59.7488 34.1582 62.8007Z" fill="#C1892C"/>
<path d="M37.2736 62.6204C26.9304 65.6827 15.4087 60.0177 11.5391 49.9674C7.66948 39.9171 12.9173 29.2873 23.2604 26.2251C33.6035 23.1629 45.1252 28.8278 48.9949 38.8781C52.8645 48.9284 47.6167 59.5582 37.2736 62.6204Z" fill="#FFC905"/>
<mask id="mask1_522_2531" style="mask-type:luminance" maskUnits="userSpaceOnUse" x="10" y="25" width="41" height="39">
<path d="M37.3031 62.6447C26.9754 65.6941 15.4537 60.0082 11.5686 49.945C7.68349 39.8819 12.9062 29.2521 23.2338 26.2027C33.5614 23.1534 45.0831 28.8393 48.9682 38.9024C52.8534 48.9656 47.6307 59.5954 37.3031 62.6447Z" fill="white"/>
</mask>
<g mask="url(#mask1_522_2531)">
<path d="M50.3086 53.7597L51.2087 49.7893L19.1953 26.0519L13.3277 33.1038L50.3086 53.7597Z" fill="#FDE396"/>
<path d="M49.5624 61.1075L50.3969 57.2198L9.92413 41.0829L7.1564 48.3544L49.5624 61.1075Z" fill="#FDE396"/>
</g>
<path d="M14.9391 48.9838C16.525 53.0035 19.7743 56.3778 23.8608 58.2509C34.6519 63.206 46.8265 56.8448 47.5188 45.7445C48.1262 34.4119 36.1887 25.4365 24.8952 28.7644C16.0692 31.332 11.5565 40.512 14.939 48.9835L14.9391 48.9838ZM16.1775 48.6154C13.2828 40.899 17.4853 32.576 25.4521 30.2179C35.9273 27.0997 46.9273 35.0991 46.6937 45.6708C46.5876 51.2121 43.1599 56.1878 37.8615 58.313C29.3632 61.7614 19.3283 57.1398 16.1772 48.6155L16.1775 48.6154Z" fill="#C1892C"/>
<path d="M38.8852 48.8452C38.8852 48.8452 44.1969 49.7571 43.6404 43.7837C43.0494 39.83 37.9549 34.4634 30.5508 35.9233C23.1466 37.3831 18.0258 41.4911 18.9875 47.3166C19.9492 53.142 26.2398 54.8008 28.559 52.4195C28.5659 52.4375 27.8433 54.5687 29.1811 55.2496C30.5188 55.9305 32.1873 54.9129 32.1676 51.9983C32.1676 51.9983 33.3265 55.2249 35.5167 54.1639C37.7069 53.1029 36.2822 50.5879 36.1319 50.4464C36.1319 50.4464 37.9476 53.8309 40.0356 52.0004C42.1235 50.1699 38.8849 48.8457 38.8849 48.8457L38.8852 48.8452Z" fill="#D78F20"/>
<path d="M39.0883 47.7944C39.0883 47.7944 44.4 48.7063 43.8435 42.733C43.2525 38.7793 38.158 33.4127 30.7539 34.8725C23.3498 36.3323 18.2289 40.4403 19.1906 46.2658C20.1523 52.0912 26.4429 53.75 28.7621 51.3687C28.769 51.3867 28.0465 53.5179 29.3842 54.1988C30.7219 54.8797 32.3904 53.8621 32.3707 50.9475C32.3707 50.9475 33.5296 54.1741 35.7198 53.1131C37.91 52.0521 36.4853 49.5371 36.3351 49.3957C36.3351 49.3957 38.1507 52.7801 40.2387 50.9496C42.3266 49.1191 39.0881 47.7949 39.0881 47.7949L39.0883 47.7944Z" fill="#F8AE1B"/>
<path d="M38.5582 44.056C36.9032 44.5459 35.0598 43.6395 34.4406 42.0314C33.8215 40.4234 34.6611 38.7226 36.316 38.2326C37.9709 37.7427 39.8144 38.6491 40.4336 40.2572C41.0527 41.8652 40.2131 43.566 38.5582 44.056Z" fill="#D78F20"/>
<path d="M38.355 44.305C36.7001 44.7949 34.8566 43.8885 34.2375 42.2805C33.6183 40.6724 34.458 38.9716 36.1129 38.4817C37.7678 37.9917 39.6113 38.8981 40.2304 40.5062C40.8496 42.1142 40.0099 43.815 38.355 44.305Z" fill="#996929"/>
<path d="M26.3511 47.9476C24.6962 48.4375 22.8527 47.5311 22.2336 45.923C21.6144 44.315 22.4541 42.6142 24.109 42.1242C25.7639 41.6343 27.6074 42.5407 28.2265 44.1488C28.8457 45.7568 28.006 47.4576 26.3511 47.9476Z" fill="#D78F20"/>
<path d="M26.148 48.1966C24.4931 48.6865 22.6496 47.7801 22.0305 46.1721C21.4113 44.564 22.251 42.8632 23.9059 42.3733C25.5608 41.8833 27.4043 42.7897 28.0234 44.3978C28.6426 46.0058 27.8029 47.7066 26.148 48.1966Z" fill="#996929"/>
<path d="M30.2484 46.619C29.8515 46.6137 29.5058 46.1288 29.4761 45.5359C29.4464 44.943 29.744 44.4666 30.1409 44.4718C30.5377 44.477 30.8834 44.9619 30.9131 45.5548C30.9428 46.1478 30.6452 46.6242 30.2484 46.619Z" fill="#D78F20"/>
<path d="M30.1038 46.827C29.707 46.8218 29.3613 46.3369 29.3316 45.7439C29.3019 45.151 29.5995 44.6746 29.9963 44.6798C30.3932 44.685 30.7389 45.1699 30.7686 45.7628C30.7983 46.3558 30.5007 46.8322 30.1038 46.827Z" fill="#996929"/>
<path d="M32.5808 45.1609C32.1882 44.6745 32.1317 44.1034 32.4546 43.8852C32.7775 43.6671 33.3575 43.8846 33.7501 44.371C34.1427 44.8574 34.1992 45.4286 33.8763 45.6467C33.5534 45.8648 32.9734 45.6473 32.5808 45.1609Z" fill="#D78F20"/>
<path d="M32.323 45.0769C31.9304 44.5905 31.8739 44.0194 32.1968 43.8013C32.5197 43.5831 33.0997 43.8006 33.4923 44.287C33.8849 44.7735 33.9414 45.3446 33.6185 45.5627C33.2956 45.7808 32.7156 45.5633 32.323 45.0769Z" fill="#996929"/>
<path d="M101.123 61.6298C86.182 60.7609 75.0834 48.6416 76.3336 34.5608C77.5838 20.4799 90.7093 9.76945 105.65 10.6384C120.591 11.5073 131.69 23.6265 130.439 37.7074C129.189 51.7883 116.064 62.4987 101.123 61.6298Z" fill="#C1892C"/>
<path d="M104.972 62.9231C89.9355 62.0923 78.8286 49.8383 80.1636 35.5531C81.4985 21.2679 94.7699 10.361 109.806 11.1918C124.842 12.0226 135.949 24.2765 134.614 38.5617C133.279 52.8469 120.008 63.7539 104.972 62.9231Z" fill="#FFC905"/>
<mask id="mask2_522_2531" style="mask-type:luminance" maskUnits="userSpaceOnUse" x="80" y="11" width="55" height="53">
<path d="M104.755 63.0516C89.8384 62.2916 78.9258 50.0377 80.3806 35.6817C81.8354 21.3257 95.1067 10.3041 110.023 11.0641C124.939 11.8241 135.852 24.078 134.397 38.434C132.942 52.79 119.671 63.8117 104.755 63.0516Z" fill="white"/>
</mask>
<g mask="url(#mask2_522_2531)">
<path d="M126.506 57.7546L130.138 53.1686L104.822 9.1218L93.0012 15.3685L126.506 57.7546Z" fill="#FDE396"/>
<path d="M121.551 66.5066L125.051 62L84.2939 23.7827L76.2286 31.6759L121.551 66.5066Z" fill="#FDE396"/>
</g>
<path d="M85.0448 35.7668C84.5964 41.4953 86.6634 47.1772 90.7186 51.3705C101.422 62.4551 120.837 60.0751 128.536 46.5652C136.269 32.7274 126.574 16.1138 110.144 15.1169C97.3244 14.2965 85.9384 23.6754 85.0449 35.7664L85.0448 35.7668ZM86.8486 35.8717C87.8998 24.9434 98.3643 16.4905 109.961 17.1807C125.22 18.0663 134.319 33.0374 127.53 46.0978C123.992 52.951 116.57 57.5875 108.515 57.8222C95.5721 58.248 85.6272 47.9232 86.8481 35.8717L86.8486 35.8717Z" fill="#C1892C"/>
<path d="M115.673 46.5251C115.673 46.5251 121.868 50.0731 124.821 42.3948C126.492 37.2114 123.303 28.2246 112.993 26.6737C102.684 25.1228 93.6553 27.9017 91.3083 35.5804C88.9613 43.259 95.9436 48.1804 100.352 46.2744C100.35 46.2999 98.1249 48.6208 99.4086 50.0752C100.692 51.5297 103.438 51.0232 105.199 47.3911C105.199 47.3911 104.695 51.9288 108.13 51.6055C111.565 51.2822 111.295 47.5082 111.19 47.2641C111.19 47.2641 111.425 52.2965 115.202 50.9701C118.979 49.6437 115.672 46.5256 115.672 46.5256L115.673 46.5251Z" fill="#D78F20"/>
<path d="M116.532 45.3015C116.532 45.3015 122.727 48.8495 125.68 41.1712C127.352 35.9878 124.162 27.001 113.853 25.4501C103.543 23.8992 94.5147 26.6781 92.1677 34.3567C89.8207 42.0354 96.803 46.9567 101.211 45.0508C101.209 45.0763 98.9842 47.3971 100.268 48.8516C101.552 50.306 104.297 49.7996 106.058 46.1675C106.058 46.1675 105.554 50.7051 108.989 50.3818C112.425 50.0585 112.154 46.2845 112.05 46.0404C112.05 46.0404 112.285 51.0729 116.061 49.7465C119.838 48.4201 116.531 45.3019 116.531 45.3019L116.532 45.3015Z" fill="#F8AE1B"/>
<path d="M117.913 40.5616C115.508 40.4287 113.73 38.468 113.944 36.1824C114.158 33.8967 116.281 32.1516 118.687 32.2845C121.093 32.4174 122.87 34.3781 122.656 36.6637C122.443 38.9494 120.319 40.6945 117.913 40.5616Z" fill="#D78F20"/>
<path d="M117.519 40.7755C115.113 40.6425 113.336 38.6819 113.55 36.3962C113.763 34.1106 115.887 32.3654 118.292 32.4984C120.698 32.6313 122.475 34.5919 122.262 36.8776C122.048 39.1632 119.925 40.9084 117.519 40.7755Z" fill="#996929"/>
<path d="M100.308 39.5157C97.9021 39.3828 96.125 37.4221 96.3386 35.1365C96.5522 32.8508 98.6756 31.1057 101.081 31.2386C103.487 31.3715 105.264 33.3322 105.051 35.6178C104.837 37.9035 102.714 39.6486 100.308 39.5157Z" fill="#D78F20"/>
<path d="M99.9095 39.7305C97.5037 39.5976 95.7266 37.637 95.9402 35.3513C96.1538 33.0656 98.2772 31.3205 100.683 31.4534C103.089 31.5864 104.866 33.547 104.652 35.8327C104.439 38.1183 102.315 39.8635 99.9095 39.7305Z" fill="#996929"/>
<path d="M106.051 39.81C105.533 39.621 105.386 38.854 105.721 38.0967C106.057 37.3395 106.749 36.8788 107.266 37.0678C107.784 37.2568 107.931 38.0238 107.595 38.781C107.26 39.5383 106.568 39.999 106.051 39.81Z" fill="#D78F20"/>
<path d="M105.746 40.0024C105.229 39.8134 105.081 39.0463 105.417 38.2891C105.752 37.5319 106.444 37.0712 106.962 37.2602C107.479 37.4491 107.626 38.2162 107.291 38.9734C106.955 39.7307 106.263 40.1913 105.746 40.0024Z" fill="#996929"/>
<path d="M109.823 39.1383C109.628 38.3581 109.926 37.6204 110.489 37.4906C111.052 37.3608 111.666 37.888 111.862 38.6682C112.057 39.4484 111.758 40.1861 111.196 40.3159C110.633 40.4457 110.018 39.9185 109.823 39.1383Z" fill="#D78F20"/>
<path d="M109.549 38.9069C109.354 38.1267 109.653 37.389 110.216 37.2592C110.778 37.1293 111.393 37.6566 111.588 38.4368C111.783 39.2169 111.485 39.9546 110.922 40.0845C110.359 40.2143 109.745 39.6871 109.549 38.9069Z" fill="#996929"/>
<defs>
<clipPath id="clip0_522_2531">
<rect width="86.7112" height="81.9815" fill="white" transform="matrix(-0.880079 0.474828 0.474828 0.880079 122.32 140.204)"/>
</clipPath>
</defs>
</svg>
