<svg width="158" height="157" viewBox="0 0 158 157" fill="none" xmlns="http://www.w3.org/2000/svg">
<g clip-path="url(#clip0_853_3518)">
<path d="M18.6211 34.3689C18.6211 34.3689 27.9451 62.6931 30.8438 74.087C33.1013 82.9667 36.2004 92.1674 40.4349 100.539C44.6695 108.91 51.589 115.744 57.6936 122.872C62.8899 128.943 68.2733 140.177 76.9828 141.434C76.9828 141.434 61.3938 104.27 61.3938 99.8034L102.978 147.01L68.4469 81.2282C87.5624 92.1808 106.678 103.12 125.793 114.073C132.673 118.004 139.552 121.949 146.432 125.881C150.038 127.954 154.22 131.083 158.013 132.313C141.543 114.781 123.242 98.5998 105.943 81.8567L102.991 78.9949L152.376 103.16C152.376 103.16 78.1049 34.3823 39.4865 32.5234L35.6394 37.4046L26.3955 38.9425" fill="#FECC71"/>
<path d="M19.8097 39.8117L7.18628 68.8446L26.3686 40.5071L36.8948 58.3066L31.5114 40.5071L63.0901 62.0511L37.8298 36.7626L59.3364 32.7774L38.0569 31.1459L52.5639 14.9912L32.6736 26.9334L30.3359 0L25.901 28.8056L5.54323 11.4741L23.0825 32.082L4.14062 38.6348L19.8097 39.8117Z" fill="#FFEAAD"/>
<path d="M30.418 104.43C30.418 104.43 26.9048 74.9562 26.1033 73.0706C25.3018 71.185 35.5609 88.2089 33.9312 102.264L30.418 104.43Z" fill="#FECC71"/>
<path d="M105.758 54.843C105.758 54.843 143.294 59.7108 150.855 81.3351C150.855 81.3351 107.107 58.6276 105.758 54.843Z" fill="#FECC71"/>
<path d="M67.4062 35.9067L80.0965 44.0108C80.0965 44.0108 82.8483 40.8147 82.8483 38.6348C82.8483 36.455 68.2612 36.1207 67.4062 35.9067Z" fill="#FECC71"/>
<path d="M132.652 125.093L131.797 126.12L156.53 146.75L157.385 145.723L132.652 125.093Z" fill="#FECC71"/>
<path d="M48.9629 123.202L48.0312 124.16L71.4955 147.02L72.4271 146.061L48.9629 123.202Z" fill="#FECC71"/>
<path d="M102.4 119.33L101.172 119.855L117.025 156.993L118.254 156.467L102.4 119.33Z" fill="#FECC71"/>
<path d="M93.1386 101.786L92.25 102.785L105.186 114.323L106.074 113.325L93.1386 101.786Z" fill="#FECC71"/>
<path d="M12.9727 81.7899L18.6231 72.1345L18.8502 82.726L12.9727 81.7899Z" fill="#FECC71"/>
<path d="M95.7639 46.9396C95.7639 46.9396 111.286 44.5859 113.17 46.0035C115.053 47.421 99.2904 50.7108 97.4069 50.002C95.5234 49.2932 95.7639 46.9396 95.7639 46.9396Z" fill="#FECC71"/>
<path d="M13.5285 31.7489L0 32.6509L0.0887622 33.9852L13.6173 33.0833L13.5285 31.7489Z" fill="#FECC71"/>
<path d="M15.0783 1.77285L13.8516 2.30225L21.3659 19.753L22.5925 19.2236L15.0783 1.77285Z" fill="#FECC71"/>
<path d="M58.0394 25.4355H51.7344V26.7729H58.0394V25.4355Z" fill="#FECC71"/>
</g>
<defs>
<clipPath id="clip0_853_3518">
<rect width="158" height="157" fill="white"/>
</clipPath>
</defs>
</svg>
