<svg width="115" height="80" viewBox="0 0 115 80" fill="none" xmlns="http://www.w3.org/2000/svg">
<g clip-path="url(#clip0_853_3533)">
<path d="M75.2646 46.4591C75.2646 46.4591 69.1876 63.9403 67.957 64.1006C67.957 64.1006 102.081 52.6509 100.052 33.2107" fill="#FF4433"/>
<path d="M65.5584 20.5659C65.5584 20.5659 76.9836 5.98103 78.1984 6.22946C78.1984 6.22946 42.1937 6.06279 37.8047 25.1131" fill="#FF4433"/>
<path d="M115.002 1.01879C115.002 1.01879 113.639 12.11 106.76 23.9999C99.2537 36.9779 85.1718 50.9087 59.1093 52.4087L47.3906 35.698C47.3906 35.698 60.9362 7.75464 90.8923 1.31438C97.9916 -0.213919 106.015 -0.531529 115.002 1.01879Z" fill="#CBCBE0"/>
<path d="M115 1.01879C115 1.01879 113.637 12.11 106.758 23.9999C106.626 23.9653 106.497 23.9182 106.367 23.8521C101.477 21.415 93.4211 6.25778 90.8906 1.31438C97.99 -0.213919 106.014 -0.531529 115 1.01879Z" fill="#FF4433"/>
<path d="M96.3805 6.03156C97.0566 6.03156 97.6047 5.48529 97.6047 4.81143C97.6047 4.13758 97.0566 3.59131 96.3805 3.59131C95.7044 3.59131 95.1562 4.13758 95.1562 4.81143C95.1562 5.48529 95.7044 6.03156 96.3805 6.03156Z" fill="#FFFEFA"/>
<path d="M100.705 12.044C101.381 12.044 101.929 11.4977 101.929 10.8239C101.929 10.15 101.381 9.60376 100.705 9.60376C100.029 9.60376 99.4805 10.15 99.4805 10.8239C99.4805 11.4977 100.029 12.044 100.705 12.044Z" fill="#FFFEFA"/>
<path d="M104.689 17.9215C105.365 17.9215 105.913 17.3752 105.913 16.7013C105.913 16.0275 105.365 15.4812 104.689 15.4812C104.013 15.4812 103.465 16.0275 103.465 16.7013C103.465 17.3752 104.013 17.9215 104.689 17.9215Z" fill="#FFFEFA"/>
<path d="M80.5594 34.0252C84.9264 34.0252 88.4665 30.4969 88.4665 26.1447C88.4665 21.7924 84.9264 18.2642 80.5594 18.2642C76.1925 18.2642 72.6523 21.7924 72.6523 26.1447C72.6523 30.4969 76.1925 34.0252 80.5594 34.0252Z" fill="#FFFEFA"/>
<path d="M80.5613 35.4371C75.4183 35.4371 71.2344 31.2673 71.2344 26.1415C71.2344 21.0158 75.4183 16.8459 80.5613 16.8459C85.7044 16.8459 89.8883 21.0158 89.8883 26.1415C89.8883 31.2673 85.7044 35.4371 80.5613 35.4371ZM80.5613 19.6793C76.9864 19.6793 74.0741 22.5787 74.0741 26.1447C74.0741 29.7107 76.9833 32.6101 80.5613 32.6101C84.1394 32.6101 87.0486 29.7107 87.0486 26.1447C87.0486 22.5787 84.1394 19.6793 80.5613 19.6793Z" fill="#263A42"/>
<path d="M43.5711 39.3364L12.2393 61.849L31.6221 54.4402L0 79.9999L36.1373 60.8301L29.4355 70.9968L54.4978 54.8773L43.5711 39.3364Z" fill="#F9C079"/>
<path d="M47.8516 34.9242L42.5039 38.5002L54.432 56.2181L59.7797 52.6421L47.8516 34.9242Z" fill="#213038"/>
</g>
<defs>
<clipPath id="clip0_853_3533">
<rect width="115" height="80" fill="white"/>
</clipPath>
</defs>
</svg>
