<svg width="80" height="98" viewBox="0 0 80 98" fill="none" xmlns="http://www.w3.org/2000/svg">
<g clip-path="url(#clip0_853_3511)">
<path d="M80 49.0019C80 76.0641 58.0603 98 30.9981 98C27.48 98 24.0508 97.6289 20.7415 96.9252C17.3355 96.1984 14.061 95.1198 10.9566 93.728C3.75802 90.4999 -2.51655 85.5823 -7.36842 79.4817C-8.0643 78.608 -8.72926 77.7111 -9.36329 76.791C-10.8362 74.6569 -12.143 72.3991 -13.2641 70.0409C-13.8517 68.8115 -14.3853 67.555 -14.8685 66.2715C-16.8943 60.9016 -18 55.0793 -18 49.0019C-18 30.3909 -7.62744 14.2038 7.65498 5.90729C11.6254 3.75392 15.9244 2.13018 20.4593 1.14048C23.8536 0.394335 27.3795 0 30.9981 0C35.6992 0 40.2456 0.661091 44.5485 1.90209C51.2909 3.8351 57.434 7.17922 62.6454 11.5904C73.2615 20.5789 80 34.0056 80 49.0019Z" fill="#FFCD95"/>
<path d="M62.0621 68.9623C53.8816 75.4186 43.4162 76.8722 34.9071 82.6403C30.3722 85.7177 22.9958 91.0064 20.742 96.9253C17.336 96.1985 14.0615 95.1199 10.957 93.7281C15.4262 90.7049 23.9546 83.4754 25.0062 82.4432C29.2318 78.2988 32.7189 73.4276 36.6816 69.0358C40.7719 64.4971 45.0554 60.0859 49.7488 56.1619C53.004 53.4402 56.6728 50.4982 60.9332 49.292C63.6356 48.5265 70.5132 47.3435 72.4501 50.1425C77.0004 56.7186 66.45 65.4984 62.0621 68.9623Z" fill="#FFE4B9"/>
<path d="M10.4215 62.0537C9.91896 65.0615 -2.44847 74.1196 -7.36993 79.4818C-8.06581 78.6081 -8.73077 77.7112 -9.3648 76.791C-10.8378 74.657 -12.1445 72.3992 -13.2656 70.0409C-7.22302 65.6143 3.38923 58.0756 5.73205 57.9171C9.05297 57.6967 11.044 58.3191 10.4215 62.0537Z" fill="#FFE4B9"/>
<path d="M62.6458 11.5904C61.5981 13.0092 60.2604 14.5788 59.0658 15.727C58.424 16.3456 57.9524 16.7051 57.732 16.7206H57.7166C57.2797 16.6355 58.0529 15.0389 58.1612 14.4783C59.5491 7.21788 50.9819 9.23595 46.9265 11.0414C41.1081 13.6355 36.1557 18.1162 31.8296 22.7091C25.4507 29.4823 20.363 37.3536 13.8526 44.007C10.5587 47.3743 6.77389 51.8705 1.96068 52.1102C-13.2599 52.8757 -8.34229 30.2324 -4.44146 21.9822C-1.59993 15.9706 2.58698 10.4383 7.65535 5.90729C14.5949 2.14178 22.5473 0 30.9984 0C43.0643 0 54.1096 4.36088 62.6458 11.5904Z" fill="#FEBC65"/>
<path d="M62.2259 11.2385C60.8225 13.1561 59.423 14.861 59.0828 15.2205C56.566 17.8842 53.3611 19.5505 50.2605 21.4216C47.1638 23.2889 44.071 25.1756 41.1057 27.2478C39.2269 28.5661 36.54 29.7336 35.5503 31.9527C34.7887 33.6615 35.3222 35.7685 37.0194 36.6886C38.9794 37.7518 40.7771 36.159 42.2501 35.0146C48.6522 30.0584 54.95 24.8933 61.7233 20.4551C63.4011 19.3572 65.4888 17.7412 67.6615 16.4925L62.2259 11.2385Z" fill="#FFE4B9"/>
<path d="M44.548 1.90209C43.0441 2.48586 41.5441 3.11215 40.1871 3.97814C34.1213 7.85964 29.0723 13.1948 24.7384 18.8972C17.9226 27.8702 12.5527 37.9064 5.30391 46.5393C4.80519 47.1308 4.26395 47.7416 3.53327 48.0006C2.3464 48.4143 0.99715 47.7339 0.270337 46.7055C-0.456477 45.681 -0.684572 44.3936 -0.831481 43.1449C-2.26578 30.9978 2.57063 18.5647 10.7898 9.5027C13.67 6.32869 16.9291 3.54515 20.4587 1.14048C23.8531 0.394335 27.3789 0 30.9975 0C35.6986 0 40.2451 0.661091 44.548 1.90209Z" fill="#FFE4B9"/>
</g>
<defs>
<clipPath id="clip0_853_3511">
<rect width="98" height="98" fill="white" transform="translate(-18)"/>
</clipPath>
</defs>
</svg>
