<svg width="90" height="105" viewBox="0 0 90 105" fill="none" xmlns="http://www.w3.org/2000/svg">
<g clip-path="url(#clip0_853_3499)">
<path d="M105 52.4972C105 54.2946 104.91 56.0693 104.734 57.8215C104.367 61.4671 103.627 65.0054 102.547 68.391C100.783 73.964 98.1044 79.1358 94.6905 83.731C85.1383 96.6348 69.7928 105 52.5028 105C36.5638 105 22.2808 97.8952 12.6552 86.6814C6.42649 79.4297 2.14217 70.4541 0.616084 60.5741C0.20913 57.9402 0 55.2441 0 52.4972C0 39.972 4.39172 28.4642 11.7226 19.4434C20.8847 8.14475 34.6477 0.73478 50.1572 0.0565215C50.9372 0.0169565 51.7172 0 52.5028 0C72.7771 0 90.3666 11.4965 99.1161 28.3286C102.875 35.5633 105 43.7816 105 52.4972Z" fill="#B14CB1"/>
<path d="M105.001 52.4973C105.001 54.2947 104.911 56.0695 104.736 57.8216C104.549 58.8729 104.357 59.9242 104.153 60.9699C104.142 61.0151 104.136 61.0603 104.125 61.1055C103.633 63.6207 103.13 66.0624 102.548 68.3911C100.858 73.7324 98.3316 78.7007 95.1155 83.1489C94.9799 83.3411 94.8329 83.5389 94.6916 83.7311C92.1595 86.0993 88.8756 87.9419 84.5178 89.1232C78.6904 90.7058 72.5126 90.5758 66.5552 89.6093C48.9262 86.7493 32.8797 76.5698 21.485 62.8181C13.7472 53.4808 7.84634 41.7299 9.00503 29.657C9.34982 26.1244 10.2937 22.6822 11.7237 19.4435C20.8859 8.14487 34.6488 0.734899 50.1583 0.0566406C50.2092 1.83707 50.0227 3.75315 50.2092 5.4714C51.6562 18.6635 73.7165 26.8196 84.2295 29.3348C88.9886 30.4765 94.2677 31.0304 98.552 28.6622C98.7442 28.5548 98.9307 28.4474 99.1173 28.3287C102.876 35.5634 105.001 43.7817 105.001 52.4973Z" fill="#E958A8"/>
<path d="M20.1276 43.663C21.1789 41.826 24.2198 41.5773 26.2319 41.3399C29.561 40.9499 32.9071 41.6904 35.3375 44.1151C41.4023 50.1799 40.4697 58.579 35.5693 58.579C30.5502 58.579 25.3728 55.2047 22.4337 51.3047C21.1902 49.6599 19.2402 46.4721 19.8733 44.2621C19.9354 44.0473 20.0202 43.8438 20.1276 43.663Z" fill="#D54E98"/>
<path d="M62.9025 46.2911C61.2182 43.6855 59.856 40.379 62.4334 38.0164C65.6551 35.0659 70.7534 34.3933 74.9529 34.3594C77.6716 34.3368 80.4864 34.8003 82.7303 36.3377C85.1494 37.9994 86.6302 40.7351 87.5459 43.5272C88.7385 47.1728 89.1002 52.5989 84.3072 53.3506C81.029 53.865 77.6885 54.2324 74.399 53.8028C70.9568 53.3506 67.6955 51.7398 65.2595 49.2641C64.5529 48.5463 63.6825 47.4894 62.9082 46.2911H62.9025Z" fill="#D54E98"/>
<path d="M104.151 60.9697C104.139 61.0149 104.134 61.0602 104.122 61.1054C103.631 63.6206 103.128 66.0623 102.545 68.391C100.855 73.7323 98.3289 78.7005 95.1128 83.1488C92.6541 80.7353 89.0989 75.8631 92.1737 69.8719C95.5537 63.2871 99.7532 61.1789 104.151 60.9697Z" fill="#D54E98"/>
<path d="M30.7091 78.0788C29.9404 82.4988 32.8965 86.3366 36.073 89.0327C37.633 90.3553 39.8543 92.1414 42.1321 93.2209C47.0438 95.5496 50.192 92.2544 53.6116 89.191C54.2107 88.654 54.6629 87.7553 54.9681 86.6249C46.7838 83.6914 39.159 79.2036 32.4443 73.5967C31.6134 74.8854 31.0086 76.3832 30.7147 78.0732L30.7091 78.0788Z" fill="#AD459C"/>
<path d="M49.0153 69.1088C43.4479 66.3844 35.9305 68.1649 32.4375 73.5966C39.1523 79.2035 46.777 83.6913 54.9613 86.6248C56.3235 81.5717 54.6448 71.8614 49.0153 69.1031V69.1088Z" fill="#D54E98"/>
<path d="M13.1819 75.5465C13.0915 80.1982 12.9502 83.9739 12.6563 86.6813C6.4276 79.4295 2.14327 70.4539 0.617188 60.574C3.66935 62.1001 13.3402 67.5939 13.1819 75.5465Z" fill="#A043A5"/>
<path d="M29.526 23.5752C29.526 23.5752 28.0339 10.1457 36.563 10.3605C41.8873 10.4961 49.8512 15.8091 49.9699 21.7043C50.0433 25.3782 46.5051 32.5282 42.3169 32.5282C37.4164 32.5282 29.526 31.2508 29.526 23.5752Z" fill="#D54E98"/>
<path d="M64.8203 73.3309C64.5773 72.9466 64.3681 72.5114 64.2155 72.0309C63.1755 68.8149 63.2773 64.2932 67.6973 64.4232C74.4855 64.621 76.882 73.4044 73.4851 75.004C70.4725 76.4227 66.5894 76.1061 64.8203 73.3309Z" fill="#D54E98"/>
</g>
<defs>
<clipPath id="clip0_853_3499">
<rect width="105" height="105" fill="white"/>
</clipPath>
</defs>
</svg>
