<svg width="375" height="381" viewBox="0 0 375 381" fill="none" xmlns="http://www.w3.org/2000/svg">
<g clip-path="url(#clip0_983_8831)">
<path d="M249.652 106.192L240.635 97.6102L68.3431 278.646C66.1171 280.985 66.209 284.688 68.5451 286.911L69.0947 287.434C71.4322 289.659 75.1349 289.564 77.3595 287.227L249.651 106.191L249.652 106.192Z" fill="#D3AE74"/>
<mask id="mask0_983_8831" style="mask-type:luminance" maskUnits="userSpaceOnUse" x="66" y="97" width="184" height="193">
<path d="M249.652 106.192L240.635 97.6102L68.3431 278.646C66.1171 280.985 66.209 284.688 68.5451 286.911L69.0947 287.434C71.4322 289.659 75.1349 289.564 77.3595 287.227L249.651 106.191L249.652 106.192Z" fill="white"/>
</mask>
<g mask="url(#mask0_983_8831)">
<path d="M225.128 92.7764L238.734 105.726L51.5002 302.462L37.8939 289.513L225.128 92.7764Z" fill="#B99668"/>
</g>
<path d="M227.137 106.534C234.017 107.007 239.808 111.857 241.479 118.546C245.219 133.504 265.916 134.927 271.685 120.621C274.266 114.223 280.67 110.211 287.55 110.684C302.934 111.741 310.695 92.4942 298.877 82.5959C293.591 78.1686 291.76 70.84 294.339 64.4443C300.107 50.1391 284.206 36.8214 271.133 45.0088C265.286 48.6705 257.75 48.1523 252.465 43.725C240.646 33.8267 223.056 44.8432 226.796 59.8018C228.468 66.492 225.642 73.4994 219.796 77.1623C206.723 85.3498 211.753 105.477 227.137 106.534Z" fill="#FFF17D"/>
<mask id="mask1_983_8831" style="mask-type:luminance" maskUnits="userSpaceOnUse" x="212" y="39" width="93" height="92">
<path d="M227.137 106.534C234.017 107.007 239.808 111.857 241.479 118.546C245.219 133.504 265.916 134.927 271.685 120.621C274.266 114.223 280.67 110.211 287.55 110.684C302.934 111.741 310.695 92.4942 298.877 82.5959C293.591 78.1686 291.76 70.84 294.339 64.4443C300.107 50.1391 284.206 36.8214 271.133 45.0088C265.286 48.6705 257.75 48.1523 252.465 43.725C240.646 33.8267 223.056 44.8432 226.796 59.8018C228.468 66.492 225.642 73.4994 219.796 77.1623C206.723 85.3498 211.753 105.477 227.137 106.534Z" fill="white"/>
</mask>
<g mask="url(#mask1_983_8831)">
<path d="M214.067 88.4753C197.531 72.7383 195.087 48.4644 208.607 34.2579C222.127 20.0514 246.493 21.2922 263.028 37.0291C279.564 52.7661 282.008 77.04 268.488 91.2465C254.968 105.453 230.603 104.212 214.067 88.4753Z" fill="#FFDD79"/>
</g>
<path d="M298.399 130.724C307.674 146.179 307.81 151.68 299.299 167.583C314.76 158.297 320.261 158.158 336.158 166.659C326.882 151.203 326.747 145.703 335.257 129.8C319.796 139.085 314.296 139.224 298.399 130.724Z" fill="#FFF17D"/>
<path d="M237.312 166.446C240.507 172.299 240.399 174.475 236.587 181.026C242.941 176.894 245.108 176.677 251.113 179.58C247.917 173.727 248.025 171.551 251.838 165C245.484 169.132 243.317 169.349 237.312 166.446Z" fill="#FFF17D"/>
<path d="M163.389 88.5088C170.197 99.8569 170.293 103.896 164.039 115.575C175.395 108.751 179.435 108.649 191.105 114.885C184.297 103.537 184.201 99.4981 190.455 87.8186C179.099 94.6428 175.059 94.7453 163.389 88.5088Z" fill="#FFF17D"/>
<path d="M251.233 60.078C253.75 64.8293 253.625 66.6183 250.385 72.0638C255.664 68.5589 257.446 68.3441 262.315 70.624C259.798 65.8727 259.923 64.0837 263.163 58.6382C257.884 62.1431 256.102 62.3579 251.233 60.078Z" fill="white"/>
</g>
<defs>
<clipPath id="clip0_983_8831">
<rect width="183.671" height="349.885" fill="white" transform="matrix(-0.724385 -0.689396 -0.689396 0.724385 374.258 126.622)"/>
</clipPath>
</defs>
</svg>
