<svg width="262" height="403" viewBox="0 0 262 403" fill="none" xmlns="http://www.w3.org/2000/svg">
<g clip-path="url(#clip0_928_4925)">
<path d="M150.727 370.813C150.727 370.813 138.69 401.06 130.15 403C126.27 401.839 126.27 382.058 131.705 369.647C135.977 364.606 141.61 364.047 143.318 364.39C143.318 364.39 153.048 352.964 153.048 349.894C153.048 349.894 142.976 350.916 138.366 353.306C133.755 355.697 117.194 369.508 109.001 367.46C109.001 367.46 110.538 353.135 124.197 343.074C124.197 343.074 129.488 339.324 137 342.732C137 342.732 140.073 343.245 141.096 340.346C142.119 337.447 157.487 318.689 173.534 316.47L167.73 298.562C167.73 298.562 161.926 302.825 158.852 301.974C155.779 301.124 152.025 297.027 151.854 295.834C151.854 295.834 143.318 298.049 141.439 297.027C139.56 296.005 136.658 290.716 136.658 289.352C136.658 289.352 127.608 291.567 125.9 288.159C124.193 284.751 125.022 279.133 125.702 276.193C126.383 273.254 151.056 230.29 172.786 224.861C172.786 224.861 175.08 210.821 165.301 200.917C165.301 200.917 153.823 223.196 152.913 224.497C146.635 233.446 137.91 241.643 129.416 248.405C125.95 251.16 124.346 248.796 120.646 248.382C119.898 248.301 118.158 248.382 117.739 248.301C117.32 248.22 115.828 245.731 119.398 245.483C122.967 245.236 124.792 245.483 122.8 243.827C120.808 242.17 118.735 240.18 115.828 241.175C112.922 242.17 112.759 242.584 111.678 242.17C110.596 241.756 110.101 238.191 113.503 236.534C116.572 235.458 124.292 235.125 127.775 239.933C127.775 239.933 139.127 225.807 140.303 222.156C140.303 222.156 154.801 199.062 155.324 197.757C155.846 196.451 154.706 196.073 153.643 196.528C152.579 196.983 144.021 202.583 137.527 201.997C102.228 198.797 78.4108 172.854 54.0621 150.112C42.1198 138.957 30.1235 127.842 18.4966 116.358C13.4583 111.384 1.50256 102.759 0.00189209 95.2772C0.00189209 95.2772 109.785 146.276 123.949 154.532C138.113 162.788 154.643 175.465 154.643 175.465C154.643 175.465 156.252 167.425 162.444 167.551C162.444 167.551 152.66 160.623 150.308 155.554C147.955 150.485 147.829 144.052 148.203 142.319C148.203 142.319 146.099 142.567 145.355 141.703C144.612 140.838 145.603 135.517 145.233 134.527C144.864 133.537 142.755 129.211 141.272 130.322C139.79 131.434 138.55 135.391 137.559 135.391C136.567 135.391 127.518 127.356 127.266 114.045C127.014 100.733 141.092 90.9376 144.364 90.69C147.631 90.4379 156.685 88.4302 161.709 94.4579C161.709 94.4579 159.609 73.7143 165.675 50.7785C171.736 27.8382 184.3 1.87723 187.333 0.576257C187.333 0.576257 191.664 74.1375 191.664 79.3324C191.664 79.3324 204.927 75.1684 211.916 80.899C218.906 86.6295 224.819 104.352 206.896 111.51C206.896 111.51 211.894 124.322 207.933 132.924C203.971 141.531 195.526 148.586 190.186 148.932C190.186 148.932 187.428 160.461 187.946 162.703C187.946 162.703 198.284 162.185 201.385 165.282C204.485 168.379 205.003 173.201 204.832 175.609C204.832 175.609 210.691 179.566 211.209 184.387C211.727 189.204 211.038 193.336 210.348 196.091C209.659 198.846 207.59 204.01 208.798 205.729C208.798 205.729 231.367 224.146 233.435 224.488C235.504 224.83 243.083 227.756 244.805 223.97C246.526 220.184 247.216 215.192 251.006 214.503C254.796 213.814 260.997 213.472 261.862 217.258C262.727 221.044 259.366 220.882 258.955 220.306C258.545 219.729 258.054 218.343 255.923 218.505C253.791 218.667 254.043 221.292 253.372 222.795C252.7 224.299 250.366 231.299 243.02 231.798C235.675 232.298 222.155 235.134 209.97 221.791C209.97 221.791 207.117 224.074 208.077 227.567C208.077 227.567 246.468 250.633 248.694 263.967C250.92 277.296 241.2 272.493 240.069 272.772C238.937 273.051 236.86 272.961 237.144 275.883C237.428 278.804 240.258 286.439 235.918 286.817C231.578 287.195 226.955 286.534 226.013 287.574C225.071 288.613 223.746 290.495 223.935 291.909C224.125 293.322 224.503 298.787 221.2 299.354C217.897 299.922 212.331 299.922 209.69 297.279C207.049 294.637 206.86 298.693 206.86 298.693C206.747 303.491 206.36 308.349 205.594 313.084C203.309 327.188 189.515 338.568 180.037 348.427C173.53 355.197 161.335 370.863 150.731 370.804L150.727 370.813Z" fill="#AB1A78"/>
<path d="M54.7549 342.372C68.5748 348.908 71.3367 353.219 73.2562 371.266C79.2834 354.15 82.9634 350.589 97.9192 347.415C84.0993 340.879 81.3373 336.568 79.4179 318.522C73.3907 335.638 69.7107 339.198 54.7549 342.372Z" fill="#FFF17D"/>
<path d="M91.0664 296.638C98.4025 297.073 100.408 298.5 104.502 306.203C104.119 297.489 105.121 295.24 111.221 291.141C103.885 290.706 101.88 289.279 97.7858 281.575C98.169 290.29 97.1667 292.538 91.0664 296.638Z" fill="#FFF17D"/>
</g>
<defs>
<clipPath id="clip0_928_4925">
<rect width="262" height="403" fill="white" transform="matrix(-1 0 0 1 262 0)"/>
</clipPath>
</defs>
</svg>
